<svg width="225" height="189" viewBox="0 0 225 189" fill="none" xmlns="http://www.w3.org/2000/svg">
<path d="M112.222 4V4.5H114L112.222 4ZM110 4.5L110.444 5L110 4.5Z" fill="#C7EDDF"/>
<path d="M44.9303 122H45.3495L69.665 97.8958V100.389H70.0843C70.0889 93.7196 73.9693 92.7836 78.4689 89.0749C81.6128 86.4841 84.3831 83.3057 87.2728 80.4411L138 30.1547C135.262 26.3022 131.297 23.0943 127.938 19.765C123.891 15.7525 119.575 9.77879 114.523 7.05502C109.113 4.13882 104.779 7.81388 101.108 11.4532L86.8536 25.5832C84.7323 27.6861 82.4357 30.8783 79.7266 32.221C77.9659 33.0938 75.3532 32.6483 73.4381 32.6483C67.4104 32.6483 56.7627 30.6268 51.6443 34.2287C42.8882 40.3903 50.7455 55.3922 47.6121 63.8175C46.658 66.3821 43.4827 68.5772 41.5764 70.4669L27.7418 84.1814C25.5056 86.3981 22.5701 88.6082 21.499 91.662C19.6996 96.7908 23.0925 100.352 26.4841 103.714L44.9303 122Z" fill="#1C68C4"/>
<path d="M107.909 5L108.364 5.5L107.909 5ZM115.636 5L116.091 5.5L115.636 5ZM107 5.5L107.455 6L107 5.5ZM116.545 5.5L117 6L116.545 5.5Z" fill="#ADE8CA"/>
<path d="M106.801 6L107.213 6.44068L106.801 6ZM118.73 6L119.142 6.44068L118.73 6ZM106.39 6.44068L106.801 6.88136L106.39 6.44068ZM119.142 6.44068L119.553 6.88136L119.142 6.44068ZM105.979 6.88136L106.39 7.32203L105.979 6.88136ZM119.553 6.88136L119.965 7.32203L119.553 6.88136ZM105.567 7.32203L105.979 7.76271L105.567 7.32203ZM119.965 7.32203L120.376 7.76271L119.965 7.32203ZM105.156 7.76271L105.567 8.20339L105.156 7.76271ZM120.376 7.76271L120.787 8.20339L120.376 7.76271ZM104.745 8.20339L105.156 8.64407L104.745 8.20339ZM120.787 8.20339L121.199 8.64407L120.787 8.20339ZM104.333 8.64407L104.745 9.08475L104.333 8.64407ZM121.199 8.64407L121.61 9.08475L121.199 8.64407ZM103.922 9.08475L104.333 9.52542L103.922 9.08475ZM121.61 9.08475L122.021 9.52542L121.61 9.08475ZM103.511 9.52542L103.922 9.9661L103.511 9.52542ZM122.021 9.52542L122.433 9.9661L122.021 9.52542ZM103.099 9.9661L103.511 10.4068L103.099 9.9661ZM122.433 9.9661L122.844 10.4068L122.433 9.9661ZM102.688 10.4068L103.099 10.8475L102.688 10.4068ZM122.844 10.4068L123.255 10.8475L122.844 10.4068ZM102.277 10.8475L102.688 11.2881L102.277 10.8475ZM123.255 10.8475L123.667 11.2881L123.255 10.8475ZM101.865 11.2881L102.277 11.7288L101.865 11.2881ZM123.667 11.2881L124.078 11.7288L123.667 11.2881ZM101.454 11.7288L101.865 12.1695L101.454 11.7288ZM124.078 11.7288L124.489 12.1695L124.078 11.7288ZM101.043 12.1695L101.454 12.6102L101.043 12.1695ZM124.489 12.1695L124.901 12.6102L124.489 12.1695ZM100.631 12.6102L101.043 13.0508L100.631 12.6102ZM124.901 12.6102L125.312 13.0508L124.901 12.6102ZM100.22 13.0508L100.631 13.4915L100.22 13.0508ZM125.312 13.0508L125.723 13.4915L125.312 13.0508ZM99.8085 13.4915L100.22 13.9322L99.8085 13.4915ZM125.723 13.4915L126.135 13.9322L125.723 13.4915ZM99.3972 13.9322L99.8085 14.3729L99.3972 13.9322ZM126.135 13.9322L126.546 14.3729L126.135 13.9322ZM98.9858 14.3729L99.3972 14.8136L98.9858 14.3729ZM126.546 14.3729L126.957 14.8136L126.546 14.3729ZM98.5745 14.8136L98.9858 15.2542L98.5745 14.8136ZM126.957 14.8136L127.369 15.2542L126.957 14.8136ZM98.1631 15.2542L98.5745 15.6949L98.1631 15.2542ZM127.369 15.2542L127.78 15.6949L127.369 15.2542ZM97.7518 15.6949L98.1631 16.1356L97.7518 15.6949ZM127.78 15.6949L128.191 16.1356L127.78 15.6949ZM97.3404 16.1356L97.7518 16.5763L97.3404 16.1356ZM128.191 16.1356L128.603 16.5763L128.191 16.1356ZM96.9291 16.5763L97.3404 17.0169L96.9291 16.5763ZM128.603 16.5763L129.014 17.0169L128.603 16.5763ZM96.5177 17.0169L96.9291 17.4576L96.5177 17.0169ZM129.014 17.0169L129.426 17.4576L129.014 17.0169ZM96.1064 17.4576L96.5177 17.8983L96.1064 17.4576ZM129.426 17.4576L129.837 17.8983L129.426 17.4576ZM95.695 17.8983L96.1064 18.339L95.695 17.8983ZM129.837 17.8983L130.248 18.339L129.837 17.8983ZM95.2837 18.339L95.695 18.7797L95.2837 18.339ZM130.248 18.339L130.66 18.7797L130.248 18.339ZM94.8723 18.7797L95.2837 19.2203L94.8723 18.7797ZM130.66 18.7797L131.071 19.2203L130.66 18.7797ZM94.461 19.2203L94.8723 19.661L94.461 19.2203ZM131.071 19.2203L131.482 19.661L131.071 19.2203ZM94.0496 19.661L94.461 20.1017L94.0496 19.661ZM131.482 19.661L131.894 20.1017L131.482 19.661ZM93.6383 20.1017L94.0496 20.5424L93.6383 20.1017ZM131.894 20.1017L132.305 20.5424L131.894 20.1017ZM93.227 20.5424L93.6383 20.9831L93.227 20.5424ZM132.305 20.5424L132.716 20.9831L132.305 20.5424ZM92.8156 20.9831L93.227 21.4237L92.8156 20.9831ZM132.716 20.9831L133.128 21.4237L132.716 20.9831ZM92.4043 21.4237L92.8156 21.8644L92.4043 21.4237ZM133.128 21.4237L133.539 21.8644L133.128 21.4237ZM91.9929 21.8644L92.4043 22.3051L91.9929 21.8644ZM133.539 21.8644L133.95 22.3051L133.539 21.8644ZM91.5816 22.3051L91.9929 22.7458L91.5816 22.3051ZM133.95 22.3051L134.362 22.7458L133.95 22.3051ZM91.1702 22.7458L91.5816 23.1864L91.1702 22.7458ZM134.362 22.7458L134.773 23.1864L134.362 22.7458ZM90.7589 23.1864L91.1702 23.6271L90.7589 23.1864ZM134.773 23.1864L135.184 23.6271L134.773 23.1864ZM90.3475 23.6271L90.7589 24.0678L90.3475 23.6271ZM135.184 23.6271L135.596 24.0678L135.184 23.6271ZM89.9362 24.0678L90.3475 24.5085L89.9362 24.0678ZM135.596 24.0678L136.007 24.5085L135.596 24.0678ZM89.5248 24.5085L89.9362 24.9492L89.5248 24.5085ZM136.007 24.5085L136.418 24.9492L136.007 24.5085ZM89.1135 24.9492L89.5248 25.3898L89.1135 24.9492ZM136.418 24.9492L136.83 25.3898L136.418 24.9492ZM88.7021 25.3898L89.1135 25.8305L88.7021 25.3898ZM136.83 25.3898L137.241 25.8305L136.83 25.3898ZM88.2908 25.8305L88.7021 26.2712L88.2908 25.8305ZM137.241 25.8305L137.652 26.2712L137.241 25.8305ZM87.8794 26.2712L88.2908 26.7119L87.8794 26.2712ZM137.652 26.2712L138.064 26.7119L137.652 26.2712ZM87.4681 26.7119L87.8794 27.1525L87.4681 26.7119ZM138.064 26.7119L138.475 27.1525L138.064 26.7119ZM87.0567 27.1525L87.4681 27.5932L87.0567 27.1525ZM138.475 27.1525L138.887 27.5932L138.475 27.1525ZM86.6454 27.5932L87.0567 28.0339L86.6454 27.5932ZM138.887 27.5932L139.298 28.0339L138.887 27.5932ZM86.234 28.0339L86.6454 28.4746L86.234 28.0339ZM139.298 28.0339L139.709 28.4746L139.298 28.0339ZM85.8227 28.4746L86.234 28.9153L85.8227 28.4746ZM139.709 28.4746L140.121 28.9153L139.709 28.4746ZM85.4113 28.9153L85.8227 29.3559L85.4113 28.9153ZM140.121 28.9153L143 32L140.121 28.9153ZM85 29.3559L85.4113 29.7966L85 29.3559Z" fill="#ADE8CA"/>
<path d="M77.0244 89.9489C83.4292 89.9665 86.7328 94.556 90.9708 98.7667C92.2252 100.013 94.8378 103.748 96.8875 103.24C100.069 102.453 103.901 96.8373 106.185 94.5677L129.006 71.8933C132.955 67.9698 137.795 61.3254 144.221 63.7314C149.455 65.6919 152.381 72.1469 149.018 76.9321C145.745 81.5883 140.651 85.5173 136.614 89.529L111.256 114.723C107.427 118.528 102.449 125.984 96.4649 125.984C90.1324 125.984 83.6815 117.138 79.5601 113.043C75.1814 108.693 69.2859 104.562 68.9947 97.9269C62.4433 102.512 56.9125 109.511 51.2448 115.143C49.526 116.85 45.6607 119.454 45.0517 121.861C44.6502 123.447 46.7097 124.901 46.956 126.48C47.5202 130.096 47.0186 134.158 47.0186 137.817C47.0186 143.551 45.3919 151.764 50.8285 155.599C55.8576 159.146 66.4624 157.132 72.3756 157.132C74.5737 157.132 77.622 156.59 79.5601 157.805C86.7438 162.311 92.9884 170.894 99.0006 176.867C101.768 179.617 104.565 183.419 108.721 183.928C113.831 184.554 116.835 180.982 120.131 177.707L134.5 163.431C136.422 161.521 138.654 158.341 141.262 157.385C149.665 154.308 163.366 161.537 170.379 154.569C177.391 147.601 170.116 133.988 173.213 125.64C174.175 123.049 177.376 120.831 179.298 118.922L193.244 105.065C195.907 102.42 199.436 99.7946 199.928 95.8274C200.583 90.5548 196.648 87.4522 193.244 84.0703L179.721 70.6336C177.703 68.6294 174.682 66.4771 173.393 63.9153C172.409 61.9602 172.959 58.9088 172.959 56.777C172.959 50.9934 174.251 43.4142 172.441 37.8817C169.42 28.6452 152.162 32.0065 144.643 32.0031C142.402 32.0023 139.123 29.6332 137.459 30.0489C135.563 30.5222 133.716 33.2019 132.387 34.5225L121.399 45.4398L92.2387 74.4127C87.2421 79.3771 81.0943 84.2089 77.0244 89.9489Z" fill="#1C68C4"/>
<path d="M84.25 30L85 30.5L84.25 30ZM83.5 30.5L84.25 31L83.5 30.5ZM82.75 31L83.5 31.5L82.75 31ZM82 31.5L82.75 32L82 31.5Z" fill="#ADE8CA"/>
<path d="M53 32L55 33L53 32Z" fill="#C7EDDF"/>
<path d="M171.74 33L172.16 33.3333L171.74 33ZM52.4201 33.3333L52.8403 33.6667L52.4201 33.3333ZM172.16 33.3333L172.58 33.6667L172.16 33.3333ZM52 33.6667L52.4201 34L52 33.6667ZM172.58 33.6667L173 34L172.58 33.6667Z" fill="#ADE8CA"/>
<path d="M51 34L51.4212 36L51 34ZM173.579 34L174 36L173.579 34Z" fill="#C7EDDF"/>
<path d="M50 38L50.4195 39L50 38ZM174.581 38L175 39L174.581 38Z" fill="#C7EDDF"/>
<path d="M141.818 63V63.5H145L141.818 63ZM140 63.5L140.455 64L140 63.5Z" fill="#82DEAA"/>
<path d="M140 63L142 64L140 63Z" fill="#ADE8CA"/>
<path d="M141.726 60.2314C136.703 61.3766 133.021 66.3792 129.557 69.8062L106.572 92.5492C104.027 95.0674 99.7203 101.354 96.2058 102.268C94.0749 102.821 91.2066 98.7513 89.896 97.4545C84.8707 92.4823 77.0448 83.7075 69.7628 90.9121C59.7722 100.796 79.6219 114.046 85.8397 120.197C89.2055 123.527 92.3956 126.744 97.5579 125.848C103.546 124.809 108.796 117.104 112.882 113.062L139.022 87.1979C143.084 83.1786 148.61 79.1108 151.644 74.2656C155.849 67.5516 149.64 58.4276 141.726 60.2314Z" fill="#F9FBFB"/>
<path d="M146 63L147 64L146 63Z" fill="#82DEAA"/>
<path d="M49 64L50 66L49 64Z" fill="#ADE8CA"/>
<path d="M138 64L139 66L138 64Z" fill="#C7EDDF"/>
<path d="M175 64L176 66L175 64Z" fill="#82DEAA"/>
<path d="M46 66L49 67L46 66Z" fill="#ADE8CA"/>
<path d="M136 66L136.443 67L136 66ZM178.557 66L179 67L178.557 66Z" fill="#82DEAA"/>
<path d="M45 67L46 68L45 67Z" fill="#ADE8CA"/>
<path d="M135 67L135.427 68L135 67ZM150.806 67L151.233 68L150.806 67ZM178.573 67L179 68L178.573 67Z" fill="#82DEAA"/>
<path d="M44 68L45 70L44 68Z" fill="#ADE8CA"/>
<path d="M134 68L135 70L134 68Z" fill="#82DEAA"/>
<path d="M43 70L44 71L43 70Z" fill="#ADE8CA"/>
<path d="M133 70L133.419 70.7502L133 70ZM152.823 70.5004L152.963 71L152.823 70.5004ZM181.581 70L182 70.7502L181.581 70Z" fill="#82DEAA"/>
<path d="M42 71L43 72L42 71Z" fill="#ADE8CA"/>
<path d="M132 71L132.415 72L132 71ZM182.585 71L183 72L182.585 71Z" fill="#82DEAA"/>
<path d="M41 72L42 73L41 72Z" fill="#ADE8CA"/>
<path d="M130 72L130.419 73L130 72ZM183.581 72L184 73L183.581 72Z" fill="#82DEAA"/>
<path d="M39 73L41 74L39 73Z" fill="#ADE8CA"/>
<path d="M128 73L128.415 74L128 73ZM183.585 73L184 74L183.585 73Z" fill="#82DEAA"/>
<path d="M38 74L39 76L38 74Z" fill="#ADE8CA"/>
<path d="M127 74L127.418 76L127 74ZM151.27 74L151.688 76L151.27 74ZM185.582 74L186 76L185.582 74Z" fill="#82DEAA"/>
<path d="M36 76L38 78L36 76Z" fill="#ADE8CA"/>
<path d="M126 76L127 78L126 76Z" fill="#82DEAA"/>
<path d="M35 78L36 79L35 78Z" fill="#ADE8CA"/>
<path d="M189 78L190 79L189 78Z" fill="#82DEAA"/>
<path d="M34 79L35 80L34 79Z" fill="#ADE8CA"/>
<path d="M190 79L191 80L190 79Z" fill="#82DEAA"/>
<path d="M32 80L34 81L32 80Z" fill="#ADE8CA"/>
<path d="M31 81L32 82L31 81Z" fill="#ADE8CA"/>
<path d="M30 82L31 85L30 82Z" fill="#ADE8CA"/>
<path d="M119 82L120 85L119 82Z" fill="#82DEAA"/>
<path d="M29 85L30 86L29 85Z" fill="#ADE8CA"/>
<path d="M195 85L196 86L195 85Z" fill="#82DEAA"/>
<path d="M27 86L29 87L27 86Z" fill="#ADE8CA"/>
<path d="M196 86L198 87L196 86Z" fill="#82DEAA"/>
<path d="M25 87L27 88L25 87Z" fill="#ADE8CA"/>
<path d="M24 88L25 89L24 88Z" fill="#C7EDDF"/>
<path d="M24 89L24.4167 91L24 89ZM78.5833 89L79 91L78.5833 89Z" fill="#ADE8CA"/>
<path d="M83 89L83.4306 91L83 89ZM113.569 89L114 91L113.569 89Z" fill="#82DEAA"/>
<path d="M200.582 89L201 90L200.582 89ZM78 90L78.4184 91L78 90ZM84.2755 90L84.6939 91L84.2755 90Z" fill="#ADE8CA"/>
<path d="M200.585 91L201 91.5L200.585 91ZM77 91.5L77.4147 92L77 91.5ZM86.5385 91.5L86.9532 92L86.5385 91.5Z" fill="#ADE8CA"/>
<path d="M86 91L86.871 92L86 91ZM112.565 91L113 91.5L112.565 91Z" fill="#82DEAA"/>
<path d="M135.585 91L136 91.5L135.585 91ZM23 91.5L23.4154 92L23 91.5ZM74.9301 91.5L75.3456 92L74.9301 91.5ZM85.3162 91.5L85.7316 92L85.3162 91.5Z" fill="#C7EDDF"/>
<path d="M87 92L87.4259 93L87 92ZM109.574 92L110 93L109.574 92Z" fill="#82DEAA"/>
<path d="M134.578 92L135 92.5L134.578 92ZM73 92.5L73.4218 93L73 92.5Z" fill="#C7EDDF"/>
<path d="M89 93L89.3958 95L89 93ZM107.604 93L108 95L107.604 93Z" fill="#82DEAA"/>
<path d="M133.575 93L134 94L133.575 93ZM72 94L72.4247 95L72 94Z" fill="#C7EDDF"/>
<path d="M133.572 95L134 95.5L133.572 95ZM72 95.5L72.4276 96L72 95.5Z" fill="#C7EDDF"/>
<path d="M90 95L90.4048 96L90 95ZM106.595 95L107 96L106.595 95Z" fill="#82DEAA"/>
<path d="M91 96L91.4444 98L91 96ZM106.556 96L107 98L106.556 96Z" fill="#82DEAA"/>
<path d="M201 96L202 98L201 96Z" fill="#82DEAA"/>
<path d="M23 98L24 99L23 98Z" fill="#ADE8CA"/>
<path d="M92 98L92.4667 99L92 98ZM105.533 98L106 99L105.533 98Z" fill="#82DEAA"/>
<path d="M127.584 99L128 99.5L127.584 99ZM24 99.5L24.416 100L24 99.5Z" fill="#C7EDDF"/>
<path d="M93 99L93.5 100L93 99ZM103.5 99L104 100L103.5 99Z" fill="#82DEAA"/>
<path d="M128.341 99L128.764 99.5L128.341 99ZM200.578 99L201 99.5L200.578 99ZM24 99.5L24.4224 100L24 99.5Z" fill="#C7EDDF"/>
<path d="M95 100L95.375 101L95 100ZM100.625 100L101 101L100.625 100Z" fill="#82DEAA"/>
<path d="M198 100L200 101L198 100Z" fill="#82DEAA"/>
<path d="M97 101L97.3 102L97 101ZM99.7 101L100 102L99.7 101Z" fill="#82DEAA"/>
<path d="M72 102L72.4375 105L72 102ZM98.25 102L98.6875 105L98.25 102ZM99.5625 102L100 105L99.5625 102Z" fill="#82DEAA"/>
<path d="M77 107L78 108L77 107Z" fill="#82DEAA"/>
<path d="M191 107L193 108L191 107Z" fill="#82DEAA"/>
<path d="M78 108L79 109L78 108Z" fill="#82DEAA"/>
<path d="M83 114L85 115L83 114Z" fill="#82DEAA"/>
<path d="M184 114L186 115L184 114Z" fill="#82DEAA"/>
<path d="M85 115L86 116L85 115Z" fill="#82DEAA"/>
<path d="M89 119L89.3958 120L89 119ZM107.604 119L108 120L107.604 119Z" fill="#C7EDDF"/>
<path d="M90 120L90.4048 121L90 120ZM106.595 120L107 121L106.595 120Z" fill="#C7EDDF"/>
<path d="M92 121L92.4118 123L92 121ZM105.588 121L106 123L105.588 121Z" fill="#C7EDDF"/>
<path d="M92 123L92.4643 124L92 123ZM104.536 123L105 124L104.536 123Z" fill="#C7EDDF"/>
<path d="M95 124L95.5 126L95 124ZM103.5 124L104 126L103.5 124Z" fill="#C7EDDF"/>
<path d="M104 124L104.41 126L104 124ZM174.59 124L175 126L174.59 124Z" fill="#82DEAA"/>
<path d="M99.5868 126L100 126.424L99.5868 126ZM50 150.576L50.4132 151L50 150.576Z" fill="#82DEAA"/>
<path d="M51 154L51.4207 154.5L51 154ZM172.579 154L173 154.5L172.579 154ZM51.4207 154.5L51.8414 155L51.4207 154.5Z" fill="#ADE8CA"/>
<path d="M53 155L53.422 156L53 155ZM171.578 155L172 156L171.578 155Z" fill="#C7EDDF"/>
<path d="M57 156L57.4157 157L57 156ZM167.584 156L168 157L167.584 156Z" fill="#82DEAA"/>
<path d="M82 157L82.4167 157.431L82 157ZM141.583 157L142 157.431L141.583 157ZM82.4167 157.431L82.8333 157.862L82.4167 157.431ZM141.167 157.431L141.583 157.862L141.167 157.431ZM82.8333 157.862L83.25 158.293L82.8333 157.862ZM140.75 157.862L141.167 158.293L140.75 157.862ZM83.25 158.293L83.6667 158.724L83.25 158.293ZM140.333 158.293L140.75 158.724L140.333 158.293ZM83.6667 158.724L84.0833 159.155L83.6667 158.724ZM139.917 158.724L140.333 159.155L139.917 158.724ZM84.0833 159.155L84.5 159.586L84.0833 159.155ZM139.5 159.155L139.917 159.586L139.5 159.155ZM84.5 159.586L84.9167 160.017L84.5 159.586ZM139.083 159.586L139.5 160.017L139.083 159.586ZM84.9167 160.017L85.3333 160.448L84.9167 160.017ZM138.667 160.017L139.083 160.448L138.667 160.017ZM85.3333 160.448L85.75 160.879L85.3333 160.448ZM138.25 160.448L138.667 160.879L138.25 160.448ZM85.75 160.879L86.1667 161.31L85.75 160.879ZM137.833 160.879L138.25 161.31L137.833 160.879ZM86.1667 161.31L86.5833 161.741L86.1667 161.31ZM137.417 161.31L137.833 161.741L137.417 161.31ZM86.5833 161.741L87 162.172L86.5833 161.741ZM137 161.741L137.417 162.172L137 161.741ZM87 162.172L87.4167 162.603L87 162.172ZM136.583 162.172L137 162.603L136.583 162.172ZM87.4167 162.603L87.8333 163.034L87.4167 162.603ZM136.167 162.603L136.583 163.034L136.167 162.603ZM87.8333 163.034L88.25 163.466L87.8333 163.034ZM135.75 163.034L136.167 163.466L135.75 163.034ZM88.25 163.466L88.6667 163.897L88.25 163.466ZM135.333 163.466L135.75 163.897L135.333 163.466ZM88.6667 163.897L89.0833 164.328L88.6667 163.897ZM134.917 163.897L135.333 164.328L134.917 163.897ZM89.0833 164.328L89.5 164.759L89.0833 164.328ZM134.5 164.328L134.917 164.759L134.5 164.328ZM89.5 164.759L89.9167 165.19L89.5 164.759ZM134.083 164.759L134.5 165.19L134.083 164.759ZM89.9167 165.19L90.3333 165.621L89.9167 165.19ZM133.667 165.19L134.083 165.621L133.667 165.19ZM90.3333 165.621L90.75 166.052L90.3333 165.621ZM133.25 165.621L133.667 166.052L133.25 165.621ZM90.75 166.052L91.1667 166.483L90.75 166.052ZM132.833 166.052L133.25 166.483L132.833 166.052ZM91.1667 166.483L91.5833 166.914L91.1667 166.483ZM132.417 166.483L132.833 166.914L132.417 166.483ZM91.5833 166.914L92 167.345L91.5833 166.914ZM132 166.914L132.417 167.345L132 166.914ZM92 167.345L92.4167 167.776L92 167.345ZM131.583 167.345L132 167.776L131.583 167.345ZM92.4167 167.776L92.8333 168.207L92.4167 167.776ZM131.167 167.776L131.583 168.207L131.167 167.776ZM92.8333 168.207L93.25 168.638L92.8333 168.207ZM130.75 168.207L131.167 168.638L130.75 168.207ZM93.25 168.638L93.6667 169.069L93.25 168.638ZM130.333 168.638L130.75 169.069L130.333 168.638ZM93.6667 169.069L94.0833 169.5L93.6667 169.069ZM129.917 169.069L130.333 169.5L129.917 169.069ZM94.0833 169.5L94.5 169.931L94.0833 169.5ZM129.5 169.5L129.917 169.931L129.5 169.5ZM94.5 169.931L94.9167 170.362L94.5 169.931ZM129.083 169.931L129.5 170.362L129.083 169.931ZM94.9167 170.362L95.3333 170.793L94.9167 170.362ZM128.667 170.362L129.083 170.793L128.667 170.362ZM95.3333 170.793L95.75 171.224L95.3333 170.793ZM128.25 170.793L128.667 171.224L128.25 170.793ZM95.75 171.224L96.1667 171.655L95.75 171.224ZM127.833 171.224L128.25 171.655L127.833 171.224ZM96.1667 171.655L96.5833 172.086L96.1667 171.655ZM127.417 171.655L127.833 172.086L127.417 171.655ZM96.5833 172.086L97 172.517L96.5833 172.086ZM127 172.086L127.417 172.517L127 172.086ZM97 172.517L97.4167 172.948L97 172.517ZM126.583 172.517L127 172.948L126.583 172.517ZM97.4167 172.948L97.8333 173.379L97.4167 172.948ZM126.167 172.948L126.583 173.379L126.167 172.948ZM97.8333 173.379L98.25 173.81L97.8333 173.379ZM125.75 173.379L126.167 173.81L125.75 173.379ZM98.25 173.81L98.6667 174.241L98.25 173.81ZM125.333 173.81L125.75 174.241L125.333 173.81ZM98.6667 174.241L99.0833 174.672L98.6667 174.241ZM124.917 174.241L125.333 174.672L124.917 174.241ZM99.0833 174.672L99.5 175.103L99.0833 174.672ZM124.5 174.672L124.917 175.103L124.5 174.672ZM99.5 175.103L99.9167 175.534L99.5 175.103ZM124.083 175.103L124.5 175.534L124.083 175.103ZM99.9167 175.534L100.333 175.966L99.9167 175.534ZM123.667 175.534L124.083 175.966L123.667 175.534ZM100.333 175.966L100.75 176.397L100.333 175.966ZM123.25 175.966L123.667 176.397L123.25 175.966ZM100.75 176.397L101.167 176.828L100.75 176.397ZM122.833 176.397L123.25 176.828L122.833 176.397ZM101.167 176.828L101.583 177.259L101.167 176.828ZM122.417 176.828L122.833 177.259L122.417 176.828ZM101.583 177.259L102 177.69L101.583 177.259ZM122 177.259L122.417 177.69L122 177.259ZM102 177.69L102.417 178.121L102 177.69ZM121.583 177.69L122 178.121L121.583 177.69ZM102.417 178.121L102.833 178.552L102.417 178.121ZM121.167 178.121L121.583 178.552L121.167 178.121ZM102.833 178.552L103.25 178.983L102.833 178.552ZM120.75 178.552L121.167 178.983L120.75 178.552ZM103.25 178.983L103.667 179.414L103.25 178.983ZM120.333 178.983L120.75 179.414L120.333 178.983ZM103.667 179.414L104.083 179.845L103.667 179.414ZM119.917 179.414L120.333 179.845L119.917 179.414ZM104.083 179.845L104.5 180.276L104.083 179.845ZM119.5 179.845L119.917 180.276L119.5 179.845ZM104.5 180.276L104.917 180.707L104.5 180.276ZM119.083 180.276L119.5 180.707L119.083 180.276ZM104.917 180.707L105.333 181.138L104.917 180.707ZM118.667 180.707L119.083 181.138L118.667 180.707ZM105.333 181.138L105.75 181.569L105.333 181.138ZM118.25 181.138L118.667 181.569L118.25 181.138ZM105.75 181.569L106.167 182L105.75 181.569ZM117.833 181.569L118.25 182L117.833 181.569Z" fill="#82DEAA"/>
<path d="M107 182L107.423 183L107 182ZM117.577 182L118 183L117.577 182Z" fill="#C7EDDF"/>
<path d="M110 183L110.417 184L110 183ZM114.583 183L115 184L114.583 183Z" fill="#82DEAA"/>
<path d="M114.6 183L115 183.5L114.6 183ZM111 183.5V184H113.4L111 183.5Z" fill="#C7EDDF"/>
</svg>
