<svg width="16" height="16" viewBox="0 0 16 16" fill="none" xmlns="http://www.w3.org/2000/svg">
<g clip-path="url(#clip0_31_2738)">
<path d="M8.00087 15.9998C12.1737 15.9998 15.5564 12.617 15.5564 8.44423C15.5564 4.27141 12.1737 0.888672 8.00087 0.888672C3.82805 0.888672 0.445312 4.27141 0.445312 8.44423C0.445312 12.617 3.82805 15.9998 8.00087 15.9998Z" fill="#F4900C"/>
<path d="M8.00087 15.1111C12.1737 15.1111 15.5564 11.7284 15.5564 7.55556C15.5564 3.38274 12.1737 0 8.00087 0C3.82805 0 0.445312 3.38274 0.445312 7.55556C0.445312 11.7284 3.82805 15.1111 8.00087 15.1111Z" fill="#FFCC4D"/>
<path d="M7.99957 14.2218C11.436 14.2218 14.2218 11.436 14.2218 7.99957C14.2218 4.56313 11.436 1.77734 7.99957 1.77734C4.56313 1.77734 1.77734 4.56313 1.77734 7.99957C1.77734 11.436 4.56313 14.2218 7.99957 14.2218Z" fill="#FFE8B6"/>
<path d="M7.99957 13.7775C11.436 13.7775 14.2218 10.9917 14.2218 7.55523C14.2218 4.11879 11.436 1.33301 7.99957 1.33301C4.56313 1.33301 1.77734 4.11879 1.77734 7.55523C1.77734 10.9917 4.56313 13.7775 7.99957 13.7775Z" fill="#FFAC33"/>
<path fill-rule="evenodd" clip-rule="evenodd" d="M5.33268 4.33301C4.96449 4.33301 4.66602 4.63148 4.66602 4.99967C4.66602 5.36786 4.96449 5.66634 5.33268 5.66634H7.33203V10.333C7.33203 10.7012 7.63051 10.9997 7.9987 10.9997C8.36689 10.9997 8.66536 10.7012 8.66536 10.333V5.66634H10.666C11.0342 5.66634 11.3327 5.36786 11.3327 4.99967C11.3327 4.63148 11.0342 4.33301 10.666 4.33301H5.33268Z" fill="#FFCC4D"/>
</g>
<defs>
<clipPath id="clip0_31_2738">
<rect width="16" height="16" fill="white"/>
</clipPath>
</defs>
</svg>
