<svg width="712" height="674" viewBox="0 0 712 674" fill="none" xmlns="http://www.w3.org/2000/svg">
<path d="M356 73.9998H355C350.35 68.6849 326.12 73.8824 321 77.9998V75.9998H320V77.9998C315.854 77.1043 310.712 77.4329 308 80.9998L301 82.9998C290.529 80.961 274.26 90.9429 265 95.5044C261.809 97.0762 255.506 99.4005 255 103L239 110V113C234.327 113.32 230.155 115.758 228 120C223.138 120.73 220.259 124.328 216.715 127.551C208.428 135.083 189.888 147.461 188 159C182.804 161.711 175.781 170.023 176 176H173C170.542 181.845 163.766 187.444 166 194L163 193C161.249 197.811 151.43 210.662 155 215V216C148.668 217.844 140.585 242.399 144 248C139.572 250.838 138.695 259.196 140 264C136.038 267.333 133.912 283.428 138 287V288C132.95 289.073 135 301.532 135 306C146.228 301.669 156.107 300.85 168 301L167 288L172.159 263.424L179 235L185.706 223L200.667 196L208 182L211 179C216.408 176.302 223.981 168.974 225 163L228 160C232.004 159.318 233.942 156.884 235 153H239L238 151L243 147C248.705 146.274 263.216 136.685 265 131H266L267 133L288 120C293.046 120.226 300.799 118.02 304 114C308.138 115.061 320.006 112.66 321 108H322L335.996 107.417L373 104.745L387 104H388L405 109L409 101L434 82.9998V80.9998L406 75.9998C403.202 72.7811 391.268 71.1454 388 73.9998C383.147 70.6034 360.104 69.3038 356 73.9998ZM466.667 71.3331L467.333 71.6665L466.667 71.3331Z" fill="#F9EBB9"/>
<path d="M417 255C423.16 252.473 431.279 246.854 438 246.769C448.302 246.638 459.279 254.172 470 254.91C497.336 256.793 524.115 248.236 543.961 228.91C584.98 188.965 577.701 117.442 530 86.0789C502.882 68.2495 470.502 67.2573 441 79.2008C428.158 84.3997 416.695 93.3571 407.924 104C398.871 114.985 392.45 128.138 389.235 142C384.609 161.946 386.787 183.402 395.309 202C400.418 213.151 412.376 222.048 416.397 233C418.673 239.203 417 248.434 417 255Z" fill="#F8D45E"/>
<path d="M489 71V72H492L489 71ZM460.667 72.3333L461.333 72.6667L460.667 72.3333ZM496 72L497 73L496 72Z" fill="#F9EBB9"/>
<path d="M349 73L351 75L349 73ZM381 73L383 75L381 73Z" fill="#F7F9FC"/>
<path d="M456.667 73.3335L457.333 73.6669L456.667 73.3335ZM500.667 73.3335L501.333 73.6669L500.667 73.3335Z" fill="#F9EBB9"/>
<path d="M341 74L344 76V75L341 74ZM352 74L353 75L352 74ZM359 74L360 75L359 74ZM373 74L376 76V75L373 74ZM384 74L385 75L384 74ZM391 74L392 75L391 74Z" fill="#F7F9FC"/>
<path d="M453.667 74.3333L454.333 74.6667L453.667 74.3333ZM504 74L505 75L504 74Z" fill="#F9EBB9"/>
<path d="M335 75L336 76L335 75ZM339 75L340 76L339 75ZM355 75L356 76L355 75ZM367 75L368 76L367 75ZM371 75L372 76L371 75ZM387 75L388 76L387 75ZM399 75L400 76L399 75ZM403 75L404 76L403 75Z" fill="#F7F9FC"/>
<path d="M449.667 75.3335L450.333 75.6669L449.667 75.3335Z" fill="#F9EBB9"/>
<path d="M329 76L330 77L329 76ZM333 76L334 77L333 76ZM337 76L338 77L337 76ZM349 76L350 77L349 76ZM353.333 76.6667L353.667 77.3333L353.333 76.6667ZM361 76L362 77L361 76ZM365 76L366 77L365 76ZM369 76L370 77L369 76ZM381 76L382 77L381 76ZM385.333 76.6667L385.667 77.3333L385.333 76.6667ZM393 76L394 77L393 76ZM397 76L398 77L397 76ZM401 76L402 77L401 76Z" fill="#F7F9FC"/>
<path d="M447 76L448 77L447 76Z" fill="#F9EBB9"/>
<path d="M324 77L325 78L324 77ZM339.667 77.3333L340.333 77.6667L339.667 77.3333ZM342 77L343 78L342 77ZM346 77L347 78L346 77ZM351 77L352 78L351 77ZM356 77L357 78L356 77ZM371.667 77.3333L372.333 77.6667L371.667 77.3333ZM374 77L375 78L374 77ZM378 77L379 78L378 77ZM383 77L384 78L383 77ZM388 77L389 78L388 77ZM403.667 77.3333L404.333 77.6667L403.667 77.3333ZM406 77L407 78L406 77ZM410 77L411 78L410 77ZM415 77L416 78L415 77Z" fill="#F7F9FC"/>
<path d="M444.667 77.3333L445.333 77.6667L444.667 77.3333ZM513 77L514 78L513 77Z" fill="#F9EBB9"/>
<path d="M331 78L332 79L331 78ZM337 78L338 82H339L340 80L337 78ZM363 78L364 79L363 78ZM369 78L370 82H371L372 80L369 78ZM395 78L396 79L395 78ZM401 78L402 82H403L404 80L401 78Z" fill="#F7F9FC"/>
<path d="M442 78L443 79L442 78ZM515 78L516 79L515 78Z" fill="#F9EBB9"/>
<path d="M311 79L312 80L311 79ZM323 79L324 80L323 79ZM326 79L327 80L326 79ZM328 79L329 80L328 79ZM334 79V81L336 79H334ZM343 79L344 80L343 79ZM355 79L356 80L355 79ZM358 79L359 80L358 79ZM360 79L361 80L360 79ZM366 79V81L368 79H366ZM375 79L376 80L375 79ZM387 79L388 80L387 79ZM390 79L391 80L390 79ZM392 79L393 80L392 79ZM398 79V81L400 79H398ZM407 79L408 80L407 79ZM419 79L420 80L419 79ZM422 79L423 80L422 79ZM424 79L425 80L424 79Z" fill="#F7F9FC"/>
<path d="M440 79L441 80L440 79Z" fill="#F9EBB9"/>
<path d="M315 80L316 81L315 80ZM318.667 80.3333L319.333 80.6667L318.667 80.3333ZM331 80L332 83H333V80H331ZM347 80L348 81L347 80ZM350.667 80.3333L351.333 80.6667L350.667 80.3333ZM363 80L364 83H365V80H363ZM379 80L380 81L379 80ZM382.667 80.3333L383.333 80.6667L382.667 80.3333ZM395 80L396 83H397V80H395ZM411 80L412 81L411 80ZM414.667 80.3333L415.333 80.6667L414.667 80.3333ZM427 80L428 83H429V80H427Z" fill="#F7F9FC"/>
<path d="M437 80L438 81L437 80Z" fill="#F9EBB9"/>
<path d="M306 81L307 82L306 81ZM321 81L322 82L321 81ZM325 81L326 82L325 81ZM327 81L328 82L327 81ZM329 81L330 82L329 81ZM353 81L354 82L353 81ZM357 81L358 82L357 81ZM359 81L360 82L359 81ZM361 81L362 82L361 81ZM385 81L386 82L385 81ZM389 81L390 82L389 81ZM391 81L392 82L391 81ZM393 81L394 82L393 81ZM417 81L418 82L417 81ZM421 81L422 82L421 81ZM423 81L424 82L423 81ZM425 81L426 82L425 81Z" fill="#F7F9FC"/>
<path d="M435 81L436 82L435 81Z" fill="#F9EBB9"/>
<path d="M304 82L305 83L304 82ZM310 82L311 83L310 82ZM313 82L314 83L313 82ZM317 82L318 83L317 82ZM336 82L337 83L336 82ZM342 82L343 83L342 82ZM345 82L346 83L345 82ZM349 82L350 83L349 82ZM368 82L369 83L368 82ZM374 82L375 83L374 82ZM377 82L378 83L377 82ZM381 82L382 83L381 82ZM400 82L401 83L400 82ZM406 82L407 83L406 82ZM409 82L410 83L409 82ZM413 82L414 83L413 82ZM432 82L433 83L432 82ZM307 83L308 84L307 83ZM315 83L318 85V84L315 83ZM319 83L320 84L319 83ZM322 83L323 84L322 83ZM326 83L327 84L326 83ZM339 83L340 84L339 83ZM347 83L350 85V84L347 83ZM351 83L352 84L351 83ZM354 83L355 84L354 83ZM358 83L359 84L358 83ZM371 83L372 84L371 83ZM379 83L382 85V84L379 83ZM383 83L384 84L383 83ZM386 83L387 84L386 83ZM390 83L391 84L390 83ZM403 83L404 84L403 83ZM411 83L414 85V84L411 83ZM415 83L416 84L415 83ZM418 83L419 84L418 83ZM422 83L423 84L422 83Z" fill="#F7F9FC"/>
<path d="M525 83L526 84L525 83Z" fill="#F9EBB9"/>
<path d="M297 84L298 85L297 84ZM300 84L301 85L300 84ZM329 84L330 85L329 84ZM332 84L333 85L332 84ZM361 84L362 85L361 84ZM364 84L365 85L364 84ZM393 84L394 85L393 84ZM396 84L397 85L396 84ZM425 84L426 85L425 84ZM428 84L429 85L428 84Z" fill="#F7F9FC"/>
<path d="M527 84L528 85L527 84Z" fill="#F9EBB9"/>
<path d="M293 85L294 86L293 85ZM302 85L303 86L302 85ZM313 85L314 86L313 85ZM325 85L326 86L325 85ZM334 85L335 86L334 85ZM345 85L346 86L345 85ZM357 85L358 86L357 85ZM366 85L367 86L366 85ZM377 85L378 86L377 85ZM389 85L390 86L389 85ZM398 85L399 86L398 85ZM409 85L410 86L409 85ZM421 85L422 86L421 85ZM290 86L292 88L290 86ZM302 87V88L307 87H302ZM315 86L313 87V88L315 86ZM322 86L324 88L322 86ZM334 87V88L339 87H334ZM347 86L345 87V88L347 86ZM354 86L356 88L354 86ZM366 87V88L371 87H366ZM379 86L377 87V88L379 86ZM386 86L388 88L386 86ZM398 87V88L403 87H398ZM411 86L409 87V88L411 86ZM418 86L420 88L418 86Z" fill="#F7F9FC"/>
<path d="M530 86L531 87L530 86Z" fill="#F9EBB9"/>
<path d="M287 87L289 89L287 87ZM294.667 87.3333L295.333 87.6667L294.667 87.3333ZM299 87L300 88L299 87ZM310 87L311 88L310 87ZM319 87L321 89L319 87ZM326.667 87.3333L327.333 87.6667L326.667 87.3333ZM331 87L332 88L331 87ZM342 87L343 88L342 87ZM351 87L353 89L351 87ZM358.667 87.3333L359.333 87.6667L358.667 87.3333ZM363 87L364 88L363 87ZM374 87L375 88L374 87ZM383 87L385 89L383 87ZM390.667 87.3333L391.333 87.6667L390.667 87.3333ZM395 87L396 88L395 87ZM406 87L407 88L406 87ZM415 87L417 89L415 87ZM422.667 87.3333L423.333 87.6667L422.667 87.3333ZM281 89L285 91V90L281 89ZM297 89L298 90L297 89ZM299 89V93H300L299 89ZM308 89L309 90L308 89ZM313 89L317 91V90L313 89ZM329 89L330 90L329 89ZM331 89V93H332L331 89ZM340 89L341 90L340 89ZM345 89L349 91V90L345 89ZM361 89L362 90L361 89ZM363 89V93H364L363 89ZM372 89L373 90L372 89ZM377 89L381 91V90L377 89ZM393 89L394 90L393 89ZM395 89V93H396L395 89ZM404 89L405 90L404 89ZM409 89L413 91V90L409 89Z" fill="#F7F9FC"/>
<path d="M534 89L535 90L534 89Z" fill="#F9EBB9"/>
<path d="M279 90L280 91L279 90ZM286 90L288 92L286 90ZM290 90L291 91L290 90ZM294 90L295 91L294 90ZM304 90L305 91L304 90ZM311 90L312 91L311 90ZM318 90L320 92L318 90ZM322 90L323 91L322 90ZM326 90L327 91L326 90ZM336 90L337 91L336 90ZM343 90L344 91L343 90ZM350 90L352 92L350 90ZM354 90L355 91L354 90ZM358 90L359 91L358 90ZM368 90L369 91L368 90ZM375 90L376 91L375 90ZM382 90L384 92L382 90ZM386 90L387 91L386 90ZM390 90L391 91L390 90ZM400 90L401 91L400 90ZM407 90L408 91L407 90ZM414 90L416 92L414 90ZM418 90L419 91L418 90ZM277 91L278 92L277 91ZM309 91L310 92L309 91ZM341 91L342 92L341 91ZM373 91L374 92L373 91ZM405 91L406 92L405 91ZM290 92L291 93L290 92ZM297 92L298 93L297 92ZM302 92L303 93L302 92ZM322 92L323 93L322 92ZM329 92L330 93L329 92ZM334 92L335 93L334 92ZM354 92L355 93L354 92ZM361 92L362 93L361 92ZM366 92L367 93L366 92ZM386 92L387 93L386 92ZM393 92L394 93L393 92ZM398 92L399 93L398 92ZM418 92L419 93L418 92Z" fill="#F7F9FC"/>
<path d="M538 92L539 93L538 92Z" fill="#F9EBB9"/>
<path d="M286 93L287 94L286 93ZM318 93L319 94L318 93ZM350 93L351 94L350 93ZM382 93L383 94L382 93ZM414 93L415 94L414 93Z" fill="#F7F9FC"/>
<path d="M539 93L540 94L539 93Z" fill="#F9EBB9"/>
<path d="M273 94L274 95L273 94ZM283 94L284 95L283 94ZM292 94L293 95L292 94ZM298 94L295 95V96L299 95L298 94ZM305 94L306 95L305 94ZM315 94L316 95L315 94ZM324 94L325 95L324 94ZM330 94L327 95V96L331 95L330 94ZM337 94L338 95L337 94ZM347 94L348 95L347 94ZM356 94L357 95L356 94ZM362 94L359 95V96L363 95L362 94ZM369 94L370 95L369 94ZM379 94L380 95L379 94ZM388 94L389 95L388 94ZM394 94L391 95V96L395 95L394 94ZM401 94L402 95L401 94ZM411 94L412 95L411 94Z" fill="#F7F9FC"/>
<path d="M540 94L541 95L540 94Z" fill="#F9EBB9"/>
<path d="M270 95L271 96L270 95ZM279 95L278 97L279 95ZM281 95L282 96L281 95ZM288 95L289 96L288 95ZM302 95L303 96L302 95ZM311 95L310 97L311 95ZM313 95L314 96L313 95ZM320 95L321 96L320 95ZM334 95L335 96L334 95ZM343 95L342 97L343 95ZM345 95L346 96L345 95ZM352 95L353 96L352 95ZM366 95L367 96L366 95ZM375 95L374 97L375 95ZM377 95L378 96L377 95ZM384 95L385 96L384 95ZM398 95L399 96L398 95ZM407 95L406 97L407 95ZM409 95L410 96L409 95Z" fill="#F7F9FC"/>
<path d="M541 95L542 96L541 95Z" fill="#F9EBB9"/>
<path d="M267.667 96.3333L268.333 96.6667L267.667 96.3333ZM274 96L275 97L274 96ZM285 96L284 98L285 96ZM292 96V98H294L292 96ZM299.667 96.3333L300.333 96.6667L299.667 96.3333ZM306 96L307 97L306 96ZM317 96L316 98L317 96ZM324 96V98H326L324 96ZM331.667 96.3333L332.333 96.6667L331.667 96.3333ZM338 96L339 97L338 96ZM349 96L348 98L349 96ZM356 96V98H358L356 96ZM363.667 96.3333L364.333 96.6667L363.667 96.3333ZM370 96L371 97L370 96ZM381 96L380 98L381 96ZM388 96V98H390L388 96ZM395.667 96.3333L396.333 96.6667L395.667 96.3333ZM402 96L403 97L402 96ZM413 96L412 98L413 96Z" fill="#F7F9FC"/>
<path d="M542 96L543 97L542 96Z" fill="#F9EBB9"/>
<path d="M264 97L263 99L264 97ZM271.333 97.6667L271.667 98.3333L271.333 97.6667ZM296 97L295 99L296 97ZM303.333 97.6667L303.667 98.3333L303.333 97.6667ZM328 97L327 99L328 97ZM335.333 97.6667L335.667 98.3333L335.333 97.6667ZM360 97L359 99L360 97ZM367.333 97.6667L367.667 98.3333L367.333 97.6667ZM392 97L391 99L392 97ZM399.333 97.6667L399.667 98.3333L399.333 97.6667ZM266 98L265 102H266V98ZM277 98L278 99L277 98ZM279.333 98.6667L279.667 99.3333L279.333 98.6667ZM298 98L297 102H298V98ZM309 98L310 99L309 98ZM311.333 98.6667L311.667 99.3333L311.333 98.6667ZM330 98L329 102H330V98ZM341 98L342 99L341 98ZM343.333 98.6667L343.667 99.3333L343.333 98.6667ZM362 98L361 102H362V98ZM373 98L374 99L373 98ZM375.333 98.6667L375.667 99.3333L375.333 98.6667ZM394 98L393 102H394V98ZM405 98L406 99L405 98ZM407.333 98.6667L407.667 99.3333L407.333 98.6667ZM281.667 99.3333L282.333 99.6667L281.667 99.3333ZM286 99L287 100L286 99ZM288 101L291 100L288 101ZM313.667 99.3333L314.333 99.6667L313.667 99.3333ZM318 99L319 100L318 99ZM320 101L323 100L320 101ZM345.667 99.3333L346.333 99.6667L345.667 99.3333ZM350 99L351 100L350 99ZM352 101L355 100L352 101ZM377.667 99.3333L378.333 99.6667L377.667 99.3333ZM382 99L383 100L382 99ZM384 101L387 100L384 101ZM409.667 99.3333L410.333 99.6667L409.667 99.3333Z" fill="#F7F9FC"/>
<path d="M545 99L546 100L545 99Z" fill="#F9EBB9"/>
<path d="M261.667 100.333L262.333 100.667L261.667 100.333ZM269 100L270 101L269 100ZM271.333 100.667L271.667 101.333L271.333 100.667ZM277 100L278 101L277 100ZM284 100L285 101L284 100ZM293.667 100.333L294.333 100.667L293.667 100.333ZM301 100L302 101L301 100ZM303.333 100.667L303.667 101.333L303.333 100.667ZM309 100L310 101L309 100ZM316 100L317 101L316 100ZM325.667 100.333L326.333 100.667L325.667 100.333ZM333 100L334 101L333 100ZM335.333 100.667L335.667 101.333L335.333 100.667ZM341 100L342 101L341 100ZM348 100L349 101L348 100ZM357.667 100.333L358.333 100.667L357.667 100.333ZM365 100L366 101L365 100ZM367.333 100.667L367.667 101.333L367.333 100.667ZM373 100L374 101L373 100ZM380 100L381 101L380 100ZM389.667 100.333L390.333 100.667L389.667 100.333ZM397 100L398 101L397 100ZM399.333 100.667L399.667 101.333L399.333 100.667ZM405 100L406 101L405 100Z" fill="#F7F9FC"/>
<path d="M546 100L547 101L546 100Z" fill="#F9EBB9"/>
<path d="M258.333 101.667L258.667 102.333L258.333 101.667ZM279.333 101.667L279.667 102.333L279.333 101.667ZM281 101L283 103L281 101ZM290.333 101.667L290.667 102.333L290.333 101.667ZM311.333 101.667L311.667 102.333L311.333 101.667ZM313 101L315 103L313 101ZM322.333 101.667L322.667 102.333L322.333 101.667ZM343.333 101.667L343.667 102.333L343.333 101.667ZM345 101L347 103L345 101ZM354.333 101.667L354.667 102.333L354.333 101.667ZM375.333 101.667L375.667 102.333L375.333 101.667ZM377 101L379 103L377 101ZM386.333 101.667L386.667 102.333L386.333 101.667ZM407.333 101.667L407.667 102.333L407.333 101.667ZM409 101L410 102L409 101Z" fill="#F7F9FC"/>
<path d="M547 101L548 102L547 101Z" fill="#F9EBB9"/>
<path d="M260 102L261 103L260 102ZM268 102L267 104L268 102ZM285 102V103L288 104L285 102ZM292 102L293 103L292 102ZM300 102L299 104L300 102ZM317 102V103L320 104L317 102ZM324 102L325 103L324 102ZM332 102L331 104L332 102ZM349 102V103L352 104L349 102ZM356 102L357 103L356 102ZM364 102L363 104L364 102ZM381 102V103L384 104L381 102ZM388 102L389 103L388 102ZM396 102L395 104L396 102Z" fill="#F7F9FC"/>
<path d="M548 102L549 103L548 102Z" fill="#F9EBB9"/>
<path d="M255 103L256 104L255 103ZM264 103L265 104L264 103ZM272 103L273 104L272 103ZM296 103L297 104L296 103ZM304 103L305 104L304 103ZM328 103L329 104L328 103ZM336 103L337 104L336 103ZM360 103L361 104L360 103ZM368 103L369 104L368 103ZM392 103L393 104L392 103ZM400 103L401 104L400 103Z" fill="#F7F9FC"/>
<path d="M549 103L550 104L549 103Z" fill="#F9EBB9"/>
<path d="M251 104L252 105L251 104ZM259.333 104.667L259.667 105.333L259.333 104.667ZM275 104L276 105L275 104ZM277 104L278 105L277 104ZM283 104L284 105L283 104ZM291.333 104.667L291.667 105.333L291.333 104.667ZM307 104L308 105L307 104ZM309 104L310 105L309 104ZM315 104L316 105L315 104ZM323.333 104.667L323.667 105.333L323.333 104.667ZM339 104L340 105L339 104ZM341 104L342 105L341 104ZM347 104L348 105L347 104ZM403 104L404 105L403 104ZM405 104L406 105L405 104Z" fill="#F7F9FC"/>
<path d="M473 104V105H476L473 104Z" fill="#F9EBB9"/>
<path d="M476 104.443C462.908 106.002 451.559 114.087 447.573 127C445.892 132.448 444.151 141.394 451.044 143.948C460.596 147.486 460.375 135.225 463 130.001C468.807 118.444 483.198 116.437 491.786 126.043C499.64 134.829 496.036 147.616 485.996 152.95C480.355 155.947 472.98 154.136 471.344 162.004C469.771 169.57 467.443 196.124 478.997 195.833C491.581 195.516 482.73 176.918 487.028 170.418C491.845 163.133 502.681 162.049 507.648 153C519.682 131.074 501.616 101.393 476 104.443Z" fill="#F7F9FC"/>
<path d="M481 104V105H485L481 104Z" fill="#F9EBB9"/>
<path d="M253 105L255 107L253 105ZM285 105L287 107L285 105ZM317 105L319 107L317 105Z" fill="#F7F9FC"/>
<path d="M469 105L470 106L469 105ZM487.667 105.333L488.333 105.667L487.667 105.333Z" fill="#F9EBB9"/>
<path d="M256 106L257 107L256 106ZM263 106L264 107L263 106ZM277 106L280 108V107L277 106ZM288 106L289 107L288 106ZM295 106L296 107L295 106ZM309 106L312 108V107L309 106ZM320 106L321 107L320 106ZM327 106L328 107L327 106Z" fill="#F7F9FC"/>
<path d="M466 106L467 107L466 106ZM490.667 106.333L491.333 106.667L490.667 106.333Z" fill="#F9EBB9"/>
<path d="M246.667 107.333L247.333 107.667L246.667 107.333ZM259 107L260 108L259 107ZM271 107L272 108L271 107ZM275 107L276 108L275 107ZM291 107L292 108L291 107ZM303 107L304 108L303 107ZM307 107L308 108L307 107ZM323 107L324 108L323 107Z" fill="#F7F9FC"/>
<path d="M464 107L465 108L464 107ZM493 107L494 108L493 107ZM552 107L553 108L552 107Z" fill="#F9EBB9"/>
<path d="M253 108L254 109L253 108ZM257.333 108.667L257.667 109.333L257.333 108.667ZM265 108L266 109L265 108ZM269 108L270 109L269 108ZM273 108L274 109L273 108ZM285 108L286 109L285 108ZM289.333 108.667L289.667 109.333L289.333 108.667ZM297 108L298 109L297 108ZM301 108L302 109L301 108ZM305 108L306 109L305 108ZM317 108L318 109L317 108Z" fill="#F7F9FC"/>
<path d="M462 108L463 109L462 108ZM495 108L496 109L495 108Z" fill="#F9EBB9"/>
<path d="M243.667 109.333L244.333 109.667L243.667 109.333ZM246 109L247 110L246 109ZM250 109L251 110L250 109ZM255 109L256 110L255 109ZM260 109L261 110L260 109ZM275.667 109.333L276.333 109.667L275.667 109.333ZM278 109L279 110L278 109ZM282 109L283 110L282 109ZM287 109L288 110L287 109ZM292 109L293 110L292 109ZM307.667 109.333L308.333 109.667L307.667 109.333ZM310 109L311 110L310 109ZM314 109L315 110L314 109ZM319 109L320 110L319 109Z" fill="#F7F9FC"/>
<path d="M460 109L461 110L460 109ZM496 109L497 110L496 109Z" fill="#F9EBB9"/>
<path d="M241 110L242 114H243L244 112L241 110ZM267 110L268 111L267 110ZM273 110L274 114H275L276 112L273 110ZM299 110L300 111L299 110ZM305 110L306 114H307L308 112L305 110Z" fill="#F7F9FC"/>
<path d="M459 110L460 111L459 110ZM498 110L499 111L498 110ZM554 110L555 111L554 110Z" fill="#F9EBB9"/>
<path d="M247 111L248 112L247 111ZM259 111L260 112L259 111ZM262 111L263 112L262 111ZM264 111L265 112L264 111ZM270 111V113L272 111H270ZM279 111L280 112L279 111ZM291 111L292 112L291 111ZM294 111L295 112L294 111ZM296 111L297 112L296 111ZM302 111V113L304 111H302ZM311 111L312 112L311 111Z" fill="#F7F9FC"/>
<path d="M402 111L403 112L402 111ZM499 111L500 112L499 111ZM555 111L556 112L555 111Z" fill="#F9EBB9"/>
<path d="M251 112L252 113L251 112ZM254.667 112.333L255.333 112.667L254.667 112.333ZM267 112L268 115H269V112H267ZM283 112L284 113L283 112ZM286.667 112.333L287.333 112.667L286.667 112.333ZM299 112L300 115H301V112H299Z" fill="#F7F9FC"/>
<path d="M500 112L501 113L500 112Z" fill="#F9EBB9"/>
<path d="M257 113L258 114L257 113ZM261 113L262 114L261 113ZM263 113L264 114L263 113ZM265 113L266 114L265 113ZM289 113L290 114L289 113ZM293 113L294 114L293 113ZM295 113L296 114L295 113ZM297 113L298 114L297 113Z" fill="#F7F9FC"/>
<path d="M455 113L456 114L455 113ZM501 113L502 114L501 113ZM556 113L557 114L556 113Z" fill="#F9EBB9"/>
<path d="M236 114L237 115L236 114ZM240 114L241 115L240 114ZM246 114L247 115L246 114ZM249 114L250 115L249 114ZM253 114L254 115L253 114ZM272 114L273 115L272 114ZM278 114L279 115L278 114ZM281 114L282 115L281 114ZM285 114L286 115L285 114Z" fill="#F7F9FC"/>
<path d="M400 114L401 115L400 114ZM502 114L503 115L502 114Z" fill="#F9EBB9"/>
<path d="M243 115L244 116L243 115ZM251 115L254 117V116L251 115ZM255 115L256 116L255 115ZM258 115L259 116L258 115ZM262 115L263 116L262 115ZM275 115L276 116L275 115ZM283 115L286 117V116L283 115ZM287 115L288 116L287 115ZM290 115L291 116L290 115ZM294 115L295 116L294 115Z" fill="#F7F9FC"/>
<path d="M503 115L504 116L503 115Z" fill="#F9EBB9"/>
<path d="M233 116L234 117L233 116ZM236 116L237 117L236 116ZM265 116L266 117L265 116ZM268 116L269 117L268 116ZM297 116L298 117L297 116Z" fill="#F7F9FC"/>
<path d="M399 116L400 117L399 116ZM504 116L505 117L504 116ZM558 116L559 117L558 116Z" fill="#F9EBB9"/>
<path d="M238 117L239 118L238 117ZM249 117L250 118L249 117ZM261 117L262 118L261 117ZM270 117L271 118L270 117ZM281 117L282 118L281 117ZM293 117L294 118L293 117Z" fill="#F7F9FC"/>
<path d="M398 117L399 118L398 117ZM452 117L453 118L452 117ZM505 117L506 118L505 117Z" fill="#F9EBB9"/>
<path d="M238 119V120L243 119H238ZM251 118L249 119V120L251 118ZM258 118L260 120L258 118ZM270 119V120L275 119H270ZM283 118L281 119V120L283 118ZM290 118L291 119L290 118Z" fill="#F7F9FC"/>
<path d="M451 118L452 119L451 118ZM559 118L560 119L559 118Z" fill="#F9EBB9"/>
<path d="M230.667 119.333L231.333 119.667L230.667 119.333ZM235 119L236 120L235 119ZM246 119L247 120L246 119ZM255 119L257 121L255 119ZM262.667 119.333L263.333 119.667L262.667 119.333ZM267 119L268 120L267 119ZM278 119L279 120L278 119ZM287 119L288 120L287 119Z" fill="#F7F9FC"/>
<path d="M397 119L398 120L397 119ZM477 119V120H481L477 119ZM506 119L507 120L506 119ZM450 120L451 121L450 120ZM473 120L474 121L473 120ZM483.667 120.333L484.333 120.667L483.667 120.333Z" fill="#F9EBB9"/>
<path d="M233 121L234 122L233 121ZM235 121V125H236L235 121ZM244 121L245 122L244 121ZM249 121L253 123V122L249 121ZM265 121L266 122L265 121ZM267 121V125H268L267 121ZM276 121L277 122L276 121ZM281 121L283 123L281 121Z" fill="#F7F9FC"/>
<path d="M396 121L397 122L396 121ZM449 121L450 122L449 121ZM470.667 121.333L471.333 121.667L470.667 121.333ZM486 121L487 122L486 121Z" fill="#F9EBB9"/>
<path d="M226 122L227 123L226 122ZM230 122L231 123L230 122ZM240 122L241 123L240 122ZM247 122L248 123L247 122ZM254 122L256 124L254 122ZM258 122L259 123L258 122ZM262 122L263 123L262 122ZM272 122L273 123L272 122ZM279 122L280 123L279 122Z" fill="#F7F9FC"/>
<path d="M469 122L470 123L469 122ZM488 122L489 123L488 122ZM508 122L509 123L508 122Z" fill="#F9EBB9"/>
<path d="M223 123L224 124L223 123ZM245 123L246 124L245 123ZM277 123L278 124L277 123Z" fill="#F7F9FC"/>
<path d="M395 123L396 124L395 123ZM448.333 123.667L448.667 124.333L448.333 123.667ZM467 123L468 124L467 123ZM489 123L490 124L489 123Z" fill="#F9EBB9"/>
<path d="M226 124L227 125L226 124ZM233 124L234 125L233 124ZM238 124L239 125L238 124ZM258 124L259 125L258 124ZM265 124L266 125L265 124ZM270 124L271 125L270 124Z" fill="#F7F9FC"/>
<path d="M466 124L467 125L466 124Z" fill="#F9EBB9"/>
<path d="M222 125L223 126L222 125ZM254 125L255 126L254 125Z" fill="#F7F9FC"/>
<path d="M394.333 125.667L394.667 126.333L394.333 125.667ZM465 125L466 126L465 125ZM509 125L510 126L509 125Z" fill="#F9EBB9"/>
<path d="M219 126L220 127L219 126ZM228 126L229 127L228 126ZM234 126L231 127V128L235 127L234 126ZM241 126L242 127L241 126ZM251 126L252 127L251 126ZM260 126L261 127L260 126ZM266 126L263 127V128L267 127L266 126ZM273 126L274 127L273 126Z" fill="#F7F9FC"/>
<path d="M447 126L448 127L447 126ZM492 126L493 127L492 126ZM563 126L564 127L563 126Z" fill="#F9EBB9"/>
<path d="M224 127L225 128L224 127ZM238 127L239 128L238 127ZM247 127L246 129L247 127ZM249 127L250 128L249 127ZM256 127L257 128L256 127ZM270 127L271 128L270 127Z" fill="#F7F9FC"/>
<path d="M493 127L494 128L493 127ZM510.333 127.667L510.667 128.333L510.333 127.667Z" fill="#F9EBB9"/>
<path d="M221 128L220 130L221 128ZM228 128V130H230L228 128ZM235.667 128.333L236.333 128.667L235.667 128.333ZM242 128L243 129L242 128ZM253 128L252 130L253 128ZM260 128V130H262L260 128ZM267.667 128.333L268.333 128.667L267.667 128.333Z" fill="#F7F9FC"/>
<path d="M393 128L394 129L393 128ZM463 128L464 129L463 128ZM564 128L565 129L564 128Z" fill="#F9EBB9"/>
<path d="M232 129L231 131L232 129ZM239.333 129.667L239.667 130.333L239.333 129.667ZM264 129L263 131L264 129Z" fill="#F7F9FC"/>
<path d="M446 129V132H447L446 129ZM494 129L495 130L494 129Z" fill="#F9EBB9"/>
<path d="M215.333 130.667L215.667 131.333L215.333 130.667ZM234 130L233 134H234V130ZM245 130L246 131L245 130ZM247.333 130.667L247.667 131.333L247.333 130.667ZM266 130L267 131L266 130Z" fill="#F7F9FC"/>
<path d="M392 130L393 131L392 130ZM462 130L463 131L462 130Z" fill="#F9EBB9"/>
<path d="M217.667 131.333L218.333 131.667L217.667 131.333ZM222 131L223 132L222 131ZM224 133L227 132L224 133ZM249.667 131.333L250.333 131.667L249.667 131.333ZM254 131L255 132L254 131ZM256 133L259 132L256 133Z" fill="#F7F9FC"/>
<path d="M495.333 131.667L495.667 132.333L495.333 131.667ZM511 131V136H512L511 131ZM565 131L566 132L565 131Z" fill="#F9EBB9"/>
<path d="M213 132L214 133L213 132ZM220 132L221 133L220 132ZM229.667 132.333L230.333 132.667L229.667 132.333ZM237 132L238 133L237 132ZM239.333 132.667L239.667 133.333L239.333 132.667ZM245 132L246 133L245 132ZM252 132L253 133L252 132ZM261.667 132.333L262.333 132.667L261.667 132.333ZM215.333 133.667L215.667 134.333L215.333 133.667ZM217 133L219 135L217 133ZM226.333 133.667L226.667 134.333L226.333 133.667ZM247.333 133.667L247.667 134.333L247.333 133.667ZM249 133L251 135L249 133ZM258.333 133.667L258.667 134.333L258.333 133.667Z" fill="#F7F9FC"/>
<path d="M391 133L392 134L391 133ZM461 133V137H462L461 133Z" fill="#F9EBB9"/>
<path d="M221 134V135L224 136L221 134ZM228 134L229 135L228 134ZM236 134L235 136L236 134ZM253 134V135L256 136L253 134ZM260 134L261 135L260 134Z" fill="#F7F9FC"/>
<path d="M566 134L567 135L566 134Z" fill="#F9EBB9"/>
<path d="M232 135L233 136L232 135ZM240 135L241 136L240 135ZM211 136L212 137L211 136ZM213 136L214 137L213 136ZM219 136L220 137L219 136ZM227.333 136.667L227.667 137.333L227.333 136.667ZM243 136L244 137L243 136ZM245 136L246 137L245 136ZM251 136L252 137L251 136Z" fill="#F7F9FC"/>
<path d="M390.333 136.667L390.667 137.333L390.333 136.667ZM496 136V139H497L496 136Z" fill="#F9EBB9"/>
<path d="M221 137L223 139L221 137ZM253 137L255 139L253 137Z" fill="#F7F9FC"/>
<path d="M511 137L512 138L511 137ZM567 137L568 138L567 137Z" fill="#F9EBB9"/>
<path d="M213 138L216 140V139L213 138ZM224 138L225 139L224 138ZM231 138L232 139L231 138ZM245 138L248 140V139L245 138ZM207 139L208 140L207 139ZM211 139L212 140L211 139ZM227 139L228 140L227 139ZM239 139L240 140L239 139ZM243 139L244 140L243 139Z" fill="#F7F9FC"/>
<path d="M389.333 139.667L389.667 140.333L389.333 139.667ZM511 139V143H512L511 139Z" fill="#F9EBB9"/>
<path d="M205 140L206 141L205 140ZM209 140L210 141L209 140ZM221 140L222 141L221 140ZM225.333 140.667L225.667 141.333L225.333 140.667ZM233 140L234 141L233 140ZM237 140L238 141L237 140ZM241 140L242 141L241 140Z" fill="#F7F9FC"/>
<path d="M446 140L447 141L446 140ZM460 140L461 141L460 140ZM568.333 140.667L568.667 141.333L568.333 140.667Z" fill="#F9EBB9"/>
<path d="M211.667 141.333L212.333 141.667L211.667 141.333ZM214 141L215 142L214 141ZM218 141L219 142L218 141ZM223 141L224 142L223 141ZM228 141L229 142L228 141ZM243.667 141.333L244.333 141.667L243.667 141.333ZM246 141L247 142L246 141ZM250 141L251 142L250 141ZM203 142L204 143L203 142ZM209 142L210 146H211L212 144L209 142ZM235 142L236 143L235 142ZM241 142L242 146H243L244 144L241 142Z" fill="#F7F9FC"/>
<path d="M495 142L496 143L495 142Z" fill="#F9EBB9"/>
<path d="M206 143V145L208 143H206ZM215 143L216 144L215 143ZM227 143L228 144L227 143ZM230 143L231 144L230 143ZM232 143L233 144L232 143ZM238 143V145L240 143H238ZM247 143L248 144L247 143Z" fill="#F7F9FC"/>
<path d="M388 143V146H389L388 143ZM449 143L450 144L449 143ZM457 143L458 144L457 143Z" fill="#F9EBB9"/>
<path d="M203 144L204 147H205V144H203ZM219 144L220 145L219 144ZM222.667 144.333L223.333 144.667L222.667 144.333ZM235 144L236 147H237V144H235Z" fill="#F7F9FC"/>
<path d="M451 144L452 145L451 144ZM455 144L456 145L455 144ZM494 144L495 145L494 144Z" fill="#F9EBB9"/>
<path d="M199 145L200 146L199 145ZM201 145L202 146L201 145ZM225 145L226 146L225 145ZM229 145L230 146L229 145ZM231 145L232 146L231 145ZM233 145L234 146L233 145Z" fill="#F7F9FC"/>
<path d="M510.333 145.667L510.667 146.333L510.333 145.667ZM569.333 145.667L569.667 146.333L569.333 145.667Z" fill="#F9EBB9"/>
<path d="M208 146L209 147L208 146ZM214 146L215 147L214 146ZM217 146L218 147L217 146ZM221 146L222 147L221 146ZM240 146L241 147L240 146Z" fill="#F7F9FC"/>
<path d="M493 146L494 147L493 146Z" fill="#F9EBB9"/>
<path d="M198 147L199 148L198 147ZM211 147L212 148L211 147ZM219 147L222 149V148L219 147ZM223 147L224 148L223 147ZM226 147L227 148L226 147ZM230 147L231 148L230 147ZM201 148L202 149L201 148ZM204 148L205 149L204 148ZM233 148L234 149L233 148ZM236 148L237 149L236 148ZM197 149L198 150L197 149ZM206 149L207 150L206 149ZM217 149L218 150L217 149ZM229 149L230 150L229 149ZM238 149L239 150L238 149Z" fill="#F7F9FC"/>
<path d="M387 149V153H388L387 149ZM491 149L492 150L491 149ZM509 149L510 150L509 149Z" fill="#F9EBB9"/>
<path d="M194 150L196 152L194 150ZM206 151V152L211 151H206ZM219 150L217 151V152L219 150ZM226 150L228 152L226 150ZM198.667 151.333L199.333 151.667L198.667 151.333ZM203 151L204 152L203 151ZM214 151L215 152L214 151ZM223 151L225 153L223 151ZM230.667 151.333L231.333 151.667L230.667 151.333ZM235 151L236 152L235 151Z" fill="#F7F9FC"/>
<path d="M488 151L489 152L488 151ZM508 151L509 152L508 151ZM570.333 151.667L570.667 152.333L570.333 151.667ZM487 152L488 153L487 152Z" fill="#F9EBB9"/>
<path d="M201 153L202 154L201 153ZM203 153V157H204L203 153ZM212 153L213 154L212 153ZM217 153L221 155V154L217 153ZM233 153L234 154L233 153Z" fill="#F7F9FC"/>
<path d="M484.667 153.333L485.333 153.667L484.667 153.333ZM507 153L508 154L507 153Z" fill="#F9EBB9"/>
<path d="M194 154L195 155L194 154ZM198 154L199 155L198 154ZM208 154L209 155L208 154ZM215 154L216 155L215 154ZM222 154L224 156L222 154ZM226 154L227 155L226 154ZM230 154L231 155L230 154Z" fill="#F7F9FC"/>
<path d="M478 154V155H483L478 154Z" fill="#F9EBB9"/>
<path d="M191 155L192 156L191 155ZM213 155L214 156L213 155Z" fill="#F7F9FC"/>
<path d="M475 155L476 156L475 155Z" fill="#F9EBB9"/>
<path d="M194 156L195 157L194 156ZM201 156L202 157L201 156ZM206 156L207 157L206 156ZM226 156L227 157L226 156Z" fill="#F7F9FC"/>
<path d="M505 156L506 157L505 156Z" fill="#F9EBB9"/>
<path d="M190 157L191 158L190 157ZM222 157L223 158L222 157Z" fill="#F7F9FC"/>
<path d="M504 157L505 158L504 157Z" fill="#F9EBB9"/>
<path d="M196 158L197 159L196 158ZM202 158L199 159V160L203 159L202 158ZM209 158L210 159L209 158ZM219 158L220 159L219 158ZM228 158L229 159L228 158Z" fill="#F7F9FC"/>
<path d="M386 158V168H387L386 158Z" fill="#F9EBB9"/>
<path d="M192 159L193 160L192 159ZM206 159L207 160L206 159ZM215 159L214 161L215 159ZM217 159L218 160L217 159ZM224 159L225 160L224 159Z" fill="#F7F9FC"/>
<path d="M471.333 159.667L471.667 160.333L471.333 159.667Z" fill="#F9EBB9"/>
<path d="M189 160L188 162L189 160ZM196 160V162H198L196 160ZM203.667 160.333L204.333 160.667L203.667 160.333ZM210 160L211 161L210 160ZM221 160L220 162L221 160ZM200 161L199 163L200 161ZM207.333 161.667L207.667 162.333L207.333 161.667ZM202 162L201 166H202V162ZM213 162L214 163L213 162ZM215.333 162.667L215.667 163.333L215.333 162.667ZM185.667 163.333L186.333 163.667L185.667 163.333ZM190 163L191 164L190 163ZM192 165L195 164L192 165ZM217.667 163.333L218.333 163.667L217.667 163.333ZM222 163L223 164L222 163Z" fill="#F7F9FC"/>
<path d="M498 163L499 164L498 163Z" fill="#F9EBB9"/>
<path d="M188 164L189 165L188 164ZM197.667 164.333L198.333 164.667L197.667 164.333ZM205 164L206 165L205 164ZM207.333 164.667L207.667 165.333L207.333 164.667ZM213 164L214 165L213 164ZM220 164L221 165L220 164ZM224 164L225 165L224 164Z" fill="#F7F9FC"/>
<path d="M497 164L498 165L497 164Z" fill="#F9EBB9"/>
<path d="M183.333 165.667L183.667 166.333L183.333 165.667ZM185 165L187 167L185 165ZM194.333 165.667L194.667 166.333L194.333 165.667ZM215.333 165.667L215.667 166.333L215.333 165.667ZM217 165L219 167L217 165Z" fill="#F7F9FC"/>
<path d="M495 165L496 166L495 165Z" fill="#F9EBB9"/>
<path d="M189 166V167L192 168L189 166ZM196 166L197 167L196 166ZM204 166L203 168L204 166ZM221.667 166.333L222.333 166.667L221.667 166.333Z" fill="#F7F9FC"/>
<path d="M493 166L494 167L493 166Z" fill="#F9EBB9"/>
<path d="M200 167L201 168L200 167ZM208 167L209 168L208 167Z" fill="#F7F9FC"/>
<path d="M491 167L492 168L491 167Z" fill="#F9EBB9"/>
<path d="M181 168L182 169L181 168ZM187 168L188 169L187 168ZM195.333 168.667L195.667 169.333L195.333 168.667ZM211 168L212 169L211 168ZM213 168L214 169L213 168ZM219 168L220 169L219 168Z" fill="#F7F9FC"/>
<path d="M488.667 168.333L489.333 168.667L488.667 168.333Z" fill="#F9EBB9"/>
<path d="M189 169L191 171L189 169Z" fill="#F7F9FC"/>
<path d="M486 169V191H487L486 169Z" fill="#F9EBB9"/>
<path d="M181 170L184 172V171L181 170ZM192 170L193 171L192 170ZM199 170L200 171L199 170ZM213 170L216 172V171L213 170ZM179 171L180 172L179 171ZM195 171L196 172L195 171ZM207 171L208 172L207 171ZM211 171L212 172L211 171ZM177 172L178 173L177 172ZM189 172L190 173L189 172ZM193.333 172.667L193.667 173.333L193.333 172.667ZM201 172L202 173L201 172ZM205 172L206 173L205 172ZM209 172L210 173L209 172ZM179.667 173.333L180.333 173.667L179.667 173.333ZM182 173L183 174L182 173ZM186 173L187 174L186 173ZM191 173L192 174L191 173ZM196 173L197 174L196 173ZM211.667 173.333L212.333 173.667L211.667 173.333ZM214 173L215 174L214 173Z" fill="#F7F9FC"/>
<path d="M570.333 173.667L570.667 174.333L570.333 173.667Z" fill="#F9EBB9"/>
<path d="M177 174L178 178H179L180 176L177 174ZM203 174L204 175L203 174ZM209 174L210 178H211L212 176L209 174Z" fill="#F7F9FC"/>
<path d="M387 174V178H388L387 174Z" fill="#F9EBB9"/>
<path d="M183 175L184 176L183 175ZM195 175L196 176L195 175ZM198 175L199 176L198 175ZM200 175L201 176L200 175ZM206 175V177L208 175H206ZM187 176L188 177L187 176ZM190.667 176.333L191.333 176.667L190.667 176.333ZM203 176L204 179H205V176H203ZM193 177L194 178L193 177ZM197 177L198 178L197 177ZM199 177L200 178L199 177ZM201 177L202 178L201 177ZM176 178L177 179L176 178ZM182 178L183 179L182 178ZM185 178L186 179L185 178ZM189 178L190 179L189 178ZM208 178L209 179L208 178ZM179 179L180 180L179 179ZM187 179L190 181V180L187 179ZM191 179L192 180L191 179ZM194 179L195 180L194 179ZM198 179L199 180L198 179ZM172 180L173 181L172 180ZM201 180L202 181L201 180ZM204 180L205 181L204 180Z" fill="#F7F9FC"/>
<path d="M388 180V183H389L388 180ZM569 180L570 181L569 180Z" fill="#F9EBB9"/>
<path d="M174 181L175 182L174 181ZM185 181L186 182L185 181ZM197 181L198 182L197 181ZM206 181L207 182L206 181ZM174 183V184L179 183H174ZM187 182L185 183V184L187 182ZM194 182L196 184L194 182ZM171 183L172 184L171 183ZM182 183L183 184L182 183ZM191 183L193 185L191 183ZM198.667 183.333L199.333 183.667L198.667 183.333ZM203 183L204 184L203 183ZM206.667 183.333L207.333 183.667L206.667 183.333ZM169 185L170 186L169 185ZM171 185V189H172L171 185ZM180 185L181 186L180 185ZM185 185L189 187V186L185 185ZM201 185L202 186L201 185ZM203 185V189H204L203 185Z" fill="#F7F9FC"/>
<path d="M389.333 185.667L389.667 186.333L389.333 185.667ZM568 185V192L566 197C561.602 200.224 556.442 210.662 556 216L549 223H554V224H551V225L552 227C555.666 231.653 556.788 239.345 558.667 245C564.253 261.821 567.855 280.235 568 298L579 296H580C583.2 299.956 594.068 301.327 599 301L603 305C598.119 293.481 599.228 276.151 597.539 263.485C596.839 258.244 596.745 250.041 592 247L594 245L593 241L592 240L590 241L592 239C590.201 232.463 587.707 219.894 582 216C582.575 211.007 579.276 202.833 575 200L568 185Z" fill="#F9EBB9"/>
<path d="M176 186L177 187L176 186ZM183 186L184 187L183 186ZM190 186L192 188L190 186ZM194 186L195 187L194 186ZM198 186L199 187L198 186ZM181 187L182 188L181 187ZM169 188L170 189L169 188ZM174 188L175 189L174 188ZM194 188L195 189L194 188ZM201 188L202 189L201 188ZM190 189L191 190L190 189Z" fill="#F7F9FC"/>
<path d="M390 189L391 190L390 189Z" fill="#F9EBB9"/>
<path d="M170 190L167 191V192L171 191L170 190ZM177 190L178 191L177 190ZM187 190L188 191L187 190ZM196 190L197 191L196 190ZM202 190L199 191V192L203 191L202 190ZM174 191L175 192L174 191ZM183 191L182 193L183 191ZM185 191L186 192L185 191ZM192 191L193 192L192 191Z" fill="#F7F9FC"/>
<path d="M471 191L472 192L471 191Z" fill="#F9EBB9"/>
<path d="M567 191L568 192L567 191ZM569 191L570 192L569 191ZM171.667 192.333L172.333 192.667L171.667 192.333ZM178 192L179 193L178 192ZM189 192L188 194L189 192ZM196 192V194H198L196 192Z" fill="#F7F9FC"/>
<path d="M391 192L392 193L391 192ZM485 192L486 193L485 192Z" fill="#F9EBB9"/>
<path d="M168 193L167 195L168 193ZM175.333 193.667L175.667 194.333L175.333 193.667ZM200 193L199 195L200 193Z" fill="#F7F9FC"/>
<path d="M472 193L473 194L472 193Z" fill="#F9EBB9"/>
<path d="M170 194L169 198H170V194ZM181 194L182 195L181 194ZM183.333 194.667L183.667 195.333L183.333 194.667Z" fill="#F7F9FC"/>
<path d="M473 194L474 195L473 194Z" fill="#F9EBB9"/>
<path d="M567.333 194.667L567.667 195.333L567.333 194.667ZM185.667 195.333L186.333 195.667L185.667 195.333ZM190 195L191 196L190 195ZM192 197L195 196L192 197Z" fill="#F7F9FC"/>
<path d="M392 195L393 196L392 195ZM474 195L475 196L474 195ZM482 195L483 196L482 195Z" fill="#F9EBB9"/>
<path d="M569.667 195.333L570.333 195.667L569.667 195.333ZM165.667 196.333L166.333 196.667L165.667 196.333ZM173 196L174 197L173 196ZM175.333 196.667L175.667 197.333L175.333 196.667ZM181 196L182 197L181 196ZM188 196L189 197L188 196ZM197.667 196.333L198.333 196.667L197.667 196.333Z" fill="#F7F9FC"/>
<path d="M477 196V197H481L477 196Z" fill="#F9EBB9"/>
<path d="M565 196L566 197L565 196ZM572 196L573 197L572 196ZM162.333 197.667L162.667 198.333L162.333 197.667ZM183.333 197.667L183.667 198.333L183.333 197.667ZM185 197L187 199L185 197ZM194.333 197.667L194.667 198.333L194.333 197.667Z" fill="#F7F9FC"/>
<path d="M393.333 197.667L393.667 198.333L393.333 197.667Z" fill="#F9EBB9"/>
<path d="M567.333 197.667L567.667 198.333L567.333 197.667ZM569 197L571 199L569 197ZM164 198L165 199L164 198ZM172 198L171 200L172 198ZM189 198V199L192 200L189 198ZM196 198L197 199L196 198ZM573.667 198.333L574.333 198.667L573.667 198.333ZM168 199L169 200L168 199ZM176 199L177 200L176 199ZM163.333 200.667L163.667 201.333L163.333 200.667ZM179 200L180 201L179 200ZM181 200L182 201L181 200ZM187 200L188 201L187 200ZM195.333 200.667L195.667 201.333L195.333 200.667Z" fill="#F7F9FC"/>
<path d="M394 200L395 201L394 200Z" fill="#F9EBB9"/>
<path d="M565 200L566 201L565 200ZM571 200L572 201L571 200ZM189 201L191 203L189 201ZM573 201L575 203L573 201ZM160 202L161 203L160 202ZM167 202L168 203L167 202ZM181 202L184 204V203L181 202ZM192 202L193 203L192 202Z" fill="#F7F9FC"/>
<path d="M395 202L396 203L395 202Z" fill="#F9EBB9"/>
<path d="M565 202L568 204V203L565 202ZM576 202L577 203L576 202ZM163 203L164 204L163 203ZM175 203L176 204L175 203ZM179 203L180 204L179 203ZM563 203L564 204L563 203ZM161.333 204.667L161.667 205.333L161.333 204.667ZM169 204L170 205L169 204ZM173 204L174 205L173 204ZM177 204L178 205L177 204ZM189 204L190 205L189 204ZM193.333 204.667L193.667 205.333L193.333 204.667Z" fill="#F7F9FC"/>
<path d="M396 204L397 205L396 204Z" fill="#F9EBB9"/>
<path d="M573 204L574 205L573 204ZM577.333 204.667L577.667 205.333L577.333 204.667ZM159 205L160 206L159 205ZM164 205L165 206L164 205ZM179.667 205.333L180.333 205.667L179.667 205.333ZM182 205L183 206L182 205ZM186 205L187 206L186 205ZM191 205L192 206L191 205ZM563.667 205.333L564.333 205.667L563.667 205.333ZM566 205L567 206L566 205ZM570 205L571 206L570 205ZM575 205L576 206L575 205ZM171 206L172 207L171 206ZM177 206L178 210H179L180 208L177 206Z" fill="#F7F9FC"/>
<path d="M397 206L398 207L397 206Z" fill="#F9EBB9"/>
<path d="M561 206L562 210H563L564 208L561 206ZM163 207L164 208L163 207ZM166 207L167 208L166 207ZM168 207L169 208L168 207ZM174 207V209L176 207H174ZM183 207L184 208L183 207Z" fill="#F7F9FC"/>
<path d="M478.667 207.333L479.333 207.667L478.667 207.333Z" fill="#F9EBB9"/>
<path d="M567 207L568 208L567 207ZM158.667 208.333L159.333 208.667L158.667 208.333ZM171 208L172 211H173V208H171ZM187 208L188 209L187 208ZM190.667 208.333L191.333 208.667L190.667 208.333Z" fill="#F7F9FC"/>
<path d="M398 208L399 209L398 208ZM475 208L476 209L475 208Z" fill="#F9EBB9"/>
<path d="M476.059 208.747C468.421 211.786 472.542 225.395 480.956 222.242C489.693 218.968 484.85 205.249 476.059 208.747Z" fill="#F7F9FC"/>
<path d="M482 208L483 209L482 208Z" fill="#F9EBB9"/>
<path d="M571 208L572 209L571 208ZM574.667 208.333L575.333 208.667L574.667 208.333ZM161 209L162 210L161 209ZM165 209L166 210L165 209ZM167 209L168 210L167 209ZM169 209L170 210L169 209Z" fill="#F7F9FC"/>
<path d="M473 209L474 210L473 209ZM483 209L484 210L483 209Z" fill="#F9EBB9"/>
<path d="M577 209L578 210L577 209ZM157 210L158 211L157 210ZM176 210L177 211L176 210ZM182 210L183 211L182 210ZM185 210L186 211L185 210ZM189 210L190 211L189 210Z" fill="#F7F9FC"/>
<path d="M484 210L485 211L484 210Z" fill="#F9EBB9"/>
<path d="M560 210L561 211L560 210ZM566 210L567 211L566 210ZM569 210L570 211L569 210ZM573 210L574 211L573 210ZM155 211L158 213V212L155 211ZM159 211L160 212L159 211ZM162 211L163 212L162 211ZM166 211L167 212L166 211ZM179 211L180 212L179 211ZM187 211L190 213V212L187 211Z" fill="#F7F9FC"/>
<path d="M400 211L401 212L400 211ZM485 211L486 212L485 211Z" fill="#F9EBB9"/>
<path d="M563 211L564 212L563 211ZM571 211L574 213V212L571 211ZM575 211L576 212L575 211ZM578 211L579 212L578 211ZM169 212L170 213L169 212ZM172 212L173 213L172 212ZM165 213L166 214L165 213ZM174 213L175 214L174 213ZM185 213L186 214L185 213Z" fill="#F7F9FC"/>
<path d="M401 213L402 214L401 213ZM471 213V218H472L471 213Z" fill="#F9EBB9"/>
<path d="M558 213L559 214L558 213ZM569 213L570 214L569 213ZM581 213L582 214L581 213ZM155 214L156 215L155 214ZM162 214L164 216L162 214ZM174 215V216L179 215H174ZM187 214L185 215V216L187 214Z" fill="#F7F9FC"/>
<path d="M402 214L403 215L402 214Z" fill="#F9EBB9"/>
<path d="M558 215V216L563 215H558ZM571 214L569 215V216L571 214ZM578 214L580 216L578 214ZM159 215L161 217L159 215ZM166.667 215.333L167.333 215.667L166.667 215.333ZM171 215L172 216L171 215ZM182 215L183 216L182 215ZM555 215L556 216L555 215ZM566 215L567 216L566 215ZM575 215L577 217L575 215Z" fill="#F7F9FC"/>
<path d="M403 216L404 217L403 216Z" fill="#F9EBB9"/>
<path d="M153 217L157 219V218L153 217ZM169 217L170 218L169 217ZM171 217V221H172L171 217ZM180 217L181 218L180 217ZM185 217L187 219L185 217Z" fill="#F7F9FC"/>
<path d="M404 217L405 218L404 217Z" fill="#F9EBB9"/>
<path d="M555 217V221H556L555 217ZM564 217L565 218L564 217ZM569 217L573 219V218L569 217ZM158 218L160 220L158 218ZM162 218L163 219L162 218ZM166 218L167 219L166 218ZM176 218L177 219L176 218ZM183 218L184 219L183 218Z" fill="#F7F9FC"/>
<path d="M485 218L486 219L485 218Z" fill="#F9EBB9"/>
<path d="M560 218L561 219L560 218ZM567 218L568 219L567 218ZM574 218L576 220L574 218ZM578 218L579 219L578 218ZM582 218L583 219L582 218ZM181 219L182 220L181 219Z" fill="#F7F9FC"/>
<path d="M472 219L473 220L472 219Z" fill="#F9EBB9"/>
<path d="M565 219L566 220L565 219ZM162 220L163 221L162 220ZM169 220L170 221L169 220ZM174 220L175 221L174 220Z" fill="#F7F9FC"/>
<path d="M406 220L407 221L406 220ZM484 220L485 221L484 220Z" fill="#F9EBB9"/>
<path d="M553 220L554 221L553 220ZM558 220L559 221L558 220ZM578 220L579 221L578 220ZM158 221L159 222L158 221Z" fill="#F7F9FC"/>
<path d="M407 221L408 222L407 221ZM483 221L484 222L483 221Z" fill="#F9EBB9"/>
<path d="M574 221L575 222L574 221ZM155 222L156 223L155 222ZM164 222L165 223L164 222ZM170 222L167 223V224L171 223L170 222ZM177 222L178 223L177 222Z" fill="#F7F9FC"/>
<path d="M408 222L409 223L408 222ZM475 222L476 223L475 222ZM481 222L482 223L481 222Z" fill="#F9EBB9"/>
<path d="M554 222L555 223L554 222ZM561 222L562 223L561 222ZM571 222L572 223L571 222ZM580 222L581 223L580 222ZM151 223L150 225L151 223ZM153 223L154 224L153 223ZM160 223L161 224L160 223ZM174 223L175 224L174 223ZM183 223L182 225L183 223Z" fill="#F7F9FC"/>
<path d="M409 223L410 224L409 223ZM548 223L549 224L548 223Z" fill="#F9EBB9"/>
<path d="M558 223L559 224L558 223ZM567 223L566 225L567 223ZM569 223L570 224L569 223ZM576 223L577 224L576 223ZM583 223V224H586L583 223ZM157 224L156 226L157 224ZM164 224V226H166L164 224ZM171.667 224.333L172.333 224.667L171.667 224.333ZM178 224L179 225L178 224ZM555.667 224.333L556.333 224.667L555.667 224.333ZM562 224L563 225L562 224ZM573 224L572 226L573 224ZM580 224V226H582L580 224ZM168 225L167 227L168 225ZM175.333 225.667L175.667 226.333L175.333 225.667ZM559.333 225.667L559.667 226.333L559.333 225.667ZM584 225L583 227L584 225ZM149 226L150 227L149 226ZM151.333 226.667L151.667 227.333L151.333 226.667ZM170 226L169 230H170V226ZM181 226L182 227L181 226ZM554 226L555 227L554 226ZM565 226L566 227L565 226ZM567.333 226.667L567.667 227.333L567.333 226.667ZM586 226L585 230H586V226ZM153.667 227.333L154.333 227.667L153.667 227.333ZM158 227L159 228L158 227ZM160 229L163 228L160 229ZM569.667 227.333L570.333 227.667L569.667 227.333ZM574 227L575 228L574 227ZM576 229L579 228L576 229ZM149 228L150 229L149 228ZM156 228L157 229L156 228ZM165.667 228.333L166.333 228.667L165.667 228.333ZM173 228L174 229L173 228ZM175.333 228.667L175.667 229.333L175.333 228.667ZM181 228L182 229L181 228ZM557 228L558 229L557 228ZM559.333 228.667L559.667 229.333L559.333 228.667ZM565 228L566 229L565 228ZM572 228L573 229L572 228ZM581.667 228.333L582.333 228.667L581.667 228.333ZM151.333 229.667L151.667 230.333L151.333 229.667ZM153 229L155 231L153 229ZM162.333 229.667L162.667 230.333L162.333 229.667ZM567.333 229.667L567.667 230.333L567.333 229.667ZM569 229L571 231L569 229ZM578.333 229.667L578.667 230.333L578.333 229.667ZM157 230V231L160 232L157 230ZM164 230L165 231L164 230ZM172 230L171 232L172 230ZM556 230L555 232L556 230ZM573 230V231L576 232L573 230ZM580 230L581 231L580 230ZM168 231L169 232L168 231ZM176 231L177 232L176 231Z" fill="#F7F9FC"/>
<path d="M416 231V255H417L416 231Z" fill="#F9EBB9"/>
<path d="M560 231L561 232L560 231ZM584 231L585 232L584 231ZM587 231L588 232L587 231ZM147 232L148 233L147 232ZM149 232L150 233L149 232ZM155 232L156 233L155 232ZM163.333 232.667L163.667 233.333L163.333 232.667ZM179 232L180 233L179 232Z" fill="#F7F9FC"/>
<path d="M539 232L540 233L539 232Z" fill="#F9EBB9"/>
<path d="M563 232L564 233L563 232ZM565 232L566 233L565 232ZM571 232L572 233L571 232ZM579.333 232.667L579.667 233.333L579.333 232.667ZM157 233L159 235L157 233Z" fill="#F7F9FC"/>
<path d="M538 233L539 234L538 233Z" fill="#F9EBB9"/>
<path d="M573 233L575 235L573 233ZM149 234L152 236V235L149 234ZM160 234L161 235L160 234ZM167 234L168 235L167 234Z" fill="#F7F9FC"/>
<path d="M537 234L538 235L537 234Z" fill="#F9EBB9"/>
<path d="M565 234L568 236V235L565 234ZM576 234L577 235L576 234ZM583 234L584 235L583 234ZM147 235L148 236L147 235ZM163 235L164 236L163 235ZM175 235L176 236L175 235ZM559 235L560 236L559 235ZM563 235L564 236L563 235ZM579 235L580 236L579 235ZM157 236L158 237L157 236ZM161.333 236.667L161.667 237.333L161.333 236.667ZM169 236L170 237L169 236ZM173 236L174 237L173 236ZM177 236L178 237L177 236ZM557 236L558 237L557 236ZM561 236L562 237L561 236ZM573 236L574 237L573 236ZM577.333 236.667L577.667 237.333L577.333 236.667ZM585 236L586 237L585 236ZM589 236L590 237L589 236ZM147.667 237.333L148.333 237.667L147.667 237.333ZM150 237L151 238L150 237ZM154 237L155 238L154 237ZM159 237L160 238L159 237ZM164 237L165 238L164 237Z" fill="#F7F9FC"/>
<path d="M533 237L534 238L533 237Z" fill="#F9EBB9"/>
<path d="M563.667 237.333L564.333 237.667L563.667 237.333ZM566 237L567 238L566 237ZM570 237L571 238L570 237ZM575 237L576 238L575 237ZM580 237L581 238L580 237ZM145 238L146 242H147L148 240L145 238ZM171 238L172 239L171 238ZM177 238L178 239L177 238ZM561 238L562 242H563L564 240L561 238ZM587 238L588 239L587 238ZM151 239L152 240L151 239ZM163 239L164 240L163 239ZM166 239L167 240L166 239ZM168 239L169 240L168 239ZM174 239V241L176 239H174Z" fill="#F7F9FC"/>
<path d="M530 239L531 240L530 239Z" fill="#F9EBB9"/>
<path d="M558 239V241L560 239H558ZM567 239L568 240L567 239ZM579 239L580 240L579 239ZM582 239L583 240L582 239ZM584 239L585 240L584 239ZM155 240L156 241L155 240ZM158.667 240.333L159.333 240.667L158.667 240.333ZM171 240L172 243H173V240H171ZM571 240L572 241L571 240ZM574.667 240.333L575.333 240.667L574.667 240.333ZM587 240L588 243H589V240H587ZM161 241L162 242L161 241ZM165 241L166 242L165 241ZM167 241L168 242L167 241ZM169 241L170 242L169 241Z" fill="#F7F9FC"/>
<path d="M527 241L528 242L527 241Z" fill="#F9EBB9"/>
<path d="M577 241L578 242L577 241ZM581 241L582 242L581 241ZM583 241L584 242L583 241ZM585 241L586 242L585 241ZM144 242L145 243L144 242ZM150 242L151 243L150 242ZM153 242L154 243L153 242ZM157 242L158 243L157 242ZM176 242L177 243L176 242ZM560 242L561 243L560 242ZM566 242L567 243L566 242ZM569 242L570 243L569 242ZM573 242L574 243L573 242ZM147 243L148 244L147 243ZM155 243L158 245V244L155 243ZM159 243L160 244L159 243ZM162 243L163 244L162 243ZM166 243L167 244L166 243Z" fill="#F7F9FC"/>
<path d="M524 243L525 244L524 243Z" fill="#F9EBB9"/>
<path d="M563 243L564 244L563 243ZM571 243L574 245V244L571 243ZM575 243L576 244L575 243ZM578 243L579 244L578 243ZM582 243L583 244L582 243ZM169 244L170 245L169 244ZM172 244L173 245L172 244Z" fill="#F7F9FC"/>
<path d="M522 244L523 245L522 244Z" fill="#F9EBB9"/>
<path d="M585 244L586 245L585 244ZM588 244L589 245L588 244ZM153 245L154 246L153 245ZM165 245L166 246L165 245ZM174 245L175 246L174 245Z" fill="#F7F9FC"/>
<path d="M520 245L521 246L520 245Z" fill="#F9EBB9"/>
<path d="M569 245L570 246L569 245ZM581 245L582 246L581 245ZM590 245L591 246L590 245ZM144 246V247H147L144 246ZM155 246L153 247V248L155 246ZM162 246L164 248L162 246Z" fill="#F7F9FC"/>
<path d="M436.667 246.333L437.333 246.667L436.667 246.333ZM439 246L440 247L439 246ZM518 246L519 247L518 246Z" fill="#F9EBB9"/>
<path d="M560 246V247H563L560 246ZM571 246L569 247V248L571 246ZM578 246L580 248L578 246ZM150 247L151 248L150 247ZM159 247L161 249L159 247ZM166.667 247.333L167.333 247.667L166.667 247.333ZM171 247L172 248L171 247ZM174.667 247.333L175.333 247.667L174.667 247.333Z" fill="#F7F9FC"/>
<path d="M434 247L435 248L434 247ZM441 247L442 248L441 247ZM516 247L517 248L516 247Z" fill="#F9EBB9"/>
<path d="M566 247L567 248L566 247ZM575 247L577 249L575 247ZM582.667 247.333L583.333 247.667L582.667 247.333ZM587 247L588 248L587 247ZM590.667 247.333L591.333 247.667L590.667 247.333Z" fill="#F7F9FC"/>
<path d="M432 248L433 249L432 248ZM444 248L445 249L444 248Z" fill="#F9EBB9"/>
<path d="M148 249L149 250L148 249ZM153 249L157 251V250L153 249ZM169 249L170 250L169 249ZM171 249V253H172L171 249Z" fill="#F7F9FC"/>
<path d="M429.667 249.333L430.333 249.667L429.667 249.333ZM446 249L447 250L446 249ZM511 249L512 250L511 249Z" fill="#F9EBB9"/>
<path d="M564 249L565 250L564 249ZM569 249L573 251V250L569 249ZM585 249L586 250L585 249ZM587 249V253H588L587 249ZM144 250L145 251L144 250ZM151 250L152 251L151 250ZM158 250L160 252L158 250ZM162 250L163 251L162 250ZM166 250L167 251L166 250Z" fill="#F7F9FC"/>
<path d="M427 250L428 251L427 250ZM449.667 250.333L450.333 250.667L449.667 250.333ZM508 250L509 251L508 250Z" fill="#F9EBB9"/>
<path d="M567 250L568 251L567 250ZM574 250L576 252L574 250ZM578 250L579 251L578 250ZM582 250L583 251L582 250ZM592 250L593 251L592 250ZM149 251L150 252L149 251Z" fill="#F7F9FC"/>
<path d="M425 251L426 252L425 251ZM452.667 251.333L453.333 251.667L452.667 251.333ZM505 251L506 252L505 251Z" fill="#F9EBB9"/>
<path d="M565 251L566 252L565 251ZM142 252L143 253L142 252ZM162 252L163 253L162 252ZM169 252L170 253L169 252Z" fill="#F7F9FC"/>
<path d="M422.667 252.333L423.333 252.667L422.667 252.333ZM455 252V253H458L455 252ZM501.667 252.333L502.333 252.667L501.667 252.333Z" fill="#F9EBB9"/>
<path d="M578 252L579 253L578 252ZM585 252L586 253L585 252ZM590 252L591 253L590 252ZM158 253L159 254L158 253Z" fill="#F7F9FC"/>
<path d="M420 253L421 254L420 253ZM459.667 253.333L460.333 253.667L459.667 253.333ZM497 253L498 254L497 253Z" fill="#F9EBB9"/>
<path d="M574 253L575 254L574 253ZM145 254L146 255L145 254ZM155 254L156 255L155 254ZM164 254L165 255L164 254ZM170 254L167 255V256L171 255L170 254Z" fill="#F7F9FC"/>
<path d="M418 254L419 255L418 254ZM465.667 254.333L466.333 254.667L465.667 254.333ZM491.667 254.333L492.333 254.667L491.667 254.333Z" fill="#F9EBB9"/>
<path d="M571 254L572 255L571 254ZM580 254L581 255L580 254ZM586 254L583 255V256L587 255L586 254ZM593 254L594 255L593 254ZM142 255L143 256L142 255ZM151 255L150 257L151 255ZM153 255L154 256L153 255ZM160 255L161 256L160 255Z" fill="#F7F9FC"/>
<path d="M474 255V256H484L474 255Z" fill="#F9EBB9"/>
<path d="M567 255L566 257L567 255ZM569 255L570 256L569 255ZM576 255L577 256L576 255ZM590 255L591 256L590 255ZM146 256L147 257L146 256ZM157 256L156 258L157 256ZM164 256V258H166L164 256ZM171.667 256.333L172.333 256.667L171.667 256.333ZM573 256L572 258L573 256ZM580 256V258H582L580 256ZM587.667 256.333L588.333 256.667L587.667 256.333ZM594 256L595 257L594 256ZM143.333 257.667L143.667 258.333L143.333 257.667ZM168 257L167 259L168 257ZM584 257L583 259L584 257ZM591.333 257.667L591.667 258.333L591.333 257.667ZM149 258L150 259L149 258ZM151.333 258.667L151.667 259.333L151.333 258.667ZM170 258L169 262H170V258ZM565 258L566 259L565 258ZM567.333 258.667L567.667 259.333L567.333 258.667ZM586 258L585 262H586V258ZM153.667 259.333L154.333 259.667L153.667 259.333ZM158 259L159 260L158 259ZM160 261L163 260L160 261ZM569.667 259.333L570.333 259.667L569.667 259.333ZM574 259L575 260L574 259ZM576 261L579 260L576 261ZM141 260L142 261L141 260ZM143.333 260.667L143.667 261.333L143.333 260.667ZM149 260L150 261L149 260ZM156 260L157 261L156 260ZM165.667 260.333L166.333 260.667L165.667 260.333ZM565 260L566 261L565 260ZM572 260L573 261L572 260ZM581.667 260.333L582.333 260.667L581.667 260.333ZM589 260L590 261L589 260ZM591.333 260.667L591.667 261.333L591.333 260.667ZM151.333 261.667L151.667 262.333L151.333 261.667ZM153 261L155 263L153 261ZM162.333 261.667L162.667 262.333L162.333 261.667ZM567.333 261.667L567.667 262.333L567.333 261.667ZM569 261L571 263L569 261ZM578.333 261.667L578.667 262.333L578.333 261.667ZM140 262L141 263L140 262ZM157 262V263L160 264L157 262ZM164 262L165 263L164 262ZM573 262V263L576 264L573 262ZM580 262L581 263L580 262ZM588 262L587 264L588 262ZM144 263L145 264L144 263ZM168 263L169 264L168 263ZM584 263L585 264L584 263ZM592 263L593 264L592 263ZM147 264L148 265L147 264ZM149 264L150 265L149 264ZM155 264L156 265L155 264ZM163.333 264.667L163.667 265.333L163.333 264.667ZM565 264L566 265L565 264ZM571 264L572 265L571 264ZM579.333 264.667L579.667 265.333L579.333 264.667ZM595 264L596 265L595 264ZM157 265L159 267L157 265ZM573 265L575 267L573 265ZM149 266L152 268V267L149 266ZM160 266L161 267L160 266ZM167 266L168 267L167 266ZM565 266L568 268V267L565 266ZM576 266L577 267L576 266ZM583 266L584 267L583 266ZM143 267L144 268L143 267ZM147 267L148 268L147 267ZM163 267L164 268L163 267ZM579 267L580 268L579 267ZM591 267L592 268L591 267ZM595 267L596 268L595 267ZM141 268L142 269L141 268ZM145 268L146 269L145 268ZM157 268L158 269L157 268ZM161.333 268.667L161.667 269.333L161.333 268.667ZM169 268L170 269L169 268ZM573 268L574 269L573 268ZM577.333 268.667L577.667 269.333L577.333 268.667ZM585 268L586 269L585 268ZM589 268L590 269L589 268ZM593 268L594 269L593 268ZM147.667 269.333L148.333 269.667L147.667 269.333ZM150 269L151 270L150 269ZM154 269L155 270L154 269ZM159 269L160 270L159 269ZM164 269L165 270L164 269ZM566 269L567 270L566 269ZM570 269L571 270L570 269ZM575 269L576 270L575 269ZM580 269L581 270L580 269ZM595.667 269.333L596.333 269.667L595.667 269.333ZM139 270L140 271L139 270ZM145 270L146 274H147L148 272L145 270ZM587 270L588 271L587 270ZM593 270L594 274H595L596 272L593 270ZM142 271V273L144 271H142ZM151 271L152 272L151 271ZM163 271L164 272L163 271ZM166 271L167 272L166 271ZM168 271L169 272L168 271ZM567 271L568 272L567 271ZM579 271L580 272L579 271ZM582 271L583 272L582 271ZM584 271L585 272L584 271ZM590 271V273L592 271H590ZM139 272L140 275H141V272H139ZM155 272L156 273L155 272ZM158.667 272.333L159.333 272.667L158.667 272.333ZM571 272L572 273L571 272ZM574.667 272.333L575.333 272.667L574.667 272.333ZM587 272L588 275H589V272H587ZM161 273L162 274L161 273ZM165 273L166 274L165 273ZM167 273L168 274L167 273ZM169 273L170 274L169 273ZM577 273L578 274L577 273ZM581 273L582 274L581 273ZM583 273L584 274L583 273ZM585 273L586 274L585 273ZM144 274L145 275L144 274ZM150 274L151 275L150 274ZM153 274L154 275L153 274ZM157 274L158 275L157 274Z" fill="#F7F9FC"/>
<path d="M362 274V275H374L362 274Z" fill="#F9EBB9"/>
<path d="M569 274L570 275L569 274ZM573 274L574 275L573 274ZM592 274L593 275L592 274ZM147 275L148 276L147 275ZM155 275L158 277V276L155 275ZM159 275L160 276L159 275ZM162 275L163 276L162 275ZM166 275L167 276L166 275Z" fill="#F7F9FC"/>
<path d="M352.667 275.333L353.333 275.667L352.667 275.333Z" fill="#F9EBB9"/>
<path d="M441 491C441 483.337 438.944 472.222 441.603 465C443.651 459.441 449.885 454.609 453.55 450C459.52 442.493 464.354 433.811 468.127 425C478.898 399.848 478.612 370.559 469.655 345C465.233 332.381 457.986 321.162 449.41 311C441.524 301.655 431.625 294.14 421 288.154C344.37 244.98 248.812 311.464 260.87 398C263.136 414.264 268.728 429.23 277.695 443C287.434 457.955 301.356 470.216 317 478.691C338.028 490.084 363.498 493.833 387 489.75C395.935 488.198 407.287 481.167 416 481.592C424.358 482 432.914 488.788 441 491Z" fill="#F08EC7"/>
<path d="M382.667 275.333L383.333 275.667L382.667 275.333Z" fill="#F9EBB9"/>
<path d="M571 275L574 277V276L571 275ZM575 275L576 276L575 275ZM578 275L579 276L578 275ZM582 275L583 276L582 275ZM595 275L596 276L595 275ZM137 276L138 277L137 276ZM140 276L141 277L140 276Z" fill="#F7F9FC"/>
<path d="M347 276L348 277L347 276ZM389 276L390 277L389 276Z" fill="#F9EBB9"/>
<path d="M585 276L586 277L585 276ZM588 276L589 277L588 276ZM142 277L143 278L142 277ZM153 277L154 278L153 277ZM165 277L166 278L165 277Z" fill="#F7F9FC"/>
<path d="M342.667 277.333L343.333 277.667L342.667 277.333ZM393 277L394 278L393 277Z" fill="#F9EBB9"/>
<path d="M569 277L570 278L569 277ZM581 277L582 278L581 277ZM590 277L591 278L590 277ZM142 279V280L147 279H142ZM155 278L153 279V280L155 278ZM162 278L164 280L162 278Z" fill="#F7F9FC"/>
<path d="M339 278L340 279L339 278ZM397 278L398 279L397 278Z" fill="#F9EBB9"/>
<path d="M571 278L569 279V280L571 278ZM578 278L580 280L578 278ZM590 279V280L595 279H590ZM139 279L140 280L139 279ZM150 279L151 280L150 279ZM159 279L161 281L159 279ZM166.667 279.333L167.333 279.667L166.667 279.333Z" fill="#F7F9FC"/>
<path d="M335 279L336 280L335 279Z" fill="#F9EBB9"/>
<path d="M575 279L577 281L575 279ZM582.667 279.333L583.333 279.667L582.667 279.333ZM587 279L588 280L587 279ZM598 279L599 280L598 279Z" fill="#F7F9FC"/>
<path d="M332 280L333 281L332 280Z" fill="#F9EBB9"/>
<path d="M137 281L138 282L137 281ZM139 281V285H140L139 281ZM148 281L149 282L148 281ZM153 281L157 283V282L153 281Z" fill="#F7F9FC"/>
<path d="M329 281L330 282L329 281ZM406 281L407 282L406 281Z" fill="#F9EBB9"/>
<path d="M569 281L573 283V282L569 281ZM585 281L586 282L585 281ZM587 281V285H588L587 281ZM596 281L597 282L596 281ZM144 282L145 283L144 282ZM151 282L152 283L151 282ZM158 282L160 284L158 282ZM162 282L163 283L162 282ZM166 282L167 283L166 282Z" fill="#F7F9FC"/>
<path d="M327 282L328 283L327 282Z" fill="#F9EBB9"/>
<path d="M574 282L576 284L574 282ZM578 282L579 283L578 282ZM582 282L583 283L582 282ZM592 282L593 283L592 282ZM149 283L150 284L149 283Z" fill="#F7F9FC"/>
<path d="M411 283L412 284L411 283Z" fill="#F9EBB9"/>
<path d="M597 283L598 284L597 283ZM137 284L138 285L137 284ZM142 284L143 285L142 284ZM162 284L163 285L162 284Z" fill="#F7F9FC"/>
<path d="M322 284L323 285L322 284ZM413 284L414 285L413 284Z" fill="#F9EBB9"/>
<path d="M578 284L579 285L578 284ZM585 284L586 285L585 284ZM590 284L591 285L590 284ZM158 285L159 286L158 285Z" fill="#F7F9FC"/>
<path d="M320 285L321 286L320 285Z" fill="#F9EBB9"/>
<path d="M574 285L575 286L574 285ZM138 286L139 287L138 286ZM145 286L146 287L145 286ZM155 286L156 287L155 286ZM164 286L165 287L164 286Z" fill="#F7F9FC"/>
<path d="M318 286L319 287L318 286Z" fill="#F9EBB9"/>
<path d="M571 286L572 287L571 286ZM580 286L581 287L580 286ZM586 286L583 287V288L587 287L586 286ZM593 286L594 287L593 286ZM142 287L143 288L142 287ZM151 287L150 289L151 287ZM153 287L154 288L153 287ZM160 287L161 288L160 287Z" fill="#F7F9FC"/>
<path d="M316 287L317 288L316 287ZM419 287L420 288L419 287Z" fill="#F9EBB9"/>
<path d="M569 287L570 288L569 287ZM576 287L577 288L576 287ZM590 287L591 288L590 287ZM599 287L598 289L599 287ZM139.667 288.333L140.333 288.667L139.667 288.333ZM146 288L147 289L146 288ZM157 288L156 290L157 288ZM164 288V290H166L164 288Z" fill="#F7F9FC"/>
<path d="M421 288L422 289L421 288Z" fill="#F9EBB9"/>
<path d="M573 288L572 290L573 288ZM580 288V290H582L580 288ZM587.667 288.333L588.333 288.667L587.667 288.333ZM594 288L595 289L594 288ZM136 289L137 290L136 289ZM143.333 289.667L143.667 290.333L143.333 289.667Z" fill="#F7F9FC"/>
<path d="M313 289L314 290L313 289Z" fill="#F9EBB9"/>
<path d="M584 289L583 291L584 289ZM591.333 289.667L591.667 290.333L591.333 289.667ZM138 290L137 294H138V290ZM149 290L150 291L149 290ZM151.333 290.667L151.667 291.333L151.333 290.667ZM167 290L168 291L167 290Z" fill="#F7F9FC"/>
<path d="M311 290L312 291L311 290Z" fill="#F9EBB9"/>
<path d="M586 290L585 294H586V290ZM597 290L598 291L597 290ZM599.333 290.667L599.667 291.333L599.333 290.667ZM153.667 291.333L154.333 291.667L153.667 291.333ZM158 291L159 292L158 291ZM160 293L163 292L160 293Z" fill="#F7F9FC"/>
<path d="M426 291L427 292L426 291Z" fill="#F9EBB9"/>
<path d="M569.667 291.333L570.333 291.667L569.667 291.333ZM574 291L575 292L574 291ZM576 293L579 292L576 293ZM141 292L142 293L141 292ZM143.333 292.667L143.667 293.333L143.333 292.667ZM149 292L150 293L149 292ZM156 292L157 293L156 292ZM165.667 292.333L166.333 292.667L165.667 292.333Z" fill="#F7F9FC"/>
<path d="M308 292L309 293L308 292Z" fill="#F9EBB9"/>
<path d="M572 292L573 293L572 292ZM581.667 292.333L582.333 292.667L581.667 292.333ZM589 292L590 293L589 292ZM591.333 292.667L591.667 293.333L591.333 292.667ZM597 292L598 293L597 292ZM151.333 293.667L151.667 294.333L151.333 293.667ZM153 293L155 295L153 293ZM162.333 293.667L162.667 294.333L162.333 293.667Z" fill="#F7F9FC"/>
<path d="M429 293L430 294L429 293Z" fill="#F9EBB9"/>
<path d="M569 293L571 295L569 293ZM578.333 293.667L578.667 294.333L578.333 293.667ZM599.333 293.667L599.667 294.333L599.333 293.667ZM140 294L139 296L140 294ZM157 294V295L160 296L157 294ZM164 294L165 295L164 294Z" fill="#F7F9FC"/>
<path d="M305 294L306 295L305 294Z" fill="#F9EBB9"/>
<path d="M573 294V295L576 296L573 294ZM580 294L581 295L580 294ZM588 294L587 296L588 294ZM136 295L137 296L136 295ZM144 295L145 296L144 295Z" fill="#F7F9FC"/>
<path d="M432 295L433 296L432 295Z" fill="#F9EBB9"/>
<path d="M584 295L585 296L584 295ZM592 295L593 296L592 295ZM147 296L148 297L147 296ZM149 296L150 297L149 296ZM155 296L156 297L155 296ZM163.333 296.667L163.667 297.333L163.333 296.667Z" fill="#F7F9FC"/>
<path d="M302 296L303 297L302 296ZM433 296L434 297L433 296Z" fill="#F9EBB9"/>
<path d="M571 296L572 297L571 296ZM579.333 296.667L579.667 297.333L579.333 296.667ZM595 296L596 297L595 296ZM597 296L598 297L597 296ZM157 297L159 299L157 297Z" fill="#F7F9FC"/>
<path d="M301 297L302 298L301 297Z" fill="#F9EBB9"/>
<path d="M573 297L574 298L573 297ZM149 298L152 300V299L149 298ZM160 298L161 299L160 298Z" fill="#F7F9FC"/>
<path d="M567 298V299H584L567 298Z" fill="#F08EC7"/>
<path d="M597 298L600 300V299L597 298ZM143 299L144 300L143 299ZM147 299L148 300L147 299ZM163 299L164 300L163 299Z" fill="#F7F9FC"/>
<path d="M437 299L438 300L437 299Z" fill="#F9EBB9"/>
<path d="M567 299V461C585.005 457.763 600.359 460.906 613.674 444.999C627.231 428.804 624 406.656 624 387C624 356.08 631.296 311.851 593 300.44C584.732 297.976 575.536 299 567 299Z" fill="#7877CB"/>
<path d="M589 299L590 300L589 299Z" fill="#F08EC7"/>
<path d="M595 299L596 300L595 299ZM137 300L138 301L137 300ZM141 300L142 301L141 300ZM145 300L146 301L145 300ZM157 300L158 301L157 300ZM161 300L162 301L161 300Z" fill="#F7F9FC"/>
<path d="M297 300L298 301L297 300ZM438 300L439 301L438 300Z" fill="#F9EBB9"/>
<path d="M593 300L594 301L593 300ZM149.667 301.333L150.333 301.667L149.667 301.333Z" fill="#F08EC7"/>
<path d="M169 463V301C160.617 301 152.183 300.563 144 302.757C104.635 313.309 112 358.888 112 390C112 410.66 108.785 433.535 124.174 449.96C136.402 463.012 152.491 463 169 463Z" fill="#7877CB"/>
<path d="M296 301L297 302L296 301Z" fill="#F9EBB9"/>
<path d="M596 301L597 302L596 301Z" fill="#F08EC7"/>
<path d="M598 301L599 302L598 301ZM139 302L140 303L139 302Z" fill="#F7F9FC"/>
<path d="M144 302L145 303L144 302Z" fill="#F08EC7"/>
<path d="M295 302L296 303L295 302Z" fill="#F9EBB9"/>
<path d="M598 302L599 303L598 302Z" fill="#F08EC7"/>
<path d="M136 303L137 304L136 303Z" fill="#F7F9FC"/>
<path d="M141 303L142 304L141 303Z" fill="#F08EC7"/>
<path d="M294 303L295 304L294 303Z" fill="#F9EBB9"/>
<path d="M600 303L601 304L600 303ZM138 304L139 305L138 304Z" fill="#F08EC7"/>
<path d="M293 304L294 305L293 304Z" fill="#F9EBB9"/>
<path d="M136 305L137 306L136 305Z" fill="#F08EC7"/>
<path d="M292 305L293 306L292 305ZM604 305L605 306L604 305Z" fill="#F9EBB9"/>
<path d="M134 306L135 307L134 306ZM605 306L606 307L605 306ZM131 308L132 309L131 308Z" fill="#F08EC7"/>
<path d="M289 308L290 309L289 308ZM608 308L609 309L608 308ZM288 309L289 310L288 309ZM609 309L610 310L609 309ZM128 310L129 311L128 310ZM287 310L288 311L287 310ZM610 310L611 311L610 310Z" fill="#F9EBB9"/>
<path d="M127 311L128 312L127 311Z" fill="#F08EC7"/>
<path d="M286 311L287 312L286 311ZM449 311L450 312L449 311ZM611 311L612 312L611 311Z" fill="#F9EBB9"/>
<path d="M126 312L127 313L126 312Z" fill="#F08EC7"/>
<path d="M285 312L286 313L285 312ZM450 312L451 313L450 312ZM612 312L613 313L612 312ZM451 313L452 314L451 313ZM613 313L614 314L613 313Z" fill="#F9EBB9"/>
<path d="M123 315L124 316L123 315ZM122 316L123 317L122 316Z" fill="#F08EC7"/>
<path d="M282 316L283 317L282 316Z" fill="#F9EBB9"/>
<path d="M615 316L616 317L615 316Z" fill="#F08EC7"/>
<path d="M121 317L122 318L121 317ZM281 317L282 318L281 317ZM454 317L455 318L454 317ZM616 317L617 318L616 317Z" fill="#F9EBB9"/>
<path d="M617 319L618 320L617 319ZM119 320L120 321L119 320Z" fill="#F08EC7"/>
<path d="M279 320L280 321L279 320ZM618 320L619 321L618 320ZM118 321L119 322L118 321ZM457 321L458 322L457 321ZM619 322L620 323L619 322ZM117 323L118 324L117 323ZM277 323L278 324L277 323ZM459 324L460 325L459 324ZM620 324L621 325L620 324Z" fill="#F9EBB9"/>
<path d="M116 325L117 326L116 325Z" fill="#F08EC7"/>
<path d="M275 326L276 327L275 326ZM115 327L116 328L115 327ZM621 327L622 328L621 327ZM462 329L463 330L462 329Z" fill="#F9EBB9"/>
<path d="M114 330L115 331L114 330Z" fill="#F08EC7"/>
<path d="M622 330L623 331L622 330ZM272 331L273 332L272 331ZM463 331L464 332L463 331Z" fill="#F9EBB9"/>
<path d="M622 331L623 332L622 331Z" fill="#F08EC7"/>
<path d="M113 332L114 333L113 332ZM344 332L345 333L344 332Z" fill="#F9EBB9"/>
<path d="M345.044 332.742C338.904 335.244 338.71 343.965 345.019 346.397C354.348 349.992 370.019 347 380 347C383.675 347 388.596 347.805 391.941 345.972C397.976 342.667 396.209 334.192 389.985 332.434C380.595 329.782 367.743 332 358 332C353.981 332 348.843 331.194 345.044 332.742Z" fill="#F7F9FC"/>
<path d="M391 332L392 333L391 332Z" fill="#F9EBB9"/>
<path d="M113 333L114 334L113 333Z" fill="#F08EC7"/>
<path d="M271 333L272 334L271 333ZM464 333L465 334L464 333ZM623.333 334.667L623.667 335.333L623.333 334.667ZM270 335L271 336L270 335ZM112.333 336.667L112.667 337.333L112.333 336.667ZM340 336L341 337L340 336ZM395 336L396 337L395 336Z" fill="#F9EBB9"/>
<path d="M623 336L624 337L623 336Z" fill="#F08EC7"/>
<path d="M269 337L270 338L269 337ZM466 337L467 338L466 337Z" fill="#F9EBB9"/>
<path d="M112 338L113 339L112 338Z" fill="#F08EC7"/>
<path d="M467 339L468 340L467 339ZM267 342L268 343L267 342ZM266 344L267 345L266 344ZM341 344L342 345L341 344ZM394 344L395 345L394 344ZM469 344L470 345L469 344ZM342 345L343 346L342 345ZM393 345L394 346L393 345ZM265 347L266 348L265 347ZM347 347V348H388C377.25 343.489 358.696 347 347 347ZM470 347L471 348L470 347ZM264 350L265 351L264 350ZM471 350L472 351L471 350ZM263.333 353.667L263.667 354.333L263.333 353.667ZM472 353L473 354L472 353ZM262.333 357.667L262.667 358.333L262.333 357.667ZM473 357L474 358L473 357ZM474 361L475 362L474 361ZM261.333 362.667L261.667 363.333L261.333 362.667ZM475.333 367.667L475.667 368.333L475.333 367.667ZM260 368V371H261L260 368ZM323 375V376H413L385 375H323ZM321 376L322 377L321 376Z" fill="#F9EBB9"/>
<path d="M322.109 376.742C316.384 379.204 317.24 387.873 323.044 389.566C329.822 391.544 338.967 390 346 390H393C398.83 390 410.861 392.263 415.566 388.258C420.725 383.867 416.748 376.761 410.996 376.109C390.875 373.828 369.26 376 349 376C341.348 376 329.198 373.694 322.109 376.742Z" fill="#F7F9FC"/>
<path d="M414 376L415 377L414 376ZM476 377V389H477L476 377ZM259 379V387H260L259 379ZM318 379L319 380L318 379ZM417 379L418 380L417 379ZM317.333 382.667L317.667 383.333L317.333 382.667ZM418.333 382.667L418.667 383.333L418.333 382.667ZM318 386L319 387L318 386ZM417 386L418 387L417 386ZM321 389L322 390L321 389ZM414 389L415 390L414 389ZM323 390V391H413L385 390H323ZM260 395V398H261L260 395ZM475.333 397.667L475.667 398.333L475.333 397.667ZM261.333 402.667L261.667 403.333L261.333 402.667ZM474.333 403.667L474.667 404.333L474.333 403.667ZM262.333 407.667L262.667 408.333L262.333 407.667ZM473 408L474 409L473 408ZM263.333 411.667L263.667 412.333L263.333 411.667ZM472 412L473 413L472 412ZM264 415L265 416L264 415ZM471 415L472 416L471 415ZM265 418L266 419L265 418ZM347 418V419H389C378.012 414.389 358.957 418 347 418ZM470 418L471 419L470 418Z" fill="#F9EBB9"/>
<path d="M344.059 420.028C338.024 423.333 339.791 431.808 346.015 433.566C355.97 436.377 369.666 434 380 434C384.01 434 389.356 434.839 392.772 432.258C397.825 428.439 395.934 420.835 389.995 419.318C380.167 416.807 367.143 419 357 419C353.072 419 347.63 418.072 344.059 420.028Z" fill="#F7F9FC"/>
<path d="M342 420L343 421L342 420ZM393 420L394 421L393 420ZM266 421L267 422L266 421ZM341 421L342 422L341 421ZM394 421L395 422L394 421ZM469 421L470 422L469 421Z" fill="#F9EBB9"/>
<path d="M623 422L624 423L623 422Z" fill="#F08EC7"/>
<path d="M267 423L268 424L267 423ZM623.333 423.667L623.667 424.333L623.333 423.667Z" fill="#F9EBB9"/>
<path d="M112 425L113 426L112 425Z" fill="#F08EC7"/>
<path d="M112.333 426.667L112.667 427.333L112.333 426.667ZM467 426L468 427L467 426Z" fill="#F9EBB9"/>
<path d="M622 427L623 428L622 427Z" fill="#F08EC7"/>
<path d="M269 428L270 429L269 428ZM466 428L467 429L466 428ZM622 428L623 429L622 428ZM340 429L341 430L340 429ZM395 429L396 430L395 429Z" fill="#F9EBB9"/>
<path d="M113 430L114 431L113 430Z" fill="#F08EC7"/>
<path d="M270 430L271 431L270 430ZM465 430L466 431L465 430ZM113 431L114 432L113 431ZM621 431L622 432L621 431ZM271 432L272 433L271 432ZM464 432L465 433L464 432ZM344 433L345 434L344 433ZM391 433L392 434L391 433ZM114 434L115 435L114 434ZM272 434L273 435L272 434ZM463 434L464 435L463 434ZM620 434L621 435L620 434Z" fill="#F9EBB9"/>
<path d="M115 436L116 437L115 436Z" fill="#F08EC7"/>
<path d="M462 436L463 437L462 436ZM619 436L620 437L619 436ZM274 437L275 438L274 437Z" fill="#F9EBB9"/>
<path d="M116 438L117 439L116 438Z" fill="#F08EC7"/>
<path d="M618 438L619 439L618 438ZM275 439L276 440L275 439ZM460 439L461 440L460 439Z" fill="#F9EBB9"/>
<path d="M617 439L618 440L617 439ZM117 440L118 441L117 440Z" fill="#F08EC7"/>
<path d="M459 441L460 442L459 441ZM616 441L617 442L616 441ZM118 442L119 443L118 442ZM277 442L278 443L277 442Z" fill="#F9EBB9"/>
<path d="M615 442L616 443L615 442Z" fill="#F08EC7"/>
<path d="M457 444L458 445L457 444ZM120 445L121 446L120 445ZM279 445L280 446L279 445ZM613 445L614 446L613 445Z" fill="#F9EBB9"/>
<path d="M121 446L122 447L121 446Z" fill="#F08EC7"/>
<path d="M612 446L613 447L612 446ZM611 447L612 448L611 447ZM281 448L282 449L281 448ZM454 448L455 449L454 448ZM610 448L611 449L610 448ZM282 449L283 450L282 449ZM609 449L610 450L609 449ZM124 450L125 451L124 450ZM608 450L609 451L608 450Z" fill="#F9EBB9"/>
<path d="M605 452L606 453L605 452Z" fill="#F08EC7"/>
<path d="M450 453L451 454L450 453ZM604 453L605 454L604 453ZM129 454L130 455L129 454ZM286 454L287 455L286 454ZM449 454L450 455L449 454Z" fill="#F9EBB9"/>
<path d="M602 454L603 455L602 454Z" fill="#F08EC7"/>
<path d="M130 455L131 456L130 455ZM287 455L288 456L287 455Z" fill="#F9EBB9"/>
<path d="M600 455L601 456L600 455ZM132 456L133 457L132 456Z" fill="#F08EC7"/>
<path d="M288 456L289 457L288 456Z" fill="#F9EBB9"/>
<path d="M598 456L599 457L598 456Z" fill="#F08EC7"/>
<path d="M289 457L290 458L289 457ZM596 457L597 458L596 457ZM135 458L136 459L135 458ZM290 458L291 459L290 458Z" fill="#F9EBB9"/>
<path d="M593 458L594 459L593 458Z" fill="#F08EC7"/>
<path d="M137 459L138 460L137 459Z" fill="#F9EBB9"/>
<path d="M589 459L590 460L589 459Z" fill="#F08EC7"/>
<path d="M590 459L591 460L590 459ZM140 460L141 461L140 460ZM292 460L293 461L292 460Z" fill="#F9EBB9"/>
<path d="M568 460V461H572L568 460ZM573 460V461H582L573 460Z" fill="#F08EC7"/>
<path d="M582 460V461H586L582 460ZM143 461L144 462L143 461ZM293 461L294 462L293 461ZM567 461C567.696 468.41 563.468 471.87 560.694 478C559.029 481.681 560.155 487.046 560.028 491.028C559.908 494.788 558.693 501.094 563 502V503C557.755 504.534 558.908 510.671 560 515L554.667 525L536 548L516.286 552.853L486 553V554V568C501.523 566.75 532.784 572.584 543 557L545 558L553 547H554L555 549C564.373 540.083 581.358 513.36 572 500C574.698 498.534 573.849 495.259 573.75 492.389C573.515 485.567 576.583 473.281 572 468L574 461H567Z" fill="#F9EBB9"/>
<path d="M570 461L571 462L570 461Z" fill="#F7F9FC"/>
<path d="M146.667 462.333L147.333 462.667L146.667 462.333Z" fill="#F9EBB9"/>
<path d="M148 462L149 463L148 462Z" fill="#F08EC7"/>
<path d="M294 462L295 463L294 462ZM155 463V464H169L155 463ZM295 463L296 464L295 463ZM441 463V491H442L441 463ZM296 464L297 465L296 464Z" fill="#F9EBB9"/>
<path d="M571 464L572 465L571 464ZM569 466L570 467L569 466ZM571 467L572 468L571 467Z" fill="#F7F9FC"/>
<path d="M301 468L302 469L301 468ZM302 469L303 470L302 469Z" fill="#F9EBB9"/>
<path d="M569 469L570 470L569 469ZM571 470L569 471V472L571 470Z" fill="#F7F9FC"/>
<path d="M305 471L306 472L305 471Z" fill="#F9EBB9"/>
<path d="M566 471L567 472L566 471Z" fill="#F7F9FC"/>
<path d="M308 473L309 474L308 473Z" fill="#F9EBB9"/>
<path d="M569 473L573 475V474L569 473ZM567 474L568 475L567 474Z" fill="#F7F9FC"/>
<path d="M311 475L312 476L311 475Z" fill="#F9EBB9"/>
<path d="M565 475L566 476L565 475Z" fill="#F7F9FC"/>
<path d="M313 476L314 477L313 476ZM316 478L317 479L316 478Z" fill="#F9EBB9"/>
<path d="M561 478L562 479L561 478ZM571 478L572 479L571 478Z" fill="#F7F9FC"/>
<path d="M318 479L319 480L318 479Z" fill="#F9EBB9"/>
<path d="M567 479L566 481L567 479ZM569 479L570 480L569 479Z" fill="#F7F9FC"/>
<path d="M320 480L321 481L320 480Z" fill="#F9EBB9"/>
<path d="M562 480L563 481L562 480Z" fill="#F7F9FC"/>
<path d="M322 481L323 482L322 481ZM413 481L414 482L413 481ZM417 481L418 482L417 481Z" fill="#F9EBB9"/>
<path d="M572 481L573 482L572 481Z" fill="#F7F9FC"/>
<path d="M411 482L412 483L411 482Z" fill="#F9EBB9"/>
<path d="M565 482L566 483L565 482ZM567.333 482.667L567.667 483.333L567.333 482.667Z" fill="#F7F9FC"/>
<path d="M327 483L328 484L327 483ZM422 483L423 484L422 483Z" fill="#F9EBB9"/>
<path d="M569.667 483.333L570.333 483.667L569.667 483.333Z" fill="#F7F9FC"/>
<path d="M406 484L407 485L406 484ZM424 484L425 485L424 484Z" fill="#F9EBB9"/>
<path d="M565 484L566 485L565 484ZM572 484L573 485L572 484Z" fill="#F7F9FC"/>
<path d="M332.667 485.333L333.333 485.667L332.667 485.333ZM403 485L404 486L403 485Z" fill="#F9EBB9"/>
<path d="M567.333 485.667L567.667 486.333L567.333 485.667ZM569 485L571 487L569 485Z" fill="#F7F9FC"/>
<path d="M335 486L336 487L335 486ZM400 486L401 487L400 486ZM429 486L430 487L429 486ZM339 487L340 488L339 487ZM397 487L398 488L397 487ZM431 487L432 488L431 487ZM342.667 488.333L343.333 488.667L342.667 488.333ZM393 488L394 489L393 488Z" fill="#F9EBB9"/>
<path d="M563 488L564 489L563 488ZM565 488L566 489L565 488ZM571 488L572 489L571 488Z" fill="#F7F9FC"/>
<path d="M347 489L348 490L347 489ZM388 489L389 490L388 489ZM436 489L437 490L436 489ZM352.667 490.333L353.333 490.667L352.667 490.333ZM382.667 490.333L383.333 490.667L382.667 490.333Z" fill="#F9EBB9"/>
<path d="M565 490L568 492V491L565 490Z" fill="#F7F9FC"/>
<path d="M362 491V492H373L362 491Z" fill="#F9EBB9"/>
<path d="M563 491L564 492L563 491ZM561 492L562 493L561 492ZM563.667 493.333L564.333 493.667L563.667 493.333ZM566 493L567 494L566 493ZM570 493L571 494L570 493ZM561 494L562 498H563L564 496L561 494ZM567 495L568 496L567 495ZM571 496L572 497L571 496ZM566 498L567 499L566 498ZM569 498L570 499L569 498ZM563 499L564 500L563 499ZM571 499L572 500L571 499ZM569 501L570 502L569 501ZM571 502L569 503V504L571 502ZM566 503L567 504L566 503ZM564 505L565 506L564 505ZM569 505L573 507V506L569 505ZM560 506L561 507L560 506ZM567 506L568 507L567 506ZM565 507L566 508L565 507ZM561 510L562 511L561 510ZM571 510L572 511L571 510ZM567 511L566 513L567 511ZM569 511L570 512L569 511ZM562 512L563 513L562 512ZM565 514L566 515L565 514ZM567.333 514.667L567.667 515.333L567.333 514.667ZM569.667 515.333L570.333 515.667L569.667 515.333ZM559.333 516.667L559.667 517.333L559.333 516.667ZM565 516L566 517L565 516ZM567.333 517.667L567.667 518.333L567.333 517.667ZM569 517L571 519L569 517ZM560 519L561 520L560 519ZM563 520L564 521L563 520ZM565 520L566 521L565 520ZM565 522L568 524V523L565 522ZM559 523L560 524L559 523ZM563 523L564 524L563 523ZM557 524L558 525L557 524ZM561 524L562 525L561 524ZM563.667 525.333L564.333 525.667L563.667 525.333ZM566 525L567 526L566 525ZM555 526L556 527L555 526ZM561 526L562 530H563L564 528L561 526ZM558 527V529L560 527H558ZM567 527L568 528L567 527ZM555 528L556 531H557V528H555ZM553 529L554 530L553 529ZM560 530L561 531L560 530ZM566 530L567 531L566 530ZM563 531L564 532L563 531ZM553 532L554 533L553 532ZM556 532L557 533L556 532ZM558 533L559 534L558 533ZM558 535V536L563 535H558ZM550.667 535.333L551.333 535.667L550.667 535.333ZM555 535L556 536L555 535ZM553 537L554 538L553 537ZM555 537V541H556L555 537Z" fill="#F7F9FC"/>
<path d="M421 538V539H468C455.823 533.891 434.265 538 421 538Z" fill="#F9EBB9"/>
<path d="M546 538L547 539L546 538ZM550 538L551 539L550 538ZM560 538L561 539L560 538Z" fill="#F7F9FC"/>
<path d="M417 539L418 540L417 539Z" fill="#F9EBB9"/>
<path d="M418 539L419 540L418 539Z" fill="#F08EC7"/>
<path d="M419 539.519C400.237 543.589 396.389 568.837 412.001 579.298C417.719 583.129 424.421 583 431 583C443.514 583 458.883 585.393 471 582.072C489.075 577.117 492.747 552.227 476.996 542.133C471.181 538.407 464.603 539 458 539C445.642 539 431.091 536.895 419 539.519Z" fill="#7877CB"/>
<path d="M471 539L472 540L471 539ZM414 540L415 541L414 540Z" fill="#F9EBB9"/>
<path d="M415 540L416 541L415 540Z" fill="#F08EC7"/>
<path d="M474 540L475 541L474 540Z" fill="#F9EBB9"/>
<path d="M546 540L547 541L546 540ZM553 540L554 541L553 540ZM558 540L559 541L558 540Z" fill="#F7F9FC"/>
<path d="M476 541L477 542L476 541ZM411 542L412 543L411 542Z" fill="#F9EBB9"/>
<path d="M477 542L478 543L477 542Z" fill="#F08EC7"/>
<path d="M548 542L549 543L548 542ZM554 542L551 543V544L555 543L554 542ZM544 543L545 544L544 543ZM558 543L559 544L558 543Z" fill="#F7F9FC"/>
<path d="M480 544L481 545L480 544Z" fill="#F9EBB9"/>
<path d="M541 544L540 546L541 544ZM548 544V546H550L548 544ZM555.667 544.333L556.333 544.667L555.667 544.333Z" fill="#F7F9FC"/>
<path d="M481 545L482 546L481 545Z" fill="#F9EBB9"/>
<path d="M552 545L551 547L552 545ZM554 546L555 547L554 546Z" fill="#F7F9FC"/>
<path d="M406 547L407 548L406 547Z" fill="#F08EC7"/>
<path d="M537.667 547.333L538.333 547.667L537.667 547.333ZM542 547L543 548L542 547ZM544 549L547 548L544 549Z" fill="#F7F9FC"/>
<path d="M405 548L406 549L405 548Z" fill="#F9EBB9"/>
<path d="M483 548L484 549L483 548Z" fill="#F08EC7"/>
<path d="M533 548L534 549L533 548ZM540 548L541 549L540 548ZM549.667 548.333L550.333 548.667L549.667 548.333Z" fill="#F7F9FC"/>
<path d="M484 549L485 550L484 549Z" fill="#F9EBB9"/>
<path d="M535.333 549.667L535.667 550.333L535.333 549.667ZM537 549L539 551L537 549ZM546.333 549.667L546.667 550.333L546.333 549.667Z" fill="#F7F9FC"/>
<path d="M404 550L405 551L404 550Z" fill="#F08EC7"/>
<path d="M541 550V551L544 552L541 550ZM548 550L549 551L548 550Z" fill="#F7F9FC"/>
<path d="M485 551L486 552L485 551Z" fill="#F9EBB9"/>
<path d="M528 551L529 552L528 551Z" fill="#F7F9FC"/>
<path d="M403 552L404 553L403 552Z" fill="#F08EC7"/>
<path d="M531 552L532 553L531 552ZM533 552L534 553L533 552ZM539 552L540 553L539 552ZM547.333 552.667L547.667 553.333L547.333 552.667ZM541 553L543 555L541 553Z" fill="#F7F9FC"/>
<path d="M402.333 554.667L402.667 555.333L402.333 554.667Z" fill="#F9EBB9"/>
<path d="M486 554L487 555L486 554Z" fill="#F08EC7"/>
<path d="M487 554L488 555L487 554ZM501 554L504 556V555L501 554ZM510 554L511 555L510 554ZM512 554L513 555L512 554ZM519 554L520 555L519 554ZM533 554L536 556V555L533 554ZM544 554L545 555L544 554ZM495 555L496 556L495 555ZM499 555L500 556L499 555ZM515 555L516 556L515 555ZM527 555L528 556L527 555ZM531 555L532 556L531 555ZM489 556L490 557L489 556ZM493 556L494 557L493 556ZM497 556L498 557L497 556ZM509 556L510 557L509 556ZM513.333 556.667L513.667 557.333L513.333 556.667ZM521 556L522 557L521 556ZM525 556L526 557L525 556ZM529 556L530 557L529 556ZM541 556L542 557L541 556ZM499.667 557.333L500.333 557.667L499.667 557.333ZM502 557L503 558L502 557ZM506 557L507 558L506 557ZM511 557L512 558L511 557ZM516 557L517 558L516 557ZM531.667 557.333L532.333 557.667L531.667 557.333ZM534 557L535 558L534 557ZM538 557L539 558L538 557ZM491 558L492 559L491 558ZM497 558L498 562H499L500 560L497 558ZM523 558L524 559L523 558ZM529 558L530 562H531L532 560L529 558ZM488 559L489 560L488 559ZM494 559V561L496 559H494ZM503 559L504 560L503 559ZM515 559L516 560L515 559ZM518 559L519 560L518 559ZM520 559L521 560L520 559ZM526 559V561L528 559H526ZM535 559L536 560L535 559ZM491 560L492 563H493V560H491ZM507 560L508 561L507 560ZM510.667 560.333L511.333 560.667L510.667 560.333ZM523 560L524 563H525V560H523ZM489 561L490 562L489 561ZM513 561L514 562L513 561ZM517 561L518 562L517 561ZM519 561L520 562L519 561ZM521 561L522 562L521 561ZM496 562L497 563L496 562ZM502 562L503 563L502 562ZM505 562L506 563L505 562ZM509 562L510 563L509 562ZM528 562L529 563L528 562ZM499 563L500 564L499 563ZM507 563L510 565V564L507 563ZM511 563L512 564L511 563ZM514 563L515 564L514 563ZM518 563L519 564L518 563ZM489 564L490 565L489 564ZM492 564L493 565L492 564ZM521 564L522 565L521 564ZM524 564L525 565L524 564Z" fill="#F7F9FC"/>
<path d="M402 565L403 566L402 565Z" fill="#F08EC7"/>
<path d="M494 565L495 566L494 565ZM505 565L506 566L505 565ZM517 565L518 566L517 565Z" fill="#F7F9FC"/>
<path d="M402 566L403 567L402 566Z" fill="#F9EBB9"/>
<path d="M496 566V567H499L496 566ZM507 566L508 567L507 566ZM514 566L515 567L514 566Z" fill="#F7F9FC"/>
<path d="M403 569L404 570L403 569Z" fill="#F9EBB9"/>
<path d="M485 569L486 570L485 569Z" fill="#F08EC7"/>
<path d="M404 571L405 572L404 571Z" fill="#F9EBB9"/>
<path d="M484 571L485 572L484 571Z" fill="#F08EC7"/>
<path d="M483 573L484 574L483 573ZM406 574L407 575L406 574Z" fill="#F9EBB9"/>
<path d="M482 574L483 575L482 574ZM407 575L408 576L407 575ZM408 576L409 577L408 576ZM409 577L410 578L409 577Z" fill="#F08EC7"/>
<path d="M410 578L411 579L410 578Z" fill="#F9EBB9"/>
<path d="M478 578L479 579L478 578Z" fill="#F08EC7"/>
<path d="M477 579L478 580L477 579ZM413 580L414 581L413 580ZM475 580L476 581L475 580ZM415 581L416 582L415 581Z" fill="#F9EBB9"/>
<path d="M416 581L417 582L416 581Z" fill="#F08EC7"/>
<path d="M473 581L474 582L473 581ZM418 582L419 583L418 582Z" fill="#F9EBB9"/>
<path d="M419 582L420 583L419 582ZM469 582L470 583L469 582Z" fill="#F08EC7"/>
<path d="M470 582L471 583L470 582Z" fill="#F9EBB9"/>
</svg>
