<svg width="20" height="20" viewBox="0 0 20 20" fill="none" xmlns="http://www.w3.org/2000/svg">
<path fill-rule="evenodd" clip-rule="evenodd" d="M3.25977 1.12965C3.25977 1.443 3.26697 1.61965 3.27977 1.61965C3.29257 1.61965 3.29977 1.443 3.29977 1.12965C3.29977 0.816298 3.29257 0.639648 3.27977 0.639648C3.26697 0.639648 3.25977 0.816298 3.25977 1.12965ZM3.25977 5.13964C3.25977 6.60629 3.26657 7.35964 3.27977 7.35964C3.29297 7.35964 3.29977 6.60629 3.29977 5.13964C3.29977 3.673 3.29297 2.91965 3.27977 2.91965C3.26657 2.91965 3.25977 3.673 3.25977 5.13964ZM5.87977 18.241C5.87977 18.2512 5.83927 18.2596 5.78977 18.2596C5.74027 18.2596 5.69977 18.2686 5.69977 18.2796C5.69977 18.2906 5.67277 18.2996 5.63977 18.2996C5.60677 18.2996 5.57977 18.3086 5.57977 18.3196C5.57977 18.3306 5.56177 18.3396 5.53977 18.3396C5.51777 18.3396 5.49977 18.3486 5.49977 18.3596C5.49977 18.3706 5.48587 18.3796 5.46887 18.3796C5.45187 18.3796 5.41527 18.4023 5.38757 18.43C5.35987 18.4577 5.32737 18.4743 5.31537 18.4669C5.30232 18.4589 5.29932 18.4627 5.30787 18.4765C5.31572 18.4892 5.31402 18.4996 5.30412 18.4996C5.27432 18.4996 5.09977 18.6735 5.09977 18.7032C5.09977 18.7184 5.08177 18.7438 5.05977 18.7596C5.03777 18.7755 5.01977 18.805 5.01977 18.8252C5.01977 18.8454 5.01077 18.8564 4.99977 18.8496C4.98877 18.8428 4.97977 18.851 4.97977 18.8678C4.97977 18.8847 4.96177 18.9305 4.93977 18.9696C4.91777 19.0088 4.89977 19.0625 4.89977 19.0891C4.89977 19.1156 4.89077 19.1428 4.87977 19.1496C4.86827 19.1567 4.85977 19.2628 4.85977 19.3996C4.85977 19.5365 4.86827 19.6425 4.87977 19.6496C4.89077 19.6564 4.89977 19.6761 4.89977 19.6935C4.89977 19.7108 4.91917 19.7417 4.94282 19.7623C4.96652 19.7828 4.97862 19.7996 4.96977 19.7996C4.96087 19.7996 4.98607 19.8311 5.02572 19.8696C5.06537 19.9081 5.10647 19.9396 5.11712 19.9396C5.12772 19.9396 5.14017 19.9509 5.14477 19.9646C5.15702 20.0014 14.8425 20.0014 14.8548 19.9646C14.8594 19.9509 14.8769 19.9396 14.8937 19.9396C14.9298 19.9396 15.0598 19.8035 15.0598 19.7657C15.0598 19.7514 15.0688 19.7396 15.0798 19.7396C15.0908 19.7396 15.0998 19.7216 15.0998 19.6996C15.0998 19.6776 15.1078 19.6596 15.1177 19.6596C15.1436 19.6596 15.1465 19.1461 15.1206 19.1302C15.1092 19.1231 15.0998 19.0908 15.0998 19.0584C15.0998 19.0261 15.0908 18.9996 15.0798 18.9996C15.0688 18.9996 15.0598 18.9816 15.0598 18.9596C15.0598 18.9376 15.0508 18.9196 15.0398 18.9196C15.0288 18.9196 15.0198 18.9016 15.0198 18.8796C15.0198 18.8576 15.0108 18.8396 14.9998 18.8396C14.9888 18.8396 14.9798 18.8262 14.9798 18.8098C14.9798 18.7934 14.9618 18.7687 14.9398 18.755C14.9178 18.7412 14.8998 18.7179 14.8998 18.7031C14.8998 18.6737 14.6857 18.4596 14.6563 18.4596C14.6463 18.4596 14.6207 18.4434 14.5994 18.4236C14.5443 18.3723 14.4028 18.2996 14.3579 18.2996C14.3369 18.2996 14.3198 18.2906 14.3198 18.2796C14.3198 18.2686 14.2748 18.2596 14.2198 18.2596C14.1648 18.2596 14.1198 18.2513 14.1198 18.241C14.1198 18.2102 13.2418 18.2131 13.2045 18.244C13.1526 18.2871 6.80367 18.2931 6.78717 18.25C6.77317 18.2136 5.87977 18.2047 5.87977 18.241Z" fill="#D37A49"/>
<path fill-rule="evenodd" clip-rule="evenodd" d="M3.20071 1.6206C3.17814 1.62897 3.10241 1.63784 3.03232 1.6403C2.96223 1.64276 2.8956 1.65193 2.88424 1.66071C2.87284 1.66948 2.82106 1.67885 2.76919 1.68156C2.71726 1.68427 2.67479 1.69279 2.67479 1.70056C2.67479 1.7139 2.64988 1.72002 2.46968 1.75075C2.42841 1.75782 2.39465 1.77161 2.39465 1.78143C2.39465 1.79126 2.36838 1.79928 2.33627 1.79928C2.3042 1.79928 2.27493 1.80806 2.27123 1.81873C2.26758 1.82946 2.24457 1.84125 2.22006 1.84496C2.19559 1.84867 2.16933 1.85799 2.16173 1.86561C2.15407 1.87323 2.13361 1.8797 2.11615 1.87995C2.09874 1.8802 2.06198 1.89805 2.03446 1.91961C2.00695 1.94117 1.97038 1.95902 1.95317 1.95927C1.93601 1.95952 1.90224 1.97812 1.87813 2.00063C1.85407 2.02309 1.83436 2.03613 1.83436 2.02956C1.83436 2.01733 1.71235 2.08045 1.69429 2.10201C1.68879 2.10862 1.65952 2.12006 1.62926 2.12748C1.59899 2.1349 1.57423 2.1532 1.57423 2.16819C1.57423 2.18313 1.54947 2.20062 1.5192 2.20704C1.48893 2.21351 1.42815 2.25482 1.38413 2.29884C1.34011 2.34286 1.29383 2.37936 1.28133 2.37986C1.25572 2.38097 0.816642 2.81429 0.780674 2.87391C0.767967 2.89501 0.747707 2.91005 0.735651 2.9073C0.723645 2.90454 0.71379 2.91432 0.71379 2.92901C0.71379 2.94375 0.687026 2.9821 0.654309 3.01424C0.621593 3.04643 0.594579 3.08403 0.594279 3.09782C0.593979 3.1116 0.584724 3.12288 0.573718 3.12288C0.562713 3.12288 0.553708 3.14148 0.553708 3.1642C0.553708 3.18691 0.545654 3.20049 0.535849 3.19438C0.51874 3.1838 0.483022 3.2755 0.490876 3.30989C0.492977 3.31897 0.485423 3.32067 0.474168 3.3137C0.462862 3.30673 0.453657 3.31506 0.453657 3.33225C0.453657 3.34945 0.444653 3.36354 0.433647 3.36354C0.422641 3.36354 0.413637 3.38159 0.413637 3.40365C0.413637 3.42571 0.404632 3.44376 0.393627 3.44376C0.382621 3.44376 0.373616 3.4577 0.373616 3.47469C0.373616 3.49169 0.355607 3.52498 0.333596 3.54864C0.311585 3.57231 0.293576 3.61257 0.293576 3.63804C0.293576 3.66355 0.284571 3.68441 0.273565 3.68441C0.26256 3.68441 0.253555 3.70246 0.253555 3.72452C0.253555 3.74658 0.244551 3.76463 0.233545 3.76463C0.22254 3.76463 0.213535 3.79226 0.213535 3.826C0.213535 3.86174 0.205181 3.88215 0.193525 3.87493C0.176516 3.8644 0.163309 3.9205 0.171163 3.97019C0.172464 3.97846 0.16451 3.98523 0.153504 3.98523C0.142499 3.98523 0.133494 4.00724 0.133494 4.03416C0.133494 4.06109 0.12449 4.08871 0.113484 4.09553C0.102478 4.10235 0.0934738 4.13394 0.0934738 4.16572C0.0934738 4.19751 0.0844692 4.22909 0.0734636 4.23591C0.062458 4.24273 0.0534534 4.27758 0.0534534 4.31332C0.0534534 4.34907 0.0421977 4.38958 0.0284407 4.40337C-0.0153316 4.44724 -0.00592685 5.84705 0.0385458 5.90485C0.0489011 5.91829 0.0608071 5.95439 0.0650093 5.98507C0.08612 6.13879 0.0994268 6.18993 0.115635 6.17985C0.12549 6.17379 0.133494 6.19088 0.133494 6.21786C0.133494 6.24483 0.146551 6.29206 0.162509 6.32289C0.178417 6.35368 0.186921 6.38631 0.181318 6.39534C0.175716 6.40441 0.180668 6.41183 0.192324 6.41183C0.20398 6.41183 0.213535 6.42913 0.213535 6.45029C0.213535 6.4714 0.222439 6.4917 0.233395 6.49541C0.244301 6.49907 0.255256 6.5269 0.257757 6.55723C0.260259 6.58756 0.269313 6.61238 0.277918 6.61238C0.286522 6.61238 0.293576 6.63043 0.293576 6.65249C0.293576 6.67455 0.30258 6.6926 0.313586 6.6926C0.324591 6.6926 0.333796 6.70388 0.334046 6.71767C0.334296 6.73145 0.352105 6.7653 0.373616 6.79287C0.395127 6.82045 0.412936 6.8588 0.413187 6.8781C0.413437 6.89741 0.422641 6.9132 0.433647 6.9132C0.444653 6.9132 0.453657 6.92503 0.453657 6.93952C0.453657 6.95396 0.473918 6.9876 0.49868 7.01422C0.523443 7.0409 0.541702 7.06506 0.539251 7.06792C0.528946 7.08015 0.564764 7.14678 0.602783 7.18614C0.625295 7.20945 0.657261 7.24861 0.673769 7.27313C0.71409 7.33304 0.826797 7.46555 0.920145 7.56292C0.962116 7.60664 1.01809 7.66815 1.04446 7.69959C1.07087 7.73102 1.09508 7.75479 1.09824 7.75238C1.10949 7.74381 1.2237 7.82653 1.27568 7.88083C1.30469 7.91116 1.33471 7.93598 1.34236 7.93598C1.35001 7.93598 1.38508 7.96301 1.42025 7.99605C1.45542 8.02909 1.49779 8.05616 1.5144 8.05621C1.53101 8.05626 1.55582 8.07436 1.56958 8.09642C1.58333 8.11848 1.60799 8.13653 1.6244 8.13653C1.64086 8.13653 1.65427 8.14555 1.65427 8.15658C1.65427 8.16761 1.66778 8.17664 1.68428 8.17664C1.70079 8.17664 1.7143 8.18566 1.7143 8.19669C1.7143 8.20772 1.73831 8.21675 1.76768 8.21675C1.79699 8.21675 1.8152 8.22256 1.80815 8.22968C1.79159 8.24628 2.05017 8.37718 2.09955 8.37718C2.12006 8.37718 2.13231 8.3846 2.12671 8.39368C2.12111 8.4028 2.16333 8.422 2.22056 8.43639C2.27779 8.45078 2.33361 8.46853 2.34462 8.47585C2.39605 8.50999 2.62026 8.56735 2.73102 8.57467C2.75643 8.57637 2.77294 8.58465 2.76769 8.59312C2.76248 8.60164 2.80831 8.61002 2.86954 8.61182C2.93077 8.61363 2.9863 8.62245 2.9929 8.63147C2.99955 8.64055 3.08415 8.65093 3.18095 8.65464L3.35699 8.66136L3.34423 8.55436C3.33723 8.4955 3.32337 8.39323 3.31346 8.32705C3.30351 8.26087 3.29535 8.01615 3.29525 7.78317L3.2951 7.35966L3.19765 7.35746C3.09185 7.35505 2.93557 7.31875 2.77484 7.25924C2.75833 7.25312 2.72751 7.24475 2.70635 7.24069C2.68524 7.23663 2.65738 7.2245 2.64452 7.21382C2.63162 7.20309 2.61466 7.20073 2.6068 7.2086C2.599 7.21647 2.58539 7.21126 2.57664 7.19707C2.56788 7.18288 2.54812 7.16824 2.53272 7.16463C2.45292 7.14573 2.41621 7.12743 2.42606 7.11149C2.43211 7.10171 2.41851 7.09369 2.39585 7.09369C2.37318 7.09369 2.35462 7.08467 2.35462 7.07364C2.35462 7.06261 2.33862 7.05358 2.31901 7.05358C2.29945 7.05358 2.27043 7.03553 2.25457 7.01347C2.23872 6.99141 2.2133 6.97336 2.19815 6.97336C2.18299 6.97336 2.14537 6.94629 2.1145 6.9132C2.08364 6.88011 2.05267 6.85303 2.04567 6.85303C2.03361 6.85303 1.91055 6.72985 1.78934 6.59634C1.75907 6.56305 1.73431 6.52539 1.73431 6.51271C1.73431 6.50007 1.72666 6.49441 1.7173 6.50022C1.70795 6.50599 1.68844 6.48849 1.67393 6.46127C1.65937 6.43409 1.64001 6.41183 1.63086 6.41183C1.62175 6.41183 1.61425 6.3983 1.61425 6.38175C1.61425 6.36521 1.60524 6.35167 1.59424 6.35167C1.58323 6.35167 1.57423 6.33984 1.57423 6.32535C1.57423 6.31091 1.55612 6.27962 1.53406 6.25586C1.51195 6.23205 1.49199 6.19018 1.48973 6.16276C1.48748 6.13533 1.48138 6.11718 1.47618 6.12235C1.45982 6.13874 1.37648 5.94306 1.37528 5.8854C1.37463 5.85507 1.36512 5.83025 1.35412 5.83025C1.34311 5.83025 1.33411 5.80263 1.33411 5.76888C1.33411 5.73314 1.32575 5.71273 1.3141 5.71995C1.29769 5.73013 1.28733 5.66039 1.29579 5.59687C1.29674 5.5898 1.28823 5.57832 1.27698 5.57135C1.26567 5.56433 1.25457 5.48887 1.25231 5.40364C1.25006 5.31841 1.23971 5.24867 1.2293 5.24867C1.2181 5.24867 1.2155 5.20134 1.22285 5.13336C1.22975 5.06993 1.24031 4.95261 1.24631 4.87265C1.25231 4.79268 1.26327 4.72725 1.27067 4.7272C1.27803 4.7272 1.28648 4.69366 1.28943 4.6527C1.29233 4.61169 1.30359 4.56932 1.31445 4.55844C1.32525 4.54761 1.33411 4.51903 1.33411 4.49492C1.33411 4.4708 1.34716 4.42588 1.36312 4.39505C1.37903 4.36426 1.38753 4.33162 1.38193 4.3226C1.37633 4.31352 1.38128 4.3061 1.39294 4.3061C1.40459 4.3061 1.41415 4.28299 1.41415 4.25476C1.41415 4.22568 1.4228 4.20884 1.43416 4.21586C1.44516 4.22268 1.45417 4.20969 1.45417 4.18698C1.45417 4.16427 1.46317 4.14567 1.47418 4.14567C1.48518 4.14567 1.49419 4.12762 1.49419 4.10556C1.49419 4.0835 1.50214 4.06545 1.51185 4.06545C1.5216 4.06545 1.53456 4.04966 1.54066 4.03035C1.55942 3.97104 1.6214 3.87844 1.68138 3.82018C1.71285 3.7896 1.72891 3.76463 1.71715 3.76463C1.70539 3.76463 1.77873 3.67985 1.88013 3.57627C1.98154 3.47269 2.06818 3.39141 2.07268 3.39568C2.07718 3.39994 2.09349 3.3854 2.10885 3.36339C2.12421 3.34143 2.14777 3.32343 2.16123 3.32343C2.17468 3.32343 2.1987 3.30538 2.21455 3.28332C2.23041 3.26126 2.25943 3.24321 2.27899 3.24321C2.2986 3.24321 2.3146 3.23419 2.3146 3.22316C2.3146 3.21213 2.33261 3.2031 2.35462 3.2031C2.37664 3.2031 2.39465 3.19608 2.39465 3.18746C2.39465 3.17051 2.65458 3.04267 2.6891 3.04267C2.7007 3.04267 2.73537 3.02958 2.76613 3.01359C2.79685 2.99764 2.82942 2.98912 2.83842 2.99474C2.84748 3.00035 2.85488 2.99539 2.85488 2.98371C2.85488 2.97202 2.88189 2.96245 2.91491 2.96245C2.94793 2.96245 2.97494 2.95342 2.97494 2.94239C2.97494 2.93126 3.02832 2.92234 3.095 2.92234C3.16169 2.92234 3.21506 2.91341 3.21506 2.90228C3.21506 2.89125 3.23327 2.88223 3.25558 2.88223C3.29545 2.88223 3.29605 2.87195 3.29455 2.24384C3.29295 1.56765 3.2956 1.58545 3.20071 1.6206ZM15.775 1.61804C15.7939 1.62566 16.7343 1.62927 16.7117 1.65193C16.6867 1.67705 14.9 1.39353 14.9 1.8795C14.9 2.50079 14.8408 2.86553 14.9 2.84999C14.9213 2.84443 16.782 2.88764 16.782 2.89993C16.782 2.91397 16.827 2.92234 16.902 2.92234C16.9687 2.92234 17.0221 2.93126 17.0221 2.94239C17.0221 2.95342 17.0491 2.96245 17.0821 2.96245C17.1151 2.96245 17.1422 2.96957 17.1422 2.97824C17.1422 2.99218 17.1738 3.00015 17.2572 3.00712C17.271 3.00827 17.2822 3.01675 17.2822 3.02597C17.2822 3.03515 17.2955 3.04267 17.3116 3.04267C17.3278 3.04267 17.3731 3.06071 17.4123 3.08277C17.4515 3.10483 17.4968 3.12288 17.5129 3.12288C17.5291 3.12288 17.5424 3.1302 17.5424 3.13918C17.5424 3.14815 17.5739 3.16791 17.6124 3.18305C17.6509 3.19819 17.6824 3.21794 17.6824 3.22692C17.6824 3.23589 17.6963 3.24321 17.7133 3.24321C17.7304 3.24321 17.7653 3.26352 17.7909 3.28833C17.857 3.35231 17.921 3.40365 17.9348 3.40365C17.9412 3.40365 17.9726 3.43167 18.0046 3.46592C18.0365 3.50021 18.0626 3.52152 18.0626 3.51335C18.0626 3.50517 18.0829 3.52453 18.1076 3.55626C18.1324 3.58805 18.1815 3.6449 18.2169 3.68261C18.2522 3.72031 18.2764 3.75866 18.2707 3.76789C18.265 3.77711 18.2759 3.78468 18.2949 3.78468C18.3139 3.78468 18.3236 3.79055 18.3164 3.79772C18.3092 3.80494 18.3166 3.82073 18.3327 3.83282C18.3712 3.86174 18.5028 4.08245 18.5028 4.11799C18.5028 4.13323 18.5119 4.14567 18.5229 4.14567C18.5339 4.14567 18.5429 4.16372 18.5429 4.18578C18.5429 4.20784 18.5519 4.22589 18.5629 4.22589C18.5739 4.22589 18.5829 4.24393 18.5829 4.26599C18.5829 4.28805 18.5919 4.3061 18.6029 4.3061C18.6139 4.3061 18.6229 4.32811 18.6229 4.35504C18.6229 4.38196 18.6319 4.40959 18.6429 4.4164C18.6539 4.42322 18.6629 4.45356 18.6629 4.48379C18.6629 4.51402 18.6715 4.54731 18.682 4.55784C18.6924 4.56832 18.7032 4.61018 18.706 4.65079C18.7087 4.6914 18.7182 4.72018 18.727 4.71477C18.7358 4.7093 18.743 4.76851 18.743 4.84637C18.743 4.92424 18.7512 4.98796 18.7613 4.98796C18.7714 4.98796 18.7765 5.04888 18.7727 5.12333C18.7591 5.39076 18.7383 5.56954 18.7208 5.56954C18.711 5.56954 18.7029 5.60619 18.7029 5.65096C18.7029 5.7001 18.695 5.72742 18.6829 5.71995C18.6708 5.71243 18.6628 5.74156 18.6626 5.79395C18.6624 5.85717 18.6571 5.87232 18.6429 5.85031C18.6282 5.82749 18.6235 5.83597 18.6232 5.8854C18.6231 5.92125 18.613 5.95058 18.6007 5.95058C18.5886 5.95058 18.5839 5.96447 18.5904 5.98141C18.5971 5.99896 18.5894 6.01716 18.5725 6.02368C18.5558 6.03015 18.5429 6.06033 18.5429 6.09312C18.5429 6.125 18.5339 6.15112 18.5229 6.15112C18.5119 6.15112 18.5028 6.16717 18.5028 6.18682C18.5028 6.20643 18.4848 6.2355 18.4628 6.2514C18.4408 6.26729 18.4228 6.29667 18.4228 6.31663C18.4228 6.33658 18.4093 6.35814 18.3927 6.36451C18.3761 6.37087 18.3481 6.40662 18.3305 6.44392C18.3128 6.48122 18.2903 6.50679 18.2805 6.50073C18.2707 6.49466 18.2627 6.50163 18.2627 6.51627C18.2627 6.54429 17.9831 6.85303 17.9577 6.85303C17.9496 6.85303 17.9181 6.878 17.8877 6.90859C17.8574 6.93912 17.8077 6.97672 17.7775 6.99216C17.7472 7.00761 17.7225 7.02776 17.7225 7.03694C17.7225 7.04606 17.7044 7.05358 17.6824 7.05358C17.6604 7.05358 17.6424 7.06261 17.6424 7.07364C17.6424 7.08467 17.6252 7.09369 17.604 7.09369C17.583 7.09369 17.5625 7.10322 17.5587 7.11485C17.5548 7.12648 17.5383 7.13831 17.522 7.14112C17.4582 7.1522 17.4023 7.17752 17.4023 7.19532C17.4023 7.20559 17.3955 7.21211 17.3873 7.20976C17.379 7.2074 17.352 7.21677 17.3272 7.23051C17.3025 7.2443 17.2822 7.25037 17.2822 7.2441C17.2822 7.23783 17.2656 7.24159 17.2452 7.25252C17.1759 7.28972 15.4124 7.25252 15.325 7.25252C15.1967 7.25252 15.1136 7.45051 15.1135 7.97609C15.1134 8.22096 14.213 8.79833 15.55 8.61548C15.5187 8.8072 16.6356 8.66436 16.8355 8.65028C16.9288 8.64376 17.0117 8.63428 17.0198 8.62927C17.0279 8.62426 17.0808 8.61804 17.1374 8.61548C17.1939 8.61287 17.2356 8.60335 17.23 8.59422C17.2244 8.58515 17.2406 8.57657 17.266 8.57517C17.2914 8.57377 17.3303 8.56901 17.3523 8.56464C17.3743 8.56028 17.4305 8.55146 17.4772 8.54504C17.5239 8.53867 17.5572 8.52534 17.5511 8.51546C17.545 8.50558 17.5557 8.49751 17.5748 8.49751C17.6447 8.49751 17.7843 8.44356 18.0626 8.30895C18.2421 8.22216 18.3304 8.17197 18.3394 8.15157C18.3431 8.1433 18.3589 8.13653 18.3744 8.13653C18.39 8.13653 18.4028 8.1275 18.4028 8.11647C18.4028 8.10544 18.4188 8.09642 18.4384 8.09642C18.458 8.09642 18.487 8.07837 18.5028 8.05631C18.5187 8.03425 18.5432 8.0162 18.5573 8.0162C18.5714 8.0162 18.5829 8.00718 18.5829 7.99615C18.5829 7.98512 18.5907 7.97609 18.6004 7.97609C18.61 7.97609 18.6519 7.94486 18.6935 7.90665C18.7352 7.86845 18.7761 7.84147 18.7846 7.84679C18.7931 7.85205 18.8059 7.83817 18.8129 7.81596C18.82 7.79375 18.8386 7.77555 18.8544 7.77555C18.8701 7.77555 18.883 7.76597 18.883 7.75429C18.883 7.74261 18.8907 7.73779 18.9001 7.74361C18.9094 7.74937 18.9288 7.73203 18.9433 7.705C18.9577 7.67798 18.986 7.6506 19.0063 7.64419C19.0266 7.63772 19.0432 7.62178 19.0432 7.60874C19.0432 7.59571 19.0702 7.56698 19.1032 7.54492C19.1361 7.52286 19.1631 7.49488 19.1631 7.4827C19.1631 7.47057 19.1902 7.43231 19.2232 7.39767C19.2562 7.36302 19.2832 7.33013 19.2832 7.32452C19.2832 7.31479 19.2959 7.2995 19.397 7.18664C19.4211 7.15982 19.4346 7.13169 19.4271 7.12417C19.4195 7.11665 19.4308 7.09765 19.4522 7.08201C19.4735 7.06637 19.4825 7.05343 19.4721 7.05328C19.4615 7.05308 19.462 7.04661 19.4734 7.03824C19.5056 7.01457 19.6234 6.81303 19.6234 6.78149C19.6234 6.7657 19.6324 6.75276 19.6434 6.75276C19.6544 6.75276 19.6634 6.73416 19.6634 6.71145C19.6634 6.68874 19.6724 6.67575 19.6834 6.68257C19.6948 6.68959 19.7035 6.67274 19.7035 6.64367C19.7035 6.61544 19.7125 6.59233 19.7235 6.59233C19.7345 6.59233 19.7435 6.57879 19.7435 6.56224C19.7435 6.5457 19.7505 6.53216 19.7591 6.53216C19.7677 6.53216 19.7768 6.50734 19.7793 6.47701C19.7818 6.44668 19.7928 6.41885 19.8037 6.41519C19.8146 6.41148 19.8235 6.38722 19.8235 6.3612C19.8235 6.33523 19.8325 6.30835 19.8435 6.30153C19.8545 6.29472 19.8635 6.26764 19.8635 6.24137C19.8635 6.2151 19.8725 6.18803 19.8836 6.18121C19.8946 6.17439 19.9036 6.14827 19.9036 6.1232C19.9036 6.09813 19.91 6.07116 19.9179 6.06324C19.9257 6.05536 19.9333 6.02809 19.9346 6.00262C19.936 5.97715 19.9447 5.93925 19.9539 5.91834C19.9836 5.85146 19.9863 5.80985 19.9968 5.24867C20.0037 4.88152 19.9995 4.65024 19.9843 4.55679C19.9716 4.47958 19.9564 4.38031 19.9504 4.33619C19.9444 4.29207 19.9314 4.24739 19.9215 4.23692C19.9117 4.22644 19.9036 4.19315 19.9036 4.16291C19.9036 4.13268 19.8946 4.10235 19.8836 4.09553C19.8725 4.08871 19.8635 4.06109 19.8635 4.03416C19.8635 4.00724 19.8545 3.98523 19.8435 3.98523C19.8325 3.98523 19.8257 3.97846 19.8285 3.97019C19.8342 3.95254 19.7802 3.77932 19.7643 3.76463C19.7394 3.74157 19.7034 3.66235 19.703 3.62951C19.7028 3.61006 19.685 3.5716 19.6634 3.54403C19.6419 3.51645 19.6241 3.48261 19.6239 3.46883C19.6236 3.45504 19.6144 3.44376 19.6034 3.44376C19.5924 3.44376 19.5834 3.42571 19.5834 3.40365C19.5834 3.38159 19.5764 3.36354 19.5679 3.36354C19.5593 3.36354 19.5346 3.32303 19.5129 3.27349C19.4911 3.22396 19.4666 3.18335 19.4583 3.18325C19.4501 3.18315 19.4433 3.16951 19.4433 3.15297C19.4433 3.13642 19.4291 3.12288 19.4117 3.12288C19.3942 3.12288 19.3835 3.11225 19.3878 3.09927C19.3922 3.08628 19.3658 3.04482 19.3294 3.00722C19.2929 2.96957 19.2681 2.93056 19.2743 2.92053C19.2805 2.91051 19.2726 2.90228 19.2567 2.90228C19.2408 2.90228 19.2124 2.87877 19.1936 2.84999C19.1564 2.79299 18.8695 2.50164 18.7712 2.42097C18.6597 2.32947 18.5777 2.27051 18.5698 2.27603C18.5655 2.27904 18.5391 2.25858 18.5111 2.23051C18.4831 2.20248 18.4518 2.18478 18.4415 2.19115C18.4312 2.19752 18.4228 2.18929 18.4228 2.17285C18.4228 2.14512 18.3522 2.10707 18.3178 2.11619C18.3095 2.11835 18.3027 2.11113 18.3027 2.1001C18.3027 2.08907 18.29 2.08005 18.2744 2.08005C18.2588 2.08005 18.2431 2.07182 18.2394 2.06185C18.2357 2.05182 18.2147 2.04054 18.1927 2.03678C18.1707 2.03297 18.1408 2.01863 18.1263 2.00489C18.1117 1.9911 18.076 1.97386 18.0469 1.96654C18.0178 1.95917 17.9762 1.93661 17.9545 1.91635C17.9328 1.8961 17.8992 1.8795 17.8799 1.8795C17.8607 1.8795 17.8393 1.87048 17.8325 1.85945C17.8257 1.84842 17.7981 1.83939 17.7713 1.83939C17.7444 1.83939 17.7225 1.83037 17.7225 1.81934C17.7225 1.80831 17.7022 1.79913 17.6774 1.79898C17.6286 1.79863 17.4916 1.75506 17.4694 1.7328C17.4618 1.72523 17.4216 1.71906 17.3801 1.71906C17.3386 1.71906 17.299 1.71004 17.2922 1.69901C17.2854 1.68798 17.2444 1.67895 17.201 1.67895C17.1576 1.67895 17.1221 1.67118 17.1221 1.66171C17.1221 1.65223 17.0588 1.64286 16.9814 1.6409C16.904 1.63895 15.1414 1.67234 15.1135 1.66171C15.0613 1.64185 15.7267 1.59844 15.775 1.61804ZM8.65088 4.18818C8.43422 4.26163 8.17949 4.47722 8.07914 4.6721C8.06353 4.70243 8.04327 4.72725 8.03412 4.72725C8.02501 4.72725 8.01751 4.74003 8.01751 4.75568C8.01751 4.77127 8.01025 4.78706 8.00135 4.79077C7.99245 4.79443 7.95458 4.84236 7.91721 4.89726C7.67829 5.24817 7.35487 5.43738 7.11285 5.36779C7.07678 5.35741 7.0095 5.34894 6.96327 5.34894C6.9171 5.34894 6.87373 5.33992 6.86692 5.32889C6.86012 5.31786 6.83696 5.30883 6.81545 5.30883C6.77047 5.30883 6.77833 5.31229 6.48263 5.16203C6.25166 5.04471 6.20183 5.03083 6.16056 5.07219C6.13145 5.10137 6.12735 5.50617 6.15521 5.59822C6.16547 5.63206 6.18458 5.7004 6.19763 5.75003C6.21959 5.83351 6.37107 6.16837 6.39718 6.19123C6.40349 6.19675 6.43025 6.23285 6.45666 6.27145C6.54991 6.40762 6.74826 6.59614 6.90674 6.69922C7.05977 6.79884 7.10805 6.82496 7.23211 6.87545C7.26237 6.88773 7.30279 6.90578 7.3219 6.91556C7.34101 6.92528 7.37748 6.93325 7.40295 6.93325C7.42841 6.93325 7.45777 6.94138 7.46823 6.95125C7.52106 7.00129 8.34272 7.02054 8.55778 6.97677C8.61831 6.96444 8.70171 6.94865 8.74308 6.94163C8.78445 6.93456 8.82322 6.92077 8.82927 6.91099C8.83533 6.90117 8.85789 6.89314 8.8794 6.89314C8.90091 6.89314 8.93413 6.88517 8.95324 6.87545C8.97235 6.86567 9.01502 6.84561 9.04803 6.83082C9.26344 6.73441 9.6765 6.35779 9.678 6.25641C9.6782 6.24262 9.68736 6.23134 9.69837 6.23134C9.70937 6.23134 9.71837 6.21871 9.71837 6.20327C9.71837 6.18782 9.75079 6.1427 9.79041 6.10299C9.92723 5.96587 10.2785 6.04017 10.2787 6.20627C10.2787 6.22006 10.2877 6.23134 10.2987 6.23134C10.3097 6.23134 10.3188 6.24262 10.319 6.25641C10.3209 6.38366 10.7835 6.77457 11.0491 6.87329C11.0711 6.88146 11.1142 6.89831 11.1451 6.91069C11.1758 6.92313 11.2226 6.93325 11.2489 6.93325C11.2753 6.93325 11.3017 6.94123 11.3077 6.951C11.3244 6.97808 11.5262 7.01247 11.8645 7.04601C12.4844 7.10743 13.2103 6.77437 13.5673 6.26478C13.7988 5.93423 13.9329 5.46275 13.8771 5.17502C13.8389 4.97768 13.8357 4.97748 13.5002 5.1513C13.3847 5.21112 13.2497 5.27208 13.2001 5.28677C13.1506 5.30146 13.084 5.32147 13.0521 5.33124C12.673 5.44701 12.3472 5.29429 12.0589 4.86573C12.0114 4.79508 11.9668 4.73276 11.9597 4.72725C11.9527 4.72174 11.9181 4.67491 11.883 4.62317C11.6081 4.21816 11.245 4.07593 10.7389 4.17505C10.4741 4.22694 10.3629 4.27402 10.1868 4.40868C10.0452 4.51693 9.95184 4.51693 9.81027 4.40868C9.70072 4.32485 9.56625 4.25156 9.4688 4.22253C9.1869 4.1385 8.84043 4.12396 8.65088 4.18818ZM7.52841 17.0627C7.53456 17.0727 7.51685 17.0809 7.48904 17.0809C7.43151 17.0809 7.29959 17.1481 7.26212 17.1966C7.24837 17.2144 7.23711 17.2213 7.23711 17.2121C7.23711 17.1793 7.14381 17.2969 7.1168 17.3638C7.10169 17.4012 7.08413 17.4363 7.07778 17.4418C7.05587 17.4608 7.017 17.5641 7.017 17.6032C7.017 17.6247 7.008 17.6424 6.99699 17.6424C6.98598 17.6424 6.97698 17.67 6.97698 17.7038C6.97698 17.7395 6.96862 17.7599 6.95697 17.7527C6.94531 17.7455 6.93696 17.7659 6.93696 17.8016C6.93696 17.8354 6.92795 17.863 6.91695 17.863C6.90594 17.863 6.89694 17.8805 6.89694 17.9019C6.89694 17.9233 6.88793 17.9464 6.87693 17.9532C6.86592 17.9601 6.85692 17.9871 6.85692 18.0134C6.85692 18.0397 6.84791 18.0667 6.83691 18.0736C6.8259 18.0804 6.8169 18.108 6.8169 18.1349C6.8169 18.1619 6.80729 18.1839 6.79554 18.1839C6.78383 18.1839 6.77708 18.2087 6.78053 18.239L6.78688 18.2942L9.74839 18.2991C11.3772 18.3018 12.8225 18.2973 12.96 18.2891L13.2102 18.2741L13.2165 18.219C13.22 18.1886 13.2132 18.1638 13.2015 18.1638C13.1897 18.1638 13.1801 18.1418 13.1801 18.1149C13.1801 18.088 13.1711 18.0603 13.1601 18.0535C13.1491 18.0467 13.1401 18.0186 13.1401 17.991C13.1401 17.9627 13.1314 17.9462 13.1201 17.9532C13.1088 17.9603 13.1001 17.9434 13.1001 17.9143C13.1001 17.8861 13.0911 17.863 13.0801 17.863C13.0691 17.863 13.0601 17.8359 13.0601 17.8028C13.0601 17.7697 13.0511 17.7427 13.0401 17.7427C13.0291 17.7427 13.0201 17.7156 13.0201 17.6825C13.0201 17.6494 13.0111 17.6223 13 17.6223C12.989 17.6223 12.98 17.5953 12.98 17.5622C12.98 17.5291 12.971 17.502 12.96 17.502C12.949 17.502 12.94 17.484 12.94 17.4619C12.94 17.4398 12.931 17.4218 12.92 17.4218C12.909 17.4218 12.9 17.4133 12.9 17.403C12.9 17.3574 12.7849 17.1995 12.7349 17.1766C12.7046 17.1627 12.6799 17.1445 12.6799 17.1361C12.6799 17.1278 12.6619 17.121 12.6399 17.121C12.6179 17.121 12.5998 17.1119 12.5998 17.1009C12.5998 17.0899 12.5728 17.0809 12.5398 17.0809C12.5068 17.0809 12.4798 17.0718 12.4798 17.0608C12.4798 17.0298 11.845 17.034 11.8347 17.0652C11.8202 17.1087 8.16208 17.1159 8.14542 17.0725C8.13427 17.0433 8.0947 17.0395 7.82491 17.0418C7.64632 17.0434 7.52186 17.0521 7.52841 17.0627Z" fill="#F4AB34"/>
<path fill-rule="evenodd" clip-rule="evenodd" d="M3.66469 0.0141C3.63994 0.0189 3.61969 0.03115 3.61969 0.0414C3.61969 0.05165 3.60114 0.06 3.57849 0.06C3.55584 0.06 3.54289 0.069 3.54969 0.08C3.55649 0.091 3.55209 0.1 3.53994 0.1C3.51129 0.1 3.41969 0.1916 3.41969 0.22025C3.41969 0.2324 3.41069 0.2368 3.39969 0.23C3.38869 0.2232 3.37969 0.23615 3.37969 0.2588C3.37969 0.28145 3.37069 0.3 3.35969 0.3C3.34869 0.3 3.33969 0.31745 3.33969 0.3388C3.33969 0.36015 3.33189 0.38245 3.32234 0.38835C3.31264 0.39435 3.30679 2.07305 3.30909 4.20455C3.31324 8.1229 3.31684 8.3125 3.39204 8.57705C3.39939 8.6029 3.39634 8.6299 3.38529 8.63705C3.36639 8.6492 3.37039 8.69275 3.41269 8.935C3.41894 8.97075 3.43209 9 3.44189 9C3.45169 9 3.45969 9.027 3.45969 9.06C3.45969 9.093 3.46869 9.12 3.47969 9.12C3.49069 9.12 3.49969 9.147 3.49969 9.18C3.49969 9.213 3.50869 9.24 3.51969 9.24C3.53069 9.24 3.53969 9.267 3.53969 9.3C3.53969 9.333 3.54869 9.36 3.55969 9.36C3.57069 9.36 3.57969 9.36945 3.57969 9.38095C3.57969 9.3925 3.59769 9.4392 3.61969 9.4847C3.64169 9.53025 3.65969 9.5793 3.65969 9.59375C3.65969 9.6082 3.66869 9.62 3.67969 9.62C3.69069 9.62 3.69969 9.638 3.69969 9.66C3.69969 9.682 3.70869 9.7 3.71969 9.7C3.73069 9.7 3.73969 9.718 3.73969 9.74C3.73969 9.762 3.74644 9.78 3.75474 9.78C3.76299 9.78 3.79434 9.83175 3.82439 9.895C3.85444 9.95825 3.90614 10.0415 3.93929 10.08C3.97249 10.1185 3.99964 10.1613 3.99964 10.175C3.99969 10.1888 4.00869 10.2 4.01969 10.2C4.03069 10.2 4.03969 10.2089 4.03969 10.2198C4.03969 10.2427 4.08289 10.2978 4.17469 10.392C4.21044 10.4286 4.23969 10.468 4.23969 10.4794C4.23969 10.4907 4.24869 10.5 4.25969 10.5C4.27069 10.5 4.27969 10.5135 4.27969 10.53C4.27969 10.5465 4.29319 10.56 4.30969 10.56C4.32619 10.56 4.33984 10.5668 4.34004 10.575C4.34049 10.5953 4.52154 10.7881 4.56199 10.8114C4.58894 10.827 4.76994 10.9783 4.84774 11.0504C4.89904 11.0979 5.07469 11.2147 5.13469 11.2411C5.17044 11.2569 5.19969 11.2766 5.19969 11.2849C5.19969 11.2932 5.21319 11.3 5.22969 11.3C5.24619 11.3 5.25969 11.309 5.25969 11.32C5.25969 11.331 5.27094 11.34 5.28469 11.34C5.29844 11.3401 5.33554 11.3623 5.36714 11.3895C5.39874 11.4166 5.44149 11.4442 5.46214 11.4508C5.48279 11.4574 5.49969 11.4711 5.49969 11.4813C5.49969 11.4916 5.51244 11.5 5.52804 11.5C5.54359 11.5 5.55934 11.5072 5.56304 11.5161C5.56669 11.5249 5.63044 11.5718 5.70469 11.6203C5.77894 11.6688 5.83969 11.7156 5.83969 11.7242C5.83969 11.7329 5.85769 11.74 5.87969 11.74C5.90169 11.74 5.91969 11.749 5.91969 11.76C5.91969 11.771 5.93319 11.78 5.94969 11.78C5.96619 11.78 5.97969 11.789 5.97969 11.8C5.97969 11.811 5.98909 11.82 6.00054 11.82C6.01199 11.82 6.03224 11.8296 6.04554 11.8412C6.06739 11.8604 6.11284 11.8909 6.22969 11.9647C6.25169 11.9786 6.27419 11.9954 6.27969 12.002C6.28519 12.0086 6.34994 12.0485 6.42365 12.0907C6.49729 12.1328 6.553 12.1747 6.54745 12.1837C6.5419 12.1927 6.55225 12.2 6.5705 12.2C6.58875 12.2 6.62884 12.227 6.65969 12.26C6.69054 12.293 6.72345 12.32 6.7329 12.32C6.74235 12.32 6.7613 12.338 6.77505 12.36C6.7888 12.382 6.80985 12.4 6.8218 12.4C6.8433 12.4 7.2197 12.7788 7.2197 12.8004C7.2197 12.8066 7.2557 12.8514 7.2997 12.9C7.3437 12.9486 7.3797 12.9951 7.3797 13.0033C7.3797 13.0115 7.39995 13.0393 7.4247 13.0652C7.46685 13.1092 7.4813 13.1309 7.5447 13.245C7.55845 13.2697 7.5742 13.2945 7.5797 13.3C7.5852 13.3055 7.60095 13.3303 7.6147 13.355C7.62845 13.3798 7.65095 13.4202 7.6647 13.445C7.67845 13.4697 7.6942 13.4945 7.6997 13.5C7.7236 13.5239 7.7597 13.602 7.7597 13.6298C7.7597 13.6464 7.7687 13.66 7.7797 13.66C7.7907 13.66 7.7997 13.6735 7.7997 13.69C7.7997 13.7065 7.80675 13.72 7.81535 13.72C7.82395 13.72 7.833 13.7448 7.8355 13.775C7.838 13.8053 7.84895 13.833 7.85985 13.8366C7.8708 13.8404 7.8797 13.8606 7.8797 13.8816C7.8797 13.9028 7.8887 13.92 7.8997 13.92C7.9107 13.92 7.9197 13.947 7.9197 13.98C7.9197 14.013 7.92815 14.04 7.93845 14.04C7.94875 14.04 7.95765 14.0557 7.9582 14.075C7.9604 14.1503 7.985 14.2609 8.0019 14.2713C8.0117 14.2774 8.0197 14.307 8.0197 14.3372C8.0197 14.3673 8.0278 14.4005 8.03775 14.411C8.04765 14.4215 8.06085 14.466 8.067 14.51C8.0732 14.554 8.0828 14.6125 8.0884 14.64C8.12065 14.7991 8.1272 14.9893 8.1333 15.95C8.13945 16.9154 8.14305 17.0123 8.1737 17.035C8.2215 17.0706 10.5602 17.0715 10.5957 17.036C10.6137 17.018 10.6198 16.7577 10.6203 15.991C10.621 14.8138 10.631 14.6994 10.7779 14.175C11.0218 13.3046 11.6318 12.5278 12.5297 11.9442C12.6507 11.8656 12.7605 11.792 12.7738 11.7806C12.7871 11.7693 12.8027 11.76 12.8084 11.76C12.8142 11.76 12.9518 11.6714 13.1143 11.5632C13.2767 11.4549 13.4772 11.3231 13.5597 11.2702C14.2429 10.8327 14.7551 10.2741 15.0728 9.62C15.2927 9.1672 15.3894 8.83555 15.4594 8.29355C15.4917 8.04485 15.4864 0.553 15.4539 0.45C15.3975 0.27065 15.2832 0.13935 15.1068 0.05135L15.0039 0L9.3568 0.0027C6.25089 0.0042 3.68944 0.00935 3.66469 0.0141ZM9.3397 4.1683C9.54245 4.2178 9.691 4.28785 9.8489 4.40835C9.97395 4.5038 10.0275 4.50115 10.1727 4.3923C10.4198 4.207 10.6432 4.14155 11.0297 4.1412C11.4864 4.14075 11.6763 4.26505 12.0407 4.80285C12.4652 5.42935 12.7968 5.49795 13.554 5.1159C13.8874 4.9477 13.959 5.02935 13.8912 5.5C13.8026 6.11535 13.4439 6.6015 12.8797 6.87095C12.8192 6.89985 12.754 6.9317 12.7349 6.94175C12.7158 6.9518 12.6826 6.96 12.6611 6.96C12.6396 6.96 12.6171 6.968 12.611 6.9778C12.6 6.99565 12.5765 7.0007 12.2997 7.0448C12.0501 7.0846 11.6242 7.0722 11.4147 7.01905C11.121 6.94455 11.0818 6.9315 10.9197 6.85445C10.6724 6.73695 10.4574 6.54005 10.2866 6.27465C10.1896 6.1239 10.1043 6.06015 9.9997 6.06015C9.8951 6.06015 9.8098 6.1239 9.7128 6.27465C9.35865 6.82495 8.87765 7.049 8.0497 7.0493C7.70675 7.04945 7.61205 7.03865 7.3997 6.97535C6.63655 6.74775 6.09659 6.04695 6.10124 5.29C6.10289 5.01695 6.17789 4.97145 6.40969 5.103C7.092 5.49005 7.50965 5.4316 7.8897 4.89585C8.26175 4.37135 8.33965 4.2931 8.59445 4.18835C8.73145 4.132 9.14545 4.12085 9.3397 4.1683ZM16.5903 8.78585C16.5818 8.8056 16.5804 8.82735 16.5873 8.8342C16.6076 8.8545 16.6239 8.826 16.6146 8.78655C16.6063 8.75165 16.6052 8.7516 16.5903 8.78585ZM16.5397 8.9488C16.5397 8.96465 16.5487 8.9832 16.5597 8.99C16.5707 8.9968 16.5797 8.98385 16.5797 8.9612C16.5797 8.93855 16.5707 8.92 16.5597 8.92C16.5487 8.92 16.5397 8.93295 16.5397 8.9488ZM16.4997 9.0888C16.4997 9.10465 16.5087 9.1232 16.5197 9.13C16.5307 9.1368 16.5397 9.12385 16.5397 9.1012C16.5397 9.07855 16.5307 9.06 16.5197 9.06C16.5087 9.06 16.4997 9.07295 16.4997 9.0888ZM16.4197 9.32C16.4197 9.35735 16.4251 9.36265 16.4437 9.344C16.4624 9.32535 16.4624 9.31465 16.4437 9.296C16.4251 9.27735 16.4197 9.28265 16.4197 9.32ZM16.3397 9.49665C16.3397 9.5205 16.3479 9.54 16.358 9.54C16.3783 9.54 16.3753 9.48885 16.3536 9.46725C16.346 9.4596 16.3397 9.47285 16.3397 9.49665ZM16.2031 9.79515C16.1536 9.89765 16.1548 9.91015 16.2073 9.83605C16.2623 9.75855 16.2695 9.7399 16.2447 9.74015C16.2365 9.74025 16.2178 9.765 16.2031 9.79515ZM16.022 10.105C16.0238 10.1393 16.0266 10.1416 16.0336 10.1147C16.0386 10.0954 16.0525 10.0855 16.0643 10.0928C16.0771 10.1007 16.0801 10.0968 16.0716 10.0831C16.0478 10.0447 16.0196 10.0572 16.022 10.105ZM15.5497 10.666C15.4872 10.7426 15.4765 10.7599 15.4923 10.7589C15.5019 10.7583 15.5307 10.7313 15.5562 10.6989C15.5818 10.6665 15.5953 10.6404 15.5862 10.6407C15.5772 10.6412 15.5607 10.6526 15.5497 10.666ZM15.0676 11.0883C15.0595 11.1096 15.0423 11.1177 15.0221 11.11C14.996 11.1 14.9946 11.1026 15.0148 11.123C15.0351 11.1434 15.0465 11.1418 15.0736 11.1146C15.0921 11.0961 15.1013 11.075 15.094 11.0676C15.0866 11.0603 15.0747 11.0696 15.0676 11.0883ZM14.9397 11.1566C14.9397 11.1658 14.915 11.186 14.8847 11.2016C14.824 11.233 14.7797 11.2702 14.7797 11.29C14.7797 11.297 14.8058 11.2841 14.8378 11.2614C14.8697 11.2386 14.9043 11.22 14.9147 11.22C14.925 11.22 14.9498 11.202 14.9697 11.18C15.0022 11.1441 15.0026 11.14 14.9728 11.14C14.9546 11.14 14.9397 11.1475 14.9397 11.1566ZM14.4427 11.4921C14.3999 11.5404 14.4322 11.5485 14.4821 11.502C14.5128 11.4734 14.518 11.4602 14.4984 11.4607C14.4826 11.4612 14.4575 11.4753 14.4427 11.4921ZM13.7439 11.9521C13.7227 11.975 13.7234 11.98 13.7477 11.98C13.7817 11.98 13.8079 11.9474 13.785 11.9335C13.7766 11.9284 13.7581 11.9368 13.7439 11.9521ZM13.5518 12.0717C13.5333 12.1198 13.5364 12.1224 13.5797 12.0954C13.6261 12.0663 13.6319 12.04 13.5918 12.04C13.5765 12.04 13.5585 12.0542 13.5518 12.0717ZM13.4197 12.18C13.4197 12.191 13.4062 12.2 13.3897 12.2C13.3732 12.2 13.3597 12.209 13.3597 12.22C13.3597 12.247 13.3825 12.2442 13.4247 12.2121C13.4636 12.1826 13.4701 12.16 13.4397 12.16C13.4287 12.16 13.4197 12.169 13.4197 12.18ZM13.266 12.2892C13.2419 12.3149 13.2273 12.3409 13.2334 12.347C13.2445 12.3582 13.2666 12.3392 13.3171 12.2749C13.3576 12.2235 13.3168 12.2348 13.266 12.2892ZM12.9537 12.5707C12.934 12.5978 12.9214 12.62 12.9257 12.62C12.9397 12.62 13.0197 12.5457 13.0197 12.5326C13.0197 12.5054 12.9879 12.5237 12.9537 12.5707ZM12.7232 12.821C12.6993 12.8433 12.6797 12.8722 12.6797 12.8853C12.6797 12.8984 12.7039 12.8848 12.7336 12.8552C12.7967 12.792 12.7874 12.7612 12.7232 12.821ZM12.543 13.0707C12.5293 13.1009 12.5281 13.12 12.5401 13.12C12.5509 13.12 12.5597 13.1073 12.5597 13.0917C12.5597 13.0761 12.5705 13.0597 12.5837 13.0554C12.5998 13.0499 12.6007 13.043 12.5866 13.0343C12.575 13.0271 12.5554 13.0435 12.543 13.0707ZM12.3264 13.4057C12.3342 13.428 12.3278 13.4458 12.3093 13.4529C12.293 13.4592 12.2797 13.4743 12.2797 13.4866C12.2797 13.4988 12.2996 13.489 12.3239 13.4647C12.3608 13.4277 12.3637 13.4163 12.341 13.3952C12.3186 13.3745 12.316 13.3764 12.3264 13.4057ZM12.1686 13.7018C12.1612 13.7137 12.1652 13.7335 12.1774 13.7458C12.1938 13.7621 12.1997 13.7563 12.1997 13.724C12.1997 13.6757 12.1893 13.6683 12.1686 13.7018ZM11.9307 14.385C11.9185 14.4246 11.9249 14.4791 11.9406 14.4694C11.9627 14.4558 11.9764 14.36 11.9563 14.36C11.9465 14.36 11.935 14.3713 11.9307 14.385ZM11.8597 14.8C11.8597 14.8373 11.865 14.8427 11.8837 14.824C11.9023 14.8054 11.9023 14.7947 11.8837 14.776C11.865 14.7573 11.8597 14.7627 11.8597 14.8ZM11.8488 16.18C11.8488 16.6475 11.8515 16.8388 11.8547 16.605C11.8579 16.3713 11.8579 15.9888 11.8547 15.755C11.8515 15.5213 11.8488 15.7125 11.8488 16.18Z" fill="#FCCB51"/>
</svg>
