<svg width="20" height="20" viewBox="0 0 20 20" fill="none" xmlns="http://www.w3.org/2000/svg">
<g clip-path="url(#clip0_410_9483)">
<path d="M17.1096 4.68753C17.1794 4.68753 17.2463 4.65461 17.2957 4.596C17.345 4.5374 17.3728 4.45791 17.3728 4.37503V3.33441C17.3725 3.06299 17.2816 2.80279 17.1199 2.61087C16.9583 2.41895 16.7392 2.31099 16.5106 2.31066H15.0964L14.7738 1.18003C14.7519 1.10314 14.7056 1.0394 14.6448 1.00231C14.584 0.965213 14.5134 0.957673 14.448 0.981283L6.78854 3.74628C6.72515 3.77375 6.67303 3.82903 6.64293 3.90076C6.61282 3.97248 6.60702 4.05518 6.62671 4.13182C6.64641 4.20847 6.6901 4.27324 6.74879 4.31278C6.80749 4.35233 6.87672 4.36365 6.94223 4.34441L14.3575 1.66691L15.0643 4.14503C15.0867 4.22352 15.1345 4.28822 15.1971 4.32491C15.2596 4.3616 15.3319 4.36726 15.398 4.34066C15.4641 4.31405 15.5186 4.25736 15.5495 4.18305C15.5804 4.10874 15.5852 4.0229 15.5628 3.94441L15.2749 2.93503H16.5112C16.6964 2.93503 16.847 3.11378 16.847 3.33378V4.37503C16.8464 4.54753 16.9643 4.68753 17.1096 4.68753Z" fill="#446ACC"/>
<path d="M19.2105 9.37506C19.1407 9.37506 19.0738 9.40799 19.0244 9.46659C18.9751 9.5252 18.9474 9.60468 18.9474 9.68756C18.9474 9.77044 18.9751 9.84993 19.0244 9.90854C19.0738 9.96714 19.1407 10.0001 19.2105 10.0001C19.3953 10.0001 19.4737 10.0932 19.4737 10.3126V14.0626C19.4737 14.2819 19.3953 14.3751 19.2105 14.3751H15C14.8153 14.3751 14.7368 14.2819 14.7368 14.0626V10.9376C14.7368 10.7182 14.8153 10.6251 15 10.6251H18.1579C18.2277 10.6251 18.2946 10.5921 18.344 10.5335C18.3933 10.4749 18.4211 10.3954 18.4211 10.3126V6.56256C18.4211 5.99319 18.1111 5.62506 17.6316 5.62506H1.57895C0.93 5.62506 0.526316 5.14569 0.526316 4.37506C0.526316 3.60444 0.93 3.12506 1.57895 3.12506H4.25053L2.65789 3.74881C2.62388 3.76046 2.5922 3.78014 2.56474 3.80666C2.53729 3.83319 2.51462 3.86602 2.49809 3.90319C2.48157 3.94036 2.47153 3.98111 2.46857 4.02299C2.46562 4.06488 2.46981 4.10704 2.4809 4.14696C2.49198 4.18688 2.50974 4.22373 2.5331 4.25531C2.55646 4.28689 2.58494 4.31255 2.61685 4.33075C2.64875 4.34896 2.68342 4.35933 2.71878 4.36125C2.75414 4.36317 2.78946 4.3566 2.82263 4.34194L12.3589 0.608814C12.3918 0.595928 12.4221 0.575489 12.4483 0.548665C12.4745 0.52184 12.496 0.489155 12.5115 0.452476C12.5271 0.415797 12.5364 0.375842 12.5389 0.334892C12.5414 0.293943 12.5372 0.2528 12.5263 0.213814C12.5155 0.174828 12.4983 0.138761 12.4757 0.107674C12.4531 0.0765867 12.4256 0.0510873 12.3947 0.0326316C12.3638 0.014176 12.3301 0.00312554 12.2956 0.000111253C12.2612 -0.00290304 12.2265 0.00217785 12.1937 0.0150638L5.82526 2.50881C5.81316 2.50631 5.80211 2.50006 5.78947 2.50006H1.57895C0.634737 2.50006 0 3.25381 0 4.37506V18.1251C0 19.2463 0.634737 20.0001 1.57895 20.0001H17.6316C18.1111 20.0001 18.4211 19.6319 18.4211 19.0626V15.9376C18.4211 15.8547 18.3933 15.7752 18.344 15.7166C18.2946 15.658 18.2277 15.6251 18.1579 15.6251C18.0881 15.6251 18.0212 15.658 17.9718 15.7166C17.9225 15.7752 17.8947 15.8547 17.8947 15.9376V19.0626C17.8947 19.2819 17.8163 19.3751 17.6316 19.3751H1.57895C0.93 19.3751 0.526316 18.8957 0.526316 18.1251V5.82006C0.796316 6.09069 1.15368 6.25006 1.57895 6.25006H17.6316C17.8163 6.25006 17.8947 6.34319 17.8947 6.56256V10.0001H15C14.5205 10.0001 14.2105 10.3682 14.2105 10.9376V14.0626C14.2105 14.6319 14.5205 15.0001 15 15.0001H19.2105C19.69 15.0001 20 14.6319 20 14.0626V10.3126C20 9.74319 19.69 9.37506 19.2105 9.37506Z" fill="#446ACC"/>
<path d="M16.8417 13.125C17.1324 13.125 17.3681 12.8452 17.3681 12.5C17.3681 12.1548 17.1324 11.875 16.8417 11.875C16.5511 11.875 16.3154 12.1548 16.3154 12.5C16.3154 12.8452 16.5511 13.125 16.8417 13.125Z" fill="#446ACC"/>
</g>
<defs>
<clipPath id="clip0_410_9483">
<rect width="20" height="20" fill="white"/>
</clipPath>
</defs>
</svg>
