<svg width="20" height="20" viewBox="0 0 20 20" fill="none" xmlns="http://www.w3.org/2000/svg">
<g clip-path="url(#clip0_410_9345)">
<path fill-rule="evenodd" clip-rule="evenodd" d="M6.49658 9.22984C6.49108 9.23529 6.41083 9.24879 6.31823 9.25979C6.09723 9.28609 5.86093 9.33109 5.68983 9.37949C5.64583 9.39194 5.58283 9.40974 5.54983 9.41899C5.00043 9.57324 4.29118 9.93679 3.85953 10.2854C3.01218 10.9698 2.38703 11.8767 2.11928 12.8099C2.03008 13.1209 2.01368 13.1927 1.95948 13.5099C1.91223 13.7865 1.89278 14.2923 1.91613 14.6349C1.94858 15.1106 1.98693 15.3285 2.11928 15.7899C2.25773 16.2725 2.59713 16.9354 2.92703 17.3676C3.35123 17.9233 3.78513 18.3038 4.47983 18.7291C5.48608 19.3451 7.06458 19.5528 8.25983 19.2265C8.32033 19.21 8.39684 19.1892 8.42984 19.1802C9.69604 18.8375 10.9368 17.7953 11.5375 16.5699C11.7195 16.1986 11.8123 15.9484 11.9084 15.5699C12.0113 15.1647 12.0564 14.8569 12.0608 14.5299C12.065 14.2239 12.0646 14.2199 12.0348 14.2198C11.9937 14.2197 11.5064 13.9649 11.295 13.8329C10.754 13.4953 10.2148 13.0088 9.82984 12.5112C9.79684 12.4685 9.75109 12.4103 9.72819 12.3817C9.51519 12.1164 9.01983 11.2135 9.01983 11.0906C9.01983 11.075 9.01189 11.0573 9.00224 11.0514C8.99254 11.0454 8.97999 11.0201 8.97429 10.9952C8.96859 10.9703 8.94384 10.8959 8.91929 10.8299C8.87304 10.7056 8.86999 10.6954 8.80104 10.4299C8.73004 10.1566 8.69433 9.96044 8.64938 9.59654C8.63623 9.48984 8.62373 9.47684 8.49984 9.44119C8.45034 9.42694 8.38733 9.40834 8.35983 9.39989C8.14378 9.33354 7.96273 9.29714 7.56598 9.24044C7.42258 9.21994 6.51543 9.21094 6.49658 9.22984ZM5.06828 12.6041C5.68583 12.9307 5.72018 14.3529 5.11948 14.724C4.51073 15.1 3.97173 13.9969 4.31348 13.0745C4.45923 12.681 4.80553 12.4652 5.06828 12.6041ZM9.30983 12.6294C9.92809 12.9938 9.90404 14.4351 9.27449 14.7489C8.53523 15.1172 8.08238 13.4197 8.73678 12.7332C8.90393 12.5579 9.12153 12.5185 9.30983 12.6294ZM9.57719 15.6551C9.74539 15.8151 9.70039 16.0607 9.48649 16.15C9.37869 16.1951 4.58123 16.1952 4.47348 16.1502C4.25628 16.0594 4.22763 15.74 4.42578 15.6191C4.48838 15.5809 4.54563 15.5801 6.99398 15.58L9.49814 15.5799L9.57719 15.6551Z" fill="#F8D840"/>
<path fill-rule="evenodd" clip-rule="evenodd" d="M5.35998 0.611568C5.00753 0.634568 4.65883 0.697668 4.20998 0.819618C4.14743 0.836618 3.90918 0.923868 3.71998 0.999068C2.52738 1.47302 1.48018 2.53392 0.95538 3.79997C0.94398 3.82747 0.92723 3.86797 0.91813 3.88997C0.63063 4.58757 0.52013 5.60167 0.64138 6.42997C0.69278 6.78097 0.84583 7.37007 0.92068 7.50472C0.93128 7.52382 0.93998 7.54827 0.93998 7.55912C0.93998 7.57887 0.99878 7.71492 1.09598 7.91997C1.17013 8.07642 1.34863 8.38457 1.46568 8.55822C1.59533 8.75062 1.60518 8.86322 1.50428 9.00042C1.42503 9.10822 1.42488 9.10352 1.50998 9.18862C1.54848 9.22712 1.57998 9.26702 1.57998 9.27727C1.57998 9.29707 1.77208 9.49997 1.79078 9.49997C1.79688 9.49997 1.84408 9.47747 1.89573 9.44997C2.07198 9.35617 2.14693 9.37857 2.41568 9.60547C2.70353 9.84852 3.09993 10.113 3.14648 10.093C3.15938 10.0875 3.24648 10.0184 3.33998 9.93962C4.75103 8.74987 6.80463 8.30942 8.52508 8.82747C8.63763 8.86137 8.63183 8.87262 8.64738 8.58997C8.72073 7.25337 9.32333 5.96592 10.353 4.94592C10.6922 4.60992 10.6799 4.63482 10.6191 4.40462C10.3804 3.50087 9.78658 2.50377 9.16798 1.96772C8.67778 1.54297 8.30478 1.28902 7.89768 1.10277C7.60473 0.968718 7.53783 0.939968 7.51913 0.939968C7.50828 0.939968 7.48383 0.931268 7.46473 0.920618C7.42858 0.900468 7.27383 0.847118 7.16998 0.818968C6.79943 0.718668 6.72493 0.702618 6.37998 0.648868C6.19393 0.619868 5.57788 0.597318 5.35998 0.611568ZM3.78998 4.12767C4.50318 4.50277 4.33803 6.27907 3.58998 6.27907C2.94013 6.27907 2.67088 4.76162 3.22993 4.24997C3.33153 4.15697 3.36593 4.13292 3.43308 4.10792C3.52623 4.07322 3.70533 4.08312 3.78998 4.12767ZM8.02688 4.15782C8.69738 4.61912 8.50773 6.27997 7.78453 6.27997C7.16308 6.27997 6.89058 5.01567 7.36328 4.32557C7.52778 4.08542 7.81578 4.01262 8.02688 4.15782ZM6.01123 6.86927C6.77023 6.97097 7.73948 7.55592 7.73993 7.91252C7.74028 8.23232 7.43588 8.31167 7.17093 8.06087C6.29463 7.23147 5.12038 7.21762 4.24458 8.02642C3.99038 8.26122 3.83408 8.28067 3.69263 8.09522C3.57238 7.93757 3.63888 7.76132 3.90538 7.53127C4.51933 7.00122 5.25953 6.76857 6.01123 6.86927ZM6.84588 9.21487C6.93163 9.21862 7.06663 9.21857 7.14588 9.21482C7.22513 9.21102 7.15498 9.20792 6.98998 9.20797C6.82498 9.20802 6.76013 9.21107 6.84588 9.21487ZM6.34998 9.23997C6.29648 9.25357 6.29538 9.25522 6.33998 9.25522C6.36748 9.25522 6.41698 9.24837 6.44998 9.23997C6.50348 9.22637 6.50458 9.22472 6.45998 9.22472C6.43248 9.22472 6.38298 9.23157 6.34998 9.23997ZM7.54998 9.24112C7.65128 9.26207 7.73313 9.26112 7.64998 9.23997C7.61698 9.23157 7.56298 9.22467 7.52998 9.22462C7.47953 9.22457 7.48273 9.22722 7.54998 9.24112ZM6.07998 9.27997C6.03978 9.29282 6.03783 9.29612 6.06998 9.29657C6.09198 9.29687 6.12798 9.28942 6.14998 9.27997C6.20093 9.25807 6.14838 9.25807 6.07998 9.27997ZM8.61283 9.47997C8.62538 9.49647 8.64008 9.52797 8.64553 9.54997C8.65483 9.58797 8.65548 9.58782 8.65768 9.54742C8.65893 9.52402 8.64423 9.49252 8.62498 9.47742C8.59453 9.45357 8.59298 9.45387 8.61283 9.47997ZM4.83998 9.66997C4.81248 9.68567 4.79898 9.69857 4.80998 9.69857C4.82098 9.69857 4.85248 9.68567 4.87998 9.66997C4.90748 9.65427 4.92098 9.64137 4.90998 9.64137C4.89898 9.64137 4.86748 9.65427 4.83998 9.66997ZM8.66503 9.70997C8.66523 9.75397 8.66933 9.76962 8.67413 9.74472C8.67893 9.71987 8.67873 9.68387 8.67373 9.66472C8.66873 9.64562 8.66478 9.66597 8.66503 9.70997ZM4.29998 9.96177C4.26678 9.98892 4.26343 9.99572 4.28998 9.98197C4.35523 9.94827 4.39138 9.92057 4.36998 9.92072C4.35898 9.92082 4.32748 9.93927 4.29998 9.96177ZM4.02998 10.1426C3.91168 10.2312 3.89608 10.2553 4.00398 10.1827C4.05563 10.1479 4.10343 10.1106 4.11013 10.0997C4.12773 10.0713 4.11913 10.0759 4.02998 10.1426ZM3.35998 10.71C3.31138 10.7595 3.27613 10.8 3.28163 10.8C3.28713 10.8 3.33138 10.7595 3.37998 10.71C3.42858 10.6605 3.46383 10.62 3.45833 10.62C3.45283 10.62 3.40858 10.6605 3.35998 10.71ZM3.14123 10.9484L3.07248 11.03L3.15023 10.9556C3.19298 10.9148 3.22393 10.8781 3.21898 10.8741C3.21403 10.8701 3.17903 10.9036 3.14123 10.9484ZM2.90873 11.2334C2.87793 11.2738 2.86293 11.3005 2.87543 11.2928C2.90103 11.277 2.98763 11.16 2.97373 11.16C2.96878 11.16 2.93953 11.193 2.90873 11.2334ZM2.40903 12.0418C2.39143 12.0759 2.38058 12.1072 2.38493 12.1116C2.38928 12.1159 2.40778 12.0881 2.42608 12.0497C2.46718 11.9635 2.45293 11.9569 2.40903 12.0418ZM9.47743 12.01C9.48823 12.032 9.51168 12.068 9.52963 12.09L9.56218 12.13L9.54253 12.09C9.53173 12.068 9.50828 12.032 9.49033 12.01L9.45778 11.97L9.47743 12.01ZM9.65928 12.289C9.69293 12.3379 9.73003 12.3838 9.74168 12.391C9.75338 12.3982 9.72993 12.3582 9.68958 12.3021C9.59948 12.1767 9.57463 12.1659 9.65928 12.289ZM2.24243 12.4142C2.20798 12.4999 2.18018 12.579 2.18073 12.59C2.18128 12.601 2.21278 12.5342 2.25068 12.4415C2.28863 12.3488 2.31638 12.2697 2.31238 12.2657C2.30838 12.2617 2.27688 12.3285 2.24243 12.4142ZM4.84498 12.5738C4.86423 12.5788 4.89573 12.5788 4.91498 12.5738C4.93423 12.5687 4.91848 12.5646 4.87998 12.5646C4.84148 12.5646 4.82573 12.5687 4.84498 12.5738ZM9.04498 12.5738C9.06423 12.5788 9.09573 12.5788 9.11498 12.5738C9.13423 12.5687 9.11848 12.5646 9.07998 12.5646C9.04148 12.5646 9.02573 12.5687 9.04498 12.5738ZM9.44928 12.76C9.50318 12.8205 9.55133 12.8745 9.55633 12.88C9.56133 12.8855 9.55588 12.872 9.54428 12.85C9.53263 12.828 9.48448 12.774 9.43723 12.73C9.35253 12.6511 9.35273 12.6515 9.44928 12.76ZM10.07 12.8C10.1129 12.844 10.1526 12.88 10.1581 12.88C10.1636 12.88 10.1329 12.844 10.09 12.8C10.047 12.756 10.0074 12.72 10.0019 12.72C9.99638 12.72 10.027 12.756 10.07 12.8ZM2.10228 12.8033C2.10103 12.8217 2.09478 12.8532 2.08848 12.8733C2.07758 12.9081 2.07813 12.9081 2.09983 12.8743C2.11238 12.8548 2.11863 12.8233 2.11363 12.8043C2.10553 12.7734 2.10438 12.7733 2.10228 12.8033ZM2.02228 13.1033C2.02103 13.1217 2.01478 13.1532 2.00848 13.1733C1.99758 13.2081 1.99813 13.2081 2.01983 13.1743C2.03238 13.1548 2.03863 13.1233 2.03363 13.1043C2.02553 13.0734 2.02438 13.0733 2.02228 13.1033ZM10.51 13.24C10.5529 13.284 10.5926 13.32 10.5981 13.32C10.6036 13.32 10.5729 13.284 10.53 13.24C10.487 13.196 10.4474 13.16 10.4419 13.16C10.4364 13.16 10.467 13.196 10.51 13.24ZM8.45143 13.2914C8.44403 13.3207 8.44188 13.3486 8.44658 13.3533C8.45133 13.358 8.46118 13.3379 8.46853 13.3085C8.47593 13.2792 8.47808 13.2514 8.47338 13.2467C8.46863 13.242 8.45878 13.2621 8.45143 13.2914ZM1.98243 13.29C1.98078 13.312 1.97478 13.3525 1.96913 13.38L1.95883 13.43L1.98028 13.3809C1.99208 13.3539 1.99803 13.3134 1.99358 13.2909C1.98563 13.251 1.98533 13.251 1.98243 13.29ZM8.42503 13.51C8.42523 13.554 8.42933 13.5696 8.43413 13.5447C8.43893 13.5199 8.43873 13.4839 8.43373 13.4647C8.42873 13.4456 8.42478 13.466 8.42503 13.51ZM1.93273 13.5727C1.92563 13.6243 1.92368 13.6704 1.92843 13.6751C1.93313 13.6798 1.94323 13.6419 1.95088 13.5909C1.95853 13.5399 1.96048 13.4938 1.95518 13.4885C1.94988 13.4832 1.93978 13.5211 1.93273 13.5727ZM5.54698 13.68C5.54698 13.7735 5.55043 13.8117 5.55463 13.765C5.55883 13.7182 5.55883 13.6417 5.55463 13.595C5.55043 13.5482 5.54698 13.5865 5.54698 13.68ZM4.20638 13.68C4.20638 13.7515 4.21003 13.7807 4.21443 13.745C4.21888 13.7092 4.21888 13.6507 4.21443 13.615C4.21003 13.5792 4.20638 13.6085 4.20638 13.68ZM10.9272 13.5754C10.943 13.601 11.06 13.6876 11.06 13.6737C11.06 13.6688 11.0269 13.6395 10.9866 13.6087C10.9462 13.5779 10.9194 13.5629 10.9272 13.5754ZM8.42503 13.85C8.42523 13.894 8.42933 13.9096 8.43413 13.8847C8.43893 13.8599 8.43873 13.8239 8.43373 13.8047C8.42873 13.7856 8.42478 13.806 8.42503 13.85ZM1.89293 13.953C1.87728 14.1378 1.87953 14.525 1.89713 14.69C1.90423 14.756 1.90998 14.5827 1.90998 14.305C1.90998 14.0272 1.90903 13.8 1.90793 13.8C1.90678 13.8 1.90003 13.8688 1.89293 13.953ZM4.22338 13.97C4.22308 13.992 4.23053 14.028 4.23998 14.05C4.26188 14.1009 4.26188 14.0484 4.23998 13.98C4.22713 13.9398 4.22383 13.9378 4.22338 13.97ZM8.44278 14.02C8.44278 14.0365 8.45053 14.068 8.45998 14.09C8.47083 14.1152 8.47718 14.1189 8.47718 14.1C8.47718 14.0835 8.46943 14.052 8.45998 14.03C8.44913 14.0048 8.44278 14.0011 8.44278 14.02ZM12.0673 14.53C12.0673 14.64 12.0707 14.6824 12.0747 14.6243C12.0788 14.5662 12.0788 14.4762 12.0746 14.4243C12.0705 14.3724 12.0672 14.42 12.0673 14.53ZM4.51998 14.63C4.55728 14.6685 4.59233 14.7 4.59783 14.7C4.60333 14.7 4.57728 14.6685 4.53998 14.63C4.50268 14.5915 4.46763 14.56 4.46213 14.56C4.45663 14.56 4.48268 14.5915 4.51998 14.63ZM9.41888 14.635L9.34998 14.71L9.42498 14.6411C9.49478 14.5769 9.50918 14.56 9.49389 14.56C9.49058 14.56 9.45683 14.5937 9.41888 14.635ZM5.20968 14.6356C5.17653 14.6655 5.12703 14.7061 5.09968 14.7258C5.05183 14.7604 5.05243 14.7604 5.11588 14.726C5.15213 14.7064 5.20553 14.6655 5.23463 14.6351C5.30213 14.5647 5.28798 14.5649 5.20968 14.6356ZM4.83498 14.7941C4.85973 14.7989 4.90023 14.7989 4.92498 14.7941C4.94973 14.7893 4.92948 14.7854 4.87998 14.7854C4.83048 14.7854 4.81023 14.7893 4.83498 14.7941ZM9.04523 14.7943C9.07568 14.7989 9.12068 14.7988 9.14523 14.7941C9.16983 14.7893 9.14498 14.7855 9.08998 14.7857C9.03498 14.7858 9.01483 14.7897 9.04523 14.7943ZM1.93358 15.01C1.93993 15.065 1.94843 15.1137 1.95253 15.1183C1.96658 15.1341 1.95598 15.0099 1.93898 14.96C1.92753 14.9263 1.92578 14.9425 1.93358 15.01ZM12.025 15.01C12.0252 15.054 12.0293 15.0696 12.0341 15.0447C12.0389 15.0199 12.0387 14.9839 12.0337 14.9647C12.0287 14.9456 12.0248 14.966 12.025 15.01ZM1.97308 15.25C1.97978 15.294 1.98858 15.3337 1.99263 15.3383C2.00778 15.3555 1.99643 15.2484 1.97903 15.21C1.96643 15.1821 1.96463 15.1942 1.97308 15.25ZM2.01218 15.45C2.02863 15.5235 2.04008 15.5395 2.03968 15.4883C2.03953 15.4672 2.03023 15.4365 2.01908 15.42C2.00423 15.3981 2.00238 15.4062 2.01218 15.45ZM4.38438 16.0906C4.41428 16.1221 4.44233 16.1438 4.44673 16.1389C4.45113 16.134 4.42663 16.1082 4.39233 16.0817L4.32998 16.0334L4.38438 16.0906ZM2.19998 16.0664C2.19998 16.0916 2.30498 16.3416 2.31243 16.3342C2.31653 16.3301 2.29653 16.2689 2.26793 16.1983C2.21733 16.0733 2.19998 16.0396 2.19998 16.0664ZM5.74498 16.175C6.42423 16.1779 7.53573 16.1779 8.21498 16.175C8.89423 16.1721 8.33848 16.1697 6.97998 16.1697C5.62148 16.1697 5.06573 16.1721 5.74498 16.175ZM2.37998 16.4876C2.37998 16.5091 2.43948 16.62 2.45103 16.62C2.45653 16.62 2.44613 16.5907 2.42793 16.555C2.39083 16.482 2.37998 16.4668 2.37998 16.4876ZM11.2876 17.005C11.2188 17.1218 11.2143 17.1317 11.2493 17.09C11.29 17.0416 11.325 16.98 11.3119 16.98C11.3066 16.98 11.2957 16.9912 11.2876 17.005ZM11.12 17.26C11.0965 17.293 11.0818 17.32 11.0873 17.32C11.0928 17.32 11.1165 17.293 11.14 17.26C11.1635 17.227 11.1782 17.2 11.1727 17.2C11.1672 17.2 11.1435 17.227 11.12 17.26ZM2.90873 17.3666C2.93953 17.4069 2.96878 17.44 2.97373 17.44C2.98763 17.44 2.90103 17.323 2.87543 17.3072C2.86293 17.2994 2.87793 17.3262 2.90873 17.3666ZM3.07993 17.5799C3.12593 17.6349 3.17403 17.6863 3.18678 17.6941C3.19953 17.7019 3.16613 17.657 3.11253 17.5942C3.05898 17.5314 3.01088 17.48 3.00568 17.48C3.00048 17.48 3.03393 17.5249 3.07993 17.5799ZM10.8687 17.585L10.81 17.65L10.875 17.5912C10.9107 17.5589 10.94 17.5297 10.94 17.5262C10.94 17.5108 10.9235 17.5244 10.8687 17.585ZM10.7487 17.725L10.69 17.79L10.755 17.7312C10.7907 17.6989 10.82 17.6697 10.82 17.6662C10.82 17.6508 10.8035 17.6644 10.7487 17.725ZM3.40428 17.93C3.45613 17.9839 3.50163 18.024 3.50533 18.019C3.50903 18.014 3.46663 17.9699 3.41103 17.921L3.30998 17.832L3.40428 17.93ZM10.4087 18.065L10.35 18.13L10.415 18.0712C10.4507 18.0389 10.48 18.0097 10.48 18.0062C10.48 17.9908 10.4635 18.0044 10.4087 18.065ZM3.57998 18.0862C3.57998 18.0897 3.60923 18.1189 3.64498 18.1512L3.70998 18.21L3.65123 18.145C3.59648 18.0844 3.57998 18.0708 3.57998 18.0862ZM10.2687 18.185L10.21 18.25L10.275 18.1912C10.3356 18.1365 10.3492 18.12 10.3337 18.12C10.3303 18.12 10.301 18.1492 10.2687 18.185ZM3.98718 18.4154C4.00298 18.441 4.11998 18.5276 4.11998 18.5137C4.11998 18.5088 4.08693 18.4795 4.04658 18.4487C4.00618 18.4179 3.97943 18.4029 3.98718 18.4154ZM4.16998 18.5503C4.19198 18.5683 4.22798 18.5917 4.24998 18.6025L4.28998 18.6222L4.24998 18.5896C4.22798 18.5717 4.19198 18.5482 4.16998 18.5374L4.12998 18.5178L4.16998 18.5503ZM5.70998 19.24C5.73198 19.2494 5.76348 19.2572 5.77998 19.2572C5.79888 19.2572 5.79518 19.2508 5.76998 19.24C5.74798 19.2305 5.71648 19.2228 5.69998 19.2228C5.68108 19.2228 5.68478 19.2291 5.70998 19.24ZM6.44498 19.3743C6.47523 19.3789 6.52473 19.3789 6.55498 19.3743C6.58523 19.3697 6.56048 19.366 6.49998 19.366C6.43948 19.366 6.41473 19.3697 6.44498 19.3743ZM7.47523 19.3741C7.50008 19.3789 7.53608 19.3787 7.55523 19.3737C7.57433 19.3687 7.55398 19.3648 7.50998 19.365C7.46598 19.3652 7.45033 19.3693 7.47523 19.3741ZM6.84498 19.3948C6.93023 19.3986 7.06973 19.3986 7.15498 19.3948C7.24023 19.3911 7.17048 19.388 6.99998 19.388C6.82948 19.388 6.75973 19.3911 6.84498 19.3948Z" fill="#EB5565"/>
<path fill-rule="evenodd" clip-rule="evenodd" d="M14.2005 3.94279C12.7853 4.36394 11.4204 5.75249 10.9105 7.28994C10.8566 7.45249 10.7887 7.68784 10.775 7.75994C10.7698 7.78744 10.7515 7.87744 10.7344 7.95994C10.5583 8.81139 10.5975 9.62234 10.8606 10.5699C11.1626 11.6582 12.1253 12.9573 13.0242 13.4899C13.0428 13.5009 13.1418 13.5609 13.2443 13.6232C13.4994 13.7784 13.9881 14.0199 14.047 14.0199C14.0611 14.0199 14.0832 14.0306 14.0964 14.0438C14.1314 14.0788 14.4581 14.0888 14.6899 14.062C15.0341 14.0222 15.2076 13.9985 15.2905 13.98C15.3345 13.9702 15.438 13.9474 15.5205 13.9294C15.603 13.9114 15.693 13.8895 15.7205 13.8806C15.748 13.8718 15.811 13.853 15.8605 13.8388C15.91 13.8246 15.9591 13.8055 15.9695 13.7964C15.98 13.7874 16.0087 13.7799 16.0333 13.7799C16.058 13.7799 16.0837 13.7709 16.0905 13.7599C16.0973 13.7489 16.1249 13.7399 16.1517 13.7399C16.1786 13.7399 16.2005 13.7309 16.2005 13.7199C16.2005 13.7089 16.2185 13.6999 16.2405 13.6999C16.2625 13.6999 16.2805 13.6909 16.2805 13.6799C16.2805 13.6689 16.2941 13.6599 16.3108 13.6599C16.3274 13.6599 16.3567 13.652 16.3758 13.6424C16.4651 13.5973 16.5648 13.5762 16.5865 13.5979C16.5986 13.61 16.6292 13.6199 16.6545 13.6199C16.6819 13.6199 16.7347 13.6541 16.785 13.7044C16.8601 13.7795 16.9393 13.8265 16.9094 13.7782C16.9032 13.7681 16.9144 13.7597 16.9343 13.7595C16.9542 13.7592 16.993 13.7414 17.0205 13.7199C17.048 13.6984 17.0818 13.6806 17.0955 13.6804C17.1093 13.6801 17.1205 13.6704 17.1205 13.6587C17.1205 13.6471 17.1295 13.6431 17.1405 13.6499C17.1515 13.6567 17.1605 13.6528 17.1605 13.6411C17.1605 13.6295 17.1747 13.6199 17.192 13.6199C17.2621 13.6199 17.2894 13.5622 17.2641 13.4675C17.2048 13.2456 17.2353 13.1637 17.4384 12.9999C17.4862 12.9614 17.5354 12.9208 17.5479 12.9096C17.5603 12.8985 17.6287 12.84 17.6998 12.7796C17.8629 12.6412 17.8768 12.6272 18.0705 12.4097C18.1585 12.3108 18.2355 12.2254 18.2415 12.2199C18.2475 12.2144 18.2741 12.1784 18.3005 12.1399C18.327 12.1014 18.3626 12.0564 18.3797 12.0399C18.3968 12.0234 18.4235 11.9852 18.439 11.9549C18.4546 11.9247 18.4748 11.8999 18.4839 11.8999C18.493 11.8999 18.5005 11.8881 18.5005 11.8737C18.5005 11.8593 18.5185 11.8281 18.5405 11.8045C18.5625 11.7809 18.5805 11.7522 18.5805 11.7408C18.5805 11.7293 18.5895 11.7199 18.6005 11.7199C18.6115 11.7199 18.6205 11.7064 18.6205 11.6899C18.6205 11.6734 18.6285 11.6599 18.6382 11.6599C18.6479 11.6599 18.661 11.6442 18.6673 11.6249C18.6736 11.6057 18.7029 11.5494 18.7325 11.4999C18.8094 11.3711 18.9251 11.1327 18.9897 10.9699C19.0202 10.8929 19.0527 10.8119 19.0618 10.7899C19.071 10.7679 19.0981 10.6869 19.1221 10.6099C19.1461 10.5329 19.1729 10.4519 19.1816 10.4299C19.1904 10.4079 19.2031 10.3629 19.2099 10.3299C19.2167 10.2969 19.2316 10.2339 19.243 10.1899C19.2545 10.1459 19.2685 10.0739 19.2742 10.0299C19.2799 9.98594 19.2927 9.94139 19.3026 9.93094C19.3124 9.92049 19.3205 9.86154 19.3205 9.79994C19.3205 9.73834 19.3285 9.67939 19.3383 9.66894C19.3927 9.61079 19.3942 8.47334 19.34 8.34994C19.3304 8.32794 19.3181 8.26494 19.3128 8.20994C19.3075 8.15494 19.2939 8.06494 19.2826 8.00994C19.2713 7.95494 19.2566 7.87844 19.2499 7.83994C19.2433 7.80144 19.2307 7.75194 19.2219 7.72994C19.2132 7.70794 19.197 7.65844 19.186 7.61994C19.1252 7.40784 19.1121 7.36824 19.097 7.35094C19.088 7.34049 19.0805 7.31744 19.0805 7.29969C19.0805 7.28194 19.0625 7.23019 19.0405 7.18464C19.0185 7.13914 19.0005 7.09234 19.0005 7.08074C19.0005 7.05809 18.7407 6.51669 18.7218 6.49994C18.7156 6.49444 18.6979 6.46744 18.6824 6.43994C18.6669 6.41244 18.6444 6.37239 18.6324 6.35094C18.6204 6.32954 18.5948 6.29409 18.5755 6.27219C18.5563 6.25029 18.5405 6.22134 18.5405 6.20784C18.5405 6.19434 18.5333 6.18029 18.5244 6.17659C18.5155 6.17294 18.4779 6.12494 18.4409 6.06994C18.1885 5.69474 17.6278 5.13399 17.2505 4.87934C17.1955 4.84219 17.1386 4.80014 17.1241 4.78589C17.1096 4.77164 17.09 4.75994 17.0805 4.75994C17.0711 4.75994 17.0511 4.74869 17.0362 4.73494C17.0212 4.72119 16.9913 4.70009 16.9698 4.68804C16.8533 4.62309 16.8296 4.60894 16.8205 4.59874C16.815 4.59259 16.7025 4.53594 16.5705 4.47284C16.4385 4.40979 16.3149 4.34959 16.2958 4.33909C16.2767 4.32854 16.2515 4.31994 16.2398 4.31994C16.2281 4.31994 16.1813 4.30194 16.1358 4.27994C16.0903 4.25794 16.0372 4.23994 16.0179 4.23994C15.9987 4.23994 15.9773 4.23094 15.9705 4.21994C15.9637 4.20894 15.9406 4.19994 15.9191 4.19994C15.8976 4.19994 15.8644 4.19184 15.8453 4.18189C15.8262 4.17194 15.77 4.15309 15.7205 4.13994C15.671 4.12679 15.6149 4.10794 15.5958 4.09799C15.5767 4.08804 15.5312 4.07994 15.4948 4.07994C15.4583 4.07994 15.42 4.07184 15.4095 4.06199C15.3905 4.04399 15.2973 4.02724 15.1105 4.00819C15.0555 4.00259 14.9925 3.99004 14.9705 3.98034C14.9485 3.97059 14.8225 3.95779 14.6905 3.95189C14.5585 3.94599 14.41 3.93684 14.3605 3.93154C14.311 3.92624 14.239 3.93134 14.2005 3.94279ZM12.4508 7.36214C12.6618 7.46134 12.9005 7.85569 12.9005 8.10509C12.9005 8.14494 12.9095 8.18314 12.9205 8.18994C12.932 8.19699 12.9405 8.29974 12.9405 8.42994C12.9405 8.56014 12.932 8.66289 12.9205 8.66994C12.9095 8.67674 12.9005 8.72679 12.9005 8.78114C12.9005 8.83549 12.8915 8.87994 12.8805 8.87994C12.8695 8.87994 12.8605 8.90254 12.8605 8.93019C12.8605 8.95784 12.8525 8.99609 12.8427 9.01519C12.8329 9.03429 12.8038 9.09494 12.778 9.14994C12.722 9.26939 12.5017 9.49994 12.4436 9.49994C12.4212 9.49994 12.3973 9.50894 12.3905 9.51994C12.3837 9.53094 12.3252 9.53994 12.2605 9.53994C12.1958 9.53994 12.1373 9.53094 12.1305 9.51994C12.1237 9.50894 12.1044 9.49994 12.0875 9.49994C11.9738 9.49994 11.6605 9.10314 11.6605 8.95909C11.6605 8.93884 11.6525 8.91734 11.6426 8.91124C11.5955 8.88214 11.5641 8.28814 11.6008 8.11994C11.7325 7.51644 12.0938 7.19434 12.4508 7.36214ZM16.5557 7.36444C16.7257 7.44429 16.9605 7.75394 16.9605 7.89824C16.9605 7.91989 16.9695 7.94314 16.9805 7.94994C16.9915 7.95674 17.0005 7.99599 17.0005 8.03714C17.0005 8.07829 17.01 8.12144 17.0216 8.13299C17.0621 8.17349 17.0227 8.88389 16.9784 8.91124C16.9686 8.91734 16.9605 8.94054 16.9605 8.96284C16.9605 9.03564 16.8326 9.26454 16.7366 9.36359C16.3982 9.71249 15.9551 9.52369 15.7658 8.94994C15.4825 8.09129 15.9795 7.09379 16.5557 7.36444ZM12.3139 10.2896C12.3844 10.3248 12.46 10.4071 12.4979 10.4901C12.7329 11.0048 13.1793 11.4147 13.6605 11.5577C13.71 11.5724 13.7685 11.5918 13.7905 11.6008C13.8125 11.6098 13.862 11.6237 13.9005 11.6317C13.9922 11.6508 14.6332 11.6515 14.7105 11.6326C14.8204 11.6059 14.9301 11.5755 14.9705 11.5607C15.0618 11.5272 15.4205 11.3506 15.4205 11.3391C15.4205 11.3323 15.4453 11.3139 15.4755 11.2983C15.5286 11.2709 15.788 11.0228 15.8715 10.9195C15.9376 10.8378 16.0405 10.6841 16.041 10.6663C16.0412 10.6573 16.059 10.6274 16.0805 10.5999C16.102 10.5724 16.1198 10.538 16.1201 10.5235C16.1209 10.474 16.2402 10.323 16.3035 10.2914C16.5378 10.1746 16.8451 10.4192 16.7617 10.6561C16.7225 10.7676 16.5929 11.0276 16.5605 11.0599C16.555 11.0654 16.5377 11.0947 16.5221 11.1249C16.5065 11.1552 16.4863 11.1799 16.4771 11.1799C16.468 11.1799 16.4605 11.1914 16.4605 11.2053C16.4605 11.2623 16.0762 11.6635 15.8952 11.7954C15.728 11.9174 15.4385 12.0799 15.3885 12.0799C15.3731 12.0799 15.3605 12.0889 15.3605 12.0999C15.3605 12.1109 15.3431 12.1199 15.3217 12.1199C15.3004 12.1199 15.2773 12.1289 15.2705 12.1399C15.2637 12.1509 15.2367 12.1599 15.2105 12.1599C15.1843 12.1599 15.1573 12.1689 15.1505 12.1799C15.1437 12.1909 15.1167 12.1999 15.0905 12.1999C15.0643 12.1999 15.0373 12.2089 15.0305 12.2199C15.0237 12.2309 14.989 12.2399 14.9533 12.2399C14.9177 12.2399 14.88 12.2481 14.8695 12.2582C14.8209 12.3049 14.1092 12.323 13.8905 12.2831C13.8245 12.2711 13.7367 12.2555 13.6953 12.2484C13.654 12.2413 13.6152 12.2275 13.6092 12.2177C13.6031 12.2079 13.5722 12.1999 13.5405 12.1999C13.5088 12.1999 13.4773 12.1909 13.4705 12.1799C13.4637 12.1689 13.4362 12.1599 13.4093 12.1599C13.3825 12.1599 13.3605 12.1509 13.3605 12.1399C13.3605 12.1289 13.3469 12.1199 13.3303 12.1199C13.3136 12.1199 13.2844 12.1118 13.2653 12.1019C13.2462 12.0921 13.172 12.0546 13.1005 12.0186C12.794 11.8645 12.4979 11.6271 12.2905 11.3694C12.2465 11.3147 12.1999 11.2587 12.1868 11.2448C12.1738 11.231 12.1574 11.2017 12.1505 11.1798C12.1435 11.1579 12.1294 11.1399 12.1192 11.1399C12.1089 11.1399 12.1005 11.1264 12.1005 11.1099C12.1005 11.0934 12.0937 11.0799 12.0854 11.0799C12.0771 11.0799 12.0576 11.0507 12.042 11.0149C12.0265 10.9792 12.0084 10.9454 12.0019 10.9399C11.9953 10.9344 11.9689 10.8849 11.9431 10.8299C11.9173 10.7749 11.8881 10.7143 11.8783 10.6952C11.7583 10.4611 12.072 10.1689 12.3139 10.2896Z" fill="#7CD3B4"/>
<path fill-rule="evenodd" clip-rule="evenodd" d="M4.98523 0.0134617C4.89448 0.0179117 4.82023 0.0302117 4.82023 0.0407617C4.82023 0.0513117 4.77073 0.0599617 4.71023 0.0599617C4.64973 0.0599617 4.60023 0.0689617 4.60023 0.0799617C4.60023 0.0909617 4.55523 0.0999617 4.50023 0.0999617C4.44523 0.0999617 4.40023 0.108962 4.40023 0.119962C4.40023 0.130962 4.36423 0.139962 4.32023 0.139962C4.27623 0.139962 4.24023 0.148962 4.24023 0.159962C4.24023 0.170962 4.20423 0.179962 4.16023 0.179962C4.11623 0.179962 4.08023 0.188962 4.08023 0.199962C4.08023 0.210962 4.05323 0.219962 4.02023 0.219962C3.98723 0.219962 3.96023 0.228962 3.96023 0.239962C3.96023 0.250962 3.93323 0.259962 3.90023 0.259962C3.86723 0.259962 3.84023 0.268962 3.84023 0.279962C3.84023 0.290962 3.81773 0.299962 3.79023 0.299962C3.76273 0.299962 3.74023 0.308962 3.74023 0.319962C3.74023 0.330962 3.71323 0.339962 3.68023 0.339962C3.64723 0.339962 3.62023 0.348962 3.62023 0.359962C3.62023 0.370962 3.60223 0.379962 3.58023 0.379962C3.55823 0.379962 3.54023 0.388962 3.54023 0.399962C3.54023 0.410962 3.51768 0.419962 3.49013 0.419962C3.46258 0.419962 3.39338 0.442462 3.33638 0.469962C3.27938 0.497462 3.22093 0.519962 3.20648 0.519962C3.19203 0.519962 3.18023 0.528962 3.18023 0.539962C3.18023 0.550962 3.16223 0.559962 3.14023 0.559962C3.11823 0.559962 3.10018 0.566712 3.10018 0.574962C3.10013 0.583212 3.05063 0.612462 2.99023 0.639962C2.92983 0.667462 2.88033 0.696712 2.88028 0.704962C2.88028 0.713212 2.86423 0.719962 2.84463 0.719962C2.82508 0.719962 2.79608 0.737962 2.78023 0.759962C2.76438 0.781962 2.73538 0.799962 2.71583 0.799962C2.69623 0.799962 2.68023 0.808962 2.68023 0.819962C2.68023 0.830962 2.66843 0.839962 2.65398 0.839962C2.63958 0.839962 2.60843 0.857962 2.58483 0.879962C2.56123 0.901962 2.53003 0.919962 2.51548 0.919962C2.50093 0.919962 2.47608 0.937962 2.46023 0.959962C2.44438 0.981962 2.42123 0.999962 2.40878 0.999962C2.39633 0.999962 2.35793 1.02696 2.32338 1.05996C2.28883 1.09296 2.25283 1.11996 2.24338 1.11996C2.23393 1.11996 2.19793 1.14696 2.16338 1.17996C2.12883 1.21296 2.09563 1.23996 2.08958 1.23996C2.07528 1.23996 2.04728 1.26396 1.88483 1.41566C1.81083 1.48481 1.72323 1.56011 1.69023 1.58296C1.65723 1.60581 1.59423 1.66986 1.55023 1.72531C1.50623 1.78071 1.42973 1.86936 1.38023 1.92226C1.26523 2.04511 1.24023 2.07526 1.24023 2.09111C1.24023 2.09816 1.21323 2.12911 1.18023 2.15996C1.14723 2.19081 1.12023 2.22591 1.12023 2.23796C1.12023 2.25006 1.11123 2.25996 1.10023 2.25996C1.08923 2.25996 1.08023 2.27146 1.08023 2.28556C1.08023 2.29961 1.06223 2.32411 1.04023 2.33996C1.01823 2.35581 1.00023 2.38281 1.00023 2.39996C1.00023 2.41711 0.982226 2.44411 0.960226 2.45996C0.938226 2.47581 0.920226 2.50281 0.920226 2.51996C0.920226 2.53711 0.902226 2.56411 0.880226 2.57996C0.858226 2.59581 0.840226 2.62281 0.840226 2.63996C0.840226 2.65711 0.822226 2.68411 0.800226 2.69996C0.778226 2.71581 0.760226 2.74481 0.760226 2.76436C0.760226 2.78396 0.751226 2.79996 0.740226 2.79996C0.729226 2.79996 0.720226 2.81721 0.720226 2.83831C0.720226 2.85936 0.713476 2.87961 0.705226 2.88331C0.662626 2.90221 0.420225 3.39956 0.420225 3.46796C0.420225 3.48556 0.411225 3.49996 0.400225 3.49996C0.389225 3.49996 0.380225 3.52696 0.380225 3.55996C0.380225 3.59296 0.371225 3.61996 0.360225 3.61996C0.349225 3.61996 0.340225 3.63796 0.340225 3.65996C0.340225 3.68196 0.331225 3.69996 0.320225 3.69996C0.309225 3.69996 0.300225 3.72191 0.300225 3.74876C0.300225 3.77561 0.291225 3.80316 0.280225 3.80996C0.269225 3.81676 0.260225 3.84431 0.260225 3.87116C0.260225 3.89801 0.251225 3.91996 0.240225 3.91996C0.229225 3.91996 0.220225 3.94641 0.220225 3.97876C0.220225 4.01111 0.211225 4.04316 0.200225 4.04996C0.189225 4.05676 0.180225 4.09331 0.180225 4.13116C0.180225 4.16901 0.171225 4.19996 0.160225 4.19996C0.149225 4.19996 0.140225 4.23596 0.140225 4.27996C0.140225 4.32396 0.131225 4.35996 0.120225 4.35996C0.109225 4.35996 0.100225 4.39596 0.100225 4.43996C0.100225 4.48396 0.0912251 4.51996 0.0802251 4.51996C0.0692251 4.51996 0.060225 4.56871 0.060225 4.62831C0.060225 4.69716 0.051125 4.73966 0.035225 4.74496C-0.00132501 4.75716 -0.00132501 6.64276 0.035225 6.65496C0.051125 6.66026 0.060225 6.70276 0.060225 6.77161C0.060225 6.83121 0.0692251 6.87996 0.0802251 6.87996C0.0912251 6.87996 0.100225 6.91596 0.100225 6.95996C0.100225 7.00396 0.109225 7.03996 0.120225 7.03996C0.131225 7.03996 0.140225 7.07596 0.140225 7.11996C0.140225 7.16396 0.149225 7.19996 0.160225 7.19996C0.171225 7.19996 0.180225 7.23596 0.180225 7.27996C0.180225 7.32396 0.189225 7.35996 0.200225 7.35996C0.211225 7.35996 0.220225 7.38696 0.220225 7.41996C0.220225 7.45296 0.229225 7.47996 0.240225 7.47996C0.251225 7.47996 0.260225 7.50696 0.260225 7.53996C0.260225 7.57296 0.269225 7.59996 0.280225 7.59996C0.291225 7.59996 0.300225 7.62191 0.300225 7.64876C0.300225 7.67561 0.309225 7.70316 0.320225 7.70996C0.331225 7.71676 0.340225 7.73981 0.340225 7.76116C0.340225 7.78251 0.349225 7.79996 0.360225 7.79996C0.371225 7.79996 0.380225 7.82246 0.380225 7.84996C0.380225 7.87746 0.388425 7.89996 0.398475 7.89996C0.408525 7.89996 0.422775 7.93596 0.430225 7.97996C0.437675 8.02396 0.451925 8.05996 0.461975 8.05996C0.472025 8.05996 0.480225 8.07436 0.480225 8.09191C0.480225 8.12866 0.640876 8.44661 0.664526 8.45661C0.673176 8.46031 0.680226 8.48056 0.680226 8.50161C0.680226 8.52271 0.687026 8.53996 0.695326 8.53996C0.703676 8.53996 0.723426 8.56921 0.739226 8.60496C0.755076 8.64071 0.784226 8.68741 0.804126 8.70871C0.823976 8.73006 0.840226 8.75731 0.840226 8.76931C0.840226 8.78131 0.858226 8.80411 0.880226 8.81996C0.902226 8.83581 0.920226 8.86281 0.920226 8.87996C0.920226 8.89711 0.938226 8.92411 0.960226 8.93996C0.982226 8.95581 1.00023 8.98096 1.00023 8.99581C1.00023 9.03241 1.05023 9.07996 1.08878 9.07996C1.10608 9.07996 1.12023 9.08896 1.12023 9.09996C1.12023 9.11096 1.13768 9.11996 1.15903 9.11996C1.18038 9.11996 1.20343 9.12896 1.21023 9.13996C1.21703 9.15096 1.24853 9.15996 1.28023 9.15996C1.31193 9.15996 1.34343 9.15096 1.35023 9.13996C1.35703 9.12896 1.37783 9.11946 1.39643 9.11886C1.41503 9.11826 1.46128 9.07101 1.49923 9.01386C1.60438 8.85551 1.59683 8.75246 1.46593 8.55821C1.34888 8.38456 1.17038 8.07641 1.09623 7.91996C0.999026 7.71491 0.940226 7.57886 0.940226 7.55911C0.940226 7.54826 0.931526 7.52381 0.920926 7.50471C0.910326 7.48561 0.875276 7.38896 0.843026 7.28996C0.535525 6.34506 0.507225 5.35341 0.760376 4.39316C0.805526 4.22186 0.889226 3.95906 0.923726 3.87996C0.935776 3.85246 0.952476 3.81196 0.960976 3.78996C1.37613 2.70986 2.31103 1.69676 3.39723 1.15001C3.61303 1.04136 3.70213 1.00316 3.99023 0.895662C4.16223 0.831462 4.17333 0.828162 4.46023 0.754712C4.63893 0.708962 4.70608 0.696162 5.08023 0.636412C5.27968 0.604562 6.12563 0.604562 6.32023 0.636412C6.67063 0.693762 6.95873 0.753862 7.10023 0.799112C7.12773 0.807912 7.21773 0.835812 7.30023 0.861162C7.38273 0.886462 7.45878 0.914562 7.46923 0.923562C7.47968 0.932562 7.49968 0.939962 7.51363 0.939962C7.53768 0.939962 7.59703 0.965112 7.89793 1.10276C8.30503 1.28901 8.67803 1.54296 9.16823 1.96771C9.78683 2.50376 10.3806 3.50086 10.6194 4.40461C10.6802 4.63481 10.6924 4.60991 10.3533 4.94591C9.32358 5.96591 8.72098 7.25336 8.64763 8.58996C8.63208 8.87261 8.63788 8.86136 8.52533 8.82746C6.80488 8.30941 4.75128 8.74986 3.34023 9.93961C3.24673 10.0184 3.15963 10.0875 3.14673 10.093C3.09958 10.1132 2.67243 9.82571 2.37178 9.57141C2.13473 9.37091 2.05178 9.35566 1.84803 9.47521L1.75023 9.53261L1.74438 9.68576L1.73858 9.83896L1.88908 9.98946C1.97188 10.0722 2.04968 10.14 2.06203 10.14C2.07438 10.14 2.10088 10.1609 2.12098 10.1864C2.14103 10.2119 2.21433 10.2703 2.28383 10.3161C2.35338 10.362 2.43273 10.4175 2.46023 10.4395C2.48773 10.4615 2.52148 10.4796 2.53523 10.4797C2.54898 10.4799 2.56023 10.4879 2.56023 10.4976C2.56023 10.5074 2.57823 10.52 2.60023 10.5258C2.64083 10.5364 2.65688 10.58 2.62023 10.58C2.60923 10.58 2.60023 10.589 2.60023 10.6C2.60023 10.6109 2.56423 10.657 2.52023 10.7024C2.47623 10.7477 2.44023 10.7936 2.44023 10.8044C2.44023 10.8151 2.41323 10.8491 2.38023 10.88C2.34723 10.9108 2.32023 10.9484 2.32023 10.9636C2.32023 10.9787 2.30223 11.0041 2.28023 11.02C2.25823 11.0358 2.24023 11.0628 2.24023 11.08C2.24023 11.0971 2.22223 11.1241 2.20023 11.14C2.17823 11.1558 2.16023 11.1848 2.16023 11.2044C2.16023 11.224 2.15138 11.24 2.14063 11.24C2.12983 11.24 2.11533 11.2625 2.10843 11.29C2.10153 11.3175 2.08788 11.34 2.07808 11.34C2.06823 11.34 2.06023 11.3539 2.06023 11.3708C2.06023 11.3878 2.04223 11.421 2.02023 11.4446C1.99823 11.4682 1.98023 11.4993 1.98023 11.5137C1.98023 11.5282 1.97123 11.54 1.96023 11.54C1.94923 11.54 1.94023 11.558 1.94023 11.58C1.94023 11.602 1.93123 11.62 1.92023 11.62C1.90923 11.62 1.90023 11.638 1.90023 11.66C1.90023 11.682 1.89123 11.7 1.88023 11.7C1.86923 11.7 1.86023 11.718 1.86023 11.74C1.86023 11.762 1.85123 11.78 1.84023 11.78C1.82923 11.78 1.82023 11.798 1.82023 11.82C1.82023 11.842 1.81123 11.86 1.80023 11.86C1.78923 11.86 1.78023 11.878 1.78023 11.9C1.78023 11.922 1.77123 11.94 1.76023 11.94C1.74923 11.94 1.74023 11.9536 1.74023 11.9702C1.74023 11.9869 1.72983 12.0206 1.71713 12.0452C1.66858 12.1391 1.66023 12.1603 1.66023 12.1897C1.66023 12.2064 1.65123 12.22 1.64023 12.22C1.62923 12.22 1.62023 12.2425 1.62023 12.27C1.62023 12.2975 1.61123 12.32 1.60023 12.32C1.58923 12.32 1.58023 12.347 1.58023 12.38C1.58023 12.413 1.57123 12.44 1.56023 12.44C1.54923 12.44 1.54023 12.467 1.54023 12.5C1.54023 12.533 1.53123 12.56 1.52023 12.56C1.50923 12.56 1.50023 12.587 1.50023 12.62C1.50023 12.653 1.49123 12.68 1.48023 12.68C1.46923 12.68 1.46023 12.716 1.46023 12.76C1.46023 12.804 1.45123 12.84 1.44023 12.84C1.42923 12.84 1.42023 12.8709 1.42023 12.9088C1.42023 12.9466 1.41123 12.9832 1.40023 12.99C1.38923 12.9968 1.38023 13.0405 1.38023 13.0872C1.38023 13.1338 1.37208 13.1805 1.36218 13.191C1.35223 13.2014 1.33863 13.255 1.33188 13.31C1.32518 13.365 1.30923 13.491 1.29643 13.59C1.24603 13.98 1.27008 14.9226 1.34033 15.31C1.35233 15.376 1.36708 15.4682 1.37318 15.515C1.37928 15.5617 1.39233 15.6 1.40223 15.6C1.41213 15.6 1.42023 15.636 1.42023 15.68C1.42023 15.724 1.42923 15.76 1.44023 15.76C1.45123 15.76 1.46023 15.7909 1.46023 15.8288C1.46023 15.8666 1.46923 15.9032 1.48023 15.91C1.49123 15.9168 1.50023 15.9488 1.50023 15.9812C1.50023 16.0135 1.50923 16.04 1.52023 16.04C1.53123 16.04 1.54023 16.0619 1.54023 16.0888C1.54023 16.1156 1.54923 16.1432 1.56023 16.15C1.57123 16.1568 1.58023 16.1843 1.58023 16.2112C1.58023 16.238 1.58923 16.26 1.60023 16.26C1.61123 16.26 1.62023 16.287 1.62023 16.32C1.62023 16.353 1.62923 16.38 1.64023 16.38C1.65123 16.38 1.66023 16.398 1.66023 16.42C1.66023 16.442 1.66923 16.46 1.68023 16.46C1.69123 16.46 1.70023 16.487 1.70023 16.52C1.70023 16.553 1.70923 16.58 1.72023 16.58C1.73123 16.58 1.74023 16.598 1.74023 16.62C1.74023 16.642 1.74923 16.66 1.76023 16.66C1.77123 16.66 1.78023 16.678 1.78023 16.7C1.78023 16.722 1.78923 16.74 1.80023 16.74C1.81123 16.74 1.82023 16.758 1.82023 16.78C1.82023 16.802 1.82923 16.82 1.84023 16.82C1.85123 16.82 1.86023 16.838 1.86023 16.86C1.86023 16.882 1.86923 16.9 1.88023 16.9C1.89123 16.9 1.90023 16.918 1.90023 16.94C1.90023 16.962 1.90753 16.98 1.91648 16.98C1.92543 16.98 1.94513 17.0115 1.96023 17.05C1.97533 17.0885 1.99503 17.12 2.00398 17.12C2.01293 17.12 2.02023 17.138 2.02023 17.16C2.02023 17.182 2.02858 17.2 2.03878 17.2C2.04898 17.2 2.07323 17.236 2.09263 17.28C2.11203 17.324 2.13518 17.36 2.14408 17.36C2.15298 17.36 2.16023 17.378 2.16023 17.4C2.16023 17.422 2.16863 17.44 2.17888 17.44C2.18913 17.44 2.20333 17.4583 2.21043 17.4806C2.21753 17.503 2.24513 17.5431 2.27178 17.5697C2.29843 17.5964 2.32038 17.6253 2.32058 17.6341C2.32108 17.6543 2.41098 17.7688 2.49523 17.8564C2.53098 17.8936 2.56023 17.9313 2.56023 17.9403C2.56023 17.9493 2.64348 18.0429 2.74523 18.1483C2.84698 18.2537 2.98943 18.4019 3.06183 18.4776C3.13418 18.5532 3.24218 18.6497 3.30183 18.6919C3.36143 18.7342 3.42478 18.7848 3.44258 18.8044C3.46038 18.8239 3.48378 18.84 3.49463 18.84C3.50543 18.84 3.54253 18.867 3.57708 18.9C3.61163 18.933 3.64903 18.96 3.66023 18.96C3.67143 18.96 3.70693 18.9851 3.73913 19.0159C3.77128 19.0467 3.82298 19.0849 3.85393 19.1008C3.88488 19.1167 3.92478 19.1455 3.94258 19.1648C3.96038 19.1842 3.98963 19.2 4.00758 19.2C4.02553 19.2 4.04023 19.209 4.04023 19.22C4.04023 19.231 4.05413 19.24 4.07108 19.24C4.08803 19.24 4.12123 19.258 4.14483 19.28C4.16843 19.302 4.19958 19.32 4.21398 19.32C4.22843 19.32 4.24023 19.329 4.24023 19.34C4.24023 19.351 4.25823 19.36 4.28023 19.36C4.30223 19.36 4.32023 19.369 4.32023 19.38C4.32023 19.391 4.33823 19.4 4.36023 19.4C4.38223 19.4 4.40023 19.409 4.40023 19.42C4.40023 19.431 4.41823 19.44 4.44023 19.44C4.46223 19.44 4.48023 19.449 4.48023 19.46C4.48023 19.471 4.49203 19.48 4.50648 19.48C4.52093 19.48 4.57938 19.5025 4.63638 19.53C4.69338 19.5575 4.75808 19.58 4.78013 19.58C4.80218 19.58 4.82023 19.589 4.82023 19.6C4.82023 19.611 4.84273 19.62 4.87023 19.62C4.89773 19.62 4.92023 19.629 4.92023 19.64C4.92023 19.651 4.94273 19.66 4.97023 19.66C4.99773 19.66 5.02023 19.669 5.02023 19.68C5.02023 19.691 5.04723 19.7 5.08023 19.7C5.11323 19.7 5.14023 19.709 5.14023 19.72C5.14023 19.731 5.16723 19.74 5.20023 19.74C5.23323 19.74 5.26023 19.749 5.26023 19.76C5.26023 19.771 5.29623 19.78 5.34023 19.78C5.38423 19.78 5.42023 19.789 5.42023 19.8C5.42023 19.811 5.44218 19.82 5.46903 19.82C5.49588 19.82 5.52343 19.829 5.53023 19.84C5.53703 19.851 5.57303 19.86 5.61023 19.86C5.64743 19.86 5.68343 19.869 5.69023 19.88C5.69703 19.891 5.74258 19.9 5.79143 19.9C5.84028 19.9 5.88023 19.909 5.88023 19.92C5.88023 19.9311 5.93303 19.94 5.99858 19.94C6.07543 19.94 6.11983 19.9487 6.12523 19.965C6.13173 19.9845 6.32268 19.99 6.99023 19.99C7.65778 19.99 7.84873 19.9845 7.85523 19.965C7.86053 19.9491 7.90278 19.94 7.97073 19.94C8.02963 19.94 8.08343 19.931 8.09023 19.92C8.09703 19.909 8.13808 19.9 8.18143 19.9C8.22478 19.9 8.26023 19.891 8.26023 19.88C8.26023 19.869 8.29568 19.86 8.33903 19.86C8.38238 19.86 8.42343 19.851 8.43023 19.84C8.43703 19.829 8.47358 19.82 8.51143 19.82C8.54928 19.82 8.58023 19.811 8.58023 19.8C8.58023 19.789 8.60668 19.78 8.63903 19.78C8.67138 19.78 8.70343 19.771 8.71023 19.76C8.71703 19.749 8.74403 19.74 8.77023 19.74C8.79643 19.74 8.82343 19.731 8.83023 19.72C8.83703 19.709 8.86403 19.7 8.89023 19.7C8.91643 19.7 8.94343 19.691 8.95023 19.68C8.95703 19.669 8.98008 19.66 9.00143 19.66C9.02278 19.66 9.04023 19.651 9.04023 19.64C9.04023 19.629 9.06723 19.62 9.10023 19.62C9.13323 19.62 9.16023 19.611 9.16023 19.6C9.16023 19.589 9.17463 19.58 9.19223 19.58C9.23133 19.58 9.32088 19.5415 9.53023 19.4347C9.61823 19.3898 9.71043 19.3433 9.73508 19.3315C9.75973 19.3197 9.77998 19.3032 9.78008 19.295C9.78018 19.2867 9.79823 19.28 9.82023 19.28C9.84223 19.28 9.86023 19.271 9.86023 19.26C9.86023 19.249 9.87623 19.24 9.89583 19.24C9.91538 19.24 9.94438 19.222 9.96023 19.2C9.97608 19.178 10.0051 19.16 10.0246 19.16C10.0442 19.16 10.0602 19.1525 10.0602 19.1434C10.0602 19.1342 10.085 19.114 10.1152 19.0984C10.1455 19.0827 10.1877 19.0542 10.209 19.035C10.2303 19.0157 10.2576 19 10.2696 19C10.2816 19 10.3044 18.982 10.3202 18.96C10.3361 18.938 10.357 18.92 10.3666 18.92C10.3763 18.92 10.4094 18.893 10.4402 18.86C10.4711 18.827 10.5061 18.8 10.5181 18.8C10.5397 18.8 10.5892 18.7615 10.7048 18.655C10.7376 18.6247 10.7716 18.6 10.7803 18.6C10.8189 18.6 11.2993 18.0949 11.3 18.0537C11.3001 18.0447 11.3452 17.9935 11.4002 17.94C11.4552 17.8864 11.5002 17.835 11.5002 17.8257C11.5002 17.8164 11.5182 17.7958 11.5402 17.78C11.5622 17.7641 11.5802 17.7396 11.5802 17.7256C11.5802 17.7115 11.5892 17.7 11.6002 17.7C11.6112 17.7 11.6202 17.6885 11.6202 17.6744C11.6202 17.6603 11.6382 17.6358 11.6602 17.62C11.6822 17.6041 11.7002 17.5771 11.7002 17.56C11.7002 17.5428 11.7182 17.5158 11.7402 17.5C11.7622 17.4841 11.7802 17.4571 11.7802 17.44C11.7802 17.4228 11.7982 17.3958 11.8202 17.38C11.8422 17.3641 11.8602 17.3351 11.8602 17.3156C11.8602 17.296 11.8692 17.28 11.8802 17.28C11.8912 17.28 11.9002 17.2682 11.9002 17.2537C11.9002 17.2393 11.9182 17.2082 11.9402 17.1846C11.9622 17.161 11.9802 17.1278 11.9802 17.1108C11.9802 17.0939 11.9871 17.08 11.9955 17.08C12.0141 17.08 12.0802 16.9315 12.0802 16.8898C12.0802 16.8734 12.0892 16.86 12.1002 16.86C12.1112 16.86 12.1202 16.842 12.1202 16.82C12.1202 16.798 12.1292 16.78 12.1402 16.78C12.1512 16.78 12.1602 16.762 12.1602 16.74C12.1602 16.718 12.1692 16.7 12.1802 16.7C12.1912 16.7 12.2002 16.682 12.2002 16.66C12.2002 16.638 12.2092 16.62 12.2202 16.62C12.2312 16.62 12.2402 16.602 12.2402 16.58C12.2402 16.558 12.2492 16.54 12.2602 16.54C12.2712 16.54 12.2802 16.513 12.2802 16.48C12.2802 16.447 12.2892 16.42 12.3002 16.42C12.3112 16.42 12.3202 16.402 12.3202 16.38C12.3202 16.358 12.3292 16.34 12.3402 16.34C12.3512 16.34 12.3602 16.313 12.3602 16.28C12.3602 16.247 12.3692 16.22 12.3802 16.22C12.3912 16.22 12.4002 16.1975 12.4002 16.17C12.4002 16.1425 12.4092 16.12 12.4202 16.12C12.4312 16.12 12.4402 16.0935 12.4402 16.0612C12.4402 16.0288 12.4492 15.9968 12.4602 15.99C12.4712 15.9832 12.4802 15.9517 12.4802 15.92C12.4802 15.8883 12.4892 15.8568 12.5002 15.85C12.5112 15.8432 12.5202 15.8072 12.5202 15.77C12.5202 15.7328 12.5292 15.6968 12.5402 15.69C12.5512 15.6832 12.5602 15.6421 12.5602 15.5988C12.5602 15.5554 12.5692 15.52 12.5802 15.52C12.5912 15.52 12.6002 15.48 12.6002 15.4312C12.6002 15.3823 12.6092 15.3368 12.6202 15.33C12.6312 15.3232 12.6402 15.2704 12.6402 15.2128C12.6402 15.1551 12.6486 15.0994 12.6589 15.089C12.6692 15.0785 12.682 14.9845 12.6874 14.88C12.7042 14.5533 12.7459 14.4359 12.809 14.5379C12.8151 14.5478 12.8831 14.5622 12.9601 14.57C13.0372 14.5777 13.1002 14.5921 13.1002 14.602C13.1002 14.6119 13.1447 14.62 13.199 14.62C13.2534 14.62 13.3034 14.629 13.3102 14.64C13.317 14.651 13.3806 14.66 13.4514 14.66C13.524 14.66 13.5802 14.6687 13.5802 14.68C13.5802 14.6921 13.6698 14.7 13.809 14.7C13.94 14.7 14.0431 14.7085 14.0502 14.72C14.0665 14.7463 14.4939 14.7463 14.5102 14.72C14.5174 14.7083 14.63 14.7 14.7802 14.7C14.9304 14.7 15.043 14.6916 15.0502 14.68C15.057 14.669 15.1206 14.66 15.1914 14.66C15.264 14.66 15.3202 14.6512 15.3202 14.64C15.3202 14.629 15.3652 14.62 15.4202 14.62C15.4752 14.62 15.5202 14.6128 15.5202 14.6039C15.5202 14.5951 15.5855 14.5779 15.6652 14.5658C15.837 14.5396 15.9159 14.5228 15.9702 14.5007C15.9922 14.4918 16.0507 14.4729 16.1002 14.4587C16.1497 14.4444 16.1992 14.4267 16.2102 14.4193C16.2212 14.4119 16.273 14.3935 16.3252 14.3785C16.3775 14.3635 16.4202 14.3442 16.4202 14.3356C16.4202 14.327 16.4422 14.32 16.469 14.32C16.4959 14.32 16.5234 14.311 16.5302 14.3C16.537 14.289 16.5601 14.28 16.5814 14.28C16.6028 14.28 16.6202 14.271 16.6202 14.26C16.6202 14.249 16.6382 14.24 16.6602 14.24C16.6822 14.24 16.7002 14.231 16.7002 14.22C16.7002 14.209 16.7149 14.2 16.7329 14.2C16.7766 14.2 16.8405 14.1236 16.8543 14.0548C16.8604 14.0242 16.8732 13.9943 16.8828 13.9884C16.9083 13.9726 16.9029 13.8748 16.8745 13.84C16.692 13.6163 16.5795 13.5942 16.2688 13.7205C12.8915 15.0947 9.22493 12.6369 9.22063 8.99576C9.21848 7.15776 10.2206 5.45351 11.8302 4.55781C12.7436 4.04956 13.8166 3.82251 14.8002 3.92936C15.1905 3.97176 15.3671 4.00461 15.7102 4.09866C17.35 4.54811 18.7807 5.98041 19.2227 7.61496C19.2323 7.65071 19.2493 7.71371 19.2605 7.75496C19.4307 8.38531 19.462 9.20221 19.342 9.87996C19.2126 10.6104 18.9605 11.24 18.553 11.85C18.4868 11.949 18.4232 12.0403 18.4115 12.0528C18.3998 12.0654 18.3452 12.1345 18.2902 12.2064C18.1674 12.3671 17.7116 12.8196 17.4762 13.0147C17.2708 13.1848 17.2339 13.2589 17.2817 13.405C17.297 13.4517 17.31 13.5044 17.3106 13.5221C17.3128 13.5924 17.4291 13.66 17.5481 13.66C17.6336 13.66 17.8002 13.5914 17.8002 13.5563C17.8002 13.5473 17.8092 13.54 17.8202 13.54C17.8312 13.54 17.8773 13.504 17.9226 13.46C17.968 13.416 18.0126 13.38 18.0218 13.38C18.0463 13.38 18.598 12.8276 18.691 12.71C18.7345 12.655 18.7858 12.5954 18.8051 12.5776C18.8244 12.5598 18.8402 12.5342 18.8402 12.5207C18.8402 12.5071 18.8672 12.4708 18.9002 12.44C18.9332 12.4091 18.9602 12.3728 18.9602 12.3593C18.9602 12.3458 18.976 12.3201 18.9954 12.3023C19.0147 12.2845 19.0432 12.2452 19.0587 12.215C19.0743 12.1847 19.0945 12.16 19.1036 12.16C19.1127 12.16 19.1202 12.144 19.1202 12.1244C19.1202 12.1048 19.1382 12.0758 19.1602 12.06C19.1822 12.0441 19.2002 12.0204 19.2002 12.0072C19.2002 11.9941 19.207 11.9803 19.2152 11.9766C19.234 11.9683 19.299 11.8618 19.3138 11.815C19.3199 11.7957 19.3328 11.78 19.3426 11.78C19.3523 11.78 19.3602 11.762 19.3602 11.74C19.3602 11.718 19.3692 11.7 19.3802 11.7C19.3912 11.7 19.4002 11.682 19.4002 11.66C19.4002 11.638 19.4092 11.62 19.4202 11.62C19.4312 11.62 19.4402 11.602 19.4402 11.58C19.4402 11.558 19.4492 11.54 19.4602 11.54C19.4712 11.54 19.4802 11.522 19.4802 11.5C19.4802 11.478 19.4892 11.46 19.5002 11.46C19.5112 11.46 19.5202 11.4475 19.5202 11.4323C19.5202 11.417 19.5337 11.3788 19.5501 11.3473C19.5665 11.3158 19.58 11.2697 19.5801 11.245C19.5802 11.2202 19.5892 11.2 19.6002 11.2C19.6112 11.2 19.6202 11.182 19.6202 11.16C19.6202 11.138 19.6292 11.12 19.6402 11.12C19.6512 11.12 19.6602 11.093 19.6602 11.06C19.6602 11.027 19.6692 11 19.6802 11C19.6912 11 19.7002 10.978 19.7002 10.9512C19.7002 10.9243 19.7092 10.8968 19.7202 10.89C19.7312 10.8832 19.7402 10.8562 19.7402 10.83C19.7402 10.8038 19.7492 10.7768 19.7602 10.77C19.7712 10.7632 19.7802 10.7311 19.7802 10.6988C19.7802 10.6664 19.7892 10.64 19.8002 10.64C19.8112 10.64 19.8202 10.613 19.8202 10.58C19.8202 10.547 19.8292 10.52 19.8402 10.52C19.8512 10.52 19.8602 10.484 19.8602 10.44C19.8602 10.396 19.8692 10.36 19.8802 10.36C19.8912 10.36 19.9002 10.3195 19.9002 10.27C19.9002 10.2205 19.9092 10.18 19.9202 10.18C19.9312 10.18 19.9402 10.1357 19.9402 10.0816C19.9402 10.0208 19.9497 9.98011 19.9652 9.97496C19.9848 9.96846 19.9902 9.76036 19.9902 9.02431C19.9902 8.29711 19.9845 8.07626 19.9652 8.05696C19.9515 8.04321 19.9402 7.98876 19.9402 7.93596C19.9402 7.88316 19.9312 7.83996 19.9202 7.83996C19.9092 7.83996 19.9002 7.80451 19.9002 7.76116C19.9002 7.71781 19.8912 7.67676 19.8802 7.66996C19.8692 7.66316 19.8602 7.62716 19.8602 7.58996C19.8602 7.55276 19.8512 7.51676 19.8402 7.50996C19.8292 7.50316 19.8202 7.46661 19.8202 7.42876C19.8202 7.39091 19.8112 7.35996 19.8002 7.35996C19.7892 7.35996 19.7802 7.33296 19.7802 7.29996C19.7802 7.26696 19.7712 7.23996 19.7602 7.23996C19.7492 7.23996 19.7402 7.21801 19.7402 7.19116C19.7402 7.16431 19.7312 7.13676 19.7202 7.12996C19.7092 7.12316 19.7002 7.09561 19.7002 7.06876C19.7002 7.04191 19.6912 7.01996 19.6802 7.01996C19.6692 7.01996 19.6602 6.99296 19.6602 6.95996C19.6602 6.92696 19.6512 6.89996 19.6402 6.89996C19.6292 6.89996 19.6202 6.88196 19.6202 6.85996C19.6202 6.83796 19.6124 6.81996 19.6028 6.81996C19.5933 6.81996 19.5804 6.78886 19.5742 6.75091C19.5624 6.67796 19.4034 6.33466 19.3762 6.32331C19.3674 6.31961 19.3602 6.29936 19.3602 6.27831C19.3602 6.25721 19.3523 6.23996 19.3427 6.23996C19.333 6.23996 19.3139 6.21296 19.3002 6.17996C19.2866 6.14696 19.2675 6.11996 19.2578 6.11996C19.2481 6.11996 19.2402 6.10196 19.2402 6.07996C19.2402 6.05796 19.2312 6.03996 19.2202 6.03996C19.2092 6.03996 19.2002 6.02816 19.2002 6.01371C19.2002 5.99931 19.1822 5.96816 19.1602 5.94456C19.1382 5.92096 19.1202 5.88976 19.1202 5.87521C19.1202 5.86066 19.1022 5.83581 19.0802 5.81996C19.0582 5.80411 19.0402 5.78186 19.0402 5.77056C19.0402 5.75921 19.0132 5.71846 18.9802 5.67996C18.9473 5.64146 18.9203 5.60231 18.9203 5.59296C18.9202 5.58366 18.8932 5.55081 18.8602 5.51996C18.8272 5.48911 18.8002 5.45861 18.8002 5.45211C18.8002 5.44156 18.7474 5.37481 18.6896 5.31231C18.6782 5.30001 18.6468 5.25846 18.6197 5.21996C18.5561 5.12951 18.1911 4.76436 18.1002 4.70036C18.011 4.63751 17.9891 4.62006 17.9302 4.56496C17.9037 4.54021 17.8762 4.51996 17.8692 4.51996C17.8621 4.51996 17.8311 4.49296 17.8002 4.45996C17.7694 4.42696 17.7356 4.39996 17.7252 4.39996C17.7147 4.39996 17.6779 4.37296 17.6434 4.33996C17.6088 4.30696 17.569 4.27996 17.5548 4.27996C17.5407 4.27996 17.5161 4.26196 17.5002 4.23996C17.4844 4.21796 17.4595 4.19996 17.445 4.19996C17.4304 4.19996 17.3992 4.18196 17.3756 4.15996C17.352 4.13796 17.3209 4.11996 17.3065 4.11996C17.292 4.11996 17.2802 4.11096 17.2802 4.09996C17.2802 4.08896 17.2622 4.07996 17.2402 4.07996C17.2182 4.07996 17.2002 4.07156 17.2002 4.06131C17.2002 4.05106 17.1823 4.03696 17.1603 4.03001C17.1384 4.02306 17.1092 4.00656 17.0953 3.99336C17.0366 3.93731 16.6024 3.73996 16.5378 3.73996C16.5171 3.73996 16.5002 3.73096 16.5002 3.71996C16.5002 3.70896 16.4822 3.69996 16.4602 3.69996C16.4382 3.69996 16.4202 3.69096 16.4202 3.67996C16.4202 3.66896 16.3932 3.65996 16.3602 3.65996C16.3272 3.65996 16.3002 3.65096 16.3002 3.63996C16.3002 3.62896 16.2777 3.61996 16.2502 3.61996C16.2227 3.61996 16.2002 3.61096 16.2002 3.59996C16.2002 3.58896 16.1732 3.57996 16.1402 3.57996C16.1072 3.57996 16.0802 3.57096 16.0802 3.55996C16.0802 3.54896 16.0532 3.53996 16.0202 3.53996C15.9872 3.53996 15.9602 3.53096 15.9602 3.51996C15.9602 3.50896 15.9293 3.49996 15.8914 3.49996C15.8536 3.49996 15.817 3.49096 15.8102 3.47996C15.8034 3.46896 15.7624 3.45996 15.719 3.45996C15.6757 3.45996 15.6402 3.45096 15.6402 3.43996C15.6402 3.42896 15.6042 3.41996 15.5602 3.41996C15.5162 3.41996 15.4802 3.41096 15.4802 3.39996C15.4802 3.38896 15.4358 3.37996 15.3814 3.37996C15.3271 3.37996 15.277 3.37096 15.2702 3.35996C15.2634 3.34896 15.1954 3.33996 15.119 3.33996C15.0398 3.33996 14.9802 3.33136 14.9802 3.31996C14.9802 3.29256 13.6472 3.29256 13.6302 3.31996C13.6234 3.33096 13.5604 3.33996 13.4902 3.33996C13.42 3.33996 13.357 3.34896 13.3502 3.35996C13.3434 3.37096 13.2934 3.37996 13.239 3.37996C13.1847 3.37996 13.1402 3.38896 13.1402 3.39996C13.1402 3.41096 13.0997 3.41996 13.0502 3.41996C13.0007 3.41996 12.9602 3.42896 12.9602 3.43996C12.9602 3.45096 12.9242 3.45996 12.8802 3.45996C12.8362 3.45996 12.8002 3.46896 12.8002 3.47996C12.8002 3.49096 12.7732 3.49996 12.7402 3.49996C12.7072 3.49996 12.6802 3.50896 12.6802 3.51996C12.6802 3.53096 12.6532 3.53996 12.6202 3.53996C12.5872 3.53996 12.5602 3.54896 12.5602 3.55996C12.5602 3.57096 12.5332 3.57996 12.5002 3.57996C12.4672 3.57996 12.4402 3.58896 12.4402 3.59996C12.4402 3.61096 12.4132 3.61996 12.3802 3.61996C12.3472 3.61996 12.3202 3.62896 12.3202 3.63996C12.3202 3.65096 12.2983 3.65996 12.2714 3.65996C12.2446 3.65996 12.217 3.66896 12.2102 3.67996C12.2034 3.69096 12.1804 3.69996 12.159 3.69996C12.1377 3.69996 12.1202 3.70896 12.1202 3.71996C12.1202 3.73096 12.1022 3.73996 12.0801 3.73996C12.0581 3.73996 11.9934 3.76246 11.9364 3.78996C11.8794 3.81746 11.8209 3.83996 11.8065 3.83996C11.792 3.83996 11.7802 3.84896 11.7802 3.85996C11.7802 3.87096 11.7622 3.87996 11.7402 3.87996C11.7182 3.87996 11.7002 3.88896 11.7002 3.89996C11.7002 3.91096 11.6822 3.91996 11.6602 3.91996C11.6382 3.91996 11.6202 3.92686 11.6202 3.93526C11.6202 3.94366 11.5854 3.96561 11.5429 3.98406C11.5003 4.00246 11.453 4.02936 11.4379 4.04376C11.4227 4.05816 11.3832 4.08341 11.3502 4.09981C11.3172 4.11626 11.2749 4.14641 11.2561 4.16686C11.2232 4.20276 11.2216 4.20206 11.2099 4.14701C11.2033 4.11561 11.1894 4.07431 11.179 4.05521C11.1687 4.03611 11.1602 4.00291 11.1602 3.98141C11.1602 3.95991 11.1512 3.93676 11.1402 3.92996C11.1292 3.92316 11.1202 3.89616 11.1202 3.86996C11.1202 3.84376 11.1112 3.81676 11.1002 3.80996C11.0892 3.80316 11.0802 3.77561 11.0802 3.74876C11.0802 3.72191 11.0712 3.69996 11.0602 3.69996C11.0492 3.69996 11.0402 3.67296 11.0402 3.63996C11.0402 3.60696 11.0312 3.57996 11.0202 3.57996C11.0092 3.57996 11.0002 3.56196 11.0002 3.53996C11.0002 3.51796 10.9912 3.49996 10.9802 3.49996C10.9692 3.49996 10.9602 3.48601 10.9602 3.46901C10.9602 3.45196 10.9422 3.40076 10.9202 3.35526C10.8982 3.30971 10.8802 3.26066 10.8802 3.24621C10.8802 3.23176 10.8712 3.21996 10.8602 3.21996C10.8492 3.21996 10.8402 3.20196 10.8402 3.17996C10.8402 3.15796 10.8312 3.13996 10.8202 3.13996C10.8092 3.13996 10.8002 3.12196 10.8002 3.09996C10.8002 3.07796 10.7929 3.05996 10.784 3.05996C10.775 3.05996 10.7553 3.02846 10.7402 2.98996C10.7251 2.95146 10.7054 2.91996 10.6965 2.91996C10.6875 2.91996 10.6802 2.90816 10.6802 2.89371C10.6802 2.87931 10.6622 2.84816 10.6402 2.82456C10.6182 2.80096 10.6002 2.76776 10.6002 2.75081C10.6002 2.73386 10.5912 2.71996 10.5802 2.71996C10.5692 2.71996 10.5602 2.70816 10.5602 2.69371C10.5602 2.67931 10.5422 2.64816 10.5202 2.62456C10.4982 2.60096 10.4802 2.56976 10.4802 2.55521C10.4802 2.54066 10.4622 2.51581 10.4402 2.49996C10.4182 2.48411 10.4002 2.45726 10.4002 2.44036C10.4002 2.42341 10.3777 2.38531 10.3502 2.35561C10.3227 2.32596 10.3002 2.29456 10.3001 2.28581C10.3001 2.27711 10.2731 2.24121 10.2401 2.20606C10.2072 2.17091 10.1802 2.13696 10.1802 2.13061C10.1802 2.12426 10.1307 2.06961 10.0702 2.00911C10.0097 1.94861 9.96023 1.89041 9.96023 1.87976C9.96023 1.85721 9.58998 1.48711 9.45028 1.36996C9.39783 1.32596 9.34323 1.27871 9.32898 1.26496C9.31473 1.25121 9.29343 1.23996 9.28168 1.23996C9.26988 1.23996 9.26023 1.23096 9.26023 1.21996C9.26023 1.20896 9.25113 1.19996 9.24003 1.19996C9.22893 1.19996 9.19163 1.17296 9.15708 1.13996C9.12253 1.10696 9.08413 1.07996 9.07168 1.07996C9.05923 1.07996 9.03608 1.06196 9.02023 1.03996C9.00438 1.01796 8.97738 0.999962 8.96023 0.999962C8.94308 0.999962 8.91608 0.981962 8.90023 0.959962C8.88438 0.937962 8.85868 0.919962 8.84318 0.919962C8.82763 0.919962 8.80038 0.904162 8.78258 0.884812C8.76478 0.865512 8.72563 0.837062 8.69558 0.821612C8.66548 0.806212 8.62313 0.777012 8.60138 0.756762C8.57968 0.736512 8.54803 0.719962 8.53108 0.719962C8.51413 0.719962 8.50023 0.710962 8.50023 0.699962C8.50023 0.688962 8.48223 0.679962 8.46023 0.679962C8.43823 0.679962 8.42018 0.673212 8.42008 0.664962C8.41988 0.647012 8.32303 0.599962 8.28623 0.599962C8.27193 0.599962 8.26023 0.590962 8.26023 0.579962C8.26023 0.568962 8.24223 0.559962 8.22023 0.559962C8.19823 0.559962 8.18023 0.550962 8.18023 0.539962C8.18023 0.528962 8.16223 0.519962 8.14023 0.519962C8.11823 0.519962 8.10023 0.510962 8.10023 0.499962C8.10023 0.488962 8.08778 0.479962 8.07253 0.479962C8.05728 0.479962 8.01903 0.466512 7.98753 0.450062C7.95603 0.433662 7.91503 0.420162 7.89643 0.420062C7.87783 0.420012 7.85703 0.410962 7.85023 0.399962C7.84343 0.388962 7.82038 0.379962 7.79903 0.379962C7.77768 0.379962 7.76023 0.370962 7.76023 0.359962C7.76023 0.348962 7.73323 0.339962 7.70023 0.339962C7.66723 0.339962 7.64023 0.330962 7.64023 0.319962C7.64023 0.308962 7.61323 0.299962 7.58023 0.299962C7.54723 0.299962 7.52023 0.290962 7.52023 0.279962C7.52023 0.268962 7.49323 0.259962 7.46023 0.259962C7.42723 0.259962 7.40023 0.250962 7.40023 0.239962C7.40023 0.228962 7.37323 0.219962 7.34023 0.219962C7.30723 0.219962 7.28023 0.210962 7.28023 0.199962C7.28023 0.188962 7.24423 0.179962 7.20023 0.179962C7.15623 0.179962 7.12023 0.170962 7.12023 0.159962C7.12023 0.148962 7.08928 0.139962 7.05143 0.139962C7.01358 0.139962 6.97703 0.130962 6.97023 0.119962C6.96343 0.108962 6.91788 0.0999617 6.86903 0.0999617C6.82018 0.0999617 6.78023 0.0909617 6.78023 0.0799617C6.78023 0.0688617 6.72743 0.0599617 6.66188 0.0599617C6.59163 0.0599617 6.54048 0.0507617 6.53603 0.0373117C6.52833 0.0142116 5.34058 -0.00408835 4.98523 0.0134617ZM3.43333 4.10791C3.36618 4.13291 3.33178 4.15696 3.23018 4.24996C2.98038 4.47856 2.85378 5.15501 2.97648 5.60551C3.21398 6.47721 3.92163 6.51501 4.18353 5.66996C4.43723 4.85141 3.98198 3.90361 3.43333 4.10791ZM7.63518 4.10726C6.98458 4.35001 6.94708 5.91071 7.58418 6.22821C8.16118 6.51571 8.64048 5.54111 8.36303 4.64461C8.23688 4.23701 7.91813 4.00171 7.63518 4.10726ZM5.34023 6.86986C4.56113 6.98366 3.64023 7.55516 3.64023 7.92486C3.64023 8.25961 3.93818 8.30961 4.24483 8.02641C5.12063 7.21761 6.29488 7.23146 7.17118 8.06086C7.39493 8.27261 7.61848 8.26641 7.71068 8.04586C7.77518 7.89136 7.74113 7.80076 7.54723 7.61116C6.95918 7.03626 6.12323 6.75546 5.34023 6.86986ZM12.1303 7.37351C11.8084 7.46441 11.5576 8.06831 11.6209 8.59996C11.7764 9.90596 12.8852 9.76606 12.8892 8.43996C12.8914 7.72671 12.5547 7.25366 12.1303 7.37351ZM16.1902 7.39776C15.5882 7.67566 15.5675 9.12546 16.1611 9.44851C16.7797 9.78521 17.2756 8.58321 16.8645 7.74356C16.7092 7.42646 16.4339 7.28531 16.1902 7.39776ZM7.67473 9.24156C8.08418 9.31041 8.46783 9.40311 8.59468 9.46386C8.64408 9.48751 8.65188 9.50481 8.66518 9.62021C8.88818 11.5549 10.0695 13.2498 11.7802 14.0897C12.1017 14.2475 12.0693 14.2121 12.0767 14.4136C12.0868 14.6904 12.0479 15.0206 11.9571 15.43C11.9153 15.6184 11.9103 15.6364 11.8314 15.8819C11.3328 17.4334 9.97698 18.7609 8.46023 19.1828C8.42173 19.1935 8.35873 19.2113 8.32023 19.2224C8.22838 19.2489 8.14263 19.2687 7.96023 19.3052C7.59873 19.3777 7.46253 19.3895 6.99023 19.3892C6.51953 19.3888 6.37393 19.3762 6.02023 19.3052C5.93773 19.2886 5.84773 19.2707 5.82023 19.2655C5.28503 19.1635 4.47133 18.7858 3.95998 18.4019C1.12198 16.2716 1.20733 12.0988 4.13023 10.0751C4.59003 9.75676 5.30858 9.43896 5.79023 9.34096C6.10498 9.27691 6.18948 9.26166 6.34023 9.24156C6.43373 9.22906 6.55523 9.21556 6.61023 9.21151C6.79723 9.19776 7.53868 9.21871 7.67473 9.24156ZM12.0415 10.3365C11.8963 10.4144 11.8642 10.6013 11.9617 10.8C12.3331 11.5561 12.9728 12.0501 13.8302 12.243C13.9877 12.2784 14.6482 12.2789 14.8002 12.2437C15.6509 12.0468 16.2717 11.5733 16.6437 10.8379C16.7694 10.5894 16.7476 10.4165 16.5796 10.3297C16.4111 10.2425 16.2627 10.3137 16.147 10.5372C15.8334 11.1427 15.4121 11.4822 14.7502 11.6627C14.5775 11.7098 14.0065 11.6974 13.8102 11.6422C13.2097 11.4734 12.7785 11.1169 12.489 10.55C12.3666 10.3102 12.2205 10.2405 12.0415 10.3365ZM4.68498 12.6233C4.23858 12.8398 4.07143 13.7774 4.37033 14.3883C4.63173 14.9227 5.14318 14.9071 5.39968 14.3569C5.79288 13.5135 5.30243 12.3239 4.68498 12.6233ZM8.85958 12.6485C8.17298 13.0789 8.35703 14.7791 9.09023 14.7791C9.58503 14.7791 9.90923 13.8877 9.67528 13.1704C9.51403 12.6761 9.16843 12.455 8.85958 12.6485ZM4.46063 15.615C4.25623 15.7177 4.24753 15.9997 4.44503 16.1201C4.54383 16.1803 9.40798 16.183 9.52003 16.1229C9.71968 16.0158 9.71498 15.7191 9.51208 15.6209C9.38943 15.5615 4.57823 15.5559 4.46063 15.615Z" fill="#050404"/>
<path fill-rule="evenodd" clip-rule="evenodd" d="M13.9299 3.92145C12.4064 4.0574 11.1 4.78345 10.2082 5.98995C8.70415 8.0247 8.93155 10.8535 10.7422 12.6338C12.2125 14.0794 14.3524 14.5002 16.2685 13.7205C16.5407 13.6098 16.6285 13.6102 16.7508 13.7229C16.8003 13.7685 16.8458 13.8008 16.852 13.7946C16.8738 13.7728 16.7004 13.62 16.6539 13.62C16.6286 13.62 16.598 13.6101 16.5859 13.598C16.5642 13.5763 16.4645 13.5973 16.3752 13.6424C16.3561 13.6521 16.3268 13.66 16.3102 13.66C16.2935 13.66 16.2799 13.669 16.2799 13.68C16.2799 13.691 16.2619 13.7 16.2399 13.7C16.2179 13.7 16.1999 13.709 16.1999 13.72C16.1999 13.731 16.178 13.74 16.1511 13.74C16.1243 13.74 16.0967 13.749 16.0899 13.76C16.0831 13.771 16.0574 13.78 16.0327 13.78C16.0081 13.78 15.9794 13.7874 15.9689 13.7965C15.9585 13.8056 15.9094 13.8246 15.8599 13.8388C15.8104 13.853 15.7474 13.8718 15.7199 13.8807C15.6924 13.8895 15.6024 13.9115 15.5199 13.9295C15.4374 13.9475 15.3339 13.9702 15.2899 13.98C15.207 13.9985 15.0335 14.0222 14.6893 14.0621C14.4575 14.0889 14.1308 14.0788 14.0958 14.0438C14.0826 14.0307 14.0605 14.02 14.0464 14.02C13.9875 14.02 13.4988 13.7785 13.2437 13.6233C13.1412 13.561 13.0422 13.501 13.0236 13.49C12.1247 12.9574 11.162 11.6582 10.86 10.57C10.5969 9.62245 10.5577 8.81145 10.7338 7.96C10.7509 7.8775 10.7692 7.7875 10.7744 7.76C10.7881 7.6879 10.856 7.45255 10.9099 7.29C11.3689 5.906 12.4274 4.7261 13.7599 4.11285C14.1322 3.94155 14.265 3.9084 14.4584 3.9384C14.535 3.9503 14.6773 3.96 14.7748 3.96C14.8722 3.96 14.9605 3.9682 14.9709 3.97825C14.9814 3.98825 15.0394 4.00135 15.0999 4.00735C15.2918 4.0263 15.3894 4.04355 15.4089 4.06205C15.4194 4.0719 15.4577 4.08 15.4942 4.08C15.5306 4.08 15.5761 4.0881 15.5952 4.09805C15.6143 4.108 15.6704 4.12685 15.7199 4.14C15.7694 4.15315 15.8256 4.172 15.8447 4.18195C15.8638 4.1919 15.897 4.2 15.9185 4.2C15.94 4.2 15.9631 4.209 15.9699 4.22C15.9767 4.231 15.9981 4.24 16.0173 4.24C16.0366 4.24 16.0897 4.258 16.1352 4.28C16.1807 4.302 16.2275 4.32 16.2392 4.32C16.2509 4.32 16.2761 4.3286 16.2952 4.33915C16.3143 4.34965 16.4379 4.40985 16.5699 4.4729C16.7019 4.536 16.8144 4.59265 16.8199 4.5988C16.8254 4.60495 16.8479 4.61985 16.8699 4.6319C16.9692 4.68615 17.0103 4.71175 17.0356 4.735C17.0505 4.74875 17.0705 4.76 17.0799 4.76C17.0894 4.76 17.109 4.7717 17.1235 4.78595C17.138 4.8002 17.1949 4.84225 17.2499 4.8794C17.6272 5.13405 18.1879 5.6948 18.4403 6.07C18.4773 6.125 18.5149 6.173 18.5238 6.17665C18.5327 6.18035 18.5399 6.1944 18.5399 6.2079C18.5399 6.2214 18.5557 6.25035 18.5749 6.27225C18.6075 6.30925 18.6331 6.34945 18.688 6.45C18.7001 6.472 18.715 6.4945 18.7212 6.5C18.7401 6.51675 18.9999 7.05815 18.9999 7.0808C18.9999 7.0924 19.0179 7.1392 19.0399 7.1847C19.0619 7.23025 19.0799 7.282 19.0799 7.29975C19.0799 7.3175 19.0874 7.34055 19.0964 7.351C19.1115 7.3683 19.1246 7.4079 19.1854 7.62C19.1964 7.6585 19.2126 7.708 19.2213 7.73C19.2301 7.752 19.2427 7.8015 19.2493 7.84C19.256 7.8785 19.2707 7.955 19.282 8.01C19.2933 8.065 19.3069 8.155 19.3122 8.21C19.3175 8.265 19.3298 8.328 19.3394 8.35C19.3936 8.4734 19.3921 9.61085 19.3377 9.669C19.3279 9.67945 19.3199 9.7384 19.3199 9.8C19.3199 9.8616 19.3118 9.92055 19.302 9.931C19.2921 9.94145 19.2793 9.986 19.2736 10.03C19.2679 10.074 19.2539 10.146 19.2424 10.19C19.231 10.234 19.2161 10.297 19.2093 10.33C19.2025 10.363 19.1898 10.408 19.181 10.43C19.1723 10.452 19.1455 10.533 19.1215 10.61C19.0975 10.687 19.0704 10.768 19.0612 10.79C19.0521 10.812 19.0196 10.893 18.9891 10.97C18.9245 11.1327 18.8088 11.3712 18.7319 11.5C18.7023 11.5495 18.673 11.6057 18.6667 11.625C18.6604 11.6442 18.6473 11.66 18.6376 11.66C18.6279 11.66 18.6199 11.6735 18.6199 11.69C18.6199 11.7065 18.6109 11.72 18.5999 11.72C18.5889 11.72 18.5799 11.7335 18.5799 11.75C18.5799 11.7665 18.5724 11.78 18.5633 11.78C18.5542 11.78 18.5339 11.8047 18.5183 11.835C18.5027 11.8652 18.4742 11.9074 18.4549 11.9287C18.4357 11.9501 18.4199 11.976 18.4199 11.9864C18.4199 11.9968 18.4037 12.0198 18.384 12.0376C18.3642 12.0554 18.3264 12.1015 18.2999 12.14C18.2735 12.1785 18.2469 12.2145 18.2409 12.22C18.2349 12.2255 18.1579 12.3109 18.0699 12.4097C17.8762 12.6273 17.8623 12.6412 17.6992 12.7797C17.6281 12.84 17.5597 12.8985 17.5473 12.9097C17.5348 12.9208 17.4856 12.9615 17.4378 13C17.2683 13.1367 17.2397 13.1825 17.2402 13.3163C17.2406 13.4113 17.2888 13.5741 17.3076 13.5437C17.3154 13.5311 17.3062 13.4766 17.287 13.4227C17.2301 13.2625 17.2633 13.1908 17.4759 13.0147C17.7113 12.8196 18.1671 12.3671 18.2899 12.2064C18.3449 12.1345 18.3995 12.0654 18.4112 12.0528C18.5082 11.9486 18.8198 11.4273 18.939 11.17C19.0832 10.8586 19.147 10.6783 19.2613 10.26C19.4638 9.5187 19.4634 8.5075 19.2602 7.755C19.249 7.71375 19.232 7.65075 19.2224 7.615C18.7801 5.9792 17.3407 4.5398 15.7049 4.09755C15.6692 4.0879 15.6062 4.0709 15.5649 4.05975C15.0869 3.93065 14.44 3.87595 13.9299 3.92145ZM12.0649 7.36325C11.8574 7.46385 11.6805 7.7519 11.6002 8.12C11.5635 8.2882 11.5949 8.8822 11.642 8.9113C11.6519 8.9174 11.6599 8.9389 11.6599 8.95915C11.6599 9.1032 11.9732 9.5 12.0869 9.5C12.1038 9.5 12.1231 9.509 12.1299 9.52C12.1367 9.531 12.1952 9.54 12.2599 9.54C12.3246 9.54 12.3831 9.531 12.3899 9.52C12.3967 9.509 12.4206 9.5 12.443 9.5C12.5011 9.5 12.7214 9.26945 12.7774 9.15C12.8032 9.095 12.8323 9.03435 12.8421 9.01525C12.8519 8.99615 12.8599 8.9579 12.8599 8.93025C12.8599 8.9026 12.8689 8.88 12.8799 8.88C12.8909 8.88 12.8999 8.83555 12.8999 8.7812C12.8999 8.72685 12.9089 8.6768 12.9199 8.67C12.9314 8.66295 12.9399 8.5602 12.9399 8.43C12.9399 8.2998 12.9314 8.19705 12.9199 8.19C12.9089 8.1832 12.8999 8.145 12.8999 8.10515C12.8999 7.6296 12.4111 7.1953 12.0649 7.36325ZM16.1859 7.359C15.433 7.70085 15.5815 9.54 16.362 9.54C16.6049 9.54 16.9599 9.19735 16.9599 8.9629C16.9599 8.9406 16.968 8.9174 16.9778 8.9113C17.0221 8.88395 17.0615 8.17355 17.021 8.13305C17.0094 8.1215 16.9999 8.07835 16.9999 8.0372C16.9999 7.99605 16.9909 7.9568 16.9799 7.95C16.9689 7.9432 16.9599 7.91995 16.9599 7.8983C16.9599 7.8293 16.8208 7.5798 16.7339 7.49295C16.5699 7.32905 16.3632 7.2785 16.1859 7.359ZM12.5142 7.44335C13.0046 7.79225 13.0318 8.9892 12.5584 9.38835C12.2348 9.6611 11.8486 9.45375 11.6829 8.91825C11.4095 8.03475 11.9637 7.0516 12.5142 7.44335ZM16.5504 7.3974C16.8593 7.5378 17.0712 8.1229 17.0018 8.64435C16.8829 9.5381 16.2159 9.8122 15.8688 9.11C15.4692 8.30155 15.9395 7.1199 16.5504 7.3974ZM12.0175 10.3039C11.8945 10.3725 11.8197 10.582 11.8777 10.6952C11.8875 10.7143 11.9167 10.775 11.9425 10.83C11.9683 10.885 11.9947 10.9345 12.0013 10.94C12.0078 10.9455 12.0259 10.9792 12.0414 11.015C12.057 11.0507 12.0765 11.08 12.0848 11.08C12.0931 11.08 12.0999 11.0935 12.0999 11.11C12.0999 11.1265 12.1083 11.14 12.1186 11.14C12.1288 11.14 12.1429 11.1579 12.1499 11.1799C12.1568 11.2018 12.1732 11.2311 12.1862 11.2449C12.1993 11.2587 12.2459 11.3148 12.2899 11.3695C12.4973 11.6272 12.7934 11.8646 13.0999 12.0187C13.1714 12.0546 13.2456 12.0921 13.2647 12.102C13.2838 12.1119 13.313 12.12 13.3297 12.12C13.3463 12.12 13.3599 12.129 13.3599 12.14C13.3599 12.151 13.3819 12.16 13.4087 12.16C13.4356 12.16 13.4631 12.169 13.4699 12.18C13.4767 12.191 13.5082 12.2 13.5399 12.2C13.5716 12.2 13.6025 12.208 13.6086 12.2178C13.6146 12.2275 13.6534 12.2413 13.6947 12.2484C13.7361 12.2555 13.8239 12.2712 13.8899 12.2832C14.1086 12.3231 14.8203 12.3049 14.8689 12.2582C14.8794 12.2482 14.9171 12.24 14.9527 12.24C14.9884 12.24 15.0231 12.231 15.0299 12.22C15.0367 12.209 15.0637 12.2 15.0899 12.2C15.1161 12.2 15.1431 12.191 15.1499 12.18C15.1567 12.169 15.1837 12.16 15.2099 12.16C15.2361 12.16 15.2631 12.151 15.2699 12.14C15.2767 12.129 15.2998 12.12 15.3211 12.12C15.3425 12.12 15.3599 12.111 15.3599 12.1C15.3599 12.089 15.3725 12.08 15.3879 12.08C15.4379 12.08 15.7274 11.9174 15.8946 11.7955C16.0756 11.6636 16.4599 11.2623 16.4599 11.2054C16.4599 11.1914 16.4674 11.18 16.4765 11.18C16.4857 11.18 16.5059 11.1552 16.5215 11.125C16.5371 11.0947 16.5544 11.0655 16.5599 11.06C16.5923 11.0276 16.7219 10.7677 16.7611 10.6562C16.8445 10.4192 16.5372 10.1746 16.3029 10.2915C16.2396 10.323 16.1203 10.474 16.1195 10.5236C16.1192 10.5381 16.1014 10.5725 16.0799 10.6C16.0584 10.6275 16.0406 10.6574 16.0404 10.6664C16.0399 10.6841 15.937 10.8379 15.8709 10.9195C15.7874 11.0229 15.528 11.271 15.4749 11.2984C15.4447 11.314 15.4199 11.3323 15.4199 11.3392C15.4199 11.3506 15.0612 11.5272 14.9699 11.5607C14.9295 11.5756 14.8198 11.6059 14.7099 11.6327C14.6326 11.6515 13.9916 11.6508 13.8999 11.6318C13.8614 11.6238 13.8119 11.6099 13.7899 11.6009C13.7679 11.5919 13.7094 11.5725 13.6599 11.5578C13.1787 11.4148 12.7323 11.0048 12.4973 10.4901C12.4037 10.2853 12.1957 10.2045 12.0175 10.3039ZM12.3405 10.345C12.3842 10.3746 12.435 10.4448 12.4887 10.55C12.7782 11.1169 13.2094 11.4734 13.8099 11.6422C14.0062 11.6974 14.5772 11.7098 14.7499 11.6627C15.4118 11.4822 15.8331 11.1427 16.1467 10.5372C16.2624 10.3137 16.4108 10.2425 16.5793 10.3297C16.7473 10.4165 16.7691 10.5894 16.6434 10.8379C16.2714 11.5733 15.6506 12.0468 14.7999 12.2437C14.6479 12.2789 13.9874 12.2784 13.8299 12.243C12.9725 12.0501 12.3328 11.5561 11.9614 10.8C11.801 10.4734 12.0639 10.1578 12.3405 10.345Z" fill="#63B39B"/>
</g>
<defs>
<clipPath id="clip0_410_9345">
<rect width="20" height="20" fill="white"/>
</clipPath>
</defs>
</svg>
