<svg width="20" height="20" viewBox="0 0 20 20" fill="none" xmlns="http://www.w3.org/2000/svg">
<g clip-path="url(#clip0_410_9406)">
<path fill-rule="evenodd" clip-rule="evenodd" d="M4.31961 0.619976C4.31961 0.630976 4.28866 0.639976 4.25081 0.639976C4.21296 0.639976 4.17641 0.648976 4.16961 0.659976C4.16281 0.670976 4.13976 0.679976 4.11841 0.679976C4.09706 0.679976 4.07961 0.688976 4.07961 0.699976C4.07961 0.710976 4.06246 0.719976 4.04151 0.719976C3.99616 0.719976 3.83961 0.800376 3.83961 0.823676C3.83961 0.832626 3.82811 0.839976 3.81401 0.839976C3.79996 0.839976 3.77546 0.857976 3.75961 0.879976C3.74376 0.901976 3.71911 0.919976 3.70481 0.919976C3.67101 0.919976 3.41961 1.17138 3.41961 1.20518C3.41961 1.21948 3.40161 1.24413 3.37961 1.25998C3.35761 1.27583 3.33961 1.30033 3.33961 1.31438C3.33961 1.32848 3.33226 1.33998 3.32331 1.33998C3.30001 1.33998 3.21961 1.49653 3.21961 1.54188C3.21961 1.56283 3.21061 1.57998 3.19961 1.57998C3.18861 1.57998 3.17961 1.59743 3.17961 1.61878C3.17961 1.64013 3.17061 1.66318 3.15961 1.66998C3.14861 1.67678 3.13961 1.71333 3.13961 1.75118C3.13961 1.78903 3.13061 1.81998 3.11961 1.81998C3.10631 1.81998 3.09961 4.23998 3.09961 9.03998V16.26L3.19461 16.2599C3.24686 16.2598 3.39086 16.254 3.51461 16.2468L3.73961 16.2339L3.73981 9.14193C3.74006 1.39433 3.73091 1.99438 3.85256 1.74578C3.95606 1.53423 4.18796 1.35013 4.45186 1.27008C4.57551 1.23253 14.6473 1.22388 14.6704 1.26123C14.6776 1.27293 14.6704 1.29768 14.6544 1.31623C14.5647 1.42003 14.452 1.70508 14.4012 1.95653C14.386 2.03148 14.3796 4.41733 14.3796 10.0151C14.3796 15.7067 14.3734 17.9874 14.3578 18.0386C14.2251 18.4723 13.8574 18.7618 13.4427 18.7591C13.3145 18.7582 13.1369 18.7239 13.1073 18.6943C13.0994 18.6864 13.0803 18.68 13.0649 18.68C12.9934 18.68 12.7526 18.4829 12.6583 18.3473C12.5244 18.1545 12.5116 18.0935 12.5001 17.59C12.4882 17.0677 12.473 17.0078 12.3319 16.928L12.2576 16.886L6.51361 16.8753C3.35441 16.8694 0.765109 16.8703 0.759609 16.8773C0.754109 16.8842 0.731609 16.8997 0.709609 16.9116C0.687609 16.9235 0.660709 16.9528 0.649859 16.9766C0.639009 17.0005 0.623259 17.02 0.614859 17.02C0.606459 17.02 0.599609 17.281 0.599609 17.6C0.599609 17.9733 0.606759 18.18 0.619609 18.18C0.630609 18.18 0.639609 18.2109 0.639609 18.2488C0.639609 18.2866 0.648609 18.3232 0.659609 18.33C0.670609 18.3368 0.679609 18.3598 0.679609 18.3812C0.679609 18.4025 0.688609 18.42 0.699609 18.42C0.710609 18.42 0.719609 18.4425 0.719609 18.47C0.719609 18.4975 0.728609 18.52 0.739609 18.52C0.750609 18.52 0.759609 18.538 0.759609 18.56C0.759609 18.582 0.768609 18.6 0.779609 18.6C0.790609 18.6 0.799609 18.6135 0.799609 18.63C0.799609 18.6465 0.808609 18.66 0.819609 18.66C0.830609 18.66 0.839609 18.6715 0.839609 18.6856C0.839609 18.6996 0.857609 18.7241 0.879609 18.74C0.901609 18.7558 0.919609 18.7805 0.919609 18.7948C0.919609 18.8286 1.17101 19.08 1.20481 19.08C1.21911 19.08 1.24376 19.098 1.25961 19.12C1.27546 19.142 1.29996 19.16 1.31401 19.16C1.32811 19.16 1.33961 19.169 1.33961 19.18C1.33961 19.191 1.35311 19.2 1.36961 19.2C1.38611 19.2 1.39966 19.2067 1.39976 19.215C1.39996 19.2353 1.49891 19.28 1.54361 19.28C1.56341 19.28 1.57961 19.289 1.57961 19.3C1.57961 19.311 1.59706 19.32 1.61841 19.32C1.63976 19.32 1.66281 19.329 1.66961 19.34C1.67641 19.351 1.71296 19.36 1.75081 19.36C1.78866 19.36 1.81961 19.369 1.81961 19.38C1.81961 19.3933 3.82961 19.4 7.80961 19.4C11.7896 19.4 13.7996 19.3933 13.7996 19.38C13.7996 19.369 13.8267 19.36 13.8599 19.36C13.893 19.36 13.9358 19.352 13.9549 19.3423C13.974 19.3326 14.0121 19.3157 14.0396 19.3048C14.1541 19.2595 14.2796 19.1926 14.2796 19.1768C14.2796 19.1676 14.2956 19.16 14.3152 19.16C14.3348 19.16 14.3638 19.142 14.3796 19.12C14.3955 19.098 14.4164 19.08 14.4261 19.08C14.4537 19.08 14.6996 18.8233 14.6996 18.7945C14.6996 18.7804 14.7176 18.7558 14.7396 18.74C14.7616 18.7241 14.7796 18.6996 14.7796 18.6856C14.7796 18.6715 14.7872 18.66 14.7965 18.66C14.8122 18.66 14.8792 18.5344 14.9245 18.42C14.9354 18.3925 14.9522 18.3543 14.962 18.3352C14.9717 18.3161 14.9796 18.2734 14.9796 18.2402C14.9796 18.2071 14.9886 18.18 14.9996 18.18C15.0129 18.18 15.0196 15.66 15.0196 10.66V3.13998H16.1896C16.9563 3.13998 17.3596 3.13308 17.3596 3.11998C17.3596 3.10898 17.3738 3.09998 17.3911 3.09998C17.4315 3.09998 17.4796 3.05183 17.4796 3.01143C17.4796 2.99413 17.4886 2.97998 17.4996 2.97998C17.5125 2.97998 17.5196 2.77333 17.5196 2.39998C17.5196 2.02663 17.5125 1.81998 17.4996 1.81998C17.4886 1.81998 17.4796 1.78398 17.4796 1.73998C17.4796 1.69598 17.4706 1.65998 17.4596 1.65998C17.4486 1.65998 17.4396 1.64638 17.4396 1.62973C17.4396 1.61308 17.4316 1.58383 17.4218 1.56473C17.412 1.54563 17.3836 1.48723 17.3587 1.43498C17.3337 1.38273 17.3058 1.33998 17.2965 1.33998C17.2872 1.33998 17.2796 1.32848 17.2796 1.31438C17.2796 1.30033 17.2616 1.27583 17.2396 1.25998C17.2176 1.24413 17.1996 1.21958 17.1996 1.20543C17.1996 1.17663 16.9537 0.919976 16.9261 0.919976C16.9164 0.919976 16.8955 0.901976 16.8796 0.879976C16.8638 0.857976 16.8348 0.839976 16.8152 0.839976C16.7956 0.839976 16.7796 0.832376 16.7796 0.823126C16.7796 0.807376 16.6541 0.740426 16.5396 0.695126C16.5121 0.684226 16.474 0.667376 16.4549 0.657626C16.4358 0.647926 16.393 0.639976 16.3599 0.639976C16.3267 0.639976 16.2996 0.630976 16.2996 0.619976C16.2996 0.606676 14.2896 0.599976 10.3096 0.599976C6.32961 0.599976 4.31961 0.606676 4.31961 0.619976ZM16.157 1.26903C16.5028 1.36108 16.7416 1.59723 16.857 1.96138C16.8694 2.00068 16.8796 2.13793 16.8796 2.26638V2.49998H15.9396H14.9996V2.25633C14.9996 1.57408 15.5474 1.10678 16.157 1.26903ZM8.81101 2.24293C8.68451 2.28568 8.56011 2.36298 8.48111 2.44788C8.44261 2.48928 8.41381 2.50003 8.34111 2.50023C7.88511 2.50138 7.50101 2.88538 7.49986 3.34123C7.49966 3.41663 7.48906 3.44263 7.43881 3.49078C7.12651 3.78993 7.12121 4.32263 7.42751 4.62033C7.48831 4.67943 7.49931 4.70363 7.50011 4.77998C7.50481 5.23768 7.87586 5.61898 8.31791 5.62033C8.42176 5.62063 8.43521 5.62633 8.50936 5.70158C8.79266 5.98898 9.32026 5.98818 9.61736 5.69983C9.69246 5.62698 9.70896 5.61998 9.80631 5.61998C10.231 5.61998 10.6196 5.23138 10.6196 4.80668C10.6196 4.70933 10.6266 4.69283 10.6995 4.61773C10.9878 4.32063 10.9886 3.79303 10.7012 3.50973C10.626 3.43558 10.6203 3.42213 10.62 3.31828C10.6186 2.87313 10.2377 2.50418 9.77576 2.50068C9.70816 2.50018 9.67456 2.48973 9.65576 2.46333C9.50456 2.25128 9.09921 2.14553 8.81101 2.24293ZM9.13761 2.82898C9.19636 2.85933 9.25961 2.94013 9.25961 2.98473C9.25961 3.14318 9.60196 3.25478 9.72861 3.13758C9.84561 3.02928 10.0918 3.29548 9.98146 3.41098C9.85686 3.54148 9.96181 3.79533 10.1751 3.87943C10.3642 3.95398 10.3378 4.25998 10.1423 4.25998C10.0069 4.25998 9.90256 4.49278 9.96151 4.66338C10.0575 4.94128 9.94091 5.05783 9.66301 4.96188C9.49241 4.90293 9.25961 5.00728 9.25961 5.14263C9.25961 5.33813 8.95361 5.36453 8.87906 5.17548C8.79496 4.96218 8.54111 4.85723 8.41061 4.98183C8.29361 5.09358 8.02751 4.84748 8.13721 4.72898C8.25766 4.59883 8.14201 4.25998 7.97716 4.25998C7.93036 4.25998 7.82441 4.15608 7.80911 4.09518C7.78771 4.00993 7.84861 3.92268 7.96601 3.87043C8.15961 3.78423 8.23366 3.64463 8.17071 3.48458C8.05211 3.18303 8.18266 3.05248 8.48421 3.17108C8.64421 3.23403 8.78386 3.15998 8.86996 2.96658C8.93526 2.81988 9.02796 2.77223 9.13761 2.82898ZM16.5396 4.37998C16.5396 4.39098 16.5126 4.39998 16.4796 4.39998C16.4466 4.39998 16.4196 4.40898 16.4196 4.41998C16.4196 4.43098 16.3971 4.43998 16.3696 4.43998C16.3421 4.43998 16.3196 4.44898 16.3196 4.45998C16.3196 4.47098 16.3057 4.47998 16.2888 4.47998C16.2718 4.47998 16.2386 4.49798 16.215 4.51998C16.1914 4.54198 16.1603 4.55998 16.1459 4.55998C16.1314 4.55998 16.1196 4.56838 16.1196 4.57863C16.1196 4.58888 16.1039 4.60248 16.0846 4.60883C16.0441 4.62218 15.9196 4.72838 15.9196 4.74958C15.9196 4.75748 15.8949 4.78778 15.8646 4.81698C15.8344 4.84613 15.7969 4.89473 15.7812 4.92498C15.7656 4.95523 15.7454 4.97998 15.7362 4.97998C15.7271 4.97998 15.7196 4.99798 15.7196 5.01998C15.7196 5.04198 15.7106 5.05998 15.6996 5.05998C15.6886 5.05998 15.6796 5.08698 15.6796 5.11998C15.6796 5.15298 15.6706 5.17998 15.6596 5.17998C15.6486 5.17998 15.6396 5.20698 15.6396 5.23998C15.6396 5.27298 15.6306 5.29998 15.6196 5.29998C15.6063 5.29998 15.5996 7.06333 15.5996 10.55C15.5996 14.0366 15.6063 15.8 15.6196 15.8C15.6306 15.8 15.6396 15.818 15.6396 15.84C15.6396 15.862 15.6486 15.88 15.6596 15.88C15.6706 15.88 15.6796 15.898 15.6796 15.92C15.6796 15.942 15.6886 15.96 15.6996 15.96C15.7106 15.96 15.7196 15.978 15.7196 16C15.7196 16.022 15.7286 16.04 15.7396 16.04C15.7506 16.04 15.7596 16.058 15.7596 16.08C15.7596 16.102 15.7669 16.12 15.7759 16.12C15.7848 16.12 15.8045 16.1515 15.8196 16.19C15.8347 16.2285 15.8544 16.26 15.8634 16.26C15.8723 16.26 15.8796 16.278 15.8796 16.3C15.8796 16.322 15.8886 16.34 15.8996 16.34C15.9106 16.34 15.9196 16.358 15.9196 16.38C15.9196 16.402 15.9286 16.42 15.9396 16.42C15.9506 16.42 15.9596 16.438 15.9596 16.46C15.9596 16.482 15.9686 16.5 15.9796 16.5C15.9906 16.5 15.9996 16.518 15.9996 16.54C15.9996 16.562 16.0086 16.58 16.0196 16.58C16.0306 16.58 16.0396 16.598 16.0396 16.62C16.0396 16.642 16.0486 16.66 16.0596 16.66C16.0706 16.66 16.0796 16.678 16.0796 16.7C16.0796 16.722 16.0886 16.74 16.0996 16.74C16.1106 16.74 16.1196 16.758 16.1196 16.78C16.1196 16.802 16.1286 16.82 16.1396 16.82C16.1506 16.82 16.1596 16.838 16.1596 16.86C16.1596 16.882 16.1686 16.9 16.1796 16.9C16.1906 16.9 16.1996 16.918 16.1996 16.94C16.1996 16.962 16.2079 16.98 16.218 16.98C16.2282 16.98 16.2424 17.0069 16.2496 17.0397C16.2568 17.0726 16.271 17.1047 16.2812 17.1109C16.2913 17.1172 16.2996 17.1398 16.2996 17.1612C16.2996 17.1825 16.3086 17.2 16.3196 17.2C16.3306 17.2 16.3396 17.218 16.3396 17.24C16.3396 17.262 16.3486 17.28 16.3596 17.28C16.3706 17.28 16.3796 17.298 16.3796 17.32C16.3796 17.342 16.3886 17.36 16.3996 17.36C16.4106 17.36 16.4196 17.378 16.4196 17.4C16.4196 17.422 16.4286 17.44 16.4396 17.44C16.4506 17.44 16.4596 17.458 16.4596 17.48C16.4596 17.502 16.4686 17.52 16.4796 17.52C16.4906 17.52 16.4996 17.538 16.4996 17.56C16.4996 17.582 16.5086 17.6 16.5196 17.6C16.5306 17.6 16.5396 17.618 16.5396 17.64C16.5396 17.662 16.5486 17.68 16.5596 17.68C16.5706 17.68 16.5796 17.6934 16.5796 17.7097C16.5796 17.777 16.7294 17.84 16.8892 17.84C16.9719 17.84 17.0396 17.8331 17.0396 17.8247C17.0396 17.8163 17.0599 17.8006 17.0846 17.7897C17.1094 17.7789 17.1385 17.7497 17.1494 17.725C17.1602 17.7002 17.176 17.68 17.1844 17.68C17.1928 17.68 17.1996 17.662 17.1996 17.64C17.1996 17.618 17.2086 17.6 17.2196 17.6C17.2306 17.6 17.2396 17.582 17.2396 17.56C17.2396 17.538 17.2486 17.52 17.2596 17.52C17.2706 17.52 17.2796 17.502 17.2796 17.48C17.2796 17.458 17.2886 17.44 17.2996 17.44C17.3106 17.44 17.3196 17.422 17.3196 17.4C17.3196 17.378 17.3286 17.36 17.3396 17.36C17.3506 17.36 17.3596 17.342 17.3596 17.32C17.3596 17.298 17.3686 17.28 17.3796 17.28C17.3906 17.28 17.3996 17.262 17.3996 17.24C17.3996 17.218 17.4086 17.2 17.4196 17.2C17.4306 17.2 17.4396 17.182 17.4396 17.16C17.4396 17.138 17.4469 17.12 17.4559 17.12C17.4648 17.12 17.4845 17.0885 17.4996 17.05C17.5147 17.0115 17.5344 16.98 17.5434 16.98C17.5523 16.98 17.5596 16.962 17.5596 16.94C17.5596 16.918 17.5686 16.9 17.5796 16.9C17.5906 16.9 17.5996 16.882 17.5996 16.86C17.5996 16.838 17.6086 16.82 17.6196 16.82C17.6306 16.82 17.6396 16.802 17.6396 16.78C17.6396 16.758 17.6486 16.74 17.6596 16.74C17.6706 16.74 17.6796 16.722 17.6796 16.7C17.6796 16.678 17.6886 16.66 17.6996 16.66C17.7106 16.66 17.7196 16.642 17.7196 16.62C17.7196 16.598 17.7286 16.58 17.7396 16.58C17.7506 16.58 17.7596 16.562 17.7596 16.54C17.7596 16.518 17.7686 16.5 17.7796 16.5C17.7906 16.5 17.7996 16.482 17.7996 16.46C17.7996 16.438 17.8086 16.42 17.8196 16.42C17.8306 16.42 17.8396 16.402 17.8396 16.38C17.8396 16.358 17.8476 16.34 17.8574 16.34C17.8672 16.34 17.8811 16.3085 17.8883 16.27C17.8955 16.2315 17.91 16.2 17.9205 16.2C17.931 16.2 17.9396 16.182 17.9396 16.16C17.9396 16.138 17.9486 16.12 17.9596 16.12C17.9706 16.12 17.9796 16.102 17.9796 16.08C17.9796 16.058 17.9886 16.04 17.9996 16.04C18.0106 16.04 18.0196 16.022 18.0196 16C18.0196 15.978 18.0286 15.96 18.0396 15.96C18.0506 15.96 18.0596 15.942 18.0596 15.92C18.0596 15.898 18.0686 15.88 18.0796 15.88C18.0906 15.88 18.0996 15.862 18.0996 15.84C18.0996 15.818 18.1086 15.8 18.1196 15.8C18.1329 15.8 18.1396 14.1966 18.1396 11.03V6.25998H18.2796C18.3596 6.25998 18.4196 6.26853 18.4196 6.27998C18.4196 6.29098 18.4466 6.29998 18.4796 6.29998C18.5126 6.29998 18.5396 6.30898 18.5396 6.31998C18.5396 6.33098 18.5538 6.33998 18.5711 6.33998C18.6115 6.33998 18.6596 6.38813 18.6596 6.42853C18.6596 6.44583 18.6686 6.45998 18.6796 6.45998C18.6906 6.45998 18.6996 6.48698 18.6996 6.51998C18.6996 6.55298 18.7086 6.57998 18.7196 6.57998C18.7328 6.57998 18.7396 7.16663 18.7396 8.29998V10.02H19.0696H19.3996V8.14998C19.3996 6.91663 19.3928 6.27998 19.3796 6.27998C19.3686 6.27998 19.3596 6.25298 19.3596 6.21998C19.3596 6.18698 19.3506 6.15998 19.3396 6.15998C19.3286 6.15998 19.3196 6.14198 19.3196 6.11998C19.3196 6.09798 19.3106 6.07998 19.2996 6.07998C19.2886 6.07998 19.2796 6.06693 19.2796 6.05093C19.2796 6.01313 18.9865 5.71998 18.9487 5.71998C18.9327 5.71998 18.9196 5.71098 18.9196 5.69998C18.9196 5.68898 18.9016 5.67998 18.8796 5.67998C18.8576 5.67998 18.8396 5.67098 18.8396 5.65998C18.8396 5.64898 18.8126 5.63998 18.7796 5.63998C18.7466 5.63998 18.7196 5.63098 18.7196 5.61998C18.7196 5.60758 18.6096 5.59998 18.4296 5.59998H18.1396V5.44998C18.1396 5.36333 18.1312 5.29998 18.1196 5.29998C18.1086 5.29998 18.0996 5.27298 18.0996 5.23998C18.0996 5.20698 18.0906 5.17998 18.0796 5.17998C18.0686 5.17998 18.0596 5.15298 18.0596 5.11998C18.0596 5.08698 18.0506 5.05998 18.0396 5.05998C18.0286 5.05998 18.0196 5.04198 18.0196 5.01998C18.0196 4.99798 18.0121 4.97998 18.003 4.97998C17.9939 4.97998 17.9736 4.95523 17.958 4.92498C17.8955 4.80393 17.6566 4.55998 17.6005 4.55998C17.589 4.55998 17.5796 4.55098 17.5796 4.53998C17.5796 4.52898 17.5661 4.51998 17.5496 4.51998C17.5331 4.51998 17.5196 4.51098 17.5196 4.49998C17.5196 4.48898 17.5016 4.47998 17.4796 4.47998C17.4576 4.47998 17.4396 4.47098 17.4396 4.45998C17.4396 4.44898 17.4126 4.43998 17.3796 4.43998C17.3466 4.43998 17.3196 4.43098 17.3196 4.41998C17.3196 4.40898 17.2926 4.39998 17.2596 4.39998C17.2266 4.39998 17.1996 4.39098 17.1996 4.37998C17.1996 4.36743 17.0763 4.35998 16.8696 4.35998C16.663 4.35998 16.5396 4.36743 16.5396 4.37998ZM17.0141 5.02828C17.25 5.09108 17.4089 5.24963 17.4707 5.48388C17.5085 5.62723 17.5406 5.61998 16.8684 5.61998H16.2596V5.57073C16.2596 5.23133 16.6696 4.93653 17.0141 5.02828ZM17.4996 7.49998V8.73998H16.8796H16.2596V7.49998V6.25998H16.8796H17.4996V7.49998ZM9.86461 6.57458L8.43961 6.58023V6.88013V7.17998H10.0001H11.5607L11.5551 6.87498L11.5496 6.56998L11.4196 6.56943C11.3481 6.56913 10.6484 6.57148 9.86461 6.57458ZM6.57961 6.87998V7.17998H7.18961H7.79961V6.87998V6.57998H7.18961H6.57961V6.87998ZM7.49961 8.11998V8.41998L8.80961 8.42463C9.53011 8.42718 10.2299 8.42943 10.3646 8.42963L10.6096 8.42998L10.6151 8.12498L10.6207 7.81998H9.06011H7.49961V8.11998ZM4.69961 9.68998V9.99998H4.99961H5.29961V9.68998V9.37998H4.99961H4.69961V9.68998ZM5.94411 9.68493L5.94961 9.98998H9.68961H13.4296V9.68998V9.38998L9.68411 9.38493L5.93856 9.37988L5.94411 9.68493ZM17.4951 9.68498L17.4896 9.98998L16.8746 9.99528L16.2596 10.0006V9.69028V9.37998H16.8801H17.5007L17.4951 9.68498ZM5.93961 10.94V11.24H8.43961H10.9396V10.94V10.64H8.43961H5.93961V10.94ZM11.5596 10.94V11.24H12.4996H13.4396V10.94V10.64H12.4996H11.5596V10.94ZM17.4996 12.97V15.3H16.8796H16.2596V12.97V10.64H16.8796H17.4996V12.97ZM4.69961 12.19V12.5H4.99961H5.29961V12.19V11.88H4.99961H4.69961V12.19ZM5.94411 12.1849L5.94961 12.49H9.68961H13.4296V12.19V11.89L9.68411 11.8849L5.93856 11.8799L5.94411 12.1849ZM5.93961 13.44V13.74H6.86961H7.79961V13.44V13.14H6.86961H5.93961V13.44ZM8.43961 13.44V13.74H10.9396H13.4396V13.44V13.14H10.9396H8.43961V13.44ZM4.69961 14.69V15H4.99961H5.29961V14.69V14.38H4.99961H4.69961V14.69ZM5.94411 14.6849L5.94961 14.99H8.43961H10.9296V14.69V14.39L8.43411 14.3849L5.93856 14.3798L5.94411 14.6849ZM11.5685 14.4057C11.563 14.4201 11.561 14.5575 11.564 14.7109L11.5696 14.99H12.4996H13.4296V14.69V14.39L12.5041 14.3848C11.7564 14.3806 11.5766 14.3846 11.5685 14.4057ZM5.93961 15.94V16.24H9.68961H13.4396V15.94V15.64H9.68961H5.93961V15.94ZM17.2996 15.949C17.2996 15.9859 16.8912 16.7805 16.875 16.7751C16.8583 16.7695 16.4396 15.9734 16.4396 15.9473C16.4396 15.9433 16.6331 15.94 16.8696 15.94C17.1061 15.94 17.2996 15.944 17.2996 15.949ZM11.8869 17.755C11.8998 18.0473 11.916 18.1818 11.9417 18.209C11.9515 18.2194 11.9596 18.2458 11.9596 18.2675C11.9596 18.3175 12.1113 18.6327 12.161 18.686C12.1815 18.708 12.1935 18.7337 12.1878 18.743C12.1709 18.7703 2.04726 18.7647 1.96101 18.7373C1.67531 18.6468 1.45376 18.4675 1.34626 18.24C1.25106 18.0384 1.23961 17.984 1.23961 17.7336V17.5H6.55761H11.8756L11.8869 17.755Z" fill="#100B08"/>
<path fill-rule="evenodd" clip-rule="evenodd" d="M1.25977 17.709C1.25977 18.2378 1.54232 18.6128 2.01977 18.7178C2.20612 18.7588 12.1766 18.7405 12.1383 18.6993C12.0666 18.622 11.9647 18.4087 11.9236 18.25C11.9123 18.206 11.8932 18.133 11.8814 18.0877C11.8695 18.0424 11.8598 17.8962 11.8598 17.7627V17.52H6.55977H1.25977V17.709Z" fill="#C4D8C0"/>
<path fill-rule="evenodd" clip-rule="evenodd" d="M4.47123 1.29175C4.12378 1.3864 3.88133 1.6333 3.78963 1.986C3.76303 2.0883 3.75948 2.9367 3.75948 9.181V16.26H3.58948H3.41948V16.56V16.86H7.84973C11.3576 16.86 12.289 16.8652 12.3233 16.885C12.5003 16.9874 12.5195 17.0492 12.5195 17.5177C12.5195 18.0746 12.562 18.222 12.789 18.4521C13.3006 18.9704 14.1429 18.7309 14.3293 18.014C14.3559 17.9116 14.3595 16.9673 14.3595 9.93635C14.3595 4.3717 14.3659 1.94985 14.3808 1.8923C14.4349 1.6829 14.4512 1.636 14.5131 1.51C14.5666 1.40125 14.6047 1.3368 14.6345 1.30435C14.6482 1.2894 14.6595 1.2733 14.6595 1.26855C14.6595 1.24325 4.56503 1.2662 4.47123 1.29175ZM15.8095 1.2792C15.7875 1.2891 15.7487 1.2978 15.7232 1.2986C15.3623 1.30955 15.0195 1.7897 15.0195 2.2842V2.48H15.9395H16.8595L16.8588 2.295C16.8569 1.80695 16.6518 1.48885 16.2295 1.31885C16.1267 1.27745 15.8676 1.253 15.8095 1.2792ZM9.26947 2.2C9.27627 2.211 9.29848 2.22 9.31878 2.22C9.37393 2.22 9.51312 2.29965 9.61583 2.39C9.70003 2.46405 9.71988 2.47165 9.88283 2.4921C10.3245 2.5476 10.6395 2.8837 10.6395 3.29955C10.6395 3.3988 10.6467 3.41945 10.6991 3.46965C11.0211 3.77815 11.0267 4.33365 10.7108 4.6389C10.644 4.7035 10.6395 4.7157 10.6395 4.83315C10.6395 5.2531 10.2526 5.64 9.83262 5.64C9.71518 5.64 9.70298 5.6445 9.63838 5.7113C9.33313 6.0272 8.77763 6.02165 8.46913 5.6996C8.41923 5.64755 8.39792 5.63995 8.30072 5.6398C7.88217 5.63895 7.54712 5.32575 7.49157 4.88335C7.47108 4.7199 7.46368 4.70075 7.38858 4.61545C7.31402 4.5309 7.25962 4.4372 7.20202 4.29405C7.18962 4.2633 7.17948 4.15795 7.17948 4.06C7.17948 3.96205 7.18962 3.8567 7.20202 3.82595C7.25962 3.6828 7.31402 3.5891 7.38858 3.50455C7.46357 3.41935 7.47108 3.39995 7.49148 3.23775C7.54392 2.8198 7.81967 2.5443 8.23782 2.492C8.39797 2.47195 8.42093 2.46345 8.49482 2.39665C8.68482 2.22485 9.20347 2.0932 9.26947 2.2ZM7.81947 6.88V7.2H7.18948H6.55947V6.88V6.56H7.18948H7.81947V6.88ZM11.575 6.875L11.5695 7.19H9.99948H8.42948L8.42392 6.9009C8.42083 6.74195 8.42283 6.6002 8.42828 6.5859C8.43633 6.565 8.74118 6.56 10.0094 6.56H11.5805L11.575 6.875ZM10.635 8.1251L10.6405 8.44025L9.06498 8.4351L7.48948 8.43L7.48373 8.16C7.48053 8.0115 7.48298 7.8697 7.48913 7.8449L7.50028 7.79975L9.06488 7.8049L10.6295 7.81L10.635 8.1251ZM5.30948 9.69V10.01H4.99948H4.68948L4.68393 9.7109C4.67668 9.32075 4.64233 9.35795 5.00403 9.3645L5.30948 9.37V9.69ZM13.435 9.685L13.4295 10.01L9.70158 10.0151C6.96278 10.0188 5.96653 10.0142 5.94658 9.9976C5.91788 9.9738 5.90523 9.4009 5.93283 9.37335C5.94013 9.366 7.63238 9.36 9.69333 9.36H13.4405L13.435 9.685ZM10.9395 10.9401V11.2602L8.43447 11.2551L5.92948 11.25L5.92393 10.9609C5.92083 10.802 5.92283 10.6602 5.92828 10.6459C5.93633 10.6249 6.40948 10.62 8.43883 10.62H10.9395V10.9401ZM13.4395 10.94V11.26H12.4995H11.5595V10.94V10.62H12.4995H13.4395V10.94ZM5.30948 12.19V12.51H4.99948H4.68948L4.68393 12.2109C4.67668 11.8208 4.64233 11.858 5.00403 11.8645L5.30948 11.87V12.19ZM13.435 12.185L13.4295 12.51L9.70158 12.5151C6.96278 12.5188 5.96653 12.5142 5.94658 12.4976C5.91788 12.4738 5.90523 11.9009 5.93283 11.8734C5.94013 11.866 7.63238 11.86 9.69333 11.86H13.4405L13.435 12.185ZM7.81947 13.4402V13.7604L6.87448 13.7552L5.92948 13.75L5.92393 13.4609C5.92083 13.302 5.92283 13.1602 5.92828 13.1459C5.93623 13.1252 6.12698 13.12 6.87883 13.12H7.81947V13.4402ZM13.4395 13.4401V13.7602L10.9345 13.7551L8.42948 13.75L8.42398 13.435L8.41848 13.12H10.929H13.4395V13.4401ZM5.31498 14.685L5.30948 15.01H4.99948H4.68948L4.68398 14.685L4.67848 14.36H4.99948H5.32048L5.31498 14.685ZM10.935 14.685L10.9295 15.01H8.42948H5.92948L5.92393 14.7109C5.92088 14.5464 5.92283 14.4001 5.92828 14.3859C5.93633 14.3649 6.41162 14.36 8.43932 14.36H10.9405L10.935 14.685ZM13.435 14.685L13.4295 15.01H12.4995H11.5695L11.564 14.685L11.5585 14.36H12.4995H13.4405L13.435 14.685ZM13.4395 15.9401V16.2601L9.68447 16.2551L5.92948 16.25L5.92398 15.935L5.91848 15.62H9.67898H13.4395V15.9401ZM3.90448 17.515C5.36473 17.5179 7.75423 17.5179 9.21448 17.515C10.6747 17.5122 9.47998 17.5099 6.55947 17.5099C3.63897 17.5099 2.44423 17.5122 3.90448 17.515ZM11.8641 17.98C11.8641 18.0185 11.8682 18.0343 11.8733 18.015C11.8783 17.9958 11.8783 17.9643 11.8733 17.945C11.8682 17.9258 11.8641 17.9415 11.8641 17.98Z" fill="#5FCBDB"/>
<path fill-rule="evenodd" clip-rule="evenodd" d="M8.97262 2.83235C8.93717 2.85155 8.89852 2.902 8.86977 2.96655C8.78367 3.15995 8.64402 3.234 8.48402 3.17105C8.18247 3.05245 8.05192 3.183 8.17052 3.48455C8.23347 3.6446 8.15942 3.7842 7.96582 3.8704C7.84842 3.92265 7.78752 4.0099 7.80892 4.09515C7.82422 4.15605 7.93017 4.25995 7.97697 4.25995C8.14182 4.25995 8.25747 4.5988 8.13702 4.72895C8.02732 4.84745 8.29342 5.09355 8.41042 4.9818C8.54092 4.8572 8.79477 4.96215 8.87887 5.17545C8.95342 5.3645 9.25942 5.3381 9.25942 5.1426C9.25942 5.00725 9.49222 4.9029 9.66282 4.96185C9.94072 5.0578 10.0573 4.94125 9.96132 4.66335C9.90237 4.49275 10.0067 4.25995 10.1421 4.25995C10.3376 4.25995 10.364 3.95395 10.1749 3.8794C9.96162 3.7953 9.85667 3.54145 9.98127 3.41095C10.0916 3.29545 9.84542 3.02925 9.72842 3.13755C9.60177 3.25475 9.25942 3.14315 9.25942 2.9847C9.25942 2.86335 9.08567 2.77105 8.97262 2.83235ZM16.7394 5.0225C16.4836 5.09175 16.2594 5.34775 16.2594 5.5707V5.61995H16.8682C17.5404 5.61995 17.5083 5.6272 17.4705 5.48385C17.3832 5.15325 17.045 4.9398 16.7394 5.0225ZM16.2594 7.49995V8.73995H16.8794H17.4994V7.49995V6.25995H16.8794H16.2594V7.49995ZM16.2594 9.69025V10.0005L16.8744 9.99525L17.4894 9.98995L17.4949 9.68495L17.5005 9.37995H16.8799H16.2594V9.69025ZM16.2594 12.9699V15.2999H16.8794H17.4994V12.9699V10.6399H16.8794H16.2594V12.9699ZM16.4394 15.9472C16.4394 15.9734 16.8581 16.7695 16.8748 16.775C16.891 16.7805 17.2994 15.9859 17.2994 15.9489C17.2994 15.944 17.1059 15.9399 16.8694 15.9399C16.6329 15.9399 16.4394 15.9432 16.4394 15.9472Z" fill="#AC7C24"/>
<path fill-rule="evenodd" clip-rule="evenodd" d="M4.44335 1.27101C4.1045 1.37756 3.8727 1.61191 3.76945 1.95227C3.74345 2.03787 3.73975 2.93332 3.73955 9.14417L3.73935 16.2383L3.58435 16.2452L3.42935 16.252L3.59435 16.256L3.75935 16.26V9.18102C3.75935 2.93672 3.7629 2.08832 3.7895 1.98602C3.88545 1.61701 4.14905 1.36276 4.51935 1.28201C4.70645 1.24121 14.6761 1.25971 14.6379 1.30076C14.6048 1.33646 14.5684 1.39751 14.513 1.51001C14.4511 1.63601 14.4348 1.68292 14.3807 1.89232C14.3658 1.94987 14.3594 4.37172 14.3594 9.93637C14.3594 16.9673 14.3558 17.9116 14.3292 18.014C14.1428 18.7309 13.3005 18.9704 12.7889 18.4521C12.5619 18.222 12.5194 18.0746 12.5194 17.5177C12.5194 17.0492 12.5002 16.9874 12.3232 16.885C12.2888 16.8652 11.3637 16.861 7.8446 16.8649L3.40935 16.8698L7.83935 16.8799C12.2241 16.8899 12.2701 16.8904 12.3374 16.93C12.4724 17.0093 12.4881 17.0732 12.4999 17.59C12.5114 18.0936 12.5241 18.1545 12.6581 18.3473C12.7524 18.483 12.9931 18.68 13.0646 18.68C13.0801 18.68 13.0991 18.6865 13.107 18.6943C13.1367 18.724 13.3143 18.7583 13.4425 18.7591C13.8572 18.7619 14.2249 18.4724 14.3575 18.0386C14.3732 17.9875 14.3794 15.7068 14.3794 10.0151C14.3794 4.41737 14.3857 2.03152 14.4009 1.95657C14.4517 1.70512 14.5645 1.42006 14.6541 1.31626C14.6702 1.29771 14.6774 1.27296 14.6702 1.26126C14.6485 1.22621 4.5553 1.23581 4.44335 1.27101ZM15.7091 1.26761C15.252 1.39506 14.9994 1.74701 14.9994 2.25637V2.50002H15.9394H16.8794V2.26642C16.8794 1.58216 16.3134 1.09911 15.7091 1.26761ZM16.1194 1.28981C16.3691 1.33591 16.6351 1.53826 16.7472 1.76741C16.8259 1.92817 16.8578 2.07947 16.8587 2.29502L16.8594 2.48002H15.9394H15.0194V2.28422C15.0194 1.78971 15.3622 1.30956 15.7231 1.29861C15.7486 1.29781 15.7874 1.28911 15.8094 1.27921C15.8496 1.26106 15.9896 1.26586 16.1194 1.28981ZM8.77935 2.22697C8.63185 2.28467 8.5883 2.31092 8.4907 2.40092C8.42615 2.46042 8.3881 2.47902 8.3186 2.48517L8.22935 2.49302L8.33085 2.49652C8.417 2.49947 8.43975 2.49212 8.48085 2.44792C8.78265 2.12347 9.4191 2.13182 9.6555 2.46337C9.67575 2.49177 9.70495 2.49922 9.7855 2.49652L9.88935 2.49302L9.8008 2.48522C9.7311 2.47902 9.6924 2.45957 9.6189 2.39372C9.5154 2.30097 9.37545 2.22002 9.31865 2.22002C9.29835 2.22002 9.27615 2.21102 9.26935 2.20002C9.24535 2.16117 8.89875 2.18027 8.77935 2.22697ZM8.0343 2.53042C7.76545 2.62912 7.49405 2.95742 7.50115 3.17522C7.50255 3.21867 7.5081 3.21137 7.5279 3.14002C7.61765 2.81632 7.81575 2.61762 8.1369 2.52907C8.21425 2.50777 8.21955 2.50352 8.16935 2.50322C8.13635 2.50302 8.07555 2.51522 8.0343 2.53042ZM9.98955 2.52737C10.3556 2.62317 10.6186 2.95332 10.6197 3.31832C10.62 3.42217 10.6257 3.43562 10.701 3.50977C10.9884 3.79307 10.9876 4.32067 10.6992 4.61777C10.6264 4.69287 10.6194 4.70937 10.6194 4.80672C10.6194 5.23142 10.2308 5.62002 9.80605 5.62002C9.7087 5.62002 9.6922 5.62702 9.6171 5.69987C9.32 5.98822 8.7924 5.98902 8.5091 5.70162C8.43495 5.62637 8.4215 5.62067 8.31765 5.62037C7.9539 5.61927 7.623 5.35552 7.5268 4.99002L7.50045 4.89002L7.5083 4.97737C7.5388 5.31637 7.9248 5.63907 8.3006 5.63982C8.3978 5.63997 8.4191 5.64757 8.469 5.69962C8.7775 6.02167 9.333 6.02722 9.63825 5.71132C9.70285 5.64452 9.71505 5.64002 9.8325 5.64002C10.2525 5.64002 10.6394 5.25312 10.6394 4.83317C10.6394 4.71572 10.6439 4.70352 10.7107 4.63892C11.0266 4.33367 11.021 3.77817 10.699 3.46967C10.6466 3.41947 10.6394 3.39882 10.6394 3.29957C10.6394 2.92627 10.3151 2.53942 9.9767 2.50897L9.88935 2.50112L9.98955 2.52737ZM7.48295 3.31707C7.48 3.38877 7.4643 3.42087 7.3941 3.49897C7.3159 3.58597 7.2608 3.67972 7.2019 3.82597C7.1895 3.85672 7.17935 3.96207 7.17935 4.06002C7.17935 4.15797 7.1895 4.26332 7.2019 4.29407C7.2606 4.43987 7.31575 4.53392 7.3928 4.61962C7.45895 4.69322 7.47835 4.73167 7.48455 4.80147L7.49235 4.89002L7.49565 4.79002C7.4986 4.69962 7.49205 4.68337 7.42725 4.62037C7.12295 4.32462 7.12195 3.83657 7.425 3.50652C7.4955 3.42972 7.50105 3.41527 7.4941 3.32652L7.48655 3.23002L7.48295 3.31707ZM6.55935 6.88002V7.20002H7.18935H7.81935V6.88002V6.56002H7.18935H6.55935V6.88002ZM8.42815 6.58592C8.4227 6.60022 8.4207 6.74197 8.4238 6.90092L8.42935 7.19002H9.99935H11.5694L11.5749 6.87502C11.5779 6.70177 11.5734 6.56002 11.5649 6.55997C11.5564 6.55997 11.5521 6.69947 11.5554 6.86997L11.5613 7.18002H10.0004H8.43935V6.88017V6.58027L9.86435 6.57502L11.2894 6.56977L9.8637 6.56487C8.7112 6.56097 8.4362 6.56497 8.42815 6.58592ZM7.79935 6.88002V7.18002H7.18935H6.57935V6.88002V6.58002H7.18935H7.79935V6.88002ZM9.06535 7.81497L10.6213 7.82027L10.6154 8.13017C10.6121 8.30062 10.6164 8.44007 10.6249 8.44007C10.6334 8.44002 10.6379 8.29827 10.6349 8.12502L10.6294 7.81002L9.06935 7.80982L7.50935 7.80967L9.06535 7.81497ZM7.4885 8.13002L7.48935 8.43002L8.80435 8.43022L10.1194 8.43047L8.8099 8.42507L7.5004 8.41972L7.494 8.12487L7.48765 7.83002L7.4885 8.13002ZM4.68835 9.38537C4.6828 9.39992 4.68075 9.54637 4.6838 9.71092L4.68935 10.01H4.99935H5.30935V9.69002V9.37002L5.0039 9.36452C4.7654 9.36017 4.6963 9.36477 4.68835 9.38537ZM5.9327 9.37337C5.9077 9.39832 5.9175 9.97017 5.94335 9.99602C5.97065 10.0233 13.4095 10.0323 13.4263 10.005C13.4314 9.99677 11.7512 9.99002 9.69245 9.99002H5.94935L5.94385 9.68492L5.9383 9.37982L9.68885 9.38492C11.7516 9.38772 13.4394 9.38327 13.4394 9.37502C13.4394 9.35647 5.9512 9.35482 5.9327 9.37337ZM5.29935 9.69002V10H4.99935H4.69935V9.69002V9.38002H4.99935H5.29935V9.69002ZM5.92815 10.6459C5.9227 10.6602 5.9207 10.802 5.9238 10.9609L5.92935 11.25L8.42935 11.2501L10.9294 11.2503L8.43435 11.2451L5.93935 11.2399V10.94V10.6402L8.44435 10.635L10.9494 10.6299L8.4437 10.6249C6.40675 10.6209 5.93625 10.6249 5.92815 10.6459ZM12.0244 10.635C12.2856 10.6382 12.7131 10.6382 12.9744 10.635C13.2356 10.6318 13.0219 10.6293 12.4994 10.6293C11.9769 10.6293 11.7631 10.6318 12.0244 10.635ZM12.0244 11.255C12.2856 11.2582 12.7131 11.2582 12.9744 11.255C13.2356 11.2518 13.0219 11.2493 12.4994 11.2493C11.9769 11.2493 11.7631 11.2518 12.0244 11.255ZM4.68835 11.8854C4.6828 11.8999 4.68075 12.0464 4.6838 12.2109L4.68935 12.51H4.99935H5.30935V12.19V11.87L5.0039 11.8645C4.7654 11.8602 4.6963 11.8648 4.68835 11.8854ZM5.9327 11.8734C5.9077 11.8983 5.9175 12.4702 5.94335 12.496C5.97065 12.5233 13.4095 12.5323 13.4263 12.505C13.4314 12.4968 11.7512 12.49 9.69245 12.49H5.94935L5.94385 12.1849L5.9383 11.8798L9.68885 11.8849C11.7516 11.8877 13.4394 11.8833 13.4394 11.875C13.4394 11.8565 5.9512 11.8548 5.9327 11.8734ZM5.29935 12.19V12.5H4.99935H4.69935V12.19V11.88H4.99935H5.29935V12.19ZM5.92815 13.1459C5.9227 13.1602 5.9207 13.302 5.9238 13.4609L5.92935 13.75L6.87435 13.7552L7.81935 13.7604V13.4402V13.12H6.8787C6.12685 13.12 5.9361 13.1252 5.92815 13.1459ZM8.42385 13.435L8.42935 13.75L10.9294 13.7501L13.4294 13.7503L10.9344 13.7451L8.43935 13.7399V13.44V13.1402L10.9444 13.135L13.4494 13.1299L10.9339 13.1249L8.41835 13.12L8.42385 13.435ZM7.79935 13.44V13.74H6.86935H5.93935V13.44V13.14H6.86935H7.79935V13.44ZM4.68385 14.685L4.68935 15.01H4.99935H5.30935L5.31485 14.685L5.32035 14.36H4.99935H4.67835L4.68385 14.685ZM5.92815 14.3859C5.9227 14.4001 5.92075 14.5464 5.9238 14.7109L5.92935 15.01L8.41825 15.0151C9.7872 15.0179 10.914 15.0134 10.9223 15.0051C10.9306 14.9968 9.81505 14.99 8.44335 14.99H5.94935L5.94385 14.6849L5.9383 14.3797L8.43885 14.3849C9.8141 14.3877 10.9394 14.3833 10.9394 14.375C10.9394 14.3461 5.9393 14.3569 5.92815 14.3859ZM11.5594 14.375C11.5594 14.3833 11.9824 14.39 12.4994 14.39C13.0164 14.39 13.4394 14.3833 13.4394 14.375C13.4394 14.3668 13.0164 14.36 12.4994 14.36C11.9824 14.36 11.5594 14.3668 11.5594 14.375ZM5.29935 14.69V15H4.99935H4.69935V14.69V14.38H4.99935H5.29935V14.69ZM11.5725 15.005C11.5776 15.0133 11.9947 15.02 12.4994 15.02C13.0041 15.02 13.4212 15.0133 13.4263 15.005C13.4314 14.9968 13.0143 14.99 12.4994 14.99C11.9845 14.99 11.5674 14.9968 11.5725 15.005ZM5.92385 15.935L5.92935 16.25L9.68935 16.2501L13.4494 16.2502L9.69435 16.2451L5.93935 16.2399V15.94V15.6401L9.69435 15.635L13.4494 15.6299L9.68385 15.625L5.91835 15.62L5.92385 15.935ZM1.2428 17.7286C1.2391 17.9835 1.24975 18.0362 1.346 18.24C1.4535 18.4676 1.67505 18.6468 1.96075 18.7374C2.047 18.7647 12.1707 18.7703 12.1875 18.7431C12.1933 18.7337 12.1812 18.7081 12.1607 18.6861C12.1096 18.6312 11.9594 18.3169 11.9594 18.2647C11.9594 18.2414 11.9504 18.2168 11.9394 18.21C11.8894 18.1791 11.9863 18.4405 12.0914 18.62L12.1558 18.73L7.1326 18.7361C1.7748 18.7425 1.99365 18.7463 1.78115 18.643C1.44555 18.4799 1.28235 18.2006 1.25945 17.75L1.2462 17.49L1.2428 17.7286ZM11.8669 17.71C11.8669 17.831 11.8702 17.8779 11.8742 17.8143C11.8782 17.7506 11.8781 17.6516 11.8741 17.5943C11.8701 17.5369 11.8668 17.589 11.8669 17.71ZM11.8837 18.01C11.8839 18.043 11.891 18.097 11.8994 18.13L11.9146 18.19L11.915 18.12C11.9152 18.0815 11.9082 18.0275 11.8994 18C11.8838 17.9515 11.8834 17.9518 11.8837 18.01Z" fill="#34747C"/>
</g>
<defs>
<clipPath id="clip0_410_9406">
<rect width="20" height="20" fill="white"/>
</clipPath>
</defs>
</svg>
