<svg width="20" height="20" viewBox="0 0 20 20" fill="none" xmlns="http://www.w3.org/2000/svg">
<g clip-path="url(#clip0_410_9367)">
<path fill-rule="evenodd" clip-rule="evenodd" d="M1.93775 6.90887C1.5755 7.00917 1.3061 7.33142 1.259 7.72072C1.2259 7.99432 1.2431 16.0668 1.277 16.17C1.39585 16.5318 1.6582 16.7774 2.00535 16.8518C2.1064 16.8735 2.7638 16.8787 5.4883 16.8793L8.84671 16.88L9.21831 17.0831C9.42266 17.1948 9.63941 17.3131 9.69991 17.3458C9.76041 17.3786 9.84591 17.4256 9.88991 17.4503C9.93391 17.4749 10.0329 17.5291 10.1099 17.5708C10.2772 17.6613 10.8291 17.962 10.9699 18.0394C11.0658 18.0922 11.1948 18.1627 11.4099 18.2801C11.4649 18.3101 11.5729 18.3687 11.6499 18.4102C11.7269 18.4518 11.8008 18.4943 11.814 18.5046C11.8744 18.5516 11.8799 18.4917 11.88 17.7938C11.8801 16.7693 11.6931 16.8804 13.4199 16.8793C14.4373 16.8788 14.7781 16.8724 14.8699 16.8524C15.2102 16.7784 15.4577 16.5556 15.5706 16.2219L15.6199 16.0761V13.9781V11.88H13.4696H11.3192L10.9646 12.0732C10.7695 12.1794 10.5739 12.2862 10.5299 12.3104C10.4544 12.352 10.3668 12.3999 10.1099 12.54C10.0494 12.573 9.95266 12.6259 9.89491 12.6577C9.83716 12.6894 9.59191 12.8233 9.34991 12.9552C9.10791 13.0871 8.86941 13.2173 8.81991 13.2447C8.77041 13.2721 8.67591 13.3239 8.60991 13.36C7.93761 13.7272 7.91116 13.74 7.82111 13.74C7.69956 13.74 7.60696 13.6891 7.5492 13.5906L7.49991 13.5065V12.6932V11.88L6.3649 11.8799C5.18175 11.8799 5.0549 11.8725 4.8099 11.7893C4.34495 11.6313 3.98205 11.2587 3.8172 10.77L3.76995 10.63L3.75995 8.75997L3.7499 6.88997L2.8899 6.88667C2.2453 6.88417 2.0068 6.88972 1.93775 6.90887ZM14.2335 13.8029C14.3733 13.8878 14.38 13.9294 14.3792 14.7113C14.3783 15.6145 14.3599 15.6967 14.0999 15.9615C13.8326 16.2337 13.6936 16.2645 12.7682 16.256C12.1461 16.2503 12.1061 16.2477 12.04 16.2089C11.8205 16.08 11.828 15.7664 12.053 15.6606C12.1345 15.6223 12.1787 15.6199 12.8247 15.619C13.8134 15.6176 13.7399 15.6878 13.7399 14.7459C13.7399 14.0096 13.7484 13.938 13.8468 13.8437C13.9576 13.7373 14.1007 13.7222 14.2335 13.8029ZM2.34875 13.799C2.49755 13.8971 2.4997 13.9097 2.4998 14.6873C2.49995 15.6903 2.4302 15.62 3.4245 15.62C4.10525 15.62 4.11465 15.6205 4.2007 15.666C4.4259 15.7851 4.42815 16.1017 4.2046 16.2128C4.09305 16.2683 2.7327 16.2694 2.5541 16.2142C2.24575 16.1189 2.0137 15.8889 1.9201 15.5859C1.85865 15.387 1.8584 14.0055 1.9198 13.9048C2.00475 13.7655 2.21805 13.7129 2.34875 13.799Z" fill="#E61424"/>
<path fill-rule="evenodd" clip-rule="evenodd" d="M4.93961 0.619976C4.93961 0.630976 4.91251 0.639976 4.87936 0.639976C4.84621 0.639976 4.80121 0.648976 4.77936 0.659976C4.75751 0.670976 4.72171 0.688976 4.69986 0.699976C4.67801 0.710976 4.64651 0.719976 4.62986 0.719976C4.61321 0.719976 4.59961 0.728976 4.59961 0.739976C4.59961 0.750976 4.58361 0.759976 4.56401 0.759976C4.54446 0.759976 4.51546 0.777976 4.49961 0.799976C4.48376 0.821976 4.45676 0.839976 4.43961 0.839976C4.42246 0.839976 4.39546 0.857976 4.37961 0.879976C4.36376 0.901976 4.33911 0.919976 4.32481 0.919976C4.29101 0.919976 4.03961 1.17138 4.03961 1.20518C4.03961 1.21948 4.02161 1.24413 3.99961 1.25998C3.97761 1.27583 3.95961 1.30033 3.95961 1.31438C3.95961 1.32848 3.95166 1.33998 3.94191 1.33998C3.93216 1.33998 3.90856 1.37373 3.88951 1.41498C3.72871 1.76303 3.73961 1.57203 3.73961 4.04333V6.23823L2.74461 6.24413L1.74961 6.24998L1.57961 6.31753C1.48611 6.35468 1.39101 6.40193 1.36831 6.42253C1.34561 6.44313 1.31836 6.45998 1.30776 6.45998C1.29711 6.45998 1.27546 6.47798 1.25961 6.49998C1.24376 6.52198 1.21911 6.53998 1.20481 6.53998C1.17101 6.53998 0.919609 6.79138 0.919609 6.82518C0.919609 6.83948 0.901609 6.86413 0.879609 6.87998C0.857609 6.89583 0.839609 6.92283 0.839609 6.93998C0.839609 6.95713 0.821609 6.98413 0.799609 6.99998C0.777609 7.01583 0.759609 7.04483 0.759609 7.06438C0.759609 7.08398 0.750609 7.09998 0.739609 7.09998C0.728609 7.09998 0.719609 7.11358 0.719609 7.13023C0.719609 7.14688 0.710609 7.17838 0.699609 7.20023C0.688609 7.22208 0.670609 7.25788 0.659609 7.27973C0.648609 7.30158 0.639609 7.34658 0.639609 7.37973C0.639609 7.41288 0.630609 7.43998 0.619609 7.43998C0.606359 7.43998 0.599609 8.92998 0.599609 11.87C0.599609 14.81 0.606359 16.3 0.619609 16.3C0.630609 16.3 0.639609 16.3271 0.639609 16.3602C0.639609 16.3934 0.647559 16.4361 0.657259 16.4552C0.667009 16.4743 0.683859 16.5125 0.694759 16.54C0.740059 16.6544 0.807009 16.78 0.822759 16.78C0.832009 16.78 0.839609 16.796 0.839609 16.8156C0.839609 16.8351 0.857609 16.8641 0.879609 16.88C0.901609 16.8958 0.919609 16.9167 0.919609 16.9264C0.919609 16.954 1.17626 17.2 1.20506 17.2C1.21921 17.2 1.24376 17.218 1.25961 17.24C1.27546 17.262 1.29996 17.28 1.31401 17.28C1.32811 17.28 1.33961 17.2873 1.33961 17.2963C1.33961 17.3196 1.49616 17.4 1.54151 17.4C1.56246 17.4 1.57961 17.409 1.57961 17.42C1.57961 17.431 1.59761 17.44 1.61961 17.44C1.64161 17.44 1.65961 17.449 1.65961 17.46C1.65961 17.471 1.69561 17.48 1.73961 17.48C1.78361 17.48 1.81961 17.489 1.81961 17.5C1.81961 17.5132 2.97296 17.52 5.23961 17.52C7.50626 17.52 8.65961 17.5267 8.65961 17.54C8.65961 17.551 8.67141 17.56 8.68586 17.56C8.70026 17.56 8.72951 17.5757 8.75086 17.595C8.77216 17.6143 8.83461 17.6525 8.88961 17.68C8.94461 17.7075 8.99261 17.7367 8.99626 17.745C8.99996 17.7532 9.01946 17.76 9.03961 17.76C9.05976 17.76 9.07926 17.7667 9.08296 17.775C9.09346 17.7987 9.29151 17.9 9.32731 17.9C9.34506 17.9 9.35961 17.909 9.35961 17.92C9.35961 17.931 9.37761 17.94 9.39961 17.94C9.42161 17.94 9.43961 17.949 9.43961 17.96C9.43961 17.971 9.45351 17.98 9.47046 17.98C9.48741 17.98 9.52061 17.998 9.54421 18.02C9.56781 18.042 9.59896 18.06 9.61336 18.06C9.62781 18.06 9.63961 18.0673 9.63961 18.0762C9.63961 18.0852 9.67111 18.1049 9.70961 18.12C9.74811 18.1351 9.77961 18.1548 9.77961 18.1637C9.77961 18.1727 9.79761 18.18 9.81961 18.18C9.84161 18.18 9.85961 18.189 9.85961 18.2C9.85961 18.211 9.87761 18.22 9.89961 18.22C9.92161 18.22 9.93961 18.2279 9.93961 18.2376C9.93961 18.2474 9.95536 18.2603 9.97461 18.2664C10.0214 18.2812 10.1279 18.3462 10.1363 18.365C10.14 18.3732 10.1602 18.38 10.1813 18.38C10.2024 18.38 10.2196 18.389 10.2196 18.4C10.2196 18.411 10.2376 18.42 10.2596 18.42C10.2816 18.42 10.2996 18.429 10.2996 18.44C10.2996 18.451 10.3176 18.46 10.3396 18.46C10.3616 18.46 10.3796 18.4684 10.3796 18.4786C10.3796 18.4889 10.3976 18.503 10.4195 18.5099C10.4414 18.5169 10.4707 18.5333 10.4845 18.5464C10.4983 18.5595 10.5996 18.6152 10.7096 18.6701C10.8196 18.725 10.9126 18.7767 10.9163 18.785C10.92 18.7932 10.9402 18.8 10.9613 18.8C10.9824 18.8 10.9996 18.809 10.9996 18.82C10.9996 18.831 11.0176 18.84 11.0396 18.84C11.0616 18.84 11.0796 18.849 11.0796 18.86C11.0796 18.871 11.0976 18.88 11.1196 18.88C11.1416 18.88 11.1596 18.889 11.1596 18.9C11.1596 18.911 11.1735 18.92 11.1905 18.92C11.2074 18.92 11.2406 18.938 11.2642 18.96C11.2878 18.982 11.319 19 11.3334 19C11.3478 19 11.3596 19.009 11.3596 19.02C11.3596 19.031 11.3731 19.04 11.3896 19.04C11.4061 19.04 11.4196 19.049 11.4196 19.06C11.4196 19.071 11.4376 19.08 11.4596 19.08C11.4816 19.08 11.4996 19.089 11.4996 19.1C11.4996 19.111 11.5176 19.12 11.5396 19.12C11.5616 19.12 11.5796 19.129 11.5796 19.14C11.5796 19.151 11.5935 19.16 11.6105 19.16C11.6274 19.16 11.6606 19.178 11.6842 19.2C11.7078 19.222 11.739 19.24 11.7534 19.24C11.7678 19.24 11.7796 19.249 11.7796 19.26C11.7796 19.271 11.7976 19.28 11.8196 19.28C11.8416 19.28 11.8596 19.289 11.8596 19.3C11.8596 19.311 11.8776 19.32 11.8996 19.32C11.9216 19.32 11.9396 19.329 11.9396 19.34C11.9396 19.351 11.9576 19.36 11.9796 19.36C12.0016 19.36 12.0196 19.369 12.0196 19.38C12.0196 19.3917 12.0896 19.4 12.1896 19.4C12.2831 19.4 12.3597 19.3932 12.3598 19.385C12.3598 19.3767 12.3868 19.3546 12.4198 19.3359C12.4527 19.3172 12.4796 19.2879 12.4796 19.2709C12.4796 19.2539 12.4886 19.24 12.4996 19.24C12.5126 19.24 12.5196 18.94 12.5196 18.38V17.52H13.7896C14.623 17.52 15.0596 17.5131 15.0596 17.5C15.0596 17.489 15.0906 17.48 15.1284 17.48C15.1663 17.48 15.2028 17.471 15.2096 17.46C15.2164 17.449 15.2395 17.44 15.2608 17.44C15.2822 17.44 15.2996 17.431 15.2996 17.42C15.2996 17.409 15.3221 17.4 15.3496 17.4C15.3771 17.4 15.3996 17.391 15.3996 17.38C15.3996 17.369 15.4156 17.36 15.4352 17.36C15.4548 17.36 15.4838 17.342 15.4996 17.32C15.5155 17.298 15.5425 17.28 15.5596 17.28C15.5768 17.28 15.6038 17.262 15.6196 17.24C15.6355 17.218 15.66 17.2 15.6742 17.2C15.703 17.2 15.9596 16.954 15.9596 16.9264C15.9596 16.9167 15.9776 16.8958 15.9996 16.88C16.0216 16.8641 16.0396 16.8351 16.0396 16.8156C16.0396 16.796 16.0468 16.78 16.0556 16.78C16.0755 16.78 16.1596 16.6097 16.1596 16.5694C16.1596 16.5532 16.1672 16.54 16.1764 16.54C16.2527 16.54 16.2596 16.3353 16.2596 14.0821V11.9H17.2196C17.8463 11.9 18.1796 11.893 18.1796 11.88C18.1796 11.869 18.2106 11.86 18.2484 11.86C18.2863 11.86 18.3228 11.851 18.3296 11.84C18.3364 11.829 18.3595 11.82 18.3808 11.82C18.4022 11.82 18.4196 11.811 18.4196 11.8C18.4196 11.789 18.4358 11.78 18.4556 11.78C18.5003 11.78 18.5993 11.7353 18.5995 11.715C18.5996 11.7067 18.6131 11.7 18.6296 11.7C18.6461 11.7 18.6596 11.691 18.6596 11.68C18.6596 11.669 18.6711 11.66 18.6852 11.66C18.6993 11.66 18.7238 11.642 18.7396 11.62C18.7555 11.598 18.7801 11.58 18.7944 11.58C18.8282 11.58 19.0796 11.3286 19.0796 11.2948C19.0796 11.2805 19.0976 11.2558 19.1196 11.24C19.1416 11.2241 19.1596 11.1996 19.1596 11.1856C19.1596 11.1715 19.1686 11.16 19.1796 11.16C19.1906 11.16 19.1996 11.1465 19.1996 11.13C19.1996 11.1135 19.2064 11.0999 19.2146 11.0998C19.2349 11.0996 19.2796 11.0007 19.2796 10.956C19.2796 10.9362 19.2886 10.92 19.2996 10.92C19.3106 10.92 19.3196 10.9025 19.3196 10.8812C19.3196 10.8598 19.3286 10.8368 19.3396 10.83C19.3506 10.8232 19.3596 10.7866 19.3596 10.7488C19.3596 10.7109 19.3686 10.68 19.3796 10.68C19.3929 10.68 19.3996 9.18998 19.3996 6.24998C19.3996 3.30998 19.3929 1.81998 19.3796 1.81998C19.3686 1.81998 19.3596 1.78903 19.3596 1.75118C19.3596 1.71333 19.3506 1.67678 19.3396 1.66998C19.3286 1.66318 19.3196 1.64013 19.3196 1.61878C19.3196 1.59743 19.3106 1.57998 19.2996 1.57998C19.2886 1.57998 19.2796 1.56283 19.2796 1.54188C19.2796 1.49653 19.1992 1.33998 19.1759 1.33998C19.167 1.33998 19.1596 1.32848 19.1596 1.31438C19.1596 1.30033 19.1416 1.27583 19.1196 1.25998C19.0976 1.24413 19.0796 1.21948 19.0796 1.20518C19.0796 1.17138 18.8282 0.919976 18.7944 0.919976C18.7801 0.919976 18.7555 0.901976 18.7396 0.879976C18.7238 0.857976 18.6993 0.839976 18.6852 0.839976C18.6711 0.839976 18.6596 0.832376 18.6596 0.823126C18.6596 0.807376 18.5341 0.740426 18.4196 0.695126C18.3921 0.684226 18.354 0.667376 18.3349 0.657626C18.3158 0.647926 18.273 0.639976 18.2399 0.639976C18.2067 0.639976 18.1796 0.630976 18.1796 0.619976C18.1796 0.606676 15.9596 0.599976 11.5596 0.599976C7.15961 0.599976 4.93961 0.606676 4.93961 0.619976ZM18.0474 1.27008C18.3922 1.37468 18.6249 1.60743 18.7295 1.95223C18.7744 2.09998 18.7744 10.4 18.7295 10.5477C18.6249 10.8925 18.3922 11.1253 18.0474 11.2299C17.9627 11.2556 17.4973 11.2597 14.5696 11.2604L11.1896 11.2612L11.0796 11.3167C11.0191 11.3472 10.8076 11.4609 10.6096 11.5693C10.4116 11.6778 10.2024 11.7921 10.1446 11.8233C9.92736 11.9406 9.82681 11.9954 9.73461 12.0469C9.53591 12.1579 9.11506 12.3871 8.81961 12.5453C8.73711 12.5894 8.66061 12.6322 8.64961 12.6403C8.63861 12.6484 8.56211 12.6908 8.47961 12.7345C8.39711 12.7782 8.29561 12.8333 8.25401 12.857C8.11166 12.938 8.11961 12.9762 8.11961 12.2124C8.11961 11.4755 8.11496 11.4366 8.01636 11.348C7.93171 11.2719 7.90091 11.2701 6.50961 11.2592C5.59066 11.252 5.10456 11.2411 5.05466 11.2263C4.74246 11.1342 4.46416 10.8415 4.38876 10.526C4.34751 10.3534 4.34646 2.12118 4.38766 1.96648C4.47701 1.63078 4.74111 1.36018 5.06961 1.26773C5.20651 1.22918 17.9202 1.23148 18.0474 1.27008ZM5.74961 1.90908C5.69461 1.92208 5.63161 1.93948 5.60961 1.94778C5.57226 1.96188 5.55391 1.97108 5.44961 2.02808C5.25276 2.13558 5.05991 2.44118 5.02196 2.70578C4.98656 2.95248 4.99246 4.00868 5.02996 4.13483C5.09471 4.35303 5.33096 4.42883 5.50081 4.28588C5.61576 4.18918 5.61946 4.16178 5.62106 3.40253C5.62311 2.42633 5.55291 2.49998 6.48156 2.49998C6.86486 2.49998 7.17841 2.49123 7.23571 2.47893C7.51776 2.41848 7.57141 2.05593 7.31751 1.92608C7.21456 1.87338 5.95861 1.85978 5.74961 1.90908ZM7.07641 3.78688C6.99811 3.82168 6.93996 3.88038 6.90796 3.95703C6.86951 4.04908 6.86516 8.44413 6.90341 8.53403C6.98221 8.71913 7.16636 8.78673 7.33026 8.69068C7.49456 8.59438 7.48886 8.63998 7.49526 7.36498L7.50086 6.23998H8.30836C9.09331 6.23998 9.11806 6.23878 9.19546 6.19748C9.40566 6.08528 9.40836 5.78648 9.20016 5.68023C9.12486 5.64183 9.08356 5.63998 8.31041 5.63998H7.49961V4.99998V4.35998H8.31041C9.08356 4.35998 9.12486 4.35813 9.20016 4.31973C9.40606 4.21463 9.40571 3.91823 9.19951 3.80233C9.10946 3.75173 7.18701 3.73773 7.07641 3.78688ZM10.7976 3.80263C10.6858 3.86748 10.653 3.94693 10.4769 4.57998C10.4661 4.61848 10.4494 4.67698 10.4396 4.70998C10.4299 4.74298 10.4129 4.80148 10.4019 4.83998C10.3909 4.87848 10.3729 4.94148 10.3619 4.97998C10.3509 5.01848 10.3319 5.08598 10.3196 5.12998C10.2952 5.21788 10.2675 5.31498 10.2385 5.41498C10.2145 5.49773 10.1854 5.59948 10.1585 5.69498C10.1469 5.73623 10.1289 5.79923 10.1185 5.83498C10.0908 5.93043 10.0671 6.01523 10.0305 6.14998C10.0126 6.21598 9.94876 6.44098 9.88866 6.64998C9.82856 6.85898 9.76936 7.06598 9.75716 7.10998C9.74496 7.15398 9.72806 7.21248 9.71961 7.23998C9.71116 7.26748 9.69316 7.33048 9.67961 7.37998C9.66606 7.42948 9.64806 7.49248 9.63961 7.51998C9.63116 7.54748 9.61316 7.61048 9.59961 7.65998C9.58606 7.70948 9.56806 7.77248 9.55961 7.79998C9.55116 7.82748 9.53316 7.89048 9.51961 7.93998C9.50606 7.98948 9.48806 8.05248 9.47961 8.07998C9.47116 8.10748 9.45326 8.17048 9.43986 8.21998C9.42641 8.26948 9.40736 8.33063 9.39751 8.35593C9.30201 8.60083 9.61901 8.84273 9.84166 8.69483C9.93651 8.63178 9.97401 8.53913 10.1289 7.98498L10.2644 7.49998L11.087 7.50013L11.9096 7.50028L11.9346 7.55413C11.9484 7.58373 11.9596 7.62813 11.9596 7.65278C11.9596 7.67743 11.9686 7.70318 11.9796 7.70998C11.9906 7.71678 11.9996 7.74828 11.9996 7.77998C11.9996 7.81168 12.0086 7.84318 12.0196 7.84998C12.0306 7.85678 12.0396 7.88443 12.0396 7.91143C12.0396 7.93843 12.0477 7.97613 12.0577 7.99523C12.0676 8.01433 12.0866 8.07048 12.1 8.11998C12.1133 8.16948 12.1312 8.23248 12.1396 8.25998C12.1481 8.28748 12.1657 8.35048 12.1788 8.39998C12.2569 8.69453 12.4298 8.80723 12.6355 8.69748C12.8337 8.59168 12.8355 8.52568 12.6575 7.90528C12.5794 7.63288 12.5069 7.37848 12.4964 7.33998C12.4859 7.30148 12.4694 7.24298 12.4596 7.20998C12.4499 7.17698 12.4329 7.11848 12.4219 7.07998C12.4109 7.04148 12.3929 6.97848 12.3819 6.93998C12.3709 6.90148 12.3519 6.83398 12.3396 6.78998C12.3274 6.74598 12.3089 6.68073 12.2985 6.64498C12.2881 6.60923 12.2701 6.54623 12.2585 6.50498C12.2469 6.46373 12.2284 6.39848 12.2174 6.35998C12.2064 6.32148 12.1889 6.26073 12.1785 6.22498C12.1545 6.14223 12.1254 6.04048 12.0985 5.94498C12.0869 5.90373 12.0694 5.84298 12.0596 5.80998C12.0499 5.77698 12.0324 5.71623 12.0208 5.67498C12.0091 5.63373 11.9906 5.56848 11.9796 5.52998C11.9686 5.49148 11.9501 5.42623 11.9385 5.38498C11.9269 5.34373 11.9097 5.28298 11.9003 5.24998C11.8645 5.12403 11.5989 4.18618 11.5775 4.10998C11.4925 3.80768 11.4245 3.75968 11.0822 3.76043C10.9035 3.76083 10.8581 3.76753 10.7976 3.80263ZM14.7696 3.78018C14.7366 3.78908 14.6601 3.80753 14.5996 3.82123C14.5391 3.83488 14.4761 3.85298 14.4596 3.86138C14.4431 3.86983 14.3846 3.89643 14.3296 3.92053C13.8783 4.11818 13.5516 4.56933 13.4681 5.10998C13.4332 5.33643 13.4275 7.17098 13.4611 7.37768C13.6404 8.47973 14.7944 9.07583 15.7331 8.55118C15.8574 8.48168 15.8766 8.48518 15.987 8.59733C16.3361 8.95178 16.7496 8.53513 16.4091 8.17208C16.2796 8.03408 16.2854 8.06778 16.3653 7.91528C16.5427 7.57678 16.5597 7.43213 16.5593 6.26768C16.5588 5.09358 16.5443 4.95503 16.3871 4.62558C16.2074 4.24898 15.7884 3.90758 15.3996 3.82103C15.3391 3.80753 15.2571 3.78828 15.2173 3.77823C15.1307 3.75638 14.8537 3.75758 14.7696 3.78018ZM15.217 4.38903C15.5488 4.47733 15.7843 4.69293 15.8968 5.01133C15.9386 5.12973 15.9396 5.15913 15.9396 6.23823C15.9396 7.70308 15.9375 7.71183 15.6501 7.41808C15.4123 7.17488 15.2835 7.14428 15.12 7.29198C14.9545 7.44153 14.9822 7.58238 15.2266 7.83508C15.4285 8.04378 15.4294 8.05098 15.2605 8.10163C14.7875 8.24348 14.2729 7.97108 14.1025 7.48863C14.0606 7.37018 14.0596 7.34108 14.0596 6.24998C14.0596 5.15888 14.0606 5.12978 14.1025 5.01133C14.2682 4.54208 14.7601 4.26743 15.217 4.38903ZM11.1309 4.73498C11.1375 4.76523 11.1501 4.81248 11.1589 4.83998C11.1678 4.86748 11.1861 4.93048 11.1996 4.97998C11.2132 5.02948 11.2312 5.09248 11.2396 5.11998C11.2481 5.14748 11.2661 5.21048 11.2796 5.25998C11.2932 5.30948 11.3113 5.37248 11.3199 5.39998C11.425 5.73618 11.7337 6.85078 11.7257 6.86498C11.7211 6.87323 11.4343 6.87998 11.0884 6.87998C10.3932 6.87998 10.4265 6.88673 10.4775 6.75593C10.4874 6.73063 10.5064 6.66948 10.5199 6.61998C10.5333 6.57048 10.5512 6.50748 10.5596 6.47998C10.5681 6.45248 10.5861 6.38948 10.5996 6.33998C10.6132 6.29048 10.631 6.22748 10.6392 6.19998C10.6617 6.12428 10.6917 6.01903 10.7162 5.92998C10.7283 5.88598 10.7563 5.78698 10.7785 5.70998C10.8007 5.63298 10.8692 5.38998 10.9308 5.16998C11.0777 4.64503 11.1004 4.59558 11.1309 4.73498ZM3.75966 8.75998L3.76966 10.63L3.81691 10.77C3.98176 11.2587 4.34466 11.6313 4.80961 11.7893C5.05461 11.8725 5.18146 11.8799 6.36461 11.8799L7.49961 11.88V12.6932V13.5065L7.54891 13.5906C7.60666 13.6891 7.69926 13.74 7.82081 13.74C7.91086 13.74 7.93731 13.7272 8.60961 13.36C8.67561 13.3239 8.77011 13.2721 8.81961 13.2447C8.86911 13.2173 9.10761 13.0871 9.34961 12.9552C9.59161 12.8233 9.83686 12.6894 9.89461 12.6577C9.95236 12.6259 10.0491 12.573 10.1096 12.54C10.3665 12.3999 10.4541 12.352 10.5296 12.3104C10.5736 12.2862 10.7692 12.1794 10.9643 12.0732L11.3189 11.88H13.4693H15.6196V13.9781V16.0761L15.5703 16.2219C15.4574 16.5556 15.2099 16.7784 14.8696 16.8524C14.7778 16.8724 14.437 16.8788 13.4196 16.8793C11.6928 16.8804 11.8798 16.7693 11.8797 17.7938C11.8796 18.4917 11.8741 18.5516 11.8137 18.5046C11.8005 18.4943 11.7266 18.4518 11.6496 18.4102C11.5726 18.3687 11.4646 18.3101 11.4096 18.2801C11.1945 18.1627 11.0655 18.0922 10.9696 18.0394C10.8288 17.962 10.2769 17.6613 10.1096 17.5708C10.0326 17.5291 9.93361 17.4749 9.88961 17.4503C9.84561 17.4256 9.76011 17.3786 9.69961 17.3458C9.63911 17.3131 9.42236 17.1948 9.21801 17.0831L8.84641 16.88L5.48801 16.8793C2.76351 16.8787 2.10611 16.8735 2.00506 16.8518C1.65791 16.7774 1.39556 16.5318 1.27671 16.17C1.24281 16.0668 1.22561 7.99433 1.25871 7.72073C1.29661 7.40748 1.47611 7.13533 1.73926 6.99213C1.93551 6.88528 1.95966 6.88308 2.88961 6.88668L3.74961 6.88998L3.75966 8.75998ZM17.6696 8.17718C17.5067 8.27783 17.4999 8.31573 17.4997 9.11998C17.4994 10.0704 17.5701 9.99973 16.6196 10C16.1988 10.0001 15.9199 10.0083 15.8696 10.022C15.5962 10.0965 15.5591 10.4601 15.8127 10.5793C15.9152 10.6275 17.1662 10.6421 17.3543 10.5973C17.754 10.5022 18.0019 10.2544 18.097 9.85468C18.1417 9.66653 18.1271 8.41553 18.079 8.31308C18.0068 8.15943 17.8062 8.09283 17.6696 8.17718ZM13.9796 13.7631C13.7599 13.8257 13.7396 13.9088 13.7396 14.7459C13.7396 15.6878 13.8131 15.6176 12.8244 15.619C12.1784 15.6199 12.1342 15.6223 12.0527 15.6606C11.8277 15.7664 11.8202 16.08 12.0397 16.2089C12.1232 16.2579 13.2973 16.282 13.5667 16.2402C13.9433 16.1818 14.2637 15.8891 14.3511 15.5235C14.4009 15.3149 14.3906 14.0353 14.3382 13.927C14.2721 13.7905 14.123 13.7223 13.9796 13.7631ZM2.02441 13.7999C1.87891 13.8886 1.87976 13.8832 1.87966 14.7129C1.87961 15.4005 1.88261 15.4654 1.91981 15.5859C2.01341 15.8889 2.24546 16.1189 2.55381 16.2142C2.73241 16.2694 4.09276 16.2683 4.20431 16.2128C4.42786 16.1017 4.42561 15.7851 4.20041 15.666C4.11436 15.6205 4.10496 15.62 3.42421 15.62C2.42991 15.62 2.49966 15.6903 2.49951 14.6873C2.49941 13.9949 2.49906 13.9894 2.45336 13.9139C2.36106 13.7615 2.17051 13.7108 2.02441 13.7999Z" fill="#241C23"/>
<path fill-rule="evenodd" clip-rule="evenodd" d="M5.18978 1.27993C5.16778 1.28943 5.12898 1.29778 5.10353 1.29858C4.82728 1.30698 4.47133 1.69508 4.40743 2.05758C4.37703 2.22993 4.36883 9.10488 4.39793 10.01C4.41323 10.4851 4.45928 10.76 4.52358 10.76C4.53248 10.76 4.53978 10.7735 4.53978 10.79C4.53978 10.8065 4.54878 10.82 4.55978 10.82C4.57078 10.82 4.57978 10.8298 4.57978 10.8417C4.57978 10.8726 4.79968 11.08 4.83248 11.08C4.84748 11.08 4.85978 11.089 4.85978 11.1C4.85978 11.111 4.87778 11.12 4.89978 11.12C4.92178 11.12 4.93978 11.129 4.93978 11.14C4.93978 11.151 4.96228 11.16 4.98978 11.16C5.01728 11.16 5.03978 11.1681 5.03978 11.178C5.03978 11.2161 5.29158 11.2248 6.60348 11.2326L7.95718 11.2405L8.04848 11.3318L8.13979 11.4231L8.14139 12.1566C8.14224 12.5599 8.14749 12.8787 8.15304 12.865C8.15859 12.8512 8.18039 12.84 8.20144 12.84C8.22254 12.84 8.23979 12.8331 8.23979 12.8247C8.23979 12.8163 8.27354 12.7939 8.31479 12.7749C8.35604 12.756 8.43479 12.7136 8.48979 12.6807C8.54479 12.6478 8.63929 12.5962 8.69979 12.5661C8.76029 12.5361 8.81279 12.5044 8.81643 12.4957C8.82014 12.4871 8.82999 12.48 8.83834 12.48C8.84674 12.48 8.97814 12.4125 9.13034 12.33C9.28254 12.2476 9.43239 12.1689 9.46344 12.1552C9.49444 12.1414 9.51979 12.1234 9.51979 12.1151C9.51979 12.1068 9.53779 12.1 9.55979 12.1C9.58179 12.1 9.59979 12.0927 9.59979 12.0837C9.59979 12.0748 9.63129 12.0551 9.66979 12.04C9.70829 12.0249 9.73979 12.0074 9.73979 12.0011C9.73979 11.9949 9.76904 11.977 9.80479 11.9615C9.84054 11.9459 9.87429 11.9278 9.87979 11.9213C9.88529 11.9148 9.93479 11.8872 9.98979 11.86C10.0448 11.8328 10.0943 11.8059 10.0998 11.8002C10.1053 11.7946 10.1503 11.7686 10.1998 11.7424C10.3895 11.642 10.5958 11.5307 10.7472 11.447C10.8338 11.3991 10.9077 11.36 10.9113 11.36C10.915 11.36 10.9637 11.333 11.0196 11.3001L11.1211 11.2402L14.4955 11.233C16.3513 11.229 17.9103 11.2195 17.9598 11.2118C18.2145 11.172 18.5084 10.9563 18.6173 10.7291C18.688 10.5817 18.6962 10.5583 18.7116 10.46C18.7301 10.3424 18.7301 2.15758 18.7116 2.03998C18.6715 1.78423 18.456 1.49018 18.2296 1.38243C18.0804 1.31143 18.0578 1.30348 17.9598 1.28813C17.8286 1.26758 5.23728 1.25948 5.18978 1.27993ZM7.32503 1.88498C7.57188 2.02293 7.58213 2.34138 7.34403 2.47518C7.26578 2.51918 7.25173 2.51998 6.57838 2.51998C5.57093 2.51998 5.63978 2.45028 5.63978 3.47003C5.63978 4.19368 5.63958 4.19558 5.54823 4.29133C5.40308 4.44353 5.12618 4.40468 5.02073 4.21728C4.96823 4.12403 4.95758 2.77518 5.00783 2.58648C5.06063 2.38808 5.27148 2.05998 5.34613 2.05998C5.35458 2.05998 5.38078 2.04198 5.40438 2.01998C5.42798 1.99798 5.45913 1.97998 5.47353 1.97998C5.48798 1.97998 5.49978 1.97098 5.49978 1.95998C5.49978 1.94898 5.51338 1.93998 5.53003 1.93998C5.54668 1.93998 5.57593 1.93203 5.59503 1.92233C5.69698 1.87053 5.79503 1.86413 6.51503 1.86213C7.09343 1.86048 7.29123 1.86608 7.32503 1.88498ZM9.20354 3.76498C9.41194 3.88548 9.45209 4.12873 9.29034 4.29053L9.20084 4.37998H8.36034H7.51978V4.98998V5.59998H7.84653C8.02623 5.59998 8.40598 5.60598 8.69038 5.61328L9.20744 5.62658L9.29364 5.71278C9.41964 5.83878 9.41519 6.07733 9.28484 6.17998C9.18324 6.26003 9.18378 6.25998 8.34003 6.25998H7.51978V7.37868C7.51978 8.12048 7.51263 8.51633 7.49853 8.55368C7.47293 8.62143 7.38253 8.71998 7.34603 8.71998C7.33158 8.71998 7.31978 8.72898 7.31978 8.73998C7.31978 8.83813 6.98463 8.73098 6.90323 8.60683L6.85978 8.54053V6.24998V3.95943L6.90318 3.89323C7.00728 3.73443 6.94198 3.74263 8.11503 3.74123C8.91679 3.74028 9.17039 3.74583 9.20354 3.76498ZM11.4285 3.78468C11.5318 3.85238 11.553 3.90303 11.7139 4.46743C11.7959 4.75483 11.8721 5.02148 11.8832 5.05998C11.8944 5.09848 11.9082 5.15933 11.9138 5.19518C11.9195 5.23103 11.9322 5.26528 11.942 5.27133C11.9518 5.27738 11.9598 5.30828 11.9598 5.33998C11.9598 5.37168 11.9688 5.40318 11.9798 5.40998C11.9908 5.41678 11.9998 5.44828 11.9998 5.47998C11.9998 5.51168 12.0088 5.54318 12.0198 5.54998C12.0308 5.55678 12.0398 5.58828 12.0398 5.61998C12.0398 5.65168 12.0488 5.68318 12.0598 5.68998C12.0708 5.69678 12.0798 5.72828 12.0798 5.75998C12.0798 5.79168 12.0888 5.82318 12.0998 5.82998C12.1108 5.83678 12.1198 5.86828 12.1198 5.89998C12.1198 5.93168 12.1277 5.96253 12.1375 5.96853C12.1472 5.97458 12.16 6.00433 12.1658 6.03473C12.1717 6.06513 12.1862 6.12373 12.1981 6.16498C12.228 6.26848 12.2559 6.36638 12.2809 6.45498C12.2925 6.49623 12.31 6.55698 12.3198 6.58998C12.3295 6.62298 12.347 6.68373 12.3586 6.72498C12.3703 6.76623 12.3883 6.82923 12.3986 6.86498C12.409 6.90073 12.4263 6.96148 12.437 6.99998C12.4477 7.03848 12.5021 7.23198 12.5579 7.42998C12.6138 7.62798 12.6696 7.82598 12.6819 7.86998C12.6943 7.91398 12.7113 7.97248 12.7198 7.99998C12.7282 8.02748 12.7461 8.09048 12.7595 8.13998C12.773 8.18948 12.792 8.25063 12.8019 8.27593C12.8939 8.51188 12.7391 8.75998 12.4998 8.75998C12.2924 8.75998 12.2169 8.67118 12.1172 8.30998C12.1051 8.26598 12.0882 8.20748 12.0798 8.17998C12.0713 8.15248 12.0535 8.08948 12.0401 8.03998C12.0268 7.99048 12.0078 7.93433 11.9978 7.91523C11.9879 7.89613 11.9798 7.85843 11.9798 7.83143C11.9798 7.80443 11.9708 7.77678 11.9598 7.76998C11.9488 7.76318 11.9398 7.73168 11.9398 7.69998C11.9398 7.66828 11.9308 7.63678 11.9198 7.62998C11.9088 7.62318 11.8998 7.59563 11.8998 7.56878V7.51998H11.0898C10.2996 7.51998 10.2798 7.52093 10.2798 7.55903C10.2798 7.58053 10.2719 7.61878 10.2623 7.64403C10.2458 7.68748 10.2366 7.71818 10.1827 7.90998C9.96504 8.68343 9.97169 8.66768 9.83349 8.73908C9.56519 8.87763 9.26474 8.58553 9.37769 8.29593C9.38754 8.27063 9.40659 8.20948 9.42004 8.15998C9.43344 8.11048 9.45134 8.04748 9.45979 8.01998C9.46824 7.99248 9.48609 7.92948 9.49944 7.87998C9.51279 7.83048 9.53179 7.77433 9.54174 7.75523C9.55169 7.73613 9.55979 7.69843 9.55979 7.67143C9.55979 7.64443 9.56879 7.61678 9.57979 7.60998C9.59079 7.60318 9.59979 7.57168 9.59979 7.53998C9.59979 7.50828 9.60879 7.47678 9.61979 7.46998C9.63079 7.46318 9.63979 7.43853 9.63979 7.41523C9.63979 7.37528 9.66579 7.27973 9.70104 7.18998C9.70969 7.16798 9.72134 7.12748 9.72689 7.09998C9.73244 7.07248 9.74614 7.01848 9.75729 6.97998C9.76844 6.94148 9.78704 6.87623 9.79864 6.83498C9.82234 6.75083 9.81874 6.76363 9.95794 6.26998C10.0138 6.07198 10.0696 5.87398 10.0819 5.82998C10.0943 5.78598 10.1113 5.72748 10.1198 5.69998C10.1282 5.67248 10.1461 5.60948 10.1594 5.55998C10.1728 5.51048 10.1918 5.45433 10.2017 5.43523C10.2117 5.41613 10.2198 5.37843 10.2198 5.35143C10.2198 5.32443 10.2288 5.29678 10.2398 5.28998C10.2508 5.28318 10.2598 5.25168 10.2598 5.21998C10.2598 5.18828 10.2688 5.15678 10.2798 5.14998C10.2908 5.14318 10.2998 5.11168 10.2998 5.07998C10.2998 5.04828 10.3088 5.01678 10.3198 5.00998C10.3308 5.00318 10.3398 4.97168 10.3398 4.93998C10.3398 4.90828 10.3488 4.87678 10.3598 4.86998C10.3708 4.86318 10.3798 4.83168 10.3798 4.79998C10.3798 4.76828 10.3888 4.73678 10.3998 4.72998C10.4108 4.72318 10.4198 4.69168 10.4198 4.65998C10.4198 4.62828 10.4288 4.59678 10.4398 4.58998C10.4508 4.58318 10.4598 4.55553 10.4598 4.52853C10.4598 4.50153 10.4679 4.46383 10.4778 4.44473C10.4878 4.42563 10.5068 4.36948 10.5201 4.31998C10.5335 4.27048 10.5514 4.20748 10.56 4.17998C10.5686 4.15248 10.5909 4.07848 10.6094 4.01553C10.6791 3.77918 10.7399 3.74493 11.0951 3.74208C11.3379 3.74018 11.3661 3.74373 11.4285 3.78468ZM15.3749 3.77013C15.4217 3.77788 15.465 3.79223 15.4711 3.80208C15.4772 3.81193 15.4957 3.81998 15.5122 3.81998C15.6634 3.81998 16.1128 4.14448 16.26 4.35998C16.2863 4.39848 16.3128 4.43448 16.3188 4.43998C16.3894 4.50438 16.52 4.82518 16.5589 5.02998C16.6075 5.28568 16.5707 7.61848 16.5176 7.65133C16.5078 7.65738 16.4998 7.68378 16.4998 7.70998C16.4998 7.73618 16.4908 7.76318 16.4798 7.76998C16.4688 7.77678 16.4598 7.79983 16.4598 7.82118C16.4598 7.84253 16.4508 7.85998 16.4398 7.85998C16.4288 7.85998 16.4198 7.87798 16.4198 7.89998C16.4198 7.92198 16.413 7.94003 16.4048 7.94013C16.3265 7.94093 16.3439 8.05303 16.4374 8.14923C16.6473 8.36543 16.6337 8.60328 16.4039 8.73498C16.321 8.78248 16.104 8.76168 16.0393 8.69998C16.0335 8.69448 15.9907 8.65438 15.9442 8.61083L15.8596 8.53163L15.7447 8.58813C15.6815 8.61918 15.6141 8.65253 15.595 8.66228C15.5759 8.67203 15.5427 8.67998 15.5212 8.67998C15.4997 8.67998 15.4766 8.68898 15.4698 8.69998C15.463 8.71098 15.4327 8.71998 15.4026 8.71998C15.3724 8.71998 15.3383 8.72943 15.3267 8.74103C15.286 8.78178 14.556 8.74233 14.5285 8.69788C14.5224 8.68803 14.5036 8.67998 14.4866 8.67998C14.3655 8.67998 13.924 8.38418 13.7998 8.21983C13.7723 8.18343 13.7385 8.14223 13.7248 8.12823C13.711 8.11428 13.6998 8.09318 13.6998 8.08143C13.6998 8.06963 13.6921 8.05998 13.6828 8.05998C13.6734 8.05998 13.6363 7.99923 13.6003 7.92498C13.5064 7.73133 13.4983 7.70898 13.4411 7.48768C13.4272 7.43413 13.4198 7.00718 13.4198 6.26763C13.4198 5.05603 13.4236 4.99808 13.5187 4.74998C13.5518 4.66383 13.6579 4.46083 13.6807 4.43998C13.6868 4.43448 13.7136 4.39848 13.7403 4.35998C13.8848 4.15153 14.138 3.96063 14.4298 3.84013C14.4628 3.82648 14.5054 3.80738 14.5245 3.79763C14.5436 3.78793 14.5841 3.77983 14.6145 3.77968C14.6449 3.77953 14.6833 3.77038 14.6998 3.75943C14.732 3.73798 15.228 3.74588 15.3749 3.77013ZM14.8498 4.41068C14.7838 4.42493 14.7028 4.44628 14.6698 4.45813C14.6368 4.46993 14.594 4.48523 14.5748 4.49213C14.5555 4.49903 14.5398 4.51258 14.5398 4.52233C14.5398 4.53203 14.5267 4.53998 14.5106 4.53998C14.4082 4.53998 14.1622 4.89108 14.1092 5.11288C14.0684 5.28338 14.0684 7.21658 14.1092 7.38708C14.1622 7.60888 14.4082 7.95998 14.5106 7.95998C14.5267 7.95998 14.5398 7.96678 14.5398 7.97508C14.5398 8.00323 14.7093 8.06198 14.8898 8.09643C14.9892 8.11543 15.2054 8.08993 15.3168 8.04608C15.3622 8.02823 15.358 8.02148 15.2002 7.85918C14.9468 7.59858 14.9122 7.40578 15.0926 7.25998C15.2795 7.10898 15.4165 7.14203 15.6896 7.40393C15.8471 7.55513 15.845 7.55533 15.8882 7.38708C15.9322 7.21568 15.934 5.29568 15.8904 5.11288C15.8172 4.80673 15.5923 4.54973 15.3098 4.44948C15.2648 4.43358 14.9953 4.37873 14.9798 4.38238C14.9743 4.38368 14.9158 4.39643 14.8498 4.41068ZM11.0538 4.84498C11.0481 4.88073 11.0344 4.94148 11.0234 4.97998C11.0123 5.01848 10.9486 5.24348 10.8817 5.47998C10.8148 5.71648 10.7498 5.94598 10.7373 5.98998C10.7247 6.03398 10.7055 6.10148 10.6946 6.13998C10.6838 6.17848 10.667 6.22563 10.6573 6.24473C10.6477 6.26383 10.6398 6.30153 10.6398 6.32853C10.6398 6.35553 10.6308 6.38318 10.6198 6.38998C10.6088 6.39678 10.5998 6.42828 10.5998 6.45998C10.5998 6.49168 10.5908 6.52318 10.5798 6.52998C10.5688 6.53678 10.5598 6.56828 10.5598 6.59998C10.5598 6.63168 10.5508 6.66318 10.5398 6.66998C10.5288 6.67678 10.5198 6.70828 10.5198 6.73998C10.5198 6.77168 10.5108 6.80318 10.4998 6.80998C10.432 6.85188 10.5277 6.85998 11.0911 6.85998C11.6917 6.85998 11.7022 6.85928 11.6899 6.82028C11.6796 6.78783 11.5781 6.42433 11.458 5.98998C11.4458 5.94598 11.4278 5.89433 11.4178 5.87523C11.4079 5.85613 11.3998 5.81843 11.3998 5.79143C11.3998 5.76443 11.3908 5.73678 11.3798 5.72998C11.3688 5.72318 11.3598 5.69168 11.3598 5.65998C11.3598 5.62828 11.3508 5.59678 11.3398 5.58998C11.3288 5.58318 11.3198 5.55168 11.3198 5.51998C11.3198 5.48828 11.3108 5.45678 11.2998 5.44998C11.2888 5.44318 11.2798 5.41168 11.2798 5.37998C11.2798 5.34828 11.2708 5.31678 11.2598 5.30998C11.2488 5.30318 11.2398 5.27168 11.2398 5.23998C11.2398 5.20828 11.2308 5.17678 11.2198 5.16998C11.2088 5.16318 11.1998 5.13168 11.1998 5.09998C11.1998 5.06828 11.1908 5.03678 11.1798 5.02998C11.1688 5.02318 11.1598 4.99168 11.1598 4.95998C11.1598 4.92828 11.1508 4.89678 11.1398 4.88998C11.1288 4.88318 11.1198 4.85563 11.1198 4.82878C11.1198 4.75538 11.066 4.76858 11.0538 4.84498ZM17.9469 8.12748C17.9831 8.14263 18.0413 8.18968 18.0763 8.23203L18.1398 8.30908V9.11338C18.1398 9.62798 18.1326 9.92208 18.1198 9.92998C18.1088 9.93678 18.0998 9.96378 18.0998 9.98998C18.0998 10.0162 18.0908 10.0432 18.0798 10.05C18.0688 10.0568 18.0598 10.0798 18.0598 10.1012C18.0598 10.1225 18.053 10.14 18.0447 10.14C18.0363 10.14 18.0175 10.1673 18.0027 10.2006C17.968 10.279 17.7788 10.4682 17.7004 10.5029C17.6671 10.5177 17.6398 10.5365 17.6398 10.5449C17.6398 10.5532 17.6223 10.56 17.601 10.56C17.5796 10.56 17.5566 10.569 17.5498 10.58C17.543 10.591 17.516 10.6 17.4898 10.6C17.4636 10.6 17.4366 10.609 17.4298 10.62C17.4219 10.6328 17.1274 10.64 16.6122 10.64H15.807L15.7248 10.5697C15.5845 10.4495 15.5602 10.2519 15.6683 10.1101C15.7678 9.97963 15.7654 9.98003 16.5138 9.97968C17.542 9.97923 17.479 10.0422 17.4795 9.01398C17.4798 8.30283 17.4826 8.27788 17.5728 8.19633C17.6778 8.10128 17.8211 8.07493 17.9469 8.12748Z" fill="#F6C604"/>
<path fill-rule="evenodd" clip-rule="evenodd" d="M5.06975 1.26777C4.74125 1.36022 4.47715 1.63082 4.3878 1.96652C4.3466 2.12122 4.34765 10.3534 4.3889 10.526C4.4643 10.8415 4.7426 11.1342 5.0548 11.2264C5.1047 11.2411 5.59079 11.2521 6.50974 11.2593C7.90104 11.2701 7.93184 11.2719 8.01649 11.348C8.11509 11.4366 8.11974 11.4755 8.11974 12.2125C8.11974 12.9762 8.11179 12.938 8.25414 12.857C8.29574 12.8334 8.39724 12.7782 8.47974 12.7346C8.56224 12.6909 8.63874 12.6485 8.64974 12.6404C8.66074 12.6323 8.73724 12.5895 8.81974 12.5453C9.11519 12.3872 9.53604 12.1579 9.73474 12.047C9.82694 11.9955 9.92749 11.9406 10.1447 11.8233C10.2025 11.7922 10.4117 11.6779 10.6097 11.5694C10.8077 11.4609 11.0192 11.3472 11.0797 11.3167L11.1897 11.2613L14.5697 11.2604C17.4974 11.2597 17.9628 11.2556 18.0475 11.2299C18.3923 11.1253 18.625 10.8926 18.7296 10.5478C18.7745 10.4 18.7745 2.10002 18.7296 1.95227C18.625 1.60747 18.3923 1.37472 18.0475 1.27012C17.9203 1.23152 5.20665 1.22922 5.06975 1.26777ZM18.0257 1.28812C18.3631 1.37602 18.6234 1.63542 18.7107 1.97072C18.7536 2.13517 18.7544 10.3616 18.7116 10.526C18.624 10.8622 18.3619 11.1243 18.0257 11.2119C17.9351 11.2355 17.3778 11.24 14.5478 11.24C11.3062 11.24 11.175 11.2414 11.1038 11.2771C11.0239 11.3171 10.8524 11.4096 10.7397 11.4735C10.7012 11.4954 10.5977 11.552 10.5097 11.5994C10.3684 11.6755 9.98429 11.8853 9.62974 12.0799C9.56374 12.1162 9.46474 12.1702 9.40974 12.2C9.35474 12.2298 9.25574 12.2838 9.18974 12.32C8.25924 12.8296 8.16584 12.88 8.15144 12.88C8.14499 12.88 8.13974 12.5724 8.13974 12.1963C8.13974 11.4098 8.13529 11.386 7.97104 11.2897L7.88624 11.24L6.54799 11.2398C5.45199 11.2396 5.1903 11.2344 5.10235 11.211C4.74485 11.1158 4.49345 10.8596 4.40835 10.5037C4.3729 10.3553 4.36605 2.15732 4.4013 2.00387C4.479 1.66542 4.7495 1.37947 5.0775 1.28902C5.2219 1.24922 17.8729 1.24832 18.0257 1.28812ZM6.23599 1.87497C6.41544 1.87832 6.70344 1.87832 6.87599 1.87497C7.04854 1.87167 6.90174 1.86892 6.54974 1.86892C6.19774 1.86897 6.05654 1.87167 6.23599 1.87497ZM5.69974 1.90002L5.64974 1.91602H5.69974C5.72724 1.91602 5.77224 1.90882 5.79974 1.90002L5.84974 1.88402H5.79974C5.77224 1.88402 5.72724 1.89122 5.69974 1.90002ZM7.31764 1.92612C7.43554 1.98642 7.48469 2.07672 7.47439 2.21407C7.47009 2.27132 7.47404 2.31352 7.48319 2.30792C7.59419 2.23927 7.40539 1.87827 7.25974 1.88067C7.24324 1.88092 7.26929 1.90137 7.31764 1.92612ZM5.45464 2.00142C5.2993 2.08347 5.0382 2.41197 5.04025 2.52282C5.04055 2.53777 5.0687 2.49242 5.10285 2.42202C5.16144 2.30112 5.38405 2.04057 5.42959 2.03957C5.44069 2.03932 5.47224 2.02152 5.49974 2.00002C5.56284 1.95067 5.55004 1.95107 5.45464 2.00142ZM7.38954 2.40022C7.35804 2.43312 7.34139 2.46002 7.35249 2.46002C7.37824 2.46002 7.46989 2.36352 7.45669 2.35032C7.45129 2.34487 7.42104 2.36732 7.38954 2.40022ZM7.22974 2.48002L7.16974 2.49527L7.23354 2.49767C7.26864 2.49897 7.30294 2.49102 7.30974 2.48002C7.32344 2.45787 7.31674 2.45787 7.22974 2.48002ZM5.78974 2.52337C5.72944 2.55672 5.65964 2.62422 5.66039 2.64852C5.66079 2.66032 5.67849 2.64912 5.69979 2.62357C5.72104 2.59807 5.77249 2.56017 5.81409 2.53937C5.85569 2.51862 5.87624 2.50152 5.85974 2.50142C5.84324 2.50132 5.81174 2.51117 5.78974 2.52337ZM5.01355 2.60052C5.00625 2.62777 5.00125 2.68602 5.00235 2.73002C5.0043 2.80542 5.00545 2.80372 5.0225 2.70117C5.0417 2.58537 5.03565 2.51777 5.01355 2.60052ZM5.63309 2.69337C5.62574 2.70067 5.62174 3.01342 5.62424 3.38837L5.62869 4.07002L5.63924 3.38002C5.65084 2.61727 5.65139 2.67507 5.63309 2.69337ZM7.04974 3.77992C6.96884 3.82022 6.87839 3.92842 6.88134 3.98127C6.88224 3.99707 6.89364 3.98607 6.90664 3.95682C6.99459 3.75892 6.98774 3.76002 8.13444 3.76002C9.10559 3.76002 9.12574 3.76082 9.19964 3.80237C9.34564 3.88442 9.39579 4.05097 9.31954 4.20042C9.24309 4.35027 9.25274 4.34872 8.31974 4.36047L7.48974 4.37087L8.31499 4.37547C9.17999 4.38022 9.17009 4.38112 9.27524 4.29107C9.44744 4.14362 9.39664 3.85807 9.18229 3.76827C9.06024 3.71712 7.15484 3.72757 7.04974 3.77992ZM10.8165 3.76692C10.685 3.82532 10.6552 3.87817 10.5601 4.22002C10.5463 4.26952 10.5282 4.33252 10.5197 4.36002C10.5113 4.38752 10.4933 4.45052 10.4797 4.50002C10.4662 4.54952 10.4482 4.61252 10.4397 4.64002C10.4313 4.66752 10.413 4.73052 10.3992 4.78002C10.3853 4.82952 10.3618 4.90857 10.3468 4.95572C10.3319 5.00287 10.3197 5.05162 10.3197 5.06407C10.3197 5.10357 10.3426 5.06562 10.3603 4.99662C10.3836 4.90632 10.4137 4.79832 10.4792 4.57002C10.7143 3.75142 10.7078 3.76002 11.085 3.76002C11.3667 3.76002 11.4435 3.79307 11.5264 3.95002C11.5439 3.98302 11.5585 4.00267 11.5589 3.99372C11.562 3.93157 11.4525 3.80607 11.3623 3.76827C11.279 3.73342 10.8941 3.73242 10.8165 3.76692ZM14.7097 3.76857C14.3827 3.83997 14.0997 3.99347 13.8831 4.21697C13.735 4.36982 13.5387 4.66572 13.5669 4.69382C13.5724 4.69937 13.5952 4.66477 13.6175 4.61697C13.7458 4.34162 14.052 4.04217 14.3297 3.92057C14.3847 3.89647 14.4432 3.86987 14.4597 3.86142C14.4762 3.85302 14.5392 3.83497 14.5997 3.82132C14.6602 3.80772 14.7423 3.78832 14.782 3.77827C14.8218 3.76822 14.9198 3.76002 14.9997 3.76002C15.0797 3.76002 15.1776 3.76822 15.2174 3.77827C15.2572 3.78832 15.3392 3.80757 15.3997 3.82107C15.7826 3.90632 16.2205 4.26057 16.3824 4.61597C16.4045 4.66432 16.427 4.69937 16.4326 4.69382C16.4606 4.66582 16.2562 4.35727 16.1122 4.21017C15.7639 3.85447 15.1712 3.66782 14.7097 3.76857ZM11.5614 4.05002C11.5608 4.07202 11.5691 4.10352 11.5797 4.12002C11.6054 4.15977 11.6054 4.10982 11.5797 4.05002L11.5625 4.01002L11.5614 4.05002ZM5.0011 4.09732C4.99735 4.22992 5.16285 4.38012 5.31244 4.37992C5.44164 4.37977 5.62284 4.23747 5.61799 4.14002C5.61714 4.12352 5.60419 4.13807 5.58914 4.17237C5.47439 4.43402 5.11515 4.41142 5.0296 4.13717C5.01105 4.07767 5.002 4.06502 5.0011 4.09732ZM6.86939 6.25002C6.86939 7.44902 6.87179 7.94247 6.87474 7.34657C6.87769 6.75067 6.87769 5.76967 6.87474 5.16657C6.87179 4.56347 6.86939 5.05102 6.86939 6.25002ZM11.6025 4.19002C11.6025 4.21202 11.6103 4.24802 11.6197 4.27002L11.6369 4.31002V4.27002C11.6369 4.24802 11.6292 4.21202 11.6197 4.19002L11.6025 4.15002V4.19002ZM11.6414 4.34002C11.642 4.35652 11.6503 4.38802 11.6597 4.41002L11.6769 4.45002L11.678 4.41002C11.6786 4.38802 11.6704 4.35652 11.6597 4.34002C11.6425 4.31337 11.6405 4.31337 11.6414 4.34002ZM14.7736 4.39002C14.6281 4.43002 14.4757 4.51092 14.3692 4.60462C14.275 4.68757 14.1266 4.89357 14.1467 4.91362C14.1523 4.91927 14.1749 4.88862 14.1969 4.84547C14.5198 4.21272 15.5235 4.25157 15.832 4.90877C15.8685 4.98647 15.8986 5.03822 15.899 5.02377C15.9008 4.95777 15.7796 4.75927 15.67 4.64862C15.4322 4.40862 15.0778 4.30642 14.7736 4.39002ZM11.6814 4.48002C11.682 4.49652 11.6903 4.52802 11.6997 4.55002L11.7169 4.59002L11.718 4.55002C11.7186 4.52802 11.7104 4.49652 11.6997 4.48002C11.6825 4.45337 11.6805 4.45337 11.6814 4.48002ZM11.7214 4.62002C11.722 4.63652 11.7303 4.66802 11.7397 4.69002L11.7569 4.73002L11.758 4.69002C11.7586 4.66802 11.7504 4.63652 11.7397 4.62002C11.7225 4.59337 11.7205 4.59337 11.7214 4.62002ZM11.0632 4.71502C11.0534 4.73427 11.0401 4.78152 11.0337 4.82002C11.0223 4.88767 11.0388 4.86577 11.0674 4.77502C11.0888 4.70742 11.1109 4.74162 11.1583 4.91502C11.1846 5.01127 11.2228 5.14402 11.2432 5.21002C11.2636 5.27602 11.2902 5.36602 11.3023 5.41002C11.3144 5.45402 11.3313 5.51252 11.3397 5.54002C11.3482 5.56752 11.3662 5.63052 11.3797 5.68002C11.3933 5.72952 11.4113 5.79252 11.4197 5.82002C11.4282 5.84752 11.4462 5.91052 11.4597 5.96002C11.4733 6.00952 11.4916 6.07252 11.5004 6.10002C11.5092 6.12752 11.5221 6.17582 11.5291 6.20737C11.536 6.23892 11.5466 6.25982 11.5526 6.25387C11.5632 6.24317 11.4269 5.74287 11.32 5.40002C11.3114 5.37252 11.2933 5.30952 11.2797 5.26002C11.2662 5.21052 11.2482 5.14752 11.2397 5.12002C11.2313 5.09252 11.2133 5.02952 11.1997 4.98002C11.1862 4.93052 11.1679 4.86752 11.159 4.84002C11.1502 4.81252 11.1376 4.76527 11.131 4.73502C11.1173 4.67217 11.0894 4.66392 11.0632 4.71502ZM13.512 4.81252C13.4942 4.86457 13.4804 4.92127 13.4812 4.93857C13.4819 4.95587 13.5004 4.91727 13.5222 4.85277C13.544 4.78827 13.5579 4.73152 13.553 4.72667C13.5482 4.72182 13.5297 4.76042 13.512 4.81252ZM16.4419 4.73002C16.4413 4.74102 16.4588 4.79952 16.4807 4.86002C16.5056 4.92902 16.517 4.94662 16.511 4.90717C16.5012 4.84197 16.4438 4.69477 16.4419 4.73002ZM11.7614 4.76002C11.762 4.77652 11.7703 4.80802 11.7797 4.83002L11.7969 4.87002L11.798 4.83002C11.7986 4.80802 11.7904 4.77652 11.7797 4.76002C11.7625 4.73337 11.7605 4.73337 11.7614 4.76002ZM11.81 4.93967C11.8182 4.97797 11.8419 5.06347 11.8626 5.12967C11.8833 5.19587 11.9102 5.28602 11.9223 5.33002C11.9344 5.37402 11.9513 5.43252 11.9597 5.46002C11.9682 5.48752 11.9862 5.55052 11.9997 5.60002C12.0133 5.64952 12.0313 5.71252 12.0397 5.74002C12.0482 5.76752 12.0662 5.83052 12.0797 5.88002C12.0933 5.92952 12.1113 5.99252 12.1197 6.02002C12.1282 6.04752 12.1462 6.11052 12.1597 6.16002C12.1733 6.20952 12.1916 6.27252 12.2004 6.30002C12.2092 6.32752 12.2228 6.37702 12.2306 6.41002C12.2383 6.44302 12.248 6.46102 12.2522 6.45002C12.2563 6.43902 12.196 6.20952 12.1181 5.94002C12.0402 5.67052 11.9677 5.41852 11.957 5.38002C11.9462 5.34152 11.9295 5.28302 11.9197 5.25002C11.8855 5.13417 11.8618 5.04932 11.8426 4.97342C11.8179 4.87577 11.7901 4.84702 11.81 4.93967ZM10.9912 4.95147C10.9838 4.98077 10.9823 5.00922 10.9878 5.01472C10.9933 5.02022 11.0038 5.00077 11.0112 4.97147C11.0185 4.94212 11.02 4.91367 11.0145 4.90817C11.009 4.90267 10.9985 4.92212 10.9912 4.95147ZM14.1097 4.98002C14.1022 5.00367 14.1006 5.02752 14.1061 5.03302C14.1116 5.03852 14.1222 5.02367 14.1297 5.00002C14.1372 4.97637 14.1389 4.95252 14.1334 4.94702C14.1279 4.94152 14.1172 4.95637 14.1097 4.98002ZM13.4538 5.03752C13.4461 5.07467 13.4408 5.13767 13.4421 5.17752C13.444 5.23867 13.4472 5.23282 13.4626 5.14017C13.483 5.01707 13.4758 4.93257 13.4538 5.03752ZM16.5232 5.02002C16.5229 5.04752 16.5299 5.11052 16.5387 5.16002L16.5547 5.25002L16.5552 5.16002C16.5555 5.11052 16.5485 5.04752 16.5397 5.02002L16.5237 4.97002L16.5232 5.02002ZM10.9512 5.09147C10.9438 5.12077 10.9423 5.14922 10.9478 5.15472C10.9533 5.16022 10.9638 5.14077 10.9712 5.11147C10.9785 5.08212 10.98 5.05367 10.9745 5.04817C10.969 5.04267 10.9585 5.06212 10.9512 5.09147ZM14.0734 5.08767C14.0659 5.10727 14.0606 5.15182 14.0617 5.18667C14.0637 5.24837 14.0642 5.24797 14.0822 5.17137C14.102 5.08687 14.0959 5.02897 14.0734 5.08767ZM15.9115 5.15002C15.9188 5.20502 15.9282 5.25377 15.9323 5.25837C15.9502 5.27842 15.937 5.10697 15.9186 5.08002C15.904 5.05872 15.902 5.07902 15.9115 5.15002ZM10.2912 5.15147C10.2838 5.18077 10.2823 5.20922 10.2878 5.21472C10.2933 5.22022 10.3038 5.20077 10.3112 5.17147C10.3185 5.14212 10.32 5.11367 10.3145 5.10817C10.309 5.10267 10.2985 5.12212 10.2912 5.15147ZM10.9112 5.23147C10.9038 5.26077 10.9023 5.28922 10.9078 5.29472C10.9133 5.30022 10.9238 5.28077 10.9312 5.25147C10.9385 5.22212 10.94 5.19367 10.9345 5.18817C10.929 5.18267 10.9185 5.20212 10.9112 5.23147ZM10.2512 5.29147C10.2438 5.32077 10.2423 5.34922 10.2478 5.35472C10.2533 5.36022 10.2638 5.34077 10.2712 5.31147C10.2785 5.28212 10.28 5.25367 10.2745 5.24817C10.269 5.24267 10.2585 5.26212 10.2512 5.29147ZM10.8712 5.37147C10.8638 5.40077 10.8623 5.42922 10.8678 5.43472C10.8733 5.44022 10.8838 5.42077 10.8912 5.39147C10.8985 5.36212 10.9 5.33367 10.8945 5.32817C10.889 5.32267 10.8785 5.34212 10.8712 5.37147ZM10.2112 5.43147C10.2038 5.46077 10.2023 5.48922 10.2078 5.49472C10.2133 5.50022 10.2238 5.48077 10.2312 5.45147C10.2385 5.42212 10.24 5.39367 10.2345 5.38817C10.229 5.38267 10.2185 5.40212 10.2112 5.43147ZM10.8297 5.52002C10.8221 5.55457 10.8204 5.58737 10.8259 5.59287C10.8314 5.59837 10.8421 5.57457 10.8497 5.54002C10.8573 5.50547 10.859 5.47267 10.8535 5.46717C10.848 5.46167 10.8373 5.48547 10.8297 5.52002ZM10.1712 5.57147C10.1638 5.60077 10.1623 5.62922 10.1678 5.63472C10.1733 5.64022 10.1838 5.62077 10.1912 5.59147C10.1985 5.56212 10.2 5.53367 10.1945 5.52817C10.189 5.52267 10.1785 5.54212 10.1712 5.57147ZM7.49974 5.62502C7.49974 5.63327 7.86459 5.64002 8.31054 5.64002C9.08369 5.64002 9.12499 5.64187 9.20029 5.68027C9.41039 5.78747 9.40559 6.08972 9.19204 6.19837C9.11309 6.23857 9.07694 6.24047 8.29974 6.24537L7.48974 6.25047L8.30554 6.25527C9.07194 6.25972 9.12584 6.25772 9.19554 6.22217C9.43364 6.10062 9.44149 5.78737 9.20974 5.65317C9.16419 5.62682 7.49969 5.59937 7.49974 5.62502ZM10.7705 5.73032C10.7524 5.79262 10.7407 5.85302 10.7446 5.86462C10.7484 5.87617 10.7673 5.82922 10.7865 5.76027C10.8056 5.69137 10.8173 5.63092 10.8124 5.62597C10.8074 5.62107 10.7886 5.66802 10.7705 5.73032ZM10.1312 5.71147C10.1238 5.74077 10.1223 5.76922 10.1278 5.77472C10.1333 5.78022 10.1438 5.76077 10.1512 5.73147C10.1585 5.70212 10.16 5.67367 10.1545 5.66817C10.149 5.66267 10.1385 5.68212 10.1312 5.71147ZM10.0912 5.85147C10.0838 5.88077 10.0823 5.90922 10.0878 5.91472C10.0933 5.92022 10.1038 5.90077 10.1112 5.87147C10.1185 5.84212 10.12 5.81367 10.1145 5.80817C10.109 5.80267 10.0985 5.82212 10.0912 5.85147ZM10.7134 5.92767C10.7059 5.94727 10.7003 5.97832 10.701 5.99667C10.7018 6.01877 10.7088 6.01372 10.7216 5.98172C10.7322 5.95517 10.7378 5.92412 10.734 5.91272C10.7302 5.90137 10.7209 5.90807 10.7134 5.92767ZM10.0512 5.99147C10.0438 6.02077 10.0423 6.04922 10.0478 6.05472C10.0533 6.06022 10.0638 6.04077 10.0712 6.01147C10.0785 5.98212 10.08 5.95367 10.0745 5.94817C10.069 5.94267 10.0585 5.96212 10.0512 5.99147ZM10.6734 6.06767C10.6659 6.08727 10.6603 6.11832 10.661 6.13667C10.6618 6.15877 10.6688 6.15372 10.6816 6.12172C10.6922 6.09517 10.6978 6.06412 10.694 6.05272C10.6902 6.04137 10.6809 6.04807 10.6734 6.06767ZM9.70249 7.22017C9.52304 7.84882 9.38069 8.36763 9.38614 8.37313C9.39164 8.37858 9.40174 8.36212 9.40859 8.33652C9.45379 8.16877 9.46604 8.12458 9.47974 8.08003C9.48819 8.05253 9.50619 7.98953 9.51974 7.94003C9.53329 7.89053 9.55129 7.82753 9.55974 7.80002C9.56819 7.77252 9.58619 7.70952 9.59974 7.66002C9.61329 7.61052 9.63129 7.54752 9.63974 7.52002C9.64819 7.49252 9.66619 7.42952 9.67974 7.38002C9.69329 7.33052 9.71129 7.26752 9.71974 7.24003C9.72819 7.21252 9.74514 7.15402 9.75739 7.11002C9.76969 7.06602 9.83874 6.82462 9.91089 6.57352C9.98304 6.32247 10.0391 6.10807 10.0354 6.09712C10.0318 6.08612 9.88194 6.59152 9.70249 7.22017ZM10.6334 6.20767C10.6259 6.22727 10.6203 6.25832 10.621 6.27667C10.6218 6.29877 10.6288 6.29372 10.6416 6.26172C10.6522 6.23517 10.6578 6.20412 10.654 6.19272C10.6502 6.18137 10.6409 6.18807 10.6334 6.20767ZM11.5614 6.31002C11.5608 6.33202 11.5691 6.36352 11.5797 6.38002C11.6054 6.41977 11.6054 6.36982 11.5797 6.31002L11.5625 6.27002L11.5614 6.31002ZM10.5934 6.34767C10.5859 6.36727 10.5803 6.39832 10.581 6.41667C10.5818 6.43877 10.5888 6.43372 10.6016 6.40172C10.6122 6.37517 10.6178 6.34412 10.614 6.33272C10.6102 6.32137 10.6009 6.32807 10.5934 6.34767ZM11.6014 6.45002C11.6008 6.47202 11.6091 6.50352 11.6197 6.52002C11.6454 6.55977 11.6454 6.50982 11.6197 6.45002L11.6025 6.41002L11.6014 6.45002ZM10.5534 6.48767C10.5459 6.50727 10.5403 6.53832 10.541 6.55667C10.5418 6.57877 10.5488 6.57372 10.5616 6.54172C10.5722 6.51517 10.5778 6.48412 10.574 6.47272C10.5702 6.46137 10.5609 6.46807 10.5534 6.48767ZM12.2614 6.51002C12.2608 6.53202 12.2691 6.56352 12.2797 6.58002C12.3054 6.61977 12.3054 6.56982 12.2797 6.51002L12.2625 6.47002L12.2614 6.51002ZM11.6414 6.59002C11.6408 6.61202 11.6491 6.64352 11.6597 6.66002C11.6854 6.69977 11.6854 6.64982 11.6597 6.59002L11.6425 6.55002L11.6414 6.59002ZM10.5134 6.62767C10.5059 6.64727 10.5003 6.67832 10.501 6.69667C10.5018 6.71877 10.5088 6.71372 10.5216 6.68172C10.5322 6.65517 10.5378 6.62412 10.534 6.61272C10.5302 6.60137 10.5209 6.60807 10.5134 6.62767ZM12.3014 6.65002C12.3008 6.67202 12.3091 6.70352 12.3197 6.72002C12.3454 6.75977 12.3454 6.70982 12.3197 6.65002L12.3025 6.61002L12.3014 6.65002ZM11.6814 6.73002C11.6808 6.75203 11.6891 6.78352 11.6997 6.80002C11.7254 6.83977 11.7254 6.78982 11.6997 6.73002L11.6825 6.69002L11.6814 6.73002ZM10.4719 6.77167C10.4286 6.88452 10.403 6.88002 11.0885 6.88002C11.4344 6.88002 11.7215 6.87327 11.7266 6.86502C11.7318 6.85677 11.4521 6.85252 11.1052 6.85557L10.4745 6.86112L10.4866 6.80057C10.4996 6.73557 10.4917 6.72002 10.4719 6.77167ZM12.3414 6.79002C12.3408 6.81202 12.3491 6.84352 12.3597 6.86002C12.3854 6.89977 12.3854 6.84982 12.3597 6.79002L12.3425 6.75002L12.3414 6.79002ZM12.3814 6.93003C12.3808 6.95202 12.3891 6.98352 12.3997 7.00002C12.4254 7.03977 12.4254 6.98982 12.3997 6.93003L12.3825 6.89002L12.3814 6.93003ZM12.4214 7.07002C12.4208 7.09202 12.4291 7.12352 12.4397 7.14002C12.4654 7.17977 12.4654 7.12982 12.4397 7.07002L12.4225 7.03003L12.4214 7.07002ZM12.4614 7.21002C12.4608 7.23202 12.4691 7.26353 12.4797 7.28003C12.5054 7.31978 12.5054 7.26982 12.4797 7.21002L12.4625 7.17002L12.4614 7.21002ZM15.1897 7.21327C15.1172 7.25147 15.0397 7.31997 15.0397 7.34582C15.0397 7.35623 15.0752 7.33262 15.1185 7.29348C15.2833 7.14462 15.4128 7.17443 15.6468 7.41502C15.735 7.50577 15.8188 7.58003 15.8328 7.58003C15.8639 7.58003 15.9057 7.50692 15.8935 7.47392C15.8886 7.46077 15.8781 7.47478 15.87 7.50503C15.85 7.58043 15.848 7.57947 15.6799 7.41017C15.4667 7.19552 15.3286 7.14007 15.1897 7.21327ZM15.9229 7.27252C15.9212 7.29587 15.915 7.34537 15.9092 7.38252C15.8995 7.44432 15.9005 7.44588 15.9201 7.40073C15.932 7.37363 15.9381 7.32412 15.9339 7.29072C15.9293 7.25487 15.9248 7.24742 15.9229 7.27252ZM14.0624 7.32002C14.0613 7.35852 14.0691 7.40352 14.0797 7.42002C14.1036 7.45697 14.1036 7.40382 14.0797 7.31002L14.0645 7.25002L14.0624 7.32002ZM13.4441 7.36002C13.4439 7.39852 13.4509 7.45253 13.4597 7.48003C13.4821 7.54998 13.4821 7.43808 13.4597 7.35002L13.4445 7.29002L13.4441 7.36002ZM16.5307 7.40592C16.522 7.46967 16.5198 7.52677 16.5258 7.53277C16.5408 7.54777 16.5656 7.37357 16.555 7.32737C16.5503 7.30682 16.5394 7.34217 16.5307 7.40592ZM12.5003 7.35002C12.5003 7.37203 12.5091 7.40352 12.5197 7.42002C12.5358 7.44487 12.5391 7.44312 12.5391 7.41002C12.5391 7.38802 12.5304 7.35652 12.5197 7.34002C12.5037 7.31518 12.5003 7.31692 12.5003 7.35002ZM15.0131 7.39337C14.9338 7.47258 15.0226 7.66558 15.2337 7.87333L15.3865 8.02362L15.3281 8.04992C14.9447 8.22253 14.3873 8.02773 14.1969 7.65457C14.1749 7.61142 14.1523 7.58077 14.1467 7.58642C14.141 7.59207 14.1673 7.64497 14.205 7.70397C14.423 8.04472 14.8784 8.21628 15.2606 8.10168C15.4296 8.05098 15.4287 8.04393 15.2258 7.83413C15.0325 7.63438 15.0009 7.57117 15.0294 7.44157C15.0428 7.38042 15.0386 7.36783 15.0131 7.39337ZM12.5411 7.47037C12.5403 7.48157 12.5982 7.69502 12.6697 7.94468C12.8345 8.51993 12.8311 8.59312 12.6356 8.69753C12.4299 8.80728 12.257 8.69458 12.1789 8.40002C12.1658 8.35052 12.1482 8.28753 12.1397 8.26003C12.1313 8.23252 12.1133 8.16952 12.0997 8.12002C12.0605 7.97707 12.0593 7.97382 12.0493 7.98378C12.0441 7.98898 12.0535 8.04203 12.0702 8.10162C12.0868 8.16122 12.1105 8.24603 12.1228 8.29003C12.2094 8.60078 12.2426 8.66022 12.3639 8.72218C12.6112 8.84837 12.9037 8.57708 12.8018 8.31598C12.792 8.29068 12.7729 8.22953 12.7595 8.18003C12.7461 8.13053 12.7282 8.06753 12.7197 8.04003C12.7113 8.01253 12.6933 7.94952 12.6797 7.90002C12.6662 7.85052 12.6482 7.78752 12.6397 7.76002C12.6313 7.73252 12.6134 7.66952 12.5999 7.62002C12.5708 7.51292 12.543 7.44202 12.5411 7.47037ZM14.1003 7.48003C14.1003 7.49653 14.1091 7.52353 14.1197 7.54003C14.137 7.56668 14.1391 7.56668 14.1391 7.54003C14.1391 7.52353 14.1304 7.49653 14.1197 7.48003C14.1025 7.45338 14.1003 7.45338 14.1003 7.48003ZM10.1709 7.83117C10.1188 8.01377 10.0811 8.16803 10.087 8.17398C10.0929 8.17988 10.1034 8.15893 10.1104 8.12738C10.1173 8.09582 10.1302 8.04752 10.139 8.02002C10.1479 7.99252 10.1662 7.92953 10.1797 7.88003C10.1933 7.83053 10.2113 7.76753 10.2197 7.74003C10.2749 7.56058 10.2851 7.51867 10.2759 7.50952C10.2702 7.50383 10.2229 7.64857 10.1709 7.83117ZM11.9317 7.61333C11.9501 7.68998 11.9597 7.69723 11.9597 7.63452C11.9597 7.60588 11.9504 7.57662 11.9389 7.56952C11.9253 7.56107 11.9228 7.57618 11.9317 7.61333ZM13.4814 7.58003C13.482 7.59653 13.4903 7.62803 13.4997 7.65002L13.5169 7.69002L13.518 7.65002C13.5186 7.62803 13.5104 7.59653 13.4997 7.58003C13.4825 7.55338 13.4805 7.55338 13.4814 7.58003ZM16.468 7.67392C16.4481 7.73777 16.4021 7.84643 16.3658 7.91533C16.2854 8.06782 16.2797 8.03412 16.4092 8.17213C16.7497 8.53518 16.3362 8.95183 15.9871 8.59738C15.8767 8.48523 15.8575 8.48173 15.7332 8.55123C14.9882 8.96758 13.967 8.64133 13.6118 7.87343C13.5923 7.83127 13.5715 7.80158 13.5656 7.80748C13.5488 7.82422 13.6751 8.03752 13.7803 8.17002C14.211 8.71277 14.9764 8.90998 15.5945 8.63743C15.6411 8.61683 15.6861 8.59982 15.6945 8.59958C15.7029 8.59933 15.7322 8.58152 15.7597 8.56003C15.8316 8.50383 15.862 8.51018 15.9492 8.59947C16.1274 8.78193 16.3375 8.80498 16.4722 8.65677C16.6147 8.50007 16.5971 8.33852 16.4168 8.14603L16.3194 8.04202L16.3874 7.91603C16.4582 7.78468 16.531 7.58458 16.514 7.56763C16.5086 7.56223 16.4879 7.61002 16.468 7.67392ZM11.9717 7.75332C11.9901 7.82997 11.9997 7.83723 11.9997 7.77453C11.9997 7.74588 11.9904 7.71663 11.9789 7.70953C11.9653 7.70108 11.9628 7.71617 11.9717 7.75332ZM12.0117 7.89332C12.0301 7.96997 12.0397 7.97722 12.0397 7.91452C12.0397 7.88587 12.0304 7.85663 12.0189 7.84953C12.0053 7.84108 12.0028 7.85617 12.0117 7.89332ZM17.6713 8.14622C17.5578 8.21657 17.4982 8.30002 17.5015 8.38402C17.5029 8.41837 17.5083 8.41232 17.5232 8.36002C17.5984 8.09447 17.9619 8.06382 18.0791 8.31312C18.1272 8.41558 18.1418 9.66658 18.0971 9.85472C18.002 10.2544 17.7541 10.5023 17.3544 10.5974C17.1663 10.6421 15.9153 10.6275 15.8128 10.5794C15.5649 10.4628 15.5956 10.0983 15.8597 10.0235C15.912 10.0086 15.9181 10.0032 15.8837 10.0018C15.7507 9.99662 15.6197 10.1478 15.6197 10.3067C15.6197 10.4531 15.6863 10.5514 15.8248 10.6093C15.9165 10.6476 17.1872 10.6547 17.3637 10.6179C17.735 10.5405 18.0402 10.2353 18.1176 9.86403C18.1544 9.68753 18.1473 8.41683 18.109 8.32513C18.0362 8.15107 17.8116 8.05922 17.6713 8.14622ZM10.0512 8.25148C10.0438 8.28078 10.0423 8.30923 10.0478 8.31473C10.0533 8.32023 10.0638 8.30078 10.0712 8.27148C10.0785 8.24213 10.08 8.21368 10.0745 8.20817C10.069 8.20267 10.0585 8.22213 10.0512 8.25148ZM10.0112 8.39147C10.0038 8.42077 10.0023 8.44922 10.0078 8.45472C10.0133 8.46022 10.0238 8.44078 10.0312 8.41148C10.0385 8.38213 10.04 8.35367 10.0345 8.34818C10.029 8.34268 10.0185 8.36212 10.0112 8.39147ZM7.48134 8.46702C7.46844 8.76837 7.03239 8.82618 6.90664 8.54323C6.89364 8.51398 6.88224 8.50297 6.88134 8.51877C6.87619 8.61038 7.06369 8.76003 7.18359 8.76003C7.34269 8.76003 7.53824 8.56798 7.49329 8.45588C7.48694 8.44013 7.48229 8.44452 7.48134 8.46702ZM9.94954 8.56438C9.83979 8.80068 9.50864 8.79938 9.41709 8.56227C9.40694 8.53597 9.39329 8.51982 9.38679 8.52633C9.32954 8.58358 9.54714 8.76003 9.67499 8.76003C9.82259 8.76003 10.0275 8.59338 9.99604 8.49893C9.99234 8.48782 9.97139 8.51723 9.94954 8.56438ZM17.4718 9.77508C17.4527 9.85633 17.3645 9.94643 17.2766 9.97453C17.229 9.98978 17.2218 9.99653 17.2518 9.99798C17.3473 10.0026 17.5137 9.82993 17.495 9.74553C17.4898 9.72188 17.482 9.73178 17.4718 9.77508Z" fill="#967B0E"/>
<path fill-rule="evenodd" clip-rule="evenodd" d="M5.11931 1.27996C5.07911 1.29281 5.07716 1.29611 5.10931 1.29656C5.13131 1.29686 5.16731 1.28941 5.18931 1.27996C5.24026 1.25806 5.18771 1.25806 5.11931 1.27996ZM17.8793 1.27996C17.8958 1.29061 17.9363 1.29886 17.9693 1.29826C18.0208 1.29731 18.0237 1.29471 17.9893 1.27996C17.9305 1.25466 17.8402 1.25466 17.8793 1.27996ZM4.76731 1.43736C4.72441 1.46896 4.66231 1.52501 4.62931 1.56191C4.58676 1.60951 4.59836 1.60296 4.66931 1.53941C4.72431 1.49016 4.79181 1.43461 4.81931 1.41596C4.84681 1.39731 4.86391 1.38161 4.85731 1.38101C4.85071 1.38041 4.81021 1.40581 4.76731 1.43736ZM18.3793 1.46291C18.3793 1.46911 18.4176 1.51381 18.4643 1.56221C18.5111 1.61066 18.5655 1.67271 18.5852 1.70011C18.6199 1.74831 18.6199 1.74781 18.5858 1.68481C18.5531 1.62436 18.3793 1.43761 18.3793 1.46291ZM5.72161 1.87811C5.70456 1.88891 5.73141 1.89201 5.79161 1.88616C5.92706 1.87296 5.94596 1.86336 5.83931 1.86186C5.78981 1.86116 5.73686 1.86846 5.72161 1.87811ZM7.17931 1.86776C7.17931 1.87206 7.21016 1.87921 7.24791 1.88361C7.28566 1.88801 7.31211 1.88446 7.30671 1.87576C7.29706 1.86011 7.17931 1.85271 7.17931 1.86776ZM7.34096 1.90496C7.34556 1.90771 7.37631 1.93246 7.40931 1.95996L7.46931 2.00996L7.42081 1.95496C7.39416 1.92471 7.36341 1.89996 7.35251 1.89996C7.34156 1.89996 7.33641 1.90221 7.34096 1.90496ZM4.38931 2.05996C4.38161 2.10546 4.37951 2.14686 4.38466 2.15196C4.38981 2.15711 4.39996 2.12381 4.40731 2.07796C4.41466 2.03211 4.41671 1.99071 4.41196 1.98596C4.40721 1.98116 4.39701 2.01446 4.38931 2.05996ZM18.701 2.02996C18.7004 2.06296 18.7087 2.10346 18.7193 2.11996C18.7446 2.15906 18.7446 2.06876 18.7193 2.00996C18.7046 1.97561 18.702 1.97846 18.701 2.02996ZM5.18961 2.21496C5.13996 2.27821 5.09931 2.33806 5.09931 2.34796C5.09931 2.35786 5.12751 2.32636 5.16191 2.27796C5.19636 2.22956 5.24291 2.16971 5.26541 2.14496C5.28791 2.12021 5.30036 2.09996 5.29311 2.09996C5.28581 2.09996 5.23926 2.15171 5.18961 2.21496ZM7.50501 2.18996C7.50516 2.24496 7.50906 2.26511 7.51366 2.23471C7.51826 2.20426 7.51816 2.15926 7.51341 2.13471C7.50866 2.11011 7.50486 2.13496 7.50501 2.18996ZM5.86616 2.51526C5.84511 2.52861 6.63596 2.52781 7.09931 2.51401C7.20381 2.51086 6.97431 2.50661 6.58931 2.50446C6.20431 2.50231 5.87891 2.50716 5.86616 2.51526ZM5.68421 2.64496C5.66426 2.66991 5.62591 2.77896 5.64376 2.75996C5.65781 2.74501 5.71721 2.61996 5.71021 2.61996C5.70691 2.61996 5.69521 2.63121 5.68421 2.64496ZM4.98396 3.39996L4.97951 4.14996L5.02881 4.22996C5.05591 4.27396 5.07836 4.30291 5.07871 4.29426C5.07901 4.28561 5.06356 4.25451 5.04431 4.22516C5.01301 4.17746 5.00821 4.09086 4.99886 3.41086L4.98836 2.64996L4.98396 3.39996ZM14.6993 3.76026C14.6782 3.77406 14.6901 3.77611 14.7393 3.76706C14.8256 3.75121 14.8419 3.73986 14.7777 3.74026C14.7511 3.74041 14.7158 3.74941 14.6993 3.76026ZM15.181 3.74711C15.1856 3.75101 15.2208 3.76001 15.2593 3.76706C15.3086 3.77611 15.3204 3.77406 15.2993 3.76026C15.2722 3.74246 15.1612 3.73011 15.181 3.74711ZM11.4632 3.83246C11.4929 3.86406 11.5308 3.92146 11.5474 3.95996C11.5641 3.99846 11.5781 4.01771 11.5785 4.00266C11.5798 3.95811 11.4997 3.82976 11.4528 3.80131C11.4171 3.77971 11.419 3.78531 11.4632 3.83246ZM15.4093 3.79996C15.4644 3.82361 15.4839 3.82361 15.4693 3.79996C15.4625 3.78896 15.4372 3.78061 15.4131 3.78136C15.3709 3.78271 15.3708 3.78341 15.4093 3.79996ZM6.86721 3.94826C6.86121 3.96386 6.85956 4.00211 6.86351 4.03326C6.86941 4.07951 6.87251 4.07431 6.88056 4.00496C6.89066 3.91751 6.88621 3.89871 6.86721 3.94826ZM14.1128 4.00181C14.0614 4.03586 14.0139 4.07261 14.0071 4.08351C14.0004 4.09441 14.0454 4.06976 14.1071 4.02881C14.2072 3.96236 14.2338 3.93996 14.2128 3.93996C14.2091 3.93996 14.1642 3.96781 14.1128 4.00181ZM15.7793 3.94711C15.7793 3.95106 15.8298 3.98781 15.8915 4.02881C15.9533 4.06976 15.9978 4.09366 15.9905 4.08191C15.9652 4.04086 15.7793 3.92226 15.7793 3.94711ZM5.61771 4.12496C5.61176 4.16796 5.61481 4.19246 5.62491 4.18236C5.63456 4.17271 5.63921 4.13901 5.63526 4.10741C5.62866 4.05451 5.62726 4.05591 5.61771 4.12496ZM11.6396 4.27161C11.6398 4.29271 11.6491 4.32346 11.6602 4.33996C11.6751 4.36186 11.6769 4.35376 11.6671 4.30996C11.6507 4.23641 11.6392 4.22046 11.6396 4.27161ZM5.44931 4.34131C5.38206 4.38441 5.39126 4.39186 5.46836 4.35676C5.49641 4.34396 5.51931 4.32596 5.51931 4.31676C5.51931 4.29586 5.52146 4.29511 5.44931 4.34131ZM7.50886 4.98996L7.50931 5.60996L8.01431 5.61051L8.51931 5.61101L8.01961 5.60516L7.51991 5.59926L7.51416 4.98461L7.50841 4.36996L7.50886 4.98996ZM11.6796 4.41161C11.6798 4.43271 11.6891 4.46346 11.7002 4.47996C11.7151 4.50186 11.7169 4.49376 11.7071 4.44996C11.6907 4.37641 11.6792 4.36046 11.6796 4.41161ZM14.8293 4.40091C14.8014 4.41351 14.8136 4.41531 14.8693 4.40686C14.9133 4.40016 14.9531 4.39136 14.9577 4.38731C14.9748 4.37216 14.8677 4.38351 14.8293 4.40091ZM15.041 4.38731C15.0456 4.39136 15.0853 4.40016 15.1293 4.40686C15.1851 4.41531 15.1972 4.41351 15.1693 4.40091C15.1309 4.38351 15.0238 4.37216 15.041 4.38731ZM11.7196 4.55161C11.7198 4.57271 11.7291 4.60346 11.7402 4.61996C11.7551 4.64186 11.7569 4.63376 11.7471 4.58996C11.7307 4.51641 11.7192 4.50046 11.7196 4.55161ZM14.255 4.75496C14.2247 4.78971 14.1633 4.89961 14.1855 4.87946C14.2035 4.86306 14.2989 4.71996 14.2918 4.71996C14.2884 4.71996 14.2718 4.73571 14.255 4.75496ZM15.748 4.78996C15.8177 4.89256 15.8319 4.90471 15.7932 4.82851C15.776 4.79471 15.7468 4.75446 15.7282 4.73906C15.7097 4.72366 15.7186 4.74656 15.748 4.78996ZM11.0293 4.87996C11.0218 4.90361 11.0202 4.92746 11.0257 4.93296C11.0312 4.93846 11.0418 4.92361 11.0493 4.89996C11.0568 4.87631 11.0585 4.85246 11.053 4.84696C11.0475 4.84146 11.0368 4.85631 11.0293 4.87996ZM13.4718 4.87071C13.4649 4.88861 13.4602 4.92276 13.4614 4.94661C13.4627 4.97401 13.4695 4.96426 13.4798 4.92011C13.4973 4.84576 13.4926 4.81661 13.4718 4.87071ZM16.5122 4.89996C16.5281 4.98621 16.5394 5.00251 16.539 4.93831C16.5389 4.91171 16.5299 4.87646 16.519 4.85996C16.5052 4.83886 16.5032 4.85071 16.5122 4.89996ZM11.8399 4.97996C11.8399 4.99646 11.8487 5.02346 11.8593 5.03996C11.8766 5.06661 11.8787 5.06661 11.8787 5.03996C11.8787 5.02346 11.87 4.99646 11.8593 4.97996C11.8421 4.95331 11.8399 4.95331 11.8399 4.97996ZM10.9893 5.01996C10.9818 5.04361 10.9802 5.06746 10.9857 5.07296C10.9912 5.07846 11.0018 5.06361 11.0093 5.03996C11.0168 5.01631 11.0185 4.99246 11.013 4.98696C11.0075 4.98146 10.9968 4.99631 10.9893 5.01996ZM13.4251 6.24996C13.4235 6.89896 13.4283 7.44541 13.4357 7.46431C13.4482 7.49566 13.4466 5.98016 13.4336 5.33996C13.4306 5.19146 13.4268 5.60096 13.4251 6.24996ZM16.5686 6.09996C16.5686 6.66646 16.5712 6.89821 16.5743 6.61496C16.5774 6.33171 16.5774 5.86821 16.5743 5.58496C16.5712 5.30171 16.5686 5.53346 16.5686 6.09996ZM11.8799 5.11996C11.8799 5.13646 11.8887 5.16346 11.8993 5.17996C11.9166 5.20661 11.9187 5.20661 11.9187 5.17996C11.9187 5.16346 11.91 5.13646 11.8993 5.11996C11.8821 5.09331 11.8799 5.09331 11.8799 5.11996ZM14.0686 6.24996C14.0686 6.81096 14.0712 7.04336 14.0743 6.76636C14.0774 6.48936 14.0774 6.03036 14.0743 5.74636C14.0712 5.46236 14.0686 5.68896 14.0686 6.24996ZM10.9118 5.29071C10.9049 5.30861 10.9001 5.33826 10.901 5.35661C10.902 5.37496 10.9107 5.36341 10.9204 5.33096C10.9392 5.26786 10.9326 5.23661 10.9118 5.29071ZM15.9286 6.24996C15.9286 6.79996 15.9312 7.02206 15.9343 6.74356C15.9375 6.46506 15.9374 6.01506 15.9343 5.74356C15.9312 5.47206 15.9286 5.69996 15.9286 6.24996ZM10.8718 5.43071C10.8649 5.44861 10.8601 5.47826 10.861 5.49661C10.862 5.51496 10.8707 5.50341 10.8804 5.47096C10.8992 5.40786 10.8926 5.37661 10.8718 5.43071ZM10.1518 5.57071C10.1449 5.58861 10.1401 5.61826 10.141 5.63661C10.142 5.65496 10.1507 5.64341 10.1604 5.61096C10.1792 5.54786 10.1726 5.51661 10.1518 5.57071ZM10.1118 5.71071C10.1049 5.72861 10.1001 5.75826 10.101 5.77661C10.102 5.79496 10.1107 5.78341 10.1204 5.75096C10.1392 5.68786 10.1326 5.65661 10.1118 5.71071ZM10.0718 5.85071C10.0649 5.86861 10.0601 5.89826 10.061 5.91661C10.062 5.93496 10.0707 5.92341 10.0804 5.89096C10.0992 5.82786 10.0926 5.79661 10.0718 5.85071ZM10.7416 5.90331C10.7404 5.92166 10.7341 5.95316 10.7278 5.97331C10.7169 6.00806 10.7175 6.00811 10.7392 5.97431C10.7517 5.95476 10.758 5.92326 10.753 5.90431C10.7449 5.87336 10.7437 5.87326 10.7416 5.90331ZM10.7016 6.04331C10.7004 6.06166 10.6941 6.09316 10.6878 6.11331C10.6769 6.14806 10.6775 6.14811 10.6992 6.11431C10.7117 6.09476 10.718 6.06326 10.713 6.04431C10.7049 6.01336 10.7037 6.01326 10.7016 6.04331ZM7.50866 7.38996C7.50866 8.01696 7.51121 8.27056 7.51431 7.95356C7.51741 7.63651 7.51741 7.12351 7.51431 6.81356C7.51121 6.50356 7.50866 6.76296 7.50866 7.38996ZM12.2515 6.40996C12.268 6.48351 12.2794 6.49946 12.279 6.44831C12.2789 6.42721 12.2696 6.39646 12.2584 6.37996C12.2436 6.35806 12.2417 6.36616 12.2515 6.40996ZM11.6115 6.54996C11.628 6.62351 11.6394 6.63946 11.639 6.58831C11.6389 6.56721 11.6296 6.53646 11.6184 6.51996C11.6036 6.49806 11.6017 6.50616 11.6115 6.54996ZM12.2915 6.54996C12.308 6.62351 12.3194 6.63946 12.319 6.58831C12.3189 6.56721 12.3096 6.53646 12.2984 6.51996C12.2836 6.49806 12.2817 6.50616 12.2915 6.54996ZM11.6515 6.68996C11.668 6.76351 11.6794 6.77946 11.679 6.72831C11.6789 6.70721 11.6696 6.67646 11.6584 6.65996C11.6436 6.63806 11.6417 6.64616 11.6515 6.68996ZM12.3315 6.68996C12.348 6.76351 12.3594 6.77946 12.359 6.72831C12.3589 6.70721 12.3496 6.67646 12.3384 6.65996C12.3236 6.63806 12.3217 6.64616 12.3315 6.68996ZM10.5016 6.73331C10.5004 6.74616 10.4935 6.77316 10.4864 6.79331C10.4763 6.82176 10.479 6.82481 10.4983 6.80706C10.5119 6.79451 10.5188 6.76751 10.5135 6.74706C10.5083 6.72666 10.5029 6.72046 10.5016 6.73331ZM12.3715 6.82996C12.388 6.90351 12.3994 6.91946 12.399 6.86831C12.3989 6.84721 12.3896 6.81646 12.3784 6.79996C12.3636 6.77806 12.3617 6.78616 12.3715 6.82996ZM12.4115 6.96996C12.428 7.04351 12.4394 7.05946 12.439 7.00831C12.4389 6.98721 12.4296 6.95646 12.4184 6.93996C12.4036 6.91806 12.4017 6.92616 12.4115 6.96996ZM12.4457 7.08996C12.452 7.11196 12.4719 7.18236 12.49 7.24646C12.5082 7.31051 12.5265 7.35941 12.5308 7.35511C12.5408 7.34516 12.4649 7.07866 12.4475 7.06226C12.4403 7.05551 12.4395 7.06796 12.4457 7.08996ZM16.563 7.29996C16.5607 7.37146 16.5538 7.45246 16.5477 7.47996C16.5382 7.52246 16.5399 7.52471 16.5588 7.49516C16.5718 7.47486 16.5782 7.39986 16.5742 7.31516L16.5673 7.16996L16.563 7.29996ZM15.0778 7.27496L15.0293 7.32996L15.0893 7.27996C15.1223 7.25246 15.1531 7.22771 15.1577 7.22496C15.1622 7.22221 15.1571 7.21996 15.1461 7.21996C15.1352 7.21996 15.1045 7.24471 15.0778 7.27496ZM15.7385 7.46496C15.8286 7.56096 15.8593 7.57921 15.8593 7.53661C15.8593 7.52381 15.8531 7.51951 15.8455 7.52706C15.838 7.53466 15.7907 7.50241 15.7405 7.45541L15.6493 7.36996L15.7385 7.46496ZM15.8816 7.40331C15.8804 7.42166 15.8741 7.45316 15.8678 7.47331C15.8569 7.50806 15.8575 7.50811 15.8792 7.47431C15.8917 7.45476 15.898 7.42326 15.893 7.40431C15.8849 7.37336 15.8837 7.37326 15.8816 7.40331ZM14.9848 7.49996C14.9848 7.54946 14.9887 7.56971 14.9934 7.54496C14.9982 7.52021 14.9982 7.47971 14.9934 7.45496C14.9887 7.43021 14.9848 7.45046 14.9848 7.49996ZM10.6857 7.51496C10.9147 7.51816 11.2837 7.51816 11.5057 7.51491C11.7277 7.51171 11.5403 7.50911 11.0893 7.50911C10.6383 7.50911 10.4567 7.51171 10.6857 7.51496ZM13.4596 7.56161C13.4598 7.58821 13.4688 7.62346 13.4796 7.63996C13.4934 7.66106 13.4955 7.64921 13.4864 7.59996C13.4706 7.51371 13.4592 7.49741 13.4596 7.56161ZM11.9007 7.57376C11.9 7.59786 11.9083 7.62316 11.9193 7.62996C11.943 7.64456 11.943 7.62501 11.9193 7.56996C11.9028 7.53141 11.9021 7.53151 11.9007 7.57376ZM16.522 7.56331C16.5206 7.58166 16.5135 7.61316 16.5064 7.63331C16.4964 7.66161 16.4991 7.66476 16.5181 7.64726C16.5316 7.63481 16.5387 7.60331 16.5337 7.57726C16.5288 7.55126 16.5235 7.54496 16.522 7.56331ZM14.2055 7.67141C14.2226 7.70521 14.2519 7.74546 14.2704 7.76086C14.289 7.77626 14.2801 7.75336 14.2506 7.70996C14.181 7.60736 14.1667 7.59521 14.2055 7.67141ZM11.9407 7.71376C11.94 7.73786 11.9483 7.76316 11.9593 7.76996C11.983 7.78456 11.983 7.76501 11.9593 7.70996C11.9428 7.67141 11.9421 7.67151 11.9407 7.71376ZM16.4816 7.69331C16.4804 7.70616 16.4735 7.73316 16.4664 7.75331C16.4563 7.78176 16.459 7.78481 16.4783 7.76706C16.4919 7.75451 16.4988 7.72751 16.4935 7.70706C16.4883 7.68666 16.4829 7.68046 16.4816 7.69331ZM11.9807 7.85376C11.98 7.87786 11.9883 7.90316 11.9993 7.90996C12.023 7.92456 12.023 7.90501 11.9993 7.84996C11.9828 7.81141 11.9821 7.81151 11.9807 7.85376ZM15.2993 7.94961C15.2993 7.95621 15.3184 7.98151 15.3418 8.00581L15.3843 8.04996L15.3617 8.00606C15.3393 7.96266 15.2993 7.92641 15.2993 7.94961ZM13.6206 7.96996C13.6206 7.98096 13.6338 8.00741 13.65 8.02876C13.6661 8.05016 13.6793 8.05861 13.6793 8.04761C13.6793 8.03661 13.6661 8.01016 13.65 7.98876C13.6338 7.96741 13.6206 7.95896 13.6206 7.96996ZM16.422 8.14996C16.6004 8.34246 16.6133 8.50391 16.4631 8.66496C16.4349 8.69521 16.4184 8.71996 16.4265 8.71996C16.4346 8.71996 16.461 8.69921 16.4852 8.67386C16.6385 8.51356 16.6168 8.31776 16.4259 8.13996L16.3293 8.04996L16.422 8.14996ZM14.8293 8.09996C14.8513 8.10941 14.8918 8.11686 14.9193 8.11656L14.9693 8.11596L14.9193 8.09996C14.8918 8.09116 14.8513 8.08366 14.8293 8.08336L14.7893 8.08276L14.8293 8.09996ZM15.0693 8.09996C15.0154 8.11366 15.0144 8.11526 15.0593 8.11561C15.0868 8.11581 15.1318 8.10876 15.1593 8.09996C15.2265 8.07841 15.1539 8.07841 15.0693 8.09996ZM17.7646 8.11431C17.795 8.11891 17.84 8.11881 17.8646 8.11406C17.8892 8.10931 17.8643 8.10551 17.8093 8.10566C17.7543 8.10581 17.7342 8.10971 17.7646 8.11431ZM17.9293 8.13996C17.9361 8.15096 17.9531 8.15996 17.967 8.15996C18.0032 8.15996 18.0721 8.23851 18.1075 8.32011C18.1317 8.37601 18.1379 8.38101 18.1385 8.34531C18.1394 8.29766 17.9841 8.11996 17.9416 8.11996C17.928 8.11996 17.9225 8.12896 17.9293 8.13996ZM17.5652 8.20506C17.4812 8.29736 17.4793 8.31461 17.479 9.01366C17.4786 10.0423 17.5416 9.97921 16.5133 9.97966C15.796 9.97996 15.7778 9.98216 15.6912 10.0779C15.6702 10.1011 15.6635 10.12 15.6762 10.12C15.6889 10.12 15.6993 10.1112 15.6993 10.1004C15.6993 10.0205 15.7836 10.0103 16.5284 9.99996C17.566 9.98556 17.4849 10.0666 17.4993 9.02996C17.5096 8.28661 17.5142 8.24721 17.5944 8.20231C17.6134 8.19166 17.6239 8.17781 17.6176 8.17156C17.6113 8.16526 17.5877 8.18031 17.5652 8.20506ZM13.8837 8.31021C13.9245 8.35296 13.9612 8.38391 13.9652 8.37896C13.9692 8.37401 13.9357 8.33901 13.8909 8.30121L13.8093 8.23246L13.8837 8.31021ZM9.37176 8.31071C9.36491 8.32861 9.36021 8.36276 9.36136 8.38661C9.36266 8.41401 9.36946 8.40426 9.37981 8.36011C9.39731 8.28576 9.39256 8.25661 9.37176 8.31071ZM14.0065 8.41541C14.0223 8.44101 14.1393 8.52761 14.1393 8.51371C14.1393 8.50876 14.1063 8.47951 14.0659 8.44871C14.0255 8.41791 13.9988 8.40291 14.0065 8.41541ZM6.85931 8.48876C6.85931 8.52661 6.86621 8.56186 6.87466 8.56711C6.88311 8.57231 6.88671 8.54136 6.88256 8.49826C6.87336 8.40156 6.85931 8.39586 6.85931 8.48876ZM9.36021 8.50596C9.35896 8.55666 9.40686 8.64296 9.46226 8.68986L9.50931 8.72966L9.46261 8.67671C9.43691 8.64756 9.40356 8.58916 9.38846 8.54686C9.37341 8.50456 9.36066 8.48616 9.36021 8.50596ZM15.7593 8.56186C15.706 8.60561 15.7159 8.60541 15.8049 8.56086C15.858 8.53426 15.8643 8.53656 15.9449 8.61146L16.0293 8.68996L15.9503 8.60496C15.8616 8.50956 15.8314 8.50276 15.7593 8.56186ZM7.47931 8.55591C7.47931 8.56836 7.45041 8.61261 7.41506 8.65426C7.35746 8.72211 7.35661 8.72476 7.40686 8.67996C7.47016 8.62356 7.50831 8.56226 7.49091 8.54491C7.48456 8.53851 7.47931 8.54346 7.47931 8.55591ZM9.95821 8.59486C9.91301 8.68501 9.91366 8.69391 9.96031 8.62411C9.98451 8.58791 10.0002 8.55411 9.99506 8.54906C9.98996 8.54396 9.97336 8.56456 9.95821 8.59486ZM14.6993 8.73966C14.7158 8.75051 14.7511 8.75951 14.7777 8.75966C14.8419 8.76006 14.8256 8.74871 14.7393 8.73286C14.6901 8.72381 14.6782 8.72586 14.6993 8.73966ZM15.2393 8.73996C15.1916 8.75526 15.1922 8.75606 15.2531 8.75796C15.2882 8.75906 15.3225 8.75096 15.3293 8.73996C15.3435 8.71696 15.3111 8.71696 15.2393 8.73996ZM4.38431 10.04C4.38376 10.2435 4.38926 10.4313 4.39661 10.4574C4.40926 10.5026 4.40461 9.82456 4.39156 9.71996C4.38811 9.69246 4.38486 9.83646 4.38431 10.04ZM18.1223 9.83331C18.1207 9.85716 18.1135 9.89316 18.1064 9.91331C18.0964 9.94151 18.0991 9.94476 18.1179 9.92741C18.1314 9.91501 18.1386 9.87901 18.1339 9.84741C18.1278 9.80691 18.1244 9.80276 18.1223 9.83331ZM17.9615 10.2265C17.9148 10.302 17.7704 10.4419 17.7005 10.4793C17.676 10.4925 17.6607 10.508 17.6665 10.5138C17.6799 10.5273 17.7914 10.4485 17.8697 10.3703C17.9463 10.2937 18.0267 10.1807 18.0138 10.1678C18.0083 10.1623 17.9848 10.1888 17.9615 10.2265ZM15.605 10.31C15.6052 10.365 15.6091 10.3851 15.6137 10.3547C15.6183 10.3243 15.6182 10.2793 15.6134 10.2547C15.6087 10.2301 15.6049 10.255 15.605 10.31ZM18.7141 10.3866C18.706 10.4068 18.6999 10.4473 18.7006 10.4766L18.7019 10.53L18.7215 10.4809C18.7322 10.4539 18.7383 10.4134 18.735 10.3909C18.7294 10.3529 18.7279 10.3526 18.7141 10.3866ZM15.6193 10.4422C15.6193 10.4847 15.797 10.64 15.8447 10.6392C15.8804 10.6386 15.8754 10.6324 15.8195 10.6081C15.7379 10.5727 15.6593 10.5039 15.6593 10.4677C15.6593 10.4537 15.6503 10.4368 15.6393 10.43C15.6283 10.4232 15.6193 10.4287 15.6193 10.4422ZM4.41991 10.56C4.41991 10.5765 4.42866 10.6035 4.43931 10.62C4.45656 10.6466 4.45871 10.6466 4.45871 10.62C4.45871 10.6035 4.44996 10.5765 4.43931 10.56C4.42206 10.5333 4.41991 10.5333 4.41991 10.56ZM17.3493 10.62L17.2893 10.6352L17.3531 10.6376C17.3882 10.6389 17.4225 10.631 17.4293 10.62C17.443 10.5978 17.4363 10.5978 17.3493 10.62ZM4.64896 10.9596C4.69171 11.0034 4.73046 11.0355 4.73501 11.0309C4.74526 11.0207 4.60631 10.88 4.58591 10.88C4.57781 10.88 4.60616 10.9158 4.64896 10.9596ZM18.4436 10.9541C18.3523 11.0526 18.3743 11.0573 18.4697 10.9596C18.5125 10.9158 18.5389 10.8807 18.5284 10.8815C18.5179 10.8823 18.4797 10.915 18.4436 10.9541ZM5.13931 11.22C5.21581 11.2445 5.27721 11.2445 5.23931 11.22C5.22281 11.2093 5.18231 11.2013 5.14931 11.2023C5.09051 11.2039 5.09031 11.2043 5.13931 11.22ZM17.8793 11.22C17.8402 11.2453 17.9305 11.2453 17.9893 11.22C18.0237 11.2052 18.0208 11.2026 17.9693 11.2017C17.9363 11.2011 17.8958 11.2093 17.8793 11.22ZM7.94931 11.2773C7.98231 11.2978 8.01316 11.3111 8.01786 11.307C8.03171 11.2949 7.95201 11.2413 7.91931 11.2407C7.90281 11.2404 7.91631 11.2569 7.94931 11.2773ZM10.9943 11.3114C10.9641 11.3278 10.9393 11.3455 10.9393 11.3506C10.9393 11.3699 10.9709 11.3578 11.0193 11.32C11.0788 11.2735 11.0699 11.2704 10.9943 11.3114ZM8.09686 11.4273C8.11471 11.4644 8.13261 11.486 8.13661 11.4754C8.14531 11.4524 8.09871 11.36 8.07846 11.36C8.07071 11.36 8.07896 11.3903 8.09686 11.4273ZM10.7193 11.4618C10.5389 11.5621 10.2751 11.7033 10.1848 11.7481C10.1383 11.7711 10.1001 11.7974 10.0998 11.8064C10.0995 11.8154 10.1691 11.7847 10.2543 11.7382C10.3396 11.6917 10.4588 11.6268 10.5193 11.594C10.7735 11.4563 10.8102 11.4354 10.8283 11.4181C10.8603 11.3875 10.834 11.3981 10.7193 11.4618ZM9.96466 11.8673C9.91811 11.8908 9.87986 11.9169 9.87966 11.9254C9.87931 11.9398 9.99231 11.8868 10.0593 11.8411C10.1096 11.8068 10.0544 11.8221 9.96466 11.8673ZM9.78431 11.9672C9.75956 11.9794 9.73931 11.9966 9.73931 12.0052C9.73931 12.0139 9.76631 12.007 9.79931 11.99C9.83231 11.9729 9.85931 11.9547 9.85931 11.9495C9.85931 11.936 9.83626 11.9415 9.78431 11.9672ZM9.09091 12.3505C8.95976 12.4217 8.84501 12.48 8.83591 12.48C8.82676 12.48 8.81931 12.4896 8.81931 12.5014C8.81931 12.5131 8.88906 12.4847 8.97431 12.4382C9.05956 12.3917 9.16981 12.3318 9.21931 12.305C9.30236 12.2601 9.35986 12.2192 9.33831 12.2205C9.33336 12.2208 9.22201 12.2793 9.09091 12.3505ZM8.66931 12.5786C8.45981 12.694 8.40871 12.7244 8.38931 12.7449C8.36856 12.7668 8.69916 12.5943 8.76876 12.5469C8.83606 12.501 8.77436 12.5207 8.66931 12.5786Z" fill="#C5A106"/>
</g>
<defs>
<clipPath id="clip0_410_9367">
<rect width="20" height="20" fill="white"/>
</clipPath>
</defs>
</svg>
