<svg width="514" height="554" viewBox="0 0 514 554" fill="none" xmlns="http://www.w3.org/2000/svg">
<path d="M213 25V26H220L213 25ZM328 25L329 26L328 25Z" fill="#89C6AD"/>
<path d="M329.668 25.3335L330.334 25.6669L329.668 25.3335Z" fill="#525352"/>
<path d="M331 25.4545C315.538 27.5651 312.168 40.7791 309.919 54C306.673 73.0852 309.178 95.0709 335 91.8148C347.326 90.2606 351.259 79.2211 354.667 69C357.382 60.8546 361.135 52.8192 359.787 44C357.892 31.5987 342.684 23.8595 331 25.4545Z" fill="#020202"/>
<path d="M336.668 25.3335L337.334 25.6669L336.668 25.3335Z" fill="#525352"/>
<path d="M338 25L339 26L338 25ZM207 26L208 27L207 26Z" fill="#89C6AD"/>
<path d="M208.668 26.3335L209.334 26.6669L208.668 26.3335Z" fill="#525352"/>
<path d="M223.668 26.3335L224.334 26.6669L223.668 26.3335Z" fill="#525352"/>
<path d="M225 26L226 27L225 26Z" fill="#89C6AD"/>
<path d="M325 26L326 27L325 26ZM341 26L342 27L341 26Z" fill="#525352"/>
<path d="M342 26L343 27L342 26ZM203 27L204 28L203 27Z" fill="#89C6AD"/>
<path d="M204.668 27.3333L205.334 27.6667L204.668 27.3333ZM227.001 27L228.001 28L227.001 27Z" fill="#525352"/>
<path d="M228 27L229 28L228 27Z" fill="#89C6AD"/>
<path d="M323 27L324 28L323 27ZM344.667 27.3333L345.333 27.6667L344.667 27.3333Z" fill="#525352"/>
<path d="M201 28L202 29L201 28Z" fill="#89C6AD"/>
<path d="M230 28L231 29L230 28Z" fill="#525352"/>
<path d="M231 28L232 29L231 28ZM321 28L322 29L321 28Z" fill="#89C6AD"/>
<path d="M347 28L348 29L347 28Z" fill="#525352"/>
<path d="M348 28L349 29L348 28Z" fill="#89C6AD"/>
<path d="M199 29L200 30L199 29ZM233 29L234 30L233 29ZM320 29L321 30L320 29ZM349 29L350 30L349 29ZM197 30L198 31L197 30Z" fill="#525352"/>
<path d="M235 30L236 31L235 30Z" fill="#89C6AD"/>
<path d="M351 30L352 31L351 30Z" fill="#525352"/>
<path d="M195 31L196 32L195 31ZM237 31L238 32L237 31ZM317 31L318 32L317 31Z" fill="#89C6AD"/>
<path d="M352 31L353 32L352 31ZM194 32L195 33L194 32ZM238 32L239 33L238 32ZM353 32L354 33L353 32Z" fill="#525352"/>
<path d="M192 33L193 34L192 33ZM240 33L241 34L240 33Z" fill="#89C6AD"/>
<path d="M354 33L355 34L354 33ZM191 34L192 35L191 34ZM241 34L242 35L241 34ZM315 34L316 35L315 34ZM355 34L356 35L355 34ZM190 35L191 36L190 35ZM242 35L243 36L242 35Z" fill="#525352"/>
<path d="M314 35L315 36L314 35Z" fill="#89C6AD"/>
<path d="M356 35L357 36L356 35ZM189 36L190 37L189 36ZM243 36L244 37L243 36Z" fill="#525352"/>
<path d="M357 36L358 37L357 36Z" fill="#89C6AD"/>
<path d="M244 37L245 38L244 37Z" fill="#525352"/>
<path d="M313 37L314 38L313 37Z" fill="#89C6AD"/>
<path d="M357 37L358 38L357 37ZM187 38L188 39L187 38ZM245 38L246 39L245 38ZM313 38L314 39L313 38Z" fill="#525352"/>
<path d="M358 38L359 39L358 38Z" fill="#89C6AD"/>
<path d="M186 39L187 40L186 39ZM246 39L247 40L246 39Z" fill="#525352"/>
<path d="M312 39L313 40L312 39Z" fill="#89C6AD"/>
<path d="M358 39L359 40L358 39ZM185 40L186 41L185 40ZM214 40V41H219L214 40Z" fill="#525352"/>
<path d="M247 40L248 41L247 40Z" fill="#89C6AD"/>
<path d="M312.332 40.6669L312.666 41.3335L312.332 40.6669ZM330.666 40.3335L331.332 40.6669L330.666 40.3335Z" fill="#525352"/>
<path d="M332.044 40.6126C322.802 42.9567 315.651 81.0415 332.956 76.6782C337.654 75.4936 338.673 69.9763 340 65.9999C342.712 57.8728 350.231 35.9998 332.044 40.6126Z" fill="#89C6AD"/>
<path d="M336 40L337 41L336 40Z" fill="#525352"/>
<path d="M359 40L360 41L359 40ZM184 41L185 42L184 41Z" fill="#89C6AD"/>
<path d="M209 41L210 42L209 41Z" fill="#525352"/>
<path d="M210 41L211 42L210 41Z" fill="#D7636E"/>
<path d="M211 41L212 42L211 41Z" fill="#89C6AD"/>
<path fill-rule="evenodd" clip-rule="evenodd" d="M78.4568 129.772C90.9948 129.324 104.186 128.853 115 135C120.675 121.37 130.445 113.599 140.418 105.667C147.311 100.184 154.301 94.6246 160.101 87.0001C165.095 80.4339 168.687 72.5355 172.288 64.6172C178.305 51.387 184.347 38.1012 197 30.8805C221.082 17.1368 252.872 33.5032 255.826 61.0001C257.455 76.1687 250.118 89.6522 242.817 103.068C238 111.92 233.199 120.742 231 130C237.137 130 243.806 129.6 250.667 129.187C266.49 128.237 283.331 127.225 297 130.927C313.042 135.272 321.186 151.287 318.865 167C318.088 172.261 315.755 176.37 313.25 180.781C312.836 181.51 312.417 182.248 312 183C327.379 190.872 330.316 207.642 326 223H411C414.784 223 418.821 222.787 422.95 222.57C432.819 222.049 443.222 221.501 452 223.761C478.268 230.524 477.001 256.716 468 276C483.787 284.191 490.729 310.372 476 323V324C495.435 335.234 500.233 369.612 476 379C483.306 391.136 487.204 403.76 479.64 416.999C476.771 422.022 469.802 430.549 463.133 426.817C457.077 423.429 460.73 417.221 464.427 410.937C466.912 406.715 469.416 402.459 469.01 399C467.946 389.942 462.221 387.865 455.971 385.597C453.687 384.768 451.332 383.914 449.109 382.683C445.734 380.815 444.242 376.602 446.183 373.133C448.535 368.928 453.469 368.964 457.968 368.998C459.387 369.008 460.762 369.018 462 368.895C471.016 367.998 479.076 359.275 477.783 350C476.691 342.161 469.782 335.869 462 335.105C460.784 334.986 459.406 334.99 457.976 334.994C452.74 335.011 446.796 335.029 445.478 328.985C444.082 322.591 449.233 321.331 453.967 320.172C455.417 319.817 456.828 319.472 458 318.992C464.703 316.244 469.68 309.131 469.072 301.83C468.383 293.558 461.171 286.908 453 286.105C451.758 285.983 450.364 286 448.924 286.018C444.086 286.078 438.734 286.143 436.937 280.956C434.631 274.301 440.473 272.609 445.494 271.154C446.763 270.786 447.98 270.434 449 270.02C457.629 266.518 463.294 256.919 459.08 248C453.411 236.002 440.6 236.451 429.001 236.857C426.947 236.929 424.931 237 423 237H350C346.609 237 343.087 236.859 339.514 236.715C330.229 236.342 320.593 235.954 312 238C323.829 254.332 321.183 276.49 303 287V288C314.074 297.494 312.755 317.54 303.787 327.996C302.364 329.655 300.276 331.135 298.157 332.637C295.019 334.861 291.813 337.133 290.603 340.104C288.812 344.504 289.271 350.931 289.68 356.65C289.844 358.938 290 361.113 290 363C290 367.662 289.769 372.611 289.532 377.688C288.815 393.081 288.043 409.656 293.475 423C298.173 434.542 307.937 441.944 317.751 449.385C324.792 454.723 331.859 460.081 337.1 467C341.479 472.782 344.712 480.277 347.985 487.867C353.071 499.662 358.257 511.686 368 517.867C382.151 526.844 399.97 518.388 404.779 503C408.882 489.876 398.656 471.517 390.409 456.71C387.799 452.025 385.388 447.696 383.691 444C383.136 442.793 382.341 441.374 381.474 439.828C378.189 433.971 373.876 426.28 377.743 421.279C380.489 417.726 385.631 417.856 389.94 417.965C390.654 417.983 391.346 418 392 418H426C426.985 418 428.049 417.952 429.152 417.902C433.122 417.722 437.602 417.519 440.772 419.457C452.858 426.846 434.943 432.998 429 433H416H395C397.755 439.618 401.17 446.196 404.605 452.815C410.394 463.967 416.242 475.234 419.1 487C426.8 518.702 393.889 546.575 364 532.676C349.545 525.954 343.139 511.87 336.71 497.734C332.509 488.498 328.298 479.24 321.826 472C317.218 466.846 311.328 462.554 305.413 458.245C294.055 449.969 282.609 441.63 280 427C269.034 432.604 257.397 432.358 245.489 432.106C243.003 432.053 240.506 432 238 432C236.596 432 235.17 432.034 233.733 432.068C228.091 432.202 222.279 432.339 217 430.451C210.638 428.177 205.031 423.151 202.189 417C199.357 410.871 199.618 403.546 199.864 396.625C199.933 394.707 200 392.821 200 391V340C194.114 340 188.109 340.192 182.066 340.386C168.961 340.805 155.671 341.23 143 339.715C139.075 339.246 134.64 337.42 130.224 335.601C124.794 333.366 119.392 331.142 115 331.464C113.036 331.608 111.183 332.375 109.319 333.147C107.589 333.864 105.848 334.584 104 334.815C88.4089 336.762 56.3452 339.749 44.0398 328.787C34.9689 320.706 34.9838 309.504 34.9985 298.349C34.9991 297.899 34.9997 297.45 34.9997 297V232C34.9997 230.668 34.8752 228.865 34.7323 226.797C34.0983 217.621 33.1032 203.217 41.0182 201.478C52.1953 199.021 50.912 219.386 50.2323 230.174C50.1055 232.186 49.9997 233.865 49.9997 235V295C49.9997 296.323 49.9373 297.737 49.8728 299.198C49.586 305.695 49.2589 313.103 54.2134 317.442C59.6728 322.223 69.0175 321.691 76.9272 321.241C79.0958 321.117 81.1565 321 82.9997 321C84.5063 321 86.1545 321.086 87.8724 321.176C94.1107 321.502 101.268 321.876 105.895 318.347C112.873 313.025 112.013 300.194 111.343 290.193C111.165 287.53 111 285.067 111 283V183C111 180.995 111.162 178.578 111.339 175.945C112.09 164.739 113.104 149.623 102.999 145.742C100.235 144.681 96.9084 144.808 93.7969 144.927C92.8364 144.964 91.8964 145 90.9997 145C88.7464 145 85.9324 144.794 82.8487 144.567C72.774 143.827 59.8204 142.876 54.1332 148.228C49.0292 153.032 49.5159 159.966 49.9983 166.838C50.2965 171.087 50.593 175.312 49.5661 178.995C48.3194 183.467 43.4913 186.405 39.1085 183.971C34.776 181.566 34.8835 176.289 34.9746 171.816C34.9874 171.192 34.9998 170.583 34.9997 170C34.9997 169.497 34.9989 168.995 34.9982 168.493C34.9801 156.412 34.9628 144.804 45.0036 136.214C51.8499 130.357 60.4444 130 68.9997 130C72.0752 130 75.2446 129.887 78.4568 129.772ZM163.329 325.074C150.035 325.294 136.507 325.518 125 318C127.02 307.123 126.646 295.452 126.281 284.045C126.14 279.637 126 275.268 126 271C126 258.949 125.7 246.744 125.398 234.482C124.685 205.531 123.965 176.268 127.173 148C129.032 131.62 141.611 121.83 154.212 112.023C162.089 105.893 169.974 99.7566 175.254 91.9998C178.761 86.8481 181.505 80.3441 184.299 73.721C188.876 62.8743 193.587 51.7079 202.004 45.6379C214.138 36.8873 232.388 41.2754 238.647 54.9998C245.339 69.6737 234.733 88.995 226.096 104.73C223.66 109.167 221.382 113.318 219.691 117C219.119 118.246 218.276 119.748 217.349 121.398C214.039 127.291 209.664 135.082 212.758 139.945C216.385 145.648 223.99 145.349 230.4 145.097C231.659 145.048 232.872 145 234 145H284C292.077 145.003 300.158 146.21 303.146 155.001C306.09 163.662 302.572 172.993 294 176.517C292.92 176.961 291.587 177.311 290.185 177.68C285.54 178.902 280.137 180.322 280.662 186C281.31 193.012 289.626 193.946 295 194C303.233 194.083 311.373 197.948 312.786 207C314.439 217.583 307.4 225.692 297 226.826C295.774 226.96 294.457 226.982 293.119 227.005C288.44 227.084 283.498 227.168 281.223 232.044C277.984 238.985 285.28 241.132 291.106 242.846C293.042 243.416 294.815 243.938 295.985 244.572C303.024 248.385 305.33 256.498 303.606 264C301.735 272.138 293.61 275.612 286 275.961C285.41 275.988 284.793 276.003 284.162 276.019C279.292 276.139 273.527 276.281 272.083 282.015C270.45 288.498 276.726 290.244 281.937 291.693C283.455 292.116 284.883 292.513 285.999 292.995C294.526 296.678 297.733 306.787 294.03 314.999C288.803 326.592 273.212 325.833 260.988 325.238C258.477 325.115 256.108 325 254 325H170C167.79 325 165.563 325.037 163.329 325.074Z" fill="#020202"/>
<path d="M221 41L222 42L221 41Z" fill="#89C6AD"/>
<path d="M222 41L223 42L222 41Z" fill="#D7636E"/>
<path d="M223 41L224 42L223 41Z" fill="#525352"/>
<path d="M248 41L249 42L248 41Z" fill="#89C6AD"/>
<path d="M339.667 41.3333L340.333 41.6667L339.667 41.3333ZM359 41L360 42L359 41ZM206 42L207 43L206 42Z" fill="#525352"/>
<path d="M207 42L208 43L207 42ZM225 42L226 43L225 42Z" fill="#D7636E"/>
<path d="M226 42L227 43L226 42ZM342 42L343 43L342 42ZM183 43L184 44L183 43ZM204 43L205 44L204 43Z" fill="#525352"/>
<path d="M205 43L206 44L205 43Z" fill="#89C6AD"/>
<path d="M227 43L228 44L227 43Z" fill="#D7636E"/>
<path d="M228 43L229 44L228 43ZM249 43L250 44L249 43Z" fill="#525352"/>
<path d="M311 43L312 44L311 43Z" fill="#89C6AD"/>
<path d="M327 43L328 44L327 43ZM343 43L344 44L343 43ZM182 44L183 45L182 44Z" fill="#525352"/>
<path d="M203 44L204 45L203 44ZM229 44L230 45L229 44Z" fill="#D7636E"/>
<path d="M250 44L251 45L250 44Z" fill="#89C6AD"/>
<path d="M311.332 44.6667L311.666 45.3333L311.332 44.6667ZM343.999 44L344.999 45L343.999 44Z" fill="#525352"/>
<path d="M360 44L361 45L360 44Z" fill="#89C6AD"/>
<path d="M200 46L201 47L200 46Z" fill="#D7636E"/>
<path d="M232 46L233 47L232 46Z" fill="#525352"/>
<path d="M251 46L252 47L251 46Z" fill="#89C6AD"/>
<path d="M199 47L200 48L199 47Z" fill="#D7636E"/>
<path d="M233 47L234 48L233 47ZM180 48L181 49L180 48Z" fill="#525352"/>
<path d="M198 48L199 49L198 48Z" fill="#D7636E"/>
<path d="M234 48L235 49L234 48ZM252 48L253 49L252 48Z" fill="#525352"/>
<path d="M310.332 48.6665L310.666 49.3331L310.332 48.6665Z" fill="#89C6AD"/>
<path d="M197 49L198 50L197 49Z" fill="#D7636E"/>
<path d="M235 49L236 50L235 49ZM179 50L180 51L179 50ZM196 50L197 51L196 50ZM236 50L237 51L236 50Z" fill="#525352"/>
<path d="M253 50L254 51L253 50Z" fill="#89C6AD"/>
<path d="M310 50L311 51L310 50ZM325.333 50.6667L325.667 51.3333L325.333 50.6667ZM253 51L254 52L253 51Z" fill="#525352"/>
<path d="M360.332 51.6665L360.666 52.3331L360.332 51.6665Z" fill="#89C6AD"/>
<path d="M178 52L179 53L178 52Z" fill="#525352"/>
<path d="M195 52L196 53L195 52Z" fill="#89C6AD"/>
<path d="M237 52L238 53L237 52Z" fill="#D7636E"/>
<path d="M194 53L195 54L194 53ZM238 53L239 54L238 53Z" fill="#525352"/>
<path d="M254 53L255 54L254 53ZM309.333 53.6667L309.667 54.3333L309.333 53.6667Z" fill="#89C6AD"/>
<path d="M344 53L345 54L344 53ZM177 54L178 55L177 54Z" fill="#525352"/>
<path d="M194 54L195 55L194 54ZM238 54L239 55L238 54Z" fill="#89C6AD"/>
<path d="M254 54L255 55L254 54ZM359.333 54.6667L359.667 55.3333L359.333 54.6667ZM193 55L194 56L193 55ZM309.333 55.6667L309.667 56.3333L309.333 55.6667ZM324.333 55.6667L324.667 56.3333L324.333 55.6667ZM343.333 55.6667L343.667 56.3333L343.333 55.6667Z" fill="#525352"/>
<path d="M176 56L177 57L176 56ZM193 56L194 57L193 56Z" fill="#89C6AD"/>
<path d="M239 56L240 57L239 56Z" fill="#D7636E"/>
<path d="M255.332 56.6667L255.666 57.3333L255.332 56.6667ZM358.999 56L359.999 57L358.999 56Z" fill="#89C6AD"/>
<path d="M192 57L193 58L192 57Z" fill="#525352"/>
<path d="M175 58L176 59L175 58ZM192 58L193 59L192 58Z" fill="#89C6AD"/>
<path d="M240.332 58.6667L240.666 59.3333L240.332 58.6667ZM254.999 58L255.999 59L254.999 58Z" fill="#525352"/>
<path d="M308.332 58.6665L308.666 59.3331L308.332 58.6665Z" fill="#89C6AD"/>
<path d="M342.333 58.6667L342.667 59.3333L342.333 58.6667ZM358 58L359 59L358 58ZM191 59L192 60L191 59Z" fill="#525352"/>
<path d="M174 60L175 61L174 60ZM191 60L192 61L191 60ZM240 60L241 61L240 60Z" fill="#89C6AD"/>
<path d="M308.333 60.6665L308.667 61.3331L308.333 60.6665ZM323.333 60.6665L323.667 61.3331L323.333 60.6665ZM357.333 60.6665L357.667 61.3331L357.333 60.6665ZM174 60.9998L175 61.9998L174 60.9998ZM190 60.9998L191 61.9998L190 60.9998ZM341.333 61.6665L341.667 62.3331L341.333 61.6665Z" fill="#525352"/>
<path d="M173 62L174 63L173 62Z" fill="#89C6AD"/>
<path d="M190 62L191 63L190 62Z" fill="#D7636E"/>
<path d="M173 63L174 64L173 63ZM241 63V68H242L241 63Z" fill="#525352"/>
<path d="M256 63V69H257L256 63ZM307.333 63.6667L307.667 64.3333L307.333 63.6667Z" fill="#89C6AD"/>
<path d="M356 63L357 64L356 63Z" fill="#525352"/>
<path d="M172 64L173 65L172 64Z" fill="#89C6AD"/>
<path d="M189 64L190 65L189 64Z" fill="#D7636E"/>
<path d="M340.332 64.6665L340.666 65.3331L340.332 64.6665Z" fill="#525352"/>
<path d="M356 64L357 65L356 64Z" fill="#89C6AD"/>
<path d="M172 65L173 66L172 65ZM307.333 65.6667L307.667 66.3333L307.333 65.6667ZM322.333 65.6667L322.667 66.3333L322.333 65.6667ZM188 66L189 67L188 66ZM355 66L356 67L355 66ZM171 67L172 68L171 67ZM339 67L340 68L339 67Z" fill="#525352"/>
<path d="M355 67L356 68L355 67Z" fill="#89C6AD"/>
<path d="M187 68L188 69L187 68ZM170 69L171 70L170 69ZM354 69L355 70L354 69Z" fill="#525352"/>
<path d="M186 70L187 71L186 70Z" fill="#525352"/>
<path d="M240 70L241 71L240 70Z" fill="#89C6AD"/>
<path d="M338 70L339 71L338 70Z" fill="#525352"/>
<path d="M354 70L355 71L354 70ZM393 70L394 71L393 70Z" fill="#89C6AD"/>
<path d="M394.668 70.3335L395.334 70.6669L394.668 70.3335Z" fill="#525352"/>
<path d="M395.999 70.4682C382.753 73.0097 364.479 94.6422 363.328 108C362.106 122.177 376.201 134.603 389.999 132.177C403.055 129.882 423.344 112.389 425.67 98.9998C428.466 82.9099 411.686 67.4583 395.999 70.4682Z" fill="#020202"/>
<path d="M405.668 70.3335L406.334 70.6669L405.668 70.3335Z" fill="#525352"/>
<path d="M407 70L408 71L407 70Z" fill="#89C6AD"/>
<path d="M169 71L170 72L169 71Z" fill="#525352"/>
<path d="M186 71L187 72L186 71Z" fill="#89C6AD"/>
<path d="M240 71L241 72L240 71Z" fill="#D7636E"/>
<path d="M391 71L392 72L391 71ZM409 71L410 72L409 71Z" fill="#89C6AD"/>
<path d="M185 72L186 73L185 72ZM240 72L241 73L240 72ZM255.333 72.6667L255.667 73.3333L255.333 72.6667ZM322 72L323 73L322 72ZM353 72L354 73L353 72Z" fill="#525352"/>
<path d="M389 72L390 73L389 72ZM411 72L412 73L411 72ZM168 73L169 74L168 73ZM185 73L186 74L185 73Z" fill="#89C6AD"/>
<path d="M307.332 73.6667L307.666 74.3333L307.332 73.6667ZM336.999 73L337.999 74L336.999 73Z" fill="#525352"/>
<path d="M353 73L354 74L353 73Z" fill="#89C6AD"/>
<path d="M388 73L389 74L388 73ZM412 73L413 74L412 73ZM184 74L185 75L184 74Z" fill="#525352"/>
<path d="M239 74L240 75L239 74Z" fill="#D7636E"/>
<path d="M255 74L256 75L255 74Z" fill="#89C6AD"/>
<path d="M323 74L324 75L323 74Z" fill="#525352"/>
<path d="M386 74L387 75L386 74ZM414 74L415 75L414 74ZM167 75L168 76L167 75ZM184 75L185 76L184 75Z" fill="#89C6AD"/>
<path d="M239 75L240 76L239 75Z" fill="#525352"/>
<path d="M307 75L308 76L307 75Z" fill="#89C6AD"/>
<path d="M324 75L325 76L324 75ZM352 75L353 76L352 75ZM385 75L386 76L385 75Z" fill="#525352"/>
<path d="M415 75L416 76L415 75Z" fill="#89C6AD"/>
<path d="M183 76L184 77L183 76Z" fill="#525352"/>
<path d="M238 76L239 77L238 76Z" fill="#89C6AD"/>
<path d="M254 76L255 77L254 76ZM326 76L327 77L326 76Z" fill="#525352"/>
<path d="M352 76L353 77L352 76Z" fill="#89C6AD"/>
<path d="M384 76L385 77L384 76ZM416 76L417 77L416 76ZM166 77L167 78L166 77Z" fill="#525352"/>
<path d="M183 77L184 78L183 77Z" fill="#D7636E"/>
<path d="M238 77L239 78L238 77Z" fill="#525352"/>
<path d="M254 77L255 78L254 77Z" fill="#89C6AD"/>
<path d="M383 77L384 78L383 77Z" fill="#89C6AD"/>
<path d="M417 77L418 78L417 77Z" fill="#525352"/>
<path d="M237 78L238 79L237 78ZM308 78L309 79L308 78Z" fill="#89C6AD"/>
<path d="M351 78L352 79L351 78Z" fill="#525352"/>
<path d="M382 78L383 79L382 78Z" fill="#89C6AD"/>
<path d="M418 78L419 79L418 78ZM165 79L166 80L165 79Z" fill="#525352"/>
<path d="M182 79L183 80L182 79Z" fill="#D7636E"/>
<path d="M237 79L238 80L237 79ZM253 79L254 80L253 79Z" fill="#525352"/>
<path d="M381 79L382 80L381 79Z" fill="#89C6AD"/>
<path d="M419 79L420 80L419 79Z" fill="#525352"/>
<path d="M164 80L165 81L164 80ZM253 80L254 81L253 80ZM309 80L310 81L309 80Z" fill="#89C6AD"/>
<path d="M350 80L351 81L350 80Z" fill="#525352"/>
<path d="M420 80L421 81L420 80Z" fill="#89C6AD"/>
<path d="M181 81L182 82L181 81Z" fill="#D7636E"/>
<path d="M236 81L237 82L236 81ZM310 81L311 82L310 81Z" fill="#525352"/>
<path d="M350 81L351 82L350 81ZM421 81L422 82L421 81Z" fill="#89C6AD"/>
<path d="M163 82L164 83L163 82ZM180 82L181 83L180 82ZM252 82L253 83L252 82Z" fill="#525352"/>
<path d="M310 82L311 83L310 82Z" fill="#89C6AD"/>
<path d="M349 82L350 83L349 82ZM379 82L380 83L379 82Z" fill="#525352"/>
<path d="M162 83L163 84L162 83Z" fill="#89C6AD"/>
<path d="M180 83L181 84L180 83Z" fill="#D7636E"/>
<path d="M235 83L236 84L235 83ZM311 83L312 84L311 83ZM378 83L379 84L378 83ZM422 83L423 84L422 83ZM179 84L180 85L179 84ZM251 84L252 85L251 84ZM312 84L313 85L312 84ZM377 84L378 85L377 84ZM399 84V85H402L399 84Z" fill="#525352"/>
<path d="M423 84L424 85L423 84Z" fill="#89C6AD"/>
<path d="M161 85L162 86L161 85Z" fill="#525352"/>
<path d="M179 85L180 86L179 85Z" fill="#89C6AD"/>
<path d="M234 85L235 86L234 85Z" fill="#D7636E"/>
<path d="M313 85L314 86L313 85Z" fill="#525352"/>
<path d="M347 85L348 86L347 85ZM376 85L377 86L376 85ZM397.004 86.0316C391.142 88.9153 380.783 100.746 378.785 107C376.69 113.554 384.068 119.308 390 116.528C396.014 113.709 407.978 104.376 410.242 97.9962C412.691 91.0957 403.647 82.7636 397.004 86.0316Z" fill="#89C6AD"/>
<path d="M403 85L404 86L403 85Z" fill="#525352"/>
<path d="M160 86L161 87L160 86Z" fill="#89C6AD"/>
<path d="M178 86L179 87L178 86ZM250 86L251 87L250 86ZM314 86L315 87L314 86Z" fill="#525352"/>
<path d="M346 86L347 87L346 86ZM375 86L376 87L375 86Z" fill="#89C6AD"/>
<path d="M395 86L396 87L395 86ZM405 86L406 87L405 86Z" fill="#525352"/>
<path d="M424 86L425 87L424 86ZM159 87L160 88L159 87Z" fill="#89C6AD"/>
<path d="M233 87L234 88L233 87Z" fill="#D7636E"/>
<path d="M250 87L251 88L250 87Z" fill="#89C6AD"/>
<path d="M315 87L316 88L315 87Z" fill="#525352"/>
<path d="M345 87L346 88L345 87ZM374 87L375 88L374 87Z" fill="#89C6AD"/>
<path d="M394 87L395 88L394 87ZM406 87L407 88L406 87ZM424 87L425 88L424 87Z" fill="#525352"/>
<path d="M177 88L178 89L177 88Z" fill="#D7636E"/>
<path d="M249 88L250 89L249 88Z" fill="#525352"/>
<path d="M316 88L317 89L316 88Z" fill="#89C6AD"/>
<path d="M343 88L344 89L343 88ZM407 88L408 89L407 88ZM158 89L159 90L158 89ZM176 89L177 90L176 89Z" fill="#525352"/>
<path d="M232 89L233 90L232 89ZM249 89L250 90L249 89ZM318 89L319 90L318 89ZM342 89L343 90L342 89Z" fill="#89C6AD"/>
<path d="M373 89L374 90L373 89ZM408 89L409 90L408 89Z" fill="#525352"/>
<path d="M425 89L426 90L425 89Z" fill="#89C6AD"/>
<path d="M157 90L158 91L157 90Z" fill="#525352"/>
<path d="M176 90L177 91L176 90Z" fill="#89C6AD"/>
<path d="M232 90L233 91L232 90ZM248 90L249 91L248 90Z" fill="#525352"/>
<path d="M320 90L321 91L320 90Z" fill="#89C6AD"/>
<path d="M321 90L322 91L321 90ZM340 90L341 91L340 90ZM372 90L373 91L372 90ZM409 90L410 91L409 90ZM425 90L426 91L425 90ZM156 91L157 92L156 91ZM175 91L176 92L175 91Z" fill="#525352"/>
<path d="M231 91L232 92L231 91ZM248 91L249 92L248 91ZM323 91L324 92L323 91Z" fill="#89C6AD"/>
<path d="M324 91L325 92L324 91ZM337 91L338 92L337 91Z" fill="#525352"/>
<path d="M338 91L339 92L338 91Z" fill="#89C6AD"/>
<path d="M371 91L372 92L371 91ZM155 92L156 93L155 92ZM174 92L175 93L174 92ZM231 92L232 93L231 92Z" fill="#525352"/>
<path d="M327 92L328 93L327 92Z" fill="#89C6AD"/>
<path d="M334 92L335 93L334 92Z" fill="#89C6AD"/>
<path d="M370 92L371 93L370 92ZM390 92L391 93L390 92ZM410 92L411 93L410 92ZM154 93L155 94L154 93Z" fill="#525352"/>
<path d="M174 93L175 94L174 93ZM230 93L231 94L230 93ZM247 93L248 94L247 93ZM369 93L370 94L369 93Z" fill="#89C6AD"/>
<path d="M389 93L390 94L389 93Z" fill="#525352"/>
<path d="M426 93V98H427L426 93Z" fill="#89C6AD"/>
<path d="M153 94L154 95L153 94Z" fill="#525352"/>
<path d="M173 94L174 95L173 94Z" fill="#D7636E"/>
<path d="M230 94L231 95L230 94Z" fill="#525352"/>
<path d="M368 94L369 95L368 94Z" fill="#89C6AD"/>
<path d="M388 94L389 95L388 94ZM152 95L153 96L152 95ZM172 95L173 96L172 95Z" fill="#525352"/>
<path d="M229 95L230 96L229 95ZM246 95L247 96L246 95Z" fill="#89C6AD"/>
<path d="M387 95L388 96L387 95ZM411 95L412 96L411 95ZM151 96L152 97L151 96ZM171 96L172 97L171 96ZM229 96L230 97L229 96ZM367 96L368 97L367 96ZM150 97L151 98L150 97Z" fill="#525352"/>
<path d="M171 97L172 98L171 97Z" fill="#89C6AD"/>
<path d="M245 97L246 98L245 97ZM366 97L367 98L366 97Z" fill="#525352"/>
<path d="M148 98L149 99L148 98ZM170 98L171 99L170 98Z" fill="#89C6AD"/>
<path d="M228 98L229 99L228 98ZM410 98L411 99L410 98Z" fill="#525352"/>
<path d="M147 99L148 100L147 99Z" fill="#89C6AD"/>
<path d="M169 99L170 100L169 99Z" fill="#D7636E"/>
<path d="M244 99L245 100L244 99ZM365 99L366 100L365 99ZM146 100L147 101L146 100ZM168 100L169 101L168 100ZM227 100L228 101L227 100ZM383 100L384 101L383 100ZM425 100L426 101L425 100Z" fill="#525352"/>
<path d="M144 101L145 102L144 101Z" fill="#89C6AD"/>
<path d="M167 101L168 102L167 101ZM243 101L244 102L243 101ZM364 101L365 102L364 101ZM382 101L383 102L382 101Z" fill="#525352"/>
<path d="M425 101L426 102L425 101Z" fill="#89C6AD"/>
<path d="M143 102L144 103L143 102ZM166 102L167 103L166 102Z" fill="#525352"/>
<path d="M226 102L227 103L226 102Z" fill="#D7636E"/>
<path d="M381 102L382 103L381 102Z" fill="#525352"/>
<path d="M141 103L142 104L141 103Z" fill="#89C6AD"/>
<path d="M165 103L166 104L165 103ZM242 103L243 104L242 103Z" fill="#525352"/>
<path d="M363.332 103.667L363.666 104.333L363.332 103.667Z" fill="#89C6AD"/>
<path d="M424 103L425 104L424 103ZM140 104L141 105L140 104ZM164 104L165 105L164 104Z" fill="#525352"/>
<path d="M225 104L226 105L225 104Z" fill="#D7636E"/>
<path d="M242 104L243 105L242 104Z" fill="#89C6AD"/>
<path d="M404 104L405 105L404 104Z" fill="#525352"/>
<path d="M424 104L425 105L424 104ZM138 105L139 106L138 105Z" fill="#89C6AD"/>
<path d="M163 105L164 106L163 105ZM241 105L242 106L241 105ZM363.333 105.667L363.667 106.333L363.333 105.667ZM403 105L404 106L403 105ZM423 105L424 106L423 105ZM137 106L138 107L137 106ZM162 106L163 107L162 106Z" fill="#525352"/>
<path d="M224 106L225 107L224 106ZM241 106L242 107L241 106Z" fill="#89C6AD"/>
<path d="M378 106L379 107L378 106ZM402 106L403 107L402 106Z" fill="#525352"/>
<path d="M423 106L424 107L423 106ZM135 107L136 108L135 107Z" fill="#89C6AD"/>
<path d="M161 107L162 108L161 107ZM224 107L225 108L224 107ZM240 107L241 108L240 107ZM401 107L402 108L401 107ZM422 107L423 108L422 107ZM134 108L135 109L134 108Z" fill="#525352"/>
<path d="M160 108L161 109L160 108Z" fill="#D7636E"/>
<path d="M223 108L224 109L223 108ZM240 108L241 109L240 108Z" fill="#89C6AD"/>
<path d="M133 109L134 110L133 109Z" fill="#525352"/>
<path d="M159 109L160 110L159 109Z" fill="#89C6AD"/>
<path d="M223 109L224 110L223 109Z" fill="#525352"/>
<path d="M421 109L422 110L421 109ZM158 110L159 111L158 110ZM222 110L223 111L222 110ZM239 110L240 111L239 110Z" fill="#89C6AD"/>
<path d="M397 110L398 111L397 110Z" fill="#525352"/>
<path d="M420 110L421 111L420 110ZM130 111L131 112L130 111Z" fill="#89C6AD"/>
<path d="M156 111L157 112L156 111ZM222 111L223 112L222 111ZM378.333 111.667L378.667 112.333L378.333 111.667ZM396 111L397 112L396 111Z" fill="#525352"/>
<path d="M419 111L420 112L419 111ZM129 112L130 113L129 112Z" fill="#89C6AD"/>
<path d="M155 112L156 113L155 112Z" fill="#D7636E"/>
<path d="M221 112L222 113L221 112ZM238 112L239 113L238 112Z" fill="#89C6AD"/>
<path d="M363.332 112.667L363.666 113.333L363.332 112.667ZM394.999 112L395.999 113L394.999 112Z" fill="#525352"/>
<path d="M418 112L419 113L418 112ZM128 113L129 114L128 113ZM154 113L155 114L154 113Z" fill="#89C6AD"/>
<path d="M221 113L222 114L221 113ZM379 113L380 114L379 113ZM394 113L395 114L394 113Z" fill="#525352"/>
<path d="M417 113L418 114L417 113ZM127 114L128 115L127 114Z" fill="#89C6AD"/>
<path d="M152 114L153 115L152 114ZM237 114L238 115L237 114Z" fill="#525352"/>
<path d="M363 114L364 115L363 114Z" fill="#89C6AD"/>
<path d="M415 114L416 115L415 114Z" fill="#525352"/>
<path d="M126 115L127 116L126 115Z" fill="#89C6AD"/>
<path d="M150 115L151 116L150 115Z" fill="#525352"/>
<path d="M151 115L152 116L151 115Z" fill="#89C6AD"/>
<path d="M220 115L221 116L220 115ZM414 115L415 116L414 115Z" fill="#525352"/>
<path d="M125 116L126 117L125 116Z" fill="#89C6AD"/>
<path d="M149 116L150 117L149 116Z" fill="#D7636E"/>
<path d="M236 116L237 117L236 116ZM364 116L365 117L364 116ZM382 116L383 117L382 116ZM390 116L391 117L390 116ZM413 116L414 117L413 116ZM147 117L148 118L147 117Z" fill="#525352"/>
<path d="M148 117L149 118L148 117Z" fill="#89C6AD"/>
<path d="M219 117L220 118L219 117Z" fill="#525352"/>
<path d="M364 117L365 118L364 117Z" fill="#89C6AD"/>
<path d="M384 117L385 118L384 117ZM388.667 117.333L389.333 117.667L388.667 117.333ZM412 117L413 118L412 117ZM124 118L125 119L124 118Z" fill="#525352"/>
<path d="M146 118L147 119L146 118Z" fill="#D7636E"/>
<path d="M235 118L236 119L235 118Z" fill="#525352"/>
<path d="M411 118L412 119L411 118Z" fill="#89C6AD"/>
<path d="M123 119L124 120L123 119ZM144 119L145 120L144 119Z" fill="#525352"/>
<path d="M218 119L219 120L218 119Z" fill="#D7636E"/>
<path d="M365 119L366 120L365 119Z" fill="#525352"/>
<path d="M410 119L411 120L410 119ZM122 120L123 121L122 120Z" fill="#89C6AD"/>
<path d="M143 120L144 121L143 120ZM234 120L235 121L234 120Z" fill="#525352"/>
<path d="M409 120L410 121L409 120ZM142 121L143 122L142 121ZM217 121L218 122L217 121ZM234 121L235 122L234 121ZM366 121L367 122L366 121Z" fill="#89C6AD"/>
<path d="M407 121L408 122L407 121ZM121 122L122 123L121 122Z" fill="#525352"/>
<path d="M141 122L142 123L141 122Z" fill="#89C6AD"/>
<path d="M217 122L218 123L217 122ZM233 122L234 123L233 122ZM367 122L368 123L367 122ZM406 122L407 123L406 122Z" fill="#525352"/>
<path d="M120 123L121 124L120 123Z" fill="#89C6AD"/>
<path d="M139 123L140 124L139 123Z" fill="#525352"/>
<path d="M216 123L217 124L216 123ZM233 123L234 124L233 123Z" fill="#89C6AD"/>
<path d="M368 123L369 124L368 123ZM405 123L406 124L405 123ZM216 124L217 125L216 124ZM232 124L233 125L232 124ZM404 124L405 125L404 124ZM119 125L120 126L119 125Z" fill="#525352"/>
<path d="M138 125L139 126L138 125ZM215 125L216 126L215 125ZM232 125L233 126L232 125ZM403 125L404 126L403 125ZM118 126L119 127L118 126ZM137 126L138 127L137 126Z" fill="#89C6AD"/>
<path d="M215 126L216 127L215 126Z" fill="#525352"/>
<path d="M402 126L403 127L402 126Z" fill="#89C6AD"/>
<path d="M118 127L119 128L118 127Z" fill="#525352"/>
<path d="M136 127L137 128L136 127ZM214 127L215 128L214 127ZM231 127L232 128L231 127Z" fill="#89C6AD"/>
<path d="M372 127L373 128L372 127Z" fill="#525352"/>
<path d="M117 128L118 129L117 128Z" fill="#89C6AD"/>
<path d="M135 128L136 129L135 128Z" fill="#D7636E"/>
<path d="M214 128L215 129L214 128ZM373 128L374 129L373 128ZM399 128L400 129L399 128ZM117 129L118 130L117 129ZM134 129L135 130L134 129ZM231 129V130H292L272 129H231Z" fill="#525352"/>
<path d="M292 129L293 130L292 129ZM374 129L375 130L374 129ZM398 129L399 130L398 129ZM55 130L56 131L55 130Z" fill="#89C6AD"/>
<path d="M56.666 130.333L57.3326 130.667L56.666 130.333ZM103.666 130.333L104.332 130.667L103.666 130.333Z" fill="#525352"/>
<path d="M105 130L106 131L105 130ZM116 130L117 131L116 130Z" fill="#89C6AD"/>
<path d="M213 130L214 131L213 130ZM295.667 130.333L296.333 130.667L295.667 130.333Z" fill="#525352"/>
<path d="M297 130L298 131L297 130Z" fill="#89C6AD"/>
<path d="M376 130L377 131L376 130ZM396 130L397 131L396 130Z" fill="#525352"/>
<path d="M52 131L53 132L52 131Z" fill="#89C6AD"/>
<path d="M53 131L54 132L53 131ZM107 131L108 132L107 131Z" fill="#525352"/>
<path d="M108 131L109 132L108 131Z" fill="#89C6AD"/>
<path d="M116 131L117 132L116 131Z" fill="#525352"/>
<path d="M133 131L134 132L133 131Z" fill="#89C6AD"/>
<path d="M299 131L300 132L299 131Z" fill="#525352"/>
<path d="M378 131L379 132L378 131Z" fill="#89C6AD"/>
<path d="M379 131L380 132L379 131ZM393 131L394 132L393 131Z" fill="#525352"/>
<path d="M394 131L395 132L394 131Z" fill="#89C6AD"/>
<path d="M50 132L51 133L50 132ZM110 132L111 133L110 132Z" fill="#525352"/>
<path d="M115 132L116 133L115 132Z" fill="#89C6AD"/>
<path d="M132 132L133 133L132 132ZM212 132L213 133L212 132ZM301 132L302 133L301 132Z" fill="#525352"/>
<path d="M381 132L382 133L381 132Z" fill="#89C6AD"/>
<path d="M391 132L392 133L391 132Z" fill="#89C6AD"/>
<path d="M48 133L49 134L48 133ZM112 133L113 134L112 133ZM115 133L116 134L115 133Z" fill="#525352"/>
<path d="M132 133L133 134L132 133Z" fill="#89C6AD"/>
<path d="M303 133L304 134L303 133Z" fill="#525352"/>
<path d="M46 134L47 135L46 134ZM114 134L115 135L114 134Z" fill="#89C6AD"/>
<path d="M131 134L132 135L131 134Z" fill="#525352"/>
<path d="M211 134L212 135L211 134ZM305 134L306 135L305 134Z" fill="#89C6AD"/>
<path d="M45 135L46 136L45 135ZM211 135V138H212L211 135ZM306 135L307 136L306 135Z" fill="#525352"/>
<path d="M442.668 135.333L443.334 135.667L442.668 135.333Z" fill="#89C6AD"/>
<path d="M451.668 135.333L452.334 135.667L451.668 135.333Z" fill="#89C6AD"/>
<path d="M44 136L45 137L44 136ZM130 136L131 137L130 136Z" fill="#525352"/>
<path d="M308 136L309 137L308 136ZM439 136L440 137L439 136Z" fill="#89C6AD"/>
<path d="M440 136L441 137L440 136Z" fill="#525352"/>
<path d="M441 136.518C431.348 138.565 416.025 142.715 409.214 150.094C397.983 162.263 404.855 183.063 420 187.779C429.534 190.748 442.521 186.117 452 183.985C482.607 177.101 471.324 130.087 441 136.518Z" fill="#020202"/>
<path d="M454 136L455 137L454 136Z" fill="#525352"/>
<path d="M455 136L456 137L455 136Z" fill="#89C6AD"/>
<path d="M43 137L44 138L43 137Z" fill="#525352"/>
<path d="M309 137L310 138L309 137ZM436 137L437 138L436 137Z" fill="#89C6AD"/>
<path d="M437 137L438 138L437 137Z" fill="#525352"/>
<path d="M457 137L458 138L457 137Z" fill="#89C6AD"/>
<path d="M42 138L43 139L42 138ZM129 138L130 139L129 138Z" fill="#525352"/>
<path d="M211 138L212 139L211 138ZM310 138L311 139L310 138ZM433 138L434 139L433 138Z" fill="#89C6AD"/>
<path d="M434 138L435 139L434 138ZM458 138L459 139L458 138Z" fill="#525352"/>
<path d="M459 138L460 139L459 138Z" fill="#89C6AD"/>
<path d="M41 139L42 140L41 139Z" fill="#525352"/>
<path d="M129 139L130 140L129 139ZM311 139L312 140L311 139Z" fill="#89C6AD"/>
<path d="M431 139L432 140L431 139ZM460 139L461 140L460 139ZM40 140L41 141L40 140ZM128 140L129 141L128 140Z" fill="#525352"/>
<path d="M212 140L213 141L212 140Z" fill="#D7636E"/>
<path d="M312 140L313 141L312 140ZM427 140L428 141L427 140Z" fill="#89C6AD"/>
<path d="M428 140L429 141L428 140ZM461 140L462 141L461 140Z" fill="#525352"/>
<path d="M39 141L40 142L39 141Z" fill="#89C6AD"/>
<path d="M128 141L129 142L128 141Z" fill="#D7636E"/>
<path d="M213 141L214 142L213 141ZM425 141L426 142L425 141ZM462 141L463 142L462 141ZM214 142L215 143L214 142ZM313 142L314 143L313 142Z" fill="#525352"/>
<path d="M422 142L423 143L422 142Z" fill="#89C6AD"/>
<path d="M423 142L424 143L423 142ZM463 142L464 143L463 142ZM38 143L39 144L38 143ZM127.333 143.667L127.667 144.333L127.333 143.667Z" fill="#525352"/>
<path d="M215 143L216 144L215 143Z" fill="#89C6AD"/>
<path d="M216 143L217 144L216 143ZM314 143L315 144L314 143Z" fill="#525352"/>
<path d="M419 143L420 144L419 143Z" fill="#89C6AD"/>
<path d="M420 143L421 144L420 143ZM464 143L465 144L464 143Z" fill="#525352"/>
<path d="M218 144V145H289L267 144H218Z" fill="#89C6AD"/>
<path d="M289 144L290 145L289 144Z" fill="#D7636E"/>
<path d="M290.668 144.333L291.334 144.667L290.668 144.333Z" fill="#525352"/>
<path d="M416 144L417 145L416 144Z" fill="#89C6AD"/>
<path d="M417 144L418 145L417 144Z" fill="#525352"/>
<path d="M465 144L466 145L465 144Z" fill="#89C6AD"/>
<path d="M37 145L38 146L37 145ZM57.6667 145.333L58.3333 145.667L57.6667 145.333Z" fill="#525352"/>
<path d="M41 200C52.3416 205.646 50 214.465 50 226V290C50 298.213 47.2276 312.805 55.108 318.258C58.7144 320.753 63.8523 320 68 320C77.8916 320 103.078 324.573 108.91 314.956C114.718 305.379 111 285.916 111 275V189C111 178.37 114.099 161.868 109.772 152.04C107.986 147.984 104.29 145.762 100 145.188C89.5051 143.784 60.8137 140.877 53.2785 149.133C47.5592 155.4 50.2291 167.207 49.9846 175C49.7901 181.196 45.818 182.416 43.6026 187.375C41.7029 191.627 44.0038 196.035 41 200Z" fill="#89C6AD"/>
<path d="M102.668 145.333L103.334 145.667L102.668 145.333Z" fill="#525352"/>
<path d="M127 145L128 146L127 145Z" fill="#D7636E"/>
<path d="M293 145L294 146L293 145Z" fill="#89C6AD"/>
<path d="M294 145L295 146L294 145ZM315 145L316 146L315 145Z" fill="#525352"/>
<path d="M414 145L415 146L414 145Z" fill="#89C6AD"/>
<path d="M55 146L56 147L55 146ZM105 146L106 147L105 146ZM296 146L297 147L296 146Z" fill="#525352"/>
<path d="M316 146L317 147L316 146Z" fill="#89C6AD"/>
<path d="M413 146L414 147L413 146ZM466 146L467 147L466 146Z" fill="#525352"/>
<path d="M36 147L37 148L36 147Z" fill="#89C6AD"/>
<path d="M54 147L55 148L54 147ZM106 147L107 148L106 147Z" fill="#525352"/>
<path d="M297 147L298 148L297 147Z" fill="#89C6AD"/>
<path d="M316 147L317 148L316 147Z" fill="#525352"/>
<path d="M411 147L412 148L411 147ZM467 147L468 148L467 147Z" fill="#89C6AD"/>
<path d="M36 148L37 149L36 148ZM53 148L54 149L53 148ZM126.333 148.667L126.667 149.333L126.333 148.667Z" fill="#525352"/>
<path d="M317 148L318 149L317 148ZM410 148L411 149L410 148Z" fill="#89C6AD"/>
<path d="M467 148L468 149L467 148ZM52 149L53 150L52 149ZM108 149L109 150L108 149ZM317 149L318 150L317 149ZM409 149L410 150L409 149Z" fill="#525352"/>
<path d="M35 150L36 151L35 150Z" fill="#89C6AD"/>
<path d="M51 150L52 151L51 150ZM109 150L110 151L109 150Z" fill="#525352"/>
<path d="M126 150L127 151L126 150Z" fill="#D7636E"/>
<path d="M408 150L409 151L408 150Z" fill="#89C6AD"/>
<path d="M445 150L446 151L445 150Z" fill="#525352"/>
<path d="M446.001 150.707C439.576 151.181 424.907 155.615 420.519 160.419C415.869 165.509 420.58 173.719 427.002 173.602C433.435 173.485 449.088 171.544 453.563 166.697C458.592 161.251 453.404 150.161 446.001 150.707Z" fill="#89C6AD"/>
<path d="M448.668 150.333L449.334 150.667L448.668 150.333Z" fill="#525352"/>
<path d="M468 150L469 151L468 150Z" fill="#89C6AD"/>
<path d="M35 151V154H36L35 151Z" fill="#525352"/>
<path d="M126 151V156H127L126 151ZM301 151L302 152L301 151ZM318 151L319 152L318 151ZM407 151L408 152L407 151Z" fill="#89C6AD"/>
<path d="M442 151L443 152L442 151ZM451 151L452 152L451 151ZM468 151L469 152L468 151ZM110.333 152.667L110.667 153.333L110.333 152.667ZM302 152L303 153L302 152ZM318 152L319 153L318 152ZM439 152L440 153L439 152ZM452 152L453 153L452 152ZM50 153L51 154L50 153ZM406 153L407 154L406 153ZM436 153L437 154L436 153ZM453 153L454 154L453 153Z" fill="#525352"/>
<path d="M469 153L470 154L469 153Z" fill="#89C6AD"/>
<path d="M303 154L304 155L303 154ZM433 154L434 155L433 154ZM469 154L470 155L469 154Z" fill="#525352"/>
<path d="M303 155L304 156L303 155ZM319 155L320 156L319 155Z" fill="#89C6AD"/>
<path d="M470 157L471 158L470 157Z" fill="#89C6AD"/>
<path d="M304 158L305 159L304 158Z" fill="#D7636E"/>
<path d="M420 159L421 160L420 159ZM455.333 159.667L455.667 160.333L455.333 159.667Z" fill="#525352"/>
<path d="M403 160L404 161L403 160Z" fill="#89C6AD"/>
<path d="M304 163L305 164L304 163Z" fill="#D7636E"/>
<path d="M319.332 166.667L319.666 167.333L319.332 166.667Z" fill="#89C6AD"/>
<path d="M418.332 166.667L418.666 167.333L418.332 166.667ZM453.999 166L454.999 167L453.999 166Z" fill="#525352"/>
<path d="M303 167L304 168L303 167Z" fill="#D7636E"/>
<path d="M453 167L454 168L453 167Z" fill="#525352"/>
<path d="M470 167L471 168L470 167Z" fill="#89C6AD"/>
<path d="M303 168L304 169L303 168Z" fill="#525352"/>
<path d="M403.332 168.667L403.666 169.333L403.332 168.667Z" fill="#89C6AD"/>
<path d="M452 168L453 169L452 168Z" fill="#525352"/>
<path d="M302 169L303 170L302 169Z" fill="#D7636E"/>
<path d="M469 170L470 171L469 170Z" fill="#89C6AD"/>
<path d="M300 172L301 173L300 172Z" fill="#D7636E"/>
<path d="M468 172L469 173L468 172Z" fill="#89C6AD"/>
<path d="M299 173L300 174L299 173Z" fill="#D7636E"/>
<path d="M317 173L318 174L317 173ZM404 173L405 174L404 173Z" fill="#89C6AD"/>
<path d="M423 173L424 174L423 173ZM428.667 173.333L429.333 173.667L428.667 173.333ZM298 174L299 175L298 174Z" fill="#525352"/>
<path d="M467 174L468 175L467 174ZM296 175L297 176L296 175Z" fill="#89C6AD"/>
<path d="M297 175L298 176L297 175ZM316 175L317 176L316 175Z" fill="#525352"/>
<path d="M405 175L406 176L405 175Z" fill="#89C6AD"/>
<path d="M466 175L467 176L466 175Z" fill="#525352"/>
<path d="M294 176L295 177L294 176Z" fill="#89C6AD"/>
<path d="M295 176L296 177L295 176ZM465 176L466 177L465 176Z" fill="#525352"/>
<path d="M291 177L292 178L291 177Z" fill="#89C6AD"/>
<path d="M292 177L293 178L292 177Z" fill="#D7636E"/>
<path d="M293 177L294 178L293 177Z" fill="#525352"/>
<path d="M315 177L316 178L315 177Z" fill="#89C6AD"/>
<path d="M406 177L407 178L406 177Z" fill="#525352"/>
<path d="M285 178L286 179L285 178Z" fill="#D7636E"/>
<path d="M286 178V179H289L286 178ZM314 178L315 179L314 178Z" fill="#525352"/>
<path d="M283 179L284 180L283 179Z" fill="#D7636E"/>
<path d="M407 179L408 180L407 179Z" fill="#89C6AD"/>
<path d="M462 179L463 180L462 179ZM35 180L36 181L35 180ZM49 180L50 181L49 180Z" fill="#525352"/>
<path d="M282 180L283 181L282 180Z" fill="#D7636E"/>
<path d="M313 180L314 181L313 180ZM408 180L409 181L408 180Z" fill="#89C6AD"/>
<path d="M461 180L462 181L461 180Z" fill="#525352"/>
<path d="M281 181L282 182L281 181Z" fill="#89C6AD"/>
<path d="M312 181L313 182L312 181ZM409 181L410 182L409 181ZM459 181L460 182L459 181ZM36 182L37 183L36 182ZM48 182L49 183L48 182Z" fill="#525352"/>
<path d="M312 182L313 183L312 182Z" fill="#89C6AD"/>
<path d="M410 182L411 183L410 182ZM457 182L458 183L457 182Z" fill="#525352"/>
<path d="M458 182L459 183L458 182Z" fill="#89C6AD"/>
<path d="M37 183L38 184L37 183ZM47 183L48 184L47 183Z" fill="#525352"/>
<path d="M280 183L281 184L280 183Z" fill="#89C6AD"/>
<path d="M313 183L314 184L313 183ZM411 183L412 184L411 183ZM454 183L455 184L454 183Z" fill="#525352"/>
<path d="M455 183L456 184L455 183ZM38 184L39 185L38 184Z" fill="#89C6AD"/>
<path d="M46 184L47 185L46 184ZM280 184V187H281L280 184Z" fill="#525352"/>
<path d="M315 184L316 185L315 184ZM412 184L413 185L412 184Z" fill="#89C6AD"/>
<path d="M449.668 184.333L450.334 184.667L449.668 184.333Z" fill="#525352"/>
<path d="M451.667 184.333L452.333 184.667L451.667 184.333ZM40 185L41 186L40 185Z" fill="#89C6AD"/>
<path d="M41 185V186H45L41 185ZM316 185L317 186L316 185ZM414 185L415 186L414 185ZM444.667 185.333L445.333 185.667L444.667 185.333Z" fill="#525352"/>
<path d="M446 185L447 186L446 185Z" fill="#89C6AD"/>
<path d="M317 186L318 187L317 186Z" fill="#525352"/>
<path d="M415 186L416 187L415 186Z" fill="#89C6AD"/>
<path d="M416 186L417 187L416 186ZM439.667 186.333L440.333 186.667L439.667 186.333Z" fill="#525352"/>
<path d="M441 186L442 187L441 186ZM280 187L281 188L280 187Z" fill="#89C6AD"/>
<path d="M318 187L319 188L318 187Z" fill="#525352"/>
<path d="M417 187L418 188L417 187Z" fill="#89C6AD"/>
<path d="M418 187L419 188L418 187ZM434.667 187.333L435.333 187.667L434.667 187.333Z" fill="#525352"/>
<path d="M436 187L437 188L436 187ZM420 188L421 189L420 188Z" fill="#89C6AD"/>
<path d="M421.668 188.333L422.334 188.667L421.668 188.333ZM428.001 188V189H431.001L428.001 188Z" fill="#525352"/>
<path d="M431 188L432 189L431 188Z" fill="#89C6AD"/>
<path d="M281 189L282 190L281 189ZM320 189L321 190L320 189ZM282 190L283 191L282 190ZM321 190L322 191L321 190ZM283 191L284 192L283 191Z" fill="#525352"/>
<path d="M322 191L323 192L322 191Z" fill="#89C6AD"/>
<path d="M284 192L285 193L284 192Z" fill="#D7636E"/>
<path d="M285 192L286 193L285 192Z" fill="#525352"/>
<path d="M287 193V194H298L287 193Z" fill="#89C6AD"/>
<path d="M298 193L299 194L298 193Z" fill="#D7636E"/>
<path d="M299.668 193.333L300.334 193.667L299.668 193.333ZM323.001 193L324.001 194L323.001 193Z" fill="#525352"/>
<path d="M302 194L303 195L302 194Z" fill="#D7636E"/>
<path d="M324 194L325 195L324 194Z" fill="#89C6AD"/>
<path d="M304 195L305 196L304 195Z" fill="#D7636E"/>
<path d="M306 196L307 197L306 196Z" fill="#525352"/>
<path d="M325 196L326 197L325 196Z" fill="#89C6AD"/>
<path d="M307 197L308 198L307 197Z" fill="#D7636E"/>
<path d="M308 198L309 199L308 198ZM326 198L327 199L326 198Z" fill="#89C6AD"/>
<path d="M309 199L310 200L309 199Z" fill="#D7636E"/>
<path d="M326 199L327 200L326 199ZM310 200L311 201L310 200Z" fill="#525352"/>
<path d="M38 201L39 202L38 201Z" fill="#89C6AD"/>
<path d="M39 201L40 202L39 201ZM45 201L46 202L45 201Z" fill="#525352"/>
<path d="M327 201L328 202L327 201ZM37 202L38 203L37 202Z" fill="#89C6AD"/>
<path d="M47 202L48 203L47 202Z" fill="#525352"/>
<path d="M311 202L312 203L311 202Z" fill="#89C6AD"/>
<path d="M327 202L328 203L327 202Z" fill="#525352"/>
<path d="M36 203L37 204L36 203Z" fill="#89C6AD"/>
<path d="M48 203L49 204L48 203ZM312 203L313 204L312 203Z" fill="#525352"/>
<path d="M312 204L313 205L312 204Z" fill="#D7636E"/>
<path d="M35.334 205.667L35.6674 206.333L35.334 205.667ZM49.0007 205L50.0007 206L49.0007 205Z" fill="#525352"/>
<path d="M328.332 205.667L328.666 206.333L328.332 205.667Z" fill="#89C6AD"/>
<path d="M313 206V209H314L313 206ZM328 207V214H329L328 207Z" fill="#525352"/>
<path d="M313 209V212H314L313 209Z" fill="#D7636E"/>
<path d="M313.332 212.667L313.666 213.333L313.332 212.667Z" fill="#525352"/>
<path d="M328 214L329 215L328 214ZM312 215L313 216L312 215Z" fill="#89C6AD"/>
<path d="M312 216L313 217L312 216ZM327.333 217.667L327.667 218.333L327.333 217.667ZM311 218L312 219L311 218Z" fill="#525352"/>
<path d="M310 219L311 220L310 219ZM327 219L328 220L327 219Z" fill="#89C6AD"/>
<path d="M447.667 222.333L448.333 222.667L447.667 222.333ZM306 223L307 224L306 223Z" fill="#89C6AD"/>
<path d="M307 223L308 224L307 223ZM451 223L452 224L451 223Z" fill="#525352"/>
<path d="M452 223L453 224L452 223Z" fill="#89C6AD"/>
<path d="M305 224L306 225L305 224Z" fill="#D7636E"/>
<path d="M454 224L455 225L454 224Z" fill="#525352"/>
<path d="M455 224L456 225L455 224Z" fill="#89C6AD"/>
<path d="M303 225L304 226L303 225Z" fill="#D7636E"/>
<path d="M304 225L305 226L304 225Z" fill="#525352"/>
<path d="M457 225L458 226L457 225ZM299 226L300 227L299 226Z" fill="#89C6AD"/>
<path d="M300 226L301 227L300 226Z" fill="#D7636E"/>
<path d="M301 226L302 227L301 226Z" fill="#525352"/>
<path d="M459 226L460 227L459 226Z" fill="#89C6AD"/>
<path d="M285 227L286 228L285 227Z" fill="#D7636E"/>
<path d="M286 227L287 228L286 227ZM460 227L461 228L460 227Z" fill="#525352"/>
<path d="M283 228L284 229L283 228Z" fill="#D7636E"/>
<path d="M462 228L463 229L462 228Z" fill="#89C6AD"/>
<path d="M282 229L283 230L282 229ZM463 229L464 230L463 229Z" fill="#525352"/>
<path d="M281 230L282 231L281 230Z" fill="#D7636E"/>
<path d="M464 230L465 231L464 230ZM465 231L466 232L465 231Z" fill="#525352"/>
<path d="M280 232L281 233L280 232Z" fill="#89C6AD"/>
<path d="M466 232L467 233L466 232ZM280 233V236H281L280 233ZM467 233L468 234L467 233ZM468 234L469 235L468 234Z" fill="#525352"/>
<path d="M469 235L470 236L469 235ZM280 236L281 237L280 236Z" fill="#89C6AD"/>
<path d="M313 237L314 238L313 237Z" fill="#D7636E"/>
<path d="M444.668 237.333L445.334 237.667L444.668 237.333Z" fill="#D7636E"/>
<path d="M446.667 237.333L447.333 237.667L446.667 237.333ZM470 237L471 238L470 237ZM281 238L282 239L281 238Z" fill="#525352"/>
<path d="M312 238L313 239L312 238ZM449 238L450 239L449 238Z" fill="#D7636E"/>
<path d="M450 238L451 239L450 238Z" fill="#525352"/>
<path d="M471 238L472 239L471 238Z" fill="#89C6AD"/>
<path d="M282 239L283 240L282 239Z" fill="#525352"/>
<path d="M313 239L314 240L313 239Z" fill="#89C6AD"/>
<path d="M451 239L452 240L451 239Z" fill="#D7636E"/>
<path d="M471 239L472 240L471 239ZM283 240L284 241L283 240ZM453 240L454 241L453 240Z" fill="#525352"/>
<path d="M472 240L473 241L472 240ZM284 241L285 242L284 241Z" fill="#89C6AD"/>
<path d="M285 241L286 242L285 241ZM314 241L315 242L314 241Z" fill="#525352"/>
<path d="M454 241L455 242L454 241Z" fill="#D7636E"/>
<path d="M472 241L473 242L472 241Z" fill="#525352"/>
<path d="M288.668 242.333L289.334 242.667L288.668 242.333Z" fill="#89C6AD"/>
<path d="M290 242L291 243L290 242Z" fill="#D7636E"/>
<path d="M291.668 242.333L292.334 242.667L291.668 242.333Z" fill="#525352"/>
<path d="M315 242L316 243L315 242Z" fill="#89C6AD"/>
<path d="M455 242L456 243L455 242Z" fill="#D7636E"/>
<path d="M294 243L295 244L294 243ZM315 243L316 244L315 243Z" fill="#525352"/>
<path d="M456 243L457 244L456 243Z" fill="#D7636E"/>
<path d="M473 243L474 244L473 243ZM296 244L297 245L296 244Z" fill="#525352"/>
<path d="M316 244L317 245L316 244Z" fill="#D7636E"/>
<path d="M457 244L458 245L457 244Z" fill="#525352"/>
<path d="M297 245L298 246L297 245ZM474.333 245.667L474.667 246.333L474.333 245.667Z" fill="#89C6AD"/>
<path d="M299 246L300 247L299 246Z" fill="#525352"/>
<path d="M317 246L318 247L317 246Z" fill="#D7636E"/>
<path d="M458 246L459 247L458 246ZM300 247L301 248L300 247ZM317 247L318 248L317 247ZM474 247L475 248L474 247ZM301 248L302 249L301 248ZM459 248L460 249L459 248Z" fill="#525352"/>
<path d="M301 249L302 250L301 249Z" fill="#89C6AD"/>
<path d="M318 249L319 250L318 249Z" fill="#D7636E"/>
<path d="M459 249L460 250L459 249Z" fill="#89C6AD"/>
<path d="M302 250L303 251L302 250ZM318 250L319 251L318 250Z" fill="#525352"/>
<path d="M475 250V258H476L475 250Z" fill="#89C6AD"/>
<path d="M460 251V257H461L460 251ZM303 252L304 253L303 252Z" fill="#525352"/>
<path d="M319 252L320 253L319 252Z" fill="#89C6AD"/>
<path d="M319 253L320 254L319 253Z" fill="#D7636E"/>
<path d="M304.332 254.667L304.666 255.333L304.332 254.667ZM318.999 254V258H319.999L318.999 254Z" fill="#525352"/>
<path d="M304 256V261H305L304 256ZM459 258L460 259L459 258Z" fill="#89C6AD"/>
<path d="M459.332 259.667L459.666 260.333L459.332 259.667ZM474.332 260.667L474.666 261.333L474.332 260.667Z" fill="#525352"/>
<path d="M304 261L305 262L304 261Z" fill="#D7636E"/>
<path d="M319 261V264H320L319 261Z" fill="#525352"/>
<path d="M458 261L459 262L458 261Z" fill="#89C6AD"/>
<path d="M304.332 262.667L304.666 263.333L304.332 262.667ZM457.999 262L458.999 263L457.999 262Z" fill="#525352"/>
<path d="M474 262L475 263L474 262ZM457 263L458 264L457 263Z" fill="#89C6AD"/>
<path d="M319 264L320 265L319 264Z" fill="#D7636E"/>
<path d="M473 264L474 265L473 264Z" fill="#525352"/>
<path d="M303 265L304 266L303 265Z" fill="#D7636E"/>
<path d="M319 265L320 266L319 265Z" fill="#89C6AD"/>
<path d="M456 265L457 266L456 265Z" fill="#525352"/>
<path d="M473 265L474 266L473 265Z" fill="#89C6AD"/>
<path d="M455 266L456 267L455 266Z" fill="#525352"/>
<path d="M302 267L303 268L302 267Z" fill="#D7636E"/>
<path d="M318 267L319 268L318 267Z" fill="#525352"/>
<path d="M453 267L454 268L453 267Z" fill="#89C6AD"/>
<path d="M472 267L473 268L472 267Z" fill="#525352"/>
<path d="M318 268L319 269L318 268ZM452 268L453 269L452 268Z" fill="#D7636E"/>
<path d="M301 269L302 270L301 269Z" fill="#525352"/>
<path d="M450 269L451 270L450 269Z" fill="#89C6AD"/>
<path d="M471 269L472 270L471 269ZM300 270L301 271L300 270ZM317 270L318 271L317 270Z" fill="#525352"/>
<path d="M447 270L448 271L447 270Z" fill="#89C6AD"/>
<path d="M448 270L449 271L448 270ZM299 271L300 272L299 271Z" fill="#525352"/>
<path d="M317 271L318 272L317 271ZM440 271L441 272L440 271Z" fill="#89C6AD"/>
<path d="M441 271V272H444L441 271Z" fill="#525352"/>
<path d="M470 271L471 272L470 271Z" fill="#89C6AD"/>
<path d="M298 272L299 273L298 272ZM439 272L440 273L439 272ZM469 272L470 273L469 272Z" fill="#525352"/>
<path d="M296 273L297 274L296 273ZM316 273L317 274L316 273ZM294 274L295 275L294 274Z" fill="#D7636E"/>
<path d="M295 274L296 275L295 274ZM437 274L438 275L437 274Z" fill="#525352"/>
<path d="M468.333 274.667L468.667 275.333L468.333 274.667ZM290 275L291 276L290 275Z" fill="#89C6AD"/>
<path d="M291 275L292 276L291 275Z" fill="#D7636E"/>
<path d="M292 275L293 276L292 275Z" fill="#525352"/>
<path d="M315 275L316 276L315 275ZM436 275L437 276L436 275Z" fill="#89C6AD"/>
<path d="M276.668 276.333L277.334 276.667L276.668 276.333ZM314.001 276L315.001 277L314.001 276ZM436.001 276L437.001 277L436.001 276ZM469.001 276L470.001 277L469.001 276Z" fill="#525352"/>
<path d="M274 277L275 278L274 277Z" fill="#D7636E"/>
<path d="M471 277L472 278L471 277Z" fill="#89C6AD"/>
<path d="M273 278L274 279L273 278Z" fill="#D7636E"/>
<path d="M313 278L314 279L313 278Z" fill="#89C6AD"/>
<path d="M472 278L473 279L472 278Z" fill="#525352"/>
<path d="M272 279L273 280L272 279Z" fill="#89C6AD"/>
<path d="M312 279L313 280L312 279ZM473 279L474 280L473 279ZM272 280L273 281L272 280ZM311 280L312 281L311 280ZM436 280L437 281L436 280ZM474 280L475 281L474 280ZM310 281L311 282L310 281Z" fill="#525352"/>
<path d="M436 281L437 282L436 281Z" fill="#D7636E"/>
<path d="M475 281L476 282L475 281Z" fill="#525352"/>
<path d="M271 282V285H272L271 282Z" fill="#89C6AD"/>
<path d="M309 282L310 283L309 282ZM476 282L477 283L476 282Z" fill="#525352"/>
<path d="M308 283L309 284L308 283Z" fill="#D7636E"/>
<path d="M437 283L438 284L437 283ZM477 283L478 284L477 283ZM307 284L308 285L307 284ZM438 284L439 285L438 284Z" fill="#89C6AD"/>
<path d="M305 285L306 286L305 285ZM440 285L441 286L440 285ZM478 285L479 286L478 285ZM272 286L273 287L272 286Z" fill="#525352"/>
<path d="M304 286L305 287L304 286ZM443 286V287H454L443 286Z" fill="#89C6AD"/>
<path d="M454 286L455 287L454 286Z" fill="#D7636E"/>
<path d="M455.668 286.333L456.334 286.667L455.668 286.333ZM479.001 286L480.001 287L479.001 286Z" fill="#525352"/>
<path d="M272 287L273 288L272 287Z" fill="#89C6AD"/>
<path d="M303 287L304 288L303 287Z" fill="#525352"/>
<path d="M458 287L459 288L458 287Z" fill="#D7636E"/>
<path d="M273 288L274 289L273 288Z" fill="#525352"/>
<path d="M304 288L305 289L304 288ZM460 288L461 289L460 288Z" fill="#D7636E"/>
<path d="M480 288L481 289L480 288Z" fill="#525352"/>
<path d="M274 289L275 290L274 289Z" fill="#D7636E"/>
<path d="M305 289L306 290L305 289Z" fill="#89C6AD"/>
<path d="M462 289L463 290L462 289ZM276 290L277 291L276 290ZM463 290L464 291L463 290ZM481 290L482 291L481 290Z" fill="#525352"/>
<path d="M280.668 291.333L281.334 291.667L280.668 291.333Z" fill="#89C6AD"/>
<path d="M282 291L283 292L282 291Z" fill="#D7636E"/>
<path d="M283 291L284 292L283 291ZM306 291L307 292L306 291ZM464 291L465 292L464 291Z" fill="#525352"/>
<path d="M285 292L286 293L285 292Z" fill="#89C6AD"/>
<path d="M286 292L287 293L286 292ZM465 292L466 293L465 292Z" fill="#525352"/>
<path d="M482 292L483 293L482 292ZM287 293L288 294L287 293Z" fill="#89C6AD"/>
<path d="M307 293L308 294L307 293ZM466 293L467 294L466 293ZM482 293L483 294L482 293ZM289 294L290 295L289 294Z" fill="#525352"/>
<path d="M466 294L467 295L466 294Z" fill="#89C6AD"/>
<path d="M290 295L291 296L290 295Z" fill="#D7636E"/>
<path d="M308 295L309 296L308 295ZM467 295L468 296L467 295Z" fill="#525352"/>
<path d="M483.332 295.667L483.666 296.333L483.332 295.667Z" fill="#89C6AD"/>
<path d="M291 296L292 297L291 296Z" fill="#D7636E"/>
<path d="M467 296L468 297L467 296Z" fill="#89C6AD"/>
<path d="M292 297L293 298L292 297Z" fill="#525352"/>
<path d="M309 297L310 298L309 297Z" fill="#89C6AD"/>
<path d="M468.333 297.667L468.667 298.333L468.333 297.667ZM483 297L484 298L483 297ZM293 298L294 299L293 298ZM309 298L310 299L309 298Z" fill="#525352"/>
<path d="M293 299L294 300L293 299ZM468 299L469 300L468 299Z" fill="#89C6AD"/>
<path d="M294 300L295 301L294 300Z" fill="#525352"/>
<path d="M310 300L311 301L310 300ZM294 301L295 302L294 301Z" fill="#89C6AD"/>
<path d="M310 301L311 302L310 301Z" fill="#D7636E"/>
<path d="M310.332 302.667L310.666 303.333L310.332 302.667Z" fill="#525352"/>
<path d="M484.332 302.667L484.666 303.333L484.332 302.667Z" fill="#89C6AD"/>
<path d="M295 303L296 304L295 303ZM469 303L470 304L469 303Z" fill="#525352"/>
<path d="M295 304L296 305L295 304Z" fill="#89C6AD"/>
<path d="M468 307L469 308L468 307Z" fill="#D7636E"/>
<path d="M468 308L469 309L468 308ZM483.333 308.667L483.667 309.333L483.333 308.667Z" fill="#525352"/>
<path d="M295 310L296 311L295 310Z" fill="#89C6AD"/>
<path d="M467 310L468 311L467 310Z" fill="#525352"/>
<path d="M483 310L484 311L483 310Z" fill="#89C6AD"/>
<path d="M50.334 311.667L50.6674 312.333L50.334 311.667ZM110.334 311.667L110.668 312.333L110.334 311.667Z" fill="#525352"/>
<path d="M295 311L296 312L295 311Z" fill="#D7636E"/>
<path d="M35.334 312.667L35.6674 313.333L35.334 312.667ZM295.001 312L296.001 313L295.001 312ZM310.334 312.667L310.668 313.333L310.334 312.667ZM466.001 312L467.001 313L466.001 312ZM482.334 312.667L482.668 313.333L482.334 312.667ZM125.334 313.667L125.668 314.333L125.334 313.667Z" fill="#525352"/>
<path d="M465.001 313L466.001 314L465.001 313ZM35.334 314.667L35.6674 315.333L35.334 314.667Z" fill="#89C6AD"/>
<path d="M51 314L52 315L51 314ZM109 314L110 315L109 314Z" fill="#525352"/>
<path d="M294 314L295 315L294 314Z" fill="#89C6AD"/>
<path d="M310 314L311 315L310 314Z" fill="#D7636E"/>
<path d="M464 314L465 315L464 314ZM125 315L126 316L125 315Z" fill="#89C6AD"/>
<path d="M294 315L295 316L294 315Z" fill="#525352"/>
<path d="M310 315L311 316L310 315ZM463 315L464 316L463 315Z" fill="#89C6AD"/>
<path d="M481 315L482 316L481 315ZM52 316L53 317L52 316ZM108 316L109 317L108 316Z" fill="#525352"/>
<path d="M293 316L294 317L293 316Z" fill="#89C6AD"/>
<path d="M462 316L463 317L462 316Z" fill="#D7636E"/>
<path d="M481 316L482 317L481 316Z" fill="#89C6AD"/>
<path d="M36 317L37 318L36 317ZM53 317L54 318L53 317ZM107 317L108 318L107 317ZM124 317L125 318L124 317ZM309 317L310 318L309 317ZM461 317L462 318L461 317ZM480 317L481 318L480 317Z" fill="#525352"/>
<path d="M36 318L37 319L36 318Z" fill="#89C6AD"/>
<path d="M106 318L107 319L106 318Z" fill="#525352"/>
<path d="M125 318L126 319L125 318Z" fill="#D7636E"/>
<path d="M292 318L293 319L292 318Z" fill="#525352"/>
<path d="M309 318L310 319L309 318Z" fill="#89C6AD"/>
<path d="M459 318L460 319L459 318Z" fill="#525352"/>
<path d="M480 318L481 319L480 318Z" fill="#89C6AD"/>
<path d="M56 319L57 320L56 319ZM104 319L105 320L104 319ZM126 319L127 320L126 319Z" fill="#525352"/>
<path d="M127 319L128 320L127 319Z" fill="#89C6AD"/>
<path d="M291 319L292 320L291 319Z" fill="#D7636E"/>
<path d="M455 319L456 320L455 319Z" fill="#89C6AD"/>
<path d="M456.668 319.333L457.334 319.667L456.668 319.333ZM479.001 319L480.001 320L479.001 319Z" fill="#525352"/>
<path d="M37 320L38 321L37 320Z" fill="#89C6AD"/>
<path d="M449 320L450 321L449 320Z" fill="#D7636E"/>
<path d="M450 320L451 321L450 320ZM130 321L131 322L130 321ZM289 321L290 322L289 321Z" fill="#525352"/>
<path d="M447 321L448 322L447 321ZM478 321L479 322L478 321ZM38 322L39 323L38 322Z" fill="#89C6AD"/>
<path d="M132 322L133 323L132 322Z" fill="#525352"/>
<path d="M133 322L134 323L133 322ZM287 322L288 323L287 322Z" fill="#89C6AD"/>
<path d="M307 322L308 323L307 322Z" fill="#525352"/>
<path d="M446 322L447 323L446 322Z" fill="#89C6AD"/>
<path d="M477 322L478 323L477 322ZM39 323L40 324L39 323ZM135 323L136 324L135 323Z" fill="#525352"/>
<path d="M136 323L137 324L136 323ZM285 323L286 324L285 323Z" fill="#D7636E"/>
<path d="M286.001 323L287.001 324L286.001 323ZM476.001 323L477.001 324L476.001 323ZM139.668 324.333L140.334 324.667L139.668 324.333Z" fill="#525352"/>
<path d="M141 324L142 325L141 324Z" fill="#D7636E"/>
<path d="M142.668 324.333L143.334 324.667L142.668 324.333ZM280.668 324.333L281.334 324.667L280.668 324.333Z" fill="#89C6AD"/>
<path d="M282 324L283 325L282 324Z" fill="#D7636E"/>
<path d="M283 324L284 325L283 324ZM306 324L307 325L306 324ZM445 324L446 325L445 324Z" fill="#525352"/>
<path d="M477 324L478 325L477 324ZM40 325L41 326L40 325Z" fill="#89C6AD"/>
<path d="M478 325L479 326L478 325ZM41 326L42 327L41 326Z" fill="#525352"/>
<path d="M305 326L306 327L305 326ZM444 326V329H445L444 326ZM480 326L481 327L480 326Z" fill="#89C6AD"/>
<path d="M42 327L43 328L42 327Z" fill="#525352"/>
<path d="M304 327L305 328L304 327Z" fill="#D7636E"/>
<path d="M481 327L482 328L481 327Z" fill="#89C6AD"/>
<path d="M43 328L44 329L43 328ZM303 328L304 329L303 328ZM482 328L483 329L482 328Z" fill="#525352"/>
<path d="M44 329L45 330L44 329Z" fill="#89C6AD"/>
<path d="M302 329L303 330L302 329ZM483 329L484 330L483 329Z" fill="#525352"/>
<path d="M45 330L46 331L45 330ZM115 330L116 331L115 330Z" fill="#89C6AD"/>
<path d="M116 330L117 331L116 330ZM301 330L302 331L301 330ZM445 330L446 331L445 330Z" fill="#525352"/>
<path d="M484 330L485 331L484 330Z" fill="#89C6AD"/>
<path d="M47 331L48 332L47 331ZM113 331L114 332L113 331Z" fill="#525352"/>
<path d="M117 331L118 332L117 331Z" fill="#89C6AD"/>
<path d="M300 331L301 332L300 331Z" fill="#525352"/>
<path d="M445 331L446 332L445 331ZM485 331L486 332L485 331ZM48 332L49 333L48 332Z" fill="#89C6AD"/>
<path d="M49 332L50 333L49 332ZM111 332L112 333L111 332Z" fill="#525352"/>
<path d="M112 332L113 333L112 332Z" fill="#89C6AD"/>
<path d="M119 332L120 333L119 332ZM299 332L300 333L299 332Z" fill="#525352"/>
<path d="M446 332L447 333L446 332Z" fill="#D7636E"/>
<path d="M486 332L487 333L486 332ZM50 333L51 334L50 333Z" fill="#89C6AD"/>
<path d="M51 333L52 334L51 333ZM109 333L110 334L109 333Z" fill="#525352"/>
<path d="M110 333L111 334L110 333ZM120 333L121 334L120 333Z" fill="#89C6AD"/>
<path d="M121 333L122 334L121 333Z" fill="#525352"/>
<path d="M298 333L299 334L298 333ZM447 333L448 334L447 333Z" fill="#D7636E"/>
<path d="M53 334L54 335L53 334Z" fill="#89C6AD"/>
<path d="M54 334L55 335L54 334ZM106 334L107 335L106 334Z" fill="#525352"/>
<path d="M107 334L108 335L107 334ZM122 334L123 335L122 334Z" fill="#89C6AD"/>
<path d="M123 334L124 335L123 334ZM296 334L297 335L296 334Z" fill="#525352"/>
<path d="M297 334L298 335L297 334ZM448 334L449 335L448 334Z" fill="#89C6AD"/>
<path d="M449 334L450 335L449 334ZM487 334L488 335L487 334Z" fill="#525352"/>
<path d="M56.666 335.333L57.3326 335.667L56.666 335.333Z" fill="#89C6AD"/>
<path d="M103.668 335.333L104.334 335.667L103.668 335.333ZM124.001 335L125.001 336L124.001 335Z" fill="#89C6AD"/>
<path d="M125 335L126 336L125 335Z" fill="#525352"/>
<path d="M295 335L296 336L295 335Z" fill="#D7636E"/>
<path d="M461.668 335.333L462.334 335.667L461.668 335.333Z" fill="#89C6AD"/>
<path d="M463 335L464 336L463 335Z" fill="#D7636E"/>
<path d="M464.668 335.333L465.334 335.667L464.668 335.333Z" fill="#525352"/>
<path d="M488 335L489 336L488 335Z" fill="#89C6AD"/>
<path d="M127 336L128 337L127 336ZM293 336L294 337L293 336Z" fill="#525352"/>
<path d="M467 336L468 337L467 336Z" fill="#D7636E"/>
<path d="M488 336L489 337L488 336Z" fill="#525352"/>
<path d="M129 337L130 338L129 337Z" fill="#89C6AD"/>
<path d="M130 337L131 338L130 337ZM291 337L292 338L291 337Z" fill="#525352"/>
<path d="M469 337L470 338L469 337Z" fill="#D7636E"/>
<path d="M489 337L490 338L489 337ZM133 338L134 339L133 338Z" fill="#89C6AD"/>
<path d="M134 338L135 339L134 338Z" fill="#525352"/>
<path d="M470 338L471 339L470 338Z" fill="#89C6AD"/>
<path d="M471 338L472 339L471 338Z" fill="#525352"/>
<path d="M137.668 339.333L138.334 339.667L137.668 339.333Z" fill="#89C6AD"/>
<path d="M490 339L491 340L490 339Z" fill="#89C6AD"/>
<path d="M215 340V391C215 397.117 213.227 406.623 216.742 411.956C223.097 421.596 253.526 417.82 264 416.906C268.108 416.547 271.75 414.799 273.682 410.981C276.706 405.007 275 395.523 275 389V340H215Z" fill="#D7636E"/>
<path d="M475 343L476 344L475 343ZM476 345L477 346L476 345Z" fill="#D7636E"/>
<path d="M492 345L493 346L492 345Z" fill="#89C6AD"/>
<path d="M492 346V350H493L492 346ZM477 347L478 348L477 347Z" fill="#525352"/>
<path d="M477 348L478 349L477 348Z" fill="#D7636E"/>
<path d="M477.333 349.667L477.667 350.333L477.333 349.667ZM477 354L478 355L477 354Z" fill="#89C6AD"/>
<path d="M477 355L478 356L477 355Z" fill="#D7636E"/>
<path d="M492 355V358H493L492 355ZM477 356L478 357L477 356Z" fill="#525352"/>
<path d="M476 358L477 359L476 358Z" fill="#D7636E"/>
<path d="M492 358L493 359L492 358Z" fill="#89C6AD"/>
<path d="M475 360L476 361L475 360Z" fill="#D7636E"/>
<path d="M491.333 360.667L491.667 361.333L491.333 360.667ZM474 362L475 363L474 362ZM473 363L474 364L473 363ZM490 363L491 364L490 363ZM472 364L473 365L472 364Z" fill="#525352"/>
<path d="M490 364L491 365L490 364ZM470 365L471 366L470 365Z" fill="#89C6AD"/>
<path d="M469 366L470 367L469 366Z" fill="#525352"/>
<path d="M489 366L490 367L489 366Z" fill="#89C6AD"/>
<path d="M467 367L468 368L467 367Z" fill="#525352"/>
<path d="M462.668 368.333L463.334 368.667L462.668 368.333Z" fill="#89C6AD"/>
<path d="M464.668 368.333L465.334 368.667L464.668 368.333Z" fill="#525352"/>
<path d="M488 368L489 369L488 368Z" fill="#89C6AD"/>
<path d="M449 369L450 370L449 369Z" fill="#D7636E"/>
<path d="M450 369L451 370L450 369ZM487 369L488 370L487 369Z" fill="#525352"/>
<path d="M108.668 373.333L109.334 373.667L108.668 373.333Z" fill="#525352"/>
<path d="M110 373.439C97.6912 375.357 80.1817 376.24 73.005 388.001C62.9003 404.559 77.8375 428.455 96.9996 425.7C108.845 423.997 128.735 418.149 134.597 406.996C143.76 389.562 128.664 370.531 110 373.439Z" fill="#020202"/>
<path d="M120 373L121 374L120 373Z" fill="#525352"/>
<path d="M121 373L122 374L121 373Z" fill="#89C6AD"/>
<path d="M445 373L446 374L445 373Z" fill="#525352"/>
<path d="M484.001 373L485.001 374L484.001 373ZM101.668 374.333L102.334 374.667L101.668 374.333Z" fill="#89C6AD"/>
<path d="M103.668 374.333L104.334 374.667L103.668 374.333ZM123.001 374L124.001 375L123.001 374Z" fill="#525352"/>
<path d="M124 374L125 375L124 374Z" fill="#89C6AD"/>
<path d="M483 374L484 375L483 374Z" fill="#525352"/>
<path d="M96.666 375.333L97.3326 375.667L96.666 375.333Z" fill="#89C6AD"/>
<path d="M98.666 375.333L99.3326 375.667L98.666 375.333ZM124.999 375L125.999 376L124.999 375Z" fill="#525352"/>
<path d="M443.999 375V378H444.999L443.999 375ZM481.999 375L482.999 376L481.999 375ZM91.666 376.333L92.3326 376.667L91.666 376.333Z" fill="#89C6AD"/>
<path d="M93 376L94 377L93 376ZM127 376L128 377L127 376Z" fill="#525352"/>
<path d="M481 376L482 377L481 376ZM86 377L87 378L86 377Z" fill="#89C6AD"/>
<path d="M87.666 377.333L88.3326 377.667L87.666 377.333ZM127.999 377L128.999 378L127.999 377ZM478.999 377L479.999 378L478.999 377Z" fill="#525352"/>
<path d="M83 378L84 379L83 378Z" fill="#89C6AD"/>
<path d="M84 378L85 379L84 378ZM478 378L479 379L478 378Z" fill="#525352"/>
<path d="M81 379L82 380L81 379Z" fill="#89C6AD"/>
<path d="M82 379L83 380L82 379ZM445 379L446 380L445 379ZM476.333 379.667L476.667 380.333L476.333 379.667Z" fill="#525352"/>
<path d="M477 379L478 380L477 379Z" fill="#89C6AD"/>
<path d="M80 380L81 381L80 380Z" fill="#525352"/>
<path d="M445 380L446 381L445 380ZM78 381L79 382L78 381Z" fill="#89C6AD"/>
<path d="M132 381L133 382L132 381Z" fill="#525352"/>
<path d="M446 381L447 382L446 381Z" fill="#D7636E"/>
<path d="M477 381L478 382L477 381ZM77 382L78 383L77 382Z" fill="#525352"/>
<path d="M133 382L134 383L133 382Z" fill="#89C6AD"/>
<path d="M447 382L448 383L447 382Z" fill="#D7636E"/>
<path d="M478 382L479 383L478 382Z" fill="#89C6AD"/>
<path d="M76 383L77 384L76 383ZM449.667 383.333L450.333 383.667L449.667 383.333ZM75 384L76 385L75 384ZM134 384L135 385L134 384Z" fill="#525352"/>
<path d="M454 384L455 385L454 384Z" fill="#89C6AD"/>
<path d="M455 384L456 385L455 384Z" fill="#D7636E"/>
<path d="M456 384L457 385L456 384ZM479 384L480 385L479 384ZM74 385L75 386L74 385Z" fill="#525352"/>
<path d="M458 385L459 386L458 385Z" fill="#89C6AD"/>
<path d="M459 385L460 386L459 385Z" fill="#525352"/>
<path d="M480 385L481 386L480 385ZM73 386L74 387L73 386Z" fill="#89C6AD"/>
<path d="M135 386L136 387L135 386Z" fill="#525352"/>
<path d="M460 386L461 387L460 386Z" fill="#89C6AD"/>
<path d="M461.001 386L462.001 387L461.001 386ZM480.001 386L481.001 387L480.001 386ZM114.668 387.333L115.334 387.667L114.668 387.333ZM462.001 387L463.001 388L462.001 387Z" fill="#525352"/>
<path d="M481 387L482 388L481 387ZM72 388L73 389L72 388Z" fill="#89C6AD"/>
<path d="M109.668 388.333L110.334 388.667L109.668 388.333Z" fill="#525352"/>
<path d="M111 388.429C104.647 389.306 92.1233 389.701 87.4334 394.433C81.7789 400.138 87.1758 411.432 94.9998 410.796C101.261 410.286 115.213 406.07 119.682 401.581C126.691 394.541 118.444 387.402 111 388.429Z" fill="#D7636E"/>
<path d="M118 388L119 389L118 388Z" fill="#525352"/>
<path d="M463 388L464 389L463 388Z" fill="#D7636E"/>
<path d="M481.001 388L482.001 389L481.001 388ZM103.668 389.333L104.334 389.667L103.668 389.333Z" fill="#525352"/>
<path d="M136 389L137 390L136 389Z" fill="#89C6AD"/>
<path d="M464 389L465 390L464 389Z" fill="#D7636E"/>
<path d="M71 390L72 391L71 390Z" fill="#89C6AD"/>
<path d="M98.666 390.333L99.3326 390.667L98.666 390.333ZM119.999 390L120.999 391L119.999 390ZM135.999 390L136.999 391L135.999 390Z" fill="#525352"/>
<path d="M465 390L466 391L465 390Z" fill="#D7636E"/>
<path d="M482 390L483 391L482 390Z" fill="#89C6AD"/>
<path d="M93.6667 391.333L94.3333 391.667L93.6667 391.333ZM466 391L467 392L466 391ZM482 391L483 392L482 391ZM89 392L90 393L89 392Z" fill="#525352"/>
<path d="M137.332 392.667L137.666 393.333L137.332 392.667ZM465.999 392L466.999 393L465.999 392Z" fill="#89C6AD"/>
<path d="M70.334 393.667L70.6674 394.333L70.334 393.667ZM87.0007 393L88.0007 394L87.0007 393ZM467.001 393L468.001 394L467.001 393Z" fill="#525352"/>
<path d="M483 393L484 394L483 393Z" fill="#89C6AD"/>
<path d="M467 394L468 395L467 394Z" fill="#89C6AD"/>
<path d="M468 396L469 397L468 396Z" fill="#D7636E"/>
<path d="M468.001 397L469.001 398L468.001 397ZM69.334 398.667L69.6674 399.333L69.334 398.667ZM137.334 399.667L137.668 400.333L137.334 399.667Z" fill="#89C6AD"/>
<path d="M121 400L122 401L121 400ZM469.333 400.667L469.667 401.333L469.333 400.667Z" fill="#525352"/>
<path d="M484.332 400.667L484.666 401.333L484.332 400.667Z" fill="#89C6AD"/>
<path d="M120.001 401L121.001 402L120.001 401ZM85.0007 402L86.0007 403L85.0007 402ZM119.001 402L120.001 403L119.001 402ZM136.334 402.667L136.668 403.333L136.334 402.667ZM70.334 403.667L70.6674 404.333L70.334 403.667ZM117.001 403L118.001 404L117.001 403ZM114.001 404L115.001 405L114.001 404Z" fill="#525352"/>
<path d="M468 404L469 405L468 404ZM70 405L71 406L70 405Z" fill="#89C6AD"/>
<path d="M111 405L112 406L111 405ZM135 405L136 406L135 405Z" fill="#525352"/>
<path d="M468 405L469 406L468 405Z" fill="#D7636E"/>
<path d="M86 406L87 407L86 406ZM108 406L109 407L108 406Z" fill="#525352"/>
<path d="M135 406L136 407L135 406Z" fill="#89C6AD"/>
<path d="M468.001 406L469.001 407L468.001 406ZM483.334 406.667L483.668 407.333L483.334 406.667ZM71.334 407.667L71.6674 408.333L71.334 407.667ZM105.001 407L106.001 408L105.001 407ZM134.001 407L135.001 408L134.001 407ZM290.001 407V412H291.001L290.001 407ZM87.0007 408L88.0007 409L87.0007 408ZM102.668 408.333L103.334 408.667L102.668 408.333Z" fill="#525352"/>
<path d="M134 408L135 409L134 408Z" fill="#89C6AD"/>
<path d="M467 408L468 409L467 408Z" fill="#525352"/>
<path d="M483 408L484 409L483 408ZM71 409L72 410L71 409Z" fill="#89C6AD"/>
<path d="M88 409L89 410L88 409ZM100 409L101 410L100 409ZM133 409L134 410L133 409Z" fill="#525352"/>
<path d="M199.332 409.667L199.666 410.333L199.332 409.667Z" fill="#89C6AD"/>
<path d="M274 409L275 410L274 409ZM89 410L90 411L89 410ZM97 410L98 411L97 410ZM132 410L133 411L132 410ZM215 410L216 411L215 410ZM466 410L467 411L466 410ZM482 410L483 411L482 410ZM72 411L73 412L72 411ZM92.6667 411.333L93.3333 411.667L92.6667 411.333ZM131 411L132 412L131 411ZM465 411L466 412L465 411Z" fill="#525352"/>
<path d="M482 411L483 412L482 411ZM72 412L73 413L72 412Z" fill="#89C6AD"/>
<path d="M200.332 412.667L200.666 413.333L200.332 412.667ZM215.999 412L216.999 413L215.999 412Z" fill="#525352"/>
<path d="M464 412L465 413L464 412Z" fill="#89C6AD"/>
<path d="M73 413L74 414L73 413ZM129 413L130 414L129 413ZM217 413L218 414L217 413ZM272 413L273 414L272 413Z" fill="#525352"/>
<path d="M463 413L464 414L463 413Z" fill="#D7636E"/>
<path d="M481 413L482 414L481 413Z" fill="#525352"/>
<path d="M73 414L74 415L73 414Z" fill="#89C6AD"/>
<path d="M128 414L129 415L128 414ZM218 414L219 415L218 414Z" fill="#525352"/>
<path d="M291 414L292 415L291 414Z" fill="#89C6AD"/>
<path d="M462 414L463 415L462 414Z" fill="#525352"/>
<path d="M481 414L482 415L481 414Z" fill="#89C6AD"/>
<path d="M74 415L75 416L74 415Z" fill="#525352"/>
<path d="M127 415L128 416L127 415Z" fill="#89C6AD"/>
<path d="M201 415L202 416L201 415Z" fill="#525352"/>
<path d="M291 415L292 416L291 415Z" fill="#D7636E"/>
<path d="M461 415L462 416L461 415ZM480 415L481 416L480 415Z" fill="#525352"/>
<path d="M74 416L75 417L74 416ZM125 416L126 417L125 416ZM201 416L202 417L201 416Z" fill="#89C6AD"/>
<path d="M221 416L222 417L221 416ZM267 416L268 417L267 416ZM291 416L292 417L291 416ZM460 416L461 417L460 416Z" fill="#525352"/>
<path d="M480 416L481 417L480 416ZM75 417L76 418L75 417Z" fill="#89C6AD"/>
<path d="M122 417L123 418L122 417Z" fill="#525352"/>
<path d="M123 417L124 418L123 417Z" fill="#89C6AD"/>
<path d="M459 417L460 418L459 417Z" fill="#89C6AD"/>
<path d="M479 417L480 418L479 417ZM76 418L77 419L76 418ZM119 418L120 419L119 418Z" fill="#525352"/>
<path d="M120 418L121 419L120 418ZM202 418L203 419L202 418Z" fill="#89C6AD"/>
<path d="M380 418L381 419L380 418Z" fill="#D7636E"/>
<path d="M381 418L382 419L381 418ZM439 418L440 419L439 418Z" fill="#525352"/>
<path d="M440 418L441 419L440 418Z" fill="#89C6AD"/>
<path d="M459 418L460 419L459 418ZM77 419L78 420L77 419ZM116 419L117 420L116 419Z" fill="#525352"/>
<path d="M117 419L118 420L117 419Z" fill="#89C6AD"/>
<path d="M203 419L204 420L203 419Z" fill="#525352"/>
<path d="M292 419L293 420L292 419Z" fill="#D7636E"/>
<path d="M378 419L379 420L378 419Z" fill="#89C6AD"/>
<path d="M441 419L442 420L441 419Z" fill="#525352"/>
<path d="M478 419L479 420L478 419Z" fill="#89C6AD"/>
<path d="M78 420L79 421L78 420ZM113 420L114 421L113 420Z" fill="#525352"/>
<path d="M114 420L115 421L114 420Z" fill="#89C6AD"/>
<path d="M292 420L293 421L292 420Z" fill="#525352"/>
<path d="M377 420L378 421L377 420Z" fill="#89C6AD"/>
<path d="M477 420L478 421L477 420ZM79 421L80 422L79 421ZM110 421L111 422L110 421Z" fill="#525352"/>
<path d="M111 421L112 422L111 421ZM204 421L205 422L204 421Z" fill="#89C6AD"/>
<path d="M443 421L444 422L443 421ZM476 421L477 422L476 421Z" fill="#525352"/>
<path d="M80 422L81 423L80 422Z" fill="#89C6AD"/>
<path d="M107.668 422.333L108.334 422.667L107.668 422.333ZM205.001 422L206.001 423L205.001 422Z" fill="#525352"/>
<path d="M293 422L294 423L293 422ZM376 422L377 423L376 422Z" fill="#D7636E"/>
<path d="M444 422L445 423L444 422Z" fill="#89C6AD"/>
<path d="M459 422L460 423L459 422ZM475 422L476 423L475 422ZM82 423L83 424L82 423ZM105 423L106 424L105 423ZM206 423L207 424L206 423ZM293 423L294 424L293 423ZM444 423V427H445L444 423Z" fill="#525352"/>
<path d="M459 423L460 424L459 423Z" fill="#D7636E"/>
<path d="M84 424L85 425L84 424ZM102 424L103 425L102 424Z" fill="#525352"/>
<path d="M103 424L104 425L103 424Z" fill="#89C6AD"/>
<path d="M207 424L208 425L207 424Z" fill="#525352"/>
<path d="M294 424L295 425L294 424Z" fill="#89C6AD"/>
<path d="M473 424L474 425L473 424Z" fill="#525352"/>
<path d="M86 425L87 426L86 425Z" fill="#89C6AD"/>
<path d="M87 425L88 426L87 425ZM98.6667 425.333L99.3333 425.667L98.6667 425.333Z" fill="#525352"/>
<path d="M100 425L101 426L100 425Z" fill="#89C6AD"/>
<path d="M208 425L209 426L208 425ZM294 425L295 426L294 425Z" fill="#525352"/>
<path d="M375.332 425.667L375.666 426.333L375.332 425.667ZM459.999 425L460.999 426L459.999 425Z" fill="#89C6AD"/>
<path d="M472 425L473 426L472 425Z" fill="#525352"/>
<path d="M209 426L210 427L209 426Z" fill="#525352"/>
<path d="M295 426L296 427L295 426ZM461 426L462 427L461 426ZM471 426L472 427L471 426ZM210 427L211 428L210 427Z" fill="#89C6AD"/>
<path d="M278.668 427.333L279.334 427.667L278.668 427.333ZM295.001 427L296.001 428L295.001 427Z" fill="#525352"/>
<path d="M444 427L445 428L444 427Z" fill="#89C6AD"/>
<path d="M463 427L464 428L463 427ZM469 427L470 428L469 427Z" fill="#525352"/>
<path d="M470 427L471 428L470 427Z" fill="#89C6AD"/>
<path d="M212 428L213 429L212 428ZM277 428L278 429L277 428Z" fill="#525352"/>
<path d="M279 428L280 429L279 428ZM296 428L297 429L296 428Z" fill="#89C6AD"/>
<path d="M376 428L377 429L376 428Z" fill="#525352"/>
<path d="M465 428V429H468L465 428ZM148 429L149 430L148 429Z" fill="#89C6AD"/>
<path d="M149 429L150 430L149 429Z" fill="#525352"/>
<path d="M149.999 429.519C137.893 432.125 117.519 449.524 115.328 462C112.52 477.984 128.537 495.243 144.999 491.471C158.262 488.431 176.303 467.563 177.659 454C179.107 439.522 164.085 426.485 149.999 429.519Z" fill="#020202"/>
<path d="M158.668 429.333L159.334 429.667L158.668 429.333Z" fill="#525352"/>
<path d="M160 429L161 430L160 429ZM213 429L214 430L213 429Z" fill="#89C6AD"/>
<path d="M214 429L215 430L214 429ZM275 429L276 430L275 429Z" fill="#525352"/>
<path d="M376 429L377 430L376 429Z" fill="#89C6AD"/>
<path d="M443 429L444 430L443 429Z" fill="#525352"/>
<path d="M145 430L146 431L145 430Z" fill="#89C6AD"/>
<path d="M146 430L147 431L146 430ZM162 430L163 431L162 430Z" fill="#525352"/>
<path d="M163 430L164 431L163 430Z" fill="#89C6AD"/>
<path d="M216 430L217 431L216 430ZM272 430L273 431L272 430Z" fill="#525352"/>
<path d="M273 430L274 431L273 430Z" fill="#89C6AD"/>
<path d="M280 430L281 431L280 430Z" fill="#525352"/>
<path d="M297 430L298 431L297 430Z" fill="#D7636E"/>
<path d="M442 430L443 431L442 430Z" fill="#525352"/>
<path d="M143 431L144 432L143 431Z" fill="#89C6AD"/>
<path d="M164 431L165 432L164 431Z" fill="#525352"/>
<path d="M165 431L166 432L165 431ZM218 431L219 432L218 431Z" fill="#89C6AD"/>
<path d="M219.668 431.333L220.334 431.667L219.668 431.333ZM269.001 431L270.001 432L269.001 431Z" fill="#525352"/>
<path d="M270 431L271 432L270 431ZM298 431L299 432L298 431Z" fill="#89C6AD"/>
<path d="M377 431L378 432L377 431Z" fill="#D7636E"/>
<path d="M441 431L442 432L441 431ZM142 432L143 433L142 432ZM166 432L167 433L166 432Z" fill="#525352"/>
<path d="M281 432L282 433L281 432ZM298 432L299 433L298 432ZM438.667 432.333L439.333 432.667L438.667 432.333Z" fill="#525352"/>
<path d="M140 433L141 434L140 433Z" fill="#89C6AD"/>
<path d="M167 433L168 434L167 433ZM299 433L300 434L299 433Z" fill="#525352"/>
<path d="M378 433L379 434L378 433Z" fill="#D7636E"/>
<path d="M139 434L140 435L139 434ZM169 434L170 435L169 434Z" fill="#89C6AD"/>
<path d="M282 434L283 435L282 434Z" fill="#525352"/>
<path d="M300 434L301 435L300 434Z" fill="#D7636E"/>
<path d="M395 434L396 435L395 434ZM138 435L139 436L138 435Z" fill="#525352"/>
<path d="M170 435L171 436L170 435ZM301 435L302 436L301 435Z" fill="#89C6AD"/>
<path d="M379 435L380 436L379 435ZM137 436L138 437L137 436Z" fill="#525352"/>
<path d="M171 436L172 437L171 436ZM283 436L284 437L283 436ZM302 436L303 437L302 436Z" fill="#89C6AD"/>
<path d="M396 436L397 437L396 436ZM136 437L137 438L136 437Z" fill="#525352"/>
<path d="M172 437L173 438L172 437Z" fill="#89C6AD"/>
<path d="M284 437L285 438L284 437Z" fill="#525352"/>
<path d="M303 437L304 438L303 437Z" fill="#89C6AD"/>
<path d="M380 437L381 438L380 437Z" fill="#525352"/>
<path d="M284 438L285 439L284 438ZM304 438L305 439L304 438Z" fill="#89C6AD"/>
<path d="M397 438L398 439L397 438Z" fill="#525352"/>
<path d="M133 439L134 440L133 439Z" fill="#89C6AD"/>
<path d="M173 439L174 440L173 439ZM285 439L286 440L285 439Z" fill="#525352"/>
<path d="M305 439L306 440L305 439Z" fill="#89C6AD"/>
<path d="M381 439L382 440L381 439Z" fill="#525352"/>
<path d="M132 440L133 441L132 440Z" fill="#89C6AD"/>
<path d="M174 440L175 441L174 440Z" fill="#525352"/>
<path d="M306 440L307 441L306 440ZM381 440L382 441L381 440ZM398 440L399 441L398 440Z" fill="#89C6AD"/>
<path d="M131 441L132 442L131 441Z" fill="#525352"/>
<path d="M286 441L287 442L286 441Z" fill="#89C6AD"/>
<path d="M307 441L308 442L307 441ZM382 441L383 442L382 441ZM130 442L131 443L130 442ZM175 442L176 443L175 442ZM287 442L288 443L287 442ZM308 442L309 443L308 442Z" fill="#525352"/>
<path d="M382 442L383 443L382 442ZM399 442L400 443L399 442Z" fill="#89C6AD"/>
<path d="M129 443L130 444L129 443ZM288 443L289 444L288 443Z" fill="#525352"/>
<path d="M310 443L311 444L310 443Z" fill="#D7636E"/>
<path d="M383 443L384 444L383 443ZM128 444L129 445L128 444ZM151 444L152 445L151 444Z" fill="#525352"/>
<path d="M152 444.754C145.652 446.904 132.784 457.592 130.619 464C128.431 470.476 136.534 478.561 142.985 476.242C149.173 474.018 160.803 460.408 162.253 454C163.567 448.195 157.61 442.853 152 444.754Z" fill="#D7636E"/>
<path d="M157 444L158 445L157 444ZM176 444L177 445L176 444ZM289 444L290 445L289 444ZM311 444L312 445L311 444Z" fill="#525352"/>
<path d="M312 444L313 445L312 444ZM383 444L384 445L383 444ZM400 444L401 445L400 444Z" fill="#89C6AD"/>
<path d="M313 445L314 446L313 445ZM384 445L385 446L384 445ZM400 445L401 446L400 445Z" fill="#525352"/>
<path d="M125 446L126 447L125 446Z" fill="#89C6AD"/>
<path d="M148 446L149 447L148 446Z" fill="#525352"/>
<path d="M290 446L291 447L290 446Z" fill="#89C6AD"/>
<path d="M314 446L315 447L314 446Z" fill="#525352"/>
<path d="M315 446L316 447L315 446ZM384 446L385 447L384 446ZM401 446L402 447L401 446ZM124 447L125 448L124 447Z" fill="#89C6AD"/>
<path d="M147 447L148 448L147 447Z" fill="#525352"/>
<path d="M177 447L178 448L177 447ZM291 447L292 448L291 447Z" fill="#89C6AD"/>
<path d="M316 447L317 448L316 447ZM401 447L402 448L401 447ZM123 448L124 449L123 448ZM146 448L147 449L146 448ZM177.333 448.667L177.667 449.333L177.333 448.667Z" fill="#525352"/>
<path d="M292 448L293 449L292 448ZM318 448L319 449L318 448Z" fill="#89C6AD"/>
<path d="M385 448L386 449L385 448Z" fill="#D7636E"/>
<path d="M402 448L403 449L402 448Z" fill="#89C6AD"/>
<path d="M122 449L123 450L122 449ZM162.333 449.667L162.667 450.333L162.333 449.667Z" fill="#525352"/>
<path d="M293 449L294 450L293 449Z" fill="#89C6AD"/>
<path d="M319 449L320 450L319 449Z" fill="#D7636E"/>
<path d="M402 449L403 450L402 449ZM121 450L122 451L121 450Z" fill="#525352"/>
<path d="M294 450L295 451L294 450Z" fill="#89C6AD"/>
<path d="M320 450L321 451L320 450Z" fill="#525352"/>
<path d="M386 450L387 451L386 450Z" fill="#D7636E"/>
<path d="M120 451L121 452L120 451Z" fill="#525352"/>
<path d="M322 451L323 452L322 451Z" fill="#89C6AD"/>
<path d="M403 451L404 452L403 451ZM119 452L120 453L119 452ZM297 452L298 453L297 452Z" fill="#525352"/>
<path d="M323 452L324 453L323 452Z" fill="#D7636E"/>
<path d="M387 452L388 453L387 452Z" fill="#525352"/>
<path d="M118 453L119 454L118 453Z" fill="#89C6AD"/>
<path d="M140 453L141 454L140 453ZM298 453L299 454L298 453Z" fill="#525352"/>
<path d="M324 453L325 454L324 453Z" fill="#D7636E"/>
<path d="M404 453L405 454L404 453ZM139 454L140 455L139 454ZM162 454L163 455L162 454Z" fill="#525352"/>
<path d="M299 454L300 455L299 454Z" fill="#89C6AD"/>
<path d="M325 454L326 455L325 454ZM388 454L389 455L388 454ZM117 455L118 456L117 455ZM138 455L139 456L138 455ZM177.333 455.667L177.667 456.333L177.333 455.667ZM301 455L302 456L301 455ZM326 455L327 456L326 455ZM405 455L406 456L405 455ZM161 456L162 457L161 456Z" fill="#525352"/>
<path d="M302 456L303 457L302 456Z" fill="#89C6AD"/>
<path d="M327 456L328 457L327 456ZM389 456L390 457L389 456ZM116 457L117 458L116 457Z" fill="#525352"/>
<path d="M177 457L178 458L177 457Z" fill="#89C6AD"/>
<path d="M304 457L305 458L304 457ZM328 457L329 458L328 457Z" fill="#525352"/>
<path d="M389 457L390 458L389 457ZM406 457L407 458L406 457ZM305 458L306 459L305 458Z" fill="#89C6AD"/>
<path d="M329 458L330 459L329 458ZM390 458L391 459L390 458Z" fill="#525352"/>
<path d="M115 459L116 460L115 459Z" fill="#89C6AD"/>
<path d="M133 459L134 460L133 459ZM176 459L177 460L176 459ZM307 459L308 460L307 459ZM330 459L331 460L330 459Z" fill="#525352"/>
<path d="M390 459L391 460L390 459ZM407 459L408 460L407 459Z" fill="#89C6AD"/>
<path d="M115 460L116 461L115 460ZM132 460L133 461L132 460Z" fill="#525352"/>
<path d="M176 460L177 461L176 460ZM308 460L309 461L308 460Z" fill="#89C6AD"/>
<path d="M309 460L310 461L309 460ZM331 460L332 461L331 460ZM391 460L392 461L391 460ZM407 460L408 461L407 460ZM131 461L132 462L131 461ZM157 461L158 462L157 461ZM310 461L311 462L310 461ZM332 461L333 462L332 461Z" fill="#525352"/>
<path d="M391 461L392 462L391 461ZM408 461L409 462L408 461Z" fill="#89C6AD"/>
<path d="M156 462L157 463L156 462ZM175 462L176 463L175 462Z" fill="#525352"/>
<path d="M311 462L312 463L311 462Z" fill="#89C6AD"/>
<path d="M333 462L334 463L333 462ZM392 462L393 463L392 462ZM408 462L409 463L408 462Z" fill="#525352"/>
<path d="M155 463L156 464L155 463Z" fill="#525352"/>
<path d="M334 463L335 464L334 463Z" fill="#D7636E"/>
<path d="M392 463L393 464L392 463ZM409 463L410 464L409 463ZM174 464L175 465L174 464Z" fill="#89C6AD"/>
<path d="M314 464L315 465L314 464Z" fill="#525352"/>
<path d="M335 464L336 465L335 464Z" fill="#89C6AD"/>
<path d="M336 465L337 466L336 465Z" fill="#89C6AD"/>
<path d="M393 465L394 466L393 465Z" fill="#D7636E"/>
<path d="M410 465L411 466L410 465Z" fill="#89C6AD"/>
<path d="M172 466L173 467L172 466ZM316 466L317 467L316 466ZM336 466L337 467L336 466ZM410 466L411 467L410 466Z" fill="#525352"/>
<path d="M317 467L318 468L317 467Z" fill="#89C6AD"/>
<path d="M337 467L338 468L337 467ZM394 467L395 468L394 467Z" fill="#525352"/>
<path d="M171 468L172 469L171 468ZM318 468L319 469L318 468ZM338 468L339 469L338 468Z" fill="#89C6AD"/>
<path d="M411 468L412 469L411 468ZM130 469L131 470L130 469ZM150 469L151 470L150 469Z" fill="#525352"/>
<path d="M170 469L171 470L170 469ZM205 469L206 470L205 469Z" fill="#89C6AD"/>
<path d="M214 469L215 470L214 469ZM319 469L320 470L319 469Z" fill="#89C6AD"/>
<path d="M395 469L396 470L395 469ZM149 470L150 471L149 470Z" fill="#525352"/>
<path d="M169 470L170 471L169 470Z" fill="#89C6AD"/>
<path d="M202.668 470.333L203.334 470.667L202.668 470.333Z" fill="#525352"/>
<path d="M204 470.532C192.88 473.182 189.536 483.394 186.333 493C183.618 501.145 179.865 509.181 181.213 518C183.297 531.634 200.653 539.039 213 535.956C226.055 532.697 228.504 521.48 230.8 510C232.139 503.303 234.68 495.866 233.698 489C231.657 474.718 217.487 467.319 204 470.532Z" fill="#020202"/>
<path d="M217 470L218 471L217 470Z" fill="#525352"/>
<path d="M218 470L219 471L218 470ZM320 470L321 471L320 470Z" fill="#89C6AD"/>
<path d="M339 470L340 471L339 470ZM412 470L413 471L412 470ZM148 471L149 472L148 471ZM168 471L169 472L168 471ZM200 471L201 472L200 471ZM220 471L221 472L220 471Z" fill="#525352"/>
<path d="M221 471L222 472L221 471Z" fill="#89C6AD"/>
<path d="M321 471L322 472L321 471Z" fill="#525352"/>
<path d="M340 471L341 472L340 471Z" fill="#D7636E"/>
<path d="M396 471L397 472L396 471ZM115 472L116 473L115 472ZM167 472L168 473L167 472ZM198 472L199 473L198 472ZM222 472L223 473L222 472ZM322 472L323 473L322 472Z" fill="#525352"/>
<path d="M413 472L414 473L413 472ZM115 473L116 474L115 473Z" fill="#89C6AD"/>
<path d="M166 473L167 474L166 473ZM197 473L198 474L197 473ZM224 473L225 474L224 473ZM323 473L324 474L323 473ZM341 473L342 474L341 473ZM397 473L398 474L397 473Z" fill="#525352"/>
<path d="M195 474L196 475L195 474Z" fill="#89C6AD"/>
<path d="M225 474L226 475L225 474Z" fill="#525352"/>
<path d="M342 474L343 475L342 474ZM397 474L398 475L397 474ZM414 474L415 475L414 474ZM116 475L117 476L116 475ZM194 475L195 476L194 475ZM324 475L325 476L324 475Z" fill="#89C6AD"/>
<path d="M342 475L343 476L342 475ZM398 475L399 476L398 475ZM137 476L138 477L137 476ZM143 476L144 477L143 476Z" fill="#525352"/>
<path d="M164 476L165 477L164 476ZM193 476L194 477L193 476Z" fill="#89C6AD"/>
<path d="M325 476L326 477L325 476Z" fill="#525352"/>
<path d="M343 476L344 477L343 476Z" fill="#D7636E"/>
<path d="M398 476L399 477L398 476ZM415 476L416 477L415 476ZM117 477L118 478L117 477ZM163 477L164 478L163 477ZM192 477L193 478L192 477Z" fill="#89C6AD"/>
<path d="M326 477L327 478L326 477ZM399 477L400 478L399 477ZM415 477L416 478L415 477ZM118 478L119 479L118 478Z" fill="#525352"/>
<path d="M162 478L163 479L162 478Z" fill="#89C6AD"/>
<path d="M229 478L230 479L229 478ZM344 478L345 479L344 478Z" fill="#525352"/>
<path d="M399 478L400 479L399 478ZM416 478L417 479L416 478Z" fill="#89C6AD"/>
<path d="M161 479L162 480L161 479ZM191 479L192 480L191 479Z" fill="#525352"/>
<path d="M230 479L231 480L230 479ZM327 479L328 480L327 479Z" fill="#89C6AD"/>
<path d="M400 479L401 480L400 479ZM416 479L417 480L416 479Z" fill="#525352"/>
<path d="M119 480L120 481L119 480Z" fill="#89C6AD"/>
<path d="M160 480L161 481L160 480Z" fill="#525352"/>
<path d="M190 480L191 481L190 480Z" fill="#89C6AD"/>
<path d="M328 480L329 481L328 480ZM345 480L346 481L345 480Z" fill="#525352"/>
<path d="M400 480L401 481L400 480ZM417 480L418 481L417 480ZM120 481L121 482L120 481Z" fill="#89C6AD"/>
<path d="M159 481L160 482L159 481ZM190 481L191 482L190 481ZM231 481L232 482L231 481Z" fill="#525352"/>
<path d="M346 481L347 482L346 481Z" fill="#89C6AD"/>
<path d="M417 481L418 482L417 481Z" fill="#525352"/>
<path d="M121 482L122 483L121 482ZM189 482L190 483L189 482Z" fill="#89C6AD"/>
<path d="M329 482L330 483L329 482ZM346 482L347 483L346 482Z" fill="#525352"/>
<path d="M401 482L402 483L401 482Z" fill="#D7636E"/>
<path d="M122 483L123 484L122 483Z" fill="#89C6AD"/>
<path d="M189 483L190 484L189 483ZM232 483L233 484L232 483Z" fill="#525352"/>
<path d="M418 483L419 484L418 483Z" fill="#89C6AD"/>
<path d="M123 484L124 485L123 484Z" fill="#525352"/>
<path d="M157 484L158 485L157 484Z" fill="#89C6AD"/>
<path d="M207.668 484.333L208.334 484.667L207.668 484.333Z" fill="#525352"/>
<path d="M209.014 484.746C204.021 485.662 202.72 490.858 201.332 495C198.48 503.513 190.348 525.429 208.956 521.476C217.853 519.586 225.534 481.715 209.014 484.746Z" fill="#D7636E"/>
<path d="M211.668 484.333L212.334 484.667L211.668 484.333Z" fill="#525352"/>
<path d="M330 484L331 485L330 484Z" fill="#89C6AD"/>
<path d="M347 484L348 485L347 484ZM402 484L403 485L402 484ZM418 484L419 485L418 484ZM124 485L125 486L124 485Z" fill="#525352"/>
<path d="M156 485L157 486L156 485ZM188 485L189 486L188 485Z" fill="#89C6AD"/>
<path d="M215 485L216 486L215 485Z" fill="#525352"/>
<path d="M233 485L234 486L233 485Z" fill="#89C6AD"/>
<path d="M331 485L332 486L331 485Z" fill="#525352"/>
<path d="M125 486L126 487L125 486ZM155 486L156 487L155 486Z" fill="#89C6AD"/>
<path d="M188 486L189 487L188 486ZM233.333 486.667L233.667 487.333L233.333 486.667Z" fill="#525352"/>
<path d="M331 486L332 487L331 486Z" fill="#89C6AD"/>
<path d="M348 486L349 487L348 486ZM403 486L404 487L403 486Z" fill="#525352"/>
<path d="M419 486L420 487L419 486ZM126 487L127 488L126 487ZM154 487L155 488L154 487Z" fill="#89C6AD"/>
<path d="M332 487L333 488L332 487Z" fill="#525352"/>
<path d="M403 487L404 488L403 487Z" fill="#89C6AD"/>
<path d="M419.333 487.667L419.667 488.333L419.333 487.667ZM128 488L129 489L128 488ZM152 488L153 489L152 488Z" fill="#525352"/>
<path d="M187 488L188 489L187 488Z" fill="#89C6AD"/>
<path d="M203 488L204 489L203 488ZM218 488L219 489L218 488Z" fill="#525352"/>
<path d="M332 488L333 489L332 488Z" fill="#89C6AD"/>
<path d="M349 488L350 489L349 488Z" fill="#D7636E"/>
<path d="M404 488L405 489L404 488Z" fill="#525352"/>
<path d="M129 489L130 490L129 489Z" fill="#89C6AD"/>
<path d="M150 489L151 490L150 489Z" fill="#525352"/>
<path d="M151 489L152 490L151 489Z" fill="#89C6AD"/>
<path d="M187 489L188 490L187 489ZM333 489L334 490L333 489Z" fill="#525352"/>
<path d="M404 489L405 490L404 489Z" fill="#D7636E"/>
<path d="M131 490L132 491L131 490Z" fill="#89C6AD"/>
<path d="M132 490L133 491L132 490ZM148 490L149 491L148 490Z" fill="#525352"/>
<path d="M149 490L150 491L149 490ZM333 490L334 491L333 490Z" fill="#89C6AD"/>
<path d="M350 490L351 491L350 490Z" fill="#D7636E"/>
<path d="M404 490L405 491L404 490ZM134 491L135 492L134 491Z" fill="#89C6AD"/>
<path d="M135 491L136 492L135 491ZM145 491L146 492L145 491Z" fill="#525352"/>
<path d="M146 491L147 492L146 491ZM186 491L187 492L186 491Z" fill="#89C6AD"/>
<path d="M202 491L203 492L202 491Z" fill="#525352"/>
<path d="M234.332 491.667L234.666 492.333L234.332 491.667Z" fill="#89C6AD"/>
<path d="M334 491L335 492L334 491ZM350 491L351 492L350 491Z" fill="#525352"/>
<path d="M186 492L187 493L186 492Z" fill="#525352"/>
<path d="M334 492L335 493L334 492ZM351 492L352 493L351 492Z" fill="#89C6AD"/>
<path d="M405 492V495H406L405 492ZM351 493L352 494L351 493ZM420 493V500H421L420 493Z" fill="#525352"/>
<path d="M185 494L186 495L185 494Z" fill="#89C6AD"/>
<path d="M201 494L202 495L201 494Z" fill="#525352"/>
<path d="M335 494L336 495L335 494ZM352 494L353 495L352 494Z" fill="#89C6AD"/>
<path d="M185 495L186 496L185 495ZM218.333 495.667L218.667 496.333L218.333 495.667ZM352 495L353 496L352 495Z" fill="#525352"/>
<path d="M405 495V499H406L405 495Z" fill="#D7636E"/>
<path d="M233.332 496.667L233.666 497.333L233.332 496.667Z" fill="#525352"/>
<path d="M336 496L337 497L336 496ZM353 496L354 497L353 496ZM184 497L185 498L184 497Z" fill="#89C6AD"/>
<path d="M200 497L201 498L200 497ZM353 497L354 498L353 497ZM184 498L185 499L184 498Z" fill="#525352"/>
<path d="M233 498L234 499L233 498Z" fill="#89C6AD"/>
<path d="M337 498L338 499L337 498Z" fill="#525352"/>
<path d="M354 498L355 499L354 498Z" fill="#89C6AD"/>
<path d="M353.999 499L354.999 500L353.999 499ZM405.332 499.667L405.666 500.333L405.332 499.667ZM183.332 500.667L183.666 501.333L183.332 500.667ZM198.999 500L199.999 501L198.999 500ZM217.332 500.667L217.666 501.333L217.332 500.667ZM337.999 500L338.999 501L337.999 500Z" fill="#525352"/>
<path d="M420 500V503H421L420 500Z" fill="#89C6AD"/>
<path d="M232.333 501.667L232.667 502.333L232.333 501.667ZM355 501L356 502L355 501ZM339 502L340 503L339 502ZM182 503L183 504L182 503ZM198 503L199 504L198 503Z" fill="#525352"/>
<path d="M232 503L233 504L232 503Z" fill="#89C6AD"/>
<path d="M356 503L357 504L356 503Z" fill="#D7636E"/>
<path d="M404 503L405 504L404 503Z" fill="#89C6AD"/>
<path d="M340 504L341 505L340 504ZM404 504L405 505L404 504ZM419.333 504.667L419.667 505.333L419.333 504.667Z" fill="#525352"/>
<path d="M181 505L182 506L181 505Z" fill="#89C6AD"/>
<path d="M197.332 505.667L197.666 506.333L197.332 505.667ZM216.332 505.667L216.666 506.333L216.332 505.667Z" fill="#525352"/>
<path d="M340 505L341 506L340 505Z" fill="#89C6AD"/>
<path d="M357 505L358 506L357 505Z" fill="#D7636E"/>
<path d="M181.332 506.667L181.666 507.333L181.332 506.667ZM231.332 506.667L231.666 507.333L231.332 506.667ZM340.999 506L341.999 507L340.999 506Z" fill="#525352"/>
<path d="M403 506L404 507L403 506Z" fill="#D7636E"/>
<path d="M419 506L420 507L419 506ZM341 507L342 508L341 507Z" fill="#89C6AD"/>
<path d="M358 507L359 508L358 507Z" fill="#D7636E"/>
<path d="M196.332 508.667L196.666 509.333L196.332 508.667Z" fill="#525352"/>
<path d="M231 508L232 509L231 508Z" fill="#89C6AD"/>
<path d="M342 508L343 509L342 508Z" fill="#525352"/>
<path d="M402 508L403 509L402 508Z" fill="#D7636E"/>
<path d="M418.332 508.667L418.666 509.333L418.332 508.667Z" fill="#525352"/>
<path d="M180.332 509.667L180.666 510.333L180.332 509.667ZM341.999 509L342.999 510L341.999 509Z" fill="#89C6AD"/>
<path d="M358.999 509L359.999 510L358.999 509ZM215.332 510.667L215.666 511.333L215.332 510.667Z" fill="#525352"/>
<path d="M360 510L361 511L360 510Z" fill="#89C6AD"/>
<path d="M343 511L344 512L343 511Z" fill="#89C6AD"/>
<path d="M360 511L361 512L360 511Z" fill="#525352"/>
<path d="M400 511L401 512L400 511Z" fill="#89C6AD"/>
<path d="M417 511L418 512L417 511ZM361 512L362 513L361 512Z" fill="#525352"/>
<path d="M416.999 512L417.999 513L416.999 512ZM230.332 513.667L230.666 514.333L230.332 513.667ZM343.999 513L344.999 514L343.999 513Z" fill="#89C6AD"/>
<path d="M362 513L363 514L362 513Z" fill="#D7636E"/>
<path d="M399 513L400 514L399 513ZM363 514L364 515L363 514ZM398 514L399 515L398 514Z" fill="#525352"/>
<path d="M416 514L417 515L416 514ZM345 515L346 516L345 515Z" fill="#89C6AD"/>
<path d="M364 515L365 516L364 515Z" fill="#525352"/>
<path d="M180.332 516.667L180.666 517.333L180.332 516.667Z" fill="#89C6AD"/>
<path d="M214 516L215 517L214 516ZM229.333 516.667L229.667 517.333L229.333 516.667ZM365 516L366 517L365 516Z" fill="#525352"/>
<path d="M395 516L396 517L395 516ZM415 516L416 517L415 516Z" fill="#89C6AD"/>
<path d="M196 517L197 518L196 517Z" fill="#525352"/>
<path d="M346 517L347 518L346 517ZM367 517L368 518L367 517Z" fill="#89C6AD"/>
<path d="M394 517L395 518L394 517ZM414 517L415 518L414 517ZM197 518L198 519L197 518ZM213 518L214 519L213 518Z" fill="#525352"/>
<path d="M229.332 518.667L229.666 519.333L229.332 518.667Z" fill="#89C6AD"/>
<path d="M347 518L348 519L347 518ZM368 518L369 519L368 518Z" fill="#525352"/>
<path d="M369 518L370 519L369 518Z" fill="#89C6AD"/>
<path d="M392 518L393 519L392 518Z" fill="#D7636E"/>
<path d="M198 519L199 520L198 519ZM370 519L371 520L370 519Z" fill="#525352"/>
<path d="M371 519L372 520L371 519Z" fill="#89C6AD"/>
<path d="M390 519L391 520L390 519Z" fill="#D7636E"/>
<path d="M413 519L414 520L413 519Z" fill="#89C6AD"/>
<path d="M181 520L182 521L181 520ZM200.667 520.333L201.333 520.667L200.667 520.333Z" fill="#525352"/>
<path d="M348 520L349 521L348 520Z" fill="#89C6AD"/>
<path d="M373 520L374 521L373 520Z" fill="#525352"/>
<path d="M374 520L375 521L374 520ZM386 520L387 521L386 520Z" fill="#89C6AD"/>
<path d="M387 520L388 521L387 520Z" fill="#D7636E"/>
<path d="M388.001 520L389.001 521L388.001 520ZM412.001 520L413.001 521L412.001 520ZM204.668 521.333L205.334 521.667L204.668 521.333ZM210.001 521L211.001 522L210.001 521ZM228.001 521L229.001 522L228.001 521ZM349.001 521L350.001 522L349.001 521ZM377.001 521V522H380.001L377.001 521Z" fill="#525352"/>
<path d="M380.668 521.333L381.334 521.667L380.668 521.333Z" fill="#D7636E"/>
<path d="M382 521V522H385L382 521ZM182 522L183 523L182 522Z" fill="#525352"/>
<path d="M228 522L229 523L228 522Z" fill="#89C6AD"/>
<path d="M350 522L351 523L350 522Z" fill="#525352"/>
<path d="M411 522L412 523L411 522ZM182 523L183 524L182 523Z" fill="#89C6AD"/>
<path d="M351 523L352 524L351 523Z" fill="#525352"/>
<path d="M410 523L411 524L410 523Z" fill="#89C6AD"/>
<path d="M183 524L184 525L183 524ZM227 524L228 525L227 524ZM352 524L353 525L352 524Z" fill="#525352"/>
<path d="M409 524L410 525L409 524Z" fill="#89C6AD"/>
<path d="M353 525L354 526L353 525Z" fill="#525352"/>
<path d="M408 525L409 526L408 525ZM184 526L185 527L184 526ZM226 526L227 527L226 526Z" fill="#89C6AD"/>
<path d="M354 526L355 527L354 526Z" fill="#525352"/>
<path d="M407 526L408 527L407 526Z" fill="#89C6AD"/>
<path d="M185 527L186 528L185 527ZM225 527L226 528L225 527ZM355 527L356 528L355 527Z" fill="#525352"/>
<path d="M406 527L407 528L406 527Z" fill="#89C6AD"/>
<path d="M186 528L187 529L186 528Z" fill="#525352"/>
<path d="M356 528L357 529L356 528Z" fill="#89C6AD"/>
<path d="M404 528L405 529L404 528ZM187 529L188 530L187 529Z" fill="#525352"/>
<path d="M224 529L225 530L224 529Z" fill="#89C6AD"/>
<path d="M358 529L359 530L358 529ZM403 529L404 530L403 529ZM188 530L189 531L188 530Z" fill="#525352"/>
<path d="M223 530L224 531L223 530ZM359 530L360 531L359 530Z" fill="#89C6AD"/>
<path d="M401 530L402 531L401 530Z" fill="#525352"/>
<path d="M189 531L190 532L189 531ZM222 531L223 532L222 531Z" fill="#89C6AD"/>
<path d="M361 531L362 532L361 531Z" fill="#525352"/>
<path d="M400 531L401 532L400 531Z" fill="#89C6AD"/>
<path d="M191 532L192 533L191 532ZM220 532L221 533L220 532ZM363 532L364 533L363 532Z" fill="#525352"/>
<path d="M398 532L399 533L398 532ZM192 533L193 534L192 533Z" fill="#89C6AD"/>
<path d="M193 533L194 534L193 533ZM219 533L220 534L219 533ZM365 533L366 534L365 533ZM395 533L396 534L395 533Z" fill="#525352"/>
<path d="M396 533L397 534L396 533Z" fill="#89C6AD"/>
<path d="M195.668 534.333L196.334 534.667L195.668 534.333ZM217.001 534L218.001 535L217.001 534Z" fill="#525352"/>
<path d="M367 534L368 535L367 534Z" fill="#89C6AD"/>
<path d="M368 534L369 535L368 534ZM392.667 534.333L393.333 534.667L392.667 534.333Z" fill="#525352"/>
<path d="M198 535L199 536L198 535Z" fill="#89C6AD"/>
<path d="M199 535L200 536L199 535ZM215 535L216 536L215 535Z" fill="#525352"/>
<path d="M370 535L371 536L370 535Z" fill="#89C6AD"/>
<path d="M371.668 535.333L372.334 535.667L371.668 535.333ZM388.668 535.333L389.334 535.667L388.668 535.333Z" fill="#525352"/>
<path d="M390 535L391 536L390 535ZM202 536L203 537L202 536Z" fill="#89C6AD"/>
<path d="M203.668 536.333L204.334 536.667L203.668 536.333ZM210.668 536.333L211.334 536.667L210.668 536.333Z" fill="#525352"/>
<path d="M212 536L213 537L212 536ZM375 536V537H378L375 536Z" fill="#89C6AD"/>
<path d="M378 536V537H383L378 536Z" fill="#525352"/>
<path d="M383 536V537H386L383 536Z" fill="#89C6AD"/>
</svg>
