<svg width="20" height="20" viewBox="0 0 20 20" fill="none" xmlns="http://www.w3.org/2000/svg">
<g clip-path="url(#clip0_410_9381)">
<path fill-rule="evenodd" clip-rule="evenodd" d="M9.33499 0.0135739C9.26074 0.0181239 9.19999 0.0303739 9.19999 0.0408739C9.19999 0.0513739 9.16399 0.0599739 9.11999 0.0599739C9.07599 0.0599739 9.03999 0.0689739 9.03999 0.0799739C9.03999 0.0909739 9.00904 0.0999739 8.97119 0.0999739C8.93334 0.0999739 8.89679 0.108974 8.88999 0.119974C8.88319 0.130974 8.85564 0.139974 8.82879 0.139974C8.80194 0.139974 8.77999 0.148974 8.77999 0.159974C8.77999 0.170974 8.75299 0.179974 8.71999 0.179974C8.68699 0.179974 8.65999 0.188974 8.65999 0.199974C8.65999 0.210974 8.63299 0.219974 8.59999 0.219974C8.56699 0.219974 8.53999 0.228974 8.53999 0.239974C8.53999 0.250974 8.52199 0.259974 8.49999 0.259974C8.47799 0.259974 8.45999 0.268974 8.45999 0.279974C8.45999 0.290974 8.44199 0.299974 8.41999 0.299974C8.39799 0.299974 8.37999 0.308974 8.37999 0.319974C8.37999 0.330974 8.36199 0.339974 8.33999 0.339974C8.31799 0.339974 8.29999 0.348974 8.29999 0.359974C8.29999 0.370974 8.28254 0.379974 8.26119 0.379974C8.23984 0.379974 8.21679 0.388974 8.20999 0.399974C8.20319 0.410974 8.18229 0.419974 8.16354 0.419974C8.14479 0.419974 8.08269 0.451474 8.02549 0.489974C7.96834 0.528474 7.91219 0.559974 7.90079 0.559974C7.88934 0.559974 7.87999 0.568974 7.87999 0.579974C7.87999 0.590974 7.86559 0.599974 7.84799 0.599974C7.83044 0.599974 7.79084 0.626974 7.75999 0.659974C7.72914 0.692974 7.69314 0.719974 7.67999 0.719974C7.66684 0.719974 7.63084 0.746974 7.59999 0.779974C7.56914 0.812974 7.53324 0.839974 7.52019 0.839974C7.49314 0.839974 6.97999 1.35872 6.97999 1.38607C6.97999 1.39587 6.95299 1.42912 6.91999 1.45997C6.88699 1.49082 6.85999 1.52682 6.85999 1.53997C6.85999 1.55312 6.83299 1.58912 6.79999 1.61997C6.76699 1.65082 6.73999 1.69042 6.73999 1.70797C6.73999 1.72557 6.73099 1.73997 6.71999 1.73997C6.70899 1.73997 6.69999 1.75597 6.69999 1.77557C6.69999 1.79512 6.68199 1.82412 6.65999 1.83997C6.63799 1.85582 6.61999 1.88097 6.61999 1.89582C6.61999 1.91067 6.60604 1.93677 6.58899 1.95382C6.57199 1.97087 6.55284 2.01072 6.54649 2.04237C6.54019 2.07407 6.52879 2.09997 6.52124 2.09997C6.51364 2.09997 6.49509 2.13147 6.47999 2.16997C6.46489 2.20847 6.44519 2.23997 6.43624 2.23997C6.42729 2.23997 6.41999 2.25797 6.41999 2.27997C6.41999 2.30197 6.41099 2.31997 6.39999 2.31997C6.38899 2.31997 6.37999 2.33807 6.37999 2.36022C6.37999 2.38237 6.37119 2.41612 6.36044 2.43522C6.32029 2.50662 6.23999 2.78332 6.23999 2.85037C6.23999 2.88867 6.23099 2.91997 6.21999 2.91997C6.20899 2.91997 6.19999 2.96102 6.19999 3.01117C6.19999 3.06682 6.19219 3.09752 6.17999 3.08997C6.16744 3.08222 6.15999 3.12587 6.15999 3.20712C6.15999 3.27837 6.15249 3.33962 6.14334 3.34332C6.12254 3.35162 6.14874 6.64758 6.17024 6.72998C6.29359 7.20288 7.03409 7.26568 7.23224 6.81998C7.29774 6.67258 7.29999 6.62193 7.29999 5.28292C7.29999 4.10652 7.30374 3.93727 7.32999 3.92722C7.35424 3.91792 7.35999 3.87192 7.35999 3.68782C7.35999 3.54927 7.36784 3.45997 7.37999 3.45997C7.39099 3.45997 7.39999 3.41497 7.39999 3.35997C7.39999 3.30497 7.40899 3.25997 7.41999 3.25997C7.43099 3.25997 7.43999 3.22397 7.43999 3.17997C7.43999 3.13597 7.44899 3.09997 7.45999 3.09997C7.47099 3.09997 7.47999 3.07297 7.47999 3.03997C7.47999 3.00697 7.48899 2.97997 7.49999 2.97997C7.51099 2.97997 7.51999 2.96197 7.51999 2.93997C7.51999 2.91797 7.52899 2.89997 7.53999 2.89997C7.55099 2.89997 7.55999 2.87747 7.55999 2.84997C7.55999 2.82247 7.56899 2.79997 7.57999 2.79997C7.59099 2.79997 7.59999 2.78197 7.59999 2.75997C7.59999 2.73797 7.60899 2.71997 7.61999 2.71997C7.63099 2.71997 7.63999 2.70197 7.63999 2.67997C7.63999 2.65797 7.64899 2.63997 7.65999 2.63997C7.67099 2.63997 7.67999 2.62607 7.67999 2.60912C7.67999 2.59217 7.69799 2.55897 7.71999 2.53537C7.74199 2.51177 7.75999 2.48062 7.75999 2.46622C7.75999 2.45177 7.76899 2.43997 7.77999 2.43997C7.79099 2.43997 7.79999 2.42817 7.79999 2.41372C7.79999 2.39932 7.81619 2.37007 7.83599 2.34872C7.85579 2.32742 7.88954 2.27847 7.91099 2.23997C7.93244 2.20147 7.99394 2.12947 8.04769 2.07997C8.10144 2.03047 8.19489 1.94272 8.25539 1.88497C8.31589 1.82722 8.37324 1.77997 8.38284 1.77997C8.39249 1.77997 8.42859 1.75297 8.46314 1.71997C8.49769 1.68697 8.53809 1.65997 8.55294 1.65997C8.56784 1.65997 8.57999 1.65097 8.57999 1.63997C8.57999 1.62897 8.59179 1.61997 8.60624 1.61997C8.62064 1.61997 8.65179 1.60197 8.67539 1.57997C8.69899 1.55797 8.72769 1.53997 8.73914 1.53997C8.75059 1.53997 8.75999 1.53097 8.75999 1.51997C8.75999 1.50897 8.77799 1.49997 8.79999 1.49997C8.82199 1.49997 8.83999 1.49097 8.83999 1.47997C8.83999 1.46897 8.85799 1.45997 8.87999 1.45997C8.90199 1.45997 8.91999 1.45097 8.91999 1.43997C8.91999 1.42897 8.94699 1.41997 8.97999 1.41997C9.01299 1.41997 9.03999 1.41097 9.03999 1.39997C9.03999 1.38897 9.05799 1.37997 9.07999 1.37997C9.10199 1.37997 9.11999 1.37097 9.11999 1.35997C9.11999 1.34897 9.14699 1.33997 9.17999 1.33997C9.21299 1.33997 9.23999 1.33097 9.23999 1.31997C9.23999 1.30897 9.27524 1.29997 9.31834 1.29997C9.36139 1.29997 9.39964 1.29182 9.40334 1.28187C9.42554 1.22167 10.5753 1.22092 10.5966 1.28112C10.6003 1.29147 10.6386 1.29997 10.6816 1.29997C10.7247 1.29997 10.76 1.30897 10.76 1.31997C10.76 1.33097 10.787 1.33997 10.82 1.33997C10.853 1.33997 10.88 1.34897 10.88 1.35997C10.88 1.37097 10.898 1.37997 10.92 1.37997C10.942 1.37997 10.96 1.38897 10.96 1.39997C10.96 1.41097 10.987 1.41997 11.02 1.41997C11.053 1.41997 11.08 1.42897 11.08 1.43997C11.08 1.45097 11.098 1.45997 11.12 1.45997C11.142 1.45997 11.16 1.46897 11.16 1.47997C11.16 1.49097 11.178 1.49997 11.2 1.49997C11.222 1.49997 11.24 1.50897 11.24 1.51997C11.24 1.53097 11.2494 1.53997 11.2608 1.53997C11.2723 1.53997 11.301 1.55797 11.3246 1.57997C11.3482 1.60197 11.3793 1.61997 11.3937 1.61997C11.4082 1.61997 11.42 1.62897 11.42 1.63997C11.42 1.65097 11.4335 1.65997 11.45 1.65997C11.4665 1.65997 11.48 1.66897 11.48 1.67997C11.48 1.69097 11.4894 1.69997 11.5009 1.69997C11.5124 1.69997 11.5443 1.72247 11.5718 1.74997C11.5993 1.77747 11.6299 1.79997 11.6399 1.79997C11.6499 1.79997 11.7209 1.86072 11.7978 1.93497C11.8746 2.00922 11.9648 2.09247 11.9981 2.11997C12.0315 2.14747 12.059 2.18162 12.0594 2.19582C12.0597 2.21002 12.0691 2.23252 12.0803 2.24582C12.1589 2.33902 12.1802 2.36917 12.1907 2.40237C12.1973 2.42302 12.2111 2.43997 12.2213 2.43997C12.2316 2.43997 12.24 2.45597 12.24 2.47557C12.24 2.49512 12.258 2.52412 12.28 2.53997C12.302 2.55582 12.32 2.58482 12.32 2.60437C12.32 2.62397 12.329 2.63997 12.34 2.63997C12.351 2.63997 12.36 2.65797 12.36 2.67997C12.36 2.70197 12.369 2.71997 12.38 2.71997C12.391 2.71997 12.4 2.73797 12.4 2.75997C12.4 2.78197 12.409 2.79997 12.42 2.79997C12.431 2.79997 12.44 2.82247 12.44 2.84997C12.44 2.87747 12.449 2.89997 12.46 2.89997C12.471 2.89997 12.48 2.91797 12.48 2.93997C12.48 2.96197 12.489 2.97997 12.5 2.97997C12.511 2.97997 12.52 3.00697 12.52 3.03997C12.52 3.07297 12.529 3.09997 12.54 3.09997C12.551 3.09997 12.56 3.13597 12.56 3.17997C12.56 3.22397 12.569 3.25997 12.58 3.25997C12.591 3.25997 12.6 3.30497 12.6 3.35997C12.6 3.41497 12.609 3.45997 12.62 3.45997C12.6321 3.45997 12.64 3.54927 12.64 3.68782C12.64 3.87192 12.6457 3.91792 12.67 3.92722C12.6962 3.93727 12.7 4.11072 12.7 5.32062V6.70248L12.7525 6.80978C12.969 7.25193 13.5906 7.25563 13.8039 6.81608L13.8554 6.70998L13.8641 5.02497C13.8688 4.09822 13.8654 3.33997 13.8564 3.33997C13.8474 3.33997 13.84 3.27697 13.84 3.19997C13.84 3.11997 13.8314 3.05997 13.82 3.05997C13.809 3.05997 13.8 3.02847 13.8 2.98997C13.8 2.95147 13.7923 2.91997 13.7828 2.91997C13.7734 2.91997 13.7598 2.86412 13.7527 2.79587C13.7456 2.72757 13.7308 2.66277 13.7199 2.65187C13.7089 2.64092 13.7 2.61182 13.7 2.58717C13.7 2.56252 13.6928 2.53787 13.6839 2.53242C13.6751 2.52697 13.6555 2.47692 13.6403 2.42122C13.6252 2.36552 13.6054 2.31997 13.5964 2.31997C13.5873 2.31997 13.58 2.30197 13.58 2.27997C13.58 2.25797 13.571 2.23997 13.56 2.23997C13.549 2.23997 13.54 2.22197 13.54 2.19997C13.54 2.17797 13.531 2.15997 13.52 2.15997C13.509 2.15997 13.5 2.14647 13.5 2.12997C13.5 2.11347 13.4921 2.09997 13.4825 2.09997C13.4728 2.09997 13.4598 2.07407 13.4535 2.04237C13.4471 2.01072 13.428 1.97087 13.411 1.95382C13.3939 1.93677 13.38 1.91067 13.38 1.89582C13.38 1.88097 13.362 1.85582 13.34 1.83997C13.318 1.82412 13.3 1.79512 13.3 1.77557C13.3 1.75597 13.291 1.73997 13.28 1.73997C13.269 1.73997 13.26 1.72557 13.26 1.70797C13.26 1.69042 13.233 1.65082 13.2 1.61997C13.167 1.58912 13.14 1.55312 13.14 1.53997C13.14 1.52682 13.113 1.49082 13.08 1.45997C13.047 1.42912 13.02 1.39467 13.02 1.38332C13.02 1.35507 12.5068 0.839974 12.4786 0.839974C12.4662 0.839974 12.4308 0.812974 12.4 0.779974C12.3691 0.746974 12.3331 0.719974 12.32 0.719974C12.3068 0.719974 12.2708 0.692974 12.24 0.659974C12.2091 0.626974 12.1695 0.599974 12.152 0.599974C12.1344 0.599974 12.12 0.592424 12.12 0.583174C12.12 0.573974 12.0997 0.555874 12.075 0.543074C12.0502 0.530224 11.994 0.497674 11.95 0.470724C11.906 0.443774 11.8542 0.421324 11.835 0.420824C11.8157 0.420374 11.8 0.410974 11.8 0.399974C11.8 0.388974 11.7775 0.379974 11.75 0.379974C11.7225 0.379974 11.7 0.370974 11.7 0.359974C11.7 0.348974 11.682 0.339974 11.66 0.339974C11.638 0.339974 11.62 0.330974 11.62 0.319974C11.62 0.308974 11.602 0.299974 11.58 0.299974C11.558 0.299974 11.54 0.290974 11.54 0.279974C11.54 0.268974 11.522 0.259974 11.5 0.259974C11.478 0.259974 11.46 0.250974 11.46 0.239974C11.46 0.228974 11.433 0.219974 11.4 0.219974C11.367 0.219974 11.34 0.210974 11.34 0.199974C11.34 0.188974 11.318 0.179974 11.2912 0.179974C11.2643 0.179974 11.2368 0.170974 11.23 0.159974C11.2232 0.148974 11.1956 0.139974 11.1688 0.139974C11.1419 0.139974 11.12 0.130974 11.12 0.119974C11.12 0.108974 11.084 0.0999739 11.04 0.0999739C10.996 0.0999739 10.96 0.0909739 10.96 0.0799739C10.96 0.0689739 10.9247 0.0599739 10.8816 0.0599739C10.8385 0.0599739 10.7997 0.0491739 10.7953 0.0359739C10.7872 0.0117739 9.65079 -0.00562614 9.33499 0.0135739ZM17.9057 15.89C17.9058 15.945 17.9097 15.9651 17.9143 15.9347C17.9189 15.9043 17.9188 15.8593 17.9141 15.8347C17.9093 15.8101 17.9055 15.835 17.9057 15.89Z" fill="#A7A71C"/>
<path fill-rule="evenodd" clip-rule="evenodd" d="M10 7.81426V11.7088L10.1223 11.5894C10.1896 11.5237 10.6103 11.1049 11.0573 10.6587C11.9774 9.74005 11.9601 9.7534 12.2316 9.75505C12.4709 9.7565 12.6646 9.8738 12.7585 10.0741C12.7729 10.1049 12.7926 10.1457 12.8024 10.1648C12.8283 10.2157 12.8233 10.459 12.7947 10.54C12.745 10.6811 12.6576 10.7742 11.3409 12.0899L10 13.4299V16.7157V20.0015L12.6734 19.9957C14.7901 19.9912 15.3484 19.9848 15.355 19.965C15.3598 19.9506 15.3968 19.94 15.4417 19.94C15.4848 19.94 15.52 19.9329 15.52 19.9242C15.52 19.9156 15.5491 19.9063 15.5847 19.9036C15.6203 19.9008 15.6581 19.8899 15.6687 19.8793C15.6793 19.8687 15.7042 19.86 15.724 19.86C15.7438 19.86 15.76 19.851 15.76 19.84C15.76 19.829 15.7863 19.82 15.8184 19.82C15.8504 19.82 15.8797 19.8111 15.8834 19.8001C15.887 19.7892 15.9148 19.7783 15.945 19.7758C15.9753 19.7733 16 19.7642 16 19.7556C16 19.747 16.018 19.74 16.04 19.74C16.062 19.74 16.08 19.731 16.08 19.72C16.08 19.709 16.0935 19.7 16.11 19.7C16.1265 19.7 16.14 19.691 16.14 19.68C16.14 19.669 16.158 19.66 16.18 19.66C16.202 19.66 16.22 19.651 16.22 19.64C16.22 19.629 16.238 19.62 16.26 19.62C16.282 19.62 16.3001 19.6132 16.3002 19.605C16.3003 19.5967 16.3205 19.5801 16.3452 19.5679C16.5087 19.4876 16.6165 19.4233 16.6602 19.38C16.688 19.3525 16.742 19.3079 16.7804 19.2809C16.8187 19.2539 16.8905 19.1875 16.94 19.1334C16.9895 19.0793 17.0773 18.9858 17.135 18.9257C17.1928 18.8656 17.24 18.809 17.24 18.7999C17.24 18.7908 17.267 18.7579 17.3 18.7267C17.333 18.6956 17.36 18.6621 17.36 18.6524C17.36 18.6426 17.3786 18.6185 17.4013 18.5988C17.4241 18.5791 17.4424 18.5556 17.4421 18.5465C17.4418 18.5374 17.4591 18.5097 17.4806 18.485C17.5022 18.4602 17.5105 18.44 17.4991 18.44C17.4878 18.44 17.4968 18.4203 17.5192 18.3962C17.5417 18.3721 17.56 18.3406 17.56 18.3262C17.56 18.3118 17.5696 18.3 17.5812 18.3C17.5929 18.3 17.5973 18.2917 17.591 18.2816C17.5848 18.2715 17.5932 18.2496 17.6098 18.233C17.6264 18.2164 17.64 18.1887 17.64 18.1714C17.64 18.1541 17.6475 18.14 17.6567 18.14C17.6659 18.14 17.6734 18.1269 17.6734 18.111C17.6734 18.0951 17.6944 18.0388 17.7202 17.986C17.7836 17.8559 17.799 17.8169 17.8056 17.77C17.8087 17.748 17.8182 17.7187 17.8268 17.705C17.8354 17.6912 17.8371 17.68 17.8307 17.68C17.8243 17.68 17.8317 17.6552 17.8472 17.625C17.8627 17.5947 17.8729 17.5407 17.87 17.505C17.8671 17.4692 17.8718 17.44 17.8805 17.44C17.9205 17.44 17.9614 16.2206 17.923 16.1728C17.9129 16.1603 17.9029 16.06 17.9008 15.95C17.8987 15.84 17.8929 15.7185 17.8878 15.68C17.8828 15.6415 17.876 15.5245 17.8727 15.42C17.8693 15.3155 17.8602 15.1985 17.8524 15.16C17.8445 15.1215 17.8348 15.0135 17.8307 14.92C17.8267 14.8265 17.8182 14.696 17.8118 14.63C17.791 14.4121 17.7774 14.2131 17.7668 13.97C17.7611 13.838 17.7491 13.7255 17.7401 13.72C17.7249 13.7106 17.7107 13.5042 17.6876 12.955C17.6821 12.8257 17.6707 12.72 17.6622 12.72C17.6438 12.72 17.6447 12.7312 17.6401 12.435C17.6381 12.3057 17.6283 12.2 17.6182 12.2C17.6082 12.2 17.6 12.0883 17.6 11.9517C17.6 11.811 17.5917 11.7005 17.5808 11.6967C17.5703 11.693 17.5603 11.5955 17.5587 11.48C17.5571 11.3645 17.5482 11.2607 17.539 11.2494C17.5298 11.238 17.5207 11.1255 17.5188 10.9994C17.5169 10.8732 17.5079 10.7653 17.4988 10.7596C17.4897 10.7538 17.4805 10.6348 17.4782 10.4952C17.4759 10.3556 17.4664 10.2461 17.457 10.2519C17.4477 10.2577 17.44 10.1404 17.44 9.9912C17.44 9.82375 17.4324 9.72 17.42 9.72C17.4079 9.72 17.4 9.63055 17.4 9.49165C17.4 9.3624 17.3916 9.26045 17.3807 9.25665C17.3698 9.2529 17.3601 9.1425 17.3587 9.00495C17.3572 8.87015 17.3479 8.7549 17.338 8.74875C17.3281 8.74265 17.32 8.62565 17.32 8.48881C17.32 8.33626 17.3123 8.24001 17.3 8.24001C17.288 8.24001 17.28 8.16041 17.28 8.04121C17.28 7.93021 17.2712 7.83691 17.26 7.83001C17.2485 7.82286 17.24 7.71446 17.24 7.57281C17.24 7.40906 17.2321 7.32006 17.216 7.30401C17.1974 7.28536 17.1985 7.27996 17.221 7.27971C17.242 7.27946 17.2434 7.27521 17.226 7.26416C17.2099 7.25391 17.2009 7.17186 17.1988 7.01446C17.197 6.88551 17.1875 6.78001 17.1778 6.78001C17.168 6.78001 17.16 6.66751 17.16 6.53001C17.16 6.38676 17.152 6.28001 17.1412 6.28001C17.1308 6.28001 17.1179 6.16976 17.1125 6.03501C17.0955 5.61241 17.0538 5.10716 17.0343 5.08766C17.028 5.08131 17.0276 5.06346 17.0335 5.04806C17.0395 5.03261 17.0356 5.02001 17.0249 5.02001C17.0143 5.02001 17.0094 4.99976 17.0141 4.97501C17.0254 4.91486 16.8723 4.58706 16.7835 4.48156C16.7138 4.39866 16.5595 4.23841 16.5456 4.23446C16.537 4.23201 16.5323 4.22326 16.535 4.21501C16.5378 4.20676 16.524 4.20001 16.5044 4.20001C16.4849 4.20001 16.4559 4.18201 16.44 4.16001C16.4242 4.13801 16.3952 4.12001 16.3756 4.12001C16.356 4.12001 16.34 4.11101 16.34 4.10001C16.34 4.08901 16.3259 4.08001 16.3086 4.08001C16.2913 4.08001 16.2636 4.06641 16.247 4.04981C16.2304 4.03321 16.2085 4.02476 16.1984 4.03101C16.1883 4.03726 16.18 4.03286 16.18 4.02121C16.18 4.00956 16.1581 4.00001 16.1312 4.00001C16.1044 4.00001 16.0774 3.99201 16.0714 3.98221C16.0467 3.94231 15.865 3.93376 14.895 3.92671L13.88 3.91931V5.33846C13.88 6.26301 13.8731 6.76196 13.86 6.77001C13.849 6.77681 13.84 6.79986 13.84 6.82121C13.84 6.84256 13.831 6.86001 13.82 6.86001C13.809 6.86001 13.8 6.87091 13.8 6.88426C13.8 6.91696 13.6383 7.08001 13.6059 7.08001C13.5917 7.08001 13.58 7.08901 13.58 7.10001C13.58 7.11101 13.5626 7.12001 13.5412 7.12001C13.5199 7.12001 13.4968 7.12901 13.49 7.14001C13.4831 7.15116 13.3898 7.16001 13.2788 7.16001C13.1596 7.16001 13.08 7.15201 13.08 7.14001C13.08 7.12901 13.0664 7.12001 13.0498 7.12001C12.9843 7.12001 12.76 6.93946 12.76 6.88676C12.76 6.87206 12.751 6.86001 12.74 6.86001C12.729 6.86001 12.72 6.84381 12.72 6.82401C12.72 6.80421 12.7088 6.77676 12.695 6.76301C12.6757 6.74371 12.6678 6.41966 12.66 5.33401L12.65 3.93001L11.325 3.92486L10 3.91971V7.81426Z" fill="#84CC84"/>
<path fill-rule="evenodd" clip-rule="evenodd" d="M11.9798 9.82408C11.8947 9.86398 11.4621 10.2845 9.58145 12.1558L9.19305 12.5422L8.65145 12.0033C8.35355 11.7069 8.0828 11.4511 8.0498 11.4348C7.523 11.1755 6.9783 11.7452 7.2705 12.2499C7.296 12.2939 7.67075 12.6824 8.1033 13.1132C8.99005 13.9964 8.9648 13.9778 9.24895 13.955C9.46575 13.9376 9.44505 13.9562 11.0938 12.3034C12.5635 10.8302 12.7598 10.6239 12.7598 10.5525C12.7598 10.5359 12.7688 10.5167 12.7798 10.5099C12.8049 10.4944 12.8062 10.2316 12.7815 10.1847C12.7714 10.1656 12.7494 10.1184 12.7327 10.0799C12.6245 9.83103 12.2423 9.70113 11.9798 9.82408ZM2.08485 16.0499C2.08505 16.0939 2.08915 16.1096 2.09395 16.0847C2.09875 16.0598 2.09855 16.0238 2.09355 16.0047C2.08855 15.9856 2.0846 16.0059 2.08485 16.0499ZM17.9049 16.0499C17.9051 16.0939 17.9092 16.1096 17.9139 16.0847C17.9187 16.0598 17.9186 16.0238 17.9136 16.0047C17.9086 15.9856 17.9046 16.0059 17.9049 16.0499Z" fill="#FBF3BF"/>
<path fill-rule="evenodd" clip-rule="evenodd" d="M4.03995 3.93867C4.02345 3.94767 3.97395 3.96597 3.92995 3.97932C3.8125 4.01502 3.73995 4.04762 3.73995 4.06482C3.73995 4.07312 3.72195 4.07992 3.69995 4.07992C3.67795 4.07992 3.65995 4.08892 3.65995 4.09992C3.65995 4.11092 3.64395 4.11992 3.62435 4.11992C3.6048 4.11992 3.5758 4.13792 3.55995 4.15992C3.5441 4.18192 3.52035 4.19992 3.50715 4.19992C3.46875 4.19992 3.24455 4.43487 3.1857 4.53677C3.1561 4.58797 3.1247 4.63497 3.1159 4.64107C3.0988 4.65307 3.0024 4.88587 2.98945 4.94652C2.98515 4.96667 2.97685 4.99827 2.97095 5.01677C2.9486 5.08717 2.93815 5.19967 2.92655 5.49492C2.92 5.66267 2.9068 5.79992 2.89725 5.79992C2.88775 5.79992 2.87995 5.90792 2.87995 6.03992C2.87995 6.18657 2.87215 6.27992 2.85995 6.27992C2.8477 6.27992 2.83995 6.37657 2.83995 6.52992C2.83995 6.68327 2.8322 6.77992 2.81995 6.77992C2.8077 6.77992 2.79995 6.87697 2.79995 7.03112C2.79995 7.17287 2.7922 7.27747 2.78215 7.27127C2.77215 7.26512 2.763 7.36787 2.76125 7.50507C2.75955 7.63977 2.74955 7.75292 2.73905 7.75657C2.7283 7.76032 2.71995 7.87127 2.71995 8.01042C2.71995 8.15362 2.71155 8.26277 2.69995 8.26992C2.6885 8.27697 2.67995 8.37972 2.67995 8.50992C2.67995 8.64012 2.6714 8.74287 2.65995 8.74992C2.6484 8.75702 2.63995 8.86347 2.63995 9.00112C2.63995 9.14697 2.63215 9.23992 2.61995 9.23992C2.60775 9.23992 2.59995 9.33287 2.59995 9.47872C2.59995 9.61637 2.5915 9.72282 2.57995 9.72992C2.56845 9.73702 2.55995 9.84212 2.55995 9.97712C2.55995 10.1063 2.55165 10.2205 2.5415 10.2309C2.5313 10.2414 2.51755 10.3624 2.51085 10.4999C2.50415 10.6374 2.49395 10.8489 2.4881 10.9699C2.48225 11.0909 2.46905 11.1985 2.4587 11.2089C2.4484 11.2194 2.43995 11.3323 2.43995 11.4599C2.43995 11.5875 2.43165 11.7005 2.4215 11.7109C2.4113 11.7214 2.39785 11.8379 2.3915 11.9699C2.38515 12.1019 2.3709 12.3224 2.35975 12.4599C2.32495 12.8907 2.30245 13.1838 2.2907 13.3599C2.28445 13.4534 2.2746 13.5659 2.2688 13.6099C2.25675 13.7014 2.22655 14.0996 2.21035 14.3799C2.2043 14.4844 2.1912 14.6194 2.18115 14.6799C2.1711 14.7404 2.16175 14.8659 2.1603 14.9587C2.15885 15.0515 2.1538 15.1337 2.14905 15.1413C2.13915 15.1574 2.1238 15.4037 2.1066 15.8249C2.09995 15.9872 2.08725 16.1199 2.0784 16.1199C2.06955 16.1199 2.0615 16.3719 2.06055 16.6799C2.05945 17.0509 2.0658 17.2399 2.0794 17.2399C2.0907 17.2399 2.10005 17.2782 2.1002 17.3249C2.1003 17.3717 2.11915 17.4819 2.1421 17.5699C2.165 17.6579 2.18845 17.7548 2.19415 17.7852C2.1999 17.8156 2.2125 17.8453 2.22225 17.8514C2.232 17.8574 2.23995 17.8798 2.23995 17.9011C2.23995 17.9225 2.24895 17.9399 2.25995 17.9399C2.27095 17.9399 2.27995 17.9619 2.27995 17.9887C2.27995 18.0156 2.28895 18.0431 2.29995 18.0499C2.31095 18.0567 2.31995 18.0798 2.31995 18.1011C2.31995 18.1225 2.32895 18.1399 2.33995 18.1399C2.35095 18.1399 2.35995 18.1579 2.35995 18.1799C2.35995 18.2019 2.36895 18.2199 2.37995 18.2199C2.39095 18.2199 2.39995 18.2372 2.39995 18.2583C2.39995 18.2793 2.4067 18.2996 2.41495 18.3033C2.4232 18.3069 2.4516 18.3527 2.4781 18.4049C2.50455 18.4572 2.5338 18.4999 2.5431 18.4999C2.55235 18.4999 2.55995 18.5117 2.55995 18.5262C2.55995 18.5406 2.57795 18.5717 2.59995 18.5953C2.62195 18.6189 2.63995 18.644 2.63995 18.6511C2.63995 18.6581 2.66695 18.6891 2.69995 18.7199C2.73295 18.7508 2.75995 18.7847 2.75995 18.7953C2.75995 18.8059 2.8072 18.864 2.86495 18.9245C2.9227 18.985 3.01045 19.0795 3.05995 19.1344C3.10945 19.1894 3.18485 19.2581 3.22755 19.287C3.2702 19.316 3.3277 19.3622 3.35525 19.3898C3.38285 19.4174 3.4177 19.4399 3.4327 19.4399C3.4477 19.4399 3.45995 19.4476 3.45995 19.4569C3.45995 19.4662 3.49595 19.4901 3.53995 19.5099C3.58395 19.5298 3.61995 19.5536 3.61995 19.563C3.61995 19.5723 3.63795 19.5799 3.65995 19.5799C3.68195 19.5799 3.69995 19.5889 3.69995 19.5999C3.69995 19.6109 3.71795 19.6199 3.73995 19.6199C3.76195 19.6199 3.77995 19.6272 3.77995 19.6362C3.77995 19.6451 3.81145 19.6648 3.84995 19.6799C3.88845 19.695 3.91995 19.7147 3.91995 19.7237C3.91995 19.7326 3.93795 19.7399 3.95995 19.7399C3.98195 19.7399 3.99995 19.7489 3.99995 19.7599C3.99995 19.7709 4.01805 19.7799 4.0402 19.7799C4.06235 19.7799 4.1006 19.7903 4.1252 19.803C4.2215 19.8528 4.2408 19.8599 4.2797 19.8599C4.30185 19.8599 4.31995 19.8689 4.31995 19.8799C4.31995 19.8909 4.3509 19.8999 4.38875 19.8999C4.4266 19.8999 4.46315 19.9089 4.46995 19.9199C4.47675 19.9309 4.507 19.9399 4.53715 19.9399C4.5673 19.9399 4.6032 19.9512 4.61695 19.9649C4.63665 19.9846 5.2106 19.9911 7.32095 19.9957L9.99995 20.0014L10 16.7157V13.4299L11.3487 12.0809C12.0905 11.339 12.7092 10.709 12.7237 10.6809C12.7381 10.6529 12.7544 10.6254 12.76 10.6199C12.8117 10.5689 12.842 10.2427 12.8023 10.1647C12.7925 10.1456 12.7725 10.1043 12.7578 10.0729C12.6675 9.88072 12.4645 9.75992 12.232 9.75992C11.96 9.75992 11.9839 9.74102 10.9418 10.7811C10.4354 11.2865 10.0164 11.6999 10.0105 11.6999C10.0047 11.6999 9.99995 9.94942 9.99995 7.80992V3.91992H8.65995H7.31995V5.27692C7.31995 6.64027 7.31835 6.67457 7.2483 6.83222C7.17075 7.00672 6.9238 7.15992 6.71995 7.15992C6.57165 7.15992 6.41725 7.09252 6.3023 6.97757C6.22545 6.90072 6.2054 6.86757 6.14275 6.71397C6.12645 6.67397 6.11995 6.26812 6.11995 5.28897V3.91992L5.09495 3.92112C4.5312 3.92172 4.05645 3.92962 4.03995 3.93867ZM12.4533 9.82112C12.5688 9.87037 12.6909 9.98342 12.7329 10.0799C12.7496 10.1184 12.7715 10.1656 12.7816 10.1847C12.8063 10.2316 12.805 10.4944 12.7799 10.5099C12.7689 10.5167 12.7599 10.5359 12.7599 10.5525C12.7599 10.6239 12.5636 10.8302 11.0939 12.3034C9.4452 13.9562 9.4659 13.9376 9.2491 13.955C8.96495 13.9778 8.9902 13.9964 8.10345 13.1132C7.6709 12.6824 7.29615 12.2939 7.27065 12.2499C6.97845 11.7452 7.52315 11.1755 8.04995 11.4348C8.08295 11.4511 8.3537 11.7069 8.6516 12.0033L9.1932 12.5422L9.5816 12.1558C11.4623 10.2845 11.8948 9.86397 11.9799 9.82407C12.1039 9.76597 12.3207 9.76462 12.4533 9.82112Z" fill="#B4DCB4"/>
<path fill-rule="evenodd" clip-rule="evenodd" d="M12.6602 5.32902C12.6679 6.41866 12.6758 6.74371 12.6952 6.76301C12.7089 6.77676 12.7202 6.80421 12.7202 6.82401C12.7202 6.84381 12.7292 6.86001 12.7402 6.86001C12.7512 6.86001 12.7602 6.87206 12.7602 6.88676C12.7602 6.93946 12.9844 7.12001 13.0499 7.12001C13.0666 7.12001 13.0802 7.12901 13.0802 7.14001C13.0802 7.15201 13.1598 7.16001 13.279 7.16001C13.39 7.16001 13.4833 7.15116 13.4902 7.14001C13.497 7.12901 13.52 7.12001 13.5414 7.12001C13.5627 7.12001 13.5802 7.11101 13.5802 7.10001C13.5802 7.08901 13.5918 7.08001 13.606 7.08001C13.6385 7.08001 13.8002 6.91696 13.8002 6.88426C13.8002 6.87091 13.8092 6.86001 13.8202 6.86001C13.8312 6.86001 13.8402 6.84256 13.8402 6.82121C13.8402 6.79986 13.8492 6.77681 13.8602 6.77001C13.8733 6.76191 13.8785 6.27326 13.8754 5.35382L13.8707 3.95002L13.8604 5.34002L13.8502 6.73001L13.8008 6.82661C13.5851 7.24891 12.9746 7.24746 12.7582 6.82406L12.7102 6.73001L12.7002 5.33167C12.6937 4.42622 12.6831 3.93097 12.6702 3.92667C12.6569 3.92222 12.6535 4.39412 12.6602 5.32902ZM6.12493 5.29407C6.12148 6.27931 6.12653 6.67366 6.14298 6.71406C6.20563 6.86766 6.22568 6.90081 6.30253 6.97766C6.37938 7.05451 6.41253 7.07456 6.56613 7.13721C6.72948 7.20381 6.98223 7.13326 7.13783 6.97766C7.21988 6.89561 7.25533 6.83466 7.29818 6.70201C7.31348 6.65476 7.31873 6.22206 7.31543 5.28202L7.31073 3.93002L7.29928 5.30002C7.28728 6.74291 7.28738 6.74151 7.19668 6.87441C6.96188 7.21846 6.47948 7.21986 6.24553 6.87711C6.15273 6.74111 6.15313 6.74721 6.14108 5.30002L6.12963 3.93002L6.12493 5.29407ZM11.6795 10.035L11.5702 10.15L11.6852 10.0407C11.7484 9.98056 11.8002 9.92881 11.8002 9.92571C11.8002 9.91086 11.7811 9.92816 11.6795 10.035ZM10.8494 10.865L10.7502 10.97L10.8552 10.8708C10.9129 10.8162 10.9602 10.7689 10.9602 10.7658C10.9602 10.7509 10.9416 10.7675 10.8494 10.865ZM10.0689 11.645L10.0102 11.71L10.0752 11.6513C10.1109 11.619 10.1402 11.5897 10.1402 11.5863C10.1402 11.5708 10.1237 11.5844 10.0689 11.645Z" fill="#8CC47C"/>
</g>
<defs>
<clipPath id="clip0_410_9381">
<rect width="20" height="20" fill="white"/>
</clipPath>
</defs>
</svg>
