<svg width="20" height="20" viewBox="0 0 20 20" fill="none" xmlns="http://www.w3.org/2000/svg">
<path fill-rule="evenodd" clip-rule="evenodd" d="M8.69981 0.014798C8.63931 0.018898 8.58126 0.030748 8.57081 0.041098C8.56036 0.051448 8.50411 0.059948 8.44581 0.059948C8.38751 0.059948 8.33981 0.068948 8.33981 0.079948C8.33981 0.090948 8.30381 0.099948 8.25981 0.099948C8.21581 0.099948 8.17981 0.108948 8.17981 0.119948C8.17981 0.130948 8.14886 0.139948 8.11101 0.139948C8.07316 0.139948 8.03661 0.148948 8.02981 0.159948C8.02301 0.170948 7.99151 0.179948 7.95981 0.179948C7.92811 0.179948 7.89661 0.188948 7.88981 0.199948C7.88301 0.210948 7.85996 0.219948 7.83861 0.219948C7.81726 0.219948 7.79981 0.228948 7.79981 0.239948C7.79981 0.250948 7.77281 0.259948 7.73981 0.259948C7.70681 0.259948 7.67981 0.268948 7.67981 0.279948C7.67981 0.290948 7.65281 0.299948 7.61981 0.299948C7.58681 0.299948 7.55981 0.308948 7.55981 0.319948C7.55981 0.330948 7.54236 0.339948 7.52101 0.339948C7.49966 0.339948 7.47661 0.348948 7.46981 0.359948C7.46301 0.370948 7.43546 0.379948 7.40861 0.379948C7.38176 0.379948 7.35981 0.388948 7.35981 0.399948C7.35981 0.410948 7.34661 0.419948 7.33051 0.419948C7.29431 0.419948 7.15226 0.484398 7.14316 0.504948C7.13946 0.513198 7.11921 0.519948 7.09816 0.519948C7.07706 0.519948 7.05981 0.528948 7.05981 0.539948C7.05981 0.550948 7.04381 0.559948 7.02421 0.559948C7.00466 0.559948 6.97566 0.577948 6.95981 0.599948C6.94396 0.621948 6.91496 0.639948 6.89541 0.639948C6.87581 0.639948 6.85981 0.648948 6.85981 0.659948C6.85981 0.670948 6.84591 0.679948 6.82896 0.679948C6.81201 0.679948 6.77881 0.697948 6.75521 0.719948C6.73161 0.741948 6.70046 0.759948 6.68606 0.759948C6.67161 0.759948 6.65981 0.768948 6.65981 0.779948C6.65981 0.790948 6.64621 0.799948 6.62961 0.799948C6.61301 0.799948 6.57121 0.826948 6.53666 0.859948C6.50211 0.892948 6.46531 0.919948 6.45486 0.919948C6.44441 0.919948 6.41066 0.946948 6.37981 0.979948C6.34896 1.01295 6.31836 1.03995 6.31181 1.03995C6.30521 1.03995 6.26276 1.07595 6.21741 1.11995C6.17206 1.16395 6.12736 1.19995 6.11806 1.19995C6.08411 1.19995 5.57981 1.68665 5.57981 1.71945C5.57981 1.72795 5.54381 1.7743 5.49981 1.8224C5.45581 1.87055 5.41981 1.9221 5.41981 1.9369C5.41981 1.95175 5.39281 1.9891 5.35981 2.01995C5.32681 2.0508 5.29981 2.0826 5.29981 2.09065C5.29981 2.09865 5.28401 2.1198 5.26466 2.1376C5.24536 2.1554 5.21681 2.1947 5.20131 2.22495C5.18576 2.2552 5.16556 2.27995 5.15641 2.27995C5.14731 2.27995 5.13981 2.29795 5.13981 2.31995C5.13981 2.34195 5.13081 2.35995 5.11981 2.35995C5.10881 2.35995 5.09981 2.37595 5.09981 2.39555C5.09981 2.4151 5.08181 2.4441 5.05981 2.45995C5.03781 2.4758 5.01981 2.5048 5.01981 2.52435C5.01981 2.54395 5.01081 2.55995 4.99981 2.55995C4.98881 2.55995 4.97981 2.57795 4.97981 2.59995C4.97981 2.62195 4.97306 2.64 4.96481 2.6401C4.94686 2.6403 4.89981 2.73715 4.89981 2.77395C4.89981 2.78825 4.89081 2.79995 4.87981 2.79995C4.86881 2.79995 4.85981 2.8172 4.85981 2.8383C4.85981 2.85935 4.85306 2.8796 4.84481 2.8833C4.83031 2.88975 4.75546 3.0377 4.71496 3.13995C4.70406 3.16745 4.68721 3.2056 4.67746 3.2247C4.66776 3.2438 4.65981 3.27605 4.65981 3.29635C4.65981 3.31665 4.65306 3.34005 4.64481 3.34825C4.62506 3.36805 4.57876 3.54795 4.56596 3.65495C4.56036 3.7017 4.54771 3.73995 4.53781 3.73995C4.52791 3.73995 4.51981 3.7664 4.51981 3.79875C4.51981 3.8311 4.51081 3.86315 4.49981 3.86995C4.48881 3.87675 4.47981 3.9178 4.47981 3.96115C4.47981 4.0045 4.47081 4.03995 4.45981 4.03995C4.44871 4.03995 4.43981 4.0929 4.43981 4.15875C4.43981 4.2241 4.43081 4.28315 4.41981 4.28995C4.40876 4.2968 4.39981 4.3868 4.39981 4.49115C4.39981 4.6037 4.39171 4.67995 4.37981 4.67995C4.35256 4.67995 4.35256 5.6331 4.37981 5.64995C4.39081 5.65675 4.39981 5.73275 4.39981 5.81885V5.9754L4.46481 6.0061C5.42796 6.4613 6.72871 6.5759 8.04981 6.3219C8.40246 6.2541 9.27156 6.0089 9.46981 5.92125C9.49181 5.9115 9.63581 5.8541 9.78981 5.7936C10.2646 5.6072 10.895 5.30295 11.3448 5.04325C11.3861 5.01945 11.4519 4.9818 11.4911 4.95955C11.5772 4.9108 11.5752 4.91205 11.9498 4.67845C12.2242 4.50735 12.6848 4.19475 12.7614 4.12765C12.8158 4.0799 12.8305 4.0949 12.9254 4.29495C13.2319 4.9414 13.8021 5.49265 14.3848 5.7059C14.4771 5.73965 14.4042 5.6729 14.2848 5.61435C14.1468 5.54665 14.0576 5.49775 14.0398 5.47995C14.0343 5.47445 14.0096 5.4587 13.9848 5.44495C13.8717 5.3821 13.8496 5.36835 13.8239 5.34465C13.8087 5.33075 13.7634 5.29505 13.7231 5.26535C13.4158 5.0389 13.1552 4.69185 13.1354 4.4826C13.11 4.21505 13.0982 4.13095 13.08 4.08995C13.0703 4.06795 13.0569 4.01395 13.0503 3.96995C13.0437 3.92595 13.0332 3.85615 13.0269 3.8148C13.0207 3.7735 13.0076 3.7347 12.9977 3.72865C12.9879 3.72255 12.9798 3.69615 12.9798 3.66995C12.9798 3.64375 12.9708 3.61675 12.9598 3.60995C12.9488 3.60315 12.9398 3.57165 12.9398 3.53995C12.9398 3.50825 12.9308 3.47675 12.9198 3.46995C12.9088 3.46315 12.8998 3.44 12.8998 3.4185C12.8998 3.397 12.8919 3.3638 12.8822 3.3447C12.8647 3.31035 12.8362 3.2424 12.8025 3.15495C12.7562 3.0348 12.738 2.99405 12.6341 2.77995C12.5728 2.65345 12.486 2.4934 12.4412 2.4243C12.3965 2.35515 12.3598 2.2899 12.3598 2.2793C12.3598 2.26865 12.3529 2.25995 12.3445 2.25995C12.3361 2.25995 12.307 2.22395 12.2798 2.17995C12.2526 2.13595 12.2235 2.09995 12.2151 2.09995C12.2067 2.09995 12.1998 2.08815 12.1998 2.0737C12.1998 2.0593 12.1838 2.03005 12.1641 2.0087C12.1445 1.9874 12.1152 1.95115 12.0991 1.9282C11.9528 1.7197 11.4345 1.20055 11.2354 1.0631C11.2103 1.04575 11.1798 1.0222 11.1676 1.01075C11.0723 0.921548 10.5406 0.589098 10.3698 0.511998C10.3258 0.492148 10.2453 0.454298 10.1909 0.427948C10.1365 0.401548 10.0802 0.379948 10.0659 0.379948C10.0516 0.379948 10.0398 0.370948 10.0398 0.359948C10.0398 0.348948 10.0217 0.339948 9.99956 0.339948C9.97741 0.339948 9.94141 0.330948 9.91956 0.319948C9.89771 0.308948 9.86191 0.290948 9.84006 0.279948C9.81821 0.268948 9.78371 0.259948 9.76341 0.259948C9.74311 0.259948 9.72031 0.253798 9.71276 0.246248C9.69081 0.224298 9.55386 0.180598 9.50601 0.180248C9.48191 0.180098 9.45721 0.171948 9.45116 0.162148C9.44511 0.152398 9.41086 0.139548 9.37501 0.133648C9.33916 0.127798 9.26481 0.112248 9.20981 0.099098C9.15481 0.085998 9.07381 0.068448 9.02981 0.060098C8.95781 0.046448 8.96376 0.044548 9.08981 0.041048C9.16681 0.038898 9.24781 0.029398 9.26981 0.019948C9.30966 0.00284802 8.92756 -0.000601983 8.69981 0.014798ZM10.4598 0.019948C10.5002 0.046048 10.9598 0.046048 10.9598 0.019948C10.9598 0.00759802 10.8584 4.80179e-05 10.6948 0.000248018C10.5163 0.000448018 10.4396 0.00689802 10.4598 0.019948ZM10.9847 0.044948C10.9899 0.060448 11.04 0.072198 11.1164 0.075898C11.1854 0.079248 11.2398 0.091098 11.2398 0.102848C11.2398 0.115598 11.279 0.121098 11.3398 0.116898C11.4102 0.111998 11.4398 0.117348 11.4398 0.134948C11.4398 0.150098 11.4669 0.159948 11.5086 0.159948C11.5465 0.159948 11.583 0.168948 11.5898 0.179948C11.5966 0.190948 11.6326 0.199948 11.6698 0.199948C11.707 0.199948 11.743 0.208948 11.7498 0.219948C11.7566 0.230948 11.7887 0.239948 11.821 0.239948C11.8534 0.239948 11.8798 0.248948 11.8798 0.259948C11.8798 0.270948 11.8979 0.279948 11.9201 0.279948C11.9422 0.279948 11.976 0.287898 11.9951 0.297598C12.0142 0.307348 12.0568 0.326398 12.0898 0.339948C12.1228 0.353498 12.1655 0.372548 12.1846 0.382298C12.2037 0.391998 12.2317 0.399948 12.2469 0.399948C12.288 0.399948 12.8506 0.684348 12.9955 0.778398C13.0646 0.823248 13.1299 0.859948 13.1405 0.859948C13.1511 0.859948 13.1598 0.866998 13.1598 0.875648C13.1598 0.884248 13.1865 0.907098 13.2191 0.926348C13.2517 0.945598 13.2899 0.972598 13.3041 0.986298C13.3182 1.00005 13.3613 1.03335 13.3998 1.0603C13.501 1.1312 13.5301 1.15545 13.6879 1.29995C13.9912 1.5778 14.1677 1.77075 14.3738 2.04995C14.47 2.18015 14.6798 2.5015 14.6798 2.51855C14.6798 2.5285 14.6867 2.5396 14.6952 2.5433C14.7195 2.55385 15.0001 3.12615 14.9999 3.16495C14.9999 3.1842 15.0088 3.19995 15.0198 3.19995C15.0308 3.19995 15.0398 3.21805 15.0398 3.24015C15.0398 3.2623 15.057 3.31855 15.0781 3.36515C15.0991 3.4118 15.1278 3.4972 15.1419 3.55495C15.1559 3.6127 15.1741 3.65995 15.1823 3.65995C15.1905 3.65995 15.1963 3.68875 15.1953 3.7239C15.1943 3.75905 15.2031 3.79105 15.2148 3.79495C15.2264 3.7988 15.2319 3.8278 15.227 3.8593C15.2218 3.89245 15.2293 3.92725 15.2449 3.9418C15.2598 3.9557 15.2682 3.99175 15.2638 4.0222C15.2593 4.0526 15.2687 4.10365 15.2847 4.1357C15.3007 4.16775 15.3096 4.2222 15.3046 4.2567C15.292 4.34255 15.3142 4.41995 15.3514 4.41995C15.3832 4.41995 15.3863 4.2382 15.3554 4.18875C15.3481 4.17705 15.34 4.12035 15.3374 4.0627C15.3347 4.005 15.3252 3.9533 15.3162 3.9477C15.3072 3.94215 15.2998 3.9111 15.2998 3.87875C15.2998 3.8464 15.2908 3.81995 15.2798 3.81995C15.2688 3.81995 15.2598 3.789 15.2598 3.75115C15.2598 3.7133 15.2508 3.67675 15.2398 3.66995C15.2288 3.66315 15.2198 3.6221 15.2198 3.57875C15.2198 3.5354 15.2108 3.49995 15.1998 3.49995C15.1888 3.49995 15.1798 3.47295 15.1798 3.43995C15.1798 3.40695 15.1708 3.37995 15.1598 3.37995C15.1488 3.37995 15.1398 3.36195 15.1398 3.33995C15.1398 3.31795 15.1308 3.29995 15.1198 3.29995C15.1088 3.29995 15.0998 3.27295 15.0998 3.23995C15.0998 3.20695 15.0908 3.17995 15.0798 3.17995C15.0688 3.17995 15.0598 3.15295 15.0598 3.11995C15.0598 3.08695 15.0508 3.05995 15.0398 3.05995C15.0288 3.05995 15.0198 3.04195 15.0198 3.01995C15.0198 2.99795 15.0108 2.97995 14.9998 2.97995C14.9888 2.97995 14.9798 2.96645 14.9798 2.94995C14.9798 2.93345 14.9708 2.91995 14.9598 2.91995C14.9488 2.91995 14.9398 2.90195 14.9398 2.87995C14.9398 2.85795 14.9308 2.83995 14.9198 2.83995C14.9088 2.83995 14.8998 2.82195 14.8998 2.79995C14.8998 2.77795 14.8908 2.75995 14.8798 2.75995C14.8688 2.75995 14.8598 2.74195 14.8598 2.71995C14.8598 2.69795 14.8508 2.67995 14.8398 2.67995C14.8288 2.67995 14.8198 2.66195 14.8198 2.63995C14.8198 2.61795 14.8108 2.59995 14.7998 2.59995C14.7888 2.59995 14.7798 2.58195 14.7798 2.55995C14.7798 2.53795 14.7708 2.51995 14.7598 2.51995C14.7488 2.51995 14.7398 2.50395 14.7398 2.48435C14.7398 2.4648 14.7218 2.4358 14.6998 2.41995C14.6778 2.4041 14.6598 2.3751 14.6598 2.35555C14.6598 2.33595 14.6508 2.31995 14.6398 2.31995C14.6288 2.31995 14.6198 2.30815 14.6198 2.2937C14.6198 2.2793 14.6018 2.24815 14.5798 2.22455C14.5578 2.20095 14.5398 2.17265 14.5398 2.1617C14.5398 2.15075 14.5173 2.11925 14.4898 2.09175C14.4623 2.06425 14.4398 2.03145 14.4398 2.0189C14.4398 2.0063 14.4128 1.9708 14.3798 1.93995C14.3468 1.9091 14.3198 1.87365 14.3198 1.86105C14.3198 1.8485 14.2501 1.76885 14.1648 1.68405C14.0796 1.59925 13.9976 1.5061 13.9826 1.4771C13.9677 1.4481 13.9317 1.4121 13.9028 1.39715C13.8738 1.3822 13.7938 1.3137 13.7249 1.24495C13.6561 1.1762 13.5902 1.11995 13.5786 1.11995C13.567 1.11995 13.563 1.11095 13.5698 1.09995C13.5766 1.08895 13.5656 1.07995 13.5454 1.07995C13.5252 1.07995 13.4957 1.06195 13.4798 1.03995C13.464 1.01795 13.439 0.999948 13.4242 0.999948C13.4095 0.999948 13.403 0.990948 13.4098 0.979948C13.4166 0.968948 13.4073 0.959948 13.389 0.959948C13.3708 0.959948 13.3307 0.932948 13.2998 0.899948C13.269 0.866948 13.2314 0.839948 13.2162 0.839948C13.2011 0.839948 13.1757 0.821948 13.1598 0.799948C13.144 0.777948 13.115 0.759948 13.0954 0.759948C13.0758 0.759948 13.0598 0.750948 13.0598 0.739948C13.0598 0.728948 13.0451 0.719948 13.0272 0.719948C13.0092 0.719948 12.9799 0.704198 12.962 0.684948C12.9188 0.638498 12.8483 0.599948 12.8068 0.599948C12.7883 0.599948 12.779 0.594098 12.7862 0.586898C12.8012 0.571948 12.709 0.519948 12.6675 0.519948C12.6523 0.519948 12.6398 0.510948 12.6398 0.499948C12.6398 0.488948 12.6224 0.479948 12.601 0.479948C12.5797 0.479948 12.5562 0.470348 12.549 0.458598C12.5417 0.446848 12.5232 0.442048 12.5078 0.447948C12.4924 0.453848 12.4798 0.449998 12.4798 0.439298C12.4798 0.428648 12.4618 0.419948 12.4398 0.419948C12.4178 0.419948 12.3998 0.410948 12.3998 0.399948C12.3998 0.388948 12.3818 0.379948 12.3598 0.379948C12.3378 0.379948 12.3198 0.370948 12.3198 0.359948C12.3198 0.348948 12.2928 0.339948 12.2598 0.339948C12.2268 0.339948 12.1998 0.330948 12.1998 0.319948C12.1998 0.308948 12.1862 0.299948 12.1696 0.299948C12.1529 0.299948 12.1214 0.290948 12.0996 0.279948C12.0777 0.268948 12.0419 0.250948 12.0201 0.239948C11.9982 0.228948 11.9622 0.219948 11.9401 0.219948C11.9179 0.219948 11.8998 0.210948 11.8998 0.199948C11.8998 0.188948 11.8638 0.179948 11.8198 0.179948C11.7758 0.179948 11.7398 0.170948 11.7398 0.159948C11.7398 0.148948 11.7038 0.139948 11.6598 0.139948C11.6158 0.139948 11.5798 0.130948 11.5798 0.119948C11.5798 0.108948 11.5489 0.099948 11.511 0.099948C11.4732 0.099948 11.4366 0.090948 11.4298 0.079948C11.423 0.068948 11.373 0.059948 11.3186 0.059948C11.2643 0.059948 11.2198 0.050948 11.2198 0.039948C11.2198 0.028798 11.1659 0.019948 11.0982 0.019948C11.0098 0.019948 10.9787 0.026798 10.9847 0.044948ZM15.3474 4.49235C15.3284 4.56835 15.3524 4.94055 15.3781 4.9662C15.3937 4.98185 15.3998 4.91145 15.3998 4.71395C15.3998 4.4533 15.3792 4.3659 15.3474 4.49235ZM4.35981 8.96775C4.35981 9.4959 4.36681 9.77995 4.37981 9.77995C4.39081 9.77995 4.39981 9.82495 4.39981 9.87995C4.39981 9.93495 4.40881 9.97995 4.41981 9.97995C4.43081 9.97995 4.43981 10.007 4.43981 10.04C4.43981 10.073 4.44881 10.0999 4.45981 10.0999C4.47081 10.0999 4.47981 10.1174 4.47981 10.1388C4.47981 10.1601 4.48881 10.1832 4.49981 10.1899C4.51081 10.1967 4.51981 10.2198 4.51981 10.2411C4.51981 10.2625 4.52881 10.28 4.53981 10.28C4.55081 10.28 4.55981 10.2934 4.55981 10.3099C4.55981 10.3264 4.56881 10.3399 4.57981 10.3399C4.59081 10.3399 4.59981 10.352 4.59981 10.3669C4.59981 10.3817 4.61781 10.4146 4.63981 10.4399C4.66181 10.4653 4.67981 10.4918 4.67981 10.4987C4.67981 10.5199 4.87416 10.7199 4.89471 10.7199C4.90526 10.7199 4.94211 10.747 4.97666 10.78C5.01121 10.813 5.05301 10.8399 5.06961 10.8399C5.08621 10.8399 5.09981 10.8489 5.09981 10.86C5.09981 10.8709 5.11781 10.88 5.13981 10.88C5.16181 10.88 5.17981 10.8867 5.17981 10.895C5.17981 10.9116 5.24626 10.9422 5.36981 10.9822C5.41381 10.9965 5.45836 11.0153 5.46881 11.024C5.47926 11.0328 5.51696 11.04 5.55261 11.04C5.58826 11.04 5.62241 11.0479 5.62846 11.0578C5.63451 11.0675 5.66876 11.0803 5.70461 11.0863C5.74046 11.0922 5.80806 11.1067 5.85481 11.1185C6.19071 11.2032 6.36261 11.2421 6.45526 11.2542C6.50226 11.2603 6.54556 11.2731 6.55146 11.2826C6.55736 11.2921 6.59316 11.2999 6.63101 11.2999C6.66886 11.2999 6.69981 11.3089 6.69981 11.32C6.69981 11.3309 6.73581 11.34 6.77981 11.34C6.82381 11.34 6.85981 11.3489 6.85981 11.36C6.85981 11.3709 6.89581 11.38 6.93981 11.38C6.98381 11.38 7.01981 11.389 7.01981 11.4C7.01981 11.4109 7.05581 11.4199 7.09981 11.4199C7.14381 11.4199 7.17981 11.429 7.17981 11.4399C7.17981 11.451 7.21076 11.4599 7.24861 11.4599C7.28646 11.4599 7.32301 11.469 7.32981 11.4799C7.33661 11.491 7.37261 11.5 7.40981 11.5C7.44701 11.5 7.48301 11.5089 7.48981 11.5199C7.49661 11.5309 7.53261 11.54 7.56981 11.54C7.60701 11.54 7.64301 11.549 7.64981 11.5599C7.65661 11.5709 7.69261 11.58 7.72981 11.58C7.76701 11.58 7.80301 11.589 7.80981 11.5999C7.81661 11.611 7.85261 11.6199 7.88981 11.6199C7.92701 11.6199 7.96301 11.629 7.96981 11.6399C7.97661 11.651 8.01136 11.66 8.04701 11.66C8.08266 11.66 8.12221 11.6704 8.13496 11.6831C8.19211 11.7402 8.22151 11.6632 8.21551 11.4719L8.20981 11.29L8.04981 11.2094C7.06721 10.7142 6.26181 9.8448 5.90121 8.88995C5.87631 8.82395 5.84811 8.75195 5.83856 8.72995C5.82081 8.68905 5.75501 8.47335 5.71656 8.32995C5.70476 8.28595 5.69211 8.2391 5.68841 8.2258C5.68346 8.2079 5.53036 8.1995 5.09576 8.19325C4.77351 8.1886 4.47606 8.17825 4.43481 8.1702L4.35981 8.15555V8.96775ZM14.3119 8.2221C14.3071 8.2374 14.2831 8.33095 14.2587 8.42995C14.2344 8.52895 14.2082 8.61895 14.2007 8.62995C14.1932 8.64095 14.1748 8.69045 14.1599 8.73995C14.1451 8.78945 14.1254 8.8385 14.1163 8.84895C14.1073 8.8594 14.0998 8.88075 14.0998 8.8964C14.0998 8.92875 13.9105 9.324 13.8587 9.39995C13.8399 9.42745 13.8053 9.48425 13.7818 9.52625C13.7583 9.5682 13.7239 9.62565 13.7054 9.65395C13.6719 9.705 13.672 9.70515 13.7157 9.67785C13.74 9.6627 13.7598 9.6345 13.7598 9.61515C13.7598 9.5958 13.7673 9.57995 13.7764 9.57995C13.7856 9.57995 13.8058 9.5552 13.8214 9.52495C13.837 9.4947 13.8545 9.46545 13.8604 9.45995C13.8873 9.4345 14.1201 8.9459 14.1199 8.91495C14.1199 8.8957 14.1272 8.87995 14.1362 8.87995C14.1452 8.87995 14.165 8.8344 14.1802 8.7787C14.1953 8.723 14.215 8.67295 14.2238 8.6675C14.2326 8.66205 14.2398 8.63615 14.2398 8.60995C14.2398 8.58375 14.2478 8.55735 14.2576 8.5513C14.2674 8.54525 14.2802 8.511 14.2861 8.47515C14.292 8.4393 14.3065 8.3657 14.3183 8.31165C14.3379 8.22225 14.3331 8.1553 14.3119 8.2221ZM15.3689 9.6299C15.3595 9.65185 15.3513 9.71935 15.3508 9.7799C15.3502 9.8425 15.3384 9.90195 15.3234 9.91785C15.3082 9.93385 15.302 9.9657 15.3088 9.99285C15.3153 10.0188 15.3124 10.04 15.3024 10.04C15.2924 10.04 15.2723 10.0805 15.2577 10.13C15.2431 10.1795 15.2241 10.2199 15.2155 10.2199C15.2069 10.2199 15.1998 10.2379 15.1998 10.2599C15.1998 10.2819 15.1923 10.2999 15.1832 10.2999C15.1741 10.2999 15.1538 10.3247 15.1382 10.3549C15.095 10.4387 14.9454 10.5997 14.7907 10.7289C14.7169 10.7906 14.422 10.9403 14.3748 10.9401C14.3556 10.94 14.3398 10.9489 14.3398 10.9599C14.3398 10.971 14.3134 10.9799 14.281 10.9799C14.2487 10.9799 14.2166 10.9889 14.2098 10.9999C14.203 11.011 14.1665 11.0199 14.1286 11.0199C14.0908 11.0199 14.0598 11.0289 14.0598 11.04C14.0598 11.051 14.0238 11.0599 13.9798 11.0599C13.9346 11.0599 13.8998 11.0696 13.8998 11.0821C13.8998 11.0956 13.8808 11.0995 13.8513 11.0921C13.8205 11.0844 13.7915 11.0912 13.7721 11.1105C13.7529 11.1298 13.7237 11.1366 13.6935 11.1291C13.6624 11.1212 13.6339 11.1287 13.6122 11.1504C13.5938 11.1688 13.5655 11.1788 13.5493 11.1725C13.515 11.1594 13.4598 11.1768 13.4598 11.2008C13.4598 11.2337 13.5349 11.2399 13.6115 11.2133C13.6546 11.1982 13.7003 11.1895 13.713 11.194C13.7257 11.1985 13.742 11.1926 13.7492 11.181C13.7563 11.1694 13.7926 11.16 13.8298 11.16C13.867 11.16 13.903 11.151 13.9098 11.1399C13.9166 11.129 13.9437 11.1199 13.9701 11.1199C13.9964 11.1199 14.0386 11.1119 14.0639 11.1021C14.1414 11.0718 14.2675 11.0377 14.3134 11.0346C14.3374 11.033 14.3526 11.0245 14.3473 11.0158C14.3419 11.0071 14.3645 10.9999 14.3975 10.9999C14.4305 10.9999 14.463 10.991 14.4698 10.9799C14.4766 10.969 14.498 10.9599 14.5172 10.9599C14.5365 10.9599 14.5697 10.9439 14.5911 10.9243C14.6124 10.9047 14.6636 10.8727 14.7049 10.8533C14.7462 10.8339 14.802 10.7959 14.829 10.769C14.8559 10.742 14.8924 10.7199 14.9101 10.7199C14.9277 10.7199 14.9366 10.7109 14.9298 10.7C14.923 10.6889 14.93 10.6799 14.9453 10.6799C14.9606 10.6799 14.9849 10.6578 14.9995 10.6306C15.014 10.6035 15.0321 10.5852 15.0398 10.5899C15.0475 10.5947 15.0663 10.5742 15.0817 10.5442C15.097 10.5144 15.1254 10.4754 15.1447 10.4576C15.164 10.4398 15.1798 10.4115 15.1798 10.3947C15.1798 10.3779 15.1926 10.3593 15.2083 10.3533C15.2374 10.3421 15.2937 10.2298 15.3504 10.0699C15.4013 9.9262 15.4187 9.51385 15.3689 9.6299ZM12.9301 10.5536C12.6824 10.781 12.3559 11.0022 11.9898 11.1908L11.7898 11.2938V11.4719V11.65L11.8675 11.6563C11.9102 11.6598 11.9547 11.653 11.9665 11.6413C11.9782 11.6295 12.0175 11.6199 12.0538 11.6199C12.0901 11.6199 12.1198 11.611 12.1198 11.5999C12.1198 11.589 12.1508 11.58 12.1886 11.58C12.2265 11.58 12.263 11.5709 12.2698 11.5599C12.2766 11.549 12.3087 11.54 12.341 11.54C12.3734 11.54 12.3998 11.5309 12.3998 11.5199C12.3998 11.5089 12.4308 11.5 12.4686 11.5C12.5065 11.5 12.543 11.491 12.5498 11.4799C12.5566 11.469 12.5988 11.4599 12.6435 11.4599C12.7134 11.4599 12.7213 11.4558 12.6998 11.43C12.6717 11.3961 12.5886 11.3896 12.5698 11.4199C12.563 11.431 12.5265 11.4399 12.4886 11.4399C12.4508 11.4399 12.4198 11.4489 12.4198 11.4599C12.4198 11.471 12.388 11.4799 12.3492 11.4799C12.3098 11.4799 12.2742 11.4914 12.2686 11.5058C12.2622 11.5225 12.234 11.5289 12.1895 11.5237C12.1426 11.5183 12.1167 11.5247 12.1095 11.5437C12.1022 11.5627 12.0763 11.5691 12.0293 11.5637C11.985 11.5585 11.9598 11.564 11.9598 11.5789C11.9598 11.5938 11.9323 11.6001 11.8848 11.5961L11.8098 11.59V11.453V11.3161L11.8954 11.268C11.9424 11.2415 11.9942 11.2199 12.0104 11.2199C12.0266 11.2199 12.0398 11.2109 12.0398 11.2C12.0398 11.1889 12.0578 11.18 12.0798 11.18C12.1018 11.18 12.1198 11.172 12.1198 11.1623C12.1198 11.1525 12.1356 11.1395 12.1548 11.1332C12.1741 11.1268 12.2258 11.099 12.2698 11.0713C12.3138 11.0436 12.3768 11.0062 12.4098 10.9881C12.464 10.9585 12.6752 10.8061 12.6998 10.779C12.7053 10.773 12.7413 10.746 12.7798 10.7192C12.8571 10.6653 13.0676 10.4609 13.0567 10.4504C13.0529 10.4467 12.996 10.4932 12.9301 10.5536ZM13.3147 11.2279C13.2981 11.2445 13.2794 11.2529 13.2731 11.2466C13.2558 11.2293 13.1598 11.2578 13.1598 11.2803C13.1598 11.3062 13.2939 11.3058 13.3098 11.28C13.3166 11.269 13.3539 11.2599 13.3927 11.2599C13.4401 11.2599 13.4605 11.2517 13.4549 11.235C13.4428 11.1979 13.3494 11.1933 13.3147 11.2279ZM13.0162 11.3069C13.0023 11.3218 12.9759 11.33 12.9575 11.3251C12.939 11.3203 12.9027 11.3278 12.8769 11.3417C12.851 11.3556 12.8036 11.3677 12.7716 11.3685C12.6764 11.3709 12.6827 11.4199 12.7782 11.4199C12.8231 11.4199 12.8598 11.4109 12.8598 11.4C12.8598 11.389 12.8958 11.38 12.9398 11.38C12.9838 11.38 13.0198 11.3709 13.0198 11.36C13.0198 11.3489 13.0575 11.34 13.1036 11.34C13.1816 11.34 13.1848 11.3379 13.1486 11.3106C13.0997 11.2736 13.0487 11.2722 13.0162 11.3069ZM5.03981 16.793C4.86601 16.8503 4.85981 16.8749 4.85981 17.5086C4.85981 18.0857 4.86836 18.1417 4.96636 18.2059C5.01396 18.2371 5.12206 18.24 6.22846 18.24H7.43846L7.50916 18.1693L7.57981 18.0986V17.5108V16.9231L7.52101 16.8643C7.48866 16.8319 7.43356 16.7997 7.39851 16.7927C7.32466 16.7779 5.08466 16.7782 5.03981 16.793Z" fill="#FA9528"/>
<path fill-rule="evenodd" clip-rule="evenodd" d="M9.27019 0.0197C9.24819 0.0293 9.16719 0.03895 9.0902 0.0411C8.96415 0.0446 8.9582 0.0465 9.0302 0.06015C9.0742 0.0685 9.15519 0.08605 9.21019 0.09915C9.26519 0.1123 9.33954 0.12785 9.37539 0.1337C9.41124 0.1396 9.44549 0.15245 9.45154 0.1622C9.45759 0.172 9.48229 0.18015 9.50639 0.1803C9.55424 0.18065 9.69119 0.22435 9.71315 0.2463C9.72069 0.25385 9.74349 0.26 9.76379 0.26C9.78409 0.26 9.82084 0.2704 9.84544 0.2831C9.94174 0.3329 9.96104 0.34 9.99994 0.34C10.0221 0.34 10.0402 0.349 10.0402 0.36C10.0402 0.371 10.0519 0.38 10.0662 0.38C10.0806 0.38 10.1368 0.4016 10.1912 0.428C10.2457 0.45435 10.3262 0.4922 10.3702 0.51205C10.5409 0.58915 11.0727 0.9216 11.1679 1.0108C11.1802 1.02225 11.2107 1.0458 11.2358 1.06315C11.4349 1.2006 11.9532 1.71975 12.0995 1.92825C12.1156 1.9512 12.1448 1.98745 12.1645 2.00875C12.1841 2.0301 12.2002 2.05935 12.2002 2.07375C12.2002 2.0882 12.2071 2.1 12.2155 2.1C12.2239 2.1 12.253 2.136 12.2802 2.18C12.3074 2.224 12.3365 2.26 12.3449 2.26C12.3533 2.26 12.3602 2.2687 12.3602 2.27935C12.3602 2.28995 12.3968 2.3552 12.4416 2.42435C12.5141 2.5362 12.7181 2.93645 12.7631 3.055C12.7725 3.07975 12.7904 3.12475 12.8029 3.155C12.8153 3.18525 12.8344 3.2325 12.8452 3.26C12.856 3.2875 12.8728 3.32565 12.8825 3.34475C12.8922 3.36385 12.9002 3.39705 12.9002 3.41855C12.9002 3.44005 12.9092 3.4632 12.9202 3.47C12.9312 3.4768 12.9402 3.5083 12.9402 3.54C12.9402 3.5717 12.9492 3.6032 12.9602 3.61C12.9712 3.6168 12.9802 3.6438 12.9802 3.67C12.9802 3.6962 12.9882 3.7226 12.9981 3.7287C13.0079 3.73475 13.0211 3.77355 13.0273 3.81485C13.0335 3.8562 13.044 3.926 13.0506 3.97C13.0573 4.014 13.0706 4.068 13.0804 4.09C13.0985 4.131 13.1104 4.2151 13.1357 4.48265C13.1555 4.6919 13.4161 5.03895 13.7234 5.2654C13.7637 5.2951 13.8091 5.3308 13.8242 5.3447C13.85 5.3684 13.8721 5.38215 13.9852 5.445C14.0099 5.45875 14.0347 5.4745 14.0402 5.48C14.0579 5.4977 14.1468 5.54655 14.2827 5.6132C14.3556 5.64895 14.4205 5.6921 14.4271 5.7091C14.4336 5.7261 14.4528 5.74 14.4698 5.74C14.4868 5.74 14.5163 5.74795 14.5354 5.75765C14.6159 5.7986 14.7275 5.8382 14.8802 5.88C14.9297 5.89355 14.9927 5.91185 15.0202 5.9207C15.083 5.94095 15.2286 5.96345 15.3202 5.96715L15.3902 5.97L15.4025 5.73C15.4092 5.598 15.4141 5.265 15.4134 4.99C15.4124 4.62435 15.4091 4.5572 15.4011 4.74C15.388 5.0396 15.3596 5.03025 15.345 4.7215C15.3382 4.578 15.3426 4.4929 15.3582 4.46365C15.3775 4.4277 15.3762 4.42 15.3513 4.42C15.3145 4.42 15.2924 4.34215 15.3049 4.25675C15.31 4.22225 15.301 4.1678 15.2851 4.13575C15.2691 4.1037 15.2596 4.05265 15.2641 4.02225C15.2686 3.9918 15.2601 3.95575 15.2453 3.94185C15.2297 3.9273 15.2221 3.8925 15.2273 3.85935C15.2323 3.82785 15.2268 3.79885 15.2151 3.795C15.2034 3.7911 15.1947 3.7591 15.1957 3.72395C15.1967 3.6888 15.1908 3.66 15.1826 3.66C15.1744 3.66 15.1563 3.61275 15.1422 3.555C15.1282 3.49725 15.0995 3.41185 15.0784 3.3652C15.0574 3.3186 15.0402 3.26235 15.0402 3.2402C15.0402 3.2181 15.0312 3.2 15.0202 3.2C15.0092 3.2 15.0002 3.18425 15.0003 3.165C15.0004 3.1262 14.7198 2.5539 14.6955 2.54335C14.6871 2.53965 14.6802 2.52855 14.6802 2.5186C14.6802 2.50155 14.4703 2.1802 14.3742 2.05C14.168 1.7708 13.9916 1.57785 13.6882 1.3C13.5304 1.1555 13.5013 1.13125 13.4002 1.06035C13.3617 1.0334 13.3186 1.0001 13.3044 0.98635C13.2903 0.97265 13.252 0.94565 13.2194 0.9264C13.1868 0.90715 13.1602 0.8843 13.1602 0.8757C13.1602 0.86705 13.1515 0.86 13.1408 0.86C13.1302 0.86 13.065 0.8233 12.9958 0.77845C12.8509 0.6844 12.2884 0.4 12.2473 0.4C12.2321 0.4 12.204 0.39205 12.1849 0.38235C12.1658 0.3726 12.1232 0.35355 12.0902 0.34C12.0572 0.32645 12.0145 0.3074 11.9954 0.29765C11.9763 0.28795 11.9426 0.28 11.9204 0.28C11.8983 0.28 11.8802 0.271 11.8802 0.26C11.8802 0.249 11.8537 0.24 11.8214 0.24C11.789 0.24 11.757 0.231 11.7502 0.22C11.7434 0.209 11.7074 0.2 11.6702 0.2C11.633 0.2 11.597 0.191 11.5902 0.18C11.5834 0.169 11.5459 0.16 11.5068 0.16C11.4411 0.16 11.4368 0.1563 11.4484 0.11C11.4556 0.08115 11.4523 0.06 11.4406 0.06C11.4293 0.06 11.4224 0.07125 11.4252 0.085C11.4285 0.10155 11.3981 0.11205 11.3352 0.1161C11.2807 0.1196 11.2402 0.1136 11.2402 0.10205C11.2402 0.09095 11.1839 0.07925 11.1152 0.07595C11.0104 0.07095 10.9906 0.06435 10.993 0.035C10.9945 0.01575 10.9877 0 10.978 0C10.9682 0 10.9602 0.0095 10.9602 0.02115C10.9602 0.0355 10.8785 0.0385 10.7052 0.03045C10.2401 0.0089 9.31084 0.0019 9.27019 0.0197ZM14.3298 8.275C14.3231 8.31625 14.3092 8.37065 14.2989 8.39595C14.2886 8.4212 14.2802 8.46345 14.2802 8.48975C14.2802 8.5161 14.2712 8.5432 14.2602 8.55C14.2492 8.5568 14.2402 8.5838 14.2402 8.61C14.2402 8.6362 14.233 8.6621 14.2241 8.66755C14.2153 8.673 14.1957 8.72305 14.1805 8.77875C14.1654 8.83445 14.1456 8.88 14.1366 8.88C14.1275 8.88 14.1202 8.89575 14.1203 8.915C14.1204 8.94595 13.8877 9.43455 13.8607 9.46C13.8549 9.4655 13.8374 9.49475 13.8218 9.525C13.8062 9.55525 13.7859 9.58 13.7768 9.58C13.7677 9.58 13.7602 9.5943 13.7602 9.6118C13.7602 9.6293 13.7399 9.66155 13.7152 9.68345C13.6741 9.71985 13.6737 9.7222 13.7102 9.71025C13.7322 9.7031 13.7772 9.6922 13.8102 9.6861C14.2786 9.59925 14.5402 9.1896 14.5402 8.54285V8.2H14.4411C14.3421 8.2 14.342 8.20005 14.3298 8.275ZM15.1602 8.43065C15.1602 9.6557 14.7099 10.1583 13.4202 10.3726L13.0902 10.4274L12.9702 10.5493C12.9042 10.6164 12.8187 10.6931 12.7802 10.7197C12.7417 10.7463 12.7057 10.7731 12.7002 10.7791C12.6756 10.8062 12.4643 10.9585 12.4102 10.9882C12.3772 11.0063 12.3142 11.0437 12.2702 11.0714C12.2262 11.0991 12.1744 11.1269 12.1552 11.1332C12.1359 11.1395 12.1202 11.1526 12.1202 11.1623C12.1202 11.172 12.1022 11.18 12.0802 11.18C12.0582 11.18 12.0402 11.189 12.0402 11.2C12.0402 11.211 12.0269 11.22 12.0107 11.22C11.9945 11.22 11.9428 11.2416 11.8957 11.2681L11.8102 11.3161V11.4531V11.59L11.8852 11.5962C11.9326 11.6002 11.9602 11.5938 11.9602 11.579C11.9602 11.5641 11.9853 11.5585 12.0296 11.5638C12.0766 11.5692 12.1025 11.5628 12.1098 11.5437C12.1171 11.5247 12.143 11.5183 12.1898 11.5238C12.2343 11.529 12.2626 11.5226 12.269 11.5059C12.2745 11.4915 12.3102 11.48 12.3495 11.48C12.3884 11.48 12.4202 11.471 12.4202 11.46C12.4202 11.449 12.4511 11.44 12.489 11.44C12.5268 11.44 12.5634 11.431 12.5702 11.42C12.5868 11.3932 12.6667 11.3945 12.6943 11.4221C12.7105 11.4383 12.7156 11.4343 12.7133 11.4072C12.7109 11.3788 12.7244 11.3696 12.7702 11.3686C12.8032 11.3678 12.8513 11.3557 12.8772 11.3418C12.9031 11.3278 12.9394 11.3203 12.9578 11.3252C12.9763 11.33 13.0027 11.3218 13.0166 11.307C13.0461 11.2754 13.1124 11.2713 13.1302 11.3C13.1494 11.3311 13.1803 11.3236 13.1677 11.2909C13.1564 11.2614 13.2494 11.2226 13.2735 11.2466C13.2798 11.2529 13.298 11.245 13.314 11.229C13.3472 11.1958 13.4318 11.1902 13.4502 11.22C13.457 11.231 13.4733 11.2399 13.4864 11.2397C13.5007 11.2395 13.4983 11.2316 13.4802 11.2197C13.4404 11.1936 13.4923 11.1554 13.5452 11.1718C13.5645 11.1778 13.5951 11.168 13.6131 11.1499C13.6343 11.1287 13.6629 11.1213 13.6939 11.1291C13.724 11.1367 13.7532 11.1298 13.7725 11.1105C13.7918 11.0912 13.8209 11.0845 13.8516 11.0922C13.8812 11.0996 13.9002 11.0957 13.9002 11.0822C13.9002 11.0697 13.935 11.06 13.9802 11.06C14.0242 11.06 14.0602 11.051 14.0602 11.04C14.0602 11.029 14.0911 11.02 14.129 11.02C14.1668 11.02 14.2034 11.011 14.2102 11C14.217 10.989 14.249 10.98 14.2814 10.98C14.3137 10.98 14.3402 10.971 14.3402 10.96C14.3402 10.949 14.3559 10.9401 14.3752 10.9402C14.4223 10.9404 14.7173 10.7906 14.791 10.729C14.9457 10.5998 15.0953 10.4388 15.1386 10.355C15.1542 10.3248 15.1744 10.3 15.1836 10.3C15.1927 10.3 15.2002 10.282 15.2002 10.26C15.2002 10.238 15.2072 10.22 15.2158 10.22C15.2244 10.22 15.2434 10.1795 15.258 10.13C15.2726 10.0805 15.2928 10.04 15.3028 10.04C15.3128 10.04 15.3156 10.0188 15.3091 9.9929C15.3023 9.96575 15.3085 9.9339 15.3237 9.9179C15.3388 9.902 15.3506 9.84255 15.3511 9.77995C15.3527 9.60325 15.3862 9.5631 15.4011 9.72C15.4079 9.7915 15.4128 9.481 15.4118 9.03L15.4102 8.21L15.2852 8.20405L15.1602 8.1981V8.43065ZM11.6702 9.78015C11.6262 9.7889 11.5227 9.8069 11.4402 9.82015C11.2604 9.8491 11.1413 9.8853 11.2802 9.8688C11.3297 9.86295 11.4152 9.84755 11.4702 9.8346C11.7564 9.76725 11.9585 9.8015 12.1802 9.9549C12.2281 9.98805 12.229 9.988 12.2018 9.9536C12.1579 9.8982 12.012 9.8195 11.8955 9.7885C11.7793 9.75755 11.7833 9.7577 11.6702 9.78015ZM11.0002 9.9C10.93 9.9225 11.0033 9.92325 11.1102 9.90115L11.1902 9.8846L11.1202 9.8843C11.0817 9.88415 11.0277 9.8912 11.0002 9.9ZM10.7602 9.94C10.69 9.9625 10.7633 9.96325 10.8702 9.94115L10.9502 9.9246L10.8802 9.9243C10.8417 9.92415 10.7877 9.9312 10.7602 9.94ZM10.6002 9.98C10.5604 10.0057 10.6104 10.0057 10.6702 9.98L10.7102 9.9628L10.6702 9.9617C10.6482 9.9611 10.6167 9.96935 10.6002 9.98ZM10.4052 10.0917C10.3385 10.1442 10.2268 10.3133 10.246 10.3326C10.2519 10.3384 10.2723 10.3104 10.2914 10.2704C10.3104 10.2302 10.3621 10.162 10.4063 10.1187C10.4987 10.028 10.4983 10.0183 10.4052 10.0917ZM10.2127 10.4225C10.1966 10.5027 10.1989 10.5996 10.2179 10.648C10.2264 10.6698 10.2332 10.6163 10.2338 10.523C10.235 10.3448 10.2315 10.3282 10.2127 10.4225ZM12.2491 10.675C12.1206 10.8734 11.9585 10.9241 10.9502 11.0813C10.647 11.1286 10.3896 11.0107 10.2867 10.7776C10.2446 10.6823 10.2269 10.6895 10.2671 10.7857C10.2986 10.8611 10.4324 11.02 10.4644 11.02C10.4752 11.02 10.5119 11.0399 10.546 11.0642C10.6175 11.1151 10.9325 11.1274 11.1002 11.0858C11.1497 11.0736 11.2532 11.0535 11.3302 11.0412C11.4657 11.0195 11.5233 11.0093 11.8002 10.9576C11.9717 10.9256 12.0952 10.8719 12.1769 10.7937C12.2363 10.737 12.3144 10.62 12.293 10.62C12.2885 10.62 12.2687 10.6448 12.2491 10.675ZM12.3902 12.58C12.397 12.591 12.4385 12.6 12.4825 12.6C12.5308 12.6 12.5576 12.5921 12.5502 12.58C12.5434 12.569 12.5018 12.56 12.4578 12.56C12.4096 12.56 12.3827 12.568 12.3902 12.58ZM7.76145 12.6721C7.76065 12.6987 7.80264 12.7535 7.8752 12.8206C7.93845 12.8791 8.07119 13.004 8.17019 13.098C8.26919 13.1919 8.43124 13.3456 8.53024 13.4394C8.62929 13.5332 8.87679 13.7678 9.08024 13.9607C9.28374 14.1535 9.50869 14.3643 9.5802 14.4292C9.7404 14.5746 9.38419 14.2201 9.11009 13.9613C8.20194 13.1039 7.7948 12.7091 7.77919 12.6706C7.76295 12.6305 7.7627 12.6305 7.76145 12.6721ZM12.2225 12.6618C12.2203 12.6924 11.7986 13.1037 10.8903 13.9613C10.6162 14.2201 10.26 14.5746 10.4202 14.4292C10.5348 14.3252 10.8443 14.0333 11.4796 13.43C11.5839 13.331 11.7684 13.1544 11.8897 13.0375C12.0109 12.9207 12.1404 12.7987 12.1774 12.7666C12.2238 12.7263 12.2416 12.6961 12.2347 12.6691C12.2279 12.6421 12.2241 12.6398 12.2225 12.6618ZM5.93019 13.04C5.9234 13.051 5.8964 13.06 5.87019 13.06C5.844 13.06 5.81699 13.069 5.81019 13.08C5.80339 13.091 5.77135 13.1 5.739 13.1C5.70665 13.1 5.68019 13.109 5.68019 13.12C5.68019 13.131 5.65319 13.14 5.62019 13.14C5.58719 13.14 5.56019 13.149 5.56019 13.16C5.56019 13.171 5.53375 13.18 5.5014 13.18C5.46905 13.18 5.437 13.189 5.43019 13.2C5.4234 13.211 5.39135 13.22 5.35899 13.22C5.32665 13.22 5.3002 13.229 5.3002 13.24C5.3002 13.251 5.2732 13.26 5.2402 13.26C5.2072 13.26 5.1802 13.269 5.1802 13.28C5.1802 13.291 5.1532 13.3 5.1202 13.3C5.0872 13.3 5.06019 13.309 5.06019 13.32C5.06019 13.331 5.0332 13.34 5.0002 13.34C4.9672 13.34 4.9402 13.349 4.9402 13.36C4.9402 13.371 4.9087 13.38 4.8702 13.38C4.8317 13.38 4.8002 13.389 4.8002 13.4C4.8002 13.411 4.7732 13.42 4.7402 13.42C4.7072 13.42 4.6802 13.429 4.6802 13.44C4.6802 13.451 4.6532 13.46 4.6202 13.46C4.5872 13.46 4.56019 13.469 4.56019 13.48C4.56019 13.491 4.5332 13.5 4.5002 13.5C4.4672 13.5 4.4402 13.509 4.4402 13.52C4.4402 13.531 4.4132 13.54 4.3802 13.54C4.3472 13.54 4.3202 13.549 4.3202 13.56C4.3202 13.571 4.28925 13.58 4.2514 13.58C4.21355 13.58 4.177 13.589 4.1702 13.6C4.1634 13.611 4.13135 13.62 4.09899 13.62C4.06665 13.62 4.0402 13.629 4.0402 13.64C4.0402 13.651 4.0132 13.66 3.9802 13.66C3.9472 13.66 3.9202 13.669 3.9202 13.68C3.9202 13.691 3.89825 13.7 3.8714 13.7C3.84455 13.7 3.81699 13.709 3.81019 13.72C3.8034 13.731 3.7814 13.74 3.7613 13.74C3.71735 13.74 3.5143 13.8028 3.5002 13.8208C3.4947 13.8278 3.44745 13.8459 3.3952 13.8611C3.34295 13.8763 3.30015 13.8935 3.30015 13.8994C3.3001 13.9052 3.2506 13.9325 3.1902 13.96C3.1298 13.9875 3.0803 14.0168 3.08025 14.025C3.08025 14.0332 3.0667 14.04 3.0502 14.04C3.0337 14.04 3.0202 14.0468 3.0202 14.0551C3.0202 14.0634 2.9949 14.0815 2.96395 14.0952C2.933 14.1088 2.8884 14.138 2.8648 14.16C2.8412 14.182 2.8116 14.2 2.79905 14.2C2.7865 14.2 2.75105 14.227 2.7202 14.26C2.68935 14.293 2.65375 14.32 2.64105 14.32C2.62835 14.32 2.565 14.374 2.5002 14.44C2.4354 14.506 2.37365 14.56 2.3629 14.56C2.3522 14.56 2.29095 14.6195 2.2268 14.6921C2.16265 14.7647 2.08095 14.8544 2.0452 14.8914C2.00945 14.9284 1.9802 14.9689 1.9802 14.9813C1.9802 14.9938 1.9532 15.0292 1.9202 15.06C1.8872 15.0909 1.8602 15.1285 1.8602 15.1436C1.8602 15.1588 1.8422 15.1842 1.8202 15.2C1.7982 15.2158 1.7802 15.2449 1.7802 15.2644C1.7802 15.284 1.7712 15.3 1.7602 15.3C1.7492 15.3 1.7402 15.3118 1.7402 15.3263C1.7402 15.3406 1.72395 15.3699 1.7041 15.3913C1.6842 15.4126 1.65505 15.4592 1.6392 15.495C1.6234 15.5308 1.60365 15.56 1.5953 15.56C1.587 15.56 1.5802 15.578 1.5802 15.6C1.5802 15.622 1.5712 15.64 1.5602 15.64C1.5492 15.64 1.5402 15.658 1.5402 15.68C1.5402 15.702 1.5312 15.72 1.5202 15.72C1.5092 15.72 1.5002 15.7374 1.5002 15.7588C1.5002 15.7802 1.4912 15.8032 1.4802 15.81C1.4692 15.8168 1.4602 15.8444 1.4602 15.8712C1.4602 15.8981 1.4512 15.92 1.4402 15.92C1.4292 15.92 1.4202 15.942 1.4202 15.9688C1.4202 15.9957 1.4112 16.0232 1.4002 16.03C1.3892 16.0368 1.3802 16.0688 1.3802 16.1012C1.3802 16.1335 1.3712 16.16 1.3602 16.16C1.3492 16.16 1.3402 16.187 1.3402 16.22C1.3402 16.253 1.33235 16.28 1.3228 16.28C1.31325 16.28 1.3 16.3182 1.29345 16.365C1.2869 16.4117 1.2726 16.4905 1.2617 16.54C1.25085 16.5895 1.24155 16.6908 1.24105 16.765C1.2406 16.8411 1.23145 16.9 1.2202 16.9C1.20705 16.9 1.2002 17.3933 1.2002 18.34C1.2002 19.2866 1.20705 19.78 1.2202 19.78C1.2312 19.78 1.2402 19.7931 1.2402 19.809C1.2402 19.8518 1.28375 19.94 1.30485 19.94C1.31485 19.94 1.33655 19.9535 1.35305 19.97C1.37885 19.9958 1.5107 20 2.29165 20H3.2002V18.4463C3.2002 16.9335 3.20125 16.8905 3.2402 16.81C3.34615 16.5912 3.6492 16.5852 3.76315 16.7997C3.7983 16.8658 3.8002 16.9496 3.8002 18.4347V20H9.99984H16.1995L16.2048 18.415L16.2102 16.83L16.2568 16.7647C16.3825 16.5884 16.6378 16.5917 16.7555 16.7712L16.8002 16.8395V18.4197V20H17.7021C18.7311 20 18.7602 19.9948 18.7602 19.809C18.7602 19.7931 18.7692 19.78 18.7802 19.78C18.7933 19.78 18.8002 19.2866 18.8002 18.34C18.8002 17.3933 18.7933 16.9 18.7802 16.9C18.7686 16.9 18.7602 16.8367 18.7602 16.75C18.7602 16.6675 18.753 16.6 18.7442 16.6C18.7354 16.6 18.7272 16.5662 18.7258 16.525C18.7225 16.4198 18.698 16.292 18.6789 16.2796C18.67 16.2739 18.6594 16.2469 18.6552 16.2197C18.6415 16.1304 18.5717 15.92 18.5557 15.92C18.5472 15.92 18.5402 15.893 18.5402 15.86C18.5402 15.827 18.5312 15.8 18.5202 15.8C18.5092 15.8 18.5002 15.782 18.5002 15.76C18.5002 15.738 18.4912 15.72 18.4802 15.72C18.4692 15.72 18.4602 15.702 18.4602 15.68C18.4602 15.658 18.4512 15.64 18.4402 15.64C18.4292 15.64 18.4202 15.622 18.4202 15.6C18.4202 15.578 18.4112 15.56 18.4002 15.56C18.3892 15.56 18.3802 15.5429 18.3802 15.5222C18.3802 15.5013 18.3661 15.4789 18.3489 15.4723C18.3317 15.4657 18.3232 15.4512 18.3301 15.4402C18.3369 15.4291 18.333 15.42 18.3214 15.42C18.3097 15.42 18.3002 15.4082 18.3002 15.3938C18.3002 15.3794 18.2822 15.3482 18.2602 15.3246C18.2382 15.301 18.2202 15.2698 18.2202 15.2553C18.2202 15.2407 18.2022 15.2158 18.1802 15.2C18.1582 15.1842 18.1402 15.1588 18.1402 15.1436C18.1402 15.1285 18.1132 15.0909 18.0802 15.06C18.0472 15.0292 18.02 14.9963 18.0197 14.987C18.0195 14.9776 17.9902 14.9369 17.9547 14.8963C17.9192 14.8559 17.8767 14.8053 17.8602 14.7839C17.7829 14.6839 17.6616 14.56 17.6409 14.56C17.6283 14.56 17.565 14.506 17.5002 14.44C17.4354 14.374 17.372 14.32 17.3593 14.32C17.3466 14.32 17.311 14.293 17.2802 14.26C17.2493 14.227 17.213 14.2 17.1995 14.2C17.186 14.2 17.1603 14.1842 17.1425 14.1649C17.1247 14.1455 17.0832 14.1163 17.0502 14.0999C17.0172 14.0835 16.9777 14.0582 16.9625 14.0438C16.9474 14.0294 16.9001 14.0025 16.8575 13.9841C16.815 13.9657 16.7802 13.9437 16.7802 13.9353C16.7802 13.9269 16.7622 13.92 16.7402 13.92C16.7182 13.92 16.7002 13.911 16.7002 13.9C16.7002 13.889 16.6827 13.88 16.6614 13.88C16.64 13.88 16.617 13.871 16.6102 13.86C16.6034 13.849 16.5758 13.84 16.549 13.84C16.5221 13.84 16.5002 13.833 16.5002 13.8245C16.5002 13.8073 16.2883 13.74 16.2342 13.74C16.2155 13.74 16.2002 13.731 16.2002 13.72C16.2002 13.709 16.1732 13.7 16.1402 13.7C16.1072 13.7 16.0802 13.691 16.0802 13.68C16.0802 13.669 16.0532 13.66 16.0202 13.66C15.9872 13.66 15.9602 13.651 15.9602 13.64C15.9602 13.629 15.9332 13.62 15.9002 13.62C15.8672 13.62 15.8402 13.611 15.8402 13.6C15.8402 13.589 15.8042 13.58 15.7602 13.58C15.7162 13.58 15.6802 13.571 15.6802 13.56C15.6802 13.549 15.6532 13.54 15.6202 13.54C15.5872 13.54 15.5602 13.531 15.5602 13.52C15.5602 13.509 15.5332 13.5 15.5002 13.5C15.4672 13.5 15.4402 13.491 15.4402 13.48C15.4402 13.469 15.4182 13.46 15.3914 13.46C15.3645 13.46 15.337 13.451 15.3302 13.44C15.3234 13.429 15.2964 13.42 15.2702 13.42C15.244 13.42 15.217 13.411 15.2102 13.4C15.2034 13.389 15.1668 13.38 15.129 13.38C15.0911 13.38 15.0602 13.371 15.0602 13.36C15.0602 13.349 15.0332 13.34 15.0002 13.34C14.9672 13.34 14.9402 13.331 14.9402 13.32C14.9402 13.309 14.9132 13.3 14.8802 13.3C14.8472 13.3 14.8202 13.291 14.8202 13.28C14.8202 13.269 14.7932 13.26 14.7602 13.26C14.7272 13.26 14.7002 13.251 14.7002 13.24C14.7002 13.229 14.6737 13.22 14.6414 13.22C14.609 13.22 14.577 13.211 14.5702 13.2C14.5634 13.189 14.5313 13.18 14.499 13.18C14.4666 13.18 14.4402 13.171 14.4402 13.16C14.4402 13.149 14.4132 13.14 14.3802 13.14C14.3472 13.14 14.3202 13.131 14.3202 13.12C14.3202 13.109 14.2932 13.1 14.2602 13.1C14.2272 13.1 14.2002 13.091 14.2002 13.08C14.2002 13.069 14.1687 13.06 14.1302 13.06C14.0917 13.06 14.0602 13.051 14.0602 13.04C14.0602 13.029 14.052 13.02 14.042 13.02C14.0321 13.02 14.0283 13.0369 14.0337 13.0574C14.0423 13.0902 14.0001 13.1531 13.8902 13.2715C13.8792 13.2833 13.8162 13.355 13.7502 13.4307C13.6842 13.5064 13.602 13.5958 13.5676 13.6292C13.5332 13.6627 13.4612 13.7399 13.4076 13.8008C13.354 13.8618 13.255 13.9743 13.1877 14.0508C13.1203 14.1274 13.0258 14.2358 12.9777 14.2918C12.6155 14.7132 12.3255 15.0272 12.2451 15.0849C11.9141 15.323 11.569 15.3552 11.1002 15.1921C10.9517 15.1404 10.6524 15.0387 10.4352 14.9658C9.9858 14.8152 10.0005 14.8309 10.1622 14.6765C10.2293 14.6124 10.2768 14.56 10.2678 14.56C10.2587 14.56 10.1948 14.616 10.1257 14.6844L10.0002 14.8089L9.87464 14.6844C9.80559 14.616 9.74169 14.56 9.73259 14.56C9.72354 14.56 9.77104 14.6124 9.83815 14.6765C9.99984 14.8309 10.0146 14.8152 9.5652 14.966C9.34795 15.0388 9.0217 15.149 8.8402 15.2109C8.09204 15.4657 7.97964 15.4088 7.02305 14.2918C6.97509 14.2358 6.90744 14.1585 6.87275 14.12C6.48049 13.6848 5.97694 13.0901 5.97465 13.0592C5.97145 13.017 5.95014 13.0077 5.93019 13.04ZM7.39889 16.7928C7.43394 16.7998 7.48904 16.832 7.52139 16.8643L7.5802 16.9231V17.5109V18.0986L7.50954 18.1693L7.43884 18.24H6.22885C5.12244 18.24 5.01435 18.2371 4.96675 18.2059C4.86875 18.1417 4.86019 18.0858 4.86019 17.5086C4.86019 16.8749 4.8664 16.8503 5.0402 16.7931C5.08505 16.7782 7.32505 16.778 7.39889 16.7928Z" fill="#F94C45"/>
<path fill-rule="evenodd" clip-rule="evenodd" d="M12.7594 4.12794C12.6992 4.18529 12.2399 4.49779 11.9501 4.67849C11.5754 4.91209 11.5775 4.91084 11.4914 4.95959C11.4521 4.98184 11.3863 5.01949 11.3451 5.04329C10.8953 5.30299 10.2648 5.60724 9.79007 5.79364C9.63607 5.85414 9.49207 5.91154 9.47007 5.92129C9.27182 6.00894 8.40272 6.25414 8.05007 6.32194C7.22503 6.48054 6.25793 6.49939 5.64508 6.36884L5.58008 6.35499L5.58068 6.92249C5.58113 7.31129 5.59098 7.56554 5.61198 7.72999C5.62888 7.86199 5.64723 8.01499 5.65278 8.06999C5.65833 8.12499 5.67018 8.18799 5.67918 8.20999C5.68818 8.23199 5.70513 8.28599 5.71688 8.32999C5.75473 8.47154 5.82093 8.68884 5.83883 8.72999C5.84838 8.75199 5.87658 8.82399 5.90148 8.88999C6.26208 9.84484 7.06748 10.7142 8.05007 11.2094L8.21007 11.29L8.21587 11.4682C8.21932 11.573 8.21317 11.6549 8.20087 11.6672C8.18892 11.6791 8.18007 11.784 8.18007 11.914C8.18007 12.0513 8.17222 12.14 8.16007 12.14C8.14907 12.14 8.14007 12.1571 8.14007 12.1781C8.14007 12.2231 8.06682 12.3689 8.01007 12.4369C7.91432 12.5517 7.86197 12.6 7.83337 12.6C7.69407 12.6 7.78362 12.7084 8.41137 13.3C8.49892 13.3825 8.66977 13.5445 8.79107 13.66C9.56352 14.3955 9.98557 14.79 10.0001 14.79C10.0146 14.79 10.4366 14.3955 11.2091 13.66C11.3304 13.5445 11.4972 13.3858 11.5798 13.3074C12.1656 12.7514 12.2255 12.6884 12.2113 12.6438C12.2036 12.6197 12.1836 12.6 12.1668 12.6C12.1382 12.6 12.0858 12.5517 11.9901 12.4369C11.9333 12.3689 11.8601 12.2231 11.8601 12.1781C11.8601 12.1571 11.8511 12.14 11.8401 12.14C11.8279 12.14 11.8201 12.048 11.8201 11.904C11.8201 11.7668 11.8113 11.6592 11.7992 11.6471C11.7871 11.635 11.7808 11.5569 11.7842 11.46L11.7901 11.2937L11.9901 11.1907C12.3905 10.9847 13.0806 10.4938 13.0346 10.4479C13.0245 10.4378 12.3692 10.5519 12.3425 10.5685C12.3299 10.5763 12.3024 10.6158 12.2815 10.6563C12.1988 10.8168 12.0478 10.9113 11.8001 10.9575C11.5232 11.0092 11.4656 11.0195 11.3301 11.0412C11.2531 11.0535 11.1496 11.0736 11.1001 11.0858C10.9324 11.1274 10.6174 11.1151 10.5459 11.0641C10.5118 11.0399 10.4748 11.02 10.4637 11.02C10.4526 11.02 10.4072 10.9788 10.3629 10.9284C10.0943 10.6233 10.1857 10.1704 10.5495 10.0032C10.6284 9.96694 10.7282 9.94434 11.0101 9.89894C11.0871 9.88654 11.1861 9.86884 11.2301 9.85954C11.2741 9.85024 11.3641 9.83349 11.4301 9.82229C11.4961 9.81109 11.6041 9.79259 11.6701 9.78119C11.8404 9.75174 11.9958 9.79459 12.1578 9.91564C12.2237 9.96484 12.2292 9.96554 12.3578 9.94169C12.5281 9.91004 12.6593 9.88689 12.8151 9.86084C13.0222 9.82629 13.185 9.79794 13.2801 9.77989C13.3296 9.77049 13.4383 9.75164 13.5216 9.73804C13.6857 9.71119 13.6679 9.72599 13.785 9.51999C13.8069 9.48149 13.8401 9.42749 13.8589 9.39999C13.9108 9.32404 14.1001 8.92879 14.1001 8.89644C14.1001 8.88079 14.1075 8.85944 14.1166 8.84899C14.1257 8.83854 14.1453 8.78949 14.1602 8.73999C14.1751 8.69049 14.1934 8.64099 14.201 8.62999C14.2085 8.61899 14.2345 8.52899 14.2589 8.42999C14.2832 8.33099 14.3107 8.23199 14.32 8.20999C14.3293 8.18799 14.3432 8.12499 14.3509 8.06999C14.3586 8.01499 14.3739 7.92049 14.3849 7.85999C14.3959 7.79949 14.4087 7.29454 14.4134 6.73794L14.4218 5.72584L14.2459 5.63794C13.6222 5.32619 13.2212 4.91829 12.9256 4.29499C12.832 4.09759 12.8121 4.07759 12.7594 4.12794Z" fill="#F9D7A5"/>
<path fill-rule="evenodd" clip-rule="evenodd" d="M15.3961 5.75754L15.3905 5.96999L15.3205 5.96714C15.2289 5.96344 15.0833 5.94094 15.0205 5.92069C14.993 5.91184 14.93 5.89354 14.8805 5.87999C14.831 5.86644 14.7635 5.84649 14.7305 5.83564C14.6742 5.81714 14.6471 5.80689 14.5355 5.76179C14.4117 5.71179 14.423 5.62084 14.4138 6.73594C14.4088 7.33939 14.3966 7.79859 14.3836 7.86999C14.3717 7.93599 14.3558 8.03724 14.3484 8.09499L14.3349 8.19999H14.4377H14.5405V8.54284C14.5405 9.03244 14.4619 9.25444 14.2104 9.47584C14.0486 9.61829 13.8953 9.67719 13.5255 9.73909C13.3262 9.77244 13.1575 9.80169 13.0605 9.81979C13.011 9.82904 12.903 9.84714 12.8205 9.85999C12.738 9.87284 12.63 9.89109 12.5805 9.90049C12.531 9.90989 12.4295 9.92884 12.3551 9.94254C12.2806 9.95624 12.2221 9.97254 12.2252 9.97874C12.2282 9.98494 12.2567 10.0395 12.2886 10.1C12.34 10.1977 12.3463 10.2294 12.3451 10.3841L12.3438 10.5583L12.3971 10.5489C12.4618 10.5374 12.9999 10.4446 13.4905 10.3602C14.7151 10.1495 15.1605 9.63444 15.1605 8.42874V8.19429L15.3605 8.20804C15.4951 8.21734 15.5605 8.21499 15.5605 8.20089C15.5605 8.18939 15.5855 8.17999 15.6161 8.17999C15.6487 8.17999 15.6835 8.16349 15.7005 8.13999C15.7163 8.11799 15.7415 8.09999 15.7563 8.09999C15.7911 8.09999 15.8405 8.05064 15.8405 8.01584C15.8405 8.00099 15.8585 7.97584 15.8805 7.95999C15.9025 7.94414 15.9205 7.91514 15.9205 7.89559C15.9205 7.87599 15.9295 7.85999 15.9405 7.85999C15.9515 7.85999 15.9605 7.82129 15.9605 7.77399C15.9605 7.72669 15.9697 7.67879 15.9809 7.66754C16.0269 7.62154 15.9856 5.91999 15.9385 5.91999C15.9286 5.91999 15.9205 5.90199 15.9205 5.87999C15.9205 5.85799 15.9115 5.83999 15.9005 5.83999C15.8895 5.83999 15.8805 5.82619 15.8805 5.80934C15.8805 5.76954 15.7509 5.63999 15.7111 5.63999C15.6943 5.63999 15.6805 5.63099 15.6805 5.61999C15.6805 5.60899 15.6632 5.59999 15.6421 5.59999C15.6211 5.59999 15.6008 5.59229 15.5971 5.58284C15.5935 5.57344 15.548 5.56109 15.4961 5.55539L15.4018 5.54504L15.3961 5.75754ZM4.32048 5.61999C4.32048 5.63099 4.30668 5.63999 4.28983 5.63999C4.25003 5.63999 4.12048 5.76954 4.12048 5.80934C4.12048 5.82619 4.11148 5.83999 4.10048 5.83999C4.08948 5.83999 4.08048 5.85799 4.08048 5.87999C4.08048 5.90199 4.07238 5.91999 4.06248 5.91999C4.01538 5.91999 3.97403 7.62154 4.02003 7.66754C4.03128 7.67879 4.04048 7.72669 4.04048 7.77399C4.04048 7.82129 4.04948 7.85999 4.06048 7.85999C4.07148 7.85999 4.08048 7.87599 4.08048 7.89559C4.08048 7.91514 4.09848 7.94414 4.12048 7.95999C4.14248 7.97584 4.16048 8.00099 4.16048 8.01584C4.16048 8.04934 4.20938 8.09999 4.24173 8.09999C4.25493 8.09999 4.28033 8.11574 4.29813 8.13499C4.33808 8.17824 4.35523 8.17949 5.07793 8.19174L5.66543 8.20174L5.65458 8.08589C5.64863 8.02214 5.62978 7.86199 5.61273 7.72999C5.59133 7.56434 5.58153 7.31569 5.58108 6.92724L5.58048 6.36449L5.39548 6.31964C5.08148 6.24354 4.68653 6.11039 4.46548 6.00609C4.40058 5.97549 4.40048 5.97514 4.39983 5.82269C4.39943 5.72754 4.38918 5.65679 4.37263 5.63499C4.34308 5.59604 4.32048 5.58954 4.32048 5.61999Z" fill="#3E6483"/>
<path fill-rule="evenodd" clip-rule="evenodd" d="M11.5703 9.81817C11.5263 9.82682 11.3238 9.86227 11.1203 9.89702C10.5671 9.99142 10.517 10.0073 10.3977 10.1266C9.98351 10.5408 10.3505 11.1748 10.9503 11.0813C11.9938 10.9186 12.1593 10.8622 12.2803 10.628C12.2967 10.5961 12.3179 10.5644 12.3273 10.5575C12.3368 10.5507 12.3448 10.4697 12.3452 10.3775C12.3464 10.12 12.2507 9.97007 12.0027 9.84067C11.9448 9.81047 11.68 9.79667 11.5703 9.81817ZM7.44921 12.5817C7.44301 12.5918 7.41646 12.6 7.39026 12.6C7.36406 12.6 7.33706 12.609 7.33026 12.62C7.32346 12.631 7.28691 12.64 7.24906 12.64C7.21121 12.64 7.18026 12.649 7.18026 12.66C7.18026 12.671 7.15776 12.68 7.13026 12.68C7.10276 12.68 7.08026 12.689 7.08026 12.7C7.08026 12.711 7.04876 12.72 7.01026 12.72C6.97176 12.72 6.94026 12.729 6.94026 12.74C6.94026 12.751 6.91776 12.76 6.89026 12.76C6.86276 12.76 6.84026 12.769 6.84026 12.78C6.84026 12.791 6.8093 12.8 6.77145 12.8C6.7336 12.8 6.698 12.8075 6.69235 12.8166C6.68675 12.8257 6.63221 12.8452 6.57121 12.8598C6.51016 12.8744 6.46025 12.894 6.46025 12.9032C6.46025 12.9125 6.4293 12.92 6.39145 12.92C6.3536 12.92 6.31695 12.9292 6.31005 12.9404C6.30315 12.9515 6.2893 12.9556 6.2793 12.9494C6.26925 12.9432 6.24515 12.9467 6.22565 12.9571C6.2062 12.9674 6.16775 12.9791 6.14025 12.983C6.11275 12.9869 6.08535 12.9965 6.0794 13.0045C6.0734 13.0125 6.0464 13.0226 6.0194 13.0269C5.9856 13.0323 5.97225 13.0456 5.97665 13.0696C5.9817 13.0973 6.52736 13.7368 6.87281 14.12C6.90751 14.1585 6.97516 14.2358 7.02311 14.2918C7.97971 15.4088 8.09211 15.4657 8.84026 15.2109C9.02176 15.149 9.34801 15.0388 9.56526 14.966C9.78251 14.8931 9.96026 14.8247 9.96026 14.8141C9.96026 14.795 9.83366 14.6678 9.57861 14.4307C9.50801 14.365 9.28381 14.1535 9.08031 13.9607C8.87686 13.7678 8.62936 13.5333 8.53031 13.4394C8.43131 13.3456 8.26926 13.1919 8.17026 13.098C8.07126 13.004 7.93851 12.8792 7.87526 12.8206C7.80091 12.7519 7.76026 12.6983 7.76026 12.6693C7.76026 12.6229 7.72631 12.6 7.65746 12.6C7.63571 12.6 7.62301 12.5918 7.62921 12.5817C7.63546 12.5716 7.60006 12.5634 7.55056 12.5634C7.50106 12.5634 7.45546 12.5716 7.44921 12.5817ZM12.3603 12.576C12.3603 12.5892 12.3417 12.6 12.3191 12.6C12.2927 12.6 12.2831 12.6085 12.2924 12.6234C12.3021 12.6392 12.2959 12.6426 12.2736 12.6341C12.2483 12.6243 12.2403 12.6327 12.2403 12.6689C12.2403 12.6982 12.2154 12.737 12.1753 12.7701C12.1395 12.7996 12.011 12.9197 11.8898 13.0369C11.7685 13.1541 11.584 13.331 11.4797 13.43C10.9729 13.9113 10.5379 14.3228 10.4219 14.4307C10.1669 14.6678 10.0403 14.795 10.0403 14.8141C10.0403 14.8247 10.218 14.893 10.4353 14.9658C10.6525 15.0387 10.9518 15.1405 11.1003 15.1922C11.5691 15.3553 11.9142 15.323 12.2452 15.0849C12.3256 15.0272 12.6156 14.7132 12.9778 14.2918C13.0259 14.2358 13.1204 14.1274 13.1878 14.0509C13.2551 13.9744 13.3541 13.8619 13.4077 13.8009C13.4613 13.7399 13.5333 13.6627 13.5677 13.6292C13.6021 13.5958 13.6843 13.5066 13.7503 13.4311C13.8163 13.3555 13.8955 13.2658 13.9264 13.2318C14.0608 13.084 14.0708 13.02 13.9597 13.02C13.9226 13.02 13.903 13.0118 13.9106 12.9995C13.9175 12.9883 13.9158 12.9803 13.9068 12.9819C13.8476 12.9922 13.7597 12.9771 13.7711 12.9587C13.7784 12.947 13.7721 12.9395 13.7573 12.9421C13.7123 12.95 13.5405 12.9166 13.5288 12.8977C13.5228 12.888 13.4959 12.88 13.4691 12.88C13.4422 12.88 13.4203 12.871 13.4203 12.86C13.4203 12.849 13.3933 12.84 13.3603 12.84C13.3273 12.84 13.3003 12.831 13.3003 12.82C13.3003 12.809 13.262 12.7999 13.2153 12.7997C13.153 12.7995 13.1383 12.7942 13.1603 12.78C13.1822 12.7658 13.1675 12.7606 13.1053 12.7603C13.0585 12.7602 13.0203 12.751 13.0203 12.74C13.0203 12.729 13.003 12.72 12.9819 12.72C12.9609 12.72 12.9406 12.7114 12.9369 12.7009C12.9333 12.6904 12.8965 12.6795 12.8553 12.6768C12.814 12.6741 12.7803 12.6647 12.7803 12.6559C12.7803 12.6472 12.7465 12.6399 12.7053 12.6397C12.6495 12.6395 12.638 12.6344 12.6603 12.62C12.6812 12.6065 12.6477 12.6005 12.5493 12.6003C12.4667 12.6002 12.3983 12.5901 12.3843 12.576C12.3656 12.5574 12.3603 12.5574 12.3603 12.576ZM16.4427 16.6417C16.1901 16.6952 16.2003 16.6198 16.2003 18.4347V20H16.5003H16.8003V18.4197V16.8395L16.756 16.7719C16.6829 16.6604 16.5721 16.6144 16.4427 16.6417ZM3.3551 16.6845C3.19255 16.7787 3.20025 16.691 3.20025 18.4463V20H3.50025H3.80025V18.4347C3.80025 16.9496 3.79835 16.8658 3.7632 16.7997C3.6819 16.6467 3.506 16.5971 3.3551 16.6845Z" fill="#D4145B"/>
</svg>
