<svg id="svg" version="1.1" xmlns="http://www.w3.org/2000/svg" xmlns:xlink="http://www.w3.org/1999/xlink" width="400" height="400" viewBox="0, 0, 400,400"><g id="svgg"><path id="path0" d="M314.000 82.800 C 314.000 83.020,313.190 83.200,312.200 83.200 C 311.210 83.200,310.400 83.380,310.400 83.600 C 310.400 83.820,309.990 84.000,309.488 84.000 C 308.987 84.000,308.317 84.360,308.000 84.800 C 307.683 85.240,307.217 85.600,306.965 85.600 C 306.253 85.600,302.000 89.853,302.000 90.565 C 302.000 90.914,301.820 91.200,301.600 91.200 C 301.380 91.200,301.200 91.560,301.200 92.000 C 301.200 92.440,301.064 92.800,300.897 92.800 C 299.758 92.800,299.600 96.453,299.600 122.789 L 299.600 149.592 263.900 149.716 C 230.916 149.831,226.164 149.969,225.596 150.828 C 225.484 150.997,225.126 151.195,224.800 151.268 C 224.474 151.341,223.756 151.863,223.204 152.429 C 222.652 152.995,221.705 153.781,221.100 154.175 C 220.495 154.569,220.000 155.102,220.000 155.358 C 220.000 155.614,219.640 156.083,219.200 156.400 C 218.760 156.717,218.400 157.297,218.400 157.688 C 218.400 158.080,218.220 158.400,218.000 158.400 C 217.780 158.400,217.600 158.760,217.600 159.200 C 217.600 159.640,217.420 160.000,217.200 160.000 C 216.980 160.000,216.800 160.450,216.800 161.000 C 216.800 161.550,216.620 162.000,216.400 162.000 C 216.157 162.000,216.000 163.792,216.000 166.576 C 216.000 169.196,216.171 171.258,216.400 171.400 C 216.620 171.536,216.800 172.087,216.800 172.624 C 216.800 173.161,216.980 173.600,217.200 173.600 C 217.420 173.600,217.600 173.960,217.600 174.400 C 217.600 174.840,217.780 175.200,218.000 175.200 C 218.220 175.200,218.400 175.449,218.400 175.754 C 218.400 176.530,223.403 181.600,224.169 181.600 C 224.516 181.600,224.800 181.780,224.800 182.000 C 224.800 182.220,225.160 182.400,225.600 182.400 C 226.040 182.400,226.400 182.560,226.400 182.755 C 226.400 183.612,230.967 183.747,264.300 183.874 L 299.600 184.009 299.600 211.404 C 299.600 229.401,299.737 238.800,300.000 238.800 C 300.220 238.800,300.400 239.162,300.400 239.605 C 300.400 240.557,301.123 241.933,302.100 242.843 C 302.485 243.201,302.800 243.704,302.800 243.960 C 302.800 244.599,305.448 247.200,306.098 247.200 C 306.387 247.200,306.883 247.560,307.200 248.000 C 307.517 248.440,308.097 248.800,308.488 248.800 C 308.880 248.800,309.200 248.980,309.200 249.200 C 309.200 249.420,309.650 249.600,310.200 249.600 C 310.750 249.600,311.200 249.780,311.200 250.000 C 311.200 250.871,321.164 250.482,323.272 249.529 C 324.332 249.049,325.200 248.509,325.200 248.329 C 325.200 248.148,325.520 248.000,325.912 248.000 C 326.303 248.000,326.883 247.640,327.200 247.200 C 327.517 246.760,327.973 246.400,328.213 246.400 C 328.453 246.400,329.049 245.860,329.537 245.200 C 330.025 244.540,330.689 244.000,331.012 244.000 C 331.335 244.000,331.600 243.830,331.600 243.623 C 331.600 243.416,334.220 240.671,337.423 237.523 C 348.644 226.493,390.802 184.187,391.854 182.900 C 392.438 182.185,393.083 181.600,393.287 181.600 C 393.787 181.600,394.800 180.557,394.800 180.043 C 394.800 179.815,395.160 179.435,395.600 179.200 C 396.040 178.965,396.400 178.597,396.400 178.382 C 396.400 178.168,396.940 177.428,397.600 176.737 C 398.260 176.046,398.800 175.253,398.800 174.974 C 398.800 174.695,399.025 174.392,399.300 174.300 C 399.676 174.175,399.800 172.311,399.800 166.800 C 399.800 161.289,399.676 159.425,399.300 159.300 C 399.025 159.208,398.800 158.828,398.800 158.455 C 398.800 158.082,398.440 157.517,398.000 157.200 C 397.560 156.883,397.200 156.380,397.200 156.084 C 397.200 155.383,328.549 86.780,327.100 86.032 C 326.495 85.720,326.000 85.315,326.000 85.132 C 326.000 84.950,325.640 84.800,325.200 84.800 C 324.760 84.800,324.400 84.620,324.400 84.400 C 324.400 84.180,324.040 84.000,323.600 84.000 C 323.160 84.000,322.800 83.820,322.800 83.600 C 322.800 83.380,322.080 83.200,321.200 83.200 C 320.320 83.200,319.600 83.020,319.600 82.800 C 319.600 82.571,318.400 82.400,316.800 82.400 C 315.200 82.400,314.000 82.571,314.000 82.800 " stroke="none" fill="#637c8c" fill-rule="evenodd"></path><path id="path1" d="M24.900 0.293 C 23.965 0.377,23.200 0.616,23.200 0.823 C 23.200 1.030,22.660 1.200,22.000 1.200 C 21.340 1.200,20.800 1.380,20.800 1.600 C 20.800 1.820,20.440 2.000,20.000 2.000 C 19.560 2.000,19.199 2.135,19.197 2.300 C 19.193 2.659,17.256 3.600,16.520 3.600 C 16.234 3.600,16.000 3.750,16.000 3.932 C 16.000 4.115,15.505 4.520,14.900 4.832 C 14.295 5.144,13.710 5.490,13.600 5.602 C 13.490 5.713,12.770 6.277,12.000 6.854 C 9.899 8.430,8.400 9.908,8.400 10.405 C 8.400 10.648,8.220 10.736,8.000 10.600 C 7.780 10.464,7.600 10.541,7.600 10.772 C 7.600 11.214,6.796 12.284,5.300 13.832 C 4.805 14.344,4.400 15.042,4.400 15.382 C 4.400 15.722,4.265 16.001,4.100 16.003 C 3.741 16.007,2.800 17.944,2.800 18.680 C 2.800 18.966,2.620 19.200,2.400 19.200 C 2.180 19.200,2.000 19.560,2.000 20.000 C 2.000 20.440,1.820 20.800,1.600 20.800 C 1.380 20.800,1.200 21.325,1.200 21.967 C 1.200 22.608,0.975 23.208,0.700 23.300 C -0.036 23.545,-0.036 343.655,0.700 343.900 C 0.975 343.992,1.200 344.412,1.200 344.833 C 1.200 345.255,1.380 345.600,1.600 345.600 C 1.820 345.600,1.979 345.735,1.953 345.900 C 1.796 346.891,2.060 348.010,2.400 347.800 C 2.627 347.660,2.800 347.996,2.800 348.576 C 2.800 349.139,2.980 349.600,3.200 349.600 C 3.420 349.600,3.600 349.836,3.600 350.125 C 3.600 350.413,3.960 351.036,4.400 351.508 C 4.840 351.980,5.200 352.674,5.200 353.050 C 5.200 353.426,5.319 353.614,5.465 353.469 C 5.610 353.323,6.180 353.868,6.732 354.680 C 7.965 356.494,11.031 359.600,11.589 359.600 C 11.815 359.600,12.000 359.780,12.000 360.000 C 12.000 360.220,12.178 360.400,12.395 360.400 C 12.767 360.400,13.815 361.160,15.016 362.300 C 15.306 362.575,15.826 362.800,16.171 362.800 C 16.517 362.800,16.801 362.935,16.803 363.100 C 16.807 363.459,18.744 364.400,19.480 364.400 C 19.766 364.400,20.000 364.580,20.000 364.800 C 20.000 365.020,20.360 365.200,20.800 365.200 C 21.240 365.200,21.600 365.380,21.600 365.600 C 21.600 365.820,22.230 366.000,23.000 366.000 C 23.770 366.000,24.400 366.180,24.400 366.400 C 24.400 366.620,24.951 366.800,25.624 366.800 C 26.337 366.800,26.744 366.967,26.600 367.200 C 26.460 367.426,26.790 367.600,27.358 367.600 C 28.270 367.600,28.971 367.814,31.400 368.836 C 31.840 369.021,33.460 369.552,35.000 370.016 C 36.540 370.480,38.160 371.011,38.600 371.198 C 39.737 371.679,45.673 373.651,46.452 373.806 C 46.810 373.877,47.941 374.220,48.966 374.568 C 49.990 374.915,51.092 375.200,51.414 375.200 C 51.736 375.200,52.000 375.380,52.000 375.600 C 52.000 375.820,52.641 376.000,53.424 376.000 C 54.271 376.000,54.747 376.162,54.600 376.400 C 54.456 376.633,54.863 376.800,55.576 376.800 C 56.249 376.800,56.800 376.980,56.800 377.200 C 56.800 377.420,57.329 377.600,57.976 377.600 C 58.623 377.600,59.264 377.780,59.400 378.000 C 59.536 378.220,60.076 378.400,60.600 378.400 C 61.124 378.400,61.642 378.544,61.751 378.721 C 61.860 378.897,62.872 379.293,64.000 379.600 C 65.128 379.907,66.140 380.303,66.249 380.479 C 66.358 380.656,66.977 380.800,67.624 380.800 C 68.271 380.800,68.800 380.980,68.800 381.200 C 68.800 381.420,69.162 381.600,69.605 381.600 C 70.048 381.600,70.723 381.758,71.105 381.951 C 71.487 382.144,72.520 382.516,73.400 382.777 C 74.280 383.039,75.360 383.396,75.800 383.571 C 76.240 383.746,77.320 384.106,78.200 384.371 C 79.736 384.834,80.180 384.995,82.400 385.901 C 82.950 386.125,84.210 386.530,85.200 386.800 C 86.190 387.070,87.405 387.451,87.900 387.646 C 88.395 387.841,89.205 388.161,89.700 388.359 C 91.240 388.973,98.533 391.181,99.900 391.447 C 100.615 391.586,101.200 391.858,101.200 392.050 C 101.200 392.243,101.729 392.400,102.376 392.400 C 103.023 392.400,103.664 392.580,103.800 392.800 C 103.936 393.020,104.487 393.200,105.024 393.200 C 105.561 393.200,106.000 393.380,106.000 393.600 C 106.000 393.820,106.540 394.000,107.200 394.000 C 107.860 394.000,108.400 394.180,108.400 394.400 C 108.400 394.620,108.940 394.800,109.600 394.800 C 110.260 394.800,110.800 394.980,110.800 395.200 C 110.800 395.420,111.102 395.600,111.472 395.600 C 112.224 395.600,114.633 396.313,115.695 396.849 C 116.077 397.042,116.762 397.200,117.218 397.200 C 117.682 397.200,117.936 397.380,117.794 397.610 C 117.655 397.835,117.689 397.994,117.870 397.963 C 118.802 397.801,120.422 398.040,120.252 398.315 C 120.145 398.488,120.521 398.669,121.088 398.716 C 121.655 398.763,122.390 399.026,122.721 399.300 C 123.589 400.021,143.260 400.020,143.500 399.300 C 143.592 399.025,144.102 398.800,144.633 398.800 C 145.165 398.800,145.600 398.620,145.600 398.400 C 145.600 398.180,146.140 398.000,146.800 398.000 C 147.460 398.000,148.000 397.820,148.000 397.600 C 148.000 397.380,148.360 397.200,148.800 397.200 C 149.240 397.200,149.600 397.020,149.600 396.800 C 149.600 396.580,149.870 396.400,150.200 396.400 C 150.530 396.400,150.800 396.220,150.800 396.000 C 150.800 395.780,151.070 395.600,151.400 395.600 C 151.730 395.600,152.000 395.420,152.000 395.200 C 152.000 394.980,152.243 394.800,152.541 394.800 C 152.838 394.800,153.646 394.260,154.337 393.600 C 155.028 392.940,155.690 392.400,155.810 392.400 C 156.101 392.400,158.800 389.688,158.800 389.395 C 158.800 389.268,159.205 388.744,159.700 388.232 C 161.217 386.661,161.846 385.796,162.432 384.472 C 162.742 383.772,163.131 383.200,163.298 383.200 C 163.464 383.200,163.600 382.840,163.600 382.400 C 163.600 381.960,163.780 381.600,164.000 381.600 C 164.220 381.600,164.400 381.240,164.400 380.800 C 164.400 380.360,164.580 380.000,164.800 380.000 C 165.020 380.000,165.200 379.460,165.200 378.800 C 165.200 378.140,165.380 377.600,165.600 377.600 C 165.820 377.600,166.000 377.071,166.000 376.424 C 166.000 375.777,166.180 375.136,166.400 375.000 C 166.620 374.864,166.800 373.874,166.800 372.800 C 166.800 371.726,166.980 370.736,167.200 370.600 C 167.918 370.156,167.725 350.534,167.000 350.255 C 166.468 350.051,166.400 333.732,166.400 206.712 C 166.400 54.391,166.488 61.818,164.622 56.200 C 161.906 48.021,155.665 40.899,147.637 36.816 C 146.667 36.323,139.647 33.861,132.037 31.345 C 124.427 28.829,117.840 26.618,117.400 26.431 C 116.960 26.244,115.790 25.859,114.800 25.576 C 113.810 25.293,112.829 24.912,112.620 24.730 C 112.411 24.549,111.837 24.400,111.344 24.400 C 110.851 24.400,110.336 24.220,110.200 24.000 C 110.064 23.780,109.524 23.600,109.000 23.600 C 108.476 23.600,107.936 23.420,107.800 23.200 C 107.664 22.980,107.201 22.800,106.771 22.800 C 106.341 22.800,105.677 22.640,105.295 22.445 C 104.913 22.249,102.800 21.521,100.600 20.827 C 98.400 20.132,96.240 19.406,95.800 19.214 C 95.360 19.021,89.150 16.954,82.000 14.620 C 74.850 12.286,68.640 10.223,68.200 10.036 C 67.760 9.849,66.050 9.281,64.400 8.776 C 62.750 8.270,61.229 7.708,61.020 7.528 C 60.811 7.348,60.237 7.200,59.744 7.200 C 59.251 7.200,58.736 7.020,58.600 6.800 C 58.464 6.580,57.924 6.400,57.400 6.400 C 56.876 6.400,56.336 6.220,56.200 6.000 C 56.064 5.780,55.601 5.600,55.171 5.600 C 54.741 5.600,54.077 5.439,53.695 5.241 C 53.127 4.948,46.424 2.782,41.040 1.151 C 40.402 0.958,39.288 0.800,38.564 0.800 C 37.840 0.800,37.136 0.620,37.000 0.400 C 36.764 0.018,28.737 -0.053,24.900 0.293 " stroke="none" fill="#63b3f4" fill-rule="evenodd"></path><path id="path2" d="M41.800 0.595 C 44.998 1.474,56.133 5.170,56.895 5.604 C 57.277 5.822,57.941 6.000,58.371 6.000 C 58.801 6.000,59.264 6.180,59.400 6.400 C 59.536 6.620,60.076 6.800,60.600 6.800 C 61.124 6.800,61.664 6.980,61.800 7.200 C 61.936 7.420,62.476 7.600,63.000 7.600 C 63.524 7.600,64.064 7.780,64.200 8.000 C 64.336 8.220,64.876 8.400,65.400 8.400 C 65.924 8.400,66.464 8.580,66.600 8.800 C 66.736 9.020,67.276 9.200,67.800 9.200 C 68.324 9.200,68.864 9.380,69.000 9.600 C 69.136 9.820,69.676 10.000,70.200 10.000 C 70.724 10.000,71.264 10.180,71.400 10.400 C 71.536 10.620,72.076 10.800,72.600 10.800 C 73.124 10.800,73.664 10.980,73.800 11.200 C 73.936 11.420,74.399 11.600,74.829 11.600 C 75.259 11.600,75.923 11.758,76.305 11.951 C 76.687 12.144,77.720 12.516,78.600 12.777 C 79.480 13.039,80.560 13.403,81.000 13.585 C 81.440 13.768,86.570 15.472,92.400 17.372 C 98.230 19.272,103.313 21.000,103.695 21.213 C 104.077 21.426,104.741 21.600,105.171 21.600 C 105.601 21.600,106.064 21.780,106.200 22.000 C 106.336 22.220,106.876 22.400,107.400 22.400 C 107.924 22.400,108.464 22.580,108.600 22.800 C 108.736 23.020,109.276 23.200,109.800 23.200 C 110.324 23.200,110.864 23.380,111.000 23.600 C 111.136 23.820,111.676 24.000,112.200 24.000 C 112.724 24.000,113.264 24.180,113.400 24.400 C 113.536 24.620,114.076 24.800,114.600 24.800 C 115.124 24.800,115.664 24.980,115.800 25.200 C 115.936 25.420,116.476 25.600,117.000 25.600 C 117.524 25.600,118.064 25.780,118.200 26.000 C 118.336 26.220,118.876 26.400,119.400 26.400 C 119.924 26.400,120.464 26.580,120.600 26.800 C 120.736 27.020,121.276 27.200,121.800 27.200 C 122.324 27.200,122.864 27.380,123.000 27.600 C 123.136 27.820,123.599 28.000,124.029 28.000 C 124.459 28.000,125.123 28.170,125.505 28.378 C 125.887 28.585,127.460 29.131,129.000 29.591 C 130.540 30.051,132.160 30.588,132.600 30.784 C 133.040 30.980,136.010 31.982,139.200 33.011 C 153.273 37.552,161.358 44.465,165.019 55.089 C 167.119 61.179,166.944 49.019,167.181 205.600 L 167.400 350.200 196.700 350.303 C 216.161 350.371,226.000 350.270,226.000 350.003 C 226.000 349.781,226.709 349.600,227.576 349.600 C 228.443 349.600,229.264 349.420,229.400 349.200 C 229.536 348.980,230.267 348.800,231.024 348.800 C 231.781 348.800,232.400 348.620,232.400 348.400 C 232.400 348.180,232.940 348.000,233.600 348.000 C 234.260 348.000,234.800 347.820,234.800 347.600 C 234.800 347.380,235.149 347.200,235.576 347.200 C 236.003 347.200,236.464 347.020,236.600 346.800 C 236.736 346.580,237.197 346.400,237.624 346.400 C 238.051 346.400,238.400 346.220,238.400 346.000 C 238.400 345.780,238.760 345.600,239.200 345.600 C 239.640 345.600,240.000 345.420,240.000 345.200 C 240.000 344.980,240.320 344.800,240.712 344.800 C 241.103 344.800,241.683 344.440,242.000 344.000 C 242.317 343.560,242.897 343.200,243.288 343.200 C 243.680 343.200,244.000 343.064,244.000 342.898 C 244.000 342.731,244.544 342.354,245.209 342.060 C 245.874 341.766,246.639 341.311,246.909 341.049 C 247.179 340.788,248.030 340.136,248.800 339.601 C 250.325 338.541,256.400 332.462,256.400 331.996 C 256.400 331.838,256.937 331.099,257.594 330.354 C 258.250 329.609,258.790 328.725,258.794 328.388 C 258.797 328.052,259.160 327.517,259.600 327.200 C 260.040 326.883,260.400 326.303,260.400 325.912 C 260.400 325.520,260.546 325.200,260.725 325.200 C 260.904 325.200,261.298 324.570,261.600 323.800 C 261.902 323.030,262.296 322.400,262.475 322.400 C 262.654 322.400,262.800 322.040,262.800 321.600 C 262.800 321.160,262.980 320.800,263.200 320.800 C 263.420 320.800,263.600 320.260,263.600 319.600 C 263.600 318.940,263.780 318.400,264.000 318.400 C 264.220 318.400,264.400 318.051,264.400 317.624 C 264.400 317.197,264.580 316.736,264.800 316.600 C 265.020 316.464,265.200 315.733,265.200 314.976 C 265.200 314.219,265.380 313.600,265.600 313.600 C 265.820 313.600,266.000 312.880,266.000 312.000 C 266.000 311.120,266.180 310.400,266.400 310.400 C 266.622 310.400,266.800 309.341,266.800 308.024 C 266.800 306.717,266.980 305.536,267.200 305.400 C 267.463 305.238,267.600 289.863,267.600 260.576 L 267.600 216.000 248.000 216.000 C 235.200 216.000,228.400 215.861,228.400 215.600 C 228.400 215.378,227.333 215.200,226.000 215.200 C 224.667 215.200,223.600 215.022,223.600 214.800 C 223.600 214.580,223.058 214.400,222.395 214.400 C 221.732 214.400,220.877 214.238,220.495 214.039 C 220.113 213.840,218.990 213.449,218.000 213.169 C 217.010 212.890,216.029 212.512,215.820 212.330 C 215.611 212.149,215.026 212.000,214.520 212.000 C 214.014 212.000,213.600 211.820,213.600 211.600 C 213.600 211.380,213.240 211.200,212.800 211.200 C 212.360 211.200,212.000 211.020,212.000 210.800 C 212.000 210.580,211.640 210.400,211.200 210.400 C 210.760 210.400,210.398 210.265,210.395 210.100 C 210.393 209.935,209.628 209.441,208.695 209.001 C 207.763 208.562,206.651 207.887,206.225 207.501 C 205.798 207.116,205.285 206.800,205.085 206.800 C 204.885 206.800,204.244 206.298,203.660 205.685 C 203.077 205.071,201.970 204.129,201.200 203.591 C 200.430 203.053,199.257 202.070,198.593 201.407 C 197.930 200.743,196.947 199.570,196.409 198.800 C 195.871 198.030,194.929 196.923,194.315 196.340 C 193.702 195.756,193.200 195.115,193.200 194.915 C 193.200 194.715,192.883 194.202,192.495 193.775 C 192.107 193.349,191.450 192.235,191.034 191.300 C 190.618 190.365,190.126 189.600,189.939 189.600 C 189.753 189.600,189.600 189.240,189.600 188.800 C 189.600 188.360,189.420 188.000,189.200 188.000 C 188.980 188.000,188.800 187.640,188.800 187.200 C 188.800 186.760,188.620 186.400,188.400 186.400 C 188.180 186.400,188.000 186.038,188.000 185.595 C 188.000 185.152,187.820 184.432,187.600 183.995 C 187.380 183.558,187.020 182.842,186.800 182.405 C 186.580 181.968,186.400 181.169,186.400 180.629 C 186.400 180.089,186.220 179.536,186.000 179.400 C 185.780 179.264,185.600 178.533,185.600 177.776 C 185.600 177.019,185.420 176.400,185.200 176.400 C 184.978 176.400,184.800 175.333,184.800 174.000 C 184.800 172.667,184.622 171.600,184.400 171.600 C 184.156 171.600,184.000 169.733,184.000 166.800 C 184.000 163.867,184.156 162.000,184.400 162.000 C 184.622 162.000,184.800 160.941,184.800 159.624 C 184.800 158.317,184.980 157.136,185.200 157.000 C 185.420 156.864,185.600 156.144,185.600 155.400 C 185.600 154.656,185.780 153.936,186.000 153.800 C 186.220 153.664,186.400 153.023,186.400 152.376 C 186.400 151.729,186.580 151.200,186.800 151.200 C 187.020 151.200,187.200 150.761,187.200 150.224 C 187.200 149.687,187.380 149.136,187.600 149.000 C 187.820 148.864,188.000 148.403,188.000 147.976 C 188.000 147.549,188.180 147.200,188.400 147.200 C 188.620 147.200,188.800 146.840,188.800 146.400 C 188.800 145.960,188.980 145.600,189.200 145.600 C 189.420 145.600,189.600 145.328,189.600 144.995 C 189.600 144.328,190.319 142.937,191.104 142.083 C 191.381 141.782,191.518 141.390,191.408 141.213 C 191.298 141.036,191.477 140.668,191.804 140.396 C 192.132 140.124,192.400 139.726,192.400 139.512 C 192.400 139.297,192.940 138.617,193.600 138.000 C 194.260 137.383,194.800 136.679,194.800 136.434 C 194.800 135.916,202.223 128.400,202.736 128.400 C 202.926 128.400,203.646 127.860,204.337 127.200 C 205.028 126.540,205.759 126.000,205.963 126.000 C 206.167 126.000,206.393 125.864,206.467 125.698 C 206.664 125.253,213.923 121.600,214.611 121.600 C 214.935 121.600,215.200 121.453,215.200 121.272 C 215.200 121.092,216.111 120.696,217.225 120.393 C 218.339 120.090,219.340 119.697,219.449 119.521 C 219.558 119.344,220.267 119.200,221.024 119.200 C 221.781 119.200,222.400 119.020,222.400 118.800 C 222.400 118.580,223.289 118.400,224.376 118.400 C 225.463 118.400,226.464 118.220,226.600 118.000 C 226.760 117.742,234.071 117.600,247.224 117.600 L 267.600 117.600 267.600 81.224 C 267.600 57.404,267.462 44.762,267.200 44.600 C 266.980 44.464,266.800 43.283,266.800 41.976 C 266.800 40.659,266.622 39.600,266.400 39.600 C 266.180 39.600,266.000 38.880,266.000 38.000 C 266.000 37.120,265.820 36.400,265.600 36.400 C 265.380 36.400,265.200 35.781,265.200 35.024 C 265.200 34.267,265.020 33.536,264.800 33.400 C 264.580 33.264,264.400 32.803,264.400 32.376 C 264.400 31.949,264.220 31.600,264.000 31.600 C 263.780 31.600,263.600 31.060,263.600 30.400 C 263.600 29.740,263.420 29.200,263.200 29.200 C 262.980 29.200,262.800 28.840,262.800 28.400 C 262.800 27.960,262.654 27.600,262.475 27.600 C 262.296 27.600,261.902 26.970,261.600 26.200 C 261.298 25.430,260.904 24.800,260.725 24.800 C 260.546 24.800,260.400 24.480,260.400 24.088 C 260.400 23.697,260.040 23.117,259.600 22.800 C 259.160 22.483,258.797 21.948,258.794 21.612 C 258.790 21.275,258.250 20.391,257.594 19.646 C 256.937 18.901,256.400 18.162,256.400 18.004 C 256.400 17.560,250.363 11.487,248.900 10.459 C 248.185 9.957,247.600 9.630,247.600 9.733 C 247.600 9.836,247.041 9.399,246.358 8.760 C 245.674 8.122,244.864 7.600,244.558 7.600 C 244.251 7.600,244.000 7.420,244.000 7.200 C 244.000 6.980,243.680 6.800,243.288 6.800 C 242.897 6.800,242.317 6.440,242.000 6.000 C 241.683 5.560,241.103 5.200,240.712 5.200 C 240.320 5.200,240.000 5.020,240.000 4.800 C 240.000 4.580,239.640 4.400,239.200 4.400 C 238.760 4.400,238.400 4.220,238.400 4.000 C 238.400 3.780,238.051 3.600,237.624 3.600 C 237.197 3.600,236.736 3.420,236.600 3.200 C 236.464 2.980,236.003 2.800,235.576 2.800 C 235.149 2.800,234.800 2.620,234.800 2.400 C 234.800 2.180,234.260 2.000,233.600 2.000 C 232.940 2.000,232.400 1.820,232.400 1.600 C 232.400 1.380,231.806 1.200,231.080 1.200 C 230.354 1.200,229.535 0.975,229.260 0.700 C 228.863 0.303,209.247 0.184,134.280 0.122 C 53.491 0.056,40.090 0.124,41.800 0.595 M299.388 124.800 C 299.388 138.550,299.438 144.175,299.500 137.300 C 299.561 130.425,299.561 119.175,299.500 112.300 C 299.438 105.425,299.388 111.050,299.388 124.800 M299.388 208.800 C 299.388 222.550,299.438 228.175,299.500 221.300 C 299.561 214.425,299.561 203.175,299.500 196.300 C 299.438 189.425,299.388 195.050,299.388 208.800 " stroke="none" fill="#2494f4" fill-rule="evenodd"></path><path id="path3" d="M37.000 0.400 C 37.136 0.620,37.822 0.797,38.524 0.794 C 39.495 0.789,39.657 0.695,39.200 0.400 C 38.407 -0.113,36.683 -0.113,37.000 0.400 M41.000 1.200 C 41.440 1.389,42.160 1.544,42.600 1.544 L 43.400 1.544 42.600 1.200 C 42.160 1.011,41.440 0.856,41.000 0.856 L 40.200 0.856 41.000 1.200 M44.000 2.000 C 44.330 2.213,44.870 2.388,45.200 2.388 C 45.733 2.388,45.733 2.345,45.200 2.000 C 44.870 1.787,44.330 1.612,44.000 1.612 C 43.467 1.612,43.467 1.655,44.000 2.000 M46.400 2.800 C 46.730 3.013,47.270 3.188,47.600 3.188 C 48.133 3.188,48.133 3.145,47.600 2.800 C 47.270 2.587,46.730 2.412,46.400 2.412 C 45.867 2.412,45.867 2.455,46.400 2.800 M48.800 3.600 C 49.130 3.813,49.670 3.988,50.000 3.988 C 50.533 3.988,50.533 3.945,50.000 3.600 C 49.670 3.387,49.130 3.212,48.800 3.212 C 48.267 3.212,48.267 3.255,48.800 3.600 M51.200 4.400 C 51.530 4.613,52.160 4.778,52.600 4.766 L 53.400 4.744 52.600 4.400 C 51.404 3.886,50.405 3.886,51.200 4.400 M53.800 5.200 C 53.936 5.420,54.442 5.587,54.924 5.572 C 55.769 5.545,55.771 5.531,55.000 5.200 C 53.899 4.727,53.508 4.727,53.800 5.200 M58.600 6.800 C 58.736 7.020,59.242 7.187,59.724 7.172 C 60.569 7.145,60.571 7.131,59.800 6.800 C 58.699 6.327,58.308 6.327,58.600 6.800 M60.938 7.471 C 61.317 7.850,66.471 9.581,67.200 9.573 C 67.530 9.570,66.286 9.035,64.436 8.384 C 60.889 7.136,60.501 7.034,60.938 7.471 M68.200 9.871 C 68.662 10.319,82.432 14.901,82.653 14.680 C 82.734 14.599,79.695 13.490,75.900 12.214 C 72.105 10.939,68.730 9.802,68.400 9.689 C 68.006 9.553,67.937 9.616,68.200 9.871 M93.200 18.400 C 93.530 18.613,94.070 18.788,94.400 18.788 C 94.933 18.788,94.933 18.745,94.400 18.400 C 94.070 18.187,93.530 18.012,93.200 18.012 C 92.667 18.012,92.667 18.055,93.200 18.400 M98.000 20.000 C 98.330 20.213,98.870 20.388,99.200 20.388 C 99.733 20.388,99.733 20.345,99.200 20.000 C 98.870 19.787,98.330 19.612,98.000 19.612 C 97.467 19.612,97.467 19.655,98.000 20.000 M100.000 20.554 C 100.000 20.783,103.866 22.005,104.475 21.969 C 104.764 21.952,104.100 21.606,103.000 21.200 C 101.031 20.473,100.000 20.251,100.000 20.554 M107.800 23.200 C 107.936 23.420,108.442 23.587,108.924 23.572 C 109.769 23.545,109.771 23.531,109.000 23.200 C 107.899 22.727,107.508 22.727,107.800 23.200 M110.200 24.000 C 110.336 24.220,110.842 24.387,111.324 24.372 C 112.169 24.345,112.171 24.331,111.400 24.000 C 110.299 23.527,109.908 23.527,110.200 24.000 M112.541 24.674 C 112.926 25.059,115.677 25.990,116.400 25.980 C 116.730 25.975,116.017 25.618,114.815 25.186 C 112.435 24.330,112.127 24.260,112.541 24.674 M117.400 26.271 C 117.868 26.725,131.634 31.300,131.858 31.076 C 131.941 30.992,128.933 29.895,125.173 28.637 C 121.413 27.380,118.036 26.245,117.668 26.116 C 117.231 25.963,117.138 26.017,117.400 26.271 M142.400 34.800 C 142.730 35.013,143.270 35.188,143.600 35.188 C 144.133 35.188,144.133 35.145,143.600 34.800 C 143.270 34.587,142.730 34.412,142.400 34.412 C 141.867 34.412,141.867 34.455,142.400 34.800 M146.657 36.374 C 153.605 39.591,160.031 45.802,162.959 52.132 C 163.349 52.975,163.756 53.577,163.864 53.470 C 164.458 52.875,160.245 46.560,157.054 43.264 C 153.686 39.785,146.578 35.151,144.711 35.218 C 144.430 35.228,145.305 35.748,146.657 36.374 M164.000 54.225 C 164.000 54.833,165.327 58.406,165.492 58.241 C 165.699 58.034,164.440 54.000,164.168 54.000 C 164.076 54.000,164.000 54.101,164.000 54.225 M165.680 59.600 C 165.680 60.150,165.824 61.050,166.000 61.600 L 166.320 62.600 166.320 61.600 C 166.320 61.050,166.176 60.150,166.000 59.600 L 165.680 58.600 165.680 59.600 M166.498 206.676 C 166.444 285.478,166.535 350.036,166.700 350.138 C 166.971 350.306,166.970 254.060,166.698 115.200 C 166.643 86.710,166.553 127.874,166.498 206.676 " stroke="none" fill="#44a4f4" fill-rule="evenodd"></path><path id="path4" d="M38.884 0.215 C 39.040 0.373,39.850 0.635,40.684 0.798 C 41.518 0.961,42.740 1.211,43.400 1.353 C 44.468 1.584,44.446 1.552,43.200 1.066 C 41.520 0.410,38.484 -0.188,38.884 0.215 M44.818 1.735 C 45.134 2.075,52.490 4.444,52.669 4.264 C 52.753 4.181,51.421 3.657,49.710 3.100 C 45.408 1.699,44.566 1.464,44.818 1.735 M77.600 12.800 C 77.930 13.013,78.470 13.188,78.800 13.188 C 79.333 13.188,79.333 13.145,78.800 12.800 C 78.470 12.587,77.930 12.412,77.600 12.412 C 77.067 12.412,77.067 12.455,77.600 12.800 M82.400 14.400 C 82.730 14.613,83.270 14.788,83.600 14.788 C 84.133 14.788,84.133 14.745,83.600 14.400 C 83.270 14.187,82.730 14.012,82.400 14.012 C 81.867 14.012,81.867 14.055,82.400 14.400 M84.800 15.200 C 85.130 15.413,85.670 15.588,86.000 15.588 C 86.533 15.588,86.533 15.545,86.000 15.200 C 85.670 14.987,85.130 14.812,84.800 14.812 C 84.267 14.812,84.267 14.855,84.800 15.200 M89.200 16.546 C 89.200 16.733,92.989 18.008,93.475 17.984 C 93.946 17.962,91.592 16.978,90.300 16.657 C 89.695 16.507,89.200 16.457,89.200 16.546 M96.400 18.936 C 96.400 19.187,101.691 20.842,101.882 20.651 C 102.012 20.521,100.305 19.912,97.300 19.015 C 96.805 18.867,96.400 18.831,96.400 18.936 M129.200 30.000 C 129.530 30.213,130.070 30.388,130.400 30.388 C 130.933 30.388,130.933 30.345,130.400 30.000 C 130.070 29.787,129.530 29.612,129.200 29.612 C 128.667 29.612,128.667 29.655,129.200 30.000 M138.400 32.946 C 138.400 33.133,142.189 34.408,142.675 34.384 C 143.146 34.362,140.792 33.378,139.500 33.057 C 138.895 32.907,138.400 32.857,138.400 32.946 M146.433 35.749 C 146.845 36.117,149.200 37.200,149.200 37.021 C 149.200 36.790,146.982 35.600,146.553 35.600 C 146.396 35.600,146.342 35.667,146.433 35.749 M151.490 38.600 C 152.633 39.370,153.708 40.000,153.879 40.000 C 154.050 40.000,153.254 39.370,152.110 38.600 C 150.967 37.830,149.892 37.200,149.721 37.200 C 149.550 37.200,150.346 37.830,151.490 38.600 M156.400 42.600 C 157.595 43.810,158.663 44.800,158.773 44.800 C 158.883 44.800,157.995 43.810,156.800 42.600 C 155.605 41.390,154.537 40.400,154.427 40.400 C 154.317 40.400,155.205 41.390,156.400 42.600 M161.029 48.100 C 162.779 50.647,163.224 51.087,162.141 49.200 C 160.719 46.719,160.214 46.000,159.897 46.000 C 159.726 46.000,160.236 46.945,161.029 48.100 M164.313 54.219 C 164.684 55.220,165.039 55.882,165.103 55.691 C 165.231 55.306,164.093 52.400,163.814 52.400 C 163.717 52.400,163.942 53.219,164.313 54.219 M165.444 57.400 C 165.773 58.871,166.002 59.190,165.994 58.167 C 165.991 57.745,165.805 57.130,165.582 56.800 C 165.285 56.362,165.248 56.524,165.444 57.400 M166.288 61.200 C 166.411 62.410,166.577 63.475,166.656 63.567 C 166.953 63.911,166.730 60.567,166.404 59.800 C 166.192 59.302,166.149 59.831,166.288 61.200 M166.898 207.276 C 166.844 285.748,166.935 350.036,167.100 350.138 C 167.371 350.306,167.370 254.522,167.098 116.200 C 167.043 87.820,166.953 128.804,166.898 207.276 " stroke="none" fill="#349cf4" fill-rule="evenodd"></path></g></svg>