<svg width="30" height="30" viewBox="0 0 30 30" fill="none" xmlns="http://www.w3.org/2000/svg">
<path fill-rule="evenodd" clip-rule="evenodd" d="M21.8999 1.41C21.8999 1.4265 21.8324 1.44 21.7499 1.44C21.6674 1.44 21.5999 1.4535 21.5999 1.47C21.5999 1.4865 21.5594 1.5 21.5099 1.5C21.4604 1.5 21.4199 1.5135 21.4199 1.53C21.4199 1.5465 21.3929 1.56 21.3599 1.56C21.3269 1.56 21.2999 1.57351 21.2999 1.59001C21.2999 1.60651 21.2823 1.62001 21.2609 1.62001C21.2057 1.62001 21.0604 1.69058 21.0601 1.71751C21.0599 1.72988 21.0359 1.74001 21.0065 1.74001C20.9771 1.74001 20.9336 1.76701 20.9099 1.80001C20.8861 1.83301 20.8551 1.86001 20.8411 1.86001C20.8271 1.86001 20.7986 1.87688 20.778 1.89751C20.7573 1.91813 20.6977 1.96876 20.6454 2.01001C20.5931 2.05126 20.5503 2.10271 20.5502 2.12431C20.55 2.14591 20.5364 2.15521 20.5199 2.14501C20.5034 2.13481 20.4899 2.15506 20.4899 2.19001C20.4899 2.22496 20.4764 2.24521 20.4599 2.23501C20.4434 2.22481 20.4299 2.23456 20.4299 2.25661C20.4299 2.27873 20.4029 2.31623 20.3699 2.34001C20.3369 2.36378 20.3099 2.40728 20.3099 2.43661C20.3099 2.46601 20.2964 2.49001 20.2799 2.49001C20.2634 2.49001 20.2499 2.51701 20.2499 2.55001C20.2499 2.58301 20.2364 2.61001 20.2199 2.61001C20.2034 2.61001 20.1899 2.63701 20.1899 2.67001C20.1899 2.70301 20.1764 2.73001 20.1599 2.73001C20.1434 2.73001 20.1299 2.75701 20.1299 2.79001C20.1299 2.82301 20.1164 2.85001 20.0999 2.85001C20.0834 2.85001 20.0699 2.89643 20.0699 2.95321C20.0699 3.00998 20.0564 3.06481 20.0399 3.07501C20.0234 3.08521 20.0099 3.15353 20.0099 3.22681C20.0099 3.30008 19.9964 3.36001 19.9799 3.36001C19.9619 3.36001 19.9499 3.47941 19.9499 3.65821C19.9499 3.82471 19.9631 3.96466 19.9799 3.97501C19.9964 3.98521 20.0099 4.06028 20.0099 4.14181C20.0099 4.22333 20.0234 4.29001 20.0399 4.29001C20.0564 4.29001 20.0699 4.33051 20.0699 4.38001C20.0699 4.42951 20.0834 4.47001 20.0999 4.47001C20.1164 4.47001 20.1299 4.49701 20.1299 4.53001C20.1299 4.56301 20.1434 4.59001 20.1599 4.59001C20.1764 4.59001 20.1899 4.61041 20.1899 4.63538C20.1899 4.67708 20.2441 4.79431 20.2799 4.83001C20.2882 4.83826 20.3141 4.88213 20.3375 4.92751C20.3609 4.97288 20.3912 5.01001 20.405 5.01001C20.4186 5.01001 20.4299 5.02906 20.4299 5.05231C20.4299 5.11621 20.7215 5.40106 20.9249 5.53576C21.0239 5.60138 21.1094 5.66513 21.1148 5.67751C21.1204 5.68988 21.1508 5.70001 21.1823 5.70001C21.214 5.70001 21.2399 5.71351 21.2399 5.73001C21.2399 5.74651 21.2804 5.76001 21.3299 5.76001C21.3794 5.76001 21.4199 5.77351 21.4199 5.79001C21.4199 5.80651 21.4604 5.82001 21.5099 5.82001C21.5594 5.82001 21.5999 5.83351 21.5999 5.85001C21.5999 5.86651 21.6539 5.88001 21.7199 5.88001C21.7859 5.88001 21.8399 5.89351 21.8399 5.91001C21.8399 5.92853 21.9949 5.94001 22.2449 5.94001C22.4948 5.94001 22.6499 5.92853 22.6499 5.91001C22.6499 5.89351 22.7106 5.88001 22.7849 5.88001C22.8591 5.88001 22.9199 5.86651 22.9199 5.85001C22.9199 5.83351 22.9604 5.82001 23.0099 5.82001C23.0594 5.82001 23.0999 5.80651 23.0999 5.79001C23.0999 5.77351 23.1269 5.76001 23.1599 5.76001C23.1929 5.76001 23.2199 5.74651 23.2199 5.73001C23.2199 5.71351 23.2469 5.70001 23.2799 5.70001C23.3129 5.70001 23.3399 5.68943 23.3399 5.67661C23.3399 5.66371 23.377 5.63641 23.4224 5.61601C23.6064 5.53306 23.6897 5.47298 23.8485 5.30903C24.0565 5.09431 24.1199 5.01736 24.1199 4.97963C24.1199 4.96336 24.132 4.95001 24.1468 4.95001C24.1871 4.95001 24.3899 4.51231 24.3899 4.42538C24.3899 4.38391 24.4034 4.35001 24.4199 4.35001C24.4364 4.35001 24.4499 4.30358 24.4499 4.24681C24.4499 4.19003 24.4634 4.13521 24.4799 4.12501C24.4977 4.11398 24.5099 3.92408 24.5099 3.65648C24.5099 3.36413 24.4994 3.21293 24.4799 3.22501C24.4616 3.23633 24.4499 3.19028 24.4499 3.10681C24.4499 3.03158 24.4364 2.97001 24.4199 2.97001C24.4034 2.97001 24.3899 2.92951 24.3899 2.88001C24.3899 2.83051 24.3741 2.79001 24.3548 2.79001C24.3356 2.79001 24.3289 2.78093 24.34 2.76991C24.351 2.75881 24.3395 2.71831 24.3143 2.67991C24.2891 2.64143 24.2765 2.61001 24.2864 2.61001C24.2962 2.61001 24.2762 2.57446 24.242 2.53096C24.2078 2.48746 24.1799 2.43346 24.1799 2.41096C24.1799 2.38846 24.1664 2.37001 24.1499 2.37001C24.1334 2.37001 24.1199 2.35021 24.1199 2.32606C24.1199 2.26921 23.7073 1.86001 23.65 1.86001C23.626 1.86001 23.6147 1.84651 23.6249 1.83001C23.6351 1.81351 23.6156 1.80001 23.5817 1.80001C23.5477 1.80001 23.5199 1.78651 23.5199 1.77001C23.5199 1.75351 23.4895 1.73978 23.4524 1.73956C23.3978 1.73918 23.3935 1.73356 23.4299 1.71C23.4662 1.68645 23.462 1.68083 23.4074 1.68046C23.3702 1.68023 23.3399 1.66651 23.3399 1.65001C23.3399 1.63351 23.3129 1.62001 23.2799 1.62001C23.2469 1.62001 23.2199 1.60651 23.2199 1.59001C23.2199 1.57351 23.1869 1.56 23.1467 1.56C23.1064 1.56 23.0651 1.5465 23.0549 1.53C23.0447 1.5135 23.0033 1.5 22.9631 1.5C22.9228 1.5 22.8899 1.4865 22.8899 1.47C22.8899 1.4535 22.8299 1.44 22.7567 1.44C22.6834 1.44 22.6151 1.4265 22.6049 1.41C22.5942 1.39283 22.4396 1.38 22.2431 1.38C22.0343 1.38 21.8999 1.39178 21.8999 1.41ZM22.7663 2.22616C24.4703 2.85661 23.8294 5.44276 22.0348 5.17748C21.644 5.11966 20.9699 4.70491 20.9699 4.52221C20.9699 4.50683 20.9447 4.45846 20.9139 4.41466C20.7253 4.14623 20.6675 3.55973 20.7923 3.17971C21.0548 2.38013 21.9776 1.93433 22.7663 2.22616ZM22.9649 6.27001C22.9547 6.28651 22.8796 6.30001 22.7981 6.30001C22.7165 6.30001 22.6499 6.31351 22.6499 6.33001C22.6499 6.34651 22.5824 6.36001 22.4999 6.36001C22.4174 6.36001 22.3499 6.37351 22.3499 6.39001C22.3499 6.40651 22.3034 6.42001 22.2467 6.42001C22.1899 6.42001 22.1351 6.43351 22.1249 6.45001C22.1147 6.46651 22.0742 6.48001 22.0349 6.48001C21.9956 6.48001 21.9551 6.49351 21.9449 6.51001C21.9347 6.52651 21.8933 6.54001 21.8531 6.54001C21.8128 6.54001 21.7799 6.55351 21.7799 6.57001C21.7799 6.58651 21.7394 6.60001 21.6899 6.60001C21.6404 6.60001 21.5999 6.61351 21.5999 6.63001C21.5999 6.64651 21.5729 6.66001 21.5399 6.66001C21.5069 6.66001 21.4799 6.67351 21.4799 6.69001C21.4799 6.70651 21.4394 6.72001 21.3899 6.72001C21.3404 6.72001 21.2999 6.73351 21.2999 6.75001C21.2999 6.76651 21.2729 6.78001 21.2399 6.78001C21.2069 6.78001 21.1799 6.79351 21.1799 6.81001C21.1799 6.82651 21.1529 6.84001 21.1199 6.84001C21.0869 6.84001 21.0599 6.85351 21.0599 6.87001C21.0599 6.88651 21.0338 6.90001 21.002 6.90001C20.9702 6.90001 20.9263 6.91771 20.9045 6.93938C20.8827 6.96098 20.821 6.99803 20.7674 7.02166C20.7137 7.04528 20.6699 7.07483 20.6699 7.08736C20.6699 7.09981 20.649 7.11001 20.6235 7.11001C20.598 7.11001 20.5431 7.14398 20.5016 7.18561C20.46 7.22716 20.4158 7.25483 20.4034 7.24718C20.3909 7.23953 20.3618 7.25948 20.3387 7.29158C20.3156 7.32376 20.2822 7.35001 20.2646 7.35001C20.2469 7.35001 20.1728 7.40401 20.0999 7.47001C20.027 7.53601 19.9564 7.59001 19.9431 7.59001C19.9085 7.59001 19.2262 8.27873 19.1387 8.40188C19.0985 8.45858 19.0283 8.54416 18.9827 8.59193C18.9371 8.63978 18.8999 8.69416 18.8999 8.71283C18.8999 8.73151 18.8729 8.76623 18.8399 8.79001C18.8069 8.81378 18.7799 8.85428 18.7799 8.88001C18.7799 8.90573 18.7529 8.94623 18.7199 8.97001C18.6869 8.99378 18.6599 9.03728 18.6599 9.06661C18.6599 9.09601 18.6464 9.12001 18.6299 9.12001C18.6134 9.12001 18.5999 9.13771 18.5999 9.15938C18.5999 9.18098 18.5729 9.22771 18.5399 9.26311C18.5069 9.29851 18.4799 9.33818 18.4799 9.35123C18.48 9.37876 18.353 9.63766 18.3284 9.66001C18.3078 9.67876 18.1923 9.98543 18.1307 10.185C18.1052 10.2675 18.0721 10.3585 18.0571 10.3871C18.0421 10.4158 18.0299 10.4732 18.0299 10.5146C18.0299 10.5561 18.0164 10.59 17.9999 10.59C17.9834 10.59 17.9699 10.6373 17.9699 10.695C17.9699 10.7528 17.9564 10.8 17.9399 10.8C17.9234 10.8 17.9099 10.854 17.9099 10.92C17.9099 10.986 17.8964 11.04 17.8799 11.04C17.8632 11.04 17.8499 11.12 17.8499 11.22C17.8499 11.32 17.8365 11.4 17.8199 11.4C17.8015 11.4 17.7899 11.545 17.7899 11.775C17.7899 11.9813 17.7792 12.15 17.7662 12.15C17.7533 12.15 17.7395 12.1905 17.7358 12.24C17.7315 12.296 17.7432 12.3302 17.7669 12.3305C17.7928 12.3308 17.7905 12.3401 17.7599 12.3596C17.7227 12.3832 17.7215 12.3988 17.7524 12.4487C17.7761 12.4871 17.7899 12.6245 17.7899 12.8246C17.7899 13.0149 17.8018 13.14 17.8199 13.14C17.8365 13.14 17.8499 13.22 17.8499 13.32C17.8499 13.419 17.862 13.5 17.8769 13.5C17.8917 13.5 17.9113 13.5574 17.9204 13.6275C17.9534 13.8797 17.9769 13.98 18.0032 13.98C18.0179 13.98 18.0299 14.0139 18.0299 14.0554C18.0299 14.0969 18.0416 14.1542 18.0559 14.1829C18.088 14.247 18.1804 14.5154 18.1958 14.5891C18.2019 14.6188 18.2279 14.685 18.2534 14.7362C18.2789 14.7874 18.2999 14.8474 18.2999 14.8696C18.2999 14.8919 18.3134 14.91 18.3299 14.91C18.3464 14.91 18.3599 14.937 18.3599 14.97C18.3599 15.003 18.3734 15.03 18.3899 15.03C18.4064 15.03 18.4199 15.057 18.4199 15.09C18.4199 15.123 18.4334 15.15 18.4499 15.15C18.4664 15.15 18.4799 15.177 18.4799 15.21C18.4799 15.243 18.4917 15.27 18.5062 15.27C18.5207 15.27 18.5494 15.3105 18.5699 15.36C18.5903 15.4095 18.619 15.45 18.6335 15.45C18.648 15.45 18.6599 15.4701 18.6599 15.4948C18.6599 15.5194 18.6869 15.5564 18.7199 15.577C18.7529 15.5976 18.7799 15.6382 18.7799 15.6672C18.7799 15.6962 18.7934 15.72 18.8099 15.72C18.8264 15.72 18.8399 15.7382 18.8399 15.7606C18.8399 15.7829 18.8804 15.8435 18.9299 15.8953C18.9794 15.9471 19.0199 16.0014 19.0199 16.016C19.0199 16.0882 20.005 17.07 20.0774 17.07C20.09 17.07 20.1428 17.1105 20.1946 17.16C20.2464 17.2095 20.304 17.25 20.3227 17.25C20.3414 17.25 20.3756 17.2763 20.3987 17.3084C20.4218 17.3405 20.45 17.3611 20.4614 17.354C20.4728 17.3471 20.5209 17.375 20.5685 17.4161C20.616 17.4572 20.692 17.5075 20.7374 17.5277C20.7827 17.5481 20.8199 17.5748 20.8199 17.5874C20.8199 17.5998 20.8469 17.61 20.8799 17.61C20.9129 17.61 20.9399 17.6235 20.9399 17.64C20.9399 17.6565 20.9669 17.67 20.9999 17.67C21.0329 17.67 21.0599 17.6835 21.0599 17.7C21.0599 17.7165 21.0869 17.73 21.1199 17.73C21.1529 17.73 21.1799 17.7435 21.1799 17.76C21.1799 17.7765 21.2069 17.79 21.2399 17.79C21.2729 17.79 21.2999 17.8035 21.2999 17.82C21.2999 17.8365 21.3269 17.85 21.3599 17.85C21.3929 17.85 21.4199 17.8635 21.4199 17.88C21.4199 17.8965 21.4604 17.91 21.5099 17.91C21.5594 17.91 21.5999 17.9235 21.5999 17.94C21.5999 17.9565 21.6246 17.97 21.6548 17.97C21.6851 17.97 21.7193 17.9794 21.7307 17.9909C21.7422 18.0023 21.7681 18.0142 21.7883 18.0171C21.8084 18.0201 21.8894 18.0445 21.9684 18.0713C22.0474 18.0981 22.152 18.12 22.2009 18.12C22.2498 18.12 22.2899 18.1335 22.2899 18.15C22.2899 18.1665 22.3514 18.18 22.4267 18.18C22.5101 18.18 22.5562 18.1917 22.5449 18.21C22.5333 18.2288 22.5946 18.24 22.7081 18.24C22.8092 18.24 22.8899 18.2533 22.8899 18.27C22.8899 18.2879 23.0048 18.3 23.1749 18.3C23.353 18.3 23.4599 18.3118 23.4599 18.3314C23.4599 18.3517 23.5912 18.3611 23.8346 18.3581C24.0458 18.3556 24.2022 18.3419 24.1929 18.3268C24.1836 18.3118 24.3023 18.3 24.4631 18.3C24.6343 18.3 24.7499 18.2879 24.7499 18.27C24.7499 18.2534 24.8299 18.24 24.9299 18.24C25.0298 18.24 25.1099 18.2267 25.1099 18.21C25.1099 18.1935 25.1639 18.18 25.2299 18.18C25.2959 18.18 25.3499 18.1682 25.3499 18.1539C25.3499 18.1395 25.4305 18.1187 25.529 18.1075C25.6274 18.0964 25.716 18.0743 25.7257 18.0587C25.7354 18.0429 25.7756 18.03 25.8149 18.03C25.8542 18.03 25.893 18.0192 25.9012 18.0059C25.9094 17.9927 25.9844 17.9633 26.068 17.9405C26.1515 17.9178 26.2199 17.8881 26.2199 17.8746C26.2199 17.861 26.2469 17.85 26.2799 17.85C26.3129 17.85 26.3399 17.8365 26.3399 17.82C26.3399 17.8035 26.3669 17.79 26.3999 17.79C26.4329 17.79 26.4599 17.7765 26.4599 17.76C26.4599 17.7435 26.4803 17.73 26.5052 17.73C26.5493 17.73 26.6694 17.673 26.6999 17.6376C26.7081 17.628 26.7587 17.6011 26.8124 17.5778C26.866 17.5544 26.9099 17.5252 26.9099 17.5127C26.9099 17.5002 26.9377 17.49 26.9717 17.49C27.0056 17.49 27.0251 17.4765 27.0149 17.46C27.0047 17.4435 27.0173 17.43 27.0431 17.43C27.0688 17.43 27.0899 17.4165 27.0899 17.4C27.0899 17.3835 27.1107 17.37 27.1362 17.37C27.1617 17.37 27.2166 17.336 27.2582 17.2944C27.2997 17.2529 27.3485 17.228 27.3665 17.2391C27.386 17.2511 27.3905 17.2454 27.3777 17.2247C27.3659 17.2056 27.3713 17.19 27.3895 17.19C27.4077 17.19 27.4566 17.156 27.4982 17.1144C27.5397 17.0729 27.5885 17.048 27.6065 17.0591C27.626 17.0711 27.6305 17.0654 27.6177 17.0447C27.6059 17.0256 27.6113 17.01 27.6295 17.01C27.6477 17.01 27.6935 16.9796 27.7313 16.9425C27.769 16.9054 27.9034 16.7807 28.0299 16.6654C28.1564 16.5501 28.2599 16.438 28.2599 16.4162C28.2599 16.3943 28.2734 16.3848 28.2899 16.395C28.3064 16.4052 28.3199 16.3982 28.3199 16.3794C28.3199 16.3607 28.3739 16.2935 28.4399 16.23C28.5059 16.1666 28.5599 16.0994 28.5599 16.0806C28.5599 16.0619 28.5755 16.0561 28.5945 16.0679C28.6153 16.0808 28.621 16.0761 28.6088 16.0564C28.5976 16.0382 28.636 15.9758 28.6942 15.9177C28.7523 15.8596 28.7999 15.7943 28.7999 15.7727C28.7999 15.751 28.8269 15.7138 28.8599 15.69C28.8929 15.6662 28.9199 15.6353 28.9199 15.6213C28.9199 15.6073 28.9604 15.5369 29.0099 15.465C29.0594 15.3931 29.0999 15.3197 29.0999 15.3021C29.0999 15.2845 29.1134 15.27 29.1299 15.27C29.1464 15.27 29.1599 15.243 29.1599 15.21C29.1599 15.177 29.1734 15.15 29.1899 15.15C29.2064 15.15 29.2199 15.123 29.2199 15.09C29.2199 15.057 29.2356 15.03 29.2549 15.03C29.2741 15.03 29.2817 15.0218 29.2715 15.0117C29.2615 15.0017 29.2795 14.9445 29.3116 14.8847C29.3436 14.8248 29.3699 14.7521 29.3699 14.723C29.3699 14.6939 29.3834 14.67 29.3999 14.67C29.4164 14.67 29.4299 14.6371 29.4299 14.5968C29.4299 14.5565 29.4434 14.5152 29.4599 14.505C29.4764 14.4948 29.4899 14.4602 29.4899 14.4282C29.4899 14.3962 29.5034 14.37 29.5199 14.37C29.5364 14.37 29.5499 14.3371 29.5499 14.2968C29.5499 14.2565 29.5634 14.2152 29.5799 14.205C29.5964 14.1948 29.6099 14.1543 29.6099 14.115C29.6099 14.0757 29.6234 14.0352 29.6399 14.025C29.6564 14.0148 29.6699 13.96 29.6699 13.9032C29.6699 13.8464 29.6834 13.8 29.6999 13.8C29.7164 13.8 29.7299 13.7401 29.7299 13.6668C29.7299 13.5935 29.7434 13.5252 29.7599 13.515C29.7764 13.5048 29.7899 13.4297 29.7899 13.3482C29.7899 13.2667 29.8034 13.2 29.8199 13.2C29.8379 13.2 29.8499 13.0806 29.8499 12.9018C29.8499 12.7262 29.8628 12.5956 29.8813 12.5841C29.9193 12.5606 29.9144 12.0064 29.876 11.9826C29.8616 11.9738 29.8499 11.8255 29.8499 11.6532C29.8499 11.4644 29.8379 11.34 29.8199 11.34C29.8034 11.34 29.7899 11.2725 29.7899 11.19C29.7899 11.1075 29.7764 11.04 29.7599 11.04C29.7434 11.04 29.7299 10.9793 29.7299 10.905C29.7299 10.8308 29.7164 10.77 29.6999 10.77C29.6834 10.77 29.6699 10.7303 29.6699 10.6818C29.6699 10.6333 29.6564 10.5852 29.6399 10.575C29.6234 10.5648 29.6099 10.51 29.6099 10.4532C29.6099 10.3964 29.5964 10.35 29.5799 10.35C29.5634 10.35 29.5499 10.3171 29.5499 10.2768C29.5499 10.2365 29.5364 10.1952 29.5199 10.185C29.5034 10.1748 29.4899 10.1402 29.4899 10.1082C29.4899 10.0762 29.4764 10.05 29.4599 10.05C29.4434 10.05 29.4299 10.0095 29.4299 9.96001C29.4299 9.91051 29.4164 9.87001 29.3999 9.87001C29.3834 9.87001 29.3699 9.84556 29.3699 9.81571C29.3699 9.78593 29.3501 9.73531 29.3258 9.70321C29.3016 9.67118 29.2814 9.62138 29.2808 9.59251C29.2803 9.56363 29.2697 9.53993 29.2574 9.53978C29.2304 9.53948 29.1599 9.39421 29.1599 9.33901C29.1599 9.31756 29.1464 9.30001 29.1299 9.30001C29.1134 9.30001 29.0999 9.27976 29.0999 9.25501C29.0999 9.23026 29.0864 9.21001 29.0699 9.21001C29.0534 9.21001 29.0399 9.18976 29.0399 9.16501C29.0399 9.14026 29.0264 9.12001 29.0099 9.12001C28.9934 9.12001 28.9799 9.09601 28.9799 9.06661C28.9799 9.03728 28.9529 8.99378 28.9199 8.97001C28.8869 8.94623 28.8599 8.90573 28.8599 8.88001C28.8599 8.85428 28.8329 8.81378 28.7999 8.79001C28.7669 8.76623 28.7399 8.72813 28.7399 8.70541C28.7399 8.68268 28.7027 8.62831 28.6574 8.58451C28.612 8.54078 28.556 8.46833 28.5329 8.42356C28.5098 8.37871 28.4794 8.34916 28.4654 8.35778C28.4513 8.36648 28.4395 8.35591 28.439 8.33431C28.4384 8.31271 28.397 8.26126 28.3469 8.22001C28.2968 8.17876 28.2263 8.11411 28.1903 8.07638C27.8861 7.75763 27.6506 7.53001 27.6248 7.53001C27.6078 7.53001 27.558 7.49288 27.5141 7.44751C27.4702 7.40213 27.4161 7.36118 27.3938 7.35646C27.3716 7.35173 27.3341 7.32856 27.3106 7.30501C27.287 7.28138 27.2276 7.23848 27.1787 7.20961C27.1298 7.18073 27.0899 7.14646 27.0899 7.13356C27.0899 7.12058 27.0695 7.11001 27.0445 7.11001C26.9906 7.11001 26.8919 7.05623 26.8064 6.98048C26.7725 6.95041 26.7077 6.91838 26.6624 6.90923C26.617 6.90001 26.5799 6.88073 26.5799 6.86626C26.5799 6.85186 26.5529 6.84001 26.5199 6.84001C26.4869 6.84001 26.4599 6.82651 26.4599 6.81001C26.4599 6.79351 26.4329 6.78001 26.3999 6.78001C26.3669 6.78001 26.3399 6.76651 26.3399 6.75001C26.3399 6.73351 26.3127 6.72001 26.2795 6.72001C26.2463 6.72001 26.1923 6.70651 26.1595 6.69001C26.1267 6.67351 26.073 6.64651 26.0402 6.63001C26.0075 6.61351 25.9535 6.60001 25.9202 6.60001C25.887 6.60001 25.8599 6.58651 25.8599 6.57001C25.8599 6.55351 25.8194 6.54001 25.7699 6.54001C25.7204 6.54001 25.6799 6.52651 25.6799 6.51001C25.6799 6.49351 25.6469 6.48001 25.6067 6.48001C25.5664 6.48001 25.5251 6.46651 25.5149 6.45001C25.5047 6.43351 25.4498 6.42001 25.3931 6.42001C25.3363 6.42001 25.2899 6.40651 25.2899 6.39001C25.2899 6.37351 25.2367 6.36001 25.1717 6.36001C25.1066 6.36001 25.0451 6.34651 25.0349 6.33001C25.0247 6.31351 24.9437 6.30001 24.8549 6.30001C24.7661 6.30001 24.6851 6.28651 24.6749 6.27001C24.6632 6.25118 24.3452 6.24001 23.8199 6.24001C23.2946 6.24001 22.9765 6.25118 22.9649 6.27001ZM16.0199 6.45001C16.0199 6.46651 15.9657 6.48001 15.8995 6.48001C15.8333 6.48001 15.7556 6.49201 15.727 6.50671C15.6983 6.52141 15.6107 6.56401 15.5324 6.60143C15.454 6.63886 15.3899 6.68078 15.3899 6.69473C15.3899 6.70861 15.3686 6.72001 15.3425 6.72001C15.3164 6.72001 15.2422 6.77513 15.1775 6.84248C15.1128 6.90983 15.0599 6.95641 15.0599 6.94606C15.0599 6.93578 15.0261 6.96106 14.9849 7.00231C14.9436 7.04356 14.9099 7.09141 14.9099 7.10866C14.9099 7.12591 14.8989 7.14001 14.8855 7.14001C14.8721 7.14001 14.8425 7.18726 14.8199 7.24501C14.7972 7.30276 14.7677 7.35001 14.7542 7.35001C14.7408 7.35001 14.7299 7.39051 14.7299 7.44001C14.7299 7.48951 14.7164 7.53001 14.6999 7.53001C14.6834 7.53001 14.6699 7.57643 14.6699 7.63321C14.6699 7.68998 14.6564 7.74481 14.6399 7.75501C14.6045 7.77683 14.5986 8.34001 14.6337 8.34001C14.6468 8.34001 14.661 8.39026 14.6651 8.45161C14.6693 8.51296 14.6822 8.57033 14.6937 8.57911C14.7053 8.58788 14.7197 8.62876 14.7254 8.67001C14.7313 8.71126 14.7449 8.75176 14.7557 8.76001C14.7665 8.76826 14.8023 8.82653 14.8352 8.88961C14.9272 9.06623 15.3168 9.45001 15.404 9.45001C15.4292 9.45001 15.4499 9.46351 15.4499 9.48001C15.4499 9.49651 15.4769 9.51001 15.5099 9.51001C15.5429 9.51001 15.5699 9.52351 15.5699 9.54001C15.5699 9.55651 15.6036 9.57001 15.6449 9.57001C15.6861 9.57001 15.7199 9.58351 15.7199 9.60001C15.7199 9.61651 15.7739 9.63001 15.8399 9.63001C15.9059 9.63001 15.9599 9.64351 15.9599 9.66001C15.9599 9.67786 16.0742 9.69001 16.2431 9.69001C16.3996 9.69001 16.5346 9.67658 16.5449 9.66001C16.5551 9.64351 16.6091 9.63001 16.6649 9.63001C16.7207 9.63001 16.7747 9.61651 16.7849 9.60001C16.7951 9.58351 16.8364 9.57001 16.8767 9.57001C16.9169 9.57001 16.9499 9.55651 16.9499 9.54001C16.9499 9.52351 16.9676 9.51001 16.9892 9.51001C17.0108 9.51001 17.0576 9.48301 17.093 9.45001C17.1284 9.41701 17.172 9.39001 17.1899 9.39001C17.2268 9.39001 17.2625 9.36203 17.4308 9.20138C17.4963 9.13883 17.5499 9.07471 17.5499 9.05888C17.5499 9.04298 17.5634 9.03001 17.5799 9.03001C17.5964 9.03001 17.6099 9.00976 17.6099 8.98501C17.6099 8.96026 17.6234 8.94001 17.6399 8.94001C17.6564 8.94001 17.6699 8.91301 17.6699 8.88001C17.6699 8.84701 17.6834 8.82001 17.6999 8.82001C17.7164 8.82001 17.7299 8.79301 17.7299 8.76001C17.7299 8.72701 17.7434 8.70001 17.7599 8.70001C17.7764 8.70001 17.7899 8.66063 17.7899 8.61248C17.7899 8.56441 17.8026 8.52053 17.8182 8.51498C17.8338 8.50951 17.8497 8.43413 17.8535 8.34751C17.8574 8.26088 17.8717 8.19001 17.8852 8.19001C17.9207 8.19001 17.9157 7.92713 17.8799 7.90501C17.8634 7.89481 17.8499 7.81973 17.8499 7.73821C17.8499 7.65668 17.8364 7.59001 17.8199 7.59001C17.8034 7.59001 17.7899 7.54951 17.7899 7.50001C17.7899 7.45051 17.7764 7.41001 17.7599 7.41001C17.7434 7.41001 17.7299 7.38301 17.7299 7.35001C17.7299 7.31701 17.7164 7.29001 17.6999 7.29001C17.6834 7.29001 17.6699 7.26991 17.6699 7.24538C17.6699 7.17008 17.3184 6.78001 17.2505 6.78001C17.2317 6.78001 17.2247 6.76651 17.2349 6.75001C17.2451 6.73351 17.2256 6.72001 17.1917 6.72001C17.1577 6.72001 17.1298 6.70988 17.1296 6.69751C17.1293 6.67058 16.9841 6.60001 16.9289 6.60001C16.9074 6.60001 16.8899 6.58651 16.8899 6.57001C16.8899 6.55351 16.8637 6.54001 16.8317 6.54001C16.7996 6.54001 16.7651 6.52651 16.7549 6.51001C16.7447 6.49351 16.6696 6.48001 16.5881 6.48001C16.5065 6.48001 16.4399 6.46651 16.4399 6.45001C16.4399 6.43283 16.3499 6.42001 16.2299 6.42001C16.1099 6.42001 16.0199 6.43283 16.0199 6.45001ZM24.6149 7.01761C24.7139 7.03508 24.8556 7.06231 24.9299 7.07813C25.0041 7.09388 25.1054 7.11526 25.1549 7.12568C25.2044 7.13603 25.2719 7.15546 25.3049 7.16888C25.3379 7.18223 25.4256 7.21058 25.4999 7.23181C25.5741 7.25303 25.6477 7.28161 25.6634 7.29526C25.679 7.30883 25.7118 7.32001 25.7362 7.32001C25.8167 7.32001 26.5001 7.67176 26.7599 7.84681C27.9076 8.62066 28.737 9.81788 29.0135 11.1C29.0295 11.1743 29.0566 11.3025 29.0737 11.385C29.1228 11.6222 29.1418 12.7607 29.1006 13.005C29.0117 13.5332 28.9344 13.8215 28.773 14.2274C28.4858 14.9493 28.0336 15.6264 27.5056 16.125C27.272 16.3456 26.8089 16.71 26.7622 16.71C26.7472 16.71 26.7304 16.722 26.7248 16.7367C26.6753 16.8689 25.607 17.3307 25.0649 17.4544C24.5122 17.5805 24.4049 17.5924 23.8199 17.5924C23.2349 17.5924 23.1275 17.5805 22.5749 17.4544C22.0847 17.3426 21.4196 17.0724 21.0995 16.8551C21.0305 16.8083 20.9658 16.77 20.9557 16.77C20.9456 16.77 20.921 16.7563 20.9011 16.7395C20.8811 16.7227 20.7529 16.6268 20.6159 16.5264C19.6907 15.8478 18.992 14.8014 18.6652 13.605C18.5517 13.1899 18.5099 12.8294 18.5099 12.2684C18.5099 11.788 18.5225 11.6474 18.6031 11.235C18.8317 10.0645 19.5232 8.92133 20.4749 8.14081C20.831 7.84868 21.7532 7.32001 21.9067 7.32001C21.9293 7.32001 21.9607 7.30883 21.9764 7.29526C21.992 7.28161 22.0656 7.25303 22.1399 7.23173C22.2141 7.21043 22.3086 7.18268 22.3499 7.17001C22.5548 7.10708 22.7357 7.06771 23.1599 6.99391C23.3649 6.95821 24.3716 6.97463 24.6149 7.01761ZM16.6127 7.26676C17.4676 7.66838 17.1884 8.92381 16.2449 8.92111C15.3058 8.91841 15.0417 7.71931 15.8808 7.26833C16.057 7.17368 16.4129 7.17293 16.6127 7.26676ZM21.962 8.84183C21.8678 8.95621 21.8449 9.07613 21.899 9.17288C21.9453 9.25598 22.1399 9.68251 22.1399 9.70111C22.1399 9.71041 22.0937 9.76418 22.0373 9.82058C21.1447 10.7132 21.3566 12.1743 22.4582 12.7242C22.983 12.9862 23.391 12.9955 24.0299 12.7599C25.0936 12.3677 26.0108 13.2858 25.5407 14.2722C25.1641 15.0623 24.0768 15.1106 23.5795 14.3593C23.3776 14.0543 23.2061 13.9916 23.0142 14.1525C22.8218 14.3138 22.862 14.5704 23.1299 14.8907C23.5306 15.37 24.0455 15.596 24.6593 15.5622L24.9496 15.5462L25.049 15.7607C25.2127 16.1133 25.3556 16.2147 25.5653 16.127C25.7878 16.0341 25.8302 15.8109 25.6799 15.525C25.5592 15.2957 25.5638 15.268 25.7531 15.089C26.8288 14.0717 26.3265 12.3214 24.8699 12.0115C24.4835 11.9293 24.241 11.962 23.7149 12.1674C22.5756 12.6122 21.64 11.2808 22.4473 10.3637C22.9202 9.82643 23.9545 9.94621 24.2517 10.5727C24.4436 10.9772 25.0162 10.8451 24.9114 10.4205C24.7382 9.71881 23.7564 9.22118 22.8529 9.37711L22.7409 9.39646L22.6102 9.11483C22.417 8.69858 22.1669 8.59328 21.962 8.84183ZM11.6249 8.85001C11.6147 8.86651 11.5598 8.88001 11.5031 8.88001C11.4463 8.88001 11.3999 8.89351 11.3999 8.91001C11.3999 8.92651 11.3669 8.94001 11.3267 8.94001C11.2864 8.94001 11.2451 8.95351 11.2349 8.97001C11.2247 8.98651 11.1931 9.00001 11.1647 9.00001C11.1363 9.00001 11.0936 9.02701 11.0699 9.06001C11.0461 9.09301 11.009 9.12001 10.9875 9.12001C10.9381 9.12001 10.5899 9.45953 10.5899 9.50776C10.5899 9.52741 10.5764 9.53521 10.5599 9.52501C10.5434 9.51481 10.5299 9.52748 10.5299 9.55321C10.5299 9.57893 10.5164 9.60001 10.4999 9.60001C10.4834 9.60001 10.4699 9.62026 10.4699 9.64501C10.4699 9.66976 10.4564 9.69001 10.4399 9.69001C10.4234 9.69001 10.4099 9.71618 10.4099 9.74821C10.4099 9.78023 10.3964 9.81481 10.3799 9.82501C10.3634 9.83521 10.3499 9.87053 10.3499 9.90353C10.3499 9.93653 10.3364 9.95521 10.3199 9.94501C10.3024 9.93421 10.2899 9.96473 10.2899 10.0182C10.2899 10.0687 10.2764 10.11 10.2599 10.11C10.2432 10.11 10.2299 10.19 10.2299 10.29C10.2299 10.39 10.2165 10.47 10.1999 10.47C10.1832 10.47 10.1699 10.5494 10.1699 10.6482C10.1699 10.7462 10.1834 10.8348 10.1999 10.845C10.2164 10.8552 10.2299 10.9292 10.2299 11.0093C10.2299 11.0966 10.2449 11.162 10.2674 11.1725C10.2974 11.1865 10.2974 11.1935 10.2674 11.2075C10.2467 11.2172 10.2299 11.2517 10.2299 11.2843C10.2299 11.3169 10.2164 11.3352 10.1999 11.325C10.1834 11.3148 10.1699 11.3275 10.1699 11.3532C10.1699 11.3789 10.1564 11.4 10.1399 11.4C10.1234 11.4 10.1099 11.427 10.1099 11.46C10.1099 11.493 10.0964 11.52 10.0799 11.52C10.0634 11.52 10.0499 11.547 10.0499 11.58C10.0499 11.613 10.0364 11.64 10.0199 11.64C10.0034 11.64 9.98985 11.664 9.98985 11.6934C9.98985 11.7227 9.96285 11.7662 9.92985 11.79C9.89685 11.8138 9.86985 11.8573 9.86985 11.8866C9.86985 11.916 9.85635 11.94 9.83985 11.94C9.82335 11.94 9.80985 11.9603 9.80985 11.985C9.80985 12.0098 9.79973 12.0302 9.78735 12.0305C9.77498 12.0308 9.73185 12.0983 9.69143 12.1805C9.65108 12.2627 9.60968 12.33 9.59948 12.33C9.58928 12.33 9.55808 12.3739 9.53018 12.4275C9.50228 12.4811 9.4455 12.579 9.40403 12.645C9.36255 12.711 9.31965 12.7853 9.30878 12.81C9.2979 12.8348 9.26445 12.8768 9.23445 12.9035C9.20438 12.9302 9.17985 12.9711 9.17985 12.9944C9.17985 13.0177 9.15285 13.0562 9.11985 13.08C9.08685 13.1038 9.05985 13.1405 9.05985 13.1616C9.05985 13.1828 9.0486 13.2 9.03495 13.2C9.02123 13.2 8.99093 13.2371 8.9676 13.2825C8.94435 13.3279 8.90153 13.3868 8.87258 13.4135C8.84355 13.4402 8.81985 13.4753 8.81985 13.4916C8.81985 13.5078 8.77935 13.5635 8.72985 13.6153C8.68035 13.6671 8.63985 13.7239 8.63985 13.7415C8.63985 13.7591 8.62635 13.7652 8.60985 13.755C8.59335 13.7448 8.57985 13.7541 8.57985 13.7757C8.57978 13.7973 8.54453 13.8555 8.50148 13.905C8.45835 13.9545 8.38755 14.042 8.34398 14.0994C8.2353 14.2427 8.157 14.3363 8.07735 14.4181C8.04023 14.4561 8.00985 14.4947 8.00985 14.5038C8.00985 14.5335 6.9165 15.6125 6.79395 15.7037C6.72848 15.7526 6.63953 15.8297 6.59633 15.8752C6.55313 15.9207 6.50925 15.9494 6.49883 15.9389C6.4884 15.9285 6.47985 15.938 6.47985 15.96C6.47985 15.982 6.4713 15.9915 6.46088 15.9811C6.45045 15.9707 6.40455 16.0022 6.35888 16.0511C6.3132 16.1 6.25718 16.14 6.23445 16.14C6.21173 16.14 6.17363 16.167 6.14985 16.2C6.12608 16.233 6.08558 16.26 6.05985 16.26C6.03413 16.26 5.99363 16.287 5.96985 16.32C5.94607 16.353 5.90558 16.38 5.87985 16.38C5.85413 16.38 5.81362 16.407 5.78985 16.44C5.76607 16.473 5.72932 16.5 5.70825 16.5C5.6871 16.5 5.66985 16.5135 5.66985 16.53C5.66985 16.5465 5.64285 16.56 5.60985 16.56C5.57685 16.56 5.54985 16.5735 5.54985 16.59C5.54985 16.6065 5.52285 16.62 5.48985 16.62C5.45685 16.62 5.42985 16.6335 5.42985 16.65C5.42985 16.6665 5.39947 16.6802 5.36235 16.6805C5.30775 16.6808 5.30347 16.6865 5.33985 16.71C5.37502 16.7327 5.3673 16.7392 5.30415 16.7396C5.25975 16.7398 5.21505 16.7535 5.20485 16.77C5.19465 16.7865 5.1567 16.8002 5.12055 16.8005C5.06715 16.8008 5.06325 16.8064 5.09985 16.83C5.13532 16.853 5.12865 16.8592 5.06797 16.8596C5.02567 16.8598 4.93117 16.8883 4.85797 16.9229C4.4586 17.1116 4.39395 17.1449 4.38487 17.1664C4.37932 17.1794 4.34895 17.19 4.31737 17.19C4.28572 17.19 4.25985 17.2035 4.25985 17.22C4.25985 17.2365 4.23285 17.25 4.19985 17.25C4.16685 17.25 4.13985 17.2635 4.13985 17.28C4.13985 17.2965 4.11285 17.31 4.07985 17.31C4.04685 17.31 4.01985 17.3235 4.01985 17.34C4.01985 17.3565 3.99285 17.37 3.95985 17.37C3.92685 17.37 3.89985 17.3835 3.89985 17.4C3.89985 17.4165 3.87285 17.43 3.83985 17.43C3.80685 17.43 3.77985 17.4435 3.77985 17.46C3.77985 17.4765 3.75622 17.49 3.72742 17.49C3.66945 17.49 3.17077 17.7317 3.15487 17.7675C3.14932 17.7799 3.11895 17.79 3.08737 17.79C3.05572 17.79 3.02985 17.8035 3.02985 17.82C3.02985 17.8365 3.00285 17.85 2.96985 17.85C2.93685 17.85 2.90985 17.8635 2.90985 17.88C2.90985 17.8965 2.88285 17.91 2.84985 17.91C2.81685 17.91 2.78985 17.9235 2.78985 17.94C2.78985 17.9565 2.76285 17.97 2.72985 17.97C2.69685 17.97 2.66985 17.9835 2.66985 18C2.66985 18.0165 2.64285 18.03 2.60985 18.03C2.57685 18.03 2.54985 18.0435 2.54985 18.06C2.54985 18.0765 2.5254 18.09 2.49547 18.09C2.4471 18.09 2.20365 18.1917 2.06272 18.2708C2.03407 18.2869 1.9902 18.3 1.96522 18.3C1.94025 18.3 1.91985 18.3135 1.91985 18.33C1.91985 18.3465 1.89285 18.36 1.85985 18.36C1.82685 18.36 1.79985 18.3735 1.79985 18.39C1.79985 18.4065 1.77285 18.42 1.73985 18.42C1.70685 18.42 1.67985 18.4335 1.67985 18.45C1.67985 18.4665 1.65285 18.48 1.61985 18.48C1.58685 18.48 1.55985 18.4935 1.55985 18.51C1.55985 18.5265 1.53285 18.54 1.49985 18.54C1.46685 18.54 1.43985 18.5535 1.43985 18.57C1.43985 18.5865 1.41285 18.6 1.37985 18.6C1.34684 18.6 1.31984 18.6135 1.31984 18.63C1.31984 18.6465 1.29284 18.66 1.25984 18.66C1.22684 18.66 1.19984 18.6735 1.19984 18.69C1.19984 18.7065 1.17284 18.72 1.13984 18.72C1.10684 18.72 1.07984 18.7335 1.07984 18.75C1.07984 18.7665 1.05607 18.78 1.02704 18.78C0.99802 18.78 0.957445 18.807 0.93682 18.84C0.916195 18.873 0.883645 18.9 0.864445 18.9C0.820495 18.9 0.509844 19.2263 0.509844 19.2725C0.509844 19.2914 0.482844 19.3262 0.449844 19.35C0.416844 19.3738 0.389844 19.4105 0.389844 19.4316C0.389844 19.4528 0.376344 19.47 0.359844 19.47C0.343344 19.47 0.329844 19.497 0.329844 19.53C0.329844 19.563 0.316344 19.59 0.299844 19.59C0.283344 19.59 0.269844 19.6162 0.269844 19.6482C0.269844 19.6802 0.256344 19.7148 0.239844 19.725C0.223344 19.7352 0.209844 19.7757 0.209844 19.815C0.209844 19.8543 0.196344 19.8948 0.179844 19.905C0.163344 19.9152 0.149844 20.0045 0.149844 20.1035C0.149844 20.2159 0.138594 20.2766 0.119844 20.265C0.101019 20.2534 0.0898438 20.3197 0.0898438 20.4432C0.0898438 20.5544 0.102894 20.64 0.119844 20.64C0.136494 20.64 0.149844 20.72 0.149844 20.82C0.149844 20.92 0.163194 21 0.179844 21C0.196344 21 0.209844 21.0405 0.209844 21.09C0.209844 21.1395 0.223344 21.18 0.239844 21.18C0.256344 21.18 0.269844 21.2062 0.269844 21.2382C0.269844 21.2702 0.283344 21.3048 0.299844 21.315C0.316344 21.3252 0.329844 21.3605 0.329844 21.3935C0.329844 21.4265 0.343344 21.4452 0.359844 21.435C0.376344 21.4248 0.389844 21.443 0.389844 21.4754C0.389844 21.538 0.509394 21.7881 0.547344 21.805C0.559719 21.8105 0.569844 21.8409 0.569844 21.8725C0.569844 21.9041 0.583344 21.93 0.599844 21.93C0.616344 21.93 0.629919 21.9536 0.629994 21.9825C0.630144 22.0114 0.650394 22.0737 0.674994 22.121C0.699669 22.1682 0.719844 22.2256 0.719844 22.2485C0.719844 22.2713 0.733344 22.29 0.749844 22.29C0.766344 22.29 0.779844 22.317 0.779844 22.35C0.779844 22.383 0.789969 22.4101 0.802345 22.4102C0.82927 22.4105 0.899845 22.5558 0.899845 22.611C0.899845 22.6325 0.913345 22.65 0.929845 22.65C0.946345 22.65 0.959845 22.6698 0.959845 22.694C0.959845 22.7181 0.994045 22.7991 1.03582 22.874C1.07759 22.9488 1.10122 23.0102 1.08832 23.0105C1.07542 23.0107 1.07834 23.0208 1.09484 23.033C1.13894 23.0654 1.19984 23.1823 1.19984 23.2346C1.19984 23.2596 1.20997 23.2801 1.22234 23.2802C1.24927 23.2805 1.31984 23.4258 1.31984 23.481C1.31984 23.5025 1.33334 23.52 1.34985 23.52C1.36635 23.52 1.37985 23.547 1.37985 23.58C1.37985 23.613 1.39334 23.64 1.40984 23.64C1.42634 23.64 1.43985 23.667 1.43985 23.7C1.43985 23.733 1.45335 23.76 1.46985 23.76C1.48635 23.76 1.49985 23.787 1.49985 23.82C1.49985 23.853 1.51335 23.88 1.52985 23.88C1.54635 23.88 1.55985 23.907 1.55985 23.94C1.55985 23.973 1.57335 24 1.58985 24C1.60635 24 1.61985 24.027 1.61985 24.06C1.61985 24.093 1.63335 24.12 1.64985 24.12C1.66635 24.12 1.67985 24.147 1.67985 24.18C1.67985 24.213 1.69335 24.24 1.70985 24.24C1.72635 24.24 1.73985 24.2531 1.73985 24.2692C1.73985 24.2852 1.79722 24.3611 1.86735 24.4376C1.93747 24.5142 2.03062 24.6158 2.07435 24.6635C2.11815 24.7111 2.17627 24.75 2.20365 24.75C2.23102 24.75 2.24505 24.7635 2.23485 24.78C2.22465 24.7965 2.23732 24.81 2.26305 24.81C2.28877 24.81 2.30985 24.8235 2.30985 24.84C2.30985 24.8565 2.33685 24.87 2.36985 24.87C2.40285 24.87 2.42985 24.8835 2.42985 24.9C2.42985 24.9165 2.45685 24.93 2.48985 24.93C2.52285 24.93 2.54985 24.9435 2.54985 24.96C2.54985 24.9765 2.57685 24.99 2.60985 24.99C2.64285 24.99 2.66985 25.0035 2.66985 25.02C2.66985 25.0365 2.70952 25.05 2.75805 25.05C2.80657 25.05 2.85465 25.0635 2.86485 25.08C2.87602 25.098 3.07957 25.11 3.37485 25.11C3.67012 25.11 3.87367 25.098 3.88485 25.08C3.89505 25.0635 3.94312 25.05 3.99165 25.05C4.04017 25.05 4.07985 25.0365 4.07985 25.02C4.07985 25.0035 4.10685 24.99 4.13985 24.99C4.17285 24.99 4.19985 24.9765 4.19985 24.96C4.19985 24.9435 4.2336 24.93 4.27485 24.93C4.3161 24.93 4.34985 24.9165 4.34985 24.9C4.34985 24.8249 4.44742 24.8843 4.58002 25.0403C4.65967 25.134 4.81935 25.3082 4.93485 25.4273C5.33317 25.8381 5.62522 26.1519 5.74485 26.2978C5.81085 26.3783 6.03022 26.6102 6.23235 26.8133C6.43448 27.0165 6.59985 27.1958 6.59985 27.2119C6.59985 27.2279 6.68423 27.3278 6.78735 27.4336C6.89048 27.5394 7.02885 27.6884 7.09485 27.7647C7.32518 28.0307 7.37415 28.08 7.40865 28.08C7.42778 28.08 7.43505 28.0935 7.42485 28.11C7.41465 28.1265 7.42748 28.14 7.45335 28.14C7.47923 28.14 7.54275 28.1805 7.59458 28.23C7.6464 28.2795 7.707 28.32 7.72928 28.32C7.75163 28.32 7.76985 28.3335 7.76985 28.35C7.76985 28.3665 7.79685 28.38 7.82985 28.38C7.86285 28.38 7.88985 28.3935 7.88985 28.41C7.88985 28.4265 7.91685 28.44 7.94985 28.44C7.98285 28.44 8.00985 28.4535 8.00985 28.47C8.00985 28.4865 8.05035 28.5 8.09985 28.5C8.14935 28.5 8.18985 28.5121 8.18985 28.5269C8.18985 28.566 8.40038 28.595 8.76735 28.6063C8.955 28.6121 9.08985 28.6045 9.08985 28.5881C9.08985 28.5727 9.14385 28.56 9.20985 28.56C9.27585 28.56 9.32985 28.5465 9.32985 28.53C9.32985 28.5135 9.37035 28.5 9.41985 28.5C9.46935 28.5 9.50985 28.4865 9.50985 28.47C9.50985 28.4535 9.53685 28.44 9.56985 28.44C9.60285 28.44 9.62985 28.4265 9.62985 28.41C9.62985 28.3935 9.65685 28.38 9.68985 28.38C9.72285 28.38 9.74985 28.3665 9.74985 28.35C9.74985 28.3335 9.77145 28.32 9.79785 28.32C9.82418 28.32 9.88358 28.2795 9.92985 28.23C9.97613 28.1805 10.0249 28.14 10.0382 28.14C10.0782 28.14 10.4099 27.7748 10.4099 27.7308C10.4099 27.7084 10.4234 27.69 10.4399 27.69C10.4564 27.69 10.4699 27.663 10.4699 27.63C10.4699 27.597 10.4856 27.57 10.5049 27.57C10.5241 27.57 10.5317 27.5618 10.5215 27.5517C10.5115 27.5417 10.5295 27.4845 10.5616 27.4247C10.5936 27.3648 10.6199 27.2651 10.6199 27.203C10.6199 27.1409 10.6334 27.09 10.6499 27.09C10.6871 27.09 10.6912 26.2906 10.6541 26.2676C10.64 26.2589 10.6206 26.1855 10.611 26.1044C10.5914 25.9388 10.4857 25.6898 10.404 25.6165C10.3742 25.5898 10.3499 25.5516 10.3499 25.5317C10.3499 25.5116 10.2959 25.4435 10.2299 25.38C10.1639 25.3166 10.1099 25.2507 10.1099 25.2335C10.1099 25.2164 10.0559 25.1489 9.98985 25.0835C9.92385 25.0182 9.86985 24.95 9.86985 24.9321C9.86985 24.9141 9.82935 24.8571 9.77985 24.8053C9.73035 24.7535 9.68985 24.6961 9.68985 24.6778C9.68985 24.6594 9.66285 24.6276 9.62985 24.607C9.59685 24.5864 9.56985 24.5523 9.56985 24.5314C9.56985 24.5104 9.54285 24.4738 9.50985 24.45C9.47685 24.4262 9.44985 24.3885 9.44985 24.3662C9.44985 24.344 9.43298 24.3069 9.41235 24.2839C9.31905 24.1799 9.29985 24.1496 9.29985 24.1063C9.29985 24.0809 9.288 24.06 9.27353 24.06C9.25898 24.06 9.23033 24.0195 9.20985 23.97C9.18938 23.9205 9.16403 23.88 9.15368 23.88C9.14325 23.88 9.10133 23.8159 9.06053 23.7375C9.01973 23.6591 8.97818 23.5883 8.9682 23.58C8.95823 23.5718 8.93093 23.5211 8.9076 23.4675C8.88428 23.4139 8.85503 23.37 8.8425 23.37C8.83005 23.37 8.81985 23.3498 8.81985 23.325C8.81985 23.3003 8.8089 23.28 8.79548 23.28C8.78205 23.28 8.7525 23.2328 8.72985 23.175C8.7072 23.1173 8.67765 23.07 8.66423 23.07C8.6508 23.07 8.63985 23.0441 8.63985 23.0125C8.63985 22.9809 8.62313 22.9494 8.60265 22.9426C8.54078 22.922 8.65523 22.83 8.74268 22.83C8.78513 22.83 8.81985 22.8165 8.81985 22.8C8.81985 22.7835 8.8536 22.77 8.89485 22.77C8.9361 22.77 8.96985 22.7565 8.96985 22.74C8.96985 22.7235 9.00953 22.71 9.05805 22.71C9.10658 22.71 9.15465 22.6965 9.16485 22.68C9.17505 22.6635 9.21638 22.65 9.25665 22.65C9.29693 22.65 9.32985 22.6365 9.32985 22.62C9.32985 22.6035 9.38385 22.59 9.44985 22.59C9.51585 22.59 9.56985 22.5765 9.56985 22.56C9.56985 22.5435 9.61628 22.53 9.67305 22.53C9.72983 22.53 9.78465 22.5165 9.79485 22.5C9.80505 22.4835 9.86663 22.47 9.93165 22.47C9.99668 22.47 10.0499 22.4565 10.0499 22.44C10.0499 22.4235 10.1233 22.41 10.2131 22.41C10.3028 22.41 10.3847 22.3965 10.3949 22.38C10.4051 22.3635 10.4869 22.35 10.5767 22.35C10.6664 22.35 10.7399 22.3365 10.7399 22.32C10.7399 22.3022 10.8499 22.29 11.0099 22.29C11.1698 22.29 11.2799 22.2778 11.2799 22.26C11.2799 22.2406 11.6693 22.23 12.3881 22.23C13.0946 22.23 13.503 22.2409 13.5149 22.26C13.5253 22.2769 13.6702 22.29 13.8467 22.29C14.0189 22.29 14.1599 22.3025 14.1599 22.3176C14.1599 22.3328 14.2577 22.3527 14.3774 22.3619C14.8205 22.3957 14.9699 22.416 14.9699 22.4427C14.9699 22.4577 15.0497 22.47 15.1474 22.47C15.245 22.47 15.3293 22.4828 15.3349 22.4984C15.3404 22.514 15.409 22.53 15.4874 22.534C15.5657 22.538 15.6299 22.5522 15.6299 22.5656C15.6299 22.5791 15.6591 22.59 15.6949 22.59C15.7306 22.59 15.7517 22.5982 15.7417 22.6082C15.7196 22.6302 15.7526 22.6725 15.9341 22.855C16.0931 23.015 16.1699 23.0801 16.1699 23.055C16.1699 23.0455 16.1994 23.0652 16.2355 23.0988C16.2716 23.1325 16.3189 23.16 16.3405 23.16C16.3622 23.16 16.3799 23.1735 16.3799 23.19C16.3799 23.2065 16.4069 23.22 16.4399 23.22C16.4729 23.22 16.4999 23.2335 16.4999 23.25C16.4999 23.2665 16.5395 23.28 16.5881 23.28C16.6366 23.28 16.6847 23.2935 16.6949 23.31C16.7051 23.3265 16.7599 23.34 16.8167 23.34C16.8734 23.34 16.9199 23.352 16.9199 23.3666C16.9199 23.3813 17.0751 23.3954 17.2649 23.398C17.4881 23.4011 17.6099 23.3917 17.6099 23.3714C17.6099 23.3541 17.6639 23.34 17.7299 23.34C17.7959 23.34 17.8499 23.3265 17.8499 23.31C17.8499 23.2935 17.8836 23.28 17.9249 23.28C17.9661 23.28 17.9999 23.2665 17.9999 23.25C17.9999 23.2335 18.0269 23.22 18.0599 23.22C18.0929 23.22 18.1199 23.2065 18.1199 23.19C18.1199 23.1735 18.1469 23.16 18.1799 23.16C18.2129 23.16 18.2399 23.1482 18.2399 23.1337C18.2399 23.1191 18.2791 23.091 18.3271 23.0711C18.4223 23.0318 18.6899 22.7888 18.6899 22.7419C18.6899 22.7258 18.7236 22.679 18.7649 22.6377C18.8061 22.5965 18.8399 22.5513 18.8399 22.5374C18.8399 22.4928 18.914 22.3505 18.9374 22.3502C18.9497 22.3501 18.9599 22.3238 18.9599 22.2918C18.9599 22.2598 18.9734 22.2252 18.9899 22.215C19.0064 22.2048 19.0199 22.1508 19.0199 22.095C19.0199 22.0392 19.0334 21.9852 19.0499 21.975C19.0674 21.9641 19.0799 21.7903 19.0799 21.555C19.0799 21.3197 19.0674 21.1459 19.0499 21.135C19.0334 21.1248 19.0199 21.0767 19.0199 21.0282C19.0199 20.9797 19.0064 20.94 18.9899 20.94C18.9734 20.94 18.9599 20.9157 18.9599 20.886C18.9599 20.819 18.8928 20.6705 18.8624 20.6702C18.85 20.6701 18.8399 20.643 18.8399 20.61C18.8399 20.577 18.8264 20.55 18.8099 20.55C18.7934 20.55 18.7799 20.523 18.7799 20.49C18.7799 20.457 18.7664 20.43 18.7499 20.43C18.7334 20.43 18.7199 20.403 18.7199 20.37C18.7199 20.337 18.7064 20.31 18.6899 20.31C18.6734 20.31 18.6599 20.283 18.6599 20.25C18.6599 20.217 18.6464 20.19 18.6299 20.19C18.6134 20.19 18.5999 20.163 18.5999 20.13C18.5999 20.097 18.5864 20.07 18.5699 20.07C18.5534 20.07 18.5399 20.043 18.5399 20.01C18.5399 19.977 18.5264 19.95 18.5099 19.95C18.4934 19.95 18.4799 19.9249 18.4799 19.8942C18.4799 19.8341 18.2995 19.4615 18.2624 19.445C18.25 19.4395 18.2399 19.4091 18.2399 19.3775C18.2399 19.3459 18.2264 19.32 18.2099 19.32C18.1934 19.32 18.1799 19.293 18.1799 19.26C18.1799 19.227 18.1664 19.2 18.1499 19.2C18.1334 19.2 18.1198 19.1764 18.1197 19.1475C18.1196 19.1186 18.0993 19.0563 18.0747 19.0091C18.05 18.9618 18.0299 18.9044 18.0299 18.8816C18.0299 18.8587 18.0164 18.84 17.9999 18.84C17.9834 18.84 17.9699 18.813 17.9699 18.78C17.9699 18.747 17.9564 18.72 17.9399 18.72C17.9234 18.72 17.9099 18.7011 17.9099 18.6781C17.9099 18.655 17.8694 18.5591 17.8199 18.465C17.7704 18.3709 17.7299 18.275 17.7299 18.2519C17.7299 18.2289 17.7197 18.2099 17.7074 18.2098C17.6804 18.2095 17.6099 18.0642 17.6099 18.009C17.6099 17.9876 17.5997 17.9699 17.5874 17.9698C17.5604 17.9695 17.4899 17.8242 17.4899 17.769C17.4899 17.7476 17.4764 17.73 17.4599 17.73C17.4434 17.73 17.4299 17.703 17.4299 17.67C17.4299 17.637 17.4164 17.61 17.3999 17.61C17.3834 17.61 17.3699 17.583 17.3699 17.55C17.3699 17.517 17.3564 17.49 17.3399 17.49C17.3234 17.49 17.3099 17.463 17.3099 17.43C17.3099 17.397 17.2964 17.37 17.2799 17.37C17.2634 17.37 17.2499 17.3525 17.2499 17.331C17.2499 17.2758 17.1793 17.1305 17.1524 17.1302C17.14 17.1301 17.1299 17.0963 17.1299 17.055C17.1299 17.0138 17.1164 16.98 17.0999 16.98C17.0834 16.98 17.0699 16.953 17.0699 16.92C17.0699 16.887 17.0597 16.8599 17.0474 16.8598C17.0204 16.8595 16.9499 16.7142 16.9499 16.659C16.9499 16.6376 16.9364 16.62 16.9199 16.62C16.9034 16.62 16.8899 16.5997 16.8899 16.5749C16.8899 16.55 16.8561 16.4597 16.8149 16.3742C16.7736 16.2887 16.7399 16.2011 16.7399 16.1794C16.7399 16.1577 16.7264 16.14 16.7099 16.14C16.6934 16.14 16.6799 16.113 16.6799 16.08C16.6799 16.047 16.6664 16.02 16.6499 16.02C16.6334 16.02 16.6199 15.993 16.6199 15.96C16.6199 15.927 16.6064 15.9 16.5899 15.9C16.5734 15.9 16.5599 15.8809 16.5599 15.8575C16.5599 15.8341 16.5134 15.7275 16.4567 15.6206C16.4 15.5137 16.3618 15.4181 16.3718 15.4082C16.3817 15.3982 16.3741 15.39 16.3549 15.39C16.3356 15.39 16.3199 15.363 16.3199 15.33C16.3199 15.297 16.3064 15.27 16.2899 15.27C16.2734 15.27 16.2599 15.243 16.2599 15.21C16.2599 15.177 16.2464 15.15 16.2299 15.15C16.2134 15.15 16.1999 15.123 16.1999 15.09C16.1999 15.057 16.1897 15.0299 16.1774 15.0298C16.1504 15.0295 16.0799 14.8842 16.0799 14.829C16.0799 14.8076 16.0697 14.7899 16.0574 14.7898C16.0304 14.7895 15.9599 14.6442 15.9599 14.589C15.9599 14.5676 15.9464 14.55 15.9299 14.55C15.9134 14.55 15.8999 14.523 15.8999 14.49C15.8999 14.457 15.8864 14.43 15.8699 14.43C15.8534 14.43 15.8399 14.3963 15.8399 14.355C15.8399 14.3138 15.8264 14.28 15.8099 14.28C15.7934 14.28 15.7799 14.253 15.7799 14.22C15.7799 14.187 15.7664 14.16 15.7499 14.16C15.7334 14.16 15.7199 14.133 15.7199 14.1C15.7199 14.067 15.7064 14.04 15.6899 14.04C15.6734 14.04 15.6599 14.013 15.6599 13.98C15.6599 13.947 15.6464 13.92 15.6299 13.92C15.6134 13.92 15.5999 13.8953 15.5999 13.865C15.5999 13.8347 15.5897 13.7999 15.5774 13.7875C15.565 13.7751 15.5546 13.756 15.5543 13.745C15.5533 13.7071 15.3169 13.245 15.2934 13.235C15.2804 13.2295 15.2699 13.2057 15.2699 13.1821C15.2699 13.1425 15.2148 13.025 15.1799 12.99C15.1716 12.9818 15.1601 12.948 15.1544 12.915C15.1486 12.882 15.1331 12.8483 15.1199 12.84C15.1067 12.8318 15.0911 12.798 15.0854 12.765C15.0796 12.732 15.0578 12.687 15.0371 12.6651C15.0163 12.6431 15.007 12.6128 15.0164 12.5976C15.0257 12.5824 15.0191 12.57 15.0017 12.57C14.9842 12.57 14.9699 12.543 14.9699 12.51C14.9699 12.477 14.9564 12.45 14.9399 12.45C14.9234 12.45 14.9099 12.423 14.9099 12.39C14.9099 12.357 14.8997 12.3299 14.8874 12.3298C14.8604 12.3295 14.7899 12.1842 14.7899 12.129C14.7899 12.1076 14.7764 12.09 14.7599 12.09C14.7434 12.09 14.7299 12.063 14.7299 12.03C14.7299 11.997 14.7164 11.97 14.6999 11.97C14.6834 11.97 14.6699 11.9498 14.6699 11.925C14.6699 11.9003 14.6564 11.88 14.6399 11.88C14.6234 11.88 14.6099 11.853 14.6099 11.82C14.6099 11.787 14.5964 11.76 14.5799 11.76C14.5634 11.76 14.5499 11.7396 14.5499 11.7146C14.5499 11.6897 14.5364 11.6424 14.5199 11.6096C14.5034 11.5769 14.4764 11.5232 14.4599 11.4904C14.4434 11.4576 14.4299 11.4104 14.4299 11.3854C14.4299 11.3604 14.4164 11.34 14.3999 11.34C14.3834 11.34 14.3699 11.3192 14.3699 11.2937C14.3699 11.2371 14.0978 10.6691 14.0639 10.655C14.0507 10.6495 14.0399 10.6191 14.0399 10.5875C14.0399 10.5559 14.0264 10.53 14.0099 10.53C13.9934 10.53 13.9799 10.503 13.9799 10.47C13.9799 10.437 13.9664 10.41 13.9499 10.41C13.9334 10.41 13.9199 10.383 13.9199 10.35C13.9199 10.317 13.9064 10.29 13.8899 10.29C13.8734 10.29 13.8599 10.263 13.8599 10.23C13.8599 10.197 13.8464 10.17 13.8299 10.17C13.8134 10.17 13.7999 10.146 13.7999 10.1167C13.7999 10.0874 13.7613 9.98896 13.7141 9.89806C13.5815 9.64253 13.5489 9.58943 13.4924 9.53678C13.4635 9.50993 13.4399 9.47941 13.4399 9.46891C13.4399 9.44048 13.2216 9.24001 13.1906 9.24001C13.1759 9.24001 13.1278 9.20288 13.0836 9.15751C12.989 9.06038 12.8893 9.00001 12.8235 9.00001C12.7976 9.00001 12.7847 8.98651 12.7949 8.97001C12.8057 8.95253 12.7757 8.94001 12.7234 8.94001C12.6739 8.94001 12.6251 8.92651 12.6149 8.91001C12.6047 8.89351 12.5633 8.88001 12.5231 8.88001C12.4828 8.88001 12.4499 8.86651 12.4499 8.85001C12.4499 8.83148 12.2954 8.82001 12.0467 8.82001C11.8102 8.82001 11.6357 8.83238 11.6249 8.85001ZM12.2041 9.57301C12.6065 9.66736 12.8762 9.89693 13.0641 10.305C13.0945 10.371 13.2133 10.6208 13.3281 10.86C13.4429 11.0993 13.6175 11.4638 13.7161 11.67C14.0507 12.37 14.1536 12.5843 14.3858 13.065C14.5133 13.329 14.6615 13.6395 14.715 13.755C14.7686 13.8705 14.9099 14.1675 15.0292 14.415C15.1484 14.6625 15.3107 15 15.3898 15.165C15.4688 15.33 15.6379 15.681 15.7653 15.945C15.8927 16.209 16.0408 16.5195 16.0943 16.635C16.1855 16.8318 16.2952 17.0604 16.7893 18.0825C16.8989 18.3094 17.0593 18.6435 17.1456 18.825C17.2319 19.0065 17.3795 19.317 17.4737 19.515C17.7061 20.0039 17.9357 20.4802 18.1424 20.9025L18.3149 21.255L18.3146 21.57C18.3141 22.2251 17.912 22.6325 17.2649 22.6334C16.7465 22.6341 16.4657 22.4341 16.1943 21.8708C16.1106 21.6971 15.9644 21.393 15.8695 21.195C15.7745 20.997 15.6124 20.6595 15.5093 20.445C15.4062 20.2305 15.2445 19.893 15.1501 19.695C14.97 19.3175 14.7545 18.8681 14.4523 18.24C14.353 18.0338 14.2145 17.7435 14.1444 17.595C13.9691 17.2238 13.4936 16.2324 13.0868 15.39C12.9632 15.1343 12.8184 14.8305 12.7649 14.715C12.7115 14.5995 12.5699 14.3025 12.4502 14.055C11.883 12.8816 11.6084 12.3086 11.3789 11.82C11.3054 11.6633 11.1942 11.427 11.1319 11.295C10.9544 10.9187 10.9499 10.9021 10.9499 10.6304C10.9499 9.95978 11.5817 9.42713 12.2041 9.57301ZM11.0312 12.6533C11.1704 12.9457 11.3559 13.3335 11.4435 13.515C11.972 14.6099 12.2119 15.1106 12.4857 15.69C12.6347 16.0054 12.7106 16.163 13.1711 17.115C13.3067 17.3955 13.4549 17.706 13.5002 17.805C13.5455 17.904 13.6867 18.201 13.814 18.465C13.9412 18.729 14.11 19.08 14.1891 19.245C14.2682 19.41 14.4175 19.7205 14.5209 19.935C14.6243 20.1495 14.7723 20.46 14.8499 20.625C14.9276 20.79 15.0758 21.0981 15.1793 21.3096C15.3824 21.7243 15.3839 21.7626 15.1947 21.721C14.3917 21.5442 12.7301 21.4236 11.8421 21.4775C10.3934 21.5656 9.5913 21.7157 8.52278 22.0988C8.16315 22.2278 8.15813 22.2274 8.07848 22.057C8.04195 21.9789 7.89563 21.672 7.7532 21.375C7.61085 21.078 7.44015 20.7203 7.37393 20.58C7.3077 20.4398 7.17548 20.163 7.08015 19.965C6.75015 19.2798 6.53108 18.8234 6.36008 18.465C6.26565 18.267 6.11423 17.9498 6.02363 17.76C5.93302 17.5703 5.85105 17.3927 5.84145 17.3654C5.82622 17.3223 6.09795 17.1 6.16575 17.1C6.2247 17.1 6.87165 16.6266 7.28888 16.2782C8.03468 15.6553 9.02655 14.558 9.56948 13.755C9.62528 13.6725 9.67995 13.5983 9.69105 13.59C9.73088 13.5604 10.4699 12.4025 10.4699 12.3698C10.4699 12.3621 10.5081 12.2994 10.5548 12.2304C10.6016 12.1614 10.65 12.078 10.6626 12.045C10.6949 11.9601 10.725 12.0098 11.0312 12.6533ZM5.39527 18.0075C5.67555 18.5873 5.9376 19.1342 6.06 19.395C6.12195 19.527 6.27367 19.8443 6.39713 20.1C6.68625 20.699 6.8805 21.1037 7.10265 21.57C7.2009 21.7763 7.33725 22.0618 7.40558 22.2045C7.56443 22.5362 7.57493 22.5048 7.25235 22.6604C6.81278 22.8723 6.16133 23.185 5.83485 23.3408C5.66985 23.4195 5.3526 23.5717 5.12985 23.6789C4.6686 23.9011 4.69252 23.9038 4.55527 23.6135C4.5036 23.5043 4.36702 23.2193 4.25175 22.98C4.13647 22.7408 3.98362 22.4207 3.91207 22.2686C3.84052 22.1167 3.69532 21.8129 3.58942 21.5936C3.31215 21.0197 3.04342 20.46 2.8794 20.115C2.80095 19.95 2.65312 19.6395 2.5509 19.425C2.44867 19.2105 2.36272 19.0236 2.35995 19.0097C2.3529 18.9749 2.37712 18.9617 2.95485 18.6874C3.66652 18.3494 4.20427 18.0907 4.69485 17.8503C5.23972 17.5833 5.18407 17.5709 5.39527 18.0075ZM26.5799 17.94C26.5799 17.9565 26.5394 17.97 26.4899 17.97C26.4404 17.97 26.3999 17.9835 26.3999 18C26.3999 18.0165 26.3669 18.03 26.3267 18.03C26.2864 18.03 26.2451 18.0435 26.2349 18.06C26.2247 18.0765 26.1901 18.09 26.1581 18.09C26.126 18.09 26.0999 18.1035 26.0999 18.12C26.0999 18.1365 26.0729 18.15 26.0399 18.15C26.0069 18.15 25.9799 18.1626 25.9799 18.178C25.9799 18.1934 25.9499 18.2155 25.9134 18.227C25.8384 18.2509 25.3701 18.7166 25.3551 18.7823C25.3497 18.8058 25.3328 18.8295 25.3176 18.835C25.3023 18.8405 25.2899 18.8709 25.2899 18.9025C25.2899 18.9341 25.2797 18.9601 25.2674 18.9602C25.2404 18.9605 25.1699 19.1058 25.1699 19.161C25.1699 19.1825 25.1564 19.2 25.1399 19.2C25.1234 19.2 25.1099 19.2405 25.1099 19.29C25.1099 19.3395 25.0964 19.38 25.0799 19.38C25.0634 19.38 25.0499 19.4264 25.0499 19.4832C25.0499 19.54 25.0364 19.5948 25.0199 19.605C25.0027 19.6156 24.9899 19.7697 24.9899 19.965C24.9899 20.1603 25.0027 20.3144 25.0199 20.325C25.0364 20.3352 25.0499 20.3968 25.0499 20.4618C25.0499 20.5268 25.0634 20.58 25.0799 20.58C25.0964 20.58 25.1099 20.6205 25.1099 20.67C25.1099 20.7195 25.1234 20.76 25.1399 20.76C25.1564 20.76 25.1699 20.787 25.1699 20.82C25.1699 20.853 25.1834 20.88 25.1999 20.88C25.2164 20.88 25.2299 20.907 25.2299 20.94C25.2299 20.973 25.2434 21 25.2599 21C25.2764 21 25.2899 21.024 25.2899 21.0534C25.2899 21.0827 25.3169 21.1262 25.3499 21.15C25.3829 21.1738 25.4099 21.2114 25.4099 21.2334C25.4099 21.3623 26.0557 21.87 26.2196 21.87C26.2528 21.87 26.2799 21.8835 26.2799 21.9C26.2799 21.9165 26.306 21.93 26.3381 21.93C26.3701 21.93 26.4047 21.9435 26.4149 21.96C26.4251 21.9765 26.4799 21.99 26.5367 21.99C26.5934 21.99 26.6399 22.0035 26.6399 22.02C26.6399 22.0386 26.8049 22.05 27.0749 22.05C27.3449 22.05 27.5099 22.0386 27.5099 22.02C27.5099 22.0035 27.5639 21.99 27.6299 21.99C27.6959 21.99 27.7499 21.9765 27.7499 21.96C27.7499 21.9435 27.7904 21.93 27.8399 21.93C27.8894 21.93 27.9299 21.9165 27.9299 21.9C27.9299 21.8835 27.9511 21.87 27.977 21.87C28.0271 21.87 28.2788 21.7324 28.3435 21.6696C28.3647 21.649 28.4221 21.6085 28.471 21.5796C28.5199 21.5507 28.5599 21.5075 28.5599 21.4835C28.5599 21.4596 28.5682 21.4484 28.5785 21.4586C28.6055 21.4856 28.6799 21.4026 28.6799 21.3454C28.6799 21.3185 28.6934 21.3048 28.7099 21.315C28.7264 21.3252 28.7399 21.3155 28.7399 21.2934C28.7399 21.2713 28.7669 21.2338 28.7999 21.21C28.8329 21.1862 28.8599 21.149 28.8599 21.1271C28.8599 21.1053 28.8869 21.0585 28.9199 21.0231C28.9737 20.9654 28.9938 20.9082 28.9834 20.8425C28.9814 20.8301 28.9934 20.82 29.0099 20.82C29.0264 20.82 29.0399 20.7938 29.0399 20.7618C29.0399 20.7298 29.0534 20.6952 29.0699 20.685C29.0864 20.6748 29.0999 20.6362 29.0999 20.5992C29.0999 20.5622 29.1122 20.5192 29.1272 20.5035C29.1422 20.4878 29.1623 20.394 29.1717 20.295C29.1811 20.196 29.194 20.0678 29.2003 20.01C29.2067 19.9523 29.2009 19.8838 29.1876 19.8578C29.1743 19.8318 29.1604 19.7272 29.1567 19.6253C29.153 19.5234 29.1387 19.44 29.1249 19.44C29.1111 19.44 29.0999 19.3995 29.0999 19.35C29.0999 19.3005 29.0864 19.26 29.0699 19.26C29.0534 19.26 29.0399 19.2195 29.0399 19.17C29.0399 19.1205 29.0264 19.08 29.0099 19.08C28.9934 19.08 28.9799 19.056 28.9799 19.0266C28.9799 18.9973 28.9529 18.9538 28.9199 18.93C28.8869 18.9062 28.8599 18.869 28.8599 18.8471C28.8599 18.8253 28.8329 18.7785 28.7999 18.7431C28.7669 18.7077 28.7399 18.6602 28.7399 18.6376C28.7399 18.6149 28.7264 18.6048 28.7099 18.615C28.6934 18.6252 28.6799 18.6203 28.6799 18.6041C28.6799 18.5661 28.4142 18.3 28.3763 18.3C28.3604 18.3 28.3191 18.2737 28.2845 18.2415C28.25 18.2093 28.183 18.1745 28.1355 18.164C28.0881 18.1537 28.057 18.1328 28.0664 18.1175C28.0757 18.1024 28.0564 18.09 28.0234 18.09C27.9904 18.09 27.9551 18.0765 27.9449 18.06C27.9347 18.0435 27.9001 18.03 27.8681 18.03C27.836 18.03 27.8099 18.0165 27.8099 18C27.8099 17.9835 27.7559 17.97 27.6899 17.97C27.6239 17.97 27.5699 17.9565 27.5699 17.94C27.5699 17.9212 27.3848 17.91 27.0749 17.91C26.7649 17.91 26.5799 17.9212 26.5799 17.94ZM27.4764 18.6912C28.9277 19.1677 28.611 21.33 27.0899 21.33C26.2354 21.33 25.5045 20.3474 25.7957 19.59C26.0838 18.8405 26.7866 18.4648 27.4764 18.6912ZM21.3149 19.17C21.3047 19.1865 21.2574 19.2 21.2099 19.2C21.1623 19.2 21.1151 19.2135 21.1049 19.23C21.0947 19.2465 21.0533 19.26 21.0131 19.26C20.9728 19.26 20.9399 19.2707 20.9399 19.2839C20.9399 19.297 20.8791 19.3328 20.8049 19.3634C20.7306 19.394 20.6699 19.4276 20.6699 19.4381C20.6699 19.4485 20.6285 19.4815 20.5779 19.5114C20.5274 19.5413 20.4714 19.5977 20.4536 19.6369C20.4357 19.6761 20.4095 19.701 20.3955 19.6923C20.3814 19.6836 20.3699 19.6909 20.3699 19.7085C20.3699 19.7261 20.3294 19.7829 20.2799 19.8347C20.2304 19.8866 20.1899 19.9472 20.1899 19.9694C20.1899 19.9918 20.1764 20.01 20.1599 20.01C20.1434 20.01 20.1299 20.0494 20.1299 20.0975C20.1299 20.1456 20.1165 20.1895 20.1001 20.195C20.0837 20.2005 20.0673 20.2421 20.0636 20.2875C20.0598 20.3329 20.0462 20.37 20.0333 20.37C19.998 20.37 20.0044 21.2331 20.0399 21.255C20.0564 21.2652 20.0699 21.3065 20.0699 21.3468C20.0699 21.3871 20.0834 21.42 20.0999 21.42C20.1164 21.42 20.1299 21.4605 20.1299 21.51C20.1299 21.5595 20.1434 21.6 20.1599 21.6C20.1764 21.6 20.1899 21.6203 20.1899 21.645C20.1899 21.6698 20.2034 21.69 20.2199 21.69C20.2364 21.69 20.2499 21.7111 20.2499 21.7368C20.2499 21.7625 20.2634 21.7752 20.2799 21.765C20.2964 21.7548 20.3099 21.7607 20.3099 21.7782C20.3099 21.7957 20.3129 21.8201 20.3165 21.8325C20.3256 21.8629 20.5739 22.11 20.5953 22.11C20.6047 22.11 20.6414 22.137 20.6768 22.17C20.7122 22.203 20.7589 22.23 20.7805 22.23C20.8022 22.23 20.8199 22.2435 20.8199 22.26C20.8199 22.2765 20.8469 22.29 20.8799 22.29C20.9129 22.29 20.9399 22.3035 20.9399 22.32C20.9399 22.3365 20.9669 22.35 20.9999 22.35C21.0329 22.35 21.0599 22.3635 21.0599 22.38C21.0599 22.3965 21.1139 22.41 21.1799 22.41C21.2459 22.41 21.2999 22.4235 21.2999 22.44C21.2999 22.4582 21.4349 22.47 21.6449 22.47C21.8549 22.47 21.9899 22.4582 21.9899 22.44C21.9899 22.4235 22.0439 22.41 22.1099 22.41C22.1759 22.41 22.2299 22.3965 22.2299 22.38C22.2299 22.3635 22.2569 22.35 22.2899 22.35C22.3229 22.35 22.3499 22.3365 22.3499 22.32C22.3499 22.3035 22.3769 22.29 22.4099 22.29C22.4429 22.29 22.4699 22.2765 22.4699 22.26C22.4699 22.2435 22.4939 22.23 22.5233 22.23C22.5526 22.23 22.5961 22.203 22.6199 22.17C22.6436 22.137 22.6879 22.11 22.7183 22.11C22.7486 22.11 22.7651 22.0965 22.7549 22.08C22.7447 22.0635 22.7513 22.05 22.7695 22.05C22.8074 22.05 22.9499 21.9149 22.9499 21.8789C22.9499 21.8657 22.9837 21.8158 23.0249 21.7679C23.0661 21.7199 23.0999 21.6626 23.0999 21.6404C23.0999 21.6182 23.1134 21.6 23.1299 21.6C23.1464 21.6 23.1599 21.5685 23.1599 21.53C23.1599 21.4915 23.1691 21.4508 23.1804 21.4394C23.2705 21.3494 23.331 20.4051 23.2499 20.355C23.2334 20.3448 23.2199 20.3043 23.2199 20.265C23.2199 20.2257 23.2064 20.1852 23.1899 20.175C23.1734 20.1648 23.1599 20.1227 23.1599 20.0815C23.1599 20.0402 23.1475 20.0141 23.1323 20.0235C23.1171 20.0329 23.096 20.0011 23.0855 19.9528C23.0749 19.9046 23.0265 19.8236 22.9781 19.7728C22.9295 19.7221 22.8899 19.6685 22.8899 19.6539C22.8899 19.6144 22.57 19.38 22.5161 19.38C22.4907 19.38 22.4699 19.3665 22.4699 19.35C22.4699 19.3335 22.4429 19.32 22.4099 19.32C22.3769 19.32 22.3499 19.3065 22.3499 19.29C22.3499 19.2735 22.3237 19.26 22.2917 19.26C22.2596 19.26 22.2251 19.2465 22.2149 19.23C22.2047 19.2135 22.1363 19.2 22.0631 19.2C21.9898 19.2 21.9299 19.1865 21.9299 19.17C21.9299 19.152 21.8105 19.14 21.6317 19.14C21.4652 19.14 21.3252 19.1533 21.3149 19.17ZM1.93725 19.7025C2.0478 19.9294 2.20207 20.25 2.27992 20.415C2.48917 20.8584 2.8671 21.6464 3.35677 22.6606C3.50692 22.9717 3.62985 23.231 3.62985 23.2369C3.62985 23.2427 3.72435 23.4404 3.83985 23.6762C4.10392 24.2155 4.1043 24.1867 3.83235 24.2975C3.21435 24.5495 2.55255 24.2747 2.24467 23.6383C2.18527 23.5155 2.04187 23.2193 1.92592 22.98C1.80997 22.7408 1.66147 22.4303 1.59585 22.29C1.53022 22.1498 1.37587 21.8258 1.25287 21.57C1.03822 21.1238 0.979045 20.9951 0.904045 20.8111C0.859945 20.703 0.85972 20.2181 0.90367 20.1089C1.05007 19.7453 1.24987 19.5092 1.52827 19.3711C1.61812 19.3265 1.70167 19.29 1.7139 19.29C1.72612 19.29 1.82662 19.4756 1.93725 19.7025ZM22.0723 19.9912C22.735 20.327 22.722 21.2578 22.0495 21.6294C21.6617 21.8437 21.014 21.6323 20.8417 21.2351C20.7413 21.0038 20.7299 20.9596 20.7299 20.805C20.7299 20.6519 20.7412 20.6078 20.8379 20.3829C21.0197 19.9604 21.6297 19.7669 22.0723 19.9912ZM24.5399 22.68C24.5399 22.6965 24.5006 22.71 24.4527 22.71C24.3618 22.71 24.1199 22.8231 24.1199 22.8656C24.1199 22.879 24.0992 22.89 24.074 22.89C23.9629 22.89 23.6399 23.3149 23.6399 23.4611C23.6399 23.4915 23.6264 23.5248 23.6099 23.535C23.5934 23.5452 23.5799 23.6735 23.5799 23.82C23.5799 23.9666 23.5934 24.0948 23.6099 24.105C23.6264 24.1152 23.6399 24.1471 23.6399 24.1758C23.6399 24.2414 23.7073 24.3895 23.7374 24.3898C23.7497 24.3899 23.7599 24.4106 23.7599 24.4357C23.7599 24.4951 24.0748 24.81 24.1342 24.81C24.1593 24.81 24.1799 24.8235 24.1799 24.84C24.1799 24.8565 24.2069 24.87 24.2399 24.87C24.2729 24.87 24.2999 24.8835 24.2999 24.9C24.2999 24.9165 24.3395 24.93 24.3881 24.93C24.4366 24.93 24.4851 24.9442 24.4958 24.9615C24.5072 24.98 24.6127 24.9907 24.7517 24.9873C24.8818 24.9842 24.981 24.97 24.9722 24.9558C24.9635 24.9416 25.0031 24.93 25.0603 24.93C25.1641 24.93 25.4099 24.8207 25.4099 24.7745C25.4099 24.761 25.4238 24.75 25.4408 24.75C25.4892 24.75 25.6799 24.5474 25.6799 24.496C25.6799 24.4707 25.6925 24.45 25.7079 24.45C25.7234 24.45 25.7531 24.4028 25.7739 24.345C25.7948 24.2873 25.8227 24.24 25.8359 24.24C25.8491 24.24 25.8599 24.182 25.8599 24.111C25.8599 24.0401 25.8749 23.967 25.8932 23.9486C25.9136 23.9283 25.9194 23.867 25.9082 23.7926C25.8981 23.7252 25.8817 23.6159 25.8717 23.5498C25.8617 23.4837 25.8415 23.4221 25.8267 23.4131C25.8119 23.4039 25.7999 23.3702 25.7999 23.3382C25.7999 23.3062 25.7897 23.28 25.7772 23.28C25.7647 23.28 25.7378 23.2422 25.7174 23.196C25.6721 23.0939 25.4896 22.89 25.4433 22.89C25.4249 22.89 25.4099 22.8765 25.4099 22.86C25.4099 22.8435 25.3829 22.83 25.3499 22.83C25.3169 22.83 25.2899 22.8165 25.2899 22.8C25.2899 22.7835 25.2629 22.77 25.2299 22.77C25.1969 22.77 25.1699 22.7565 25.1699 22.74C25.1699 22.7235 25.1159 22.71 25.0499 22.71C24.9839 22.71 24.9299 22.6965 24.9299 22.68C24.9299 22.6631 24.8449 22.65 24.7349 22.65C24.6248 22.65 24.5399 22.6631 24.5399 22.68ZM8.02395 23.4772C8.46293 24.2993 8.967 25.059 9.52523 25.74C10.2895 26.6723 9.8994 27.7925 8.7957 27.8351C8.2722 27.8554 8.1753 27.793 7.3803 26.925C7.10828 26.628 6.80955 26.304 6.71648 26.205C6.6234 26.106 6.47475 25.9445 6.3861 25.8461C6.29738 25.7478 6.12915 25.5656 6.01223 25.4411C5.62815 25.0326 5.12985 24.4803 5.12985 24.4631C5.12985 24.4481 5.62815 24.2029 6.71018 23.6856C6.9111 23.5896 7.2351 23.433 7.43018 23.3377C7.8777 23.1191 7.82618 23.1069 8.02395 23.4772ZM24.9926 23.4975C25.2539 23.7242 25.1572 24.1652 24.8348 24.2176C24.4221 24.2846 24.1776 23.8243 24.4703 23.5316C24.6013 23.4006 24.8613 23.3837 24.9926 23.4975Z" fill="#0B3C64"/>
<path fill-rule="evenodd" clip-rule="evenodd" d="M7.43021 23.3377C7.23514 23.433 6.91114 23.5896 6.71021 23.6856C5.62818 24.2029 5.12988 24.448 5.12988 24.4631C5.12988 24.4803 5.62818 25.0326 6.01226 25.4411C6.12919 25.5655 6.29741 25.7478 6.38614 25.8461C6.47479 25.9445 6.62344 26.106 6.71651 26.205C6.80959 26.304 7.10831 26.628 7.38034 26.925C8.04791 27.6539 8.08114 27.6821 8.42074 27.8098C8.88267 27.9835 9.57364 27.6794 9.80667 27.1998C10.0486 26.7018 9.96709 26.2789 9.52527 25.74C8.96704 25.059 8.46297 24.2993 8.02399 23.4772C7.82621 23.1069 7.87774 23.119 7.43021 23.3377Z" fill="#FADA44"/>
<path fill-rule="evenodd" clip-rule="evenodd" d="M21.9601 2.15861C20.9607 2.34401 20.3639 3.63146 20.9141 4.41469C20.9449 4.45849 20.9701 4.50686 20.9701 4.52224C20.9701 4.53761 21.0635 4.64036 21.1776 4.75054C22.0564 5.59894 23.4632 5.17751 23.7452 3.98141C23.9884 2.95016 23.0206 1.96189 21.9601 2.15861ZM22.712 2.25304C23.4489 2.49491 23.8856 3.29831 23.6865 4.04614C23.3851 5.17871 21.9308 5.53264 21.1393 4.66609C21.0626 4.58209 20.8801 4.29551 20.8801 4.25906C20.8801 4.24264 20.8682 4.20581 20.8538 4.17716C20.7252 3.92261 20.7252 3.39746 20.8538 3.14291C20.8682 3.11426 20.8801 3.07646 20.8801 3.05876C20.8801 2.94101 21.2381 2.53781 21.4761 2.38759C21.7953 2.18606 22.3305 2.12779 22.712 2.25304ZM23.1601 6.99394C22.7359 7.06774 22.555 7.10712 22.3501 7.17004C22.3088 7.18271 22.2143 7.21046 22.1401 7.23177C22.0658 7.25307 21.9923 7.28164 21.9766 7.29529C21.9609 7.30887 21.9296 7.32004 21.9069 7.32004C21.7535 7.32004 20.8313 7.84872 20.4751 8.14084C19.5234 8.92137 18.8319 10.0645 18.6033 11.235C18.5228 11.6475 18.5101 11.788 18.5101 12.2684C18.5101 13.9715 19.2943 15.5569 20.6162 16.5264C20.7531 16.6268 20.8814 16.7227 20.9013 16.7395C20.9213 16.7563 20.9458 16.77 20.9559 16.77C20.966 16.77 21.0307 16.8084 21.0997 16.8552C21.4208 17.0731 22.0876 17.3436 22.5751 17.4538C23.0661 17.5647 23.1629 17.58 23.3499 17.5762L23.5351 17.5725L23.3251 17.5476C23.0108 17.5104 22.7149 17.4589 22.5301 17.4092C22.4393 17.3848 22.3246 17.3541 22.2751 17.3409C22.177 17.3148 22.1019 17.2895 21.9976 17.2473C21.9605 17.2323 21.8997 17.208 21.8626 17.1933C21.7499 17.1485 21.2339 16.8931 21.0901 16.8109C20.6202 16.5423 19.8927 15.8822 19.5902 15.45C19.5498 15.3923 19.4949 15.3212 19.4682 15.292C19.4415 15.2629 19.4012 15.2022 19.3784 15.157C19.3558 15.1119 19.3152 15.0413 19.2882 15C18.2972 13.4832 18.297 11.3165 19.2878 9.55504C19.5731 9.04782 20.7221 7.86004 20.9273 7.86004C20.9366 7.86004 21.0054 7.81797 21.0802 7.76652C21.7089 7.33399 22.9225 6.99004 23.8201 6.99004C24.7116 6.99004 25.8067 7.29507 26.5349 7.74619C26.7416 7.87422 26.9221 7.99182 26.9401 8.01012C26.9483 8.01852 27.0091 8.06532 27.0751 8.11407C27.2604 8.25102 27.7961 8.78112 27.9379 8.96772C28.0078 9.05974 28.0726 9.14179 28.082 9.15004C28.2004 9.25414 28.5758 9.93807 28.7324 10.335C29.5163 12.3219 29.0582 14.5088 27.5416 16.0202C27.0962 16.464 26.7806 16.6958 26.2051 17.0016C26.136 17.0383 25.8737 17.1566 25.7851 17.1909C25.5017 17.3009 25.2521 17.3794 25.0201 17.4316C24.6966 17.5044 24.6653 17.5143 24.7501 17.517C25.0922 17.5281 26.6607 16.9084 26.7251 16.7367C26.7306 16.722 26.7474 16.71 26.7624 16.71C26.9541 16.71 27.851 15.8199 28.2438 15.24C28.6824 14.5924 28.952 13.8894 29.1008 13.005C29.142 12.7607 29.123 11.6222 29.0739 11.385C29.0568 11.3025 29.0297 11.1743 29.0138 11.1C28.7372 9.81792 27.9078 8.62069 26.7601 7.84684C26.5004 7.67179 25.817 7.32004 25.7364 7.32004C25.712 7.32004 25.6793 7.30887 25.6636 7.29529C25.6479 7.28164 25.5743 7.25307 25.5001 7.23184C25.4258 7.21062 25.3381 7.18227 25.3051 7.16892C25.2721 7.15549 25.2046 7.13607 25.1551 7.12572C25.1056 7.11529 25.0043 7.09392 24.9301 7.07817C24.575 7.00272 24.3944 6.98509 23.8801 6.97549C23.5748 6.96986 23.2508 6.97812 23.1601 6.99394ZM15.881 7.26837C15.0419 7.71934 15.306 8.91844 16.2451 8.92114C17.1887 8.92384 17.4678 7.66842 16.6129 7.26679C16.4131 7.17297 16.0572 7.17372 15.881 7.26837ZM16.5031 7.26477C17.0945 7.46637 17.282 8.19874 16.8546 8.63712C16.3373 9.16767 15.4201 8.80302 15.4201 8.06682C15.4201 7.95267 15.432 7.83582 15.4466 7.80717C15.4612 7.77852 15.4915 7.71589 15.5141 7.66812C15.6671 7.34321 16.1525 7.14529 16.5031 7.26477ZM22.0338 8.72592C21.8409 8.84359 21.7899 9.04107 21.8961 9.25969C21.9269 9.32314 21.9809 9.43369 22.0161 9.50539C22.1059 9.68832 22.0994 9.71194 21.902 9.92277C20.5615 11.3539 22.2568 13.6031 24.0601 12.786C24.1178 12.7599 24.2461 12.7221 24.3451 12.7022C24.5007 12.6708 24.5099 12.6655 24.4133 12.663C24.3518 12.6614 24.1763 12.7062 24.0233 12.7626C23.3915 12.9953 22.9813 12.9852 22.4585 12.7242C21.3568 12.1743 21.1449 10.7132 22.0375 9.82062C22.0939 9.76422 22.1401 9.71044 22.1401 9.70114C22.1401 9.68254 21.9455 9.25602 21.8992 9.17292C21.7984 8.99247 21.9698 8.73004 22.1883 8.73004C22.3903 8.73004 22.4623 8.79567 22.6104 9.11487L22.7411 9.39649L22.8531 9.37714C23.7566 9.22122 24.7384 9.71884 24.9116 10.4205C25.0164 10.8451 24.4439 10.9772 24.2519 10.5727C24.1337 10.3234 23.6739 10.0137 23.4365 10.0233C23.3785 10.0257 23.3982 10.0373 23.5051 10.0637C23.8109 10.1391 24.0444 10.3151 24.2372 10.6156C24.5505 11.1037 25.1575 10.7957 24.8958 10.2813C24.5779 9.65629 23.9105 9.27349 23.2011 9.30904C23.0383 9.31722 22.868 9.33357 22.8226 9.34549C22.7696 9.35929 22.7401 9.35524 22.7401 9.33409C22.7401 9.31602 22.6858 9.18844 22.6194 9.05074C22.4509 8.70094 22.2539 8.59174 22.0338 8.72592ZM11.7901 9.58114C11.2735 9.71097 10.9501 10.1149 10.9501 10.6304C10.9501 10.9021 10.9547 10.9188 11.1321 11.295C11.1944 11.427 11.3056 11.6633 11.3792 11.82C11.6086 12.3087 11.8832 12.8817 12.4505 14.055C12.5701 14.3025 12.7117 14.5995 12.7652 14.715C12.8186 14.8305 12.9635 15.1343 13.087 15.39C13.4939 16.2324 13.9694 17.2239 14.1446 17.595C14.2147 17.7435 14.3532 18.0338 14.4525 18.24C14.7547 18.8682 14.9702 19.3175 15.1503 19.695C15.2447 19.893 15.4064 20.2305 15.5095 20.445C15.6126 20.6595 15.7747 20.997 15.8697 21.195C15.9647 21.393 16.1108 21.6972 16.1945 21.8709C16.7694 23.0643 18.3139 22.8452 18.3149 21.57L18.3151 21.255L18.1426 20.9025C17.936 20.4802 17.7063 20.0039 17.4739 19.515C17.3798 19.317 17.2321 19.0065 17.1458 18.825C17.0595 18.6435 16.8992 18.3094 16.7895 18.0825C16.2954 17.0604 16.1857 16.8318 16.0945 16.635C16.041 16.5195 15.893 16.209 15.7655 15.945C15.6381 15.681 15.4691 15.33 15.39 15.165C15.3109 15 15.1486 14.6625 15.0294 14.415C14.9102 14.1675 14.7688 13.8705 14.7152 13.755C14.6617 13.6395 14.5135 13.329 14.386 13.065C14.1539 12.5844 14.051 12.37 13.7163 11.67C13.6177 11.4638 13.4431 11.0993 13.3283 10.86C13.2135 10.6208 13.0947 10.371 13.0643 10.305C12.8058 9.74359 12.296 9.45394 11.7901 9.58114ZM12.4611 9.70152C12.6241 9.78402 12.7727 9.90889 12.8644 10.0401C12.9602 10.1774 13.1101 10.469 13.1101 10.5181C13.1101 10.5411 13.1236 10.56 13.1401 10.56C13.1566 10.56 13.1701 10.5765 13.1701 10.5966C13.1701 10.6166 13.2363 10.7685 13.3172 10.9341C13.3981 11.0996 13.5247 11.3633 13.5986 11.52C13.784 11.9134 14.0674 12.5055 14.3095 13.005C14.679 13.7677 14.8557 14.137 14.9396 14.3222C15.0241 14.5088 15.3746 15.2383 15.6903 15.885C15.8699 16.2531 16.1323 16.8018 16.3714 17.31C16.4451 17.4668 16.5972 17.784 16.7093 18.015C17.0428 18.7023 17.28 19.1962 17.4329 19.5213C17.512 19.6898 17.6518 19.9807 17.7434 20.1678C17.8351 20.3548 17.9101 20.5241 17.9101 20.544C17.9101 20.5638 17.9236 20.58 17.9401 20.58C17.9566 20.58 17.97 20.5969 17.9699 20.6175C17.9697 20.6382 18.0253 20.7698 18.0935 20.91C18.1616 21.0503 18.2321 21.1965 18.2501 21.2351C18.2924 21.3254 18.2927 21.8137 18.2505 21.905C18.1541 22.1133 18.1262 22.1587 18.0213 22.2779C17.5115 22.8571 16.6196 22.6689 16.2576 21.9057C16.1896 21.7623 16.0409 21.4553 15.927 21.2234C15.8132 20.9915 15.7201 20.7856 15.7201 20.7659C15.7201 20.7462 15.7066 20.73 15.6901 20.73C15.6736 20.73 15.6602 20.7132 15.6603 20.6925C15.6605 20.6719 15.6074 20.547 15.5423 20.415C15.404 20.1342 15.0794 19.4565 14.8886 19.05C14.815 18.8933 14.6682 18.5889 14.5625 18.3737C14.4566 18.1584 14.3701 17.966 14.3701 17.9462C14.3701 17.9263 14.3566 17.91 14.3401 17.91C14.3236 17.91 14.3101 17.8936 14.3101 17.8735C14.3101 17.8535 14.2438 17.7016 14.1627 17.536C14.0817 17.3705 13.9685 17.1338 13.9111 17.01C13.7861 16.7404 13.4523 16.0433 13.1713 15.465C12.8391 14.7816 12.6276 14.3404 12.5096 14.085C12.4043 13.8569 12.2277 13.4891 11.8041 12.615C11.0042 10.9645 10.9801 10.907 10.9801 10.6507C10.9801 9.89344 11.801 9.36732 12.4611 9.70152ZM22.7754 10.1265C21.4825 10.7733 22.3667 12.6939 23.7151 12.1674C24.2412 11.962 24.4837 11.9293 24.8701 12.0115C25.5511 12.1564 26.0578 12.6137 26.2648 13.2702C26.2947 13.3652 26.3048 13.3774 26.3071 13.3214C26.3231 12.924 25.6395 12.188 25.1101 12.0327C25.0358 12.0108 24.9359 11.9811 24.8881 11.9665C24.8402 11.952 24.689 11.94 24.5521 11.94C24.2573 11.94 24.0218 11.9944 23.6701 12.1439C23.1815 12.3514 22.5725 12.1278 22.3112 11.6451C21.9661 11.0074 22.3271 10.239 23.0551 10.0617C23.1995 10.0265 23.201 10.0251 23.0966 10.0226C23.0283 10.021 22.9094 10.0594 22.7754 10.1265ZM10.6628 12.045C10.6502 12.078 10.6018 12.1614 10.5551 12.2304C10.5083 12.2994 10.4701 12.3621 10.4701 12.3698C10.4701 12.4026 9.73112 13.5604 9.6913 13.59C9.6802 13.5983 9.62552 13.6725 9.56972 13.755C9.0268 14.558 8.03492 15.6553 7.28912 16.2782C6.8719 16.6266 6.22495 17.1 6.166 17.1C6.0982 17.1 5.82647 17.3223 5.8417 17.3654C5.8513 17.3927 5.93327 17.5703 6.02387 17.76C6.11447 17.9498 6.2659 18.267 6.36032 18.465C6.53132 18.8235 6.7504 19.2798 7.0804 19.965C7.17572 20.163 7.30795 20.4398 7.37417 20.58C7.4404 20.7203 7.6111 21.078 7.75345 21.375C7.89587 21.672 8.0422 21.9789 8.07872 22.057C8.15837 22.2274 8.1634 22.2279 8.52302 22.0989C9.59155 21.7158 10.3936 21.5656 11.8423 21.4776C12.7304 21.4236 14.3919 21.5442 15.1949 21.721C15.3841 21.7626 15.3826 21.7243 15.1796 21.3096C15.076 21.0981 14.9278 20.79 14.8502 20.625C14.7725 20.46 14.6245 20.1495 14.5211 19.935C14.4177 19.7205 14.2685 19.41 14.1893 19.245C14.1102 19.08 13.9414 18.729 13.8142 18.465C13.6869 18.201 13.5458 17.904 13.5004 17.805C13.4551 17.706 13.307 17.3955 13.1713 17.115C12.7108 16.1631 12.635 16.0054 12.4859 15.69C12.2121 15.1106 11.9722 14.61 11.4437 13.515C11.3561 13.3335 11.1706 12.9457 11.0314 12.6533C10.7252 12.0098 10.6952 11.9601 10.6628 12.045ZM10.8392 12.3375C11.0054 12.6761 11.3376 13.3694 11.4896 13.695C11.5512 13.827 11.6897 14.1173 11.7974 14.34C12.0305 14.8223 12.2754 15.3325 12.5102 15.825C12.7556 16.3397 13.0001 16.8499 13.2001 17.265C13.371 17.6197 13.5226 17.9365 13.8604 18.645C14.0865 19.1193 14.3623 19.6937 14.5951 20.175C14.6988 20.3895 14.8311 20.6663 14.8892 20.79C14.9471 20.9138 15.0629 21.1565 15.1465 21.3294C15.3182 21.6849 15.3169 21.6926 15.0901 21.6579C13.3026 21.3849 11.8043 21.3578 10.4251 21.5734C10.1563 21.6154 9.64172 21.7164 9.5251 21.75C9.4756 21.7643 9.37435 21.7922 9.3001 21.8121C9.10172 21.8651 8.9629 21.9055 8.8951 21.93C8.8621 21.942 8.7811 21.968 8.7151 21.9879C8.59772 22.0232 8.49122 22.0643 8.39912 22.1097C8.21117 22.2024 8.1832 22.1862 8.0494 21.9072C7.98025 21.763 7.8199 21.429 7.69315 21.165C7.56632 20.901 7.42547 20.604 7.38017 20.505C7.33487 20.406 7.1869 20.0955 7.05145 19.815C6.13615 17.9198 5.8801 17.3785 5.8801 17.3389C5.8801 17.3241 6.0079 17.2368 6.16412 17.1448C6.32035 17.0529 6.46547 16.9607 6.48662 16.9399C6.50777 16.9191 6.5926 16.8563 6.6751 16.8002C7.2712 16.3949 8.08427 15.6392 8.71217 14.9067C9.25907 14.2687 9.77815 13.5661 10.167 12.9375C10.4818 12.4286 10.6063 12.2227 10.6477 12.1425C10.7018 12.0376 10.682 12.0174 10.8392 12.3375ZM24.7051 12.6991C25.8858 12.9358 25.9412 14.5164 24.7801 14.8374C24.6618 14.8701 24.6563 14.875 24.7351 14.8773C25.0969 14.888 25.5489 14.4276 25.6527 13.9425C25.7741 13.375 25.2643 12.6988 24.6941 12.6712L24.5251 12.663L24.7051 12.6991ZM26.3212 13.7737C26.3205 13.9766 26.3303 14.1162 26.3429 14.0838C26.372 14.0093 26.373 13.5332 26.3441 13.4599C26.3322 13.4296 26.3219 13.5708 26.3212 13.7737ZM23.0183 14.0992C22.5186 14.4039 23.1623 15.2592 24.1222 15.5658C24.1811 15.5847 24.3904 15.6005 24.5872 15.6011L24.9451 15.6021L25.0484 15.8284C25.156 16.0644 25.2539 16.1709 25.3616 16.1688C25.4136 16.1679 25.4089 16.1605 25.3351 16.128C25.2143 16.0746 25.1669 16.0137 25.0493 15.7607L24.9498 15.5463L24.6596 15.5622C23.9118 15.6035 23.2594 15.23 22.926 14.5698C22.6944 14.1111 23.294 13.8939 23.5642 14.3385C23.7374 14.6238 24.0355 14.8385 24.2982 14.8674L24.4051 14.8791L24.3001 14.8464C23.9942 14.7514 23.7687 14.5847 23.5979 14.3273C23.4055 14.0374 23.2318 13.9691 23.0183 14.0992ZM26.2386 14.3363C26.1686 14.5699 25.9488 14.9093 25.7448 15.0987C25.5646 15.2661 25.5599 15.2967 25.6801 15.525C25.8269 15.8042 25.7881 16.0322 25.5779 16.1244C25.5044 16.1567 25.4979 16.1657 25.5469 16.1676C25.811 16.1781 25.8799 15.7907 25.6778 15.4311C25.5983 15.2894 25.5994 15.2861 25.7843 15.1155C26.0379 14.8816 26.3353 14.358 26.3047 14.1992C26.2993 14.1713 26.2696 14.2329 26.2386 14.3363ZM24.4876 14.9007C24.5165 14.9082 24.5637 14.9082 24.5926 14.9007C24.6215 14.8932 24.5978 14.887 24.5401 14.887C24.4823 14.887 24.4587 14.8932 24.4876 14.9007ZM24.2551 17.55C24.109 17.5701 24.1106 17.5707 24.3151 17.5723C24.4306 17.5733 24.5588 17.5632 24.6001 17.55C24.6959 17.5194 24.4788 17.5194 24.2551 17.55ZM23.6776 17.6021C23.756 17.6082 23.8842 17.6082 23.9626 17.6021C24.041 17.5959 23.9768 17.5908 23.8201 17.5908C23.6633 17.5908 23.5992 17.5959 23.6776 17.6021ZM4.6951 17.8503C4.20452 18.0907 3.66677 18.3495 2.9551 18.6874C2.37738 18.9618 2.35315 18.9749 2.3602 19.0098C2.36298 19.0236 2.44893 19.2105 2.55115 19.425C2.65337 19.6395 2.8012 19.95 2.87965 20.115C3.04367 20.46 3.3124 21.0197 3.58967 21.5937C3.69557 21.813 3.84077 22.1167 3.91232 22.2687C3.98387 22.4207 4.13672 22.7408 4.252 22.98C4.36727 23.2193 4.50385 23.5044 4.55552 23.6136C4.69277 23.9038 4.66885 23.9011 5.1301 23.679C5.35285 23.5717 5.6701 23.4195 5.8351 23.3408C6.16157 23.185 6.81302 22.8723 7.2526 22.6604C7.57517 22.5048 7.56467 22.5362 7.40582 22.2045C7.3375 22.0618 7.20115 21.7763 7.1029 21.57C6.88075 21.1038 6.6865 20.699 6.39737 20.1C6.27392 19.8443 6.1222 19.527 6.06025 19.395C5.93785 19.1343 5.6758 18.5873 5.39552 18.0075C5.18432 17.5709 5.23997 17.5833 4.6951 17.8503ZM5.3659 18.045C5.58437 18.4898 5.85985 19.0615 6.01645 19.395C6.25787 19.9092 6.49345 20.4033 6.69587 20.82C7.57412 22.6279 7.52162 22.4932 7.3726 22.5574C7.28387 22.5954 6.8497 22.8043 5.7751 23.3259C4.64237 23.8756 4.71152 23.8566 4.61665 23.6458C4.58177 23.5683 4.46185 23.316 4.35017 23.085C4.13215 22.6343 3.92942 22.2107 3.66812 21.66C3.57805 21.4703 3.41957 21.1395 3.31585 20.925C3.12782 20.5362 2.76122 19.774 2.5294 19.29C2.40932 19.0393 2.4067 18.93 2.52078 18.93C2.54523 18.93 3.1561 18.6435 3.64532 18.4026C3.8269 18.3132 3.99227 18.24 4.01282 18.24C4.0333 18.24 4.0501 18.2265 4.0501 18.21C4.0501 18.1935 4.0771 18.18 4.1101 18.18C4.1431 18.18 4.1701 18.1665 4.1701 18.15C4.1701 18.1335 4.1971 18.12 4.2301 18.12C4.2631 18.12 4.2901 18.1065 4.2901 18.09C4.2901 18.0735 4.30705 18.06 4.32775 18.06C4.36127 18.06 4.54922 17.9748 5.0251 17.7437C5.1076 17.7036 5.1766 17.6706 5.1784 17.6704C5.18027 17.6702 5.26465 17.8388 5.3659 18.045ZM26.6672 18.7021C26.2431 18.8492 25.9761 19.1213 25.7959 19.59C25.7125 19.8071 25.7465 20.2641 25.8653 20.52C26.4288 21.7347 28.192 21.4994 28.4181 20.1795C28.584 19.2109 27.5984 18.3793 26.6672 18.7021ZM27.3573 18.7062C27.6779 18.7818 27.9589 18.9552 28.1089 19.17C28.1492 19.2278 28.1896 19.2818 28.1987 19.29C28.2156 19.3054 28.2588 19.3968 28.3121 19.53C28.43 19.8249 28.4318 20.1801 28.3166 20.4072C28.302 20.4358 28.2901 20.4736 28.2901 20.4913C28.2901 20.5089 28.2367 20.6019 28.1714 20.6981C27.453 21.756 25.8001 21.2555 25.8001 19.98C25.8001 19.137 26.5572 18.5176 27.3573 18.7062ZM1.52853 19.3711C1.25013 19.5093 1.05033 19.7453 0.903925 20.109C0.859975 20.2181 0.8602 20.703 0.9043 20.8111C0.9793 20.9951 1.03848 21.1239 1.25313 21.57C1.37613 21.8258 1.53048 22.1498 1.5961 22.2901C1.66173 22.4303 1.81023 22.7408 1.92618 22.98C2.04213 23.2193 2.18553 23.5156 2.24493 23.6383C2.5528 24.2748 3.2146 24.5496 3.8326 24.2976C4.10455 24.1867 4.10417 24.2155 3.8401 23.6763C3.7246 23.4405 3.6301 23.2428 3.6301 23.2369C3.6301 23.2311 3.50717 22.9717 3.35702 22.6606C2.86735 21.6464 2.48942 20.8584 2.28017 20.415C1.96165 19.7402 1.73515 19.29 1.71415 19.29C1.70193 19.29 1.61838 19.3266 1.52853 19.3711ZM1.9105 19.7328C2.18748 20.3037 2.515 20.988 2.62472 21.225C2.6782 21.3405 2.83292 21.6645 2.96867 21.945C3.26567 22.5589 3.45122 22.9447 3.66115 23.385C3.7477 23.5665 3.86387 23.8084 3.9193 23.9225C4.04267 24.1765 4.04297 24.1624 3.91397 24.2236C3.2437 24.5416 2.60238 24.2848 2.24868 23.5567C2.02135 23.0889 1.71025 22.4436 1.52935 22.0651C1.44258 21.8835 1.28448 21.5528 1.17798 21.33C0.742975 20.4204 0.814675 19.9017 1.43485 19.4712C1.69473 19.2909 1.6966 19.2919 1.9105 19.7328ZM21.3971 19.9175C21.1887 19.971 20.9186 20.1959 20.8382 20.3829C20.7414 20.6079 20.7301 20.652 20.7301 20.805C20.7301 20.9596 20.7416 21.0038 20.8419 21.2352C21.0143 21.6323 21.6619 21.8437 22.0497 21.6294C23.0216 21.0924 22.469 19.6425 21.3971 19.9175ZM22.0066 20.0077C22.8604 20.3849 22.5919 21.66 21.6587 21.66C20.8576 21.66 20.4696 20.7505 21.0311 20.189C21.2908 19.9293 21.6699 19.8589 22.0066 20.0077ZM24.4706 23.5316C24.1778 23.8243 24.4223 24.2846 24.835 24.2176C25.1574 24.1653 25.2542 23.7242 24.9929 23.4975C24.8615 23.3837 24.6015 23.4007 24.4706 23.5316ZM24.9068 23.4917C25.0777 23.5696 25.1574 23.8215 25.0666 23.997C24.9011 24.3173 24.3901 24.1982 24.3901 23.8394C24.3901 23.5525 24.6526 23.3759 24.9068 23.4917Z" fill="#048BB3"/>
<path fill-rule="evenodd" clip-rule="evenodd" d="M23.2794 7.02369C22.4272 7.13739 21.5763 7.42471 21.0795 7.76649C21.0047 7.81794 20.9359 7.86001 20.9266 7.86001C20.7932 7.86001 19.9353 8.66776 19.6044 9.10501C18.3193 10.8031 18.1845 13.3117 19.2875 15C19.3145 15.0413 19.3551 15.1119 19.3777 15.157C19.4005 15.2021 19.4408 15.2629 19.4675 15.292C19.4942 15.3212 19.5491 15.3923 19.5895 15.45C19.892 15.8822 20.6195 16.5423 21.0894 16.8109C21.2312 16.892 21.7412 17.1446 21.8694 17.1972C22.1091 17.2957 22.1377 17.305 22.4919 17.4002C23.3269 17.6248 24.2971 17.624 25.1544 17.3982C25.4504 17.3203 25.4677 17.3146 25.7844 17.191C25.8744 17.1559 26.1361 17.0378 26.2044 17.0015C26.7799 16.6958 27.0955 16.464 27.5409 16.0202C29.0575 14.5088 29.5156 12.3219 28.7317 10.335C28.5751 9.93804 28.1997 9.25411 28.0813 9.15001C28.0719 9.14176 28.0071 9.05971 27.9372 8.96769C27.7954 8.78109 27.2597 8.25099 27.0744 8.11404C27.0084 8.06529 26.9476 8.01849 26.9394 8.01009C26.9214 7.99179 26.7409 7.87419 26.5342 7.74616C25.6372 7.19049 24.2827 6.88981 23.2794 7.02369ZM22.3822 8.73519C22.49 8.79579 22.7394 9.21384 22.7394 9.33406C22.7394 9.35521 22.7689 9.35926 22.8219 9.34546C23.2043 9.24541 23.7652 9.31524 24.1194 9.50687C24.4532 9.68747 24.7373 9.97112 24.8951 10.2813C25.1568 10.7957 24.5498 11.1037 24.2365 10.6156C23.6577 9.71356 22.4005 9.91569 22.1983 10.9433C22.0387 11.7543 22.8991 12.4625 23.6619 12.1478C23.8993 12.0499 23.9362 12.0372 24.1434 11.9822C24.3211 11.935 24.754 11.9259 24.8874 11.9665C24.9352 11.9811 25.0351 12.0108 25.1094 12.0326C25.3681 12.1085 25.6418 12.285 25.869 12.5225C26.5582 13.2428 26.5189 14.4374 25.7836 15.1155C25.5903 15.2938 25.5952 15.2663 25.7134 15.5086C25.9003 15.8918 25.7891 16.175 25.4515 16.175C25.2578 16.175 25.1805 16.1096 25.0545 15.8391L24.9444 15.6027L24.5865 15.6014C24.2318 15.6 24.1688 15.5888 23.8494 15.4704C23.2792 15.259 22.7373 14.5935 22.8731 14.2716C23.0142 13.9371 23.3557 13.9634 23.5972 14.3273C24.0147 14.9562 24.7906 15.0511 25.3055 14.5361C26.1553 13.6864 25.1594 12.2876 24.0594 12.786C22.2561 13.6031 20.5608 11.3539 21.9013 9.92274C22.0987 9.71191 22.1052 9.68829 22.0154 9.50536C21.9802 9.43366 21.9262 9.32311 21.8954 9.25966C21.7159 8.89006 22.0388 8.54221 22.3822 8.73519ZM10.647 12.1425C10.6056 12.2227 10.4811 12.4286 10.1663 12.9375C9.89548 13.3754 9.39763 14.0737 9.02991 14.5316C8.33863 15.3926 7.36333 16.3318 6.67438 16.8002C6.59188 16.8563 6.50706 16.9191 6.48591 16.9399C6.46476 16.9607 6.31963 17.0528 6.16341 17.1448C6.00718 17.2367 5.87938 17.3241 5.87938 17.3389C5.87938 17.3785 6.13543 17.9198 7.05073 19.815C7.18618 20.0955 7.33416 20.406 7.37946 20.505C7.42476 20.604 7.56561 20.901 7.69243 21.165C7.81918 21.429 7.97953 21.763 8.04868 21.9072C8.18248 22.1862 8.21046 22.2024 8.39841 22.1097C8.49051 22.0643 8.59701 22.0232 8.71438 21.9878C8.78038 21.968 8.86138 21.9419 8.89438 21.93C8.96218 21.9055 9.10101 21.8651 9.29938 21.812C9.37363 21.7922 9.47488 21.7643 9.52438 21.75C9.64101 21.7163 10.1556 21.6154 10.4244 21.5734C11.8036 21.3578 13.3019 21.3849 15.0894 21.6579C15.3162 21.6926 15.3175 21.6848 15.1458 21.3293C15.0622 21.1565 14.9464 20.9138 14.8885 20.79C14.8304 20.6663 14.6981 20.3895 14.5944 20.175C14.3616 19.6937 14.0858 19.1192 13.8597 18.645C13.5219 17.9365 13.3703 17.6197 13.1994 17.265C12.9994 16.8499 12.7549 16.3397 12.5095 15.825C12.2747 15.3325 12.0298 14.8223 11.7967 14.34C11.689 14.1173 11.5505 13.827 11.4889 13.695C11.2045 13.0856 10.707 12.06 10.6958 12.06C10.6924 12.06 10.6704 12.0971 10.647 12.1425ZM1.43413 19.4712C0.813956 19.9017 0.742256 20.4204 1.17726 21.33C1.28376 21.5528 1.44186 21.8835 1.52863 22.065C1.70953 22.4436 2.02063 23.0888 2.24796 23.5567C2.60166 24.2848 3.24298 24.5416 3.91326 24.2235C4.04226 24.1623 4.04196 24.1765 3.91858 23.9225C3.86316 23.8084 3.74698 23.5665 3.66043 23.385C3.45051 22.9447 3.26496 22.5589 2.96796 21.945C2.83221 21.6645 2.67748 21.3405 2.62401 21.225C2.51428 20.9879 2.18676 20.3036 1.90978 19.7328C1.69588 19.2919 1.69401 19.2908 1.43413 19.4712Z" fill="#04EBD3"/>
<path fill-rule="evenodd" clip-rule="evenodd" d="M21.769 2.25356C21.4075 2.37581 20.8794 2.85378 20.8794 3.05868C20.8794 3.07638 20.8675 3.11418 20.8531 3.14283C20.7245 3.39738 20.7245 3.92253 20.8531 4.17708C20.8675 4.20573 20.8794 4.24256 20.8794 4.25898C20.8794 4.27541 20.9251 4.35993 20.9811 4.44686C21.7916 5.70641 23.7265 5.16198 23.729 3.67376C23.7307 2.65841 22.7256 1.93008 21.769 2.25356ZM15.9144 7.30188C15.7481 7.3777 15.5761 7.53483 15.5134 7.66803C15.4908 7.7158 15.4605 7.77843 15.4459 7.80708C15.2962 8.10115 15.5253 8.62788 15.8797 8.80443C16.6345 9.18063 17.4181 8.29285 16.9441 7.59828C16.7174 7.26603 16.2731 7.13815 15.9144 7.30188ZM11.7894 9.62657C11.3218 9.72962 10.9794 10.1626 10.9794 10.6506C10.9794 10.9069 11.0035 10.9644 11.8034 12.6149C12.227 13.489 12.4036 13.8568 12.5089 14.0849C12.6269 14.3403 12.8384 14.7815 13.1706 15.4649C13.4516 16.0432 13.7854 16.7403 13.9104 17.0099C13.9678 17.1337 14.081 17.3704 14.162 17.5359C14.2431 17.7015 14.3094 17.8534 14.3094 17.8734C14.3094 17.8935 14.3229 17.9099 14.3394 17.9099C14.3559 17.9099 14.3694 17.9262 14.3694 17.9461C14.3694 17.9659 14.4559 18.1583 14.5618 18.3736C14.6675 18.5888 14.8143 18.8932 14.8879 19.0499C15.0787 19.4564 15.4033 20.1341 15.5416 20.4149C15.6067 20.5469 15.6598 20.6718 15.6596 20.6924C15.6595 20.7131 15.6729 20.7299 15.6894 20.7299C15.7059 20.7299 15.7194 20.7461 15.7194 20.7658C15.7194 20.7855 15.8125 20.9914 15.9263 21.2233C16.0402 21.4552 16.1889 21.7622 16.2569 21.9056C16.6189 22.6688 17.5108 22.857 18.0206 22.2778C18.1255 22.1586 18.1534 22.1132 18.2498 21.9049C18.292 21.8136 18.2917 21.3253 18.2494 21.235C18.2314 21.1964 18.1609 21.0502 18.0928 20.9099C18.0246 20.7697 17.969 20.6381 17.9692 20.6174C17.9693 20.5968 17.9559 20.5799 17.9394 20.5799C17.9229 20.5799 17.9094 20.5637 17.9094 20.5439C17.9094 20.524 17.8344 20.3547 17.7427 20.1677C17.6511 19.9806 17.5113 19.6897 17.4322 19.5212C17.2793 19.1961 17.0421 18.7022 16.7086 18.0149C16.5965 17.7839 16.4444 17.4667 16.3707 17.3099C16.1316 16.8017 15.8692 16.253 15.6896 15.8849C15.3739 15.2382 15.0234 14.5087 14.9389 14.3221C14.855 14.1369 14.6783 13.7676 14.3088 13.0049C14.0667 12.5054 13.7833 11.9133 13.5979 11.5199C13.524 11.3632 13.3974 11.0995 13.3165 10.934C13.2356 10.7684 13.1694 10.6165 13.1694 10.5965C13.1694 10.5764 13.1559 10.5599 13.1394 10.5599C13.1229 10.5599 13.1094 10.541 13.1094 10.518C13.1094 10.4689 12.9595 10.1773 12.8637 10.04C12.6378 9.71642 12.1803 9.54032 11.7894 9.62657ZM5.02439 17.7436C4.54852 17.9747 4.36057 18.0599 4.32704 18.0599C4.30634 18.0599 4.28939 18.0734 4.28939 18.0899C4.28939 18.1064 4.26239 18.1199 4.22939 18.1199C4.19639 18.1199 4.16939 18.1334 4.16939 18.1499C4.16939 18.1664 4.14239 18.1799 4.10939 18.1799C4.07639 18.1799 4.04939 18.1934 4.04939 18.2099C4.04939 18.2264 4.03259 18.2399 4.01212 18.2399C3.99157 18.2399 3.82619 18.3131 3.64462 18.4025C3.15539 18.6434 2.54452 18.9299 2.52007 18.9299C2.40599 18.9299 2.40862 19.0392 2.52869 19.2899C2.76052 19.7739 3.12712 20.5361 3.31514 20.9249C3.41887 21.1394 3.57734 21.4702 3.66742 21.6599C3.92872 22.2106 4.13144 22.6342 4.34947 23.0849C4.46114 23.3159 4.58107 23.5682 4.61594 23.6456C4.71082 23.8565 4.64167 23.8755 5.77439 23.3258C6.84899 22.8042 7.28317 22.5953 7.37189 22.5572C7.52092 22.4931 7.57342 22.6278 6.69517 20.8199C6.49274 20.4032 6.25717 19.9091 6.01574 19.3949C5.77859 18.8899 5.18557 17.6694 5.17769 17.6703C5.17589 17.6705 5.10689 17.7035 5.02439 17.7436ZM26.8194 18.702C25.9626 18.8945 25.5424 19.8169 25.9546 20.6003C26.32 21.2946 27.2779 21.4892 27.8984 20.995C28.0426 20.8802 28.2894 20.5622 28.2894 20.4912C28.2894 20.4735 28.3013 20.4357 28.3159 20.4071C28.4311 20.18 28.4293 19.8248 28.3114 19.5299C28.2581 19.3967 28.2149 19.3053 28.198 19.2899C28.1889 19.2817 28.1485 19.2277 28.1082 19.1699C27.8511 18.8016 27.2873 18.5969 26.8194 18.702ZM21.4592 19.9499C20.7901 20.0897 20.5408 20.9411 21.0289 21.4195C21.4572 21.8393 22.1689 21.7183 22.4329 21.1808C22.7511 20.533 22.1719 19.8008 21.4592 19.9499ZM24.5662 23.5049C24.4484 23.5688 24.3894 23.6805 24.3894 23.8393C24.3894 24.1981 24.9004 24.3172 25.0659 23.9969C25.2316 23.6766 24.8825 23.3329 24.5662 23.5049Z" fill="#04ACEB"/>
</svg>
