<svg width="20" height="20" viewBox="0 0 20 20" fill="none" xmlns="http://www.w3.org/2000/svg">
<path fill-rule="evenodd" clip-rule="evenodd" d="M5.0666 5.43657C5.07275 5.49792 5.06725 5.52622 5.0477 5.53372C5.0318 5.53982 5.02015 5.57297 5.02015 5.61217C5.02015 5.64947 5.01115 5.68002 5.00015 5.68002C4.98915 5.68002 4.98015 5.72447 4.98015 5.77882C4.98015 5.83317 4.97255 5.88237 4.96325 5.88812C4.95395 5.89382 4.9447 5.94947 4.94265 6.01167C4.94065 6.07392 4.93025 6.14117 4.91955 6.16112C4.8955 6.20602 4.89335 7.12657 4.91735 7.11177C4.9268 7.10592 4.9321 7.12337 4.9291 7.15057C4.9261 7.17777 4.9305 7.20002 4.93885 7.20002C4.9472 7.20002 4.9519 7.23197 4.94925 7.27102C4.9424 7.37322 4.97935 7.47707 5.028 7.49252C5.05075 7.49972 5.0934 7.53137 5.12275 7.56282C5.15215 7.59427 5.1867 7.62002 5.1996 7.62002C5.21245 7.62002 5.2639 7.66502 5.31395 7.72002C5.364 7.77502 5.4155 7.82002 5.4284 7.82002C5.4413 7.82002 5.49155 7.86052 5.54015 7.91002C5.58875 7.95952 5.6382 8.00002 5.65005 8.00002C5.66195 8.00002 5.716 8.04502 5.77015 8.10002C5.8243 8.15502 5.8783 8.20002 5.89015 8.20002C5.902 8.20002 5.956 8.24502 6.01015 8.30002C6.0643 8.35502 6.1183 8.40002 6.13015 8.40002C6.142 8.40002 6.196 8.44502 6.25015 8.50002C6.3043 8.55502 6.35835 8.60002 6.37025 8.60002C6.3821 8.60002 6.43155 8.64052 6.48015 8.69002C6.52875 8.73952 6.5782 8.78002 6.59005 8.78002C6.60195 8.78002 6.656 8.82502 6.71015 8.88002C6.7643 8.93502 6.8183 8.98002 6.83015 8.98002C6.842 8.98002 6.896 9.02502 6.95015 9.08002C7.0043 9.13502 7.0583 9.18002 7.07015 9.18002C7.082 9.18002 7.136 9.22502 7.19015 9.28002C7.2443 9.33502 7.2983 9.38002 7.31015 9.38002C7.322 9.38002 7.376 9.42502 7.43015 9.48002C7.4843 9.53502 7.5383 9.58002 7.5501 9.58002C7.56185 9.58002 7.6204 9.62952 7.68015 9.69002C7.7399 9.75052 7.79845 9.80002 7.8102 9.80002C7.822 9.80002 7.876 9.84502 7.93015 9.90002C7.9843 9.95502 8.0384 10 8.05035 10C8.06225 10 8.1072 10.036 8.15015 10.08C8.1931 10.124 8.23805 10.16 8.24995 10.16C8.2619 10.16 8.316 10.205 8.37015 10.26C8.4243 10.315 8.47835 10.36 8.49025 10.36C8.5021 10.36 8.55155 10.4005 8.60015 10.45C8.64875 10.4995 8.6982 10.54 8.71005 10.54C8.72195 10.54 8.776 10.585 8.83015 10.64C8.8843 10.695 8.9363 10.74 8.9457 10.74C8.95505 10.74 9.0066 10.785 9.06015 10.84C9.1137 10.895 9.1671 10.94 9.17875 10.94C9.1904 10.94 9.2459 10.985 9.3021 11.04C9.35825 11.095 9.41455 11.1404 9.4272 11.1409C9.4398 11.1414 9.49065 11.1819 9.54015 11.2308C9.58965 11.2797 9.6375 11.3198 9.64645 11.3199C9.6554 11.32 9.7066 11.365 9.76015 11.42C9.8137 11.475 9.8677 11.52 9.88015 11.52C9.8926 11.52 9.9466 11.565 10.0001 11.62C10.0537 11.675 10.108 11.72 10.1208 11.72C10.1336 11.72 10.1956 11.774 10.2586 11.84C10.3216 11.906 10.3818 11.96 10.3924 11.96C10.4031 11.96 10.4515 12.0005 10.5001 12.05C10.5487 12.0995 10.5982 12.14 10.61 12.14C10.6219 12.14 10.676 12.185 10.7301 12.24C10.7843 12.295 10.8384 12.34 10.8503 12.34C10.8622 12.34 10.9072 12.376 10.9501 12.42C10.9931 12.464 11.038 12.5 11.0499 12.5C11.0619 12.5 11.116 12.545 11.1701 12.6C11.2243 12.655 11.2783 12.7 11.2901 12.7C11.302 12.7 11.356 12.745 11.4102 12.8C11.4643 12.855 11.5184 12.9 11.5303 12.9C11.5421 12.9 11.5916 12.9405 11.6402 12.99C11.6888 13.0395 11.7382 13.08 11.7501 13.08C11.762 13.08 11.816 13.125 11.8702 13.18C11.9243 13.235 11.977 13.28 11.9871 13.28C12.008 13.28 12.0989 13.3733 12.0997 13.3955C12.0999 13.4035 12.1453 13.4113 12.2005 13.4129C12.2557 13.4145 12.3123 13.4252 12.3262 13.4367C12.3401 13.4482 12.3983 13.456 12.4556 13.4539C12.5169 13.4516 12.5633 13.4592 12.5683 13.4722C12.573 13.4844 12.618 13.5002 12.6685 13.5072C12.7189 13.5143 12.8005 13.5257 12.8498 13.5326C12.8991 13.5395 12.9356 13.5513 12.931 13.5587C12.9263 13.5662 12.9599 13.5746 13.0056 13.5772C13.0513 13.5799 13.1016 13.5929 13.1175 13.6061C13.1333 13.6193 13.1496 13.627 13.1535 13.6233C13.1647 13.6129 13.3243 13.6426 13.3802 13.6655C13.4077 13.6768 13.4482 13.6876 13.4702 13.6896C13.4922 13.6916 13.5327 13.7026 13.5602 13.714C13.5877 13.7254 13.6214 13.7305 13.6352 13.7253C13.6489 13.72 13.6602 13.7257 13.6602 13.7379C13.6602 13.7501 13.6866 13.76 13.719 13.76C13.7513 13.76 13.7834 13.769 13.7902 13.78C13.797 13.791 13.824 13.8 13.8502 13.8C13.8764 13.8 13.9034 13.809 13.9102 13.82C13.917 13.831 13.9445 13.84 13.9714 13.84C13.9982 13.84 14.0202 13.849 14.0202 13.86C14.0202 13.871 14.0376 13.88 14.059 13.88C14.0803 13.88 14.1034 13.889 14.1102 13.9C14.117 13.911 14.144 13.92 14.1702 13.92C14.1964 13.92 14.2234 13.929 14.2302 13.94C14.237 13.951 14.26 13.96 14.2814 13.96C14.3027 13.96 14.3202 13.969 14.3202 13.98C14.3202 13.991 14.3382 14 14.3602 14C14.3822 14 14.4002 14.009 14.4002 14.02C14.4002 14.031 14.412 14.04 14.4264 14.04C14.4409 14.04 14.4899 14.058 14.5355 14.08C14.581 14.102 14.6322 14.12 14.6492 14.12C14.6662 14.12 14.6802 14.1282 14.6802 14.1382C14.6802 14.1549 14.7147 14.175 14.936 14.2874C14.9765 14.308 15.025 14.3425 15.0438 14.3642C15.0627 14.3859 15.0868 14.3983 15.0974 14.3917C15.108 14.3852 15.1198 14.3866 15.1235 14.3949C15.1326 14.4154 15.2545 14.5 15.2749 14.5C15.284 14.5 15.3043 14.518 15.3202 14.54C15.336 14.562 15.3583 14.5803 15.3696 14.5807C15.3809 14.5811 15.4262 14.6226 15.4702 14.6729C15.5142 14.7232 15.5782 14.7954 15.6125 14.8335C15.6468 14.8716 15.6873 14.9269 15.7025 14.9564C15.7177 14.9859 15.735 15.0145 15.741 15.02C15.7569 15.0346 15.8109 15.2074 15.8051 15.225C15.8024 15.2333 15.8092 15.24 15.8202 15.24C15.8313 15.24 15.8402 15.2934 15.8402 15.36C15.8402 15.426 15.8331 15.48 15.8244 15.48C15.8158 15.48 15.8065 15.5093 15.8038 15.545C15.8011 15.5808 15.7902 15.613 15.7795 15.6167C15.7689 15.6204 15.7602 15.6361 15.7602 15.6517C15.7602 15.6673 15.7512 15.68 15.7402 15.68C15.7292 15.68 15.7202 15.6944 15.7202 15.7119C15.7202 15.7294 15.7023 15.7664 15.6804 15.7942C15.6586 15.822 15.6454 15.8524 15.6512 15.8617C15.657 15.8711 15.6434 15.8902 15.621 15.9042C15.5985 15.9182 15.5802 15.94 15.5802 15.9527C15.5802 15.9778 15.5222 16.0093 15.4902 16.0015C15.4792 15.9989 15.4765 16.003 15.4842 16.0107C15.5009 16.0274 15.4644 16.0669 15.4152 16.0855C15.3759 16.1004 15.3675 16.14 15.4035 16.14C15.4163 16.14 15.4209 16.146 15.4136 16.1532C15.4011 16.1658 15.4422 16.1955 15.5302 16.2373C15.5522 16.2478 15.6103 16.2977 15.6593 16.3482C15.7084 16.3987 15.7582 16.44 15.7701 16.44C15.782 16.44 15.836 16.485 15.8902 16.54C15.9528 16.6036 16.0058 16.64 16.0356 16.64C16.066 16.64 16.0775 16.6482 16.0683 16.6631C16.0598 16.6768 16.0627 16.6808 16.0754 16.673C16.0871 16.6657 16.1021 16.6711 16.1087 16.6849C16.1153 16.6987 16.1169 16.6898 16.1123 16.665C16.106 16.6312 16.1134 16.62 16.142 16.62C16.163 16.62 16.1802 16.6104 16.1802 16.5987C16.1802 16.587 16.2072 16.5547 16.2402 16.527C16.2732 16.4992 16.3002 16.4682 16.3002 16.4581C16.3002 16.4479 16.3272 16.4114 16.3602 16.3769C16.3932 16.3423 16.4202 16.3061 16.4202 16.2962C16.4202 16.2864 16.4382 16.259 16.4602 16.2354C16.4822 16.2118 16.5002 16.1801 16.5002 16.1651C16.5002 16.15 16.5092 16.1432 16.5202 16.15C16.5315 16.157 16.5402 16.1402 16.5402 16.1112C16.5402 16.0831 16.5469 16.06 16.5552 16.0599C16.5731 16.0597 16.6202 15.9628 16.6202 15.926C16.6202 15.9117 16.6282 15.9 16.6379 15.9C16.6556 15.9 16.6726 15.8371 16.6934 15.695C16.6994 15.6538 16.7109 15.62 16.7189 15.62C16.755 15.62 16.7438 15.1772 16.7065 15.1347C16.6821 15.1067 16.68 15.0988 16.7002 15.1104C16.7239 15.1241 16.7257 15.1217 16.7086 15.0989C16.6968 15.083 16.6898 15.0417 16.6932 15.007C16.6985 14.953 16.6938 14.9454 16.6603 14.9542C16.6329 14.9614 16.5978 14.94 16.5423 14.8822C16.4988 14.837 16.453 14.8 16.4403 14.8C16.4277 14.8 16.3764 14.755 16.3264 14.7C16.2763 14.645 16.2248 14.6 16.2119 14.6C16.199 14.6 16.1488 14.5595 16.1002 14.51C16.0516 14.4605 16.0021 14.42 15.9903 14.42C15.9784 14.42 15.9243 14.375 15.8702 14.32C15.816 14.265 15.762 14.22 15.7502 14.22C15.7383 14.22 15.6843 14.175 15.6302 14.12C15.576 14.065 15.522 14.02 15.5102 14.02C15.4983 14.02 15.4443 13.975 15.3902 13.92C15.336 13.865 15.282 13.82 15.2701 13.82C15.2582 13.82 15.2088 13.7795 15.1602 13.73C15.1116 13.6805 15.0622 13.64 15.0504 13.64C15.0386 13.64 14.9755 13.586 14.9102 13.52C14.8449 13.454 14.7818 13.4 14.77 13.4C14.7583 13.4 14.7043 13.355 14.6502 13.3C14.596 13.245 14.5442 13.2 14.5351 13.2C14.526 13.2 14.4917 13.1802 14.4589 13.156L14.3993 13.1119L14.4448 13.0867C14.4789 13.0677 14.4819 13.0613 14.4568 13.0607C14.4385 13.0603 14.419 13.0488 14.4134 13.035C14.4065 13.0179 14.4028 13.0195 14.4017 13.04C14.4 13.0725 14.3002 13.089 14.3002 13.0567C14.3002 13.0462 14.3098 13.0436 14.3217 13.0509C14.3338 13.0585 14.3323 13.0468 14.3181 13.0241C14.3013 12.9972 14.2777 12.9868 14.2466 12.9924C14.2203 12.9972 14.2002 12.9909 14.2002 12.9781C14.2002 12.9647 14.1799 12.9592 14.1508 12.9648C14.1236 12.97 14.1055 12.9676 14.1105 12.9595C14.1223 12.9404 13.9586 12.8986 13.9333 12.9143C13.9218 12.9214 13.9206 12.9155 13.9304 12.8997C13.942 12.8808 13.9378 12.8767 13.9154 12.8853C13.8982 12.8919 13.8674 12.8847 13.8471 12.8693C13.8268 12.8539 13.7809 12.841 13.7452 12.8407C13.7094 12.8403 13.6802 12.831 13.6802 12.82C13.6802 12.809 13.6442 12.8 13.6002 12.8C13.5562 12.8 13.5202 12.791 13.5202 12.78C13.5202 12.769 13.4932 12.76 13.4602 12.76C13.4272 12.76 13.4002 12.751 13.4002 12.74C13.4002 12.729 13.3642 12.72 13.3202 12.72C13.2762 12.72 13.2402 12.711 13.2402 12.7C13.2402 12.689 13.2094 12.68 13.1718 12.68C13.1343 12.68 13.099 12.6688 13.0934 12.655C13.086 12.6366 13.0829 12.6372 13.0817 12.6575C13.0806 12.6776 13.0733 12.6792 13.0544 12.6635C13.0402 12.6518 12.9907 12.6399 12.9444 12.6372C12.8981 12.6344 12.8602 12.625 12.8602 12.6161C12.8602 12.6073 12.8291 12.6 12.7911 12.6C12.6998 12.6 12.6156 12.5609 12.6294 12.5248C12.6353 12.5094 12.6402 12.488 12.6402 12.4772C12.6402 12.4665 12.6498 12.4636 12.6615 12.4709C12.6735 12.4783 12.6801 12.4716 12.6765 12.4557C12.6699 12.4261 12.7596 12.2804 12.7845 12.2802C12.7925 12.2801 12.7937 12.2665 12.7874 12.25C12.7811 12.2335 12.7853 12.22 12.7967 12.22C12.8082 12.22 12.829 12.1885 12.8429 12.15C12.8568 12.1115 12.8759 12.08 12.8854 12.08C12.8948 12.08 12.897 12.071 12.8902 12.06C12.8834 12.049 12.8888 12.04 12.9023 12.04C12.9158 12.04 12.921 12.0342 12.9138 12.0271C12.9067 12.0199 12.9198 11.9977 12.9429 11.9777C12.9867 11.9397 12.9819 11.88 12.9351 11.88C12.9205 11.88 12.8643 11.835 12.8102 11.78C12.756 11.725 12.702 11.68 12.6902 11.68C12.6783 11.68 12.6243 11.635 12.5702 11.58C12.516 11.525 12.4643 11.48 12.4553 11.48C12.4463 11.48 12.383 11.4262 12.3146 11.3603C12.2462 11.2945 12.1801 11.2405 12.1677 11.2403C12.1554 11.2402 12.1079 11.1995 12.0623 11.15C12.0167 11.1005 11.97 11.06 11.9585 11.06C11.947 11.06 11.8937 11.015 11.8402 10.96C11.7866 10.905 11.7326 10.86 11.7201 10.86C11.7077 10.86 11.6537 10.815 11.6002 10.76C11.5466 10.705 11.4922 10.66 11.4793 10.66C11.4664 10.66 11.4137 10.615 11.362 10.56C11.3103 10.505 11.2592 10.46 11.2483 10.46C11.2374 10.46 11.1887 10.4195 11.1401 10.37C11.0915 10.3205 11.0421 10.28 11.0303 10.28C11.0185 10.28 10.9617 10.235 10.904 10.18C10.8464 10.125 10.7922 10.08 10.7837 10.08C10.7752 10.08 10.7331 10.044 10.6901 10C10.6472 9.95602 10.6022 9.92002 10.5902 9.92002C10.5783 9.92002 10.5283 9.87907 10.4793 9.82907C10.3188 9.66532 10.4104 9.67612 9.10015 9.66622C7.91145 9.65722 7.74015 9.65097 7.74015 9.61682C7.74015 9.60627 7.7311 9.60327 7.72 9.61012C7.70895 9.61697 7.6942 9.60772 7.68725 9.58962C7.6784 9.56667 7.6702 9.56372 7.6602 9.57997C7.65165 9.59377 7.64065 9.57762 7.6332 9.54032C7.6249 9.49882 7.61255 9.48237 7.597 9.49197C7.581 9.50187 7.5775 9.49582 7.5861 9.47332C7.5941 9.45247 7.5889 9.44002 7.57215 9.44002C7.55415 9.44002 7.5477 9.42017 7.55245 9.37927C7.5566 9.34367 7.5493 9.31462 7.53485 9.30907C7.51565 9.30167 7.51065 9.06282 7.51235 8.23482C7.51355 7.64917 7.5109 7.19702 7.50645 7.23002C7.49125 7.34367 7.4841 7.34427 7.37555 7.24082C7.3176 7.18562 7.26075 7.14032 7.2493 7.14022C7.23785 7.14012 7.18875 7.09952 7.14015 7.05002C7.09155 7.00052 7.0441 6.96002 7.0347 6.96002C7.02525 6.96002 6.9737 6.91502 6.92015 6.86002C6.8666 6.80502 6.8126 6.76002 6.80015 6.76002C6.7877 6.76002 6.7337 6.71502 6.68015 6.66002C6.6266 6.60502 6.5726 6.56002 6.56015 6.56002C6.5477 6.56002 6.4937 6.51502 6.44015 6.46002C6.3866 6.40502 6.33505 6.36002 6.3256 6.36002C6.3162 6.36002 6.26875 6.31952 6.22015 6.27002C6.17155 6.22052 6.12245 6.17992 6.111 6.17982C6.09955 6.17972 6.043 6.13472 5.9854 6.07982C5.92775 6.02492 5.87345 5.98002 5.86465 5.98002C5.85585 5.98002 5.8043 5.93502 5.75015 5.88002C5.696 5.82502 5.642 5.78002 5.63015 5.78002C5.6183 5.78002 5.5643 5.73502 5.51015 5.68002C5.456 5.62502 5.4032 5.58002 5.39285 5.58002C5.3825 5.58002 5.32555 5.53417 5.2663 5.47817C5.1933 5.40912 5.14815 5.38037 5.126 5.38887C5.10805 5.39572 5.0854 5.38982 5.07565 5.37572C5.06465 5.35972 5.06125 5.38277 5.0666 5.43657ZM8.3085 8.24002L8.31015 8.87002L8.53515 8.87567L8.76015 8.88132V8.63377C8.76015 8.38382 8.74135 8.32002 8.66775 8.32002C8.65715 8.32002 8.60835 8.27867 8.5593 8.22817C8.4773 8.14367 8.39205 8.08882 8.35515 8.09677C8.33425 8.10127 8.3362 8.11502 8.3208 7.85002C8.31115 7.68362 8.30735 7.80317 8.3085 8.24002ZM14.4927 13.0905C14.4861 13.1078 14.4929 13.12 14.5091 13.12C14.5244 13.12 14.5414 13.1313 14.5469 13.145C14.5546 13.1641 14.5574 13.1638 14.5586 13.1436C14.5613 13.0988 14.5065 13.0547 14.4927 13.0905ZM14.6805 13.165C14.6803 13.1885 14.6949 13.1995 14.7252 13.1984C14.7552 13.1974 14.7602 13.1931 14.7402 13.1854C14.7237 13.1792 14.7036 13.1641 14.6955 13.152C14.6864 13.1385 14.6807 13.1434 14.6805 13.165ZM16.0263 16.7284C16.0284 16.7403 16.0189 16.7478 16.0052 16.745C15.9914 16.7423 15.9802 16.749 15.9802 16.76C15.9802 16.787 16.003 16.7842 16.0452 16.7522C16.0877 16.7199 16.0895 16.7067 16.0513 16.7067C16.0354 16.7067 16.0241 16.7164 16.0263 16.7284Z" fill="#0498CC"/>
<path fill-rule="evenodd" clip-rule="evenodd" d="M5.01396 7.43992C5.01981 7.46232 5.01456 7.47997 5.00211 7.47997C4.96821 7.47997 4.97536 7.52192 5.01476 7.55442C5.04796 7.58177 5.04791 7.58267 5.01381 7.57187C4.98086 7.56147 4.98036 7.56407 5.00771 7.60312C5.02606 7.62932 5.03321 7.66777 5.02616 7.70287C5.01901 7.73862 5.02316 7.75997 5.03726 7.75997C5.04966 7.75997 5.05976 7.79147 5.05976 7.82997C5.05976 7.86847 5.06876 7.89997 5.07976 7.89997C5.09076 7.89997 5.09976 7.91797 5.09976 7.93997C5.09976 7.96197 5.11101 7.98012 5.12476 7.98027C5.14141 7.98047 5.13976 7.98707 5.11976 7.99997C5.09976 8.01287 5.09811 8.01947 5.11476 8.01967C5.12916 8.01982 5.13976 8.04547 5.13976 8.07997C5.13976 8.11297 5.14656 8.13997 5.15491 8.13997C5.17336 8.13997 5.21976 8.28357 5.21976 8.34082C5.21976 8.36367 5.22876 8.37677 5.23976 8.36997C5.25076 8.36317 5.25976 8.37562 5.25976 8.39762C5.25976 8.41962 5.26876 8.44317 5.27976 8.44997C5.29076 8.45677 5.29976 8.48432 5.29976 8.51117C5.29976 8.53802 5.30876 8.55997 5.31976 8.55997C5.33076 8.55997 5.33871 8.56672 5.33741 8.57497C5.32891 8.62857 5.34291 8.70037 5.35976 8.68997C5.37106 8.68297 5.37976 8.69937 5.37976 8.72762C5.37976 8.75512 5.38876 8.78317 5.39976 8.78997C5.41076 8.79677 5.41976 8.81982 5.41976 8.84117C5.41976 8.86252 5.42826 8.87997 5.43861 8.87997C5.44896 8.87997 5.45401 8.89797 5.44976 8.91997C5.44451 8.94717 5.45291 8.96007 5.47591 8.96027C5.49951 8.96047 5.50241 8.96527 5.48546 8.97602C5.46666 8.98797 5.46781 9.00437 5.49046 9.04802C5.50656 9.07912 5.51976 9.11702 5.51976 9.13227C5.51976 9.14752 5.52731 9.15997 5.53656 9.15997C5.55806 9.15997 5.59976 9.25092 5.59976 9.29782C5.59976 9.31757 5.61776 9.35007 5.63976 9.36997C5.66176 9.38987 5.67976 9.42727 5.67976 9.45307C5.67976 9.47887 5.68876 9.49997 5.69976 9.49997C5.71076 9.49997 5.71976 9.51797 5.71976 9.53997C5.71976 9.56197 5.72876 9.57997 5.73976 9.57997C5.75076 9.57997 5.75976 9.59797 5.75976 9.61997C5.75976 9.64197 5.76876 9.65997 5.77976 9.65997C5.79076 9.65997 5.79976 9.67797 5.79976 9.69997C5.79976 9.72197 5.80876 9.73997 5.81976 9.73997C5.83076 9.73997 5.83976 9.75797 5.83976 9.77997C5.83976 9.80197 5.84876 9.81997 5.85976 9.81997C5.87076 9.81997 5.87976 9.83642 5.87976 9.85657C5.87976 9.90532 5.97036 10.0827 5.98681 10.0662C5.99396 10.0591 5.99976 10.0728 5.99976 10.0966C5.99976 10.1205 6.00876 10.14 6.01976 10.14C6.03076 10.14 6.03976 10.158 6.03976 10.18C6.03976 10.202 6.04876 10.22 6.05976 10.22C6.07076 10.22 6.07976 10.2385 6.07976 10.2612C6.07976 10.2838 6.08876 10.2968 6.09976 10.29C6.11116 10.2829 6.11976 10.3002 6.11976 10.33C6.11976 10.3598 6.12836 10.377 6.13976 10.37C6.15076 10.3632 6.15976 10.3761 6.15976 10.3988C6.15976 10.4214 6.16876 10.44 6.17976 10.44C6.19076 10.44 6.19976 10.458 6.19976 10.48C6.19976 10.502 6.20876 10.52 6.21976 10.52C6.23076 10.52 6.23976 10.538 6.23976 10.56C6.23976 10.582 6.24931 10.6 6.26096 10.6C6.27261 10.6 6.27721 10.608 6.27116 10.6177C6.26511 10.6275 6.27361 10.6466 6.28996 10.6602C6.30636 10.6738 6.31976 10.6981 6.31976 10.7143C6.31976 10.7304 6.33766 10.7664 6.35951 10.7942C6.38136 10.8219 6.39431 10.8526 6.38831 10.8623C6.38231 10.872 6.38691 10.88 6.39856 10.88C6.41021 10.88 6.41976 10.8985 6.41976 10.9212C6.41976 10.9438 6.42726 10.9577 6.43636 10.9521C6.44551 10.9464 6.46521 10.9729 6.48011 11.0109C6.49501 11.0489 6.51456 11.08 6.52351 11.08C6.53246 11.08 6.53976 11.0985 6.53976 11.1212C6.53976 11.1438 6.54876 11.1568 6.55976 11.15C6.57076 11.1432 6.57976 11.1561 6.57976 11.1788C6.57976 11.2014 6.58706 11.22 6.59601 11.22C6.60496 11.22 6.62451 11.2511 6.63941 11.2891C6.65431 11.3271 6.67401 11.3535 6.68316 11.3479C6.69226 11.3422 6.69976 11.3561 6.69976 11.3788C6.69976 11.4014 6.70876 11.42 6.71976 11.42C6.73076 11.42 6.73976 11.438 6.73976 11.46C6.73976 11.482 6.74706 11.5 6.75601 11.5C6.76496 11.5 6.78451 11.5311 6.79941 11.5691C6.81431 11.6071 6.83401 11.6335 6.84316 11.6279C6.85226 11.6222 6.85976 11.6361 6.85976 11.6588C6.85976 11.6814 6.86651 11.7001 6.87476 11.7003C6.88301 11.7005 6.91176 11.7455 6.93871 11.8003C6.96561 11.8551 6.99486 11.9 7.00371 11.9C7.01251 11.9 7.01976 11.918 7.01976 11.94C7.01976 11.962 7.02876 11.98 7.03976 11.98C7.05076 11.98 7.05976 11.9935 7.05976 12.01C7.05976 12.0265 7.06786 12.04 7.07781 12.04C7.08771 12.04 7.10526 12.067 7.11676 12.1C7.12826 12.133 7.14766 12.16 7.15991 12.16C7.17211 12.16 7.17741 12.1676 7.17161 12.177C7.16581 12.1863 7.18301 12.2237 7.20976 12.26C7.23651 12.2963 7.25416 12.3328 7.24896 12.3413C7.24376 12.3497 7.24686 12.3596 7.25581 12.3633C7.26476 12.367 7.30126 12.4127 7.33691 12.465L7.40166 12.56H7.35071C7.32271 12.56 7.29976 12.569 7.29976 12.58C7.29976 12.591 7.25476 12.6 7.19976 12.6C7.14476 12.6 7.09976 12.609 7.09976 12.62C7.09976 12.631 7.05476 12.64 6.99976 12.64C6.94476 12.64 6.89976 12.649 6.89976 12.66C6.89976 12.671 6.86376 12.68 6.81976 12.68C6.77576 12.68 6.73976 12.689 6.73976 12.7C6.73976 12.711 6.70376 12.72 6.65976 12.72C6.61576 12.72 6.57976 12.729 6.57976 12.74C6.57976 12.751 6.54881 12.76 6.51096 12.76C6.47311 12.76 6.43656 12.769 6.42976 12.78C6.42296 12.791 6.38416 12.8001 6.34356 12.8003C6.28856 12.8005 6.27741 12.8055 6.29976 12.82C6.32171 12.8342 6.30701 12.8394 6.24476 12.8397C6.19801 12.8398 6.15976 12.849 6.15976 12.86C6.15976 12.871 6.12376 12.88 6.07976 12.88C6.03576 12.88 5.99976 12.888 5.99976 12.8977C5.99976 12.9075 5.97051 12.9209 5.93476 12.9276C5.87021 12.9397 5.85741 12.9433 5.79976 12.9655C5.78326 12.9719 5.71126 12.9962 5.63976 13.0195C5.56826 13.0428 5.49411 13.0704 5.47501 13.0809C5.45591 13.0914 5.42666 13.1 5.41001 13.1C5.39336 13.1 5.37976 13.109 5.37976 13.12C5.37976 13.131 5.35781 13.14 5.33096 13.14C5.30411 13.14 5.27656 13.149 5.26976 13.16C5.26296 13.171 5.23991 13.18 5.21856 13.18C5.19721 13.18 5.17976 13.189 5.17976 13.2C5.17976 13.211 5.16176 13.22 5.13976 13.22C5.11776 13.22 5.09976 13.229 5.09976 13.24C5.09976 13.251 5.08751 13.26 5.07256 13.26C5.03971 13.26 4.79251 13.3838 4.78311 13.405C4.77941 13.4132 4.75916 13.42 4.73811 13.42C4.71701 13.42 4.69976 13.4268 4.69976 13.4351C4.69976 13.4434 4.67051 13.463 4.63476 13.4786C4.59901 13.4942 4.55521 13.5234 4.53741 13.5435C4.51961 13.5635 4.49036 13.58 4.47241 13.58C4.45446 13.58 4.43976 13.589 4.43976 13.6C4.43976 13.611 4.42851 13.62 4.41476 13.62C4.40101 13.62 4.35826 13.647 4.31976 13.68C4.28126 13.7129 4.24261 13.7399 4.23391 13.7399C4.22521 13.74 4.20721 13.7491 4.19391 13.7603C4.13571 13.8094 4.08026 13.8521 4.03856 13.88C3.94737 13.9409 3.65977 14.2466 3.65977 14.2826C3.65977 14.2943 3.63277 14.3291 3.59977 14.36C3.56677 14.3908 3.53977 14.4304 3.53977 14.448C3.53977 14.4656 3.53077 14.48 3.51977 14.48C3.50877 14.48 3.49977 14.4939 3.49977 14.5108C3.49977 14.5278 3.48177 14.561 3.45977 14.5846C3.43777 14.6082 3.41977 14.6438 3.41977 14.6637C3.41977 14.6837 3.41077 14.7 3.39977 14.7C3.38877 14.7 3.37977 14.718 3.37977 14.74C3.37977 14.762 3.37077 14.78 3.35977 14.78C3.34877 14.78 3.33977 14.807 3.33977 14.84C3.33977 14.873 3.33077 14.9 3.31977 14.9C3.30877 14.9 3.29977 14.9354 3.29977 14.9788C3.29977 15.0221 3.29077 15.0632 3.27977 15.07C3.26797 15.0773 3.25977 15.1968 3.25977 15.3612C3.25977 15.5337 3.26737 15.64 3.27977 15.64C3.29077 15.64 3.29977 15.6709 3.29977 15.7088C3.29977 15.7466 3.30877 15.7832 3.31977 15.79C3.33077 15.7968 3.33977 15.8238 3.33977 15.85C3.33977 15.8762 3.34877 15.9032 3.35977 15.91C3.37077 15.9168 3.37977 15.9398 3.37977 15.9612C3.37977 15.9825 3.38877 16 3.39977 16C3.41077 16 3.41997 16.0157 3.42022 16.035C3.42047 16.0542 3.43827 16.0925 3.45977 16.12C3.48127 16.1475 3.49907 16.1812 3.49932 16.195C3.49957 16.2087 3.50877 16.22 3.51977 16.22C3.53077 16.22 3.53977 16.2344 3.53977 16.252C3.53977 16.2695 3.56677 16.3091 3.59977 16.34C3.63277 16.3708 3.65987 16.4037 3.66002 16.413C3.66057 16.4497 3.97821 16.7947 4.04686 16.8331C4.06356 16.8425 4.11156 16.8794 4.15351 16.9151C4.24801 16.9956 4.37491 17.08 4.40146 17.08C4.41246 17.08 4.44076 17.098 4.46436 17.12C4.48796 17.142 4.51911 17.16 4.53351 17.16C4.54796 17.16 4.55976 17.169 4.55976 17.18C4.55976 17.191 4.57831 17.2 4.60096 17.2C4.62361 17.2 4.63656 17.209 4.62976 17.22C4.62296 17.231 4.63141 17.24 4.64856 17.24C4.66571 17.24 4.67976 17.2473 4.67976 17.2562C4.67976 17.2652 4.71126 17.2849 4.74976 17.3C4.78826 17.3151 4.81976 17.3348 4.81976 17.3437C4.81976 17.3527 4.83776 17.36 4.85976 17.36C4.88176 17.36 4.89976 17.369 4.89976 17.38C4.89976 17.391 4.91776 17.4 4.93976 17.4C4.96176 17.4 4.97976 17.409 4.97976 17.42C4.97976 17.431 4.99701 17.44 5.01811 17.44C5.03916 17.44 5.05941 17.4489 5.06311 17.4598C5.06676 17.4707 5.09451 17.4817 5.12476 17.4842C5.15501 17.4867 5.17976 17.4957 5.17976 17.5043C5.17976 17.5129 5.19776 17.52 5.21976 17.52C5.24176 17.52 5.25976 17.529 5.25976 17.54C5.25976 17.551 5.27776 17.56 5.29976 17.56C5.32176 17.56 5.33976 17.5695 5.33976 17.5812C5.33976 17.5928 5.34716 17.5978 5.35621 17.5922C5.36521 17.5866 5.39776 17.5951 5.42846 17.611C5.45921 17.6269 5.49681 17.64 5.51206 17.64C5.52731 17.64 5.53976 17.649 5.53976 17.66C5.53976 17.671 5.56171 17.68 5.58856 17.68C5.61541 17.68 5.64296 17.689 5.64976 17.7C5.65656 17.711 5.68411 17.72 5.71096 17.72C5.73781 17.72 5.75976 17.729 5.75976 17.74C5.75976 17.751 5.78676 17.76 5.81976 17.76C5.85276 17.76 5.87976 17.769 5.87976 17.78C5.87976 17.791 5.90676 17.8 5.93976 17.8C5.97276 17.8 5.99976 17.809 5.99976 17.82C5.99976 17.831 6.02286 17.84 6.05106 17.84C6.07931 17.84 6.11756 17.8481 6.13606 17.858C6.16966 17.8759 6.29846 17.9034 6.36476 17.9068C6.38401 17.9077 6.39976 17.9156 6.39976 17.9243C6.39976 17.9329 6.43126 17.94 6.46976 17.94C6.50826 17.94 6.53976 17.949 6.53976 17.96C6.53976 17.971 6.57576 17.98 6.61976 17.98C6.66376 17.98 6.69976 17.989 6.69976 18C6.69976 18.011 6.74081 18.02 6.79096 18.02C6.84111 18.02 6.87756 18.0273 6.87201 18.0363C6.86651 18.0453 6.90421 18.0548 6.95586 18.0574C7.00751 18.06 7.05276 18.0706 7.05641 18.081C7.06011 18.0915 7.10286 18.1 7.15141 18.1C7.20001 18.1 7.23976 18.109 7.23976 18.12C7.23976 18.1311 7.29311 18.14 7.35976 18.14C7.42641 18.14 7.47976 18.1489 7.47976 18.16C7.47976 18.1711 7.53311 18.18 7.59976 18.18C7.66641 18.18 7.71976 18.1889 7.71976 18.2C7.71976 18.2112 7.77601 18.22 7.84856 18.22C7.91941 18.22 7.98296 18.229 7.98976 18.24C7.99656 18.251 8.07411 18.26 8.16211 18.26C8.26371 18.26 8.31761 18.2673 8.30976 18.28C8.30181 18.2928 8.37621 18.3 8.51856 18.3C8.65271 18.3 8.73976 18.3078 8.73976 18.32C8.73976 18.3325 8.86311 18.34 9.06976 18.34C9.27641 18.34 9.39976 18.3474 9.39976 18.36C9.39976 18.3729 9.61311 18.38 9.99976 18.38C10.3864 18.38 10.5998 18.3729 10.5998 18.36C10.5998 18.3474 10.7231 18.34 10.9298 18.34C11.1364 18.34 11.2598 18.3325 11.2598 18.32C11.2598 18.3078 11.3468 18.3 11.481 18.3C11.6233 18.3 11.6977 18.2928 11.6898 18.28C11.6819 18.2673 11.7358 18.26 11.8374 18.26C11.9254 18.26 12.003 18.251 12.0098 18.24C12.0166 18.229 12.0796 18.22 12.1498 18.22C12.22 18.22 12.283 18.211 12.2898 18.2C12.2966 18.189 12.3511 18.18 12.411 18.18C12.4708 18.18 12.5198 18.171 12.5198 18.16C12.5198 18.1488 12.5735 18.14 12.641 18.14C12.7166 18.14 12.7575 18.1325 12.7498 18.12C12.7422 18.1077 12.7757 18.1 12.8369 18.1C12.8917 18.1 12.9394 18.0915 12.9431 18.081C12.9468 18.0706 12.992 18.06 13.0437 18.0574C13.0953 18.0548 13.133 18.0453 13.1275 18.0363C13.122 18.0273 13.1584 18.02 13.2086 18.02C13.2587 18.02 13.2998 18.011 13.2998 18C13.2998 17.989 13.3307 17.98 13.3686 17.98C13.4064 17.98 13.443 17.971 13.4498 17.96C13.4566 17.949 13.492 17.94 13.5285 17.94C13.565 17.94 13.6274 17.9264 13.6672 17.9097C13.707 17.8931 13.7441 17.8796 13.7497 17.8797C13.7552 17.8799 13.7643 17.8789 13.7698 17.8775C13.7753 17.8761 13.7865 17.8733 13.7948 17.8712C13.803 17.8691 13.8449 17.8571 13.8879 17.8444C13.9309 17.8318 13.9736 17.8262 13.9829 17.8319C13.9922 17.8376 13.9998 17.8328 13.9998 17.8212C13.9998 17.8095 14.0268 17.8 14.0598 17.8C14.0928 17.8 14.1198 17.791 14.1198 17.78C14.1198 17.769 14.1468 17.76 14.1798 17.76C14.2128 17.76 14.2398 17.751 14.2398 17.74C14.2398 17.729 14.2617 17.72 14.2886 17.72C14.3154 17.72 14.343 17.711 14.3498 17.7C14.3566 17.689 14.3841 17.68 14.411 17.68C14.4378 17.68 14.4598 17.671 14.4598 17.66C14.4598 17.649 14.4734 17.64 14.49 17.64C14.5067 17.64 14.5382 17.631 14.56 17.62C14.5819 17.609 14.6177 17.591 14.6395 17.58C14.6614 17.569 14.6929 17.56 14.7095 17.56C14.7262 17.56 14.7398 17.551 14.7398 17.54C14.7398 17.529 14.7578 17.52 14.7798 17.52C14.8018 17.52 14.8198 17.5095 14.8198 17.4966C14.8198 17.4838 14.8253 17.4788 14.832 17.4855C14.8387 17.4922 14.8761 17.4806 14.9152 17.4596C14.9542 17.4387 14.9937 17.4262 15.003 17.432C15.0122 17.4377 15.0198 17.4328 15.0198 17.4212C15.0198 17.4095 15.0333 17.4 15.0498 17.4C15.0663 17.4 15.0798 17.391 15.0798 17.38C15.0798 17.369 15.1023 17.36 15.1298 17.36C15.1573 17.36 15.1798 17.351 15.1798 17.34C15.1798 17.329 15.1919 17.32 15.2067 17.32C15.2215 17.32 15.2499 17.302 15.2698 17.28C15.2897 17.258 15.3226 17.24 15.3429 17.24C15.3632 17.24 15.3798 17.231 15.3798 17.22C15.3798 17.209 15.3933 17.2 15.4098 17.2C15.4263 17.2 15.4398 17.191 15.4398 17.18C15.4398 17.169 15.4533 17.16 15.4698 17.16C15.4863 17.16 15.4998 17.151 15.4998 17.14C15.4998 17.129 15.5133 17.12 15.5298 17.12C15.5463 17.12 15.5598 17.111 15.5598 17.1C15.5598 17.089 15.5733 17.08 15.5898 17.08C15.6063 17.08 15.6198 17.071 15.6198 17.06C15.6198 17.049 15.6333 17.04 15.6498 17.04C15.6663 17.04 15.6798 17.031 15.6798 17.02C15.6798 17.009 15.6865 17.0018 15.6948 17.0039C15.7317 17.0137 15.8019 16.9743 15.7922 16.9492C15.7854 16.9314 15.7921 16.926 15.8116 16.9334C15.8302 16.9406 15.8392 16.9346 15.8356 16.9174C15.8324 16.9023 15.841 16.8922 15.8548 16.895C15.8685 16.8977 15.8798 16.8904 15.8798 16.8788C15.8798 16.8671 15.8865 16.8617 15.8948 16.8667C15.9161 16.8796 15.9602 16.8274 15.9436 16.8089C15.936 16.8005 15.9445 16.7989 15.9625 16.8053C15.9874 16.8142 15.9928 16.8076 15.985 16.7776C15.978 16.7512 15.9837 16.7402 16.0022 16.7441C16.0174 16.7473 16.0273 16.7381 16.0243 16.7235C16.0213 16.7089 16.0262 16.7016 16.0352 16.7072C16.0612 16.7232 16.1063 16.6869 16.0912 16.6622C16.0836 16.65 16.0574 16.64 16.0328 16.64C16.0058 16.64 15.9495 16.6006 15.8898 16.54C15.8356 16.485 15.7816 16.44 15.7697 16.44C15.7578 16.44 15.708 16.3986 15.6589 16.3481C15.6099 16.2976 15.5518 16.2477 15.5298 16.2373C15.4512 16.1999 15.3901 16.1606 15.4098 16.16C15.4327 16.1593 15.3782 16.1207 15.3536 16.1203C15.3447 16.1201 15.343 16.129 15.3498 16.14C15.3566 16.151 15.3476 16.16 15.3298 16.16C15.312 16.16 15.3021 16.1676 15.3079 16.177C15.3137 16.1863 15.2962 16.2058 15.2691 16.2203C15.242 16.2349 15.2198 16.2542 15.2198 16.2634C15.2198 16.2725 15.2102 16.28 15.1986 16.28C15.1869 16.28 15.1831 16.2687 15.1901 16.255C15.1971 16.2412 15.1862 16.2487 15.1659 16.2715C15.1456 16.2944 15.1179 16.3094 15.1044 16.3048C15.0908 16.3003 15.0798 16.3114 15.0798 16.3295C15.0798 16.3476 15.0707 16.3567 15.0596 16.3499C15.0486 16.343 15.0343 16.3509 15.0281 16.3673C15.0218 16.3837 15 16.3939 14.9798 16.39C14.9595 16.3861 14.9383 16.3949 14.9327 16.4095C14.9271 16.4242 14.8949 16.4423 14.8611 16.4497C14.8274 16.4571 14.7998 16.4696 14.7998 16.4775C14.7998 16.4932 14.5678 16.6147 14.5198 16.6241C14.5033 16.6273 14.4853 16.6345 14.4798 16.64C14.4559 16.6639 14.3778 16.7 14.35 16.7C14.3334 16.7 14.3198 16.7072 14.3198 16.716C14.3198 16.7344 14.2024 16.78 14.155 16.78C14.1375 16.78 14.1201 16.7889 14.1164 16.7998C14.1128 16.8107 14.085 16.8217 14.0548 16.8242C14.0245 16.8267 13.9998 16.8357 13.9998 16.8443C13.9998 16.8529 13.975 16.8601 13.9448 16.8603C13.9019 16.8605 13.8964 16.8649 13.9198 16.88C13.9425 16.8947 13.9341 16.8994 13.8848 16.8997C13.849 16.8998 13.8198 16.907 13.8198 16.9156C13.8198 16.9242 13.795 16.9333 13.7648 16.9358C13.7345 16.9383 13.7068 16.9492 13.7031 16.9601C13.6994 16.9711 13.6612 16.98 13.6181 16.98C13.575 16.98 13.5398 16.989 13.5398 17C13.5398 17.011 13.5128 17.02 13.4798 17.02C13.4468 17.02 13.4198 17.029 13.4198 17.04C13.4198 17.051 13.3905 17.06 13.3548 17.0601C13.319 17.0602 13.2358 17.0763 13.1698 17.0959C13.1038 17.1154 13.0295 17.1301 13.0048 17.1284C12.98 17.1268 12.9598 17.1323 12.9598 17.1406C12.9598 17.1554 12.9007 17.1665 12.6844 17.1924C12.6265 17.1993 12.5742 17.2129 12.5682 17.2225C12.5623 17.2321 12.5129 17.24 12.4586 17.24C12.4042 17.24 12.3598 17.249 12.3598 17.26C12.3598 17.271 12.3153 17.28 12.261 17.28C12.2066 17.28 12.1566 17.289 12.1498 17.3C12.143 17.311 12.0722 17.32 11.9926 17.32C11.9129 17.32 11.8392 17.3282 11.8288 17.3384C11.8073 17.3591 11.6345 17.3768 11.3048 17.392C11.181 17.3977 11.0798 17.4109 11.0798 17.4212C11.0798 17.4324 10.8787 17.44 10.581 17.44C10.27 17.44 10.0775 17.4475 10.0698 17.46C10.0537 17.4859 9.94581 17.4859 9.92976 17.46C9.92206 17.4475 9.72956 17.44 9.41856 17.44C9.09936 17.44 8.91976 17.4328 8.91976 17.42C8.91976 17.4079 8.83351 17.4 8.70096 17.4C8.57661 17.4 8.47676 17.3913 8.46976 17.38C8.46296 17.369 8.39671 17.36 8.32256 17.36C8.24841 17.36 8.17921 17.3517 8.16876 17.3416C8.15831 17.3315 8.09126 17.3181 8.01976 17.3119C7.70671 17.2848 7.63976 17.2753 7.63976 17.2582C7.63976 17.2482 7.59656 17.24 7.54376 17.24C7.49096 17.24 7.43921 17.2318 7.42876 17.2219C7.41831 17.212 7.36701 17.1985 7.31476 17.1919C7.07571 17.1619 7.03976 17.1548 7.03976 17.138C7.03976 17.1281 7.01631 17.12 6.98761 17.12C6.92271 17.12 6.66191 17.0627 6.61501 17.0382C6.59591 17.0282 6.55316 17.02 6.52001 17.02C6.48686 17.02 6.45976 17.011 6.45976 17C6.45976 16.989 6.43276 16.98 6.39976 16.98C6.36676 16.98 6.33976 16.971 6.33976 16.96C6.33976 16.949 6.31276 16.94 6.27976 16.94C6.24676 16.94 6.21976 16.931 6.21976 16.92C6.21976 16.909 6.19276 16.9 6.15976 16.9C6.12676 16.9 6.09976 16.891 6.09976 16.88C6.09976 16.869 6.07726 16.86 6.04976 16.86C6.02226 16.86 5.99976 16.851 5.99976 16.84C5.99976 16.829 5.97276 16.82 5.93976 16.82C5.90676 16.82 5.87976 16.811 5.87976 16.8C5.87976 16.789 5.86176 16.78 5.83976 16.78C5.81776 16.78 5.79976 16.771 5.79976 16.76C5.79976 16.749 5.77276 16.74 5.73976 16.74C5.70676 16.74 5.67976 16.731 5.67976 16.72C5.67976 16.709 5.66176 16.7 5.63976 16.7C5.61776 16.7 5.59976 16.691 5.59976 16.68C5.59976 16.669 5.58176 16.66 5.55976 16.66C5.53776 16.66 5.51976 16.6529 5.51976 16.6443C5.51976 16.6357 5.47926 16.6167 5.42976 16.6021C5.38026 16.5875 5.33976 16.5692 5.33976 16.5615C5.33976 16.5538 5.30826 16.5351 5.26976 16.52C5.23126 16.5049 5.19976 16.4869 5.19976 16.48C5.19976 16.4731 5.16826 16.4551 5.12976 16.44C5.09126 16.4249 5.05976 16.4052 5.05976 16.3962C5.05976 16.3873 5.04176 16.38 5.01976 16.38C4.99776 16.38 4.97976 16.372 4.97976 16.3623C4.97976 16.3525 4.94866 16.3298 4.91061 16.3117C4.87256 16.2937 4.83606 16.2701 4.82941 16.2594C4.82281 16.2487 4.80371 16.24 4.78701 16.24C4.77031 16.24 4.72206 16.204 4.67976 16.16C4.63746 16.116 4.59711 16.08 4.59001 16.08C4.57056 16.08 4.37976 15.8799 4.37976 15.8596C4.37976 15.8498 4.35951 15.8206 4.33476 15.7948C4.27791 15.7354 4.23976 15.6693 4.23976 15.6302C4.23976 15.6136 4.23076 15.6 4.21976 15.6C4.20876 15.6 4.19976 15.5685 4.19976 15.53C4.19976 15.4915 4.19076 15.46 4.17976 15.46C4.16876 15.46 4.15976 15.415 4.15976 15.36C4.15976 15.305 4.16876 15.26 4.17976 15.26C4.19076 15.26 4.19976 15.2279 4.19976 15.1888C4.19976 15.1464 4.20786 15.1226 4.21976 15.13C4.23076 15.1368 4.23976 15.1301 4.23976 15.1151C4.23976 15.0774 4.28651 14.9803 4.30476 14.9801C4.31301 14.98 4.31976 14.9662 4.31976 14.9493C4.31976 14.9324 4.34901 14.8886 4.38476 14.8518C4.42051 14.8151 4.49616 14.7367 4.55291 14.6775C4.67141 14.554 4.71086 14.52 4.73581 14.52C4.74556 14.52 4.76986 14.502 4.78976 14.48C4.80966 14.458 4.83806 14.44 4.85286 14.44C4.86766 14.44 4.87976 14.4326 4.87976 14.4237C4.87976 14.4147 4.91801 14.3861 4.96476 14.3601C5.01151 14.3342 5.05426 14.3078 5.05976 14.3015C5.08026 14.2779 5.16026 14.24 5.18951 14.24C5.20616 14.24 5.21976 14.231 5.21976 14.22C5.21976 14.209 5.23101 14.1998 5.24476 14.1995C5.25851 14.1993 5.29226 14.1815 5.31976 14.16C5.34726 14.1385 5.38551 14.1207 5.40476 14.1204C5.42401 14.1202 5.43976 14.111 5.43976 14.1C5.43976 14.089 5.45776 14.08 5.47976 14.08C5.50176 14.08 5.51976 14.071 5.51976 14.06C5.51976 14.049 5.53776 14.04 5.55976 14.04C5.58176 14.04 5.59976 14.031 5.59976 14.02C5.59976 14.009 5.62171 14 5.64856 14C5.67541 14 5.70296 13.991 5.70976 13.98C5.71656 13.969 5.73961 13.96 5.76096 13.96C5.78231 13.96 5.79976 13.951 5.79976 13.94C5.79976 13.929 5.82171 13.92 5.84856 13.92C5.87541 13.92 5.90296 13.911 5.90976 13.9C5.91656 13.889 5.93961 13.88 5.96096 13.88C5.98231 13.88 5.99976 13.871 5.99976 13.86C5.99976 13.849 6.02171 13.84 6.04856 13.84C6.07541 13.84 6.10296 13.831 6.10976 13.82C6.11656 13.809 6.14411 13.8 6.17096 13.8C6.19781 13.8 6.21976 13.792 6.21976 13.7822C6.21976 13.7724 6.25351 13.7588 6.29476 13.752C6.38186 13.7377 6.40496 13.7329 6.49976 13.7095C6.53826 13.7 6.57576 13.6917 6.58311 13.6911C6.59041 13.6905 6.60316 13.6832 6.61141 13.675C6.61966 13.6667 6.65591 13.66 6.69191 13.66C6.72791 13.66 6.76296 13.651 6.76976 13.64C6.77656 13.629 6.81256 13.62 6.84976 13.62C6.88696 13.62 6.92296 13.611 6.92976 13.6C6.93656 13.589 6.96806 13.58 6.99976 13.58C7.03146 13.58 7.06296 13.571 7.06976 13.56C7.07656 13.549 7.12156 13.54 7.16976 13.54C7.21796 13.54 7.26296 13.531 7.26976 13.52C7.27656 13.509 7.32661 13.5 7.38096 13.5C7.43531 13.5 7.47976 13.4918 7.47976 13.4818C7.47976 13.4649 7.52761 13.4574 7.82201 13.4279C7.93761 13.4164 8.01976 13.4682 8.01976 13.5527C8.01976 13.5677 8.02876 13.58 8.03976 13.58C8.05076 13.58 8.05976 13.5895 8.05976 13.6011C8.05976 13.6238 8.17971 13.7855 8.20476 13.7966C8.21301 13.8003 8.21976 13.8186 8.21976 13.8372C8.21976 13.8559 8.23776 13.8841 8.25976 13.9C8.28176 13.9158 8.29976 13.9415 8.29976 13.957C8.29976 13.9726 8.31556 13.9998 8.33491 14.0176C8.35421 14.0354 8.38276 14.0747 8.39826 14.105C8.41381 14.1352 8.43401 14.16 8.44316 14.16C8.45226 14.16 8.45976 14.176 8.45976 14.1956C8.45976 14.2151 8.47776 14.2441 8.49976 14.26C8.52176 14.2758 8.53976 14.3039 8.53976 14.3223C8.53976 14.3406 8.55256 14.3606 8.56826 14.3666C8.58391 14.3726 8.61196 14.4096 8.63051 14.4488C8.64911 14.4879 8.67231 14.52 8.68206 14.52C8.69181 14.52 8.69976 14.5315 8.69976 14.5456C8.69976 14.5596 8.71726 14.5838 8.73871 14.5992C8.76011 14.6146 8.77306 14.6346 8.76751 14.6436C8.76196 14.6526 8.76691 14.66 8.77856 14.66C8.79021 14.66 8.79976 14.6718 8.79976 14.6862C8.79976 14.7006 8.81756 14.7315 8.83931 14.7549C8.86111 14.7783 8.88136 14.8088 8.88431 14.8228C8.88731 14.8367 8.90931 14.8685 8.93321 14.8934C8.95711 14.9183 8.98246 14.957 8.98956 14.9793C8.99666 15.0017 9.01086 15.02 9.02111 15.02C9.03136 15.02 9.03981 15.0312 9.03986 15.045C9.03991 15.0587 9.06691 15.0987 9.09986 15.1339C9.13281 15.169 9.15976 15.2133 9.15976 15.2322C9.15976 15.2512 9.16571 15.2607 9.17301 15.2534C9.18026 15.2461 9.20906 15.2739 9.23701 15.3151C9.26491 15.3563 9.30396 15.4074 9.32376 15.4287C9.34356 15.4501 9.35976 15.4773 9.35976 15.4893C9.35976 15.5013 9.37776 15.5241 9.39976 15.54C9.42176 15.5558 9.43976 15.5781 9.43981 15.5894C9.43981 15.6007 9.46681 15.6415 9.49976 15.68C9.53271 15.7185 9.55971 15.7574 9.55971 15.7664C9.55976 15.7754 9.57101 15.7951 9.58476 15.8101C9.77066 16.013 9.81936 16.04 9.99976 16.04C10.1802 16.04 10.2289 16.013 10.4148 15.8101C10.4285 15.7951 10.4398 15.7731 10.4398 15.7612C10.4398 15.7493 10.4668 15.7114 10.4998 15.6768C10.5328 15.6423 10.5598 15.6039 10.5598 15.5914C10.5598 15.579 10.5778 15.5558 10.5998 15.54C10.6218 15.5241 10.6398 15.5013 10.6398 15.4893C10.6398 15.4773 10.656 15.4501 10.6758 15.4287C10.6956 15.4074 10.7346 15.3563 10.7625 15.3151C10.7905 15.2739 10.8207 15.2469 10.8298 15.2551C10.8388 15.2633 10.8403 15.2597 10.8331 15.2471C10.8259 15.2345 10.8512 15.1895 10.8894 15.1471C10.9276 15.1047 10.9591 15.0587 10.9593 15.045C10.9596 15.0312 10.9688 15.02 10.9798 15.02C10.9908 15.02 10.9998 15.0078 10.9998 14.9929C10.9998 14.9781 11.0245 14.9392 11.0548 14.9066C11.085 14.8739 11.1122 14.836 11.1152 14.8223C11.1182 14.8086 11.1384 14.7783 11.1602 14.7549C11.182 14.7315 11.1998 14.7006 11.1998 14.6862C11.1998 14.6718 11.2093 14.66 11.221 14.66C11.2326 14.66 11.2366 14.651 11.2298 14.64C11.223 14.629 11.2269 14.62 11.2386 14.62C11.2502 14.62 11.2598 14.6105 11.2598 14.5989C11.2598 14.5873 11.2867 14.549 11.3197 14.5139C11.3526 14.4787 11.3796 14.4388 11.3797 14.4251C11.3797 14.4115 11.3978 14.3891 11.4198 14.3753C11.4418 14.3616 11.4598 14.3362 11.4598 14.3189C11.4598 14.3017 11.4778 14.2682 11.4998 14.2446C11.5218 14.221 11.5398 14.1923 11.5398 14.1808C11.5398 14.1694 11.5473 14.16 11.5564 14.16C11.5655 14.16 11.5857 14.1352 11.6013 14.105C11.6168 14.0747 11.6453 14.0354 11.6646 14.0176C11.684 13.9998 11.6998 13.9706 11.6998 13.9526C11.6998 13.9347 11.7093 13.92 11.721 13.92C11.7326 13.92 11.7366 13.911 11.7298 13.9C11.723 13.889 11.7314 13.88 11.7486 13.88C11.7657 13.88 11.7798 13.8663 11.7798 13.8495C11.7798 13.8142 11.8778 13.66 11.9003 13.66C11.9086 13.66 11.9212 13.6371 11.9282 13.6092C11.9352 13.5812 11.9499 13.5639 11.9609 13.5706C11.9718 13.5774 11.9791 13.5755 11.977 13.5665C11.9675 13.5249 12.0075 13.4402 12.0418 13.4293C12.0627 13.4227 12.0798 13.4084 12.0798 13.3974C12.0798 13.3865 12.0887 13.3831 12.0996 13.3899C12.1105 13.3966 12.1353 13.392 12.1546 13.3797C12.1853 13.3601 12.1837 13.3585 12.1426 13.3673C12.1096 13.3743 12.0819 13.3627 12.0503 13.3287C12.0255 13.3019 11.9969 13.28 11.9867 13.28C11.9766 13.28 11.9239 13.235 11.8698 13.18C11.8156 13.125 11.7616 13.08 11.7497 13.08C11.7378 13.08 11.6884 13.0395 11.6398 12.99C11.5912 12.9405 11.5417 12.9 11.5299 12.9C11.518 12.9 11.4639 12.855 11.4098 12.8C11.3556 12.745 11.3016 12.7 11.2898 12.7C11.2779 12.7 11.2239 12.655 11.1698 12.6C11.1156 12.545 11.0615 12.5 11.0496 12.5C11.0377 12.5 10.9927 12.464 10.9498 12.42C10.9068 12.376 10.8619 12.34 10.85 12.34C10.838 12.34 10.7839 12.295 10.7298 12.24C10.6756 12.185 10.6216 12.14 10.6097 12.14C10.5978 12.14 10.5484 12.0995 10.4998 12.05C10.4512 12.0005 10.4027 11.96 10.3921 11.96C10.3815 11.96 10.3212 11.906 10.2582 11.84C10.1952 11.774 10.1332 11.72 10.1204 11.72C10.1076 11.72 10.0533 11.675 9.99976 11.62C9.94621 11.565 9.89221 11.52 9.87976 11.52C9.86731 11.52 9.81331 11.475 9.75976 11.42C9.70621 11.365 9.65501 11.3199 9.64606 11.3198C9.63711 11.3197 9.58926 11.2796 9.53976 11.2307C9.49026 11.1818 9.43941 11.1414 9.42681 11.1409C9.41416 11.1404 9.35786 11.095 9.30171 11.04C9.24551 10.985 9.19001 10.94 9.17836 10.94C9.16671 10.94 9.11331 10.895 9.05976 10.84C9.00621 10.785 8.95466 10.74 8.94531 10.74C8.93591 10.74 8.88391 10.695 8.82976 10.64C8.77561 10.585 8.72156 10.54 8.70966 10.54C8.69781 10.54 8.64836 10.4995 8.59976 10.45C8.55116 10.4005 8.50171 10.36 8.48986 10.36C8.47796 10.36 8.42391 10.315 8.36976 10.26C8.31561 10.205 8.26151 10.16 8.24956 10.16C8.23766 10.16 8.19271 10.124 8.14976 10.08C8.10681 10.036 8.06186 9.99997 8.04996 9.99997C8.03801 9.99997 7.98391 9.95497 7.92976 9.89997C7.87561 9.84497 7.82161 9.79997 7.80981 9.79997C7.79806 9.79997 7.73951 9.75047 7.67976 9.68997C7.62001 9.62947 7.56146 9.57997 7.54971 9.57997C7.53791 9.57997 7.48391 9.53497 7.42976 9.47997C7.37561 9.42497 7.32161 9.37997 7.30976 9.37997C7.29791 9.37997 7.24391 9.33497 7.18976 9.27997C7.13561 9.22497 7.08161 9.17997 7.06976 9.17997C7.05791 9.17997 7.00391 9.13497 6.94976 9.07997C6.89561 9.02497 6.84161 8.97997 6.82976 8.97997C6.81791 8.97997 6.76391 8.93497 6.70976 8.87997C6.65561 8.82497 6.60156 8.77997 6.58966 8.77997C6.57781 8.77997 6.52836 8.73947 6.47976 8.68997C6.43116 8.64047 6.38171 8.59997 6.36986 8.59997C6.35796 8.59997 6.30391 8.55497 6.24976 8.49997C6.19561 8.44497 6.14161 8.39997 6.12976 8.39997C6.11791 8.39997 6.06391 8.35497 6.00976 8.29997C5.95561 8.24497 5.90161 8.19997 5.88976 8.19997C5.87791 8.19997 5.82391 8.15497 5.76976 8.09997C5.71561 8.04497 5.66156 7.99997 5.64966 7.99997C5.63781 7.99997 5.58836 7.95947 5.53976 7.90997C5.49116 7.86047 5.44091 7.81997 5.42801 7.81997C5.41511 7.81997 5.36361 7.77497 5.31356 7.71997C5.26351 7.66497 5.21206 7.61997 5.19921 7.61997C5.18631 7.61997 5.15061 7.59297 5.11976 7.55997C5.08891 7.52697 5.05466 7.49997 5.04361 7.49997C5.03256 7.49997 5.02796 7.48297 5.03336 7.46222C5.03881 7.44147 5.03431 7.41897 5.02336 7.41222C5.01161 7.40492 5.00776 7.41632 5.01396 7.43992ZM7.93756 9.66587C7.94636 9.67462 8.02471 9.67902 8.11166 9.67572L8.26976 9.66962L8.09566 9.65982C7.99991 9.65437 7.92876 9.65712 7.93756 9.66587ZM13.2368 13.645C13.2469 13.6551 13.2764 13.66 13.3025 13.6559C13.3425 13.6496 13.3397 13.6468 13.2841 13.6376C13.2444 13.631 13.2257 13.6339 13.2368 13.645ZM15.6072 15.8696C15.5903 15.9136 15.6088 15.9273 15.6379 15.8922C15.6543 15.8725 15.6551 15.8594 15.6406 15.8505C15.629 15.8433 15.6139 15.8519 15.6072 15.8696ZM16.2126 16.5493C16.1922 16.5648 16.1788 16.5862 16.1827 16.5969C16.1866 16.6075 16.2059 16.5946 16.2257 16.5681C16.2668 16.5131 16.2646 16.51 16.2126 16.5493Z" fill="#0489D4"/>
<path fill-rule="evenodd" clip-rule="evenodd" d="M9.64 1.63999C9.64 1.65189 9.56375 1.66 9.4512 1.66C9.34685 1.66 9.25685 1.66894 9.25 1.67999C9.2432 1.69099 9.18815 1.69999 9.12765 1.69999C9.0594 1.69999 9.02235 1.7076 9.03 1.72C9.03765 1.73235 9.00315 1.73999 8.94 1.73999C8.87685 1.73999 8.84235 1.74764 8.85 1.75999C8.85755 1.77224 8.8265 1.77999 8.77 1.77999C8.7135 1.77999 8.68245 1.78774 8.69 1.79999C8.69735 1.81189 8.67395 1.81999 8.63235 1.81999C8.59385 1.81999 8.5568 1.82899 8.55 1.83999C8.5432 1.85099 8.51115 1.85999 8.4788 1.85999C8.44645 1.85999 8.42 1.86899 8.42 1.87999C8.42 1.89099 8.393 1.89999 8.36 1.89999C8.327 1.89999 8.3 1.90899 8.3 1.91999C8.3 1.93099 8.27375 1.93999 8.24165 1.93999C8.2096 1.93999 8.1802 1.94939 8.17635 1.96089C8.17255 1.97239 8.1499 1.98324 8.1261 1.98504C8.10225 1.98684 8.0872 1.99544 8.09255 2.00414C8.09795 2.01284 8.07485 2.01999 8.0412 2.01999C8.00755 2.01999 7.98 2.02679 7.98 2.03509C7.98 2.05409 7.80465 2.12944 7.775 2.12319C7.76675 2.12144 7.76 2.12899 7.76 2.13999C7.76 2.15099 7.75325 2.15809 7.745 2.15579C7.7223 2.14949 7.52 2.24754 7.52 2.26489C7.52 2.27319 7.502 2.27999 7.48 2.27999C7.458 2.27999 7.44225 2.29084 7.445 2.30409C7.44775 2.31734 7.43875 2.32969 7.425 2.33159C7.41125 2.33344 7.393 2.33614 7.38445 2.33749C7.3759 2.33889 7.33935 2.36699 7.3032 2.39999C7.2671 2.43299 7.2246 2.45999 7.20875 2.45999C7.19295 2.45999 7.18 2.46799 7.18 2.47784C7.18 2.48764 7.1575 2.50129 7.13 2.50819C7.1025 2.51509 7.08 2.52959 7.08 2.54039C7.08 2.55114 7.0665 2.55999 7.05 2.55999C7.0335 2.55999 7.02 2.56899 7.02 2.57999C7.02 2.60544 7.0539 2.60604 7.06945 2.58084C7.07595 2.57034 7.09335 2.56634 7.10805 2.57199C7.1228 2.57764 7.1402 2.56829 7.1468 2.55114C7.15335 2.53399 7.16955 2.51999 7.1827 2.51999C7.1959 2.51999 7.20065 2.52599 7.1933 2.53339C7.17675 2.54994 7.23785 2.61999 7.26885 2.61999C7.2813 2.61999 7.33585 2.66499 7.39 2.71999C7.44415 2.77499 7.4982 2.81999 7.5101 2.81999C7.52195 2.81999 7.5714 2.86049 7.62 2.90999C7.6686 2.95949 7.71805 2.99999 7.7299 2.99999C7.7418 2.99999 7.79585 3.04499 7.85 3.09999C7.90415 3.15499 7.95815 3.19999 7.97 3.19999C7.98185 3.19999 8.03585 3.24499 8.09 3.29999C8.14415 3.35499 8.19815 3.39999 8.21 3.39999C8.22185 3.39999 8.27585 3.44499 8.33 3.49999C8.38415 3.55499 8.4382 3.59999 8.4501 3.59999C8.46195 3.59999 8.5114 3.64049 8.56 3.68999C8.6086 3.73949 8.65805 3.77999 8.6699 3.77999C8.6818 3.77999 8.73585 3.82499 8.79 3.87999C8.84415 3.93499 8.89615 3.97999 8.90555 3.97999C8.9149 3.97999 8.96645 4.02499 9.02 4.07999C9.07355 4.13499 9.12755 4.17999 9.14 4.17999C9.15245 4.17999 9.20645 4.22499 9.26 4.27999C9.31355 4.33499 9.3715 4.37999 9.3887 4.37999C9.4059 4.37999 9.42 4.39004 9.42 4.40234C9.42 4.41519 9.4379 4.41999 9.4623 4.41359C9.50375 4.40274 9.5037 4.40349 9.4588 4.45124C9.43365 4.47804 9.4236 4.49999 9.4365 4.49999C9.47435 4.49999 9.4904 4.49114 9.4845 4.47349C9.4815 4.46444 9.4889 4.46314 9.50105 4.47064C9.5253 4.48564 9.6049 4.41159 9.58545 4.39214C9.5788 4.38544 9.59285 4.37999 9.61665 4.37999C9.6405 4.37999 9.66 4.37099 9.66 4.35999C9.66 4.34899 9.66675 4.34104 9.675 4.34234C9.7119 4.34819 9.73765 4.33669 9.7919 4.28999C9.82385 4.26254 9.86125 4.24004 9.875 4.23999C9.88875 4.23999 9.9 4.23099 9.9 4.21999C9.9 4.19369 10.0939 4.19399 10.1102 4.22034C10.1171 4.23149 10.1301 4.23609 10.1391 4.23054C10.1481 4.22499 10.1666 4.23384 10.1802 4.25019C10.1938 4.26659 10.2133 4.27999 10.2236 4.27999C10.2413 4.27999 10.362 4.36869 10.4478 4.44474C10.4694 4.46389 10.5034 4.48474 10.5235 4.49109C10.5436 4.49749 10.56 4.51109 10.56 4.52134C10.56 4.53159 10.5735 4.53999 10.59 4.53999C10.6065 4.53999 10.638 4.55799 10.66 4.57999C10.682 4.60199 10.7202 4.62014 10.745 4.62029C10.7814 4.62054 10.7842 4.62429 10.76 4.63999C10.7334 4.65714 10.7335 4.65939 10.7606 4.65969C10.7774 4.65984 10.8038 4.67749 10.8192 4.69894C10.8346 4.72034 10.8535 4.73404 10.861 4.72934C10.8686 4.72464 10.8954 4.73864 10.9205 4.76039C10.9456 4.78219 10.9726 4.79999 10.9805 4.79999C10.9885 4.79999 11.0293 4.83149 11.0714 4.86999C11.1134 4.90849 11.1588 4.93999 11.1722 4.93999C11.1857 4.93999 11.1996 4.94674 11.2033 4.95499C11.2117 4.97394 11.36 5.08529 11.36 5.07269C11.36 5.06754 11.3916 5.09409 11.4303 5.13164C11.469 5.16924 11.5081 5.19999 11.5172 5.19999C11.5263 5.19999 11.5599 5.22249 11.5919 5.24999C11.6238 5.27744 11.6612 5.29994 11.675 5.29999C11.6887 5.29999 11.7 5.30794 11.7 5.31769C11.7 5.32744 11.7332 5.35119 11.7737 5.37044C11.8143 5.38969 11.8655 5.42219 11.8875 5.44269C11.9095 5.46319 11.9393 5.47999 11.9537 5.47999C11.9682 5.47999 11.98 5.48899 11.98 5.49999C11.98 5.51099 11.994 5.51999 12.0112 5.51999C12.0283 5.51999 12.0368 5.52899 12.03 5.53999C12.0232 5.55099 12.027 5.55999 12.0386 5.55999C12.0582 5.55999 12.1097 5.59704 12.1708 5.65499C12.1853 5.66874 12.2035 5.67999 12.2112 5.67999C12.2189 5.67999 12.2398 5.69659 12.2576 5.71694C12.2754 5.73724 12.317 5.76839 12.35 5.78614C12.383 5.80389 12.3984 5.81874 12.3842 5.81919C12.3675 5.81969 12.3727 5.83534 12.3992 5.86374C12.4343 5.90144 12.4519 5.96854 12.4418 6.02649C12.4403 6.03554 12.4469 6.03809 12.4565 6.03209C12.4663 6.02609 12.4788 6.23014 12.4848 6.49239L12.4955 6.96349L12.5617 7.03174C12.5981 7.06929 12.6376 7.09999 12.6497 7.09999C12.6617 7.09999 12.7158 7.14499 12.77 7.19999C12.8241 7.25499 12.8781 7.29999 12.89 7.29999C12.9018 7.29999 12.9558 7.34499 13.01 7.39999C13.0641 7.45499 13.1181 7.49999 13.13 7.49999C13.1418 7.49999 13.1958 7.54499 13.25 7.59999C13.3041 7.65499 13.3581 7.69999 13.37 7.69999C13.3818 7.69999 13.4358 7.74499 13.49 7.79999C13.5441 7.85499 13.5982 7.89999 13.6101 7.89999C13.6219 7.89999 13.6714 7.94049 13.72 7.98999C13.7686 8.03949 13.816 8.07999 13.8254 8.07999C13.8349 8.07999 13.8864 8.12499 13.94 8.17999C13.9935 8.23499 14.0475 8.27999 14.06 8.27999C14.0724 8.27999 14.1264 8.32499 14.18 8.37999C14.2335 8.43499 14.2875 8.47999 14.3 8.47999C14.3124 8.47999 14.3664 8.52499 14.42 8.57999C14.4735 8.63499 14.5262 8.67999 14.537 8.67999C14.5478 8.67999 14.5598 8.68949 14.5637 8.70114C14.5676 8.71284 14.5869 8.71609 14.607 8.70834C14.6349 8.69764 14.6373 8.69069 14.6172 8.67829C14.597 8.66574 14.5988 8.65919 14.6255 8.64894C14.6445 8.64164 14.6603 8.61644 14.6606 8.59284C14.6613 8.54924 14.7067 8.47344 14.7227 8.48934C14.7275 8.49414 14.7334 8.47429 14.7358 8.44514C14.7382 8.41604 14.7514 8.38509 14.7651 8.37644C14.7837 8.36459 14.7824 8.36044 14.76 8.35999C14.7423 8.35964 14.7382 8.35334 14.75 8.34469C14.761 8.33659 14.7729 8.31649 14.7765 8.29999C14.78 8.28349 14.7913 8.26699 14.8015 8.26334C14.8116 8.25964 14.82 8.23039 14.82 8.19834C14.82 8.16624 14.827 8.13999 14.8356 8.13999C14.8442 8.13999 14.8533 8.11524 14.8558 8.08499C14.8583 8.05474 14.8692 8.02699 14.8801 8.02334C14.8911 8.01964 14.9 7.99039 14.9 7.95834C14.9 7.92624 14.909 7.89999 14.92 7.89999C14.931 7.89999 14.94 7.86849 14.94 7.82999C14.94 7.79149 14.949 7.75999 14.96 7.75999C14.971 7.75999 14.98 7.72399 14.98 7.67999C14.98 7.63599 14.9878 7.59999 14.9974 7.59999C15.007 7.59999 15.0157 7.55799 15.0168 7.50664C15.0178 7.45534 15.0279 7.40404 15.0393 7.39264C15.0507 7.38129 15.06 7.33509 15.06 7.28999C15.06 7.24489 15.0693 7.19869 15.0806 7.18734C15.1224 7.14554 15.0829 5.93749 15.0382 5.89099C15.0282 5.88054 15.02 5.82484 15.02 5.76719C15.02 5.70954 15.011 5.65679 15 5.64999C14.989 5.64319 14.98 5.60719 14.98 5.56999C14.98 5.53279 14.971 5.49679 14.96 5.48999C14.949 5.48319 14.94 5.44664 14.94 5.40879C14.94 5.37094 14.931 5.33999 14.92 5.33999C14.909 5.33999 14.9 5.31354 14.9 5.28119C14.9 5.24884 14.891 5.21679 14.88 5.20999C14.869 5.20319 14.86 5.17564 14.86 5.14879C14.86 5.12194 14.851 5.09999 14.84 5.09999C14.829 5.09999 14.82 5.07299 14.82 5.03999C14.82 5.00699 14.811 4.97999 14.8 4.97999C14.789 4.97999 14.78 4.95244 14.78 4.91879C14.78 4.88314 14.7716 4.86279 14.76 4.86999C14.749 4.87679 14.74 4.86409 14.74 4.84179C14.74 4.81944 14.722 4.76914 14.7 4.72999C14.678 4.69084 14.66 4.64554 14.66 4.62939C14.66 4.61324 14.651 4.59999 14.64 4.59999C14.629 4.59999 14.62 4.58199 14.62 4.55999C14.62 4.53799 14.611 4.51999 14.6 4.51999C14.589 4.51999 14.58 4.50379 14.58 4.48399C14.58 4.46419 14.5692 4.43719 14.556 4.42399C14.5428 4.41079 14.5378 4.39999 14.5449 4.39999C14.5642 4.39999 14.4127 4.11639 14.3663 4.06564C14.3533 4.05139 14.3369 4.02179 14.3299 3.99989C14.323 3.97794 14.3089 3.95999 14.2986 3.95999C14.2884 3.95999 14.28 3.94649 14.28 3.92999C14.28 3.91349 14.271 3.89999 14.26 3.89999C14.249 3.89999 14.24 3.88649 14.24 3.86999C14.24 3.85349 14.231 3.83999 14.22 3.83999C14.209 3.83999 14.2 3.82849 14.2 3.81439C14.2 3.80034 14.182 3.77584 14.16 3.75999C14.138 3.74414 14.12 3.71464 14.12 3.69439C14.12 3.67419 14.111 3.66319 14.1 3.66999C14.089 3.67679 14.08 3.67194 14.08 3.65919C14.08 3.64644 14.053 3.61084 14.02 3.57999C13.987 3.54914 13.96 3.50904 13.96 3.49079C13.96 3.47254 13.951 3.46319 13.94 3.46999C13.929 3.47679 13.92 3.47464 13.92 3.46524C13.92 3.41389 13.2961 2.79159 13.2152 2.76234C13.2036 2.75814 13.1671 2.72889 13.1341 2.69734C13.101 2.66579 13.0655 2.63999 13.055 2.63999C13.0446 2.63999 13.0122 2.61524 12.983 2.58499C12.9538 2.55474 12.9052 2.51724 12.875 2.50159C12.8447 2.48599 12.82 2.46574 12.82 2.45659C12.82 2.44749 12.8065 2.43999 12.79 2.43999C12.7735 2.43999 12.76 2.43099 12.76 2.41999C12.76 2.40899 12.7434 2.39999 12.7231 2.39999C12.7028 2.39999 12.6699 2.38199 12.65 2.35999C12.6301 2.33799 12.6017 2.31999 12.5869 2.31999C12.5721 2.31999 12.56 2.31099 12.56 2.29999C12.56 2.28899 12.542 2.27999 12.52 2.27999C12.498 2.27999 12.48 2.27189 12.48 2.26194C12.48 2.24734 12.365 2.19484 12.3443 2.19999C12.3411 2.20079 12.3246 2.18749 12.3076 2.17054C12.2907 2.15354 12.2685 2.14474 12.2584 2.15099C12.2482 2.15724 12.24 2.15229 12.24 2.13999C12.24 2.12769 12.231 2.12319 12.22 2.12999C12.209 2.13679 12.2 2.13284 12.2 2.12119C12.2 2.10954 12.1928 2.10224 12.184 2.10499C12.159 2.11279 12.02 2.05449 12.02 2.03624C12.02 2.02729 11.9924 2.01999 11.9588 2.01999C11.9231 2.01999 11.9028 2.01164 11.91 1.99999C11.917 1.98864 11.9002 1.97999 11.8712 1.97999C11.843 1.97999 11.82 1.97099 11.82 1.95999C11.82 1.94899 11.793 1.93999 11.76 1.93999C11.727 1.93999 11.7 1.93099 11.7 1.91999C11.7 1.90899 11.673 1.89999 11.64 1.89999C11.607 1.89999 11.58 1.89099 11.58 1.87999C11.58 1.86899 11.553 1.85999 11.52 1.85999C11.487 1.85999 11.46 1.85099 11.46 1.83999C11.46 1.82899 11.4335 1.81999 11.4012 1.81999C11.3688 1.81999 11.3368 1.81099 11.33 1.79999C11.3232 1.78899 11.2771 1.77999 11.2276 1.77999C11.1727 1.77999 11.1424 1.77219 11.15 1.75999C11.1576 1.74764 11.1231 1.73999 11.06 1.73999C10.9968 1.73999 10.9623 1.73235 10.97 1.72C10.9776 1.7076 10.9406 1.69999 10.8723 1.69999C10.8118 1.69999 10.7568 1.69099 10.75 1.67999C10.7431 1.66879 10.6494 1.66 10.5376 1.66C10.4094 1.66 10.342 1.65279 10.35 1.63999C10.358 1.62694 10.2368 1.62 10.0012 1.62C9.77375 1.62 9.64 1.62739 9.64 1.63999ZM6.89125 2.67154C6.84075 2.70849 6.85745 2.71984 6.91675 2.68889C6.9425 2.67549 6.9559 2.65979 6.94655 2.65404C6.9372 2.64824 6.9123 2.65614 6.89125 2.67154ZM9.9479 5.07659C9.95355 5.08574 9.9275 5.10529 9.89 5.11999C9.8525 5.13469 9.82615 5.15379 9.83145 5.16234C9.84315 5.18124 9.98 5.10354 9.98 5.07799C9.98 5.06809 9.97045 5.05999 9.9588 5.05999C9.94715 5.05999 9.94225 5.06749 9.9479 5.07659ZM10.4481 5.40309C10.4396 5.41679 10.4425 5.42074 10.4553 5.41289C10.4671 5.40559 10.4899 5.41279 10.506 5.42884C10.5221 5.44494 10.5404 5.45294 10.5466 5.44664C10.5608 5.43254 10.5103 5.37999 10.4826 5.37999C10.4714 5.37999 10.4559 5.39039 10.4481 5.40309ZM10.6396 5.51924C10.6517 5.54194 10.6729 5.55379 10.6898 5.54729C10.7148 5.53769 10.715 5.53214 10.6909 5.50804C10.6475 5.46469 10.6143 5.47194 10.6396 5.51924ZM10.7546 5.58149C10.7662 5.62579 10.8 5.63369 10.8 5.59214C10.8 5.57679 10.7875 5.55949 10.7722 5.55364C10.7528 5.54614 10.7475 5.55449 10.7546 5.58149ZM10.7981 5.63499C10.7833 5.65424 10.7791 5.66339 10.7887 5.65529C10.7982 5.64724 10.8173 5.65604 10.8311 5.67494C10.853 5.70484 10.8549 5.70229 10.8458 5.65459C10.8334 5.59014 10.8327 5.58979 10.7981 5.63499ZM10.9403 5.69189C10.94 5.71494 11.0036 5.77999 11.0265 5.77999C11.0549 5.77999 11.0383 5.73809 11.005 5.72584C10.9857 5.71874 10.9634 5.70324 10.9553 5.69144C10.9449 5.67629 10.9405 5.67644 10.9403 5.69189ZM11.1508 5.85869C11.1377 5.87979 11.1407 5.88264 11.1807 5.88749C11.1921 5.88889 11.21 5.90349 11.2204 5.91999C11.2308 5.93649 11.2395 5.94014 11.2397 5.92809C11.2402 5.89234 11.1658 5.83429 11.1508 5.85869ZM11.3271 6.02464C11.3183 6.03894 11.3252 6.04229 11.3467 6.03404C11.3769 6.02244 11.3894 6.04039 11.3823 6.08499C11.381 6.09324 11.3994 6.09999 11.4231 6.09999C11.4636 6.09999 11.4642 6.09779 11.433 6.06339C11.4148 6.04324 11.404 6.02259 11.4091 6.01754C11.4141 6.01249 11.4008 6.00704 11.3795 6.00544C11.3582 6.00384 11.3346 6.01249 11.3271 6.02464ZM11.6 6.20999C11.6 6.22649 11.6115 6.23999 11.6255 6.23999C11.6422 6.23999 11.6501 6.26604 11.6483 6.31499C11.6465 6.36279 11.6486 6.36994 11.654 6.33459C11.6587 6.30414 11.6712 6.28459 11.6818 6.29109C11.7152 6.31179 11.6916 6.25149 11.6519 6.21499C11.6055 6.17229 11.6 6.17179 11.6 6.20999ZM14.4803 9.05934C14.4677 9.08284 14.4615 9.11734 14.4664 9.13604C14.4734 9.16269 14.4758 9.16119 14.4777 9.12899C14.4789 9.10644 14.4906 9.07734 14.5036 9.06434C14.5167 9.05129 14.5219 9.03524 14.5153 9.02859C14.5086 9.02199 14.4929 9.03579 14.4803 9.05934ZM14.3595 9.33129C14.3488 9.35949 14.3402 9.38874 14.3406 9.39629C14.3415 9.41609 14.3877 9.33469 14.3924 9.30499C14.3993 9.26209 14.3799 9.27759 14.3595 9.33129ZM14.3007 9.45869C14.2753 9.50604 14.2742 9.52594 14.2976 9.51149C14.3152 9.50059 14.3427 9.41999 14.3288 9.41999C14.3247 9.41999 14.3121 9.43739 14.3007 9.45869Z" fill="#04C6C4"/>
<path fill-rule="evenodd" clip-rule="evenodd" d="M7.14672 2.55117C7.14012 2.56832 7.12272 2.57767 7.10797 2.57202C7.09327 2.56637 7.07587 2.57037 7.06937 2.58087C7.06287 2.59142 7.04397 2.60002 7.02732 2.60002C6.99642 2.60002 6.92362 2.65967 6.95347 2.66047C6.96252 2.66072 6.94292 2.67427 6.90992 2.69057C6.87692 2.70687 6.81842 2.74717 6.77992 2.78007C6.74142 2.81297 6.69812 2.83997 6.68372 2.83997C6.66932 2.84002 6.66312 2.84902 6.66992 2.86002C6.67672 2.87102 6.67367 2.88002 6.66312 2.88002C6.65257 2.88002 6.59882 2.92427 6.54357 2.97832C6.48837 3.03237 6.43797 3.07137 6.43157 3.06497C6.42517 3.05857 6.41992 3.06267 6.41992 3.07402C6.41992 3.08542 6.36142 3.15527 6.28992 3.22927C6.21842 3.30327 6.15992 3.37252 6.15992 3.38312C6.15992 3.39372 6.15092 3.39682 6.13992 3.39002C6.12892 3.38322 6.11992 3.39617 6.11992 3.41882C6.11992 3.44147 6.11317 3.45777 6.10492 3.45502C6.09667 3.45227 6.08827 3.45747 6.08622 3.46652C6.08422 3.47562 6.06452 3.49867 6.04247 3.51782C6.02042 3.53692 5.99962 3.56512 5.99617 3.58052C5.98732 3.62002 5.95267 3.65752 5.93492 3.64672C5.92667 3.64177 5.91992 3.64797 5.91992 3.66057C5.91992 3.68777 6.10062 3.85807 6.13067 3.85922C6.14207 3.85967 6.19577 3.90502 6.24992 3.96002C6.30407 4.01502 6.35807 4.06002 6.36992 4.06002C6.38177 4.06002 6.43577 4.10502 6.48992 4.16002C6.54407 4.21502 6.59807 4.26002 6.60992 4.26002C6.62177 4.26002 6.67577 4.30502 6.72992 4.36002C6.78407 4.41502 6.83812 4.46002 6.85002 4.46002C6.86187 4.46002 6.91132 4.50052 6.95992 4.55002C7.00852 4.59952 7.05877 4.64002 7.07167 4.64002C7.08457 4.64002 7.13607 4.68502 7.18612 4.74002C7.23617 4.79502 7.28732 4.84002 7.29982 4.84002C7.31232 4.84002 7.36637 4.88502 7.41992 4.94002C7.47347 4.99502 7.52747 5.04002 7.53992 5.04002C7.55237 5.04002 7.60637 5.08502 7.65992 5.14002C7.71347 5.19502 7.76772 5.24002 7.78047 5.24002C7.79317 5.24002 7.83982 5.28052 7.88412 5.33002C7.92842 5.37952 7.97687 5.42002 7.99182 5.42002C8.01287 5.42002 8.01442 5.43182 7.99877 5.47302C7.98112 5.51942 7.98242 5.52282 8.00927 5.50057C8.02612 5.48657 8.03992 5.46217 8.03992 5.44637C8.03992 5.43057 8.04772 5.42247 8.05722 5.42832C8.08087 5.44297 8.27992 5.34507 8.27992 5.31877C8.27992 5.30717 8.28892 5.30322 8.29992 5.31002C8.31092 5.31682 8.31992 5.31492 8.31992 5.30577C8.31992 5.29667 8.36022 5.26717 8.40942 5.24027C8.45867 5.21337 8.50337 5.17982 8.50882 5.16572C8.51422 5.15157 8.53247 5.14002 8.54927 5.14002C8.56612 5.14002 8.57992 5.13102 8.57992 5.12002C8.57992 5.10902 8.59202 5.10002 8.60682 5.10002C8.62162 5.10002 8.65002 5.08202 8.66992 5.06002C8.68982 5.03802 8.71622 5.02002 8.72862 5.02002C8.74097 5.02002 8.76407 5.00202 8.77992 4.98002C8.79577 4.95802 8.82027 4.94002 8.83432 4.94002C8.84842 4.94002 8.85992 4.93102 8.85992 4.92002C8.85992 4.90902 8.87342 4.90002 8.88992 4.90002C8.90642 4.90002 8.91992 4.89102 8.91992 4.88002C8.91992 4.86902 8.93342 4.86002 8.94992 4.86002C8.96642 4.86002 8.98002 4.85327 8.98017 4.84502C8.98032 4.83677 9.02982 4.79902 9.09017 4.76112C9.15052 4.72322 9.19992 4.68497 9.19992 4.67612C9.19992 4.66727 9.21217 4.66002 9.22712 4.66002C9.24207 4.66002 9.28577 4.63032 9.32427 4.59407C9.36272 4.55777 9.40367 4.53127 9.41522 4.53512C9.42677 4.53897 9.44212 4.53267 9.44927 4.52107C9.45642 4.50952 9.45117 4.50002 9.43762 4.50002C9.42382 4.50002 9.43317 4.47852 9.45872 4.45127C9.50362 4.40352 9.50367 4.40277 9.46222 4.41362C9.43782 4.42002 9.41992 4.41522 9.41992 4.40237C9.41992 4.39007 9.40582 4.38002 9.38862 4.38002C9.37142 4.38002 9.31347 4.33502 9.25992 4.28002C9.20637 4.22502 9.15237 4.18002 9.13992 4.18002C9.12747 4.18002 9.07347 4.13502 9.01992 4.08002C8.96637 4.02502 8.91482 3.98002 8.90547 3.98002C8.89607 3.98002 8.84407 3.93502 8.78992 3.88002C8.73577 3.82502 8.68172 3.78002 8.66982 3.78002C8.65797 3.78002 8.60852 3.73952 8.55992 3.69002C8.51132 3.64052 8.46187 3.60002 8.45002 3.60002C8.43812 3.60002 8.38407 3.55502 8.32992 3.50002C8.27577 3.44502 8.22177 3.40002 8.20992 3.40002C8.19807 3.40002 8.14407 3.35502 8.08992 3.30002C8.03577 3.24502 7.98177 3.20002 7.96992 3.20002C7.95807 3.20002 7.90407 3.15502 7.84992 3.10002C7.79577 3.04502 7.74172 3.00002 7.72982 3.00002C7.71797 3.00002 7.66852 2.95952 7.61992 2.91002C7.57132 2.86052 7.52187 2.82002 7.51002 2.82002C7.49812 2.82002 7.44407 2.77502 7.38992 2.72002C7.33577 2.66502 7.28122 2.62002 7.26877 2.62002C7.23777 2.62002 7.17667 2.54997 7.19322 2.53342C7.20057 2.52602 7.19582 2.52002 7.18262 2.52002C7.16947 2.52002 7.15327 2.53402 7.14672 2.55117ZM9.97993 5.07952C9.97993 5.09627 9.86948 5.16677 9.83948 5.16917C9.83368 5.16962 9.80728 5.19027 9.78068 5.21502C9.75413 5.23977 9.72068 5.26002 9.70633 5.26002C9.69198 5.26002 9.66902 5.27802 9.65527 5.30002C9.64152 5.32202 9.61648 5.34002 9.59952 5.34002C9.58263 5.34002 9.55577 5.35802 9.53992 5.38002C9.52408 5.40202 9.50127 5.42002 9.48927 5.42002C9.47727 5.42002 9.44872 5.43747 9.42582 5.45882C9.40293 5.48017 9.37872 5.49217 9.37207 5.48547C9.36537 5.47882 9.35992 5.48437 9.35992 5.49787C9.35992 5.51137 9.35092 5.51682 9.33992 5.51002C9.32892 5.50322 9.31992 5.50867 9.31992 5.52217C9.31992 5.53567 9.31432 5.54107 9.30742 5.53422C9.30057 5.52732 9.27837 5.54157 9.25812 5.56587C9.23782 5.59017 9.22097 5.60262 9.22057 5.59357C9.22022 5.58457 9.20742 5.58907 9.19212 5.60357C9.14857 5.64502 9.06217 5.70697 8.99887 5.74222C8.96702 5.75992 8.94677 5.78017 8.95377 5.78722C8.96082 5.79427 8.95357 5.80002 8.93767 5.80002C8.92177 5.80002 8.89577 5.81802 8.87992 5.84002C8.86407 5.86202 8.83922 5.88002 8.82467 5.88002C8.79857 5.88002 8.77072 5.89902 8.70397 5.96227C8.68522 5.98002 8.65642 5.99957 8.63992 6.00572C8.62342 6.01182 8.63727 6.01757 8.67067 6.01842C8.71597 6.01962 8.75647 6.04542 8.82992 6.12002C8.88407 6.17502 8.93812 6.22002 8.95002 6.22002C8.96187 6.22002 9.01132 6.26052 9.05992 6.31002C9.10852 6.35952 9.15802 6.40002 9.16992 6.40002C9.18182 6.40002 9.23172 6.44137 9.28077 6.49187C9.32982 6.54237 9.39242 6.59362 9.41992 6.60572C9.46762 6.62672 9.46572 6.62837 9.37993 6.64087C9.30717 6.65147 9.32347 6.65457 9.46492 6.65702C9.56627 6.65877 9.63993 6.66842 9.63993 6.68002C9.63993 6.69292 9.86658 6.70002 10.2799 6.70002C10.7542 6.70002 10.9199 6.70607 10.9199 6.72337C10.9199 6.73617 10.9256 6.74107 10.9325 6.73417C10.9628 6.70377 11.1599 6.84182 11.1599 6.89352C11.1599 6.90807 11.1689 6.92002 11.1799 6.92002C11.1909 6.92002 11.1999 6.95602 11.1999 7.00002C11.1999 7.04402 11.2089 7.08002 11.2199 7.08002C11.2328 7.08002 11.2399 7.27607 11.2399 7.62817C11.2399 8.14027 11.2422 8.17566 11.2749 8.16721C11.2978 8.16126 11.3444 8.19317 11.4092 8.25907C11.4638 8.31462 11.5184 8.36001 11.5307 8.36001C11.5755 8.36001 11.6373 8.45187 11.6452 8.53002C11.6502 8.57987 11.6545 8.55542 11.6566 8.46502C11.6585 8.38232 11.6687 8.32001 11.6803 8.32001C11.6938 8.32001 11.7002 7.97422 11.6996 7.28672C11.6987 6.36897 11.6868 6.12287 11.6545 6.35002C11.6466 6.40497 11.6457 6.40382 11.6429 6.33622C11.6413 6.29562 11.6489 6.25682 11.6599 6.25002C11.6709 6.24322 11.6792 6.22692 11.6783 6.21382C11.6772 6.19667 11.674 6.19697 11.6667 6.21502C11.6487 6.25947 11.5941 6.24452 11.6061 6.19842C11.6141 6.16807 11.6093 6.15982 11.5885 6.16782C11.5717 6.17422 11.5599 6.16662 11.5599 6.14937C11.5599 6.13322 11.5464 6.12002 11.5299 6.12002C11.5134 6.12002 11.4999 6.11127 11.4999 6.10052C11.4999 6.08982 11.4749 6.08602 11.4443 6.09212C11.3976 6.10147 11.3882 6.09622 11.3854 6.05952C11.3822 6.01742 11.3836 6.01712 11.421 6.05102C11.4424 6.07037 11.4599 6.07797 11.4599 6.06792C11.4599 6.03837 11.3835 5.99812 11.3697 6.02042C11.363 6.03122 11.3486 6.04002 11.3376 6.04002C11.3266 6.04002 11.3231 6.03102 11.3299 6.02007C11.3468 5.99277 11.2969 5.92857 11.2599 5.93012C11.2434 5.93082 11.2235 5.92207 11.2157 5.91067C11.2078 5.89932 11.1921 5.89002 11.1807 5.89002C11.1693 5.89002 11.1602 5.88297 11.1606 5.87432C11.1617 5.85162 11.1066 5.80002 11.0814 5.80002C11.0696 5.80002 11.0599 5.79132 11.0599 5.78067C11.0599 5.76997 11.0475 5.76602 11.0323 5.77187C11.0172 5.77767 10.9862 5.75892 10.9636 5.73022C10.941 5.70147 10.9152 5.67767 10.9062 5.67727C10.8973 5.67692 10.877 5.66612 10.8612 5.65332C10.8375 5.63412 10.8349 5.63707 10.8462 5.67002C10.859 5.70692 10.8579 5.70737 10.833 5.67532C10.8181 5.65627 10.7982 5.64727 10.7886 5.65532C10.7791 5.66342 10.7835 5.65407 10.7984 5.63457C10.8217 5.60412 10.8213 5.60072 10.7954 5.61067C10.7756 5.61832 10.7613 5.60727 10.7537 5.57852C10.7452 5.54597 10.7316 5.53752 10.7008 5.54557C10.6593 5.55642 10.6071 5.49947 10.634 5.47267C10.6454 5.46117 10.6348 5.45842 10.5549 5.45202C10.5412 5.45092 10.5179 5.43867 10.5033 5.42482C10.4887 5.41097 10.467 5.40562 10.4552 5.41292C10.4434 5.42022 10.4394 5.41697 10.4464 5.40567C10.4534 5.39442 10.4413 5.36462 10.4195 5.33952C10.3931 5.30907 10.3795 5.30322 10.3786 5.32197C10.3778 5.33737 10.3675 5.32977 10.3555 5.30502C10.3436 5.28027 10.323 5.26002 10.3098 5.26002C10.2966 5.26002 10.2591 5.23447 10.2265 5.20327C10.1939 5.17207 10.1385 5.13392 10.1035 5.11842C10.0685 5.10292 10.0399 5.08347 10.0399 5.07512C10.0399 5.06682 10.0264 5.06002 10.0099 5.06002C9.99342 5.06002 9.97993 5.06877 9.97993 5.07952ZM7.92717 5.51002C7.93347 5.52652 7.92997 5.54002 7.91927 5.54002C7.90862 5.54002 7.89992 5.55012 7.89992 5.56247C7.89992 5.57897 7.90702 5.57902 7.92677 5.56262C7.94152 5.55037 7.96072 5.54702 7.96947 5.55517C7.97822 5.56337 7.97482 5.54977 7.96192 5.52502C7.93577 5.47477 7.90922 5.46332 7.92717 5.51002ZM12.4837 7.79202C12.4789 9.12931 12.4791 9.13161 12.5909 9.24991C12.6377 9.29946 12.6864 9.34001 12.6992 9.34001C12.712 9.34001 12.7664 9.38501 12.8199 9.44001C12.8735 9.49501 12.9247 9.54006 12.9336 9.54016C12.9426 9.54026 12.9904 9.58036 13.0399 9.62926C13.0894 9.67816 13.1418 9.71861 13.1562 9.71911C13.1707 9.71961 13.2264 9.76501 13.2799 9.82001C13.3335 9.87501 13.385 9.92001 13.3944 9.92001C13.4038 9.92001 13.4558 9.96501 13.5099 10.02C13.5641 10.075 13.6168 10.12 13.6271 10.12C13.6542 10.12 13.8377 10.2956 13.8245 10.3088C13.8183 10.315 13.826 10.3202 13.8416 10.3203C13.865 10.3206 13.8647 10.3243 13.8399 10.3419C13.8142 10.36 13.8142 10.3619 13.8394 10.3551C13.8784 10.3444 13.8992 10.2578 13.8717 10.22C13.8532 10.1946 13.8549 10.1939 13.8823 10.2153C13.9191 10.244 13.9745 10.1997 13.9504 10.1608C13.9432 10.1492 13.9499 10.1349 13.9653 10.1291C13.9806 10.1232 14.0053 10.0872 14.0203 10.0492C14.0352 10.0112 14.0547 9.98001 14.0637 9.98001C14.0726 9.98001 14.0799 9.96736 14.0799 9.95191C14.0799 9.91861 14.1633 9.75296 14.1849 9.74336C14.1932 9.73966 14.1999 9.72476 14.1999 9.71021C14.1999 9.69571 14.2168 9.64921 14.2374 9.60691C14.3204 9.43651 14.3599 9.34441 14.3599 9.32166C14.3599 9.30811 14.3708 9.30391 14.3849 9.31206C14.3987 9.31996 14.4041 9.31986 14.3969 9.31186C14.3845 9.29801 14.4665 9.07257 14.4993 9.03002C14.5078 9.01902 14.5122 8.99421 14.5091 8.97491C14.506 8.95561 14.5116 8.94492 14.5217 8.95112C14.5317 8.95732 14.5399 8.93037 14.5399 8.89121C14.5399 8.85207 14.5495 8.82001 14.5611 8.82001C14.5728 8.82001 14.5767 8.81096 14.5698 8.79986C14.563 8.78881 14.5715 8.77431 14.5887 8.76771C14.6059 8.76112 14.6199 8.74347 14.6199 8.72852C14.6199 8.71252 14.6075 8.70602 14.5899 8.71277C14.5734 8.71912 14.5599 8.71431 14.5599 8.70217C14.5599 8.68996 14.5503 8.68002 14.5386 8.68002C14.5269 8.68002 14.4735 8.63502 14.4199 8.58002C14.3664 8.52502 14.3124 8.48002 14.2999 8.48002C14.2875 8.48002 14.2335 8.43502 14.1799 8.38002C14.1264 8.32502 14.0724 8.28002 14.0599 8.28002C14.0475 8.28002 13.9935 8.23502 13.9399 8.18002C13.8864 8.12502 13.8348 8.08002 13.8254 8.08002C13.816 8.08002 13.7685 8.03952 13.7199 7.99002C13.6713 7.94052 13.6219 7.90002 13.61 7.90002C13.5981 7.90002 13.5441 7.85502 13.4899 7.80002C13.4358 7.74502 13.3818 7.70002 13.3699 7.70002C13.3581 7.70002 13.3041 7.65502 13.2499 7.60002C13.1958 7.54502 13.1418 7.50002 13.1299 7.50002C13.1181 7.50002 13.0641 7.45502 13.0099 7.40002C12.9558 7.34502 12.9018 7.30002 12.8899 7.30002C12.8781 7.30002 12.8241 7.25502 12.7699 7.20002C12.7158 7.14502 12.6616 7.10002 12.6496 7.10002C12.583 7.10002 12.502 6.96927 12.4948 6.85002C12.4908 6.78402 12.4858 7.20792 12.4837 7.79202Z" fill="#04B8C4"/>
<path fill-rule="evenodd" clip-rule="evenodd" d="M5.9201 3.69464C5.88075 3.70979 5.81855 3.78129 5.82945 3.79889C5.83415 3.80644 5.8209 3.82494 5.8001 3.83994C5.7793 3.85494 5.76685 3.87464 5.77245 3.88374C5.77805 3.89279 5.7686 3.90559 5.7515 3.91219C5.73435 3.91874 5.72475 3.93124 5.7301 3.93994C5.73545 3.94864 5.7264 3.96089 5.71 3.96724C5.69355 3.97354 5.6801 3.99249 5.6801 4.00929C5.6801 4.02614 5.6729 4.03994 5.6641 4.03994C5.6553 4.03994 5.62795 4.07819 5.60335 4.12494C5.57875 4.17169 5.5366 4.24594 5.5097 4.28994C5.4828 4.33394 5.4606 4.38569 5.46045 4.40494C5.46025 4.42419 5.4511 4.43994 5.4401 4.43994C5.4291 4.43994 5.4201 4.45794 5.4201 4.47994C5.4201 4.50194 5.4111 4.51994 5.4001 4.51994C5.3891 4.51994 5.3801 4.53794 5.3801 4.55994C5.3801 4.58194 5.3711 4.59994 5.3601 4.59994C5.3491 4.59994 5.3401 4.62694 5.3401 4.65994C5.3401 4.69294 5.3311 4.71994 5.3201 4.71994C5.3091 4.71994 5.3001 4.73344 5.3001 4.74994C5.3001 4.76644 5.2911 4.77994 5.2801 4.77994C5.2691 4.77994 5.2601 4.80074 5.2601 4.82619C5.2601 4.85164 5.2421 4.90969 5.2201 4.95524C5.1981 5.00074 5.1801 5.05194 5.1801 5.06899C5.1801 5.08599 5.1713 5.09994 5.1605 5.09994C5.1497 5.09994 5.144 5.12684 5.14785 5.15969C5.1518 5.19364 5.143 5.22924 5.12745 5.24214C5.08895 5.27409 5.09345 5.30079 5.1351 5.28764C5.1616 5.27929 5.15915 5.28629 5.1251 5.31649C5.06875 5.36644 5.06585 5.40714 5.11995 5.38999C5.1498 5.38049 5.1865 5.40264 5.26685 5.47864C5.32575 5.53434 5.38245 5.57994 5.3928 5.57994C5.40315 5.57994 5.45595 5.62494 5.5101 5.67994C5.56425 5.73494 5.61825 5.77994 5.6301 5.77994C5.64195 5.77994 5.69595 5.82494 5.7501 5.87994C5.80425 5.93494 5.8558 5.97994 5.8646 5.97994C5.8734 5.97994 5.9277 6.02484 5.98535 6.07974C6.04295 6.13464 6.0995 6.17964 6.11095 6.17974C6.1224 6.17984 6.1715 6.22044 6.2201 6.26994C6.2687 6.31944 6.31615 6.35994 6.32555 6.35994C6.335 6.35994 6.38655 6.40494 6.4401 6.45994C6.49365 6.51494 6.54765 6.55994 6.5601 6.55994C6.57255 6.55994 6.62655 6.60494 6.6801 6.65994C6.73365 6.71494 6.78765 6.75994 6.8001 6.75994C6.81255 6.75994 6.86655 6.80494 6.9201 6.85994C6.97365 6.91494 7.0252 6.95994 7.03465 6.95994C7.04405 6.95994 7.0915 7.00044 7.1401 7.04994C7.1887 7.09944 7.2378 7.14004 7.24925 7.14014C7.2607 7.14024 7.317 7.18499 7.37425 7.23959C7.513 7.37174 7.5093 7.38609 7.5151 6.69994C7.5201 6.10624 7.53765 5.92409 7.5965 5.85494C7.6129 5.83569 7.61845 5.81994 7.60885 5.81994C7.59925 5.81994 7.6169 5.79969 7.6481 5.77494C7.67925 5.75019 7.73295 5.70529 7.76745 5.67514C7.8019 5.64499 7.84585 5.61514 7.8651 5.60879C7.88435 5.60244 7.9001 5.58339 7.9001 5.56644C7.9001 5.54694 7.9114 5.53999 7.93085 5.54744C7.94835 5.55419 7.9665 5.54649 7.97295 5.52974C7.9792 5.51349 7.9901 5.50374 7.9972 5.50814C8.0043 5.51254 8.0101 5.49449 8.0101 5.46804C8.0101 5.44159 7.9999 5.41994 7.9875 5.41994C7.97505 5.41994 7.9286 5.37944 7.8843 5.32994C7.84 5.28044 7.79335 5.23994 7.78065 5.23994C7.7679 5.23994 7.71365 5.19494 7.6601 5.13994C7.60655 5.08494 7.55255 5.03994 7.5401 5.03994C7.52765 5.03994 7.47365 4.99494 7.4201 4.93994C7.36655 4.88494 7.3125 4.83994 7.3 4.83994C7.2875 4.83994 7.23635 4.79494 7.1863 4.73994C7.13625 4.68494 7.08475 4.63994 7.07185 4.63994C7.05895 4.63994 7.0087 4.59944 6.9601 4.54994C6.9115 4.50044 6.86205 4.45994 6.8502 4.45994C6.8383 4.45994 6.78425 4.41494 6.7301 4.35994C6.67595 4.30494 6.62195 4.25994 6.6101 4.25994C6.59825 4.25994 6.54425 4.21494 6.4901 4.15994C6.43595 4.10494 6.38195 4.05994 6.3701 4.05994C6.35825 4.05994 6.30425 4.01494 6.2501 3.95994C6.19595 3.90494 6.14325 3.85994 6.1331 3.85994C6.10575 3.85994 5.94205 3.70464 5.9554 3.69134C5.96865 3.67809 5.9614 3.67874 5.9201 3.69464ZM8.1101 5.41999C8.10235 5.43244 8.08345 5.43784 8.0681 5.43194C8.05195 5.42574 8.0401 5.43364 8.0401 5.45059C8.0401 5.46674 8.04685 5.47964 8.0551 5.47929C8.08185 5.47819 8.1475 5.42069 8.13565 5.40884C8.1293 5.40249 8.1178 5.40749 8.1101 5.41999ZM8.59295 6.04994C8.57645 6.06644 8.5483 6.07994 8.53035 6.07994C8.5124 6.07994 8.5021 6.08704 8.5075 6.09569C8.51285 6.10434 8.4888 6.12404 8.454 6.13944C8.41925 6.15479 8.3691 6.18914 8.34255 6.21569L8.29425 6.26399L8.30525 7.13694C8.3157 7.96014 8.3253 8.10164 8.3711 8.10384C8.42045 8.10619 8.47745 8.14384 8.55925 8.22809C8.6083 8.27859 8.65895 8.31994 8.6718 8.31994C8.6847 8.31994 8.70755 8.33484 8.72265 8.35304C8.7461 8.38129 8.7519 8.28974 8.76245 7.72804C8.77455 7.08279 8.7866 6.91994 8.8223 6.91994C8.8321 6.91994 8.8401 6.91064 8.8401 6.89929C8.8401 6.77914 9.0533 6.69994 9.3765 6.69994C9.5389 6.69994 9.6401 6.69224 9.6401 6.67994C9.6401 6.66834 9.56645 6.65869 9.4651 6.65694C9.32365 6.65449 9.30735 6.65139 9.3801 6.64079C9.4659 6.62829 9.4678 6.62664 9.4201 6.60564C9.3926 6.59354 9.33 6.54229 9.28095 6.49179C9.2319 6.44129 9.182 6.39994 9.1701 6.39994C9.1582 6.39994 9.1087 6.35944 9.0601 6.30994C9.0115 6.26044 8.96205 6.21994 8.9502 6.21994C8.9383 6.21994 8.88425 6.17494 8.8301 6.11994C8.72545 6.01369 8.65115 5.99174 8.59295 6.04994ZM11.2534 8.17329C11.2461 8.18059 11.2401 8.34259 11.2401 8.53329V8.87994H11.4701H11.7001V8.59994C11.7001 8.30814 11.663 8.19279 11.6567 8.46494C11.6546 8.55534 11.6503 8.57979 11.6453 8.52994C11.6375 8.45179 11.5756 8.35994 11.5308 8.35994C11.5186 8.35994 11.4642 8.31494 11.4101 8.25994C11.315 8.16339 11.2817 8.14499 11.2534 8.17329ZM12.4862 9.10889C12.4864 9.21179 12.4783 9.27054 12.4633 9.27554C12.4505 9.27979 12.4401 9.31854 12.4401 9.36159C12.4401 9.40469 12.4311 9.43994 12.4201 9.43994C12.4091 9.43994 12.4001 9.45384 12.4001 9.47084C12.4001 9.51029 12.3112 9.59994 12.2722 9.59994C12.2558 9.59994 12.2369 9.60894 12.2301 9.61994C12.2233 9.63094 12.1912 9.63994 12.1589 9.63994C12.1265 9.63994 12.1001 9.64669 12.1001 9.65494C12.1001 9.66319 11.5488 9.66964 10.8751 9.66924C10.2014 9.66884 9.7896 9.67124 9.9601 9.67459C10.3126 9.68144 10.3446 9.69094 10.4792 9.82874C10.5283 9.87889 10.5782 9.91994 10.5902 9.91994C10.6022 9.91994 10.6472 9.95594 10.6901 9.99994C10.733 10.0439 10.7752 10.0799 10.7837 10.0799C10.7922 10.0799 10.8463 10.1249 10.904 10.1799C10.9616 10.2349 11.0185 10.2799 11.0303 10.2799C11.0421 10.2799 11.0915 10.3204 11.1401 10.3699C11.1887 10.4194 11.2373 10.4599 11.2482 10.4599C11.2591 10.4599 11.3103 10.5049 11.3619 10.5599C11.4136 10.6149 11.4664 10.6599 11.4792 10.6599C11.4921 10.6599 11.5465 10.7049 11.6001 10.7599C11.6536 10.8149 11.7076 10.8599 11.7201 10.8599C11.7325 10.8599 11.7865 10.9049 11.8401 10.9599C11.8936 11.0149 11.9469 11.0599 11.9584 11.0599C11.9699 11.0599 12.0166 11.1004 12.0622 11.1499C12.1078 11.1994 12.1553 11.2401 12.1676 11.2402C12.18 11.2404 12.2461 11.2944 12.3145 11.3602C12.3829 11.4261 12.4462 11.4799 12.4552 11.4799C12.4642 11.4799 12.5159 11.5249 12.5701 11.5799C12.6242 11.6349 12.6783 11.6799 12.6902 11.6799C12.702 11.6799 12.7519 11.7213 12.8009 11.7718C12.9243 11.8988 13.0967 11.9474 12.9982 11.8273C12.9729 11.7964 12.9746 11.7941 13.0151 11.8046C13.0442 11.8121 13.0601 11.8072 13.0601 11.7907C13.0601 11.7768 13.0781 11.7424 13.1001 11.7145C13.1221 11.6865 13.1401 11.6534 13.1401 11.6409C13.1401 11.6285 13.1581 11.5989 13.1801 11.5753C13.2021 11.5517 13.2313 11.5071 13.2449 11.4762C13.2586 11.4452 13.2772 11.4199 13.2861 11.4199C13.2951 11.4199 13.2969 11.4109 13.2901 11.3999C13.2833 11.3889 13.2878 11.3799 13.3001 11.3799C13.3124 11.3799 13.3169 11.3709 13.3101 11.3599C13.3033 11.3489 13.3058 11.3399 13.3158 11.3399C13.3257 11.3399 13.3555 11.2972 13.3819 11.2449C13.4084 11.1927 13.4368 11.1469 13.4451 11.1433C13.4533 11.1396 13.4601 11.1274 13.4601 11.1162C13.4601 11.1049 13.4871 11.0557 13.5201 11.0068C13.5531 10.9579 13.5801 10.9056 13.5801 10.8906C13.5801 10.8756 13.5868 10.8603 13.5951 10.8566C13.6033 10.8529 13.6461 10.7779 13.6901 10.6899C13.7341 10.6019 13.7791 10.5233 13.7901 10.5152C13.8019 10.5066 13.7978 10.5001 13.7801 10.4996C13.7582 10.4989 13.7621 10.4886 13.7944 10.4616C13.8231 10.4377 13.8357 10.409 13.8302 10.3804C13.8235 10.3458 13.829 10.3388 13.8559 10.3481C13.8831 10.3576 13.8822 10.3539 13.8513 10.33C13.8299 10.3134 13.8183 10.2999 13.8254 10.2999C13.8325 10.2999 13.7951 10.2594 13.7421 10.2099C13.6892 10.1604 13.6375 10.1199 13.6272 10.1199C13.617 10.1199 13.5642 10.0749 13.5101 10.0199C13.4559 9.96494 13.4039 9.91994 13.3945 9.91994C13.3852 9.91994 13.3336 9.87494 13.2801 9.81994C13.2265 9.76494 13.1708 9.71954 13.1564 9.71904C13.1419 9.71854 13.0896 9.67809 13.0401 9.62919C12.9906 9.58029 12.9427 9.54019 12.9338 9.54009C12.9248 9.53999 12.8736 9.49494 12.8201 9.43994C12.7665 9.38494 12.7122 9.33994 12.6994 9.33994C12.6336 9.33994 12.5021 9.15609 12.494 9.05279C12.4888 8.98579 12.4861 9.00534 12.4862 9.10889ZM13.8709 10.2199C13.8811 10.2364 13.8896 10.2559 13.8898 10.2633C13.8904 10.2924 13.9201 10.3045 13.9201 10.2757C13.9201 10.2587 13.9048 10.2325 13.8862 10.2174C13.857 10.1937 13.8549 10.194 13.8709 10.2199ZM14.3056 13.0392C14.3036 13.0657 14.316 13.0748 14.3515 13.0727C14.3787 13.0712 14.4001 13.0575 14.4001 13.0416C14.4001 13.026 14.3944 13.0189 14.3874 13.0259C14.3805 13.0328 14.3599 13.0305 14.3416 13.0207C14.3165 13.0073 14.3077 13.0119 14.3056 13.0392ZM14.4447 13.0866L14.3992 13.1118L14.4588 13.1559C14.4916 13.1801 14.5259 13.1999 14.535 13.1999C14.5441 13.1999 14.5959 13.2449 14.6501 13.2999C14.7042 13.3549 14.7582 13.3999 14.7699 13.3999C14.7817 13.3999 14.8448 13.4539 14.9101 13.5199C14.9754 13.5859 15.0385 13.6399 15.0503 13.6399C15.0621 13.6399 15.1115 13.6804 15.1601 13.7299C15.2087 13.7794 15.2581 13.8199 15.27 13.8199C15.2819 13.8199 15.3359 13.8649 15.3901 13.9199C15.4442 13.9749 15.4982 14.0199 15.5101 14.0199C15.5219 14.0199 15.5759 14.0649 15.6301 14.1199C15.6842 14.1749 15.7382 14.2199 15.7501 14.2199C15.7619 14.2199 15.8159 14.2649 15.8701 14.3199C15.9242 14.3749 15.9783 14.4199 15.9902 14.4199C16.002 14.4199 16.0515 14.4604 16.1001 14.5099C16.1487 14.5594 16.1989 14.5999 16.2118 14.5999C16.2247 14.5999 16.2762 14.6449 16.3263 14.6999C16.3763 14.7549 16.4276 14.7999 16.4402 14.7999C16.4529 14.7999 16.4978 14.8359 16.5401 14.8799C16.618 14.9611 16.666 14.9789 16.6922 14.9365C16.7022 14.9202 16.6952 14.9175 16.669 14.9276C16.6482 14.9355 16.6377 14.9356 16.6455 14.9278C16.6533 14.92 16.6486 14.9001 16.6349 14.8835C16.615 14.8594 16.6154 14.8516 16.6373 14.8443C16.6571 14.8376 16.6582 14.8312 16.6413 14.8207C16.6285 14.8128 16.6166 14.7869 16.6148 14.7631C16.613 14.7394 16.6045 14.7199 16.5958 14.7199C16.5872 14.7199 16.5801 14.7063 16.5801 14.6897C16.5801 14.6511 16.5378 14.5748 16.5047 14.5537C16.4907 14.5448 16.4846 14.5288 16.4912 14.5181C16.4978 14.5075 16.4848 14.4833 16.4625 14.4644C16.4401 14.4454 16.4191 14.4171 16.4159 14.4013C16.4127 14.3856 16.3853 14.346 16.3551 14.3133C16.3248 14.2807 16.3001 14.2457 16.3001 14.2355C16.3001 14.2103 16.2478 14.1599 16.2215 14.1599C16.2097 14.1599 16.2001 14.1523 16.2001 14.143C16.2001 14.1337 16.1821 14.1053 16.1601 14.0799C16.1381 14.0546 16.1201 14.04 16.1201 14.0477C16.1201 14.0553 16.1075 14.0499 16.0922 14.0357C16.0768 14.0215 16.0672 14.0051 16.0707 13.9993C16.0775 13.9878 15.9609 13.8895 15.9416 13.8905C15.9353 13.8908 15.9056 13.8661 15.8757 13.8355C15.8459 13.8049 15.8131 13.7799 15.8029 13.7799C15.7927 13.7799 15.7554 13.7529 15.7201 13.7199C15.6847 13.6869 15.6433 13.6599 15.628 13.6599C15.6126 13.6599 15.6001 13.6524 15.6001 13.6433C15.6001 13.6342 15.5753 13.6139 15.5451 13.5983C15.5148 13.5827 15.4781 13.5586 15.4635 13.5447C15.4488 13.5309 15.4302 13.5237 15.4221 13.5287C15.414 13.5337 15.3951 13.5207 15.3801 13.4999C15.3651 13.4791 15.3441 13.4675 15.3334 13.4741C15.3227 13.4806 15.3028 13.4707 15.289 13.4519C15.2753 13.4331 15.2452 13.4163 15.2221 13.4146C15.199 13.4128 15.1801 13.4054 15.1801 13.3979C15.1801 13.3831 15.0418 13.3109 15.0101 13.3092C14.9991 13.3086 14.9696 13.2968 14.9447 13.2831C14.9197 13.2693 14.8882 13.2647 14.8747 13.2728C14.8611 13.281 14.8635 13.2707 14.8801 13.2499C14.8966 13.2292 14.9002 13.2182 14.888 13.2254C14.8759 13.2327 14.8489 13.2261 14.828 13.2108C14.806 13.1947 14.767 13.1876 14.7351 13.194C14.6925 13.2024 14.6801 13.1973 14.6801 13.1712C14.6801 13.1527 14.671 13.1432 14.6599 13.15C14.6489 13.1569 14.635 13.1499 14.6291 13.1345C14.6144 13.0963 14.5604 13.0992 14.5585 13.1383C14.5575 13.1589 14.5534 13.1612 14.5468 13.1449C14.5413 13.1312 14.5243 13.1199 14.509 13.1199C14.4926 13.1199 14.486 13.1077 14.4928 13.0899C14.5066 13.0542 14.5034 13.0539 14.4447 13.0866Z" fill="#04A7CB"/>
</svg>
