<svg width="654" height="608" viewBox="0 0 654 608" fill="none" xmlns="http://www.w3.org/2000/svg">
<path d="M289 76V77H293L289 76Z" fill="#ADBBC8"/>
<path d="M293 76V77H311L293 76Z" fill="#7C90A2"/>
<path d="M311 76V77H315L311 76ZM278 77V78H281L278 77Z" fill="#ADBBC8"/>
<path d="M281 77V78H286L281 77Z" fill="#7C90A2"/>
<path d="M345 496L336 448C327.628 448.359 319.393 450.593 311 450.961C283.254 452.176 254.923 446.702 230 434.241C206.856 422.669 186.898 405.521 171.236 385C159.403 369.496 150.793 351.676 145.294 333C115.199 230.785 198.021 122.393 305 125.015C324.61 125.495 344.913 129.84 363 137.424C381.42 145.148 398.79 155.859 413 170.001C428.328 185.255 441.839 201.947 450.421 222C462.972 251.324 465.475 279.636 463 311C479.673 311 495.084 312.823 511 318C516.274 295.908 513.809 269.049 509.4 247C491.201 155.994 412.503 83.4926 319 77.0894C231.129 71.0719 146.235 119.355 109.309 200C97.8882 224.941 92.7689 250.86 90.9103 278C88.3233 315.778 97.4692 353.388 114.742 387C133.921 424.321 165.39 456.394 203 475.247C231.422 489.494 262.066 498.562 294 499.961C311.342 500.72 327.857 497.355 345 496Z" fill="#3D5A77"/>
<path d="M322.667 77.3335L323.333 77.6669L322.667 77.3335Z" fill="#7C90A2"/>
<path d="M324.667 77.3335L325.333 77.6669L324.667 77.3335ZM270 78.0002V79.0002H273L270 78.0002Z" fill="#ADBBC8"/>
<path d="M273.667 78.3335L274.333 78.6669L273.667 78.3335ZM330.667 78.3335L331.333 78.6669L330.667 78.3335Z" fill="#7C90A2"/>
<path d="M332.667 78.3335L333.333 78.6669L332.667 78.3335ZM265.667 79.3335L266.333 79.6669L265.667 79.3335Z" fill="#ADBBC8"/>
<path d="M267 79L268 80L267 79ZM337 79L338 80L337 79Z" fill="#7C90A2"/>
<path d="M338.667 79.3335L339.333 79.6669L338.667 79.3335ZM259.667 80.3335L260.333 80.6669L259.667 80.3335Z" fill="#ADBBC8"/>
<path d="M261.667 80.3333L262.333 80.6667L261.667 80.3333ZM343 80L344 81L343 80Z" fill="#7C90A2"/>
<path d="M344 80L345 81L344 80ZM255 81L256 82L255 81Z" fill="#ADBBC8"/>
<path d="M256.667 81.3333L257.333 81.6667L256.667 81.3333ZM348 81L349 82L348 81Z" fill="#7C90A2"/>
<path d="M250.667 82.3335L251.333 82.6669L250.667 82.3335Z" fill="#ADBBC8"/>
<path d="M252 82L253 83L252 82ZM352 82L353 83L352 82Z" fill="#7C90A2"/>
<path d="M353 82L354 83L353 82ZM246.667 83.3333L247.333 83.6667L246.667 83.3333Z" fill="#ADBBC8"/>
<path d="M248 83L249 84L248 83ZM356 83L357 84L356 83Z" fill="#7C90A2"/>
<path d="M243 84L244 85L243 84Z" fill="#ADBBC8"/>
<path d="M244 84L245 85L244 84ZM359 84L360 85L359 84Z" fill="#7C90A2"/>
<path d="M360 84L361 85L360 84ZM240 85L241 86L240 85Z" fill="#ADBBC8"/>
<path d="M241 85L242 86L241 85ZM363 85L364 86L363 85Z" fill="#7C90A2"/>
<path d="M236 86L237 87L236 86Z" fill="#ADBBC8"/>
<path d="M237 86L238 87L237 86ZM366 86L367 87L366 86ZM234 87L235 88L234 87ZM369 87L370 88L369 87Z" fill="#7C90A2"/>
<path d="M231 88L232 89L231 88Z" fill="#ADBBC8"/>
<path d="M372 88L373 89L372 88Z" fill="#7C90A2"/>
<path d="M228 89L229 90L228 89Z" fill="#ADBBC8"/>
<path d="M375 89L376 90L375 89Z" fill="#7C90A2"/>
<path d="M225 90L226 91L225 90Z" fill="#ADBBC8"/>
<path d="M226 90L227 91L226 90ZM377 90L378 91L377 90Z" fill="#7C90A2"/>
<path d="M378 90L379 91L378 90ZM223 91L224 92L223 91Z" fill="#ADBBC8"/>
<path d="M380 91L381 92L380 91Z" fill="#7C90A2"/>
<path d="M220 92L221 93L220 92Z" fill="#ADBBC8"/>
<path d="M221 92L222 93L221 92Z" fill="#7C90A2"/>
<path d="M383 92L384 93L383 92ZM218 93L219 94L218 93ZM385 93L386 94L385 93Z" fill="#ADBBC8"/>
<path d="M216 94L217 95L216 94ZM387 94L388 95L387 94Z" fill="#7C90A2"/>
<path d="M213 95L214 96L213 95Z" fill="#ADBBC8"/>
<path d="M214 95L215 96L214 95ZM389 95L390 96L389 95Z" fill="#7C90A2"/>
<path d="M211 96L212 97L211 96Z" fill="#ADBBC8"/>
<path d="M212 96L213 97L212 96Z" fill="#7C90A2"/>
<path d="M392 96L393 97L392 96ZM209 97L210 98L209 97ZM394 97L395 98L394 97ZM207 98L208 99L207 98ZM396 98L397 99L396 98ZM205 99L206 100L205 99ZM398 99L399 100L398 99ZM203 100L204 101L203 100ZM400 100L401 101L400 100ZM201 101L202 102L201 101Z" fill="#ADBBC8"/>
<path d="M202 101L203 102L202 101Z" fill="#7C90A2"/>
<path d="M402 101L403 102L402 101ZM199 102L200 103L199 102Z" fill="#ADBBC8"/>
<path d="M200 102L201 103L200 102ZM403 102L404 103L403 102ZM198 103L199 104L198 103ZM405 103L406 104L405 103Z" fill="#7C90A2"/>
<path d="M196 104L197 105L196 104ZM407 104L408 105L407 104ZM194 105L195 106L194 105ZM409 105L410 106L409 105Z" fill="#ADBBC8"/>
<path d="M193 106L194 107L193 106ZM410 106L411 107L410 106ZM191 107L192 108L191 107Z" fill="#7C90A2"/>
<path d="M412 107L413 108L412 107ZM189 108L190 109L189 108Z" fill="#ADBBC8"/>
<path d="M188 109L189 110L188 109ZM415 109L416 110L415 109Z" fill="#7C90A2"/>
<path d="M186 110L187 111L186 110ZM417 110L418 111L417 110Z" fill="#ADBBC8"/>
<path d="M185 111L186 112L185 111ZM418 111L419 112L418 111Z" fill="#7C90A2"/>
<path d="M183 112L184 113L183 112ZM420 112L421 113L420 112Z" fill="#ADBBC8"/>
<path d="M182 113L183 114L182 113ZM421 113L422 114L421 113Z" fill="#7C90A2"/>
<path d="M180 114L181 115L180 114Z" fill="#ADBBC8"/>
<path d="M179 115L180 116L179 115Z" fill="#7C90A2"/>
<path d="M424 115L425 116L424 115ZM177 116L178 117L177 116ZM176 117L177 118L176 117ZM427 117L428 118L427 117Z" fill="#ADBBC8"/>
<path d="M175 118L176 119L175 118ZM428 118L429 119L428 118Z" fill="#7C90A2"/>
<path d="M173 119L174 120L173 119ZM172 120L173 121L172 120ZM431 120L432 121L431 120Z" fill="#ADBBC8"/>
<path d="M171 121L172 122L171 121ZM432 121L433 122L432 121ZM170 122L171 123L170 122ZM433 122L434 123L433 122Z" fill="#7C90A2"/>
<path d="M168 123L169 124L168 123Z" fill="#ADBBC8"/>
<path d="M167 124L168 125L167 124Z" fill="#7C90A2"/>
<path d="M436 124L437 125L436 124Z" fill="#ADBBC8"/>
<path d="M166 125L167 126L166 125ZM293 125V126H300L293 125Z" fill="#7C90A2"/>
<path d="M300 125V126H303L300 125Z" fill="#ADBBC8"/>
<path d="M303 125V126H311L303 125Z" fill="#7C90A2"/>
<path d="M437 125L438 126L437 125Z" fill="#ADBBC8"/>
<path d="M165 126L166 127L165 126ZM283.667 126.333L284.333 126.667L283.667 126.333Z" fill="#7C90A2"/>
<path d="M285 126V127H289L285 126Z" fill="#ADBBC8"/>
<path d="M336 447C331.922 378.186 393.706 311.574 463 311C463.104 273.099 461.506 241.265 442.688 207C431.489 186.608 414.958 168.937 396 155.59C379.087 143.683 359.345 134.223 339 130.003C301.526 122.23 262.493 126.023 228 143.27C153.73 180.405 121.744 270.443 150.319 347C157.619 366.557 169.27 385.197 184.001 400C202.063 418.15 222.585 432.678 247 440.997C276.192 450.943 305.789 452.859 336 447Z" fill="#F7FBFB"/>
<path d="M317 126V127H320L317 126Z" fill="#ADBBC8"/>
<path d="M320.667 126.333L321.333 126.667L320.667 126.333ZM438 126L439 127L438 126ZM275.667 127.333L276.333 127.667L275.667 127.333Z" fill="#7C90A2"/>
<path d="M277 127V128H280L277 127ZM325.667 127.333L326.333 127.667L325.667 127.333Z" fill="#ADBBC8"/>
<path d="M327.667 127.333L328.333 127.667L327.667 127.333Z" fill="#7C90A2"/>
<path d="M162 128L163 129L162 128Z" fill="#ADBBC8"/>
<path d="M270.667 128.333L271.333 128.667L270.667 128.333Z" fill="#7C90A2"/>
<path d="M272 128L273 129L272 128ZM331.667 128.333L332.333 128.667L331.667 128.333Z" fill="#ADBBC8"/>
<path d="M333 128L334 129L333 128Z" fill="#7C90A2"/>
<path d="M161 129L162 130L161 129Z" fill="#ADBBC8"/>
<path d="M265.667 129.333L266.333 129.667L265.667 129.333Z" fill="#7C90A2"/>
<path d="M267 129L268 130L267 129ZM336.667 129.333L337.333 129.667L336.667 129.333Z" fill="#ADBBC8"/>
<path d="M338 129L339 130L338 129Z" fill="#7C90A2"/>
<path d="M160 130L161 131L160 130Z" fill="#ADBBC8"/>
<path d="M261 130L262 131L261 130Z" fill="#7C90A2"/>
<path d="M262.667 130.333L263.333 130.667L262.667 130.333ZM341 130L342 131L341 130Z" fill="#ADBBC8"/>
<path d="M342 130L343 131L342 130Z" fill="#7C90A2"/>
<path d="M443 130L444 131L443 130Z" fill="#ADBBC8"/>
<path d="M159 131L160 132L159 131ZM258 131L259 132L258 131Z" fill="#7C90A2"/>
<path d="M259 131L260 132L259 131ZM345 131L346 132L345 131ZM444 131L445 132L444 131Z" fill="#ADBBC8"/>
<path d="M158 132L159 133L158 132ZM254 132L255 133L254 132Z" fill="#7C90A2"/>
<path d="M255 132L256 133L255 132ZM348 132L349 133L348 132Z" fill="#ADBBC8"/>
<path d="M349 132L350 133L349 132Z" fill="#7C90A2"/>
<path d="M445 132L446 133L445 132Z" fill="#ADBBC8"/>
<path d="M157 133L158 134L157 133ZM251 133L252 134L251 133Z" fill="#7C90A2"/>
<path d="M252 133L253 134L252 133ZM351 133L352 134L351 133Z" fill="#ADBBC8"/>
<path d="M352 133L353 134L352 133ZM446 133L447 134L446 133ZM156 134L157 135L156 134ZM248 134L249 135L248 134Z" fill="#7C90A2"/>
<path d="M249 134L250 135L249 134ZM354 134L355 135L354 134Z" fill="#ADBBC8"/>
<path d="M355 134L356 135L355 134ZM447 134L448 135L447 134ZM155 135L156 136L155 135ZM245 135L246 136L245 135Z" fill="#7C90A2"/>
<path d="M246 135L247 136L246 135ZM357 135L358 136L357 135Z" fill="#ADBBC8"/>
<path d="M358 135L359 136L358 135ZM448 135L449 136L448 135ZM154 136L155 137L154 136Z" fill="#7C90A2"/>
<path d="M243 136L244 137L243 136ZM360 136L361 137L360 136Z" fill="#ADBBC8"/>
<path d="M449 136L450 137L449 136ZM153 137L154 138L153 137ZM240 137L241 138L240 137Z" fill="#7C90A2"/>
<path d="M241 137L242 138L241 137ZM362 137L363 138L362 137Z" fill="#ADBBC8"/>
<path d="M363 137L364 138L363 137ZM450 137L451 138L450 137Z" fill="#7C90A2"/>
<path d="M238 138L239 139L238 138ZM365 138L366 139L365 138Z" fill="#ADBBC8"/>
<path d="M451 138L452 139L451 138ZM151 139L152 140L151 139ZM235 139L236 140L235 139Z" fill="#7C90A2"/>
<path d="M236 139L237 140L236 139ZM367 139L368 140L367 139Z" fill="#ADBBC8"/>
<path d="M452 139L453 140L452 139ZM150 140L151 141L150 140ZM233 140L234 141L233 140Z" fill="#7C90A2"/>
<path d="M234 140L235 141L234 140ZM369 140L370 141L369 140Z" fill="#ADBBC8"/>
<path d="M370 140L371 141L370 140ZM453 140L454 141L453 140ZM149 141L150 142L149 141ZM231 141L232 142L231 141Z" fill="#7C90A2"/>
<path d="M371 141L372 142L371 141Z" fill="#ADBBC8"/>
<path d="M372 141L373 142L372 141ZM454 141L455 142L454 141ZM148 142L149 143L148 142ZM229 142L230 143L229 142ZM374 142L375 143L374 142ZM455 142L456 143L455 142ZM147 143L148 144L147 143ZM227 143L228 144L227 143ZM376 143L377 144L376 143Z" fill="#7C90A2"/>
<path d="M456 143L457 144L456 143Z" fill="#ADBBC8"/>
<path d="M146 144L147 145L146 144ZM225 144L226 145L225 144ZM378 144L379 145L378 144Z" fill="#7C90A2"/>
<path d="M457 144L458 145L457 144Z" fill="#ADBBC8"/>
<path d="M145 145L146 146L145 145ZM223 145L224 146L223 145Z" fill="#7C90A2"/>
<path d="M379 145L380 146L379 145ZM458 145L459 146L458 145Z" fill="#ADBBC8"/>
<path d="M144 146L145 147L144 146Z" fill="#7C90A2"/>
<path d="M222 146L223 147L222 146ZM381 146L382 147L381 146ZM459 146L460 147L459 146ZM143 147L144 148L143 147ZM220 147L221 148L220 147Z" fill="#ADBBC8"/>
<path d="M383 147L384 148L383 147Z" fill="#7C90A2"/>
<path d="M142 148L143 149L142 148Z" fill="#ADBBC8"/>
<path d="M218 148L219 149L218 148ZM385 148L386 149L385 148ZM216 149L217 150L216 149Z" fill="#7C90A2"/>
<path d="M300 149V150H303L300 149ZM386 149L387 150L386 149ZM215 150L216 151L215 150Z" fill="#ADBBC8"/>
<path d="M298 150L299 151L298 150Z" fill="#7C90A2"/>
<path d="M299.055 150.747C290.195 154.227 292.141 178.729 303.956 175.012C312.989 172.171 311.195 145.979 299.055 150.747Z" fill="#3D5A77"/>
<path d="M305 150L306 151L305 150Z" fill="#ADBBC8"/>
<path d="M388 150L389 151L388 150ZM462 150L463 151L462 150ZM140 151L141 152L140 151ZM213 151L214 152L213 151Z" fill="#7C90A2"/>
<path d="M296 151L297 152L296 151Z" fill="#ADBBC8"/>
<path d="M306 151L307 152L306 151Z" fill="#7C90A2"/>
<path d="M389 151L390 152L389 151Z" fill="#ADBBC8"/>
<path d="M463 151L464 152L463 151ZM139 152L140 153L139 152Z" fill="#7C90A2"/>
<path d="M212 152L213 153L212 152ZM295 152L296 153L295 152Z" fill="#ADBBC8"/>
<path d="M307 152L308 153L307 152Z" fill="#7C90A2"/>
<path d="M391 152L392 153L391 152ZM464 152L465 153L464 152Z" fill="#ADBBC8"/>
<path d="M138 153L139 154L138 153ZM210 153L211 154L210 153Z" fill="#7C90A2"/>
<path d="M308 153L309 154L308 153ZM465 153L466 154L465 153ZM137 154L138 155L137 154ZM209 154L210 155L209 154ZM294 154L295 155L294 154Z" fill="#ADBBC8"/>
<path d="M394 154L395 155L394 154Z" fill="#7C90A2"/>
<path d="M136 155L137 156L136 155Z" fill="#ADBBC8"/>
<path d="M207 155L208 156L207 155ZM294 155L295 156L294 155Z" fill="#7C90A2"/>
<path d="M309 155V170H310L309 155ZM395 155L396 156L395 155Z" fill="#ADBBC8"/>
<path d="M206 156L207 157L206 156ZM397 156L398 157L397 156ZM467 156L468 157L467 156ZM135 157L136 158L135 157Z" fill="#7C90A2"/>
<path d="M205 157L206 158L205 157ZM398 157L399 158L398 157ZM468 157L469 158L468 157Z" fill="#ADBBC8"/>
<path d="M134 158L135 159L134 158ZM203 158L204 159L203 158Z" fill="#7C90A2"/>
<path d="M469 158L470 159L469 158ZM133 159L134 160L133 159ZM202 159L203 160L202 159Z" fill="#ADBBC8"/>
<path d="M401 159L402 160L401 159Z" fill="#7C90A2"/>
<path d="M201 160L202 161L201 160ZM402 160L403 161L402 160ZM403 161L404 162L403 161Z" fill="#ADBBC8"/>
<path d="M471 161L472 162L471 161ZM131 162L132 163L131 162ZM198 162L199 163L198 162Z" fill="#7C90A2"/>
<path d="M472 162L473 163L472 162ZM130 163L131 164L130 163Z" fill="#ADBBC8"/>
<path d="M197 163L198 164L197 163ZM406 163L407 164L406 163Z" fill="#7C90A2"/>
<path d="M196 164L197 165L196 164Z" fill="#ADBBC8"/>
<path d="M407 164L408 165L407 164ZM473 164L474 165L473 164ZM129 165L130 166L129 165Z" fill="#7C90A2"/>
<path d="M195 165L196 166L195 165ZM408 165L409 166L408 165ZM474 165L475 166L474 165ZM128 166L129 167L128 166ZM409 166L410 167L409 166Z" fill="#ADBBC8"/>
<path d="M192 167L193 168L192 167Z" fill="#7C90A2"/>
<path d="M410 167L411 168L410 167Z" fill="#ADBBC8"/>
<path d="M191 168L192 169L191 168ZM476 168L477 169L476 168ZM126 169L127 170L126 169ZM190 169L191 170L190 169Z" fill="#7C90A2"/>
<path d="M477 169L478 170L477 169ZM125 170L126 171L125 170Z" fill="#ADBBC8"/>
<path d="M189 170L190 171L189 170ZM294 170L295 171L294 170ZM188 171L189 172L188 171Z" fill="#7C90A2"/>
<path d="M294 171L295 172L294 171Z" fill="#ADBBC8"/>
<path d="M308 171L309 172L308 171ZM478 171L479 172L478 171ZM124 172L125 173L124 172ZM187 172L188 173L187 172ZM295 172L296 173L295 172Z" fill="#7C90A2"/>
<path d="M479 172L480 173L479 172ZM123 173L124 174L123 173Z" fill="#ADBBC8"/>
<path d="M186 173L187 174L186 173ZM296 173L297 174L296 173Z" fill="#7C90A2"/>
<path d="M307 173L308 174L307 173Z" fill="#ADBBC8"/>
<path d="M123 174L124 175L123 174ZM185 174L186 175L185 174ZM297 174L298 175L297 174Z" fill="#7C90A2"/>
<path d="M306 174L307 175L306 174Z" fill="#ADBBC8"/>
<path d="M480 174L481 175L480 174Z" fill="#7C90A2"/>
<path d="M122 175L123 176L122 175Z" fill="#ADBBC8"/>
<path d="M184 175L185 176L184 175Z" fill="#7C90A2"/>
<path d="M298 175L299 176L298 175Z" fill="#ADBBC8"/>
<path d="M299.667 175.333L300.333 175.667L299.667 175.333ZM303 175L304 176L303 175Z" fill="#7C90A2"/>
<path d="M304 175L305 176L304 175Z" fill="#ADBBC8"/>
<path d="M183 176L184 177L183 176ZM121 177L122 178L121 177ZM182 177L183 178L182 177Z" fill="#7C90A2"/>
<path d="M482 177L483 178L482 177ZM120 178L121 179L120 178Z" fill="#ADBBC8"/>
<path d="M181 178L182 179L181 178Z" fill="#7C90A2"/>
<path d="M422 179L423 180L422 179Z" fill="#ADBBC8"/>
<path d="M483 179L484 180L483 179ZM119 180L120 181L119 180Z" fill="#7C90A2"/>
<path d="M423 180L424 181L423 180ZM179 181L180 182L179 181ZM424 181L425 182L424 181Z" fill="#ADBBC8"/>
<path d="M118 182L119 183L118 182Z" fill="#7C90A2"/>
<path d="M178 182L179 183L178 182Z" fill="#ADBBC8"/>
<path d="M425 182L426 183L425 182Z" fill="#7C90A2"/>
<path d="M485 182L486 183L485 182ZM117 183L118 184L117 183ZM177 183L178 184L177 183Z" fill="#ADBBC8"/>
<path d="M426 183L427 184L426 183ZM117 184L118 185L117 184ZM176 184L177 185L176 184ZM486 184L487 185L486 184Z" fill="#7C90A2"/>
<path d="M116 185L117 186L116 185Z" fill="#ADBBC8"/>
<path d="M175 185L176 186L175 185Z" fill="#7C90A2"/>
<path d="M428 186L429 187L428 186Z" fill="#ADBBC8"/>
<path d="M487 186L488 187L487 186ZM115 187L116 188L115 187Z" fill="#7C90A2"/>
<path d="M174 187L175 188L174 187ZM429 187L430 188L429 187ZM173 188L174 189L173 188Z" fill="#ADBBC8"/>
<path d="M206 188L207 189L206 188Z" fill="#7C90A2"/>
<path d="M207.044 188.785C194.419 193.153 210.315 213.107 218.981 210.214C231.634 205.989 216.505 185.513 207.044 188.785Z" fill="#3D5A77"/>
<path d="M211 188L212 189L211 188Z" fill="#7C90A2"/>
<path d="M212 188L213 189L212 188ZM391 188L392 189L391 188Z" fill="#ADBBC8"/>
<path d="M392 188L393 189L392 188Z" fill="#7C90A2"/>
<path d="M392.999 188.677C387.856 189.644 380.491 196.84 379.528 202C378.594 207.004 383.053 211.323 388 210.333C393.22 209.289 400.335 202.254 401.323 197.001C402.23 192.174 397.826 187.77 392.999 188.677Z" fill="#3D5A77"/>
<path d="M396 188L397 189L396 188Z" fill="#7C90A2"/>
<path d="M397 188L398 189L397 188Z" fill="#ADBBC8"/>
<path d="M430 188L431 189L430 188ZM114 189L115 190L114 189ZM172 189L173 190L172 189Z" fill="#7C90A2"/>
<path d="M204 189L205 190L204 189Z" fill="#ADBBC8"/>
<path d="M213 189L214 190L213 189Z" fill="#7C90A2"/>
<path d="M389 189L390 190L389 189Z" fill="#ADBBC8"/>
<path d="M398 189L399 190L398 189Z" fill="#7C90A2"/>
<path d="M489 189L490 190L489 189Z" fill="#ADBBC8"/>
<path d="M171 190L172 191L171 190Z" fill="#7C90A2"/>
<path d="M203 190L204 191L203 190ZM388 190L389 191L388 190Z" fill="#ADBBC8"/>
<path d="M113 191L114 192L113 191Z" fill="#7C90A2"/>
<path d="M202 191L203 192L202 191ZM387 191L388 192L387 191Z" fill="#ADBBC8"/>
<path d="M400 191L401 192L400 191Z" fill="#7C90A2"/>
<path d="M432 191L433 192L432 191ZM490 191L491 192L490 191ZM170 192L171 193L170 192Z" fill="#ADBBC8"/>
<path d="M202 192L203 193L202 192Z" fill="#7C90A2"/>
<path d="M386 192L387 193L386 192ZM401 192L402 193L401 192Z" fill="#ADBBC8"/>
<path d="M433 192L434 193L433 192ZM112 193L113 194L112 193ZM169 193L170 194L169 193Z" fill="#7C90A2"/>
<path d="M201 193V198H202L201 193ZM385 193L386 194L385 193Z" fill="#ADBBC8"/>
<path d="M401 193L402 194L401 193Z" fill="#7C90A2"/>
<path d="M491 193L492 194L491 193ZM384 194L385 195L384 194ZM434 194L435 195L434 194Z" fill="#ADBBC8"/>
<path d="M111 195L112 196L111 195Z" fill="#7C90A2"/>
<path d="M168 195L169 196L168 195ZM383 195L384 196L383 195Z" fill="#ADBBC8"/>
<path d="M435 195L436 196L435 195Z" fill="#7C90A2"/>
<path d="M492 195L493 196L492 195Z" fill="#ADBBC8"/>
<path d="M167 196L168 197L167 196Z" fill="#7C90A2"/>
<path d="M382 196L383 197L382 196Z" fill="#ADBBC8"/>
<path d="M110 197L111 198L110 197ZM166 197L167 198L166 197Z" fill="#7C90A2"/>
<path d="M381 197L382 198L381 197Z" fill="#ADBBC8"/>
<path d="M401 197L402 198L401 197Z" fill="#7C90A2"/>
<path d="M493 197L494 198L493 197ZM166 198L167 199L166 198Z" fill="#ADBBC8"/>
<path d="M222 198L223 199L222 198Z" fill="#7C90A2"/>
<path d="M380 198L381 199L380 198ZM401 198L402 199L401 198Z" fill="#ADBBC8"/>
<path d="M437 198L438 199L437 198Z" fill="#7C90A2"/>
<path d="M109 199L110 200L109 199Z" fill="#ADBBC8"/>
<path d="M165 199L166 200L165 199Z" fill="#7C90A2"/>
<path d="M202 199L203 200L202 199Z" fill="#ADBBC8"/>
<path d="M223 199L224 200L223 199ZM203 200L204 201L203 200ZM379 200L380 201L379 200Z" fill="#7C90A2"/>
<path d="M400 200L401 201L400 200ZM438 200L439 201L438 200Z" fill="#ADBBC8"/>
<path d="M494 200L495 201L494 200Z" fill="#7C90A2"/>
<path d="M108 201L109 202L108 201ZM164 201L165 202L164 201Z" fill="#ADBBC8"/>
<path d="M204 201L205 202L204 201Z" fill="#7C90A2"/>
<path d="M224 201L225 202L224 201ZM399 201L400 202L399 201Z" fill="#ADBBC8"/>
<path d="M439 201L440 202L439 201ZM163 202L164 203L163 202ZM205 202L206 203L205 202ZM224.333 202.667L224.667 203.333L224.333 202.667Z" fill="#7C90A2"/>
<path d="M398 202L399 203L398 202Z" fill="#ADBBC8"/>
<path d="M495 202L496 203L495 202Z" fill="#7C90A2"/>
<path d="M107 203L108 204L107 203Z" fill="#ADBBC8"/>
<path d="M206 203L207 204L206 203Z" fill="#7C90A2"/>
<path d="M397 203L398 204L397 203ZM440 203L441 204L440 203Z" fill="#ADBBC8"/>
<path d="M107 204L108 205L107 204Z" fill="#7C90A2"/>
<path d="M162 204L163 205L162 204Z" fill="#ADBBC8"/>
<path d="M207 204L208 205L207 204Z" fill="#7C90A2"/>
<path d="M224.333 204.667L224.667 205.333L224.333 204.667ZM396 204L397 205L396 204Z" fill="#ADBBC8"/>
<path d="M441 204L442 205L441 204Z" fill="#7C90A2"/>
<path d="M496 204L497 205L496 204ZM106 205L107 206L106 205Z" fill="#ADBBC8"/>
<path d="M161 205L162 206L161 205ZM208 205L209 206L208 205ZM379 205L380 206L379 205Z" fill="#7C90A2"/>
<path d="M395 205L396 206L395 205Z" fill="#ADBBC8"/>
<path d="M106 206L107 207L106 206Z" fill="#7C90A2"/>
<path d="M161 206L162 207L161 206Z" fill="#ADBBC8"/>
<path d="M209 206L210 207L209 206Z" fill="#7C90A2"/>
<path d="M379 206L380 207L379 206ZM394 206L395 207L394 206Z" fill="#ADBBC8"/>
<path d="M442 206L443 207L442 206Z" fill="#7C90A2"/>
<path d="M497 206L498 207L497 206Z" fill="#ADBBC8"/>
<path d="M160 207L161 208L160 207ZM210 207L211 208L210 207Z" fill="#7C90A2"/>
<path d="M223 207L224 208L223 207ZM393 207L394 208L393 207Z" fill="#ADBBC8"/>
<path d="M497 207L498 208L497 207Z" fill="#7C90A2"/>
<path d="M105 208L106 209L105 208Z" fill="#ADBBC8"/>
<path d="M211 208L212 209L211 208ZM222 208L223 209L222 208Z" fill="#7C90A2"/>
<path d="M392 208L393 209L392 208ZM443 208L444 209L443 208Z" fill="#ADBBC8"/>
<path d="M105 209L106 210L105 209Z" fill="#7C90A2"/>
<path d="M159 209L160 210L159 209Z" fill="#ADBBC8"/>
<path d="M212 209L213 210L212 209ZM221 209L222 210L221 209Z" fill="#7C90A2"/>
<path d="M391 209L392 210L391 209Z" fill="#ADBBC8"/>
<path d="M498 209L499 210L498 209Z" fill="#7C90A2"/>
<path d="M104 210L105 211L104 210ZM213 210L214 211L213 210Z" fill="#ADBBC8"/>
<path d="M214 210L215 211L214 210ZM219 210L220 211L219 210Z" fill="#7C90A2"/>
<path d="M300 210V211H304L300 210ZM383 210L384 211L383 210Z" fill="#ADBBC8"/>
<path d="M384 210L385 211L384 210ZM388 210L389 211L388 210Z" fill="#7C90A2"/>
<path d="M389 210L390 211L389 210ZM444 210L445 211L444 210Z" fill="#ADBBC8"/>
<path d="M104 211L105 212L104 211Z" fill="#7C90A2"/>
<path d="M158 211L159 212L158 211Z" fill="#ADBBC8"/>
<path d="M298 211L299 212L298 211Z" fill="#7C90A2"/>
<path d="M294 273C289.859 268.859 271.759 247.846 267.697 263.044C266.491 267.557 270.168 271.06 273.015 274C280.172 281.389 287.556 290.591 296 296.486C299.877 299.193 305.354 299.54 307.972 294.891C310.773 289.918 309 280.564 309 275V228C309 222.102 310.312 210.384 301.005 211.287C293.602 212.005 294.002 220.516 294 226V273Z" fill="#3D5A77"/>
<path d="M305 211L306 212L305 211Z" fill="#ADBBC8"/>
<path d="M445 211L446 212L445 211Z" fill="#7C90A2"/>
<path d="M499 211L500 212L499 211ZM296 212L297 213L296 212Z" fill="#ADBBC8"/>
<path d="M306 212L307 213L306 212Z" fill="#7C90A2"/>
<path d="M445 212L446 213L445 212Z" fill="#ADBBC8"/>
<path d="M499 212L500 213L499 212Z" fill="#7C90A2"/>
<path d="M103 213L104 214L103 213ZM157 213L158 214L157 213ZM295 213L296 214L295 213Z" fill="#ADBBC8"/>
<path d="M307 213L308 214L307 213ZM446 213L447 214L446 213ZM103 214L104 215L103 214Z" fill="#7C90A2"/>
<path d="M308 214L309 215L308 214ZM446 214L447 215L446 214ZM500 214L501 215L500 214ZM156 215L157 216L156 215ZM294 215L295 216L294 215Z" fill="#ADBBC8"/>
<path d="M447 215L448 216L447 215Z" fill="#7C90A2"/>
<path d="M102 216L103 217L102 216Z" fill="#ADBBC8"/>
<path d="M294 216L295 217L294 216Z" fill="#7C90A2"/>
<path d="M309 216V293H310V240L309 216ZM447 216L448 217L447 216ZM155 217L156 218L155 217Z" fill="#ADBBC8"/>
<path d="M448 217L449 218L448 217ZM501 217L502 218L501 217Z" fill="#7C90A2"/>
<path d="M101 218L102 219L101 218ZM448 218L449 219L448 218Z" fill="#ADBBC8"/>
<path d="M101 219L102 220L101 219Z" fill="#7C90A2"/>
<path d="M154 219L155 220L154 219Z" fill="#ADBBC8"/>
<path d="M449 219L450 220L449 219Z" fill="#7C90A2"/>
<path d="M449 220L450 221L449 220Z" fill="#ADBBC8"/>
<path d="M502 220L503 221L502 220Z" fill="#7C90A2"/>
<path d="M100 221L101 222L100 221ZM153 221L154 222L153 221Z" fill="#ADBBC8"/>
<path d="M100 222L101 223L100 222Z" fill="#7C90A2"/>
<path d="M450 222L451 223L450 222Z" fill="#ADBBC8"/>
<path d="M152 223L153 224L152 223ZM503 223L504 224L503 223Z" fill="#7C90A2"/>
<path d="M99 224L100 225L99 224ZM451 224L452 225L451 224Z" fill="#ADBBC8"/>
<path d="M99.333 225.667L99.6664 226.333L99.333 225.667ZM151 225L152 226L151 225Z" fill="#7C90A2"/>
<path d="M151 226L152 227L151 226Z" fill="#ADBBC8"/>
<path d="M452 226L453 227L452 226ZM504 226L505 227L504 226Z" fill="#7C90A2"/>
<path d="M452 227L453 228L452 227ZM98 228L99 229L98 228Z" fill="#ADBBC8"/>
<path d="M150 228L151 229L150 228ZM98 229L99 230L98 229Z" fill="#7C90A2"/>
<path d="M453 229L454 230L453 229ZM505 229L506 230L505 229Z" fill="#ADBBC8"/>
<path d="M149 230L150 231L149 230ZM505 230L506 231L505 230Z" fill="#7C90A2"/>
<path d="M97 231L98 232L97 231ZM149 231L150 232L149 231Z" fill="#ADBBC8"/>
<path d="M454 231L455 232L454 231ZM97.333 232.667L97.6664 233.333L97.333 232.667Z" fill="#7C90A2"/>
<path d="M454 232L455 233L454 232Z" fill="#ADBBC8"/>
<path d="M148 233L149 234L148 233ZM506 233L507 234L506 233Z" fill="#7C90A2"/>
<path d="M148 234L149 235L148 234Z" fill="#ADBBC8"/>
<path d="M455 234L456 235L455 234Z" fill="#7C90A2"/>
<path d="M96 235L97 236L96 235ZM455 235L456 236L455 235Z" fill="#ADBBC8"/>
<path d="M96 236L97 237L96 236ZM147 236L148 237L147 236Z" fill="#7C90A2"/>
<path d="M507 236L508 237L507 236ZM147 237L148 238L147 237Z" fill="#ADBBC8"/>
<path d="M456 237L457 238L456 237ZM507 237L508 238L507 237Z" fill="#7C90A2"/>
<path d="M456 238L457 239L456 238ZM95 239L96 240L95 239Z" fill="#ADBBC8"/>
<path d="M146 239L147 240L146 239ZM95.333 240.667L95.6664 241.333L95.333 240.667Z" fill="#7C90A2"/>
<path d="M146 240L147 241L146 240Z" fill="#ADBBC8"/>
<path d="M457 240L458 241L457 240Z" fill="#7C90A2"/>
<path d="M457 241L458 242L457 241ZM508 241L509 242L508 241Z" fill="#ADBBC8"/>
<path d="M145 242L146 243L145 242ZM508 242L509 243L508 242Z" fill="#7C90A2"/>
<path d="M94.333 243.667L94.6664 244.333L94.333 243.667ZM145 243L146 244L145 243ZM458.333 244.667L458.667 245.333L458.333 244.667Z" fill="#ADBBC8"/>
<path d="M94 245L95 246L94 245Z" fill="#7C90A2"/>
<path d="M509 245L510 246L509 245Z" fill="#ADBBC8"/>
<path d="M144 246L145 247L144 246ZM509.333 246.667L509.667 247.333L509.333 246.667Z" fill="#7C90A2"/>
<path d="M144 247L145 248L144 247Z" fill="#ADBBC8"/>
<path d="M459 247L460 248L459 247Z" fill="#7C90A2"/>
<path d="M93.333 248.667L93.6664 249.333L93.333 248.667ZM459.333 248.667L459.667 249.333L459.333 248.667Z" fill="#ADBBC8"/>
<path d="M93.333 250.667L93.6664 251.333L93.333 250.667ZM143 250L144 251L143 250Z" fill="#7C90A2"/>
<path d="M143 251L144 252L143 251ZM510 251L511 252L510 251ZM460.333 252.667L460.667 253.333L460.333 252.667Z" fill="#ADBBC8"/>
<path d="M510 252L511 253L510 252Z" fill="#7C90A2"/>
<path d="M92.333 254.667L92.6664 255.333L92.333 254.667Z" fill="#ADBBC8"/>
<path d="M142 254L143 255L142 254Z" fill="#7C90A2"/>
<path d="M142.333 255.667L142.667 256.333L142.333 255.667Z" fill="#ADBBC8"/>
<path d="M92.333 256.667L92.6664 257.333L92.333 256.667ZM461 256L462 257L461 256Z" fill="#7C90A2"/>
<path d="M511.333 256.667L511.667 257.333L511.333 256.667ZM272 257L273 258L272 257Z" fill="#ADBBC8"/>
<path d="M273 257L274 258L273 257ZM275.667 257.333L276.333 257.667L275.667 257.333Z" fill="#7C90A2"/>
<path d="M277 257L278 258L277 257ZM461.333 257.667L461.667 258.333L461.333 257.667Z" fill="#ADBBC8"/>
<path d="M270 258L271 259L270 258ZM278 258L279 259L278 258ZM511.333 258.667L511.667 259.333L511.333 258.667ZM141.333 259.667L141.667 260.333L141.333 259.667ZM268 260L269 261L268 260Z" fill="#7C90A2"/>
<path d="M91 261V264H92L91 261ZM141.333 261.667L141.667 262.333L141.333 261.667ZM267 261L268 262L267 261ZM282 261L283 262L282 261Z" fill="#ADBBC8"/>
<path d="M267 262L268 263L267 262Z" fill="#7C90A2"/>
<path d="M283 262L284 263L283 262Z" fill="#ADBBC8"/>
<path d="M462 262L463 263L462 262Z" fill="#7C90A2"/>
<path d="M284 263L285 264L284 263ZM462.333 263.667L462.667 264.333L462.333 263.667Z" fill="#ADBBC8"/>
<path d="M91.333 264.667L91.6664 265.333L91.333 264.667Z" fill="#7C90A2"/>
<path d="M285 264L286 265L285 264ZM512.333 264.667L512.667 265.333L512.333 264.667Z" fill="#ADBBC8"/>
<path d="M140 265V268H141L140 265Z" fill="#7C90A2"/>
<path d="M286 265L287 266L286 265ZM287 266L288 267L287 266Z" fill="#ADBBC8"/>
<path d="M512 266V269H513L512 266ZM267 267L268 268L267 267Z" fill="#7C90A2"/>
<path d="M288 267L289 268L288 267ZM140.333 268.667L140.667 269.333L140.333 268.667ZM267 268L268 269L267 268ZM289 268L290 269L289 268Z" fill="#ADBBC8"/>
<path d="M268 269L269 270L268 269Z" fill="#7C90A2"/>
<path d="M290 269L291 270L290 269Z" fill="#ADBBC8"/>
<path d="M463 269L464 270L463 269Z" fill="#7C90A2"/>
<path d="M90 270V275H91L90 270Z" fill="#ADBBC8"/>
<path d="M269 270L270 271L269 270Z" fill="#7C90A2"/>
<path d="M291 270L292 271L291 270ZM463 270V274H464L463 270Z" fill="#ADBBC8"/>
<path d="M270 271L271 272L270 271Z" fill="#7C90A2"/>
<path d="M292 271L293 272L292 271Z" fill="#ADBBC8"/>
<path d="M271 272L272 273L271 272Z" fill="#7C90A2"/>
<path d="M293 272L294 273L293 272Z" fill="#ADBBC8"/>
<path d="M272 273L273 274L272 273ZM139 274V278H140L139 274ZM273 274L274 275L273 274ZM90 275V282H91L90 275ZM274 275L275 276L274 275ZM275 276L276 277L275 276Z" fill="#7C90A2"/>
<path d="M513 276V281H514L513 276Z" fill="#ADBBC8"/>
<path d="M276 277L277 278L276 277Z" fill="#7C90A2"/>
<path d="M139 278V298H140L139 278Z" fill="#ADBBC8"/>
<path d="M277 278L278 279L277 278ZM278 279L279 280L278 279Z" fill="#7C90A2"/>
<path d="M169 280V281H184L169 280Z" fill="#ADBBC8"/>
<path d="M279 280L280 281L279 280Z" fill="#7C90A2"/>
<path d="M420 280V281H435L420 280Z" fill="#ADBBC8"/>
<path d="M464 280V294H465L464 280ZM167 281L168 282L167 281Z" fill="#7C90A2"/>
<path d="M168.058 281.742C162.751 283.952 162.615 291.03 167.134 294.142C171.102 296.875 179.586 296.887 183.956 295.106C189.118 293.003 190.525 286.099 185.852 282.603C182.214 279.883 172.154 280.037 168.058 281.742Z" fill="#3D5A77"/>
<path d="M185 281L186 282L185 281ZM280 281L281 282L280 281ZM417 281L415 284L417 281Z" fill="#ADBBC8"/>
<path d="M418 281L419 282L418 281Z" fill="#7C90A2"/>
<path d="M419.055 281.742C413.52 284.029 413.349 290.947 418.109 294.142C422.133 296.843 430.543 296.905 434.956 295.106C440.118 293.003 441.525 286.099 436.852 282.603C433.205 279.876 423.162 280.046 419.055 281.742Z" fill="#3D5A77"/>
<path d="M436 281L437 282L436 281Z" fill="#ADBBC8"/>
<path d="M513 281V296H514L513 281Z" fill="#7C90A2"/>
<path d="M165 282L166 283L165 282Z" fill="#ADBBC8"/>
<path d="M186 282L187 283L186 282Z" fill="#7C90A2"/>
<path d="M281 282L282 283L281 282Z" fill="#ADBBC8"/>
<path d="M437 282L438 283L437 282Z" fill="#7C90A2"/>
<path d="M164 283L165 284L164 283Z" fill="#ADBBC8"/>
<path d="M187 283L188 284L187 283Z" fill="#7C90A2"/>
<path d="M282 283L283 284L282 283Z" fill="#ADBBC8"/>
<path d="M438 283L439 284L438 283Z" fill="#7C90A2"/>
<path d="M188 284L189 285L188 284ZM283 284L284 285L283 284ZM439 284L440 285L439 284ZM163 285L164 286L163 285ZM284 285L285 286L284 285ZM414 285L415 286L414 285Z" fill="#ADBBC8"/>
<path d="M163.333 286.667L163.667 287.333L163.333 286.667Z" fill="#7C90A2"/>
<path d="M189 286V290H190L189 286ZM285 286L286 287L285 286Z" fill="#ADBBC8"/>
<path d="M414 286L415 287L414 286Z" fill="#7C90A2"/>
<path d="M440 286V290H441L440 286ZM286 287L287 288L286 287ZM287 288L288 289L287 288Z" fill="#ADBBC8"/>
<path d="M163 289L164 290L163 289Z" fill="#7C90A2"/>
<path d="M288 289L289 290L288 289ZM163 290L164 291L163 290ZM289 290L290 291L289 290Z" fill="#ADBBC8"/>
<path d="M414 290L415 291L414 290ZM188 291L189 292L188 291Z" fill="#7C90A2"/>
<path d="M290 291L291 292L290 291ZM414 291L415 292L414 291Z" fill="#ADBBC8"/>
<path d="M439 291L440 292L439 291ZM164 292L165 293L164 292Z" fill="#7C90A2"/>
<path d="M291 292L292 293L291 292Z" fill="#ADBBC8"/>
<path d="M415 292L416 293L415 292ZM165 293L166 294L165 293Z" fill="#7C90A2"/>
<path d="M187 293L188 294L187 293ZM292 293L293 294L292 293Z" fill="#ADBBC8"/>
<path d="M416 293L417 294L416 293Z" fill="#7C90A2"/>
<path d="M438 293L439 294L438 293Z" fill="#ADBBC8"/>
<path d="M90 294V302H91L90 294ZM166 294L167 295L166 294Z" fill="#7C90A2"/>
<path d="M186 294L187 295L186 294ZM293 294L294 295L293 294Z" fill="#ADBBC8"/>
<path d="M417 294L418 295L417 294Z" fill="#7C90A2"/>
<path d="M437 294L438 295L437 294Z" fill="#ADBBC8"/>
<path d="M168.667 295.333L169.333 295.667L168.667 295.333ZM183 295L184 296L183 295Z" fill="#7C90A2"/>
<path d="M184 295L185 296L184 295ZM294 295L295 296L294 295ZM308 295L309 296L308 295ZM418 295L419 296L418 295Z" fill="#ADBBC8"/>
<path d="M419.667 295.333L420.333 295.667L419.667 295.333ZM434 295L435 296L434 295Z" fill="#7C90A2"/>
<path d="M435 295L436 296L435 295Z" fill="#ADBBC8"/>
<path d="M307 296L308 297L307 296Z" fill="#7C90A2"/>
<path d="M513 296V301H514L513 296ZM306 297L307 298L306 297Z" fill="#ADBBC8"/>
<path d="M139 298V302H140L139 298Z" fill="#7C90A2"/>
<path d="M298 298L299 299L298 298Z" fill="#ADBBC8"/>
<path d="M299 298L300 299L299 298ZM304 298L305 299L304 298Z" fill="#7C90A2"/>
<path d="M90 302V306H91L90 302ZM463 302V306H464L463 302ZM140 306V309H141L140 306Z" fill="#ADBBC8"/>
<path d="M463 306L464 307L463 306ZM512 308V311H513L512 308ZM140.333 309.667L140.667 310.333L140.333 309.667ZM91 310V313H92L91 310Z" fill="#7C90A2"/>
<path d="M455 311L456 312L455 311Z" fill="#ADBBC8"/>
<path d="M456 311.428C431.699 314.908 408.878 322.594 389 337.378C315.007 392.411 320.628 506.802 397 556.656C410.007 565.147 424.762 571.284 440 574.399C455.684 577.605 471.111 578.853 487 576.572C507.405 573.642 526.932 566.417 544 554.806C611.75 508.716 622.253 406.808 562.911 349.17C546.522 333.252 526.862 322.267 505 316C489.824 311.65 471.737 309.175 456 311.428Z" fill="#E0AF5D"/>
<path d="M478 311V312H482L478 311Z" fill="#7C90A2"/>
<path d="M512 311L513 312L512 311ZM449 312L450 313L449 312Z" fill="#ADBBC8"/>
<path d="M488.667 312.333L489.333 312.667L488.667 312.333Z" fill="#7C90A2"/>
<path d="M91.333 313.667L91.6664 314.333L91.333 313.667ZM443 313L444 314L443 313Z" fill="#ADBBC8"/>
<path d="M494 313L495 314L494 313Z" fill="#7C90A2"/>
<path d="M141.333 314.667L141.667 315.333L141.333 314.667Z" fill="#ADBBC8"/>
<path d="M499 314L500 315L499 314Z" fill="#7C90A2"/>
<path d="M434 315L435 316L434 315Z" fill="#ADBBC8"/>
<path d="M503 315L504 316L503 315ZM141 316L142 317L141 316ZM506 316L507 317L506 316ZM511.333 316.667L511.667 317.333L511.333 316.667ZM92 318V321H93L92 318Z" fill="#7C90A2"/>
<path d="M142.333 319.667L142.667 320.333L142.333 319.667ZM92 321L93 322L92 321Z" fill="#ADBBC8"/>
<path d="M142 321L143 322L142 321ZM93.333 324.667L93.6664 325.333L93.333 324.667Z" fill="#7C90A2"/>
<path d="M143 324L144 325L143 324ZM410 324L411 325L410 324Z" fill="#ADBBC8"/>
<path d="M143.333 325.667L143.667 326.333L143.333 325.667Z" fill="#7C90A2"/>
<path d="M408 325L409 326L408 325ZM93.333 326.667L93.6664 327.333L93.333 326.667ZM144.333 328.667L144.667 329.333L144.333 328.667Z" fill="#ADBBC8"/>
<path d="M94.333 330.667L94.6664 331.333L94.333 330.667ZM144 330L145 331L144 330Z" fill="#7C90A2"/>
<path d="M399 330L400 331L399 330ZM94 332L95 333L94 332ZM145 332L146 333L145 332ZM396 332L397 333L396 332Z" fill="#ADBBC8"/>
<path d="M145 333L146 334L145 333ZM95 335L96 336L95 335Z" fill="#7C90A2"/>
<path d="M146.333 335.667L146.667 336.333L146.333 335.667ZM95 336L96 337L95 336Z" fill="#ADBBC8"/>
<path d="M146 337L147 338L146 337ZM96 339L97 340L96 339Z" fill="#7C90A2"/>
<path d="M147 339L148 340L147 339ZM96.333 340.667L96.6664 341.333L96.333 340.667ZM148 342L149 343L148 342Z" fill="#ADBBC8"/>
<path d="M97 343L98 344L97 343Z" fill="#7C90A2"/>
<path d="M97 344L98 345L97 344ZM149 344L150 345L149 344Z" fill="#ADBBC8"/>
<path d="M149 345L150 346L149 345ZM98 346L99 347L98 346Z" fill="#7C90A2"/>
<path d="M98.333 347.667L98.6664 348.333L98.333 347.667ZM150 347L151 348L150 347Z" fill="#ADBBC8"/>
<path d="M150 348L151 349L150 348ZM99 350L100 351L99 350ZM151 350L152 351L151 350Z" fill="#7C90A2"/>
<path d="M461.001 350.703C449.923 354.469 451 366.619 451 376V433C451 441.843 449.447 452.358 451.394 461C453.344 469.658 462.498 475.011 471 472.347C482.624 468.706 482 456.813 482 447V390C482 381.156 483.551 370.643 481.606 362C479.558 352.897 469.814 347.707 461.001 350.703Z" fill="#F7FBFB"/>
<path d="M99 351L100 352L99 351ZM152 352L153 353L152 352Z" fill="#ADBBC8"/>
<path d="M100 353L101 354L100 353Z" fill="#7C90A2"/>
<path d="M100 354L101 355L100 354ZM153 354L154 355L153 354Z" fill="#ADBBC8"/>
<path d="M153 355L154 356L153 355Z" fill="#7C90A2"/>
<path d="M369 355L370 356L369 355Z" fill="#ADBBC8"/>
<path d="M101 356L102 357L101 356Z" fill="#7C90A2"/>
<path d="M154 356L155 357L154 356ZM101 357L102 358L101 357Z" fill="#ADBBC8"/>
<path d="M154 357L155 358L154 357ZM102 359L103 360L102 359ZM155 359L156 360L155 359Z" fill="#7C90A2"/>
<path d="M102 360L103 361L102 360Z" fill="#ADBBC8"/>
<path d="M156 361L157 362L156 361Z" fill="#7C90A2"/>
<path d="M364 361L365 362L364 361Z" fill="#ADBBC8"/>
<path d="M103 362L104 363L103 362ZM157 363L158 364L157 363ZM104 364L105 365L104 364Z" fill="#7C90A2"/>
<path d="M158 364L159 365L158 364ZM104 365L105 366L104 365Z" fill="#ADBBC8"/>
<path d="M158 365L159 366L158 365Z" fill="#7C90A2"/>
<path d="M214.667 365.333L215.333 365.667L214.667 365.333Z" fill="#ADBBC8"/>
<path d="M216.667 365.333L217.333 365.667L216.667 365.333Z" fill="#7C90A2"/>
<path d="M218 365L219 366L218 365ZM159 366L160 367L159 366ZM212 366L202 377L212 366Z" fill="#ADBBC8"/>
<path d="M213 366L214 367L213 366Z" fill="#7C90A2"/>
<path d="M214 366.746C209.44 368.425 203.564 374.178 202.453 379C201.154 384.637 206.674 389.188 212 387.253C216.598 385.583 222.383 379.815 223.551 375C224.998 369.036 219.638 364.67 214 366.746Z" fill="#3D5A77"/>
<path d="M220 366L221 367L220 366ZM105 367L106 368L105 367ZM159 367L160 368L159 367Z" fill="#7C90A2"/>
<path d="M222 367L223 368L222 367ZM105 368L106 369L105 368ZM160 368L161 369L160 368Z" fill="#ADBBC8"/>
<path d="M106 369L107 370L106 369ZM223 369L224 370L223 369Z" fill="#7C90A2"/>
<path d="M358 369L359 370L358 369ZM106 370L107 371L106 370Z" fill="#ADBBC8"/>
<path d="M161 370L162 371L161 370Z" fill="#7C90A2"/>
<path d="M224 371L225 372L224 371ZM107 372L108 373L107 372Z" fill="#ADBBC8"/>
<path d="M162 372L163 373L162 372ZM224.333 372.667L224.667 373.333L224.333 372.667Z" fill="#7C90A2"/>
<path d="M163 373L164 374L163 373Z" fill="#ADBBC8"/>
<path d="M108 374L109 375L108 374Z" fill="#7C90A2"/>
<path d="M224 374L225 375L224 374Z" fill="#ADBBC8"/>
<path d="M164 375L165 376L164 375ZM109 376L110 377L109 376Z" fill="#7C90A2"/>
<path d="M165 376L166 377L165 376Z" fill="#ADBBC8"/>
<path d="M223 376L224 377L223 376Z" fill="#7C90A2"/>
<path d="M109 377L110 378L109 377Z" fill="#ADBBC8"/>
<path d="M202 377L203 378L202 377Z" fill="#7C90A2"/>
<path d="M223 377L224 378L223 377ZM353 377L354 378L353 377Z" fill="#ADBBC8"/>
<path d="M110 378L111 379L110 378ZM166 378L167 379L166 378Z" fill="#7C90A2"/>
<path d="M222 378L223 379L222 378ZM110 379L111 380L110 379ZM167 379L168 380L167 379ZM201 379V383H202L201 379ZM221 379L222 380L221 379ZM220 380L221 381L220 380ZM111 381L112 382L111 381Z" fill="#ADBBC8"/>
<path d="M168 381L169 382L168 381Z" fill="#7C90A2"/>
<path d="M219 381L220 382L219 381Z" fill="#ADBBC8"/>
<path d="M112 382L113 383L112 382Z" fill="#7C90A2"/>
<path d="M169 382L170 383L169 382ZM218 382L219 383L218 382ZM112 383L113 384L112 383ZM217 383L218 384L217 383Z" fill="#ADBBC8"/>
<path d="M113 384L114 385L113 384ZM170 384L171 385L170 384ZM202 384L203 385L202 384Z" fill="#7C90A2"/>
<path d="M216 384L217 385L216 384ZM113 385L114 386L113 385ZM171 385L172 386L171 385Z" fill="#ADBBC8"/>
<path d="M203 385L204 386L203 385Z" fill="#7C90A2"/>
<path d="M215 385L216 386L215 385Z" fill="#ADBBC8"/>
<path d="M114 386L115 387L114 386Z" fill="#7C90A2"/>
<path d="M172 386L173 387L172 386Z" fill="#ADBBC8"/>
<path d="M204 386L205 387L204 386Z" fill="#7C90A2"/>
<path d="M214 386L215 387L214 386ZM114 387L115 388L114 387ZM205 387L206 388L205 387Z" fill="#ADBBC8"/>
<path d="M212 387L213 388L212 387ZM115 388L116 389L115 388Z" fill="#7C90A2"/>
<path d="M207 388V389H211L207 388ZM115 389L116 390L115 389Z" fill="#ADBBC8"/>
<path d="M174 389L175 390L174 389ZM116 390L117 391L116 390Z" fill="#7C90A2"/>
<path d="M175 390L176 391L175 390ZM176 391L177 392L176 391ZM346 391L347 392L346 391ZM117 392L118 393L117 392ZM118 394L119 395L118 394Z" fill="#ADBBC8"/>
<path d="M178 394L179 395L178 394ZM119 395L120 396L119 395ZM179 395L180 396L179 395Z" fill="#7C90A2"/>
<path d="M119 396L120 397L119 396Z" fill="#ADBBC8"/>
<path d="M180 396L181 397L180 396ZM120 397L121 398L120 397Z" fill="#7C90A2"/>
<path d="M181 397L182 398L181 397ZM182 398L183 399L182 398ZM121 399L122 400L121 399ZM183 399L184 400L183 399Z" fill="#ADBBC8"/>
<path d="M122 400L123 401L122 400Z" fill="#7C90A2"/>
<path d="M184 400L185 401L184 400ZM185 401L186 402L185 401ZM123 402L124 403L123 402ZM186 402L187 403L186 402Z" fill="#ADBBC8"/>
<path d="M124 403L125 404L124 403Z" fill="#7C90A2"/>
<path d="M187 403L188 404L187 403ZM304.667 403.333L305.333 403.667L304.667 403.333ZM124 404L125 405L124 404ZM188 404L189 405L188 404ZM301 404L302 405L301 404Z" fill="#ADBBC8"/>
<path d="M302.109 404.747C294.54 407.842 295.672 432.84 306.981 429.062C316.035 426.038 314.029 399.872 302.109 404.747Z" fill="#3D5A77"/>
<path d="M308 404L309 405L308 404Z" fill="#ADBBC8"/>
<path d="M125 405L126 406L125 405Z" fill="#7C90A2"/>
<path d="M189 405L190 406L189 405Z" fill="#ADBBC8"/>
<path d="M309 405L310 406L309 405Z" fill="#7C90A2"/>
<path d="M190 406L191 407L190 406Z" fill="#ADBBC8"/>
<path d="M310 406L311 407L310 406Z" fill="#7C90A2"/>
<path d="M126 407L127 408L126 407ZM191 407L192 408L191 407Z" fill="#ADBBC8"/>
<path d="M298 407L299 408L298 407ZM311 407L312 408L311 407Z" fill="#7C90A2"/>
<path d="M127 408L128 409L127 408ZM192 408L193 409L192 408ZM297 408L298 409L297 408ZM340 408L341 409L340 408Z" fill="#ADBBC8"/>
<path d="M128 409L129 410L128 409ZM193 409L194 410L193 409ZM297 409V424H298L297 409Z" fill="#7C90A2"/>
<path d="M312 409L313 410L312 409Z" fill="#ADBBC8"/>
<path d="M194 410L195 411L194 410ZM312 410V424H313L312 410Z" fill="#7C90A2"/>
<path d="M129 411L130 412L129 411Z" fill="#ADBBC8"/>
<path d="M195 411L196 412L195 411ZM130 412L131 413L130 412Z" fill="#7C90A2"/>
<path d="M198 413L199 414L198 413ZM131 414L132 415L131 414ZM199 414L200 415L199 414ZM132 415L133 416L132 415Z" fill="#ADBBC8"/>
<path d="M200 415L201 416L200 415ZM133 416L134 417L133 416Z" fill="#7C90A2"/>
<path d="M338 416L339 417L338 416Z" fill="#ADBBC8"/>
<path d="M134 417L135 418L134 417Z" fill="#7C90A2"/>
<path d="M203 417L204 418L203 417Z" fill="#ADBBC8"/>
<path d="M204 418L205 419L204 418Z" fill="#7C90A2"/>
<path d="M135 419L136 420L135 419Z" fill="#ADBBC8"/>
<path d="M205 419L206 420L205 419ZM136 420L137 421L136 420Z" fill="#7C90A2"/>
<path d="M207 420L208 421L207 420Z" fill="#ADBBC8"/>
<path d="M137 421L138 422L137 421ZM208 421L209 422L208 421Z" fill="#7C90A2"/>
<path d="M337 421L338 422L337 421ZM210 422L211 423L210 422Z" fill="#ADBBC8"/>
<path d="M211 423L212 424L211 423Z" fill="#7C90A2"/>
<path d="M139 424L140 425L139 424ZM213 424L214 425L213 424ZM297 424L298 425L297 424ZM312 424L313 425L312 424ZM140 425L141 426L140 425Z" fill="#ADBBC8"/>
<path d="M214 425L215 426L214 425ZM141 426L142 427L141 426Z" fill="#7C90A2"/>
<path d="M216 426L217 427L216 426ZM298 426L299 427L298 426ZM311 426L312 427L311 426Z" fill="#ADBBC8"/>
<path d="M142 427L143 428L142 427ZM217 427L218 428L217 427ZM299 427L300 428L299 427ZM310 427L311 428L310 427ZM143 428L144 429L143 428ZM219 428L220 429L219 428ZM300 428L301 429L300 428Z" fill="#7C90A2"/>
<path d="M309 428L310 429L309 428ZM336 428L337 429L336 428ZM221 429L222 430L221 429Z" fill="#ADBBC8"/>
<path d="M302 429L303 430L302 429ZM306.667 429.333L307.333 429.667L306.667 429.333Z" fill="#7C90A2"/>
<path d="M223 430L224 431L223 430Z" fill="#ADBBC8"/>
<path d="M224 431L225 432L224 431Z" fill="#7C90A2"/>
<path d="M225 431L226 432L225 431ZM146 432L147 433L146 432Z" fill="#ADBBC8"/>
<path d="M226 432L227 433L226 432Z" fill="#7C90A2"/>
<path d="M227 432L228 433L227 432ZM147 433L148 434L147 433Z" fill="#ADBBC8"/>
<path d="M228 433L229 434L228 433Z" fill="#7C90A2"/>
<path d="M148 434L149 435L148 434Z" fill="#ADBBC8"/>
<path d="M230 434L231 435L230 434Z" fill="#7C90A2"/>
<path d="M149 435L150 436L149 435Z" fill="#ADBBC8"/>
<path d="M232 435L233 436L232 435Z" fill="#7C90A2"/>
<path d="M233 435L234 436L233 435ZM150 436L151 437L150 436Z" fill="#ADBBC8"/>
<path d="M234 436L235 437L234 436Z" fill="#7C90A2"/>
<path d="M235 436L236 437L235 436ZM151 437L152 438L151 437ZM237 437L238 438L237 437ZM152 438L153 439L152 438Z" fill="#ADBBC8"/>
<path d="M239 438L240 439L239 438Z" fill="#7C90A2"/>
<path d="M240 438L241 439L240 438ZM153 439L154 440L153 439ZM242 439L243 440L242 439ZM154 440L155 441L154 440Z" fill="#ADBBC8"/>
<path d="M244 440L245 441L244 440Z" fill="#7C90A2"/>
<path d="M245 440L246 441L245 440ZM155 441L156 442L155 441Z" fill="#ADBBC8"/>
<path d="M247 441L248 442L247 441Z" fill="#7C90A2"/>
<path d="M248 441L249 442L248 441ZM156 442L157 443L156 442Z" fill="#ADBBC8"/>
<path d="M250 442L251 443L250 442Z" fill="#7C90A2"/>
<path d="M251 442L252 443L251 442ZM253.667 443.333L254.333 443.667L253.667 443.333ZM335.333 443.667L335.667 444.333L335.333 443.667Z" fill="#ADBBC8"/>
<path d="M256 444L257 445L256 444Z" fill="#7C90A2"/>
<path d="M257 444L258 445L257 444Z" fill="#ADBBC8"/>
<path d="M160 445L161 446L160 445ZM259.667 445.333L260.333 445.667L259.667 445.333Z" fill="#7C90A2"/>
<path d="M261 445L262 446L261 445Z" fill="#ADBBC8"/>
<path d="M161 446L162 447L161 446ZM263.667 446.333L264.333 446.667L263.667 446.333Z" fill="#7C90A2"/>
<path d="M265 446L266 447L265 446Z" fill="#ADBBC8"/>
<path d="M162 447L163 448L162 447ZM268 447L269 448L268 447Z" fill="#7C90A2"/>
<path d="M269.667 447.333L270.333 447.667L269.667 447.333ZM333.667 447.333L334.333 447.667L333.667 447.333Z" fill="#ADBBC8"/>
<path d="M335 447L336 448L335 447Z" fill="#7C90A2"/>
<path d="M163 448L164 449L163 448Z" fill="#ADBBC8"/>
<path d="M273.667 448.333L274.333 448.667L273.667 448.333Z" fill="#7C90A2"/>
<path d="M275.667 448.333L276.333 448.667L275.667 448.333ZM328.667 448.333L329.333 448.667L328.667 448.333Z" fill="#ADBBC8"/>
<path d="M330 448L331 449L330 448Z" fill="#7C90A2"/>
<path d="M164 449L165 450L164 449Z" fill="#ADBBC8"/>
<path d="M279 449V450H282L279 449Z" fill="#7C90A2"/>
<path d="M282.667 449.333L283.333 449.667L282.667 449.333ZM320 449V450H323L320 449Z" fill="#ADBBC8"/>
<path d="M323.667 449.333L324.333 449.667L323.667 449.333Z" fill="#7C90A2"/>
<path d="M165 450L166 451L165 450Z" fill="#ADBBC8"/>
<path d="M288.667 450.333L289.333 450.667L288.667 450.333Z" fill="#7C90A2"/>
<path d="M290 450V451H296L290 450ZM307 450V451H313L307 450Z" fill="#ADBBC8"/>
<path d="M313 450V451H316L313 450ZM168 452L169 453L168 452Z" fill="#7C90A2"/>
<path d="M169 453L170 454L169 453ZM170 454L171 455L170 454Z" fill="#ADBBC8"/>
<path d="M172 455L173 456L172 455ZM173 456L174 457L173 456Z" fill="#7C90A2"/>
<path d="M174 457L175 458L174 457ZM175 458L176 459L175 458Z" fill="#ADBBC8"/>
<path d="M336 458V461H337L336 458ZM177 459L178 460L177 459Z" fill="#7C90A2"/>
<path d="M178 460L179 461L178 460Z" fill="#ADBBC8"/>
<path d="M180 461L181 462L180 461Z" fill="#7C90A2"/>
<path d="M181 462L182 463L181 462ZM182 463L183 464L182 463ZM184 464L185 465L184 464Z" fill="#ADBBC8"/>
<path d="M186 465L187 466L186 465Z" fill="#7C90A2"/>
<path d="M187 466L188 467L187 466Z" fill="#ADBBC8"/>
<path d="M337.333 466.667L337.667 467.333L337.333 466.667ZM189 467L190 468L189 467Z" fill="#7C90A2"/>
<path d="M190 468L191 469L190 468Z" fill="#ADBBC8"/>
<path d="M192 469L193 470L192 469ZM194 470L195 471L194 470Z" fill="#7C90A2"/>
<path d="M195 471L196 472L195 471Z" fill="#ADBBC8"/>
<path d="M338.333 471.667L338.667 472.333L338.333 471.667Z" fill="#7C90A2"/>
<path d="M197 472L198 473L197 472Z" fill="#ADBBC8"/>
<path d="M199 473L200 474L199 473Z" fill="#7C90A2"/>
<path d="M200 474L201 475L200 474Z" fill="#ADBBC8"/>
<path d="M201 474L202 475L201 474Z" fill="#7C90A2"/>
<path d="M202 475L203 476L202 475Z" fill="#ADBBC8"/>
<path d="M203 475L204 476L203 475ZM339.333 475.667L339.667 476.333L339.333 475.667Z" fill="#7C90A2"/>
<path d="M204 476L205 477L204 476Z" fill="#ADBBC8"/>
<path d="M205 476L206 477L205 476Z" fill="#7C90A2"/>
<path d="M206 477L207 478L206 477Z" fill="#ADBBC8"/>
<path d="M207 477L208 478L207 477Z" fill="#7C90A2"/>
<path d="M208 478L209 479L208 478Z" fill="#ADBBC8"/>
<path d="M209 478L210 479L209 478Z" fill="#7C90A2"/>
<path d="M210 479L211 480L210 479Z" fill="#ADBBC8"/>
<path d="M211 479L212 480L211 479ZM340.333 479.667L340.667 480.333L340.333 479.667ZM213 480L214 481L213 480ZM215 481L216 482L215 481Z" fill="#7C90A2"/>
<path d="M217 482L218 483L217 482ZM219 483L220 484L219 483Z" fill="#ADBBC8"/>
<path d="M220 483L221 484L220 483ZM341 483L342 484L341 483Z" fill="#7C90A2"/>
<path d="M222 484L223 485L222 484ZM224 485L225 486L224 485Z" fill="#ADBBC8"/>
<path d="M225 485L226 486L225 485Z" fill="#7C90A2"/>
<path d="M227 486L228 487L227 486Z" fill="#ADBBC8"/>
<path d="M342 486L343 487L342 486Z" fill="#7C90A2"/>
<path d="M229 487L230 488L229 487Z" fill="#ADBBC8"/>
<path d="M230 487L231 488L230 487Z" fill="#7C90A2"/>
<path d="M232 488L233 489L232 488Z" fill="#ADBBC8"/>
<path d="M233 488L234 489L233 488Z" fill="#7C90A2"/>
<path d="M235 489L236 490L235 489Z" fill="#ADBBC8"/>
<path d="M236 489L237 490L236 489ZM343 489L344 490L343 489Z" fill="#7C90A2"/>
<path d="M238 490L239 491L238 490Z" fill="#ADBBC8"/>
<path d="M239 490L240 491L239 490Z" fill="#7C90A2"/>
<path d="M242 491L243 492L242 491Z" fill="#ADBBC8"/>
<path d="M243 491L244 492L243 491Z" fill="#7C90A2"/>
<path d="M245 492L246 493L245 492Z" fill="#ADBBC8"/>
<path d="M246 492L247 493L246 492ZM344 492L345 493L344 492Z" fill="#7C90A2"/>
<path d="M462.001 492.569C442.633 497.912 448.437 539.237 471 532.196C490.173 526.213 484.529 486.353 462.001 492.569Z" fill="#F7FBFB"/>
<path d="M249 493L250 494L249 493Z" fill="#ADBBC8"/>
<path d="M250 493L251 494L250 493Z" fill="#7C90A2"/>
<path d="M253 494L254 495L253 494Z" fill="#ADBBC8"/>
<path d="M254.667 494.333L255.333 494.667L254.667 494.333ZM345.333 494.667L345.667 495.333L345.333 494.667Z" fill="#7C90A2"/>
<path d="M257.667 495.333L258.333 495.667L257.667 495.333Z" fill="#ADBBC8"/>
<path d="M259 495L260 496L259 495Z" fill="#7C90A2"/>
<path d="M262.667 496.333L263.333 496.667L262.667 496.333Z" fill="#ADBBC8"/>
<path d="M264.667 496.333L265.333 496.667L264.667 496.333ZM340 496L341 497L340 496Z" fill="#7C90A2"/>
<path d="M341 496L342 497L341 496ZM268.667 497.333L269.333 497.667L268.667 497.333Z" fill="#ADBBC8"/>
<path d="M270.667 497.333L271.333 497.667L270.667 497.333ZM334 497L335 498L334 497Z" fill="#7C90A2"/>
<path d="M335 497L336 498L335 497ZM275.667 498.333L276.333 498.667L275.667 498.333Z" fill="#ADBBC8"/>
<path d="M277 498V499H280L277 498ZM326.667 498.333L327.333 498.667L326.667 498.333Z" fill="#7C90A2"/>
<path d="M328 498L329 499L328 498ZM284 499V500H288L284 499Z" fill="#ADBBC8"/>
<path d="M288.667 499.333L289.333 499.667L288.667 499.333ZM315 499V500H318L315 499Z" fill="#7C90A2"/>
<path d="M318.667 499.333L319.333 499.667L318.667 499.333Z" fill="#ADBBC8"/>
</svg>
