<svg width="25" height="29" viewBox="0 0 25 29" fill="none" xmlns="http://www.w3.org/2000/svg">
<path fill-rule="evenodd" clip-rule="evenodd" d="M11.4613 7.05271C10.9147 7.11385 10.6697 7.14548 10.5727 7.16739C10.5147 7.18051 10.3724 7.20634 10.2565 7.22476C10.1405 7.24319 10.0117 7.26865 9.97032 7.28148C9.9289 7.29425 9.82047 7.32058 9.72935 7.34002C9.52498 7.38354 9.49388 7.39261 8.91609 7.5762C8.29892 7.77226 7.80773 7.96412 7.42512 8.15837C6.652 8.55093 6.56502 8.59953 6.14499 8.87263C5.57533 9.24299 5.09114 9.61735 4.59988 10.0671C4.4873 10.1701 4.35447 10.271 4.30469 10.2911C4.21411 10.3278 3.8257 10.6908 3.8257 10.7388C3.8257 10.7528 3.75793 10.8309 3.6751 10.9125C3.59226 10.9939 3.52449 11.0728 3.52449 11.0876C3.52449 11.1025 3.47705 11.1604 3.41907 11.2163C3.36109 11.2721 3.31365 11.3295 3.31365 11.3438C3.31365 11.3581 3.29671 11.387 3.276 11.408C3.19678 11.4887 3.07268 11.6615 3.07268 11.6911C3.07268 11.7081 3.05913 11.722 3.04256 11.722C3.026 11.722 3.01244 11.7357 3.01244 11.7523C3.01244 11.7689 2.98533 11.8105 2.9522 11.8448C2.91907 11.879 2.89196 11.9242 2.89196 11.9451C2.89196 11.9661 2.8784 11.9832 2.86184 11.9832C2.84527 11.9832 2.83172 12.0028 2.83172 12.0267C2.83172 12.0506 2.81816 12.0702 2.8016 12.0702C2.78503 12.0702 2.77148 12.0898 2.77148 12.1137C2.77148 12.1377 2.75792 12.1573 2.74136 12.1573C2.72479 12.1573 2.71124 12.1805 2.71124 12.2089C2.71124 12.2373 2.68413 12.2793 2.65099 12.3023C2.61786 12.3253 2.59075 12.3674 2.59075 12.3958C2.59075 12.4242 2.5772 12.4474 2.56063 12.4474C2.54407 12.4474 2.53051 12.4735 2.53051 12.5054C2.53051 12.5373 2.51696 12.5635 2.50039 12.5635C2.48382 12.5635 2.47027 12.5806 2.47027 12.6015C2.47027 12.6224 2.44316 12.6676 2.41003 12.7019C2.3769 12.7361 2.34979 12.7843 2.34979 12.8088C2.34979 12.8334 2.33962 12.8537 2.3272 12.8538C2.30077 12.8541 2.2293 12.9941 2.2293 13.0455C2.2293 13.065 2.21854 13.0852 2.20528 13.0906C2.17757 13.1017 2.04858 13.3606 2.04858 13.4049C2.04858 13.4353 1.98661 13.5528 1.95671 13.579C1.93412 13.5988 1.83774 13.8951 1.83774 13.945C1.83774 13.9671 1.82418 13.9852 1.80762 13.9852C1.79105 13.9852 1.77749 14.0178 1.77749 14.0577C1.77749 14.0976 1.76394 14.1302 1.74737 14.1302C1.73081 14.1302 1.71725 14.1629 1.71725 14.2028C1.71725 14.2427 1.7037 14.2753 1.68713 14.2753C1.67057 14.2753 1.65701 14.3071 1.65701 14.3461C1.65701 14.385 1.64346 14.425 1.62689 14.4349C1.61032 14.4447 1.59677 14.4847 1.59677 14.5237C1.59677 14.5626 1.58322 14.5945 1.56665 14.5945C1.55008 14.5945 1.53653 14.6394 1.53653 14.6943C1.53653 14.7492 1.52297 14.8022 1.50641 14.8121C1.48984 14.8219 1.47629 14.8684 1.47629 14.9154C1.47629 14.9623 1.46273 15.0007 1.44617 15.0007C1.4296 15.0007 1.41605 15.0456 1.41605 15.1005C1.41605 15.1554 1.40249 15.2084 1.38593 15.2183C1.36936 15.2281 1.3558 15.2812 1.3558 15.3361C1.3558 15.391 1.34225 15.4359 1.32568 15.4359C1.30912 15.4359 1.29556 15.4873 1.29556 15.5502C1.29556 15.6131 1.28201 15.6726 1.26544 15.6825C1.24888 15.6924 1.23532 15.7642 1.23532 15.8421C1.23532 15.92 1.22177 15.9918 1.2052 16.0016C1.18864 16.0115 1.17508 16.0841 1.17508 16.163C1.17508 16.2418 1.16153 16.3063 1.14496 16.3063C1.12757 16.3063 1.11484 16.3976 1.11484 16.5222C1.11484 16.6409 1.10129 16.7462 1.08472 16.756C1.06717 16.7665 1.0546 16.9298 1.0546 17.1477C1.0546 17.3656 1.04202 17.529 1.02448 17.5394C0.984191 17.5634 0.984191 18.4439 1.02448 18.4679C1.04202 18.4783 1.0546 18.6417 1.0546 18.8596C1.0546 19.0775 1.06717 19.2408 1.08472 19.2512C1.10129 19.2611 1.11484 19.359 1.11484 19.4689C1.11484 19.5787 1.12839 19.6766 1.14496 19.6865C1.16153 19.6963 1.17508 19.7755 1.17508 19.8623C1.17508 19.9491 1.18864 20.0201 1.2052 20.0201C1.22177 20.0201 1.23532 20.0854 1.23532 20.1652C1.23532 20.245 1.24888 20.3103 1.26544 20.3103C1.28201 20.3103 1.29556 20.3682 1.29556 20.4391C1.29556 20.51 1.30912 20.576 1.32568 20.5859C1.34225 20.5958 1.3558 20.6553 1.3558 20.7182C1.3558 20.7811 1.36936 20.8325 1.38593 20.8325C1.40249 20.8325 1.41605 20.8717 1.41605 20.9196C1.41605 20.9674 1.4296 21.0066 1.44617 21.0066C1.46273 21.0066 1.47629 21.0523 1.47629 21.1082C1.47629 21.164 1.48984 21.2097 1.50641 21.2097C1.52297 21.2097 1.53653 21.2489 1.53653 21.2968C1.53653 21.3446 1.55008 21.3838 1.56665 21.3838C1.58322 21.3838 1.59677 21.423 1.59677 21.4708C1.59677 21.5187 1.61032 21.5579 1.62689 21.5579C1.64346 21.5579 1.65701 21.597 1.65701 21.6449C1.65701 21.6928 1.67057 21.732 1.68713 21.732C1.7037 21.732 1.71725 21.7711 1.71725 21.819C1.71725 21.8669 1.73081 21.9061 1.74737 21.9061C1.76394 21.9061 1.77749 21.9314 1.77749 21.9623C1.77749 21.9933 1.79105 22.0268 1.80762 22.0366C1.82418 22.0465 1.83774 22.0838 1.83774 22.1196C1.83774 22.1554 1.854 22.2003 1.87388 22.2194C1.89376 22.2386 1.90024 22.2542 1.88834 22.2542C1.87637 22.2542 1.89399 22.3059 1.9275 22.3691C1.96093 22.4323 1.98834 22.5041 1.98834 22.5287C1.98834 22.5533 1.9985 22.5735 2.01093 22.5736C2.03796 22.5739 2.10882 22.7144 2.10882 22.7678C2.10882 22.7885 2.12238 22.8055 2.13894 22.8055C2.15551 22.8055 2.16906 22.8316 2.16906 22.8635C2.16906 22.8954 2.18262 22.9216 2.19918 22.9216C2.21575 22.9216 2.2293 22.9477 2.2293 22.9796C2.2293 23.0115 2.24286 23.0376 2.25943 23.0376C2.27599 23.0376 2.28955 23.0637 2.28955 23.0956C2.28955 23.1276 2.3031 23.1537 2.31967 23.1537C2.33623 23.1537 2.34979 23.1798 2.34979 23.2117C2.34979 23.2436 2.36078 23.2697 2.37426 23.2697C2.38774 23.2697 2.41741 23.3154 2.44015 23.3713C2.46289 23.4271 2.49256 23.4728 2.50604 23.4728C2.51952 23.4728 2.53051 23.4899 2.53051 23.5109C2.53051 23.5318 2.55762 23.577 2.59075 23.6112C2.62389 23.6455 2.65099 23.6936 2.65099 23.7182C2.65099 23.7428 2.66455 23.763 2.68111 23.763C2.69768 23.763 2.71124 23.7801 2.71124 23.801C2.71124 23.8219 2.73834 23.8671 2.77148 23.9014C2.80461 23.9356 2.83172 23.9809 2.83172 24.002C2.83172 24.0231 2.85883 24.0591 2.89196 24.0821C2.92509 24.1051 2.9522 24.1443 2.9522 24.1692C2.9522 24.194 2.97931 24.2332 3.01244 24.2562C3.04557 24.2792 3.07268 24.3147 3.07268 24.3351C3.07268 24.3556 3.08466 24.3723 3.09926 24.3723C3.11395 24.3723 3.13451 24.3951 3.14497 24.423C3.17713 24.5089 3.24211 24.6044 3.32494 24.6876C3.36839 24.7313 3.40401 24.7766 3.40401 24.7883C3.40401 24.7999 3.45145 24.8551 3.50943 24.911C3.56741 24.9668 3.61486 25.0244 3.61486 25.0389C3.61486 25.0534 3.69279 25.143 3.78805 25.238C3.88331 25.3329 4.01546 25.4733 4.08173 25.5499C4.14799 25.6265 4.28195 25.7617 4.37939 25.8503C4.47683 25.939 4.60176 26.054 4.65696 26.1059C4.71223 26.1577 4.76539 26.2002 4.77518 26.2002C4.78489 26.2002 4.87269 26.2785 4.97029 26.3743C5.06788 26.47 5.15914 26.5483 5.17315 26.5483C5.18715 26.5483 5.25854 26.6006 5.33173 26.6644C5.40493 26.7282 5.47692 26.7805 5.49167 26.7805C5.50636 26.7805 5.55433 26.8164 5.5983 26.8602C5.6422 26.9041 5.7154 26.9585 5.76095 26.9812C5.80651 27.0039 5.84378 27.0332 5.84378 27.0465C5.84378 27.0597 5.86088 27.0706 5.88174 27.0706C5.9026 27.0706 5.95621 27.1032 6.00094 27.1431C6.04559 27.183 6.0968 27.2157 6.1148 27.2157C6.13279 27.2157 6.17662 27.2418 6.21216 27.2737C6.2477 27.3056 6.29462 27.3317 6.3163 27.3317C6.33807 27.3317 6.35584 27.3448 6.35584 27.3607C6.35584 27.3767 6.37993 27.3897 6.40945 27.3897C6.43889 27.3897 6.48257 27.4159 6.50644 27.4478C6.53031 27.4797 6.57399 27.5058 6.60343 27.5058C6.63295 27.5058 6.65704 27.5189 6.65704 27.5348C6.65704 27.5508 6.68114 27.5638 6.71066 27.5638C6.7401 27.5638 6.78378 27.5899 6.80765 27.6219C6.83152 27.6538 6.87519 27.6799 6.90464 27.6799C6.93415 27.6799 6.95825 27.6929 6.95825 27.7089C6.95825 27.7249 6.97858 27.7379 7.00343 27.7379C7.02828 27.7379 7.04861 27.751 7.04861 27.7669C7.04861 27.7829 7.07572 27.7959 7.10885 27.7959C7.14199 27.7959 7.16909 27.809 7.16909 27.825C7.16909 27.8409 7.18672 27.854 7.20825 27.854C7.26367 27.854 7.40953 27.9222 7.40983 27.9483C7.40999 27.9602 7.43717 27.97 7.4703 27.97C7.50343 27.97 7.53054 27.9831 7.53054 27.999C7.53054 28.015 7.55765 28.0281 7.59078 28.0281C7.62392 28.0281 7.65103 28.0411 7.65103 28.0571C7.65103 28.073 7.6688 28.0861 7.69056 28.0861C7.71232 28.0861 7.78619 28.1122 7.85479 28.1441C7.92332 28.176 8.00042 28.2021 8.0261 28.2021C8.05171 28.2021 8.07271 28.2124 8.07271 28.2249C8.07271 28.2373 8.1368 28.2658 8.21511 28.288C8.2935 28.3103 8.39177 28.3457 8.43349 28.3667C8.47528 28.3877 8.53996 28.405 8.57724 28.4051C8.61451 28.4052 8.64501 28.4183 8.64501 28.4343C8.64501 28.4502 8.68567 28.4633 8.73537 28.4633C8.78507 28.4633 8.82573 28.4763 8.82573 28.4923C8.82573 28.5082 8.86639 28.5213 8.91609 28.5213C8.96579 28.5213 9.00646 28.5344 9.00646 28.5503C9.00646 28.5663 9.06067 28.5793 9.12694 28.5793C9.1932 28.5793 9.24742 28.5924 9.24742 28.6083C9.24742 28.6243 9.28808 28.6374 9.33778 28.6374C9.38748 28.6374 9.42814 28.6504 9.42814 28.6664C9.42814 28.6823 9.47559 28.6954 9.53357 28.6954C9.59155 28.6954 9.63899 28.7084 9.63899 28.7244C9.63899 28.7404 9.69321 28.7534 9.75947 28.7534C9.82574 28.7534 9.87995 28.7665 9.87995 28.7824C9.87995 28.7984 9.93334 28.8114 9.99863 28.8114C10.0639 28.8114 10.1257 28.8245 10.136 28.8405C10.1462 28.8564 10.2284 28.8695 10.3185 28.8695C10.4086 28.8695 10.4824 28.8825 10.4824 28.8985C10.4824 28.9146 10.5619 28.9275 10.6606 28.9275C10.7763 28.9275 10.8432 28.9402 10.8513 28.9638C10.8612 28.9922 11.2167 29 12.4939 29C13.7578 29 14.1324 28.9919 14.1616 28.9638C14.1823 28.9438 14.2711 28.9275 14.3589 28.9275C14.4467 28.9275 14.5185 28.9144 14.5185 28.8985C14.5185 28.8825 14.5923 28.8695 14.6824 28.8695C14.7725 28.8695 14.8547 28.8564 14.8649 28.8405C14.8752 28.8245 14.937 28.8114 15.0023 28.8114C15.0676 28.8114 15.121 28.7984 15.121 28.7824C15.121 28.7665 15.1752 28.7534 15.2414 28.7534C15.3077 28.7534 15.3619 28.7404 15.3619 28.7244C15.3619 28.7084 15.4094 28.6954 15.4673 28.6954C15.5253 28.6954 15.5728 28.6823 15.5728 28.6664C15.5728 28.6504 15.6126 28.6374 15.6613 28.6374C15.71 28.6374 15.7583 28.6243 15.7685 28.6083C15.7788 28.5924 15.8338 28.5793 15.8908 28.5793C15.9478 28.5793 15.9945 28.5663 15.9945 28.5503C15.9945 28.5344 16.0275 28.5213 16.0679 28.5213C16.1084 28.5213 16.1499 28.5082 16.1601 28.4923C16.1704 28.4763 16.2186 28.4633 16.2673 28.4633C16.3161 28.4633 16.3559 28.4532 16.3559 28.4409C16.3559 28.4285 16.4135 28.4043 16.4839 28.3871C16.6582 28.3444 16.9109 28.2505 16.9231 28.2239C16.9287 28.2119 16.953 28.2021 16.9774 28.2021C17.0016 28.2021 17.0776 28.176 17.1461 28.1441C17.2147 28.1122 17.2886 28.0861 17.3103 28.0861C17.3321 28.0861 17.3499 28.073 17.3499 28.0571C17.3499 28.0411 17.377 28.0281 17.4101 28.0281C17.4433 28.0281 17.4704 28.015 17.4704 27.999C17.4704 27.9831 17.4975 27.97 17.5306 27.97C17.5637 27.97 17.5908 27.957 17.5908 27.941C17.5908 27.9251 17.618 27.912 17.6511 27.912C17.6842 27.912 17.7113 27.8989 17.7113 27.883C17.7113 27.867 17.7384 27.854 17.7716 27.854C17.8047 27.854 17.8318 27.8409 17.8318 27.825C17.8318 27.809 17.8589 27.7959 17.8921 27.7959C17.9252 27.7959 17.9523 27.7829 17.9523 27.7669C17.9523 27.751 17.9726 27.7379 17.9975 27.7379C18.0223 27.7379 18.0427 27.7249 18.0427 27.7089C18.0427 27.6929 18.0668 27.6799 18.0963 27.6799C18.1257 27.6799 18.1694 27.6538 18.1933 27.6219C18.2171 27.5899 18.2608 27.5638 18.2902 27.5638C18.3198 27.5638 18.3439 27.5508 18.3439 27.5348C18.3439 27.5189 18.368 27.5058 18.3975 27.5058C18.4269 27.5058 18.4706 27.4797 18.4945 27.4478C18.5183 27.4159 18.562 27.3897 18.5915 27.3897C18.621 27.3897 18.6451 27.3767 18.6451 27.3607C18.6451 27.3448 18.6628 27.3317 18.6846 27.3317C18.7063 27.3317 18.7532 27.3056 18.7887 27.2737C18.8243 27.2418 18.8681 27.2157 18.886 27.2157C18.904 27.2157 18.9351 27.2028 18.9551 27.187C19.0563 27.1074 19.2803 26.9545 19.2959 26.9545C19.3057 26.9545 19.351 26.916 19.3967 26.8689C19.4424 26.8218 19.4976 26.7794 19.5194 26.7746C19.5412 26.7699 19.6125 26.717 19.6779 26.6571C19.7433 26.5973 19.8096 26.5483 19.825 26.5483C19.8406 26.5483 19.933 26.47 20.0306 26.3743C20.1282 26.2785 20.216 26.2002 20.2257 26.2002C20.2658 26.2002 20.8717 25.6258 20.9902 25.4754C21.0339 25.4199 21.1409 25.3054 21.2279 25.2209C21.3149 25.1364 21.386 25.055 21.386 25.04C21.386 25.0249 21.4335 24.9668 21.4915 24.911C21.5495 24.8551 21.5969 24.797 21.5969 24.7819C21.5969 24.7668 21.6376 24.7174 21.6873 24.6722C21.737 24.627 21.7776 24.5794 21.7776 24.5663C21.7776 24.5532 21.8115 24.4997 21.8529 24.4474C21.8943 24.395 21.9282 24.3372 21.9282 24.3187C21.9282 24.3003 21.9395 24.2852 21.9532 24.2852C21.967 24.2852 21.9974 24.2493 22.0208 24.2054C22.0442 24.1615 22.0872 24.1045 22.1162 24.0787C22.1454 24.0529 22.1692 24.0165 22.1692 23.9977C22.1692 23.979 22.1963 23.9356 22.2294 23.9014C22.2626 23.8671 22.2897 23.8219 22.2897 23.801C22.2897 23.7801 22.3032 23.763 22.3198 23.763C22.3364 23.763 22.3499 23.7428 22.3499 23.7182C22.3499 23.6936 22.377 23.6455 22.4102 23.6112C22.4433 23.577 22.4704 23.5318 22.4704 23.5109C22.4704 23.4899 22.4839 23.4728 22.5005 23.4728C22.5171 23.4728 22.5306 23.4532 22.5306 23.4293C22.5306 23.4054 22.5442 23.3858 22.5608 23.3858C22.5773 23.3858 22.5909 23.3597 22.5909 23.3278C22.5909 23.2958 22.6044 23.2697 22.621 23.2697C22.6376 23.2697 22.6511 23.2436 22.6511 23.2117C22.6511 23.1798 22.6647 23.1537 22.6812 23.1537C22.6978 23.1537 22.7114 23.1276 22.7114 23.0956C22.7114 23.0637 22.7249 23.0376 22.7415 23.0376C22.758 23.0376 22.7716 23.0115 22.7716 22.9796C22.7716 22.9477 22.7818 22.9215 22.7942 22.9213C22.8212 22.921 22.8921 22.7805 22.8921 22.7272C22.8921 22.7064 22.9056 22.6894 22.9222 22.6894C22.9388 22.6894 22.9523 22.6633 22.9523 22.6314C22.9523 22.5995 22.9681 22.5734 22.9875 22.5734C23.0068 22.5734 23.0141 22.5653 23.0039 22.5553C22.9936 22.5454 23.0187 22.4736 23.0596 22.3957C23.1006 22.3179 23.1243 22.2542 23.1125 22.2542C23.1006 22.2542 23.1071 22.2386 23.127 22.2194C23.1469 22.2003 23.1632 22.1554 23.1632 22.1196C23.1632 22.0838 23.1767 22.0465 23.1933 22.0366C23.2099 22.0268 23.2234 21.9933 23.2234 21.9623C23.2234 21.9314 23.237 21.9061 23.2535 21.9061C23.2701 21.9061 23.2837 21.8669 23.2837 21.819C23.2837 21.7711 23.2972 21.732 23.3138 21.732C23.3303 21.732 23.3439 21.6928 23.3439 21.6449C23.3439 21.597 23.3574 21.5579 23.374 21.5579C23.3906 21.5579 23.4041 21.5187 23.4041 21.4708C23.4041 21.423 23.4177 21.3838 23.4343 21.3838C23.4508 21.3838 23.4644 21.3446 23.4644 21.2968C23.4644 21.2489 23.4779 21.2097 23.4945 21.2097C23.5111 21.2097 23.5246 21.164 23.5246 21.1082C23.5246 21.0523 23.5382 21.0066 23.5547 21.0066C23.5713 21.0066 23.5849 20.9682 23.5849 20.9213C23.5849 20.8744 23.5984 20.8279 23.615 20.818C23.6315 20.8082 23.6451 20.7559 23.6451 20.702C23.6451 20.648 23.6587 20.5958 23.6752 20.5859C23.6918 20.576 23.7053 20.51 23.7053 20.4391C23.7053 20.3682 23.7189 20.3103 23.7355 20.3103C23.752 20.3103 23.7656 20.2458 23.7656 20.1669C23.7656 20.0881 23.7791 20.0155 23.7957 20.0056C23.8123 19.9958 23.8258 19.9239 23.8258 19.846C23.8258 19.7681 23.8394 19.6963 23.8559 19.6865C23.8725 19.6766 23.8861 19.5805 23.8861 19.4729C23.8861 19.3653 23.8989 19.265 23.9145 19.2498C23.9301 19.2346 23.9506 19.046 23.9599 18.8305C24.0067 17.7517 24.0089 17.6026 23.978 17.5728C23.959 17.5546 23.9463 17.3885 23.9463 17.1582C23.9463 16.9333 23.9338 16.7665 23.9162 16.756C23.8996 16.7462 23.8861 16.6482 23.8861 16.5384C23.8861 16.4286 23.8725 16.3307 23.8559 16.3208C23.8394 16.3109 23.8258 16.2391 23.8258 16.1612C23.8258 16.0833 23.8123 16.0115 23.7957 16.0016C23.7791 15.9918 23.7656 15.92 23.7656 15.8421C23.7656 15.7642 23.752 15.6924 23.7355 15.6825C23.7189 15.6726 23.7053 15.6131 23.7053 15.5502C23.7053 15.4873 23.6918 15.4359 23.6752 15.4359C23.6587 15.4359 23.6451 15.391 23.6451 15.3361C23.6451 15.2812 23.6315 15.2281 23.615 15.2183C23.5984 15.2084 23.5849 15.1554 23.5849 15.1005C23.5849 15.0456 23.5713 15.0007 23.5547 15.0007C23.5382 15.0007 23.5246 14.9615 23.5246 14.9136C23.5246 14.8657 23.5111 14.8266 23.4945 14.8266C23.4779 14.8266 23.4644 14.7743 23.4644 14.7105C23.4644 14.6467 23.4508 14.5945 23.4343 14.5945C23.4177 14.5945 23.4041 14.5626 23.4041 14.5237C23.4041 14.4847 23.3906 14.4447 23.374 14.4349C23.3574 14.425 23.3439 14.385 23.3439 14.3461C23.3439 14.3071 23.3303 14.2753 23.3138 14.2753C23.2972 14.2753 23.2837 14.2427 23.2837 14.2028C23.2837 14.1629 23.2701 14.1302 23.2535 14.1302C23.237 14.1302 23.2234 14.0976 23.2234 14.0577C23.2234 14.0178 23.2099 13.9852 23.1933 13.9852C23.1767 13.9852 23.1632 13.9671 23.1632 13.945C23.1632 13.8951 23.0668 13.5988 23.0442 13.579C23.0132 13.5518 22.9523 13.4348 22.9523 13.4024C22.9523 13.357 22.7043 12.8701 22.6751 12.8585C22.662 12.8531 22.6511 12.8297 22.6511 12.8065C22.6511 12.7832 22.624 12.7361 22.5909 12.7019C22.5577 12.6676 22.5306 12.6224 22.5306 12.6015C22.5306 12.5806 22.5171 12.5635 22.5005 12.5635C22.4839 12.5635 22.4704 12.5373 22.4704 12.5054C22.4704 12.4735 22.4568 12.4474 22.4403 12.4474C22.4237 12.4474 22.4102 12.4242 22.4102 12.3958C22.4102 12.3674 22.383 12.3253 22.3499 12.3023C22.3168 12.2793 22.2897 12.2373 22.2897 12.2089C22.2897 12.1805 22.2761 12.1573 22.2596 12.1573C22.243 12.1573 22.2294 12.1377 22.2294 12.1137C22.2294 12.0898 22.2159 12.0702 22.1993 12.0702C22.1827 12.0702 22.1692 12.0506 22.1692 12.0267C22.1692 12.0028 22.1556 11.9832 22.1391 11.9832C22.1225 11.9832 22.1089 11.9661 22.1089 11.9451C22.1089 11.9242 22.0818 11.879 22.0487 11.8448C22.0156 11.8105 21.9885 11.7689 21.9885 11.7523C21.9885 11.7357 21.9749 11.722 21.9583 11.722C21.9418 11.722 21.9282 11.7081 21.9282 11.6911C21.9282 11.6615 21.8041 11.4887 21.7249 11.408C21.7042 11.387 21.6873 11.3581 21.6873 11.3438C21.6873 11.3295 21.6398 11.2721 21.5818 11.2163C21.5239 11.1604 21.4764 11.1025 21.4764 11.0876C21.4764 11.0728 21.4086 10.9939 21.3258 10.9125C21.243 10.8309 21.1752 10.7513 21.1752 10.7354C21.1752 10.7195 21.1616 10.7065 21.1451 10.7065C21.1285 10.7065 21.115 10.6936 21.115 10.6779C21.115 10.6297 20.7528 10.3004 20.6988 10.2995C20.6709 10.299 20.5261 10.1865 20.377 10.0494C19.8143 9.5319 18.9541 8.89243 18.4528 8.61897C18.3929 8.58626 18.293 8.53135 18.2309 8.49696C17.4223 8.04949 16.3932 7.62777 15.6179 7.42641C14.2557 7.07251 12.6078 6.92432 11.4613 7.05271ZM13.4493 9.05563C13.9395 9.10162 14.6066 9.22138 15.0457 9.34222C15.4218 9.44573 15.8303 9.5813 15.864 9.6138C15.875 9.62439 15.9017 9.63302 15.9233 9.63302C15.9686 9.63302 16.1905 9.72666 16.5969 9.9175C18.9494 11.0221 20.7798 13.1144 21.4754 15.4939C21.4964 15.5657 21.5241 15.6571 21.537 15.697C21.5949 15.8756 21.7083 16.4353 21.7839 16.9156C21.9475 17.9538 21.774 19.6628 21.3906 20.7892C20.5304 23.3167 18.4639 25.4541 15.9945 26.3708C15.8536 26.4231 15.7149 26.4778 15.6861 26.4926C15.6573 26.5073 15.6073 26.5193 15.5749 26.5193C15.5426 26.5193 15.5077 26.5324 15.4975 26.5483C15.4872 26.5643 15.4466 26.5773 15.4071 26.5773C15.3676 26.5773 15.328 26.5889 15.3189 26.603C15.3098 26.6172 15.265 26.6357 15.2192 26.6442C15.1734 26.6526 15.0818 26.6746 15.0155 26.693C13.717 27.0522 12.1412 27.1177 10.7685 26.8695C10.5493 26.8299 10.1766 26.7458 9.98538 26.693C9.91911 26.6746 9.82747 26.6526 9.78169 26.6442C9.7359 26.6357 9.6911 26.6172 9.68199 26.603C9.67295 26.5889 9.63327 26.5773 9.59381 26.5773C9.55435 26.5773 9.51369 26.5643 9.50345 26.5483C9.49321 26.5324 9.45397 26.5193 9.41632 26.5193C9.37867 26.5193 9.33884 26.5107 9.32784 26.5001C9.31685 26.4895 9.24343 26.4586 9.16466 26.4314C7.32768 25.7979 5.40839 24.2245 4.42299 22.5444C4.22186 22.2013 4.09174 21.9554 3.97811 21.7029C3.90989 21.5514 3.84212 21.4012 3.82758 21.3693C3.57525 20.815 3.34874 19.9745 3.21764 19.1062C3.16425 18.7525 3.16433 17.2544 3.21771 16.9011C3.2766 16.5116 3.41199 15.8461 3.46275 15.697C3.4763 15.6571 3.50454 15.5657 3.52555 15.4939C4.73339 11.3615 8.93989 8.63253 13.4493 9.05563Z" fill="#F3C31C"/>
<path fill-rule="evenodd" clip-rule="evenodd" d="M0.655124 0.0290944C0.609567 0.0422959 0.572292 0.0457051 0.572292 0.0366381C0.572292 0.0276437 0.546991 0.0483164 0.516042 0.0826983C0.485093 0.117008 0.445786 0.145151 0.428692 0.145151C0.389761 0.145151 0.180724 0.344334 0.180724 0.3814C0.180724 0.396415 0.153615 0.436745 0.120482 0.470982C0.0873497 0.505219 0.0602412 0.563465 0.0602412 0.600313C0.0602412 0.637233 0.0466871 0.667408 0.0301208 0.667408C0.0118978 0.667408 0 0.792532 0 0.984824C0 1.16522 0.0130273 1.31007 0.0301208 1.32023C0.0466871 1.33009 0.0602412 1.37731 0.0602412 1.42519C0.0602412 1.47582 0.0728167 1.50476 0.090362 1.49431C0.107531 1.48409 0.120482 1.50911 0.120482 1.55234C0.120482 1.59557 0.133434 1.6206 0.150603 1.61037C0.167697 1.60022 0.180724 1.62459 0.180724 1.66666C0.180724 1.7075 0.194278 1.74094 0.210844 1.74094C0.227411 1.74094 0.240965 1.76052 0.240965 1.78446C0.240965 1.80839 0.254519 1.82798 0.271086 1.82798C0.287652 1.82798 0.301206 1.85409 0.301206 1.88601C0.301206 1.91792 0.314761 1.94404 0.331327 1.94404C0.347894 1.94404 0.361448 1.97588 0.361448 2.01483C0.361448 2.05378 0.375002 2.09375 0.391568 2.10361C0.408135 2.11348 0.421689 2.14692 0.421689 2.17789C0.421689 2.20886 0.435243 2.23418 0.45181 2.23418C0.468376 2.23418 0.48193 2.26029 0.48193 2.29221C0.48193 2.32412 0.495485 2.35024 0.512051 2.35024C0.528617 2.35024 0.542172 2.3675 0.542172 2.38861C0.542172 2.40964 0.568 2.47812 0.599627 2.54071C0.631253 2.60331 0.650757 2.66439 0.643076 2.6765C0.63532 2.68854 0.640365 2.69841 0.654296 2.69841C0.668226 2.69841 0.697669 2.75716 0.719657 2.82897C0.741645 2.90078 0.768302 2.95961 0.77892 2.95975C0.803393 2.96004 0.873498 3.10395 0.873498 3.15393C0.873498 3.17468 0.887053 3.19165 0.903619 3.19165C0.920186 3.19165 0.93374 3.21776 0.93374 3.24968C0.93374 3.28159 0.947294 3.30771 0.96386 3.30771C0.980427 3.30771 0.9924 3.3175 0.990442 3.32947C0.97862 3.40135 0.998499 3.48252 1.0241 3.46728C1.04112 3.4572 1.05422 3.4807 1.05422 3.52118C1.05422 3.56071 1.06439 3.59734 1.07681 3.60271C1.10934 3.61664 1.23495 3.85695 1.23495 3.90526C1.23495 3.92767 1.2485 3.94602 1.26507 3.94602C1.28163 3.94602 1.29519 3.97866 1.29519 4.01856C1.29519 4.05845 1.30535 4.09116 1.31778 4.09131C1.34481 4.0916 1.41567 4.2321 1.41567 4.28549C1.41567 4.30623 1.42922 4.32321 1.44579 4.32321C1.46236 4.32321 1.47591 4.34932 1.47591 4.38123C1.47591 4.41315 1.48947 4.43926 1.50603 4.43926C1.5226 4.43926 1.53615 4.46538 1.53615 4.49729C1.53615 4.52921 1.54971 4.55532 1.56627 4.55532C1.58284 4.55532 1.59639 4.58716 1.59639 4.62611C1.59639 4.66507 1.60995 4.70503 1.62651 4.7149C1.64308 4.72476 1.65664 4.75893 1.65664 4.79084C1.65664 4.82276 1.67019 4.84082 1.68676 4.83096C1.70332 4.82109 1.71688 4.83212 1.71688 4.85555C1.71688 4.8789 1.74286 4.94817 1.77463 5.00954C1.82403 5.10499 1.86417 5.19559 1.88194 5.25166C1.8909 5.2801 1.99632 5.49966 2.03864 5.57807C2.06236 5.62196 2.07079 5.65808 2.05747 5.6583C2.04406 5.65851 2.0467 5.66831 2.06326 5.68006C2.10754 5.71139 2.16869 5.82448 2.16869 5.87511C2.16869 5.89926 2.18224 5.91899 2.19881 5.91899C2.21537 5.91899 2.22893 5.9451 2.22893 5.97702C2.22893 6.00893 2.24248 6.03505 2.25905 6.03505C2.27561 6.03505 2.28947 6.06442 2.28985 6.10033C2.29022 6.13623 2.31703 6.19825 2.34941 6.23815C2.38179 6.27804 2.4086 6.34086 2.40897 6.37771C2.40935 6.41484 2.42306 6.43668 2.43977 6.42674C2.45687 6.41658 2.46989 6.44096 2.46989 6.48303C2.46989 6.52387 2.48345 6.5573 2.50001 6.5573C2.51658 6.5573 2.53013 6.57689 2.53013 6.60083C2.53013 6.62476 2.54369 6.64435 2.56025 6.64435C2.57682 6.64435 2.59038 6.67046 2.59038 6.70238C2.59038 6.73429 2.60393 6.7604 2.6205 6.7604C2.63706 6.7604 2.65062 6.79225 2.65062 6.8312C2.65062 6.87015 2.66417 6.91012 2.68074 6.91998C2.6973 6.92985 2.71086 6.96329 2.71086 6.99426C2.71086 7.02523 2.72441 7.05055 2.74098 7.05055C2.75754 7.05055 2.7711 7.07666 2.7711 7.10858C2.7711 7.14049 2.78465 7.1666 2.80122 7.1666C2.81779 7.1666 2.83134 7.19272 2.83134 7.22463C2.83134 7.25655 2.84489 7.28266 2.86146 7.28266C2.87803 7.28266 2.89158 7.29978 2.89158 7.32074C2.89158 7.34171 2.91869 7.41286 2.95182 7.47894C2.98496 7.54495 3.01206 7.61923 3.01206 7.64396C3.01206 7.66862 3.02562 7.68886 3.04218 7.68886C3.05875 7.68886 3.07231 7.7054 3.07231 7.72556C3.07231 7.74573 3.09866 7.80956 3.13082 7.86744C3.16304 7.92533 3.18112 7.9806 3.17103 7.99032C3.16086 8.00004 3.16628 8.00802 3.183 8.00802C3.19972 8.00802 3.23059 8.06351 3.2516 8.13133C3.27261 8.19915 3.30258 8.26233 3.31809 8.27176C3.33368 8.28119 3.34859 8.31709 3.3513 8.35155C3.35401 8.386 3.36689 8.41422 3.37991 8.41422C3.39294 8.41422 3.40363 8.44033 3.40363 8.47225C3.40363 8.50416 3.41719 8.53027 3.43375 8.53027C3.45032 8.53027 3.46387 8.55639 3.46387 8.5883C3.46387 8.62022 3.47404 8.6464 3.48646 8.64655C3.51704 8.64684 3.58436 8.79039 3.58436 8.85523C3.58436 8.88396 3.59452 8.90753 3.60695 8.90768C3.63398 8.90797 3.70484 9.04847 3.70484 9.10186C3.70484 9.1226 3.71839 9.13957 3.73496 9.13957C3.75153 9.13957 3.76508 9.16569 3.76508 9.1976C3.76508 9.22952 3.77863 9.25563 3.7952 9.25563C3.81177 9.25563 3.82532 9.28174 3.82532 9.31366C3.82532 9.34557 3.83888 9.37169 3.85544 9.37169C3.87201 9.37169 3.88556 9.40353 3.88556 9.44248C3.88556 9.48143 3.89912 9.5214 3.91568 9.53127C3.93225 9.54113 3.9458 9.5753 3.9458 9.60721C3.9458 9.63913 3.95936 9.65719 3.97592 9.64732C3.99302 9.63717 4.00604 9.66154 4.00604 9.70361C4.00604 9.74445 4.01621 9.77796 4.02864 9.7781C4.05567 9.77839 4.12653 9.9189 4.12653 9.97228C4.12653 9.99303 4.14008 10.01 4.15665 10.01C4.17321 10.01 4.18677 10.0353 4.18677 10.0663C4.18677 10.0973 4.20032 10.1307 4.21689 10.1406C4.23346 10.1504 4.24701 10.1827 4.24701 10.2122C4.24701 10.2968 4.37457 10.2659 4.49505 10.1522C5.13474 9.54824 5.7038 9.1168 6.49431 8.63654L6.76871 8.46985L6.66502 8.26392C6.60802 8.15069 6.5032 7.93904 6.43211 7.79367C6.36103 7.64824 6.20508 7.33344 6.08542 7.09407C5.96585 6.8547 5.81336 6.54787 5.74657 6.41223C5.6797 6.27659 5.5367 5.98935 5.42864 5.77392C5.32066 5.55849 5.18173 5.27778 5.11998 5.15011C5.01945 4.94222 4.84747 4.59565 4.4431 3.78644C4.37133 3.64282 4.19618 3.29233 4.05394 3.00755C3.91162 2.72278 3.7952 2.48508 3.7952 2.47942C3.7952 2.47369 3.67863 2.23672 3.53624 1.95267C3.39384 1.66869 3.20521 1.29267 3.11719 1.11713C2.79633 0.47722 2.59038 0.050565 2.59038 0.0256127C2.59038 -0.00666568 0.767323 -0.00347411 0.655124 0.0290944ZM5.51208 0.0149499C5.51208 0.0231465 5.52503 0.0525234 5.54092 0.080232C5.58083 0.150011 5.97556 0.94638 6.41449 1.84249C6.48482 1.98611 6.62082 2.26029 6.71668 2.45179C7.2349 3.48752 7.27436 3.56688 7.72497 4.48278C7.88581 4.80963 8.0962 5.23266 8.37444 5.78843C8.47828 5.99588 8.62723 6.29618 8.70532 6.45575C9.25163 7.57135 9.16963 7.47415 9.49162 7.38776C10.0433 7.23979 10.504 7.15485 11.3404 7.04707C11.6975 7.00108 13.3014 7.00137 13.6597 7.04757C14.4154 7.14492 14.4628 7.15217 14.8344 7.22659C14.9338 7.24654 15.1439 7.29448 15.3013 7.33322C15.4587 7.37195 15.6281 7.41344 15.6778 7.42541C15.7781 7.44964 15.8435 7.43752 15.8435 7.3948C15.8435 7.37935 15.9197 7.21397 16.013 7.02726C16.1063 6.84063 16.2401 6.57036 16.3103 6.42674C16.4625 6.11585 16.7798 5.47732 17.0024 5.03406C17.1957 4.64904 17.4288 4.17901 17.6208 3.78644C17.7734 3.47468 18.0042 3.00951 18.2832 2.45179C18.5778 1.86301 18.7984 1.41786 18.9161 1.17516C18.9779 1.0475 19.1319 0.737188 19.2583 0.485561C19.3847 0.233863 19.4881 0.021188 19.4881 0.0129189C19.4881 0.00457734 18.8883 0.00167592 18.1552 0.00646327C16.8145 0.0151676 16.658 0.0273535 16.6569 0.123391C16.6568 0.135359 16.639 0.145151 16.6174 0.145151C16.5673 0.145151 16.3737 0.31989 16.3606 0.376975C16.3551 0.400767 16.3406 0.42688 16.3282 0.435004C16.3159 0.443128 16.273 0.508555 16.2328 0.580365C16.1926 0.652176 16.1529 0.717458 16.1447 0.725437C16.1148 0.754161 16.0201 0.915118 16.0038 0.964804C15.9946 0.992731 15.9751 1.01558 15.9604 1.01558C15.9458 1.01558 15.9338 1.03516 15.9338 1.0591C15.9338 1.08304 15.9203 1.10262 15.9037 1.10262C15.8871 1.10262 15.8736 1.12612 15.8736 1.15485C15.8736 1.18357 15.8613 1.21948 15.8463 1.23464C15.8216 1.25966 15.6415 1.57374 15.5602 1.73346C15.5421 1.76922 15.517 1.7986 15.5046 1.79875C15.4922 1.79889 15.482 1.82588 15.482 1.85873C15.482 1.89159 15.4685 1.91038 15.4519 1.90051C15.4353 1.89065 15.4218 1.90944 15.4218 1.94229C15.4218 1.97515 15.4108 2.00206 15.3973 2.00206C15.3838 2.00206 15.3544 2.04718 15.3319 2.10231C15.3095 2.15744 15.2798 2.19581 15.266 2.18761C15.2523 2.17941 15.241 2.19958 15.241 2.23244C15.241 2.2653 15.2275 2.29221 15.2109 2.29221C15.1944 2.29221 15.1808 2.31832 15.1808 2.35024C15.1808 2.38215 15.1672 2.40826 15.1507 2.40826C15.1341 2.40826 15.1206 2.42538 15.1206 2.44635C15.1206 2.46724 15.0935 2.51243 15.0603 2.54666C15.0272 2.5809 15.0001 2.62906 15.0001 2.65365C15.0001 2.67824 14.9865 2.69841 14.97 2.69841C14.9534 2.69841 14.9398 2.72343 14.9398 2.75404C14.9398 2.78458 14.9297 2.81396 14.9172 2.81932C14.8885 2.83166 14.6989 3.12927 14.6989 3.16213C14.6989 3.17569 14.6887 3.19114 14.6763 3.19651C14.6512 3.20724 14.6023 3.2887 14.453 3.56884C14.3977 3.67256 14.3423 3.76178 14.3299 3.76707C14.3175 3.77244 14.3073 3.80182 14.3073 3.83236C14.3073 3.86297 14.2938 3.88799 14.2772 3.88799C14.2606 3.88799 14.2471 3.90816 14.2471 3.93275C14.2471 3.95734 14.22 4.0055 14.1868 4.03974C14.1537 4.07397 14.1266 4.11916 14.1266 4.14005C14.1266 4.16102 14.1164 4.17821 14.104 4.17821C14.0916 4.17828 14.0479 4.24907 14.0069 4.33554C13.9659 4.42193 13.9218 4.48641 13.909 4.47879C13.8962 4.47111 13.8856 4.4925 13.8856 4.52631C13.8856 4.56011 13.8721 4.57969 13.8555 4.56983C13.8389 4.55996 13.8254 4.57875 13.8254 4.61161C13.8254 4.64447 13.8118 4.67138 13.7953 4.67138C13.7787 4.67138 13.7651 4.69154 13.7651 4.71613C13.7651 4.74072 13.738 4.78888 13.7049 4.82312C13.6718 4.85736 13.6447 4.90255 13.6447 4.92344C13.6447 4.9444 13.6311 4.96152 13.6145 4.96152C13.598 4.96152 13.5844 4.98763 13.5844 5.01955C13.5844 5.05146 13.5709 5.07758 13.5543 5.07758C13.5377 5.07758 13.5242 5.10369 13.5242 5.13561C13.5242 5.16752 13.5106 5.19363 13.494 5.19363C13.4775 5.19363 13.4639 5.21496 13.4639 5.241C13.4639 5.26704 13.4402 5.30947 13.4112 5.3353C13.3822 5.36112 13.3562 5.3955 13.3533 5.41168C13.3504 5.42792 13.2996 5.52382 13.2404 5.62486C13.1811 5.72583 13.1326 5.82034 13.1326 5.8347C13.1326 5.84914 13.119 5.86096 13.1025 5.86096C13.0859 5.86096 13.0724 5.88707 13.0724 5.91899C13.0724 5.95091 13.0605 5.97702 13.0459 5.97702C13.0313 5.97702 13.0026 6.01619 12.982 6.06406C12.9614 6.11194 12.9327 6.1511 12.9181 6.1511C12.9035 6.1511 12.8916 6.17722 12.8916 6.20913C12.8916 6.24105 12.8781 6.26716 12.8615 6.26716C12.8449 6.26716 12.8314 6.29327 12.8314 6.32519C12.8314 6.35711 12.8178 6.38322 12.8013 6.38322C12.7847 6.38322 12.7712 6.40643 12.7712 6.43486C12.7712 6.46323 12.744 6.5053 12.7109 6.52829C12.6778 6.55128 12.6507 6.59335 12.6507 6.62172C12.6507 6.65015 12.6371 6.67336 12.6205 6.67336C12.604 6.67336 12.5904 6.69295 12.5904 6.71688C12.5904 6.74082 12.5769 6.7604 12.5603 6.7604C12.5437 6.7604 12.5302 6.78652 12.5302 6.81843C12.5302 6.85035 12.5166 6.87646 12.5001 6.87646C12.4835 6.87646 12.4699 6.84955 12.4699 6.81669C12.4699 6.78383 12.4564 6.76505 12.4398 6.77491C12.4233 6.78478 12.4097 6.76599 12.4097 6.73313C12.4097 6.70027 12.3986 6.67336 12.3849 6.67336C12.3714 6.67336 12.3296 6.60808 12.2922 6.52829C12.2547 6.4485 12.2116 6.38322 12.1964 6.38322C12.1812 6.38322 12.1687 6.35711 12.1687 6.32519C12.1687 6.29327 12.1577 6.26716 12.1443 6.26716C12.1308 6.26716 12.1013 6.22204 12.0789 6.16692C12.0565 6.11179 12.0268 6.07342 12.013 6.08162C11.9993 6.08981 11.988 6.06965 11.988 6.03679C11.988 6.00393 11.9745 5.97702 11.9579 5.97702C11.9413 5.97702 11.9278 5.95091 11.9278 5.91899C11.9278 5.88707 11.9142 5.86096 11.8977 5.86096C11.8811 5.86096 11.8675 5.84094 11.8675 5.81642C11.8675 5.77058 11.7924 5.64401 11.7246 5.57575C11.7035 5.5545 11.694 5.52512 11.7034 5.51047C11.7128 5.49575 11.7062 5.48378 11.6886 5.48378C11.6711 5.48378 11.6567 5.46057 11.6567 5.43213C11.6567 5.40377 11.6303 5.36221 11.598 5.33979C11.5658 5.31745 11.5456 5.28953 11.5531 5.2777C11.5607 5.26595 11.5498 5.23875 11.529 5.21721C11.472 5.15838 11.3791 4.99053 11.4036 4.99053C11.4153 4.99053 11.3958 4.96616 11.3601 4.93635C11.3245 4.90654 11.2952 4.86084 11.2952 4.8348C11.2952 4.80876 11.2817 4.78743 11.2651 4.78743C11.2486 4.78743 11.235 4.76241 11.235 4.7318C11.235 4.70126 11.2225 4.67188 11.2071 4.66652C11.1919 4.66122 11.1749 4.63779 11.1695 4.61451C11.1641 4.59115 11.136 4.54625 11.107 4.5147C11.078 4.48315 11.0543 4.44021 11.0543 4.41932C11.0543 4.39835 11.0441 4.38116 11.0317 4.38102C11.0193 4.38087 10.9942 4.35149 10.976 4.31573C10.887 4.14129 10.7997 4.00405 10.7776 4.00405C10.7641 4.00405 10.7531 3.97794 10.7531 3.94602C10.7531 3.9141 10.7421 3.88799 10.7286 3.88799C10.7151 3.88799 10.6854 3.84229 10.6627 3.78644C10.64 3.73059 10.6095 3.68489 10.5951 3.68489C10.5806 3.68489 10.5762 3.67329 10.5853 3.65914C10.5944 3.645 10.5818 3.61743 10.5573 3.59785C10.5328 3.57826 10.5193 3.55215 10.5272 3.53982C10.5351 3.52749 10.5214 3.50123 10.4967 3.4815C10.472 3.46177 10.4519 3.4324 10.4519 3.41607C10.4519 3.39983 10.3974 3.3035 10.3309 3.20202C10.2644 3.10054 10.219 3.01756 10.2301 3.01756C10.2412 3.01756 10.2245 2.99472 10.1929 2.96679C10.1614 2.93886 10.1312 2.89643 10.1258 2.87249C10.1204 2.84856 10.1034 2.82462 10.0882 2.81932C10.0728 2.81396 10.0603 2.78567 10.0603 2.75644C10.0603 2.7272 10.0478 2.69891 10.0324 2.69355C10.0171 2.68825 10.0002 2.66432 9.99478 2.64038C9.98944 2.61644 9.96127 2.57575 9.93228 2.54993C9.90329 2.5241 9.87957 2.48167 9.87957 2.45563C9.87957 2.42959 9.8694 2.40819 9.85698 2.40805C9.82949 2.40776 9.75909 2.26689 9.75909 2.2122C9.75909 2.19051 9.74553 2.18079 9.72897 2.19066C9.7124 2.20052 9.69885 2.18826 9.69885 2.16338C9.69885 2.1385 9.68861 2.11812 9.67611 2.11812C9.66353 2.11812 9.63424 2.07569 9.61089 2.02383C9.58763 1.97196 9.53296 1.8773 9.48951 1.81347C9.44606 1.74964 9.37076 1.61908 9.32219 1.52333C9.27362 1.42758 9.22332 1.34489 9.21037 1.3396C9.19741 1.33423 9.1868 1.31044 9.1868 1.28672C9.1868 1.263 9.16631 1.22383 9.14131 1.19975C9.11631 1.17567 9.10359 1.14397 9.113 1.12932C9.12241 1.11459 9.11579 1.10262 9.09824 1.10262C9.0807 1.10262 9.06631 1.08507 9.06631 1.0636C9.06631 1.04213 9.0392 1.00093 9.00607 0.972058C8.97294 0.943189 8.94583 0.89546 8.94583 0.866011C8.94583 0.836561 8.93559 0.81248 8.92309 0.81248C8.91051 0.81248 8.88077 0.770046 8.85697 0.718183C8.8331 0.66632 8.7892 0.598572 8.75923 0.567672C8.72934 0.536699 8.70487 0.499851 8.70487 0.485779C8.70487 0.471707 8.68438 0.440444 8.65938 0.416362C8.63438 0.39228 8.62301 0.357318 8.63408 0.338677C8.64523 0.319962 8.64462 0.312999 8.63288 0.323154C8.60464 0.347381 8.44191 0.196434 8.45953 0.162415C8.46706 0.14798 8.45931 0.144426 8.44236 0.154581C8.42542 0.164664 8.37414 0.142032 8.32851 0.104241C8.28288 0.0664503 8.19635 0.0276437 8.13634 0.0181415C8.00351 -0.0030389 5.51208 -0.00601286 5.51208 0.0149499ZM22.4098 0.0262655C22.4098 0.0504924 22.2244 0.433408 21.8678 1.14614C21.7879 1.30572 21.6061 1.66869 21.4637 1.95267C21.3214 2.23672 21.2049 2.47355 21.2049 2.47906C21.2049 2.48457 21.0753 2.74838 20.9168 3.06522C20.7582 3.38213 20.5829 3.73277 20.5273 3.84447C20.4716 3.95618 20.3032 4.29347 20.1529 4.59398C20.0026 4.89457 19.8796 5.14496 19.8796 5.15055C19.8796 5.15932 19.7485 5.42314 19.2166 6.48477C18.789 7.33815 18.5242 7.87201 18.5242 7.88028C18.5242 7.88565 18.458 8.02078 18.3772 8.18073L18.2301 8.47145L18.5052 8.63756C18.858 8.85059 19.1084 9.01699 19.4278 9.25055C19.8362 9.54918 19.9761 9.66596 20.5071 10.1517C20.6484 10.2811 20.7531 10.3079 20.7531 10.2148C20.7531 10.1839 20.7667 10.1504 20.7832 10.1406C20.7998 10.1307 20.8134 10.0973 20.8134 10.0663C20.8134 10.0353 20.8269 10.01 20.8435 10.01C20.86 10.01 20.8736 9.98389 20.8736 9.95197C20.8736 9.92006 20.8872 9.89394 20.9037 9.89394C20.9203 9.89394 20.9338 9.86783 20.9338 9.83592C20.9338 9.804 20.9474 9.77789 20.964 9.77789C20.9805 9.77789 20.9941 9.75257 20.9941 9.7216C20.9941 9.69063 21.0076 9.65719 21.0242 9.64732C21.0408 9.63746 21.0543 9.60329 21.0543 9.57138C21.0543 9.53946 21.065 9.51966 21.078 9.52749C21.0911 9.53526 21.1048 9.5066 21.1085 9.46388C21.1121 9.42116 21.1285 9.38184 21.1449 9.37655C21.1614 9.37118 21.1748 9.3418 21.1748 9.31127C21.1748 9.28066 21.1884 9.25563 21.2049 9.25563C21.2215 9.25563 21.2351 9.22952 21.2351 9.1976C21.2351 9.16569 21.2486 9.13957 21.2652 9.13957C21.2817 9.13957 21.2953 9.11346 21.2953 9.08154C21.2953 9.04963 21.3073 9.02352 21.3221 9.02352C21.3369 9.02352 21.3669 8.96476 21.3889 8.89295C21.4109 8.82114 21.4395 8.76239 21.4524 8.76239C21.4654 8.76239 21.476 8.73628 21.476 8.70436C21.476 8.67244 21.4896 8.64633 21.5061 8.64633C21.5227 8.64633 21.5363 8.62936 21.5363 8.60861C21.5363 8.55523 21.6071 8.41473 21.6341 8.41443C21.6466 8.41429 21.6567 8.38078 21.6567 8.33994C21.6567 8.2991 21.668 8.27241 21.6818 8.28068C21.6957 8.28888 21.707 8.27807 21.707 8.2566C21.707 8.23513 21.7287 8.17347 21.7552 8.11958C21.8329 7.96181 21.8777 7.85004 21.8725 7.82668C21.8698 7.81471 21.8811 7.80492 21.8977 7.80492C21.9143 7.80492 21.9278 7.77881 21.9278 7.74689C21.9278 7.71497 21.9414 7.68886 21.9579 7.68886C21.9745 7.68886 21.9881 7.65542 21.9881 7.61458C21.9881 7.57375 21.9994 7.54705 22.0131 7.55525C22.0269 7.56345 22.0564 7.50549 22.0788 7.42643C22.1012 7.34736 22.1305 7.28266 22.1441 7.28266C22.1577 7.28266 22.1688 7.25655 22.1688 7.22463C22.1688 7.19272 22.1823 7.1666 22.1989 7.1666C22.2155 7.1666 22.229 7.14049 22.229 7.10858C22.229 7.07666 22.2426 7.05055 22.2592 7.05055C22.2757 7.05055 22.2893 7.02443 22.2893 6.99252C22.2893 6.9606 22.3028 6.93449 22.3194 6.93449C22.336 6.93449 22.3495 6.91527 22.3495 6.89184C22.3495 6.86841 22.3766 6.80269 22.4098 6.7459C22.4429 6.6891 22.47 6.62338 22.47 6.59996C22.47 6.57653 22.4836 6.5573 22.5001 6.5573C22.5167 6.5573 22.5302 6.53119 22.5302 6.49928C22.5302 6.46736 22.5438 6.44125 22.5604 6.44125C22.5769 6.44125 22.5905 6.41513 22.5905 6.38322C22.5905 6.3513 22.604 6.32519 22.6206 6.32519C22.6372 6.32519 22.651 6.29581 22.6514 6.25991C22.6518 6.224 22.6786 6.16198 22.711 6.12209C22.7433 6.0822 22.7701 6.02018 22.7705 5.98427C22.7709 5.94837 22.7848 5.91899 22.8013 5.91899C22.8179 5.91899 22.8314 5.89288 22.8314 5.86096C22.8314 5.82905 22.845 5.80293 22.8616 5.80293C22.8781 5.80293 22.8917 5.7832 22.8917 5.75905C22.8917 5.70842 22.9528 5.59534 22.9971 5.564C23.0137 5.55225 23.0173 5.54246 23.0051 5.54224C22.993 5.54202 23.011 5.49001 23.0453 5.42669C23.0796 5.36344 23.1106 5.29199 23.1142 5.26798C23.1179 5.24397 23.1303 5.21525 23.1418 5.20415C23.1534 5.19305 23.1628 5.16005 23.1628 5.13075C23.1628 5.10151 23.1763 5.07758 23.1929 5.07758C23.2095 5.07758 23.223 5.05146 23.223 5.01955C23.223 4.98763 23.2366 4.96152 23.2531 4.96152C23.2697 4.96152 23.2833 4.9362 23.2833 4.90523C23.2833 4.87426 23.2968 4.84082 23.3134 4.83096C23.3299 4.82109 23.3435 4.78693 23.3435 4.75501C23.3435 4.72309 23.3542 4.70329 23.3672 4.71113C23.3802 4.71889 23.3939 4.69024 23.3976 4.64751C23.4013 4.60479 23.4177 4.56547 23.4341 4.56018C23.4506 4.55481 23.464 4.52543 23.464 4.4949C23.464 4.46429 23.4775 4.43926 23.4941 4.43926C23.5107 4.43926 23.5242 4.41315 23.5242 4.38123C23.5242 4.34932 23.5378 4.32321 23.5543 4.32321C23.5709 4.32321 23.5845 4.29709 23.5845 4.26518C23.5845 4.23326 23.5965 4.20715 23.6113 4.20715C23.626 4.20715 23.6558 4.14927 23.6775 4.07847C23.6992 4.00768 23.7278 3.95618 23.7411 3.96408C23.7543 3.97199 23.7652 3.94508 23.7652 3.90424C23.7652 3.8634 23.7787 3.82996 23.7953 3.82996C23.8119 3.82996 23.8254 3.80385 23.8254 3.77193C23.8254 3.74002 23.839 3.71391 23.8555 3.71391C23.8721 3.71391 23.8857 3.69693 23.8857 3.67619C23.8857 3.6228 23.9565 3.4823 23.9836 3.48201C23.996 3.48186 24.0061 3.46467 24.0061 3.44371C24.0061 3.42275 24.0333 3.35159 24.0664 3.28551C24.0995 3.2195 24.1266 3.14631 24.1266 3.12296C24.1266 3.09953 24.1368 3.0761 24.1492 3.07073C24.1677 3.06283 24.2778 2.86604 24.2924 2.81446C24.2947 2.80648 24.314 2.76079 24.3353 2.71291C24.3565 2.66504 24.3928 2.583 24.4159 2.53056C24.4391 2.47819 24.458 2.41617 24.458 2.39274C24.458 2.36939 24.4715 2.35024 24.4881 2.35024C24.5046 2.35024 24.5182 2.32412 24.5182 2.29221C24.5182 2.26029 24.5318 2.23418 24.5483 2.23418C24.5649 2.23418 24.5784 2.20807 24.5784 2.17615C24.5784 2.14423 24.592 2.11812 24.6086 2.11812C24.6251 2.11812 24.6387 2.0989 24.6387 2.07547C24.6387 2.05204 24.6658 1.98632 24.6989 1.92953C24.7321 1.87273 24.7592 1.80702 24.7592 1.78359C24.7592 1.76016 24.7727 1.74094 24.7893 1.74094C24.8059 1.74094 24.8194 1.72396 24.8194 1.70322C24.8194 1.64983 24.8903 1.50933 24.9173 1.50904C24.9297 1.50889 24.9399 1.46965 24.9399 1.42178C24.9399 1.37391 24.9534 1.33474 24.97 1.33474C25.0083 1.33474 25.0107 0.689604 24.9725 0.65145C24.9574 0.63629 24.9404 0.597774 24.9348 0.565858C24.9293 0.533943 24.9011 0.486722 24.8721 0.460899C24.8431 0.435077 24.8194 0.398736 24.8194 0.380167C24.8194 0.337661 24.6218 0.145151 24.5782 0.145151C24.5604 0.145151 24.5184 0.120489 24.4848 0.0903145C24.4512 0.0602122 24.3823 0.0275712 24.3316 0.0177788C24.1837 -0.0106551 22.4098 -0.00289383 22.4098 0.0262655ZM9.80841 23.5452C9.79892 23.5691 9.77211 23.5887 9.749 23.5887C9.71285 23.5887 9.60751 23.6246 9.32234 23.7341C9.28921 23.7468 9.15366 23.7965 9.02113 23.8444C7.84552 24.2698 7.33739 24.4911 7.12692 24.6695C7.09394 24.6974 7.05132 24.7202 7.03219 24.7202C7.01299 24.7202 6.97278 24.7463 6.94281 24.7783C6.91284 24.8102 6.87609 24.8363 6.86118 24.8363C6.78603 24.8363 6.6413 25.0123 6.69281 25.0411C6.72097 25.0568 6.76201 25.0857 6.78392 25.1053C6.86231 25.1753 7.07519 25.3295 7.09341 25.3295C7.10365 25.3295 7.16201 25.368 7.22316 25.415C7.47647 25.6096 8.3447 26.0709 8.82535 26.2663C8.88333 26.2898 8.97821 26.3287 9.03619 26.3527C9.09417 26.3767 9.18905 26.4121 9.24704 26.4316C9.30502 26.451 9.37957 26.4772 9.4127 26.4897C9.44583 26.5022 9.53394 26.5294 9.60849 26.55C9.68303 26.5707 9.75758 26.5967 9.77415 26.6078C9.79071 26.6189 9.84493 26.635 9.89463 26.6437C9.94433 26.6523 10.0392 26.6744 10.1055 26.6928C11.5147 27.0826 13.4978 27.0825 14.8947 26.6924C14.9609 26.6739 15.0593 26.652 15.1133 26.6438C15.1673 26.6355 15.2189 26.6171 15.228 26.603C15.2371 26.5888 15.2769 26.5771 15.3163 26.5771C15.3558 26.5771 15.3965 26.5641 15.4067 26.5481C15.4169 26.5322 15.4557 26.5191 15.4929 26.5191C15.53 26.5191 15.5732 26.5087 15.5889 26.4961C15.6047 26.4834 15.6718 26.4564 15.738 26.4361C15.8043 26.4158 15.889 26.387 15.9263 26.3722C15.9636 26.3572 16.0246 26.3334 16.0618 26.3191C16.8776 26.0075 18.6208 24.9528 18.3209 24.9523C18.3085 24.9523 18.2589 24.9196 18.2108 24.8798C18.1627 24.8399 18.114 24.8073 18.1025 24.8073C18.0911 24.8073 18.0423 24.7746 17.9942 24.7347C17.9461 24.6949 17.8956 24.6623 17.882 24.6622C17.8685 24.6622 17.8007 24.6248 17.7314 24.5791C17.4767 24.4109 16.8395 24.1446 15.9037 23.8154C15.7442 23.7593 15.6811 23.7358 15.5347 23.678C15.4974 23.6632 15.4026 23.6289 15.3239 23.6015C15.2452 23.5742 15.1808 23.5405 15.1808 23.5267C15.1808 23.4379 15.0332 23.5151 14.9384 23.6535C14.691 24.0148 14.1114 24.2851 13.2079 24.4606C12.9437 24.5119 12.0252 24.5023 11.7621 24.4455C11.6461 24.4204 11.5106 24.3923 11.4609 24.383C10.9008 24.2782 10.1857 23.8841 10.0478 23.6043C9.99298 23.4929 9.84388 23.4562 9.80841 23.5452Z" fill="#EF5164"/>
<path fill-rule="evenodd" clip-rule="evenodd" d="M2.62085 0.0168283C2.62085 0.0260403 2.70059 0.19251 2.79811 0.386761C3.05429 0.896977 3.3015 1.39377 3.46476 1.72635C3.67696 2.15888 3.90158 2.61259 4.09661 3.00298C4.55332 3.91715 4.65723 4.12612 4.78924 4.39567C4.97184 4.76872 5.1991 5.22649 5.43743 5.70131C5.61673 6.05847 5.72034 6.26745 6.10634 7.05047C6.31063 7.46487 6.50747 7.86266 6.66214 8.17405C6.808 8.46753 6.80973 8.46855 6.983 8.36518C7.30228 8.17478 8.24257 7.76539 8.64499 7.64164C8.71953 7.61865 8.8041 7.58724 8.83286 7.57179C8.86163 7.55634 8.90636 7.54372 8.93219 7.54372C8.95809 7.54372 9.01863 7.52413 9.06667 7.50019L9.1541 7.45667L9.00884 7.15928C8.73565 6.6001 8.39852 5.92037 8.02676 5.17905C7.91471 4.95564 7.77239 4.6684 7.71049 4.54074C7.54121 4.19133 7.17555 3.45422 6.74618 2.59678C6.64226 2.38933 6.49354 2.08903 6.4156 1.92945C6.33767 1.76987 6.19587 1.48263 6.10047 1.29114C5.83698 0.761988 5.61989 0.321406 5.53962 0.152833L5.46725 0.0010155L4.04405 0.00050775C3.26129 0.000217607 2.62085 0.00754372 2.62085 0.0168283ZM19.5186 0.0313354C19.5186 0.0485264 19.4388 0.221524 19.3413 0.415775C19.0185 1.05873 18.7892 1.51962 18.6458 1.81339C18.5069 2.09795 18.3008 2.51271 18.0115 3.09002C17.727 3.6574 17.4608 4.19568 17.3584 4.41017C17.3012 4.52986 17.1659 4.80404 17.0576 5.01947C16.7029 5.72517 16.5142 6.10316 16.3769 6.38314C16.3025 6.53474 16.1531 6.83809 16.0447 7.05729L15.8478 7.4558L15.9438 7.49526C15.9965 7.51702 16.0938 7.55075 16.1601 7.57019C16.2264 7.58963 16.3077 7.61654 16.3408 7.62996C16.374 7.64338 16.5502 7.70968 16.7324 7.77735C17.0734 7.90393 17.7652 8.21779 18.0222 8.36235C18.1936 8.45883 18.198 8.45716 18.2933 8.26124C18.3339 8.17782 18.4318 7.97893 18.5108 7.81935C18.5898 7.65977 18.725 7.38559 18.8113 7.21005C19.0252 6.77513 19.2768 6.26897 19.5034 5.81737C19.6076 5.60991 19.7503 5.32267 19.8207 5.17905C19.891 5.03543 20.0125 4.78736 20.0905 4.62778C20.2221 4.35911 20.3069 4.1893 20.8292 3.14805C21.0196 2.76854 21.2127 2.37874 21.4759 1.84241C21.6388 1.51041 21.8737 1.03864 22.1726 0.44254C22.2867 0.215141 22.38 0.0225586 22.38 0.0145797C22.38 0.00652822 21.7362 0 20.9493 0C19.9456 0 19.5186 0.00935711 19.5186 0.0313354ZM12.1239 9.01315C8.09061 9.19035 4.59865 11.8222 3.52552 15.4936C3.50451 15.5654 3.47628 15.6568 3.46272 15.6967C3.41197 15.8458 3.27658 16.5114 3.21769 16.9008C3.1643 17.2541 3.16423 18.7522 3.21762 19.1059C3.34872 19.9742 3.57522 20.8148 3.82756 21.369C3.84209 21.4009 3.90986 21.5511 3.97809 21.7026C4.09172 21.9551 4.22184 22.2011 4.42297 22.5441C4.85001 23.2721 5.67953 24.2373 6.34851 24.7845L6.59731 24.988L6.75514 24.8717C7.03511 24.6656 7.33248 24.4946 7.72962 24.3114C8.14031 24.1219 8.13783 24.1229 8.41908 24.0238C8.51848 23.9888 8.62691 23.9496 8.66005 23.9368C8.69318 23.924 8.80161 23.8848 8.90101 23.8497C9.00041 23.8147 9.10884 23.7755 9.14198 23.7627C9.17511 23.7499 9.28354 23.7107 9.38294 23.6757C9.48234 23.6406 9.59077 23.6012 9.62391 23.5879C9.65704 23.5747 9.70448 23.5574 9.72933 23.5495C9.75418 23.5416 9.44243 23.5341 9.03655 23.5329C7.49377 23.5281 6.77088 23.1134 6.35099 21.9923L6.28051 21.8042L6.27095 19.1639C6.26425 17.3062 6.27163 16.4462 6.29587 16.2625C6.3534 15.8251 6.51809 15.1647 6.63217 14.9133C6.65024 14.8735 6.67547 14.8147 6.68812 14.7828C7.22261 13.4354 8.34611 12.2689 9.74439 11.6095C10.3864 11.3067 10.8082 11.175 11.5366 11.0498C11.9365 10.981 13.1909 10.9979 13.63 11.078C15.7682 11.4681 17.5401 12.829 18.3213 14.6812C18.3381 14.7211 18.363 14.7799 18.3764 14.8118C18.4782 15.052 18.6068 15.5281 18.6743 15.9143C18.7554 16.3784 18.7691 21.5177 18.6902 21.8403C18.5383 22.461 18.0659 23.0316 17.4816 23.3002C17.0505 23.4984 16.8436 23.5303 15.9794 23.532L15.2565 23.5334L15.4523 23.6072C15.5599 23.6478 15.6752 23.6915 15.7083 23.7045C15.7414 23.7174 15.8499 23.7567 15.9492 23.7917C16.0486 23.8268 16.1571 23.8659 16.1902 23.8788C16.2233 23.8917 16.3657 23.9439 16.5065 23.9948C16.9359 24.15 17.0349 24.1912 17.395 24.3641C17.6297 24.4767 18.2399 24.8384 18.2836 24.8907C18.3903 25.0185 18.4559 24.9805 19.0024 24.4746C20.5018 23.0866 21.4383 21.2994 21.7698 19.193C21.8342 18.7844 21.8433 17.2925 21.7839 16.9153C21.7082 16.435 21.5948 15.8753 21.537 15.6967C21.5241 15.6568 21.4963 15.5654 21.4753 15.4936C20.7798 13.1141 18.9494 11.0219 16.5968 9.91723C16.1904 9.72639 15.9686 9.63275 15.9233 9.63275C15.9017 9.63275 15.875 9.62411 15.864 9.61352C15.8303 9.58103 15.4218 9.44546 15.0456 9.34195C14.1974 9.10846 13.0057 8.97441 12.1239 9.01315ZM10.3932 14.2025C10.3832 14.6138 9.9221 15.2026 9.45131 15.4052L9.21848 15.5055L9.21035 16.0694C9.20124 16.7024 9.22134 16.6535 8.94619 16.7128C7.99611 16.9179 7.66403 17.9729 8.34348 18.6275C8.55824 18.8343 8.86856 18.9753 9.10877 18.9753C9.15892 18.9753 9.19514 18.9944 9.20538 19.0261C9.21434 19.054 9.23422 19.0996 9.24958 19.1273C9.26494 19.155 9.27752 19.2032 9.27752 19.2344C9.27752 19.2656 9.29107 19.2991 9.30764 19.309C9.32421 19.3189 9.33776 19.358 9.33776 19.3961C9.33776 19.4341 9.35131 19.4732 9.36788 19.4831C9.38445 19.493 9.398 19.5321 9.398 19.5701C9.398 19.6081 9.41156 19.6473 9.42812 19.6572C9.44469 19.667 9.45824 19.7062 9.45824 19.7442C9.45824 19.7822 9.4718 19.8214 9.48836 19.8313C9.50493 19.8411 9.51848 19.8803 9.51848 19.9183C9.51848 19.9563 9.53204 19.9955 9.54861 20.0054C9.56517 20.0152 9.57873 20.0488 9.57873 20.08C9.57873 20.1112 9.59115 20.1593 9.60629 20.1871C9.6215 20.2148 9.67609 20.3417 9.7276 20.4691C9.90802 20.9152 10.2807 21.3888 10.6654 21.6608C10.8147 21.7664 10.8813 21.9781 10.7836 22.0364C10.767 22.0462 10.7534 22.0984 10.7534 22.1524C10.7534 22.2064 10.7399 22.2586 10.7233 22.2685C10.7067 22.2783 10.6932 22.324 10.6932 22.37C10.6932 22.416 10.6796 22.4617 10.6631 22.4716C10.6465 22.4814 10.6329 22.5215 10.6329 22.5607C10.6329 22.5999 10.621 22.6546 10.6064 22.6823C10.5917 22.71 10.5664 22.7653 10.55 22.8052C10.4581 23.0302 10.33 23.2323 10.2038 23.3517C10.0348 23.5116 10.0345 23.5138 10.1521 23.668C10.6912 24.374 12.5849 24.6666 13.8709 24.2426C14.7706 23.9459 15.0845 23.633 14.7841 23.3321C14.6388 23.1866 14.5501 23.0463 14.451 22.8052C14.4346 22.7653 14.4092 22.71 14.3945 22.6823C14.3799 22.6546 14.3679 22.6064 14.3679 22.5752C14.3679 22.544 14.3544 22.5105 14.3378 22.5006C14.3212 22.4907 14.3077 22.4385 14.3077 22.3845C14.3077 22.3306 14.2941 22.2783 14.2776 22.2685C14.261 22.2586 14.2474 22.2064 14.2474 22.1524C14.2474 22.0984 14.2339 22.0462 14.2173 22.0364C14.1364 21.9882 14.1855 21.7979 14.3001 21.7149C14.7537 21.3871 15.3619 20.5912 15.3619 20.3255C15.3619 20.3029 15.3754 20.2763 15.392 20.2665C15.4086 20.2566 15.4221 20.2174 15.4221 20.1794C15.4221 20.1414 15.4357 20.1023 15.4523 20.0924C15.4688 20.0825 15.4824 20.0434 15.4824 20.0054C15.4824 19.9673 15.4959 19.9282 15.5125 19.9183C15.5291 19.9084 15.5426 19.8693 15.5426 19.8313C15.5426 19.7933 15.5562 19.7541 15.5727 19.7442C15.5893 19.7344 15.6029 19.6952 15.6029 19.6572C15.6029 19.6192 15.6164 19.58 15.633 19.5701C15.6495 19.5603 15.6631 19.5211 15.6631 19.4831C15.6631 19.4451 15.6767 19.4059 15.6932 19.3961C15.7098 19.3862 15.7233 19.347 15.7233 19.309C15.7233 19.271 15.7369 19.2318 15.7535 19.222C15.77 19.2121 15.784 19.1754 15.7846 19.1404C15.786 19.0445 15.8478 18.9851 15.9646 18.9675C16.3886 18.9038 16.7745 18.6526 16.9108 18.3515C16.9397 18.2877 16.9775 18.2102 16.9947 18.1793C17.0355 18.1063 17.0355 17.5523 16.9947 17.4793C16.9775 17.4484 16.9406 17.3727 16.9127 17.3113C16.7729 17.0023 16.3865 16.7475 15.967 16.6876C15.8538 16.6715 15.8249 16.6527 15.7712 16.5607C15.4787 16.0586 15.0032 15.6433 14.6089 15.5455C14.5509 15.5311 14.2527 15.5075 13.9462 15.493C13.3042 15.4626 12.9935 15.4257 12.4854 15.3194C12.4025 15.3021 12.2973 15.2804 12.2516 15.2714C12.2058 15.2622 12.161 15.2433 12.1519 15.2292C12.1428 15.215 12.105 15.2035 12.0679 15.2035C12.0308 15.2035 11.9876 15.1931 11.9718 15.1804C11.9561 15.1677 11.889 15.1399 11.8227 15.1188C11.3289 14.9608 10.7355 14.5613 10.4614 14.2021L10.3953 14.1155L10.3932 14.2025Z" fill="#FBDEAE"/>
<path fill-rule="evenodd" clip-rule="evenodd" d="M11.8827 11.0433C11.6762 11.0586 11.1178 11.1537 10.964 11.1997C10.9226 11.2121 10.8277 11.2387 10.7532 11.2588C8.54411 11.8547 6.7124 13.82 6.37301 15.9583C6.25562 16.6983 6.2069 21.0601 6.30946 21.6451C6.4392 22.3848 6.85969 22.9479 7.51248 23.2563C7.97107 23.473 8.02837 23.4818 9.0597 23.495L9.97168 23.5066L10.1389 23.352C10.3941 23.1161 10.5644 22.732 10.7529 21.9663C10.7904 21.8138 10.7894 21.8071 10.7196 21.7537C10.2815 21.4178 9.98727 21.084 9.79284 20.7022C9.64984 20.4213 9.67996 20.4986 9.3969 19.6877L9.16429 19.0215L8.96904 18.9867C7.57046 18.7381 7.65148 16.791 9.0664 16.6478L9.1417 16.6402L9.14984 16.0663L9.15804 15.4926L9.27032 15.4457C9.57416 15.3191 9.66791 15.2624 9.85752 15.0906C10.0999 14.871 10.2525 14.6246 10.3192 14.3451C10.3986 14.0124 10.3962 14.0145 10.5092 14.184C10.783 14.5949 11.4756 15.013 12.199 15.204C12.2735 15.2236 12.3684 15.2499 12.4098 15.2623C12.7449 15.3625 13.6057 15.4651 14.1129 15.4651C14.8338 15.4651 15.404 15.8323 15.8195 16.5643C15.8619 16.6389 15.8893 16.6547 15.9765 16.6547C16.4047 16.6547 16.8966 17.0532 17.0351 17.5124C17.2325 18.1663 16.7411 18.9001 16.0445 18.9914C15.8517 19.0167 15.8816 18.9665 15.6478 19.6577C15.5399 19.9768 15.4382 20.2607 15.4217 20.2884C15.4052 20.3161 15.3917 20.3528 15.3917 20.37C15.3917 20.6111 14.8512 21.3191 14.3729 21.7045L14.2126 21.8337L14.2497 21.9788C14.4578 22.791 14.6118 23.1322 14.8716 23.3561L15.0454 23.5058L15.949 23.4946C17.1295 23.4799 17.4722 23.385 17.9794 22.9327C18.7059 22.2848 18.7336 22.1429 18.7345 19.0606C18.7353 16.1698 18.7171 15.9393 18.417 15.0444C17.7582 13.0803 15.9524 11.5653 13.7652 11.1417C13.6741 11.1241 13.5386 11.0963 13.464 11.0799C13.3268 11.0498 12.1599 11.0228 11.8827 11.0433Z" fill="#845434"/>
<path fill-rule="evenodd" clip-rule="evenodd" d="M2.59144 0.0176326C2.59038 0.0488955 2.76817 0.420496 3.11712 1.1164C3.20514 1.29194 3.39377 1.66797 3.53617 1.95194C3.67856 2.23599 3.79513 2.47297 3.79513 2.4787C3.79513 2.48436 3.91155 2.72206 4.05387 3.00683C4.19611 3.29161 4.37126 3.6421 4.44303 3.78572C4.84739 4.59493 5.01938 4.9415 5.11991 5.14939C5.18166 5.27706 5.32059 5.55777 5.42857 5.7732C5.53663 5.98863 5.67963 6.27587 5.7465 6.41151C5.81329 6.54716 5.9657 6.85398 6.08528 7.09335C6.28573 7.49476 6.48558 7.89879 6.68076 8.29744C6.72376 8.38521 6.75621 8.46681 6.75298 8.47878C6.74432 8.50997 6.80034 8.50569 6.82097 8.47356C6.83046 8.45869 6.82527 8.43874 6.8093 8.42924C6.79334 8.41981 6.727 8.30463 6.66171 8.17341C6.50704 7.86201 6.3102 7.46423 6.10591 7.04983C5.71991 6.26681 5.6163 6.05783 5.43701 5.70066C5.19868 5.22584 4.97142 4.76807 4.78881 4.39502C4.65681 4.12548 4.55289 3.9165 4.09619 3.00233C3.88052 2.57067 3.64618 2.09723 3.47871 1.75472C2.98873 0.752637 2.59279 -0.0225522 2.59144 0.0176326ZM5.48189 0.0200988C5.48189 0.0375799 5.50817 0.102064 5.54032 0.163429C5.57247 0.224795 5.67255 0.425138 5.76276 0.608654C5.8529 0.792169 6.0047 1.099 6.10004 1.29049C6.19544 1.48198 6.33724 1.76923 6.41517 1.9288C6.49311 2.08838 6.64183 2.38868 6.74575 2.59613C7.17512 3.45358 7.54078 4.19069 7.71006 4.54009C7.77196 4.66775 7.91428 4.955 8.02633 5.17841C8.39809 5.91965 8.73521 6.59945 9.00833 7.15849L9.15352 7.45574L9.07226 7.49825C8.97008 7.55163 8.98883 7.55301 9.13778 7.50303C9.20193 7.48156 9.23981 7.45516 9.22181 7.4445C9.19094 7.42607 9.02701 7.11214 8.70525 6.45504C8.62716 6.29546 8.47821 5.99516 8.37437 5.78771C8.09613 5.23194 7.88574 4.80891 7.72489 4.48206C7.27429 3.56615 7.23483 3.4868 6.71661 2.45106C6.62075 2.25957 6.48475 1.98538 6.41442 1.84176C6.10455 1.2091 5.9599 0.916931 5.77247 0.545475C5.66231 0.327215 5.5718 0.137897 5.57127 0.124768C5.56976 0.0873395 5.48189 -0.0155888 5.48189 0.0200988ZM19.3458 0.310169C19.1857 0.630487 18.8362 1.33532 18.5933 1.82725C18.5185 1.97885 18.3789 2.25957 18.2832 2.45106C18.0025 3.01213 17.7728 3.47498 17.6207 3.78572C17.4287 4.17828 17.1956 4.64832 17.0023 5.03334C16.7797 5.4766 16.4624 6.11513 16.3103 6.42602C16.24 6.56964 16.1062 6.83991 16.013 7.02655C15.9197 7.21325 15.8434 7.37972 15.8434 7.39648C15.8434 7.42789 15.8021 7.43855 15.7229 7.42767C15.6456 7.41708 15.7021 7.44943 15.8423 7.49592C15.985 7.54329 16.0565 7.53553 15.9241 7.487L15.8458 7.45835L16.0435 7.05824C16.1523 6.83817 16.302 6.5341 16.3764 6.3825C16.5137 6.10251 16.7024 5.72453 17.0572 5.01883C17.1655 4.8034 17.3008 4.52921 17.3579 4.40953C17.4603 4.19504 17.7266 3.65675 18.011 3.08938C18.3004 2.51206 18.5065 2.09731 18.6454 1.81275C18.7892 1.51803 19.0191 1.05605 19.3428 0.411212C19.4414 0.214857 19.5176 0.0413518 19.5121 0.0256841C19.5067 0.00994382 19.4319 0.137969 19.3458 0.310169ZM22.2084 0.368778C21.9122 0.959147 21.5991 1.58825 21.461 1.87078C21.257 2.28786 21.0325 2.74135 20.8288 3.14741C20.3064 4.18866 20.2216 4.35846 20.0901 4.62713C20.012 4.78671 19.8905 5.03479 19.8202 5.17841C19.7499 5.32203 19.6071 5.60927 19.503 5.81672C19.2763 6.26833 19.0247 6.77448 18.8109 7.20941C18.7246 7.38494 18.5893 7.65913 18.5103 7.81871C18.4313 7.97829 18.3335 8.17718 18.2929 8.2606C18.2523 8.34408 18.2061 8.42003 18.1904 8.42946C18.1746 8.43882 18.1695 8.45869 18.179 8.47356C18.1996 8.50569 18.2556 8.50997 18.2471 8.47878C18.241 8.45637 18.2546 8.42707 18.5328 7.86223C18.9077 7.10089 19.0585 6.79813 19.6059 5.70589C19.7564 5.40559 19.8795 5.15534 19.8795 5.14983C19.8795 5.14424 20.0025 4.89385 20.1528 4.59326C20.3031 4.29274 20.4716 3.95545 20.5272 3.84375C20.5829 3.73204 20.7581 3.38141 20.9167 3.0645C21.0752 2.74766 21.2049 2.48385 21.2049 2.47834C21.2049 2.47282 21.3213 2.23599 21.4637 1.95194C22.2823 0.318656 22.4125 0.0512167 22.4029 0.0232179C22.3982 0.0095086 22.3107 0.165025 22.2084 0.368778ZM12.3279 7.01327C12.4238 7.01907 12.5729 7.019 12.6593 7.01313C12.7456 7.00732 12.6672 7.00261 12.4849 7.00268C12.3027 7.00275 12.2321 7.00747 12.3279 7.01327ZM11.4989 7.04134C11.5363 7.04831 11.5905 7.04802 11.6193 7.04076C11.6481 7.03351 11.6175 7.02778 11.5512 7.02814C11.4849 7.02843 11.4614 7.03438 11.4989 7.04134ZM13.366 7.04127C13.4032 7.04823 13.4642 7.04823 13.5015 7.04127C13.5388 7.03438 13.5083 7.02872 13.4337 7.02872C13.3592 7.02872 13.3287 7.03438 13.366 7.04127ZM16.0843 7.57209C16.1092 7.58754 16.1499 7.60023 16.1747 7.60023C16.2148 7.60023 16.2148 7.59711 16.1747 7.57209C16.1499 7.55664 16.1092 7.54394 16.0843 7.54394C16.0442 7.54394 16.0442 7.54706 16.0843 7.57209ZM7.86141 7.93477C7.82 7.95754 7.79967 7.97626 7.81623 7.97626C7.8328 7.97626 7.88024 7.95754 7.92166 7.93477C7.96307 7.91199 7.9834 7.89327 7.96684 7.89327C7.95027 7.89327 7.90283 7.91199 7.86141 7.93477ZM17.0783 7.93477C17.1197 7.95754 17.1672 7.97626 17.1838 7.97626C17.2003 7.97626 17.18 7.95754 17.1386 7.93477C17.0972 7.91199 17.0497 7.89327 17.0331 7.89327C17.0166 7.89327 17.0369 7.91199 17.0783 7.93477ZM11.8373 11.0143C11.7959 11.0201 11.6604 11.039 11.5361 11.0562C11.155 11.1089 10.5117 11.2739 10.1958 11.4002C8.56744 12.0507 7.31939 13.255 6.68362 14.7894C6.66879 14.8253 6.64371 14.8841 6.62798 14.92C6.54153 15.1173 6.37609 15.7123 6.39356 15.763C6.39959 15.7804 6.42865 15.6974 6.4581 15.5786C6.9639 13.5367 8.67091 11.8193 10.753 11.2577C10.8275 11.2376 10.9224 11.211 10.9638 11.1986C11.0053 11.1862 11.1137 11.1622 11.2048 11.1453C11.2959 11.1284 11.4586 11.0975 11.5663 11.0769C11.6975 11.0517 12.0302 11.0393 12.5753 11.0393C13.0226 11.0393 13.314 11.0308 13.2229 11.0204C13.0495 11.0006 11.9677 10.9959 11.8373 11.0143ZM13.4488 11.0828C13.4819 11.0965 13.5511 11.1086 13.6024 11.1098C13.6538 11.1109 13.7351 11.1233 13.7831 11.1372C13.8312 11.1512 13.945 11.1788 14.0361 11.1985C16.2264 11.6729 18.081 13.4587 18.5716 15.5655C18.5827 15.6134 18.5978 15.6369 18.6051 15.6178C18.6222 15.5732 18.4582 15.0008 18.372 14.8039C18.3563 14.768 18.3314 14.7092 18.3168 14.6733C17.5973 12.9052 15.7461 11.4597 13.7392 11.0991C13.4568 11.0483 13.3512 11.0424 13.4488 11.0828ZM10.3744 14.1221C10.2598 14.6214 10.1526 14.822 9.85736 15.0895C9.66775 15.2612 9.574 15.318 9.27016 15.4446L9.15788 15.4915L9.14967 16.0652L9.14154 16.6391L9.06624 16.6467C7.65132 16.7899 7.5703 18.7369 8.96887 18.9856L9.16413 19.0203L9.39674 19.6866C9.6798 20.4974 9.64968 20.4202 9.79267 20.7011C9.9871 21.0829 10.2813 21.4166 10.7195 21.7526C10.7892 21.806 10.7902 21.8127 10.7527 21.9652C10.5671 22.719 10.3924 23.1182 10.1522 23.3371C9.98168 23.4926 9.97762 23.526 10.1089 23.6948C10.3142 23.9589 10.9621 24.2884 11.4608 24.3822C11.5105 24.3916 11.6461 24.4197 11.762 24.4448C12.0251 24.5016 12.9436 24.5112 13.2078 24.4599C13.5129 24.4006 13.6523 24.3671 13.8404 24.3077C14.1544 24.2084 14.399 24.0986 14.6119 23.9613C14.7911 23.8458 14.9121 23.7237 14.9885 23.5815L15.0349 23.4948L14.8663 23.35C14.6124 23.1319 14.4563 22.7849 14.2495 21.9777L14.2124 21.8326L14.3727 21.7034C14.8511 21.318 15.3916 20.61 15.3916 20.3688C15.3916 20.3517 15.4051 20.315 15.4215 20.2872C15.438 20.2595 15.5398 19.9757 15.6477 19.6565C15.8814 18.9653 15.8515 19.0156 16.0444 18.9903C16.7409 18.899 17.2323 18.1652 17.035 17.5112C16.8964 17.0521 16.4045 16.6536 15.9764 16.6536C15.8892 16.6536 15.8618 16.6378 15.8194 16.5632C15.4038 15.8312 14.8337 15.464 14.1127 15.464C13.6056 15.464 12.7447 15.3614 12.4096 15.2612C12.3682 15.2488 12.2733 15.2225 12.1988 15.2028C11.4786 15.0127 10.7827 14.5937 10.5118 14.187C10.3994 14.0182 10.3983 14.0177 10.3744 14.1221ZM10.6998 14.4541C10.9759 14.7196 11.4461 14.9979 11.8223 15.1181C11.8885 15.1393 11.9556 15.1671 11.9714 15.1798C11.9871 15.1925 12.0303 15.2028 12.0675 15.2028C12.1046 15.2028 12.1424 15.2144 12.1514 15.2285C12.1605 15.2427 12.2053 15.2616 12.2511 15.2707C12.2969 15.2798 12.4021 15.3015 12.4849 15.3188C12.9931 15.425 13.3038 15.4619 13.9458 15.4923C14.2523 15.5068 14.5505 15.5305 14.6084 15.5449C15.0027 15.6426 15.4782 16.058 15.7708 16.5601C15.8244 16.652 15.8534 16.6709 15.9666 16.687C16.3861 16.7468 16.7725 17.0017 16.9123 17.3107C16.9401 17.3721 16.977 17.4478 16.9943 17.4787C17.035 17.5516 17.035 18.1057 16.9943 18.1786C16.977 18.2095 16.9392 18.2871 16.9103 18.3509C16.774 18.652 16.3882 18.9032 15.9642 18.9669C15.8474 18.9844 15.7856 19.0438 15.7841 19.1398C15.7836 19.1748 15.7696 19.2115 15.753 19.2213C15.7365 19.2312 15.7229 19.2704 15.7229 19.3084C15.7229 19.3464 15.7093 19.3855 15.6928 19.3954C15.6762 19.4053 15.6627 19.4444 15.6627 19.4825C15.6627 19.5205 15.6491 19.5596 15.6325 19.5695C15.616 19.5794 15.6024 19.6185 15.6024 19.6565C15.6024 19.6946 15.5889 19.7337 15.5723 19.7436C15.5557 19.7535 15.5422 19.7926 15.5422 19.8306C15.5422 19.8686 15.5286 19.9078 15.5121 19.9177C15.4955 19.9275 15.4819 19.9667 15.4819 20.0047C15.4819 20.0427 15.4684 20.0819 15.4518 20.0918C15.4352 20.1016 15.4217 20.1408 15.4217 20.1788C15.4217 20.2168 15.4081 20.256 15.3916 20.2658C15.375 20.2757 15.3615 20.3023 15.3615 20.3249C15.3615 20.5905 14.7532 21.3864 14.2997 21.7143C14.185 21.7972 14.136 21.9876 14.2169 22.0357C14.2334 22.0456 14.247 22.0978 14.247 22.1518C14.247 22.2057 14.2605 22.258 14.2771 22.2678C14.2937 22.2777 14.3072 22.3299 14.3072 22.3839C14.3072 22.4379 14.3208 22.4901 14.3373 22.4999C14.3539 22.5098 14.3675 22.5434 14.3675 22.5746C14.3675 22.6058 14.3794 22.6539 14.3941 22.6816C14.4087 22.7094 14.4341 22.7647 14.4505 22.8046C14.5496 23.0457 14.6383 23.186 14.7837 23.3315C14.972 23.5202 14.9753 23.5664 14.813 23.735C14.4074 24.1564 13.4722 24.4436 12.5151 24.4406C11.9566 24.439 11.6053 24.3878 11.1596 24.2433C10.6603 24.0814 10.3188 23.8862 10.1517 23.6673C10.034 23.5132 10.0344 23.5109 10.2034 23.3511C10.3296 23.2316 10.4577 23.0295 10.5496 22.8046C10.5659 22.7647 10.5912 22.7094 10.6059 22.6816C10.6205 22.6539 10.6325 22.5992 10.6325 22.5601C10.6325 22.5209 10.6461 22.4808 10.6626 22.4709C10.6792 22.4611 10.6928 22.4154 10.6928 22.3694C10.6928 22.3234 10.7063 22.2777 10.7229 22.2678C10.7394 22.258 10.753 22.2057 10.753 22.1518C10.753 22.0978 10.7665 22.0456 10.7831 22.0357C10.8809 21.9775 10.8143 21.7657 10.665 21.6602C10.2803 21.3882 9.90758 20.9146 9.72716 20.4685C9.67566 20.3411 9.62106 20.2141 9.60585 20.1864C9.59072 20.1587 9.57829 20.1105 9.57829 20.0794C9.57829 20.0482 9.56474 20.0146 9.54817 20.0047C9.5316 19.9948 9.51805 19.9557 9.51805 19.9177C9.51805 19.8797 9.5045 19.8405 9.48793 19.8306C9.47136 19.8208 9.45781 19.7816 9.45781 19.7436C9.45781 19.7056 9.44425 19.6664 9.42769 19.6565C9.41112 19.6467 9.39757 19.6075 9.39757 19.5695C9.39757 19.5315 9.38401 19.4923 9.36745 19.4825C9.35088 19.4726 9.33733 19.4334 9.33733 19.3954C9.33733 19.3574 9.32377 19.3182 9.30721 19.3084C9.29064 19.2985 9.27708 19.2649 9.27708 19.2337C9.27708 19.2025 9.26451 19.1544 9.24915 19.1267C9.23379 19.099 9.21391 19.0534 9.20495 19.0255C9.19471 18.9938 9.15848 18.9747 9.10833 18.9747C8.86812 18.9747 8.5578 18.8336 8.34304 18.6268C7.6636 17.9723 7.99568 16.9172 8.94576 16.7122C9.22091 16.6528 9.2008 16.7018 9.20992 16.0688L9.21805 15.5048L9.45088 15.4046C9.92167 15.202 10.3828 14.6131 10.3928 14.2019L10.3949 14.1148L10.461 14.2014C10.4973 14.2491 10.6048 14.3627 10.6998 14.4541ZM18.621 15.7541C18.6207 15.81 18.6313 15.8883 18.6446 15.9282C18.6783 16.0297 18.6783 15.8673 18.6446 15.7396L18.6216 15.6526L18.621 15.7541ZM6.34168 15.9519C6.32925 16.0366 6.32624 16.1129 6.33498 16.1213C6.35644 16.142 6.39537 15.8837 6.37797 15.8357C6.37044 15.8148 6.35403 15.8671 6.34168 15.9519ZM18.6817 16.1313C18.6817 16.2031 18.6917 16.3467 18.7038 16.4505L18.7258 16.6391L18.7286 16.436C18.7302 16.3243 18.7203 16.1806 18.7066 16.1168L18.6816 16.0007L18.6817 16.1313ZM6.28784 16.3054C6.27556 16.3932 6.26721 16.5368 6.26916 16.6245C6.27278 16.7822 6.27315 16.7814 6.29974 16.5665C6.3145 16.4468 6.32285 16.3032 6.31841 16.2474C6.31148 16.1618 6.30666 16.171 6.28784 16.3054ZM18.6852 21.644C18.5698 22.37 18.1414 22.9463 17.4877 23.2552C17.0364 23.4684 16.9633 23.4802 16.0166 23.4938C15.152 23.5062 15.0823 23.5169 15.3238 23.6008C15.4025 23.6282 15.4974 23.6625 15.5346 23.6773C15.681 23.7351 15.7441 23.7586 15.9036 23.8147C16.8394 24.1439 17.4766 24.4102 17.7313 24.5784C17.8006 24.6241 17.8684 24.6615 17.8819 24.6615C17.8955 24.6616 17.946 24.6942 17.9941 24.734C18.0423 24.7739 18.091 24.8066 18.1024 24.8066C18.1139 24.8066 18.1626 24.8392 18.2107 24.8791C18.2588 24.9189 18.3084 24.9516 18.3208 24.9517C18.3685 24.9517 18.3399 25.0156 18.2606 25.0863L18.1777 25.16L18.2747 25.098C18.4445 24.9894 18.4364 24.9787 17.9552 24.6759C17.5295 24.4079 17.1281 24.2191 16.506 23.9942C16.3652 23.9433 16.2229 23.891 16.1898 23.8782C16.1566 23.8653 16.0482 23.8261 15.9488 23.7911C15.8494 23.756 15.741 23.7168 15.7078 23.7039C15.6747 23.6909 15.5595 23.6472 15.4518 23.6066L15.256 23.5328L15.9789 23.5313C17.1111 23.5292 17.5574 23.3915 18.0908 22.8799C18.446 22.539 18.7697 21.8468 18.73 21.5125C18.7233 21.4558 18.708 21.5006 18.6852 21.644ZM6.28038 21.6362C6.31186 22.0509 6.55704 22.5324 6.91262 22.8779C7.44146 23.3917 7.88596 23.5286 9.03612 23.5323C9.442 23.5335 9.75374 23.541 9.72889 23.5489C9.70404 23.5568 9.6566 23.5741 9.62347 23.5873C9.59034 23.6005 9.48191 23.64 9.38251 23.675C9.28311 23.7101 9.17467 23.7492 9.14154 23.7621C9.10841 23.7749 8.99997 23.8141 8.90058 23.8491C8.80118 23.8841 8.69274 23.9233 8.65961 23.9362C8.62648 23.949 8.51804 23.9882 8.41865 24.0232C8.1374 24.1223 8.13988 24.1213 7.72919 24.3107C7.33031 24.4948 7.03453 24.6651 6.75079 24.874L6.58897 24.9932L6.68867 25.0734C6.74349 25.1175 6.7959 25.1463 6.80509 25.1375C6.81427 25.1286 6.80155 25.1097 6.77685 25.0953C6.63671 25.0142 6.63686 25.0148 6.73776 24.9231C6.7907 24.875 6.8462 24.8356 6.86111 24.8356C6.87602 24.8356 6.91277 24.8095 6.94274 24.7776C6.97271 24.7457 7.01292 24.7195 7.03212 24.7195C7.05125 24.7195 7.09387 24.6967 7.12685 24.6688C7.33732 24.4904 7.84545 24.2691 9.02106 23.8437C9.15359 23.7958 9.28913 23.746 9.32227 23.7331C9.39817 23.7036 9.69651 23.5989 9.76654 23.5772C9.93552 23.5247 9.74749 23.5047 8.98341 23.4938C8.03664 23.4802 7.9636 23.4684 7.51232 23.2552C6.85109 22.9428 6.45192 22.4001 6.29514 21.6005L6.26668 21.4554L6.28038 21.6362ZM6.84786 25.1767C6.8596 25.1951 6.91194 25.2394 6.96412 25.2752C7.01631 25.311 7.04944 25.3252 7.03762 25.3069C7.02587 25.2885 6.97353 25.2442 6.92135 25.2084C6.86917 25.1726 6.83603 25.1584 6.84786 25.1767ZM18.0411 25.2441L17.9368 25.3334L18.0338 25.2718C18.1197 25.2171 18.1847 25.1548 18.1557 25.1548C18.15 25.1548 18.0984 25.1949 18.0411 25.2441ZM7.15358 25.4039C7.20328 25.4441 7.2846 25.4976 7.3343 25.5227C7.44455 25.5784 7.43438 25.5675 7.25125 25.4336C7.08875 25.3148 7.016 25.2928 7.15358 25.4039ZM17.6958 25.4714C17.4154 25.6568 16.8988 25.9418 16.5796 26.0873C16.4375 26.152 16.3275 26.211 16.3352 26.2184C16.3752 26.2569 17.6328 25.582 17.8408 25.4104C17.9822 25.2937 17.9336 25.3142 17.6958 25.4714ZM7.57527 25.6629C7.72263 25.7791 8.63567 26.2466 8.66323 26.2199C8.67008 26.2133 8.51616 26.1321 8.32121 26.0394C8.12633 25.9466 7.93295 25.8491 7.89154 25.8227C7.75946 25.7382 7.51269 25.6135 7.57527 25.6629ZM16.1486 26.2756C16.0929 26.2991 16.0535 26.3243 16.0612 26.3316C16.0771 26.347 16.2952 26.2638 16.2952 26.2424C16.2952 26.2209 16.2597 26.2289 16.1486 26.2756ZM8.8554 26.3005C8.8554 26.3217 9.07339 26.4051 9.08921 26.39C9.09674 26.3827 9.05231 26.3564 8.99049 26.3315C8.86805 26.2822 8.8554 26.2793 8.8554 26.3005ZM9.1566 26.4314C9.18145 26.4468 9.22211 26.4595 9.24696 26.4595C9.2871 26.4595 9.2871 26.4564 9.24696 26.4314C9.22211 26.4159 9.18145 26.4032 9.1566 26.4032C9.11647 26.4032 9.11647 26.4064 9.1566 26.4314ZM15.753 26.4314C15.7129 26.4564 15.7129 26.4595 15.753 26.4595C15.7779 26.4595 15.8185 26.4468 15.8434 26.4314C15.8835 26.4064 15.8835 26.4032 15.8434 26.4032C15.8185 26.4032 15.7779 26.4159 15.753 26.4314ZM9.32227 26.4894C9.33251 26.5054 9.3612 26.5184 9.38605 26.5184C9.4109 26.5184 9.42287 26.5054 9.41263 26.4894C9.40239 26.4735 9.3737 26.4604 9.34885 26.4604C9.324 26.4604 9.31202 26.4735 9.32227 26.4894ZM15.5874 26.4894C15.5771 26.5054 15.5891 26.5184 15.6139 26.5184C15.6388 26.5184 15.6675 26.5054 15.6777 26.4894C15.688 26.4735 15.676 26.4604 15.6511 26.4604C15.6263 26.4604 15.5976 26.4735 15.5874 26.4894ZM9.50299 26.5474C9.51323 26.5634 9.55133 26.5762 9.58763 26.576C9.64124 26.5757 9.64516 26.5703 9.60841 26.5474C9.54907 26.5105 9.47927 26.5105 9.50299 26.5474ZM15.4066 26.5474C15.3964 26.5634 15.4084 26.5765 15.4332 26.5765C15.4581 26.5765 15.4868 26.5634 15.497 26.5474C15.5072 26.5315 15.4953 26.5184 15.4704 26.5184C15.4456 26.5184 15.4169 26.5315 15.4066 26.5474ZM9.68371 26.6055C9.69395 26.6214 9.72264 26.6345 9.74749 26.6345C9.77234 26.6345 9.78432 26.6214 9.77408 26.6055C9.76383 26.5895 9.73514 26.5765 9.71029 26.5765C9.68545 26.5765 9.67347 26.5895 9.68371 26.6055ZM15.2259 26.6055C15.2157 26.6214 15.2276 26.6345 15.2525 26.6345C15.2773 26.6345 15.306 26.6214 15.3163 26.6055C15.3265 26.5895 15.3145 26.5765 15.2897 26.5765C15.2648 26.5765 15.2361 26.5895 15.2259 26.6055ZM9.8795 26.6635C9.90435 26.6789 9.95179 26.6916 9.98492 26.6916C10.0348 26.6916 10.0374 26.6868 9.99998 26.6635C9.97513 26.648 9.92769 26.6354 9.89456 26.6354C9.84471 26.6354 9.84207 26.6402 9.8795 26.6635ZM15 26.6635C14.9626 26.6868 14.9652 26.6916 15.0151 26.6916C15.0482 26.6916 15.0956 26.6789 15.1205 26.6635C15.1579 26.6402 15.1553 26.6354 15.1054 26.6354C15.0723 26.6354 15.0249 26.648 15 26.6635ZM10.0903 26.7215C10.1152 26.737 10.1626 26.7497 10.1958 26.7497C10.2456 26.7497 10.2482 26.7448 10.2108 26.7215C10.186 26.7061 10.1385 26.6934 10.1054 26.6934C10.0556 26.6934 10.0529 26.6982 10.0903 26.7215ZM14.7892 26.7215C14.7517 26.7448 14.7544 26.7497 14.8042 26.7497C14.8374 26.7497 14.8848 26.737 14.9096 26.7215C14.9471 26.6982 14.9444 26.6934 14.8946 26.6934C14.8614 26.6934 14.814 26.7061 14.7892 26.7215ZM10.3464 26.7796C10.3795 26.7933 10.4337 26.8045 10.4668 26.8045H10.5271L10.4668 26.7796C10.4337 26.7658 10.3795 26.7546 10.3464 26.7546H10.2861L10.3464 26.7796ZM14.5331 26.7796C14.4779 26.8024 14.4792 26.8047 14.5482 26.8061C14.5896 26.807 14.6438 26.795 14.6687 26.7796C14.7279 26.7426 14.6223 26.7426 14.5331 26.7796ZM10.6024 26.8376C10.6272 26.853 10.6882 26.8646 10.7379 26.8633C10.8265 26.8609 10.8268 26.8604 10.753 26.8376C10.6378 26.802 10.5453 26.802 10.6024 26.8376ZM14.247 26.8376C14.1732 26.8604 14.1735 26.8609 14.262 26.8633C14.3117 26.8646 14.3727 26.853 14.3976 26.8376C14.4547 26.802 14.3622 26.802 14.247 26.8376ZM10.9187 26.8956C10.9518 26.9093 11.0263 26.9201 11.0843 26.9197C11.1802 26.9189 11.1829 26.9167 11.1144 26.8956C11.0051 26.8619 10.8372 26.8619 10.9187 26.8956ZM13.8855 26.8956C13.8171 26.9167 13.8198 26.9189 13.9157 26.9197C13.9736 26.9201 14.0482 26.9093 14.0813 26.8956C14.1628 26.8619 13.9949 26.8619 13.8855 26.8956ZM11.3253 26.9536C11.3667 26.9664 11.4751 26.9764 11.5663 26.9759L11.7319 26.9749L11.5813 26.9523C11.3684 26.9203 11.2199 26.9211 11.3253 26.9536ZM13.4036 26.9536L13.2681 26.9739L13.4337 26.9754C13.5248 26.9762 13.6333 26.9664 13.6747 26.9536C13.7735 26.9232 13.6072 26.9232 13.4036 26.9536ZM12.1611 27.0157C12.3498 27.0296 12.6501 27.0296 12.8388 27.0157C13.1491 26.993 13.1204 26.9909 12.5 26.9909C11.8796 26.9909 11.8509 26.993 12.1611 27.0157Z" fill="#E7957B"/>
</svg>
