<svg width="20" height="20" viewBox="0 0 20 20" fill="none" xmlns="http://www.w3.org/2000/svg">
<path fill-rule="evenodd" clip-rule="evenodd" d="M7.00613 9.09712C6.79418 9.17062 6.65213 9.31757 6.58968 9.52777C6.52218 9.75507 6.55423 12.211 6.62888 12.53C6.70488 12.855 6.73723 12.9713 6.77908 13.07C6.78843 13.092 6.81143 13.146 6.83023 13.19C8.03363 16.0059 11.9708 16.0059 13.1701 13.19C13.2398 13.0265 13.2564 12.9812 13.2836 12.88C13.2939 12.8415 13.3108 12.7785 13.3212 12.74C13.4298 12.336 13.4435 12.0987 13.4364 10.75L13.4301 9.55002L13.3784 9.44002C13.3125 9.30007 13.2001 9.18762 13.0601 9.12177L12.9501 9.07002L10.0301 9.06552C7.26123 9.06127 7.10473 9.06292 7.00613 9.09712Z" fill="#FBD03B"/>
<path fill-rule="evenodd" clip-rule="evenodd" d="M9.5802 4.72825C8.32465 4.9503 7.4328 5.84645 7.22975 7.09005C7.20705 7.22925 7.20035 7.47305 7.2003 8.16505L7.2002 9.06005H7.82019H8.4402V8.16325C8.4402 7.0727 8.45569 6.9801 8.69789 6.6234C9.39254 5.60055 10.9593 5.74675 11.4413 6.8794C11.5559 7.1487 11.5596 7.1888 11.5599 8.16505L11.5602 9.06005H12.1802H12.8002L12.7998 8.17505C12.7993 6.98755 12.7636 6.76335 12.4875 6.21465C11.964 5.17425 10.7031 4.5296 9.5802 4.72825Z" fill="#EBEBF3"/>
<path fill-rule="evenodd" clip-rule="evenodd" d="M9.92985 2.22676C9.90815 2.24151 9.7509 2.32591 9.5804 2.41431C9.4099 2.50276 9.2119 2.60621 9.1404 2.64426C9.0689 2.68226 8.8844 2.77906 8.7304 2.85931C8.5764 2.93961 8.4054 3.02996 8.3504 3.06011C8.2954 3.09031 8.1334 3.17586 7.9904 3.25031C7.8474 3.32471 7.6764 3.41461 7.6104 3.45006C7.5444 3.48556 7.3824 3.57091 7.2504 3.63986C6.9808 3.78061 6.73195 3.91151 6.4804 4.04486C6.3869 4.09441 6.2114 4.18676 6.0904 4.25006C5.8378 4.38216 5.56895 4.52356 5.3104 4.66031C5.2114 4.71266 5.0539 4.79576 4.9604 4.84491C4.8669 4.89406 4.6779 4.99351 4.5404 5.06586C4.4029 5.13826 4.2409 5.22326 4.1804 5.25471L4.0704 5.31191L4.0633 5.44097C4.044 5.79357 4.13005 7.41032 4.20165 8.04002C4.2123 8.13352 4.23015 8.29102 4.2414 8.39002C4.2747 8.68387 4.3403 9.13127 4.40055 9.47502C4.50335 10.0617 4.72695 11.0434 4.82085 11.32C4.8302 11.3475 4.8662 11.4645 4.90095 11.58C5.8008 14.574 7.77105 17.0382 9.8362 17.7522L10.002 17.8096L10.1647 17.7534C10.3105 17.7032 10.7546 17.4951 10.9104 17.4042C11.1739 17.2503 11.2617 17.1937 11.4904 17.0302C12.5019 16.3069 13.45 15.2048 14.0969 14C14.328 13.5698 14.6861 12.791 14.7867 12.5C14.8038 12.4505 14.8459 12.3335 14.8804 12.24C15.1939 11.3882 15.4865 10.2296 15.6404 9.23002C15.6523 9.15302 15.67 9.04052 15.6798 8.98002C15.7279 8.68337 15.8071 7.99982 15.8398 7.60002C15.9546 6.19517 15.966 5.33292 15.8704 5.28001C15.8374 5.26176 15.6934 5.18546 15.5504 5.11046C14.9603 4.80091 14.7607 4.69571 14.4204 4.51501C14.3269 4.46536 14.1559 4.37541 14.0404 4.31516C13.9249 4.25491 13.7539 4.16521 13.6604 4.11581C13.502 4.03206 13.3254 3.93936 12.8004 3.66436C12.6849 3.60386 12.5364 3.52541 12.4704 3.49001C12.4044 3.45461 12.2334 3.36471 12.0904 3.29031C11.9474 3.21586 11.7854 3.13031 11.7304 3.10021C11.6754 3.07006 11.5134 2.98441 11.3704 2.90981C10.897 2.66291 10.7045 2.56151 10.2174 2.30261C10.0084 2.19156 9.98925 2.18651 9.92985 2.22676ZM10.5104 4.71641C10.8592 4.78996 11.0141 4.84311 11.2904 4.98416C11.7184 5.20266 12.0853 5.52972 12.359 5.93672C12.4553 6.07992 12.66 6.49237 12.6602 6.54382C12.6603 6.56242 12.6684 6.58257 12.6781 6.58857C12.6879 6.59462 12.7008 6.62437 12.7069 6.65477C12.713 6.68517 12.7281 6.75052 12.7404 6.80002C12.7528 6.84952 12.7727 6.93502 12.7846 6.99002C12.7974 7.04922 12.8112 7.48972 12.8184 8.07002L12.8304 9.05002L12.9204 9.06142C13.1181 9.08652 13.2993 9.22232 13.395 9.41717L13.4504 9.53002L13.4492 10.89C13.4479 12.3687 13.4487 12.3565 13.3286 12.7984C13.2627 13.0406 13.0893 13.4762 13.0414 13.52C13.022 13.5377 12.9583 13.6489 12.9469 13.685C12.9408 13.7043 12.9278 13.72 12.9181 13.72C12.9084 13.72 12.9003 13.7313 12.9002 13.745C12.9 13.7588 12.8822 13.7925 12.8607 13.82C12.8391 13.8475 12.7679 13.9387 12.7025 14.0227C12.5728 14.1892 12.3221 14.4469 12.2046 14.5345C12.1638 14.5649 12.1259 14.5948 12.1204 14.6009C12.1149 14.607 12.0789 14.6338 12.0404 14.6604C12.0019 14.6871 11.953 14.7249 11.9317 14.7445C11.9103 14.764 11.8818 14.78 11.8683 14.78C11.8548 14.78 11.8408 14.7881 11.8371 14.7979C11.8198 14.8442 11.2525 15.1123 11.0654 15.1626C11.0297 15.1722 10.9667 15.1896 10.9254 15.2014C10.6102 15.291 10.4692 15.3072 10.0004 15.3073C9.5025 15.3074 9.45365 15.3023 9.1354 15.2173C8.81055 15.1306 8.41395 14.966 8.22865 14.8409C8.179 14.8074 8.13155 14.78 8.12315 14.78C8.1148 14.78 8.0905 14.764 8.06915 14.7445C8.04785 14.7249 7.9989 14.6871 7.9604 14.6604C7.9219 14.6338 7.8859 14.607 7.8804 14.6009C7.8749 14.5948 7.83715 14.565 7.7965 14.5347C7.684 14.4509 7.4287 14.1878 7.29705 14.02C7.23235 13.9375 7.16175 13.8475 7.14015 13.82C7.1186 13.7925 7.1008 13.7588 7.10065 13.745C7.1005 13.7313 7.09365 13.72 7.08535 13.72C7.0771 13.72 7.04805 13.6773 7.02085 13.625C6.99365 13.5728 6.96625 13.5255 6.95995 13.52C6.9129 13.4789 6.7215 12.9984 6.6627 12.7739C6.55275 12.3543 6.55145 12.3317 6.5509 10.88L6.5504 9.53002L6.60585 9.41717C6.70155 9.22232 6.8827 9.08652 7.0804 9.06142L7.1704 9.05002L7.18245 8.07002C7.1896 7.48972 7.2034 7.04922 7.2162 6.99002C7.2937 6.63257 7.3414 6.49357 7.48315 6.21227C7.8283 5.52737 8.50585 4.96916 9.2204 4.78101C9.2699 4.76796 9.33805 4.74891 9.3718 4.73866C9.4056 4.72841 9.4596 4.71936 9.4918 4.71861C9.52405 4.71781 9.5684 4.70921 9.5904 4.69941C9.6434 4.67586 10.3829 4.68951 10.5104 4.71641ZM9.7704 5.97182C9.6504 5.98907 9.47035 6.04537 9.3404 6.10637C8.977 6.27692 8.64595 6.64772 8.54265 7.00002C8.5281 7.04952 8.5061 7.11252 8.49365 7.14002C8.4783 7.17407 8.46895 7.48497 8.46435 8.11502L8.45755 9.04002H10.0004H11.5433L11.5365 8.11502C11.5319 7.48497 11.5225 7.17407 11.5072 7.14002C11.4947 7.11252 11.4727 7.04952 11.4582 7.00002C11.3379 6.58987 10.9106 6.16257 10.5004 6.04227C10.4509 6.02772 10.3884 6.00717 10.3614 5.99652C10.3089 5.97582 9.87015 5.95752 9.7704 5.97182Z" fill="#3493EB"/>
<path fill-rule="evenodd" clip-rule="evenodd" d="M9.8969 0.935044C9.88715 0.957044 9.72135 1.04004 9.6872 1.04004C9.67105 1.04004 9.66345 1.04904 9.67025 1.06004C9.67705 1.07104 9.6641 1.08004 9.64145 1.08004C9.6188 1.08004 9.60025 1.08904 9.60025 1.10004C9.60025 1.11104 9.583 1.12004 9.5619 1.12004C9.54085 1.12004 9.5206 1.12689 9.5169 1.13524C9.50815 1.15524 9.2163 1.30004 9.1847 1.30004C9.17125 1.30004 9.16025 1.30904 9.16025 1.32004C9.16025 1.33104 9.14225 1.34004 9.12025 1.34004C9.09825 1.34004 9.08025 1.34904 9.08025 1.36004C9.08025 1.37104 9.06225 1.38004 9.04025 1.38004C9.01825 1.38004 9.00025 1.38904 9.00025 1.40004C9.00025 1.41104 8.98225 1.42004 8.96025 1.42004C8.93825 1.42004 8.92025 1.42739 8.92025 1.43634C8.92025 1.45679 8.7662 1.54004 8.72835 1.54004C8.7129 1.54004 8.70025 1.54794 8.70025 1.55759C8.70025 1.57354 8.6047 1.62204 8.5661 1.62569C8.5574 1.62649 8.53825 1.63914 8.52365 1.65379C8.509 1.66844 8.4904 1.67629 8.4823 1.67129C8.47415 1.66629 8.4549 1.67969 8.4395 1.70109C8.42405 1.72254 8.4017 1.74004 8.3898 1.74004C8.3565 1.74004 8.2606 1.78819 8.2604 1.80504C8.2603 1.81329 8.243 1.82004 8.2219 1.82004C8.20085 1.82004 8.1806 1.82684 8.1769 1.83514C8.17325 1.84344 8.10725 1.88164 8.03025 1.92004C7.95325 1.95844 7.88725 1.99664 7.8836 2.00494C7.8799 2.01324 7.85965 2.02004 7.8386 2.02004C7.8175 2.02004 7.8002 2.02679 7.8001 2.03504C7.7999 2.05299 7.70305 2.10004 7.66625 2.10004C7.65195 2.10004 7.64025 2.11054 7.64025 2.12339C7.64025 2.13619 7.63435 2.14084 7.6272 2.13364C7.62 2.12644 7.58625 2.13754 7.5522 2.15834C7.4208 2.23844 7.3379 2.28004 7.30965 2.28004C7.2935 2.28004 7.28025 2.28904 7.28025 2.30004C7.28025 2.31104 7.26225 2.32004 7.24025 2.32004C7.21825 2.32004 7.20025 2.32734 7.20025 2.33629C7.20025 2.34524 7.16875 2.36494 7.13025 2.38004C7.09175 2.39514 7.06025 2.41484 7.06025 2.42379C7.06025 2.43274 7.04224 2.44004 7.02025 2.44004C6.99825 2.44004 6.98025 2.44904 6.98025 2.46004C6.98025 2.47104 6.96225 2.48004 6.94025 2.48004C6.91825 2.48004 6.9002 2.48679 6.90009 2.49504C6.89994 2.51059 6.8051 2.56004 6.77544 2.56004C6.76614 2.56004 6.73925 2.57804 6.71565 2.60004C6.69204 2.62204 6.6609 2.64004 6.6465 2.64004C6.63205 2.64004 6.62024 2.64904 6.62024 2.66004C6.62024 2.67104 6.60449 2.68024 6.58524 2.68049C6.56599 2.68074 6.52775 2.69854 6.50024 2.72004C6.47274 2.74154 6.43449 2.75934 6.41525 2.75959C6.39599 2.75984 6.38024 2.76904 6.38024 2.78004C6.38024 2.79104 6.36225 2.80004 6.34025 2.80004C6.31824 2.80004 6.30024 2.80904 6.30024 2.82004C6.30024 2.83104 6.28674 2.84004 6.27024 2.84004C6.25374 2.84004 6.24024 2.84904 6.24024 2.86004C6.24024 2.87104 6.22224 2.88004 6.20024 2.88004C6.17824 2.88004 6.16024 2.88904 6.16024 2.90004C6.16024 2.91104 6.14224 2.92004 6.12024 2.92004C6.09824 2.92004 6.08024 2.92904 6.08024 2.94004C6.08024 2.95104 6.06589 2.96004 6.04834 2.96004C6.03079 2.96004 5.99254 2.97234 5.96334 2.98744C5.93414 3.00249 5.86974 3.03584 5.82024 3.06159C5.77074 3.08734 5.71004 3.11774 5.68539 3.12919C5.66074 3.14069 5.64049 3.15679 5.64039 3.16504C5.64029 3.17329 5.62224 3.18004 5.60024 3.18004C5.57824 3.18004 5.56024 3.18734 5.56024 3.19629C5.56024 3.20524 5.52874 3.22494 5.49024 3.24004C5.45174 3.25514 5.42024 3.27484 5.42024 3.28379C5.42024 3.29274 5.40224 3.30004 5.38024 3.30004C5.35824 3.30004 5.34024 3.30904 5.34024 3.32004C5.34024 3.33104 5.32224 3.34004 5.30024 3.34004C5.27824 3.34004 5.26024 3.34904 5.26024 3.36004C5.26024 3.37104 5.24224 3.38004 5.22024 3.38004C5.19824 3.38004 5.18024 3.38904 5.18024 3.40004C5.18024 3.41104 5.16224 3.42004 5.14024 3.42004C5.11824 3.42004 5.10019 3.42679 5.10009 3.43504C5.09989 3.45299 5.00304 3.50004 4.96624 3.50004C4.95194 3.50004 4.94024 3.50734 4.94024 3.51629C4.94024 3.52524 4.90914 3.54479 4.87114 3.55969C4.83314 3.57459 4.80669 3.59429 4.81234 3.60344C4.81799 3.61254 4.81034 3.62004 4.79539 3.62004C4.75769 3.62004 4.66059 3.66679 4.66039 3.68504C4.66029 3.69329 4.64674 3.70004 4.63024 3.70004C4.61374 3.70004 4.60024 3.70904 4.60024 3.72004C4.60024 3.73104 4.58664 3.74004 4.56999 3.74004C4.55334 3.74004 4.52409 3.74834 4.50499 3.75844C4.38419 3.82239 4.30259 3.85574 4.29224 3.84534C4.28564 3.83874 4.28024 3.84259 4.28024 3.85384C4.28024 3.86514 4.23074 3.89569 4.17024 3.92184C4.10974 3.94794 4.06024 3.97624 4.06024 3.98469C4.06024 3.99314 4.04449 4.00024 4.02524 4.00049C4.00599 4.00074 3.96774 4.01854 3.94024 4.04004C3.91274 4.06154 3.87899 4.07934 3.86524 4.07959C3.85149 4.07984 3.84024 4.08734 3.84024 4.09629C3.84024 4.10524 3.80874 4.12494 3.77024 4.14004C3.73174 4.15514 3.70024 4.17484 3.70024 4.18379C3.70024 4.19274 3.68224 4.20004 3.66024 4.20004C3.63824 4.20004 3.62024 4.20904 3.62024 4.22004C3.62024 4.23104 3.60224 4.24004 3.58024 4.24004C3.55824 4.24004 3.54024 4.24904 3.54024 4.26004C3.54024 4.27104 3.52224 4.28004 3.50024 4.28004C3.47824 4.28004 3.46024 4.28904 3.46024 4.30004C3.46024 4.31104 3.44224 4.32004 3.42024 4.32004C3.39824 4.32004 3.38024 4.32904 3.38024 4.34004C3.38024 4.35104 3.36224 4.36004 3.34024 4.36004C3.31824 4.36004 3.30024 4.36904 3.30024 4.38004C3.30024 4.39104 3.28169 4.40004 3.25904 4.40004C3.23639 4.40004 3.22344 4.40904 3.23024 4.42004C3.23729 4.43144 3.22004 4.44004 3.19024 4.44004C3.16044 4.44004 3.14319 4.44864 3.15024 4.46004C3.15704 4.47104 3.14959 4.48004 3.13369 4.48004C3.09129 4.48004 2.99869 4.53179 3.01389 4.54699C3.02104 4.55419 3.00964 4.56034 2.98859 4.56069C2.96749 4.56104 2.93279 4.57454 2.91144 4.59069C2.89004 4.60684 2.85629 4.62004 2.83644 4.62004C2.79519 4.62004 2.77859 6.31039 2.81944 6.35124C2.82999 6.36179 2.83979 6.52114 2.84119 6.70534C2.84269 6.90129 2.85134 7.03554 2.86199 7.02894C2.87264 7.02239 2.88024 7.12709 2.88024 7.28004C2.88024 7.42594 2.88804 7.53759 2.89784 7.53154C2.90749 7.52554 2.92084 7.63524 2.92744 7.77533C2.94659 8.18238 2.98434 8.59818 3.00519 8.63188C3.01184 8.64258 3.01999 8.71183 3.02329 8.78573C3.02659 8.85958 3.03629 8.92003 3.04479 8.92003C3.05329 8.92003 3.06024 8.98303 3.06024 9.06003C3.06024 9.14003 3.06879 9.20003 3.08024 9.20003C3.09134 9.20003 3.10024 9.25298 3.10024 9.31883C3.10024 9.38418 3.10924 9.44323 3.12024 9.45003C3.13124 9.45683 3.14024 9.50958 3.14024 9.56723C3.14024 9.62488 3.14834 9.68058 3.15819 9.69103C3.17669 9.71058 3.19394 9.80813 3.21289 10C3.21889 10.0605 3.23199 10.1186 3.24199 10.129C3.25204 10.1395 3.26024 10.1873 3.26024 10.2352C3.26024 10.2882 3.26809 10.3175 3.28024 10.31C3.29254 10.3024 3.30024 10.3361 3.30024 10.3977C3.30024 10.4527 3.30924 10.5032 3.32024 10.51C3.33124 10.5168 3.34024 10.5528 3.34024 10.59C3.34024 10.6272 3.34924 10.6632 3.36024 10.67C3.37124 10.6768 3.38024 10.7218 3.38024 10.77C3.38024 10.8182 3.38924 10.8632 3.40024 10.87C3.41124 10.8768 3.42024 10.9179 3.42024 10.9612C3.42024 11.0046 3.42924 11.04 3.44024 11.04C3.45124 11.04 3.46024 11.071 3.46024 11.1088C3.46024 11.1467 3.46924 11.1832 3.48024 11.19C3.49124 11.1968 3.50024 11.2334 3.50024 11.2712C3.50024 11.3091 3.50924 11.34 3.52024 11.34C3.53124 11.34 3.54024 11.376 3.54024 11.42C3.54024 11.464 3.54924 11.5 3.56024 11.5C3.57124 11.5 3.58024 11.5321 3.58024 11.5712C3.58024 11.6136 3.58834 11.6374 3.60024 11.63C3.61214 11.6227 3.62024 11.6461 3.62024 11.6877C3.62024 11.7262 3.62924 11.7632 3.64024 11.77C3.65124 11.7768 3.66024 11.8083 3.66024 11.84C3.66024 11.8717 3.66924 11.9032 3.68024 11.91C3.69124 11.9168 3.70024 11.9489 3.70024 11.9812C3.70024 12.0136 3.70924 12.04 3.72024 12.04C3.73124 12.04 3.74024 12.067 3.74024 12.1C3.74024 12.133 3.74749 12.16 3.75634 12.16C3.76524 12.16 3.77254 12.1803 3.77264 12.205C3.77284 12.2558 3.79489 12.3502 3.82049 12.41C3.85834 12.4984 3.92024 12.6947 3.92024 12.7264C3.92024 12.7449 3.92924 12.76 3.94024 12.76C3.95124 12.76 3.96024 12.7781 3.96024 12.8003C3.96024 12.8224 3.96819 12.8562 3.97789 12.8753C4.02424 12.9664 4.04229 13.0143 4.04529 13.054C4.04709 13.0778 4.05569 13.0928 4.06439 13.0875C4.07309 13.0821 4.08024 13.1007 4.08024 13.1288C4.08024 13.157 4.08759 13.18 4.09664 13.18C4.10564 13.18 4.12544 13.2256 4.14059 13.2813C4.15574 13.337 4.17539 13.387 4.18419 13.3925C4.19304 13.3979 4.20024 13.4244 4.20024 13.4512C4.20024 13.4781 4.20924 13.5 4.22024 13.5C4.23124 13.5 4.24024 13.518 4.24024 13.54C4.24024 13.562 4.24924 13.58 4.26024 13.58C4.27124 13.58 4.28024 13.598 4.28024 13.62C4.28024 13.642 4.28924 13.66 4.30024 13.66C4.31124 13.66 4.32024 13.6825 4.32024 13.71C4.32024 13.7375 4.32924 13.76 4.34024 13.76C4.35124 13.76 4.36024 13.778 4.36024 13.8C4.36024 13.822 4.36924 13.84 4.38024 13.84C4.39124 13.84 4.40024 13.862 4.40024 13.8888C4.40024 13.9157 4.40924 13.9432 4.42024 13.95C4.43124 13.9568 4.44024 13.9799 4.44024 14.0012C4.44024 14.0226 4.44699 14.0401 4.45524 14.0402C4.47319 14.0404 4.52024 14.1372 4.52024 14.174C4.52024 14.1883 4.52924 14.2 4.54024 14.2C4.55124 14.2 4.56024 14.2175 4.56024 14.2388C4.56024 14.2602 4.56824 14.2826 4.57804 14.2887C4.58779 14.2947 4.60204 14.3244 4.60959 14.3546C4.61719 14.3849 4.62944 14.4142 4.63684 14.4198C4.65849 14.4363 4.78084 14.6877 4.78054 14.715C4.78039 14.7288 4.78824 14.74 4.79809 14.74C4.80789 14.74 4.82984 14.7748 4.84684 14.8174C4.86389 14.8599 4.88959 14.9075 4.90404 14.9231C4.94414 14.9666 4.98024 15.0361 4.98024 15.0698C4.98024 15.0864 4.98924 15.1 5.00024 15.1C5.01124 15.1 5.02024 15.1141 5.02024 15.1312C5.02024 15.1484 5.02924 15.1568 5.04024 15.15C5.05124 15.1432 5.06024 15.1466 5.06024 15.1575C5.06024 15.1822 5.18474 15.3876 5.20524 15.3967C5.21349 15.4004 5.22024 15.4186 5.22024 15.4373C5.22024 15.4559 5.23824 15.4842 5.26024 15.5C5.28224 15.5159 5.30024 15.5429 5.30024 15.56C5.30024 15.5772 5.31824 15.6042 5.34024 15.62C5.36224 15.6359 5.38024 15.6616 5.38024 15.6771C5.38024 15.6926 5.39964 15.7221 5.42329 15.7427C5.44699 15.7632 5.46019 15.78 5.45259 15.78C5.43194 15.78 5.48199 15.8676 5.51314 15.886C5.52804 15.8948 5.54024 15.9151 5.54024 15.931C5.54024 15.947 5.54979 15.96 5.56144 15.96C5.57309 15.96 5.57764 15.9681 5.57154 15.9779C5.56544 15.9878 5.57344 16.0008 5.58929 16.0069C5.60519 16.013 5.63244 16.0456 5.64994 16.0795C5.67974 16.1371 5.72829 16.1977 5.83524 16.3107C5.85999 16.3368 5.88024 16.3667 5.88024 16.3771C5.88024 16.3875 5.92524 16.4419 5.98024 16.4981C6.03524 16.5543 6.08024 16.6076 6.08024 16.6165C6.08024 16.6255 6.10049 16.6511 6.12524 16.6735C6.14999 16.6958 6.19979 16.7508 6.23594 16.7956C6.33979 16.9245 6.53695 17.12 6.5631 17.12C6.5762 17.12 6.5817 17.1252 6.5753 17.1316C6.5689 17.138 6.60099 17.1763 6.64654 17.2166C6.69214 17.257 6.7792 17.3395 6.8401 17.4C6.90095 17.4605 6.99115 17.5427 7.04049 17.5827C7.08985 17.6226 7.15445 17.6766 7.18395 17.7027C7.2135 17.7287 7.2657 17.7725 7.29995 17.8C7.3342 17.8275 7.3746 17.8613 7.3898 17.875C7.405 17.8888 7.42955 17.9 7.4444 17.9C7.45925 17.9 7.4844 17.918 7.50025 17.94C7.5161 17.962 7.5406 17.98 7.55465 17.98C7.56875 17.98 7.58025 17.989 7.58025 18C7.58025 18.011 7.59175 18.02 7.60585 18.02C7.6199 18.02 7.6444 18.038 7.66025 18.06C7.6761 18.082 7.7031 18.1 7.72025 18.1C7.7374 18.1 7.7644 18.118 7.78025 18.14C7.7961 18.162 7.8231 18.18 7.84025 18.18C7.8574 18.18 7.8844 18.198 7.90025 18.22C7.9161 18.242 7.9406 18.26 7.95465 18.26C7.96875 18.26 7.98025 18.2673 7.98025 18.2763C7.98025 18.2852 8.01135 18.3048 8.04935 18.3197C8.08735 18.3346 8.1138 18.3543 8.10815 18.3634C8.1025 18.3725 8.11505 18.38 8.13595 18.38C8.1569 18.38 8.19035 18.398 8.21025 18.42C8.23015 18.442 8.25855 18.46 8.27335 18.46C8.28815 18.46 8.30025 18.4696 8.30025 18.4812C8.30025 18.4929 8.3085 18.4973 8.31865 18.491C8.32875 18.4848 8.3506 18.4932 8.3672 18.5098C8.3838 18.5264 8.40715 18.54 8.4191 18.54C8.4419 18.54 8.52315 18.5816 8.54025 18.6019C8.54575 18.6085 8.57435 18.6198 8.60385 18.627C8.63335 18.6342 8.66955 18.6513 8.68435 18.6651C8.6991 18.6788 8.72 18.692 8.73075 18.6945C8.7923 18.7087 8.95125 18.7723 8.9569 18.785C8.9606 18.7933 8.98085 18.8 9.0019 18.8C9.023 18.8 9.04025 18.809 9.04025 18.82C9.04025 18.831 9.06725 18.84 9.10025 18.84C9.13325 18.84 9.16025 18.849 9.16025 18.86C9.16025 18.871 9.17825 18.88 9.20025 18.88C9.22225 18.88 9.24025 18.8871 9.24025 18.8957C9.24025 18.9043 9.2646 18.9133 9.29435 18.9158C9.32415 18.9182 9.35745 18.9292 9.36835 18.9401C9.3793 18.9511 9.40895 18.96 9.43425 18.96C9.45955 18.96 9.48025 18.9671 9.48025 18.9758C9.48025 18.9844 9.50935 18.9937 9.5449 18.9964C9.5805 18.9992 9.6183 19.0101 9.6289 19.0207C9.63955 19.0313 9.683 19.04 9.72545 19.04C9.7718 19.04 9.79765 19.048 9.79025 19.06C9.7823 19.0729 9.8571 19.08 10.0002 19.08C10.1434 19.08 10.2182 19.0729 10.2102 19.06C10.2028 19.048 10.2287 19.04 10.275 19.04C10.3175 19.04 10.3609 19.0313 10.3716 19.0207C10.3822 19.0101 10.42 18.9992 10.4556 18.9964C10.4911 18.9937 10.5202 18.9844 10.5202 18.9758C10.5202 18.9671 10.5465 18.96 10.5786 18.96C10.6106 18.96 10.6399 18.9511 10.6436 18.9402C10.6472 18.9293 10.675 18.9183 10.7052 18.9158C10.7355 18.9133 10.7602 18.9043 10.7602 18.8957C10.7602 18.8871 10.7777 18.88 10.799 18.88C10.8204 18.88 10.8434 18.871 10.8502 18.86C10.857 18.849 10.8846 18.84 10.9114 18.84C10.9383 18.84 10.9602 18.831 10.9602 18.82C10.9602 18.809 10.9782 18.8 11.0002 18.8C11.0222 18.8 11.0402 18.791 11.0402 18.78C11.0402 18.769 11.0627 18.76 11.0902 18.76C11.1177 18.76 11.1402 18.7495 11.1402 18.7367C11.1402 18.7239 11.1459 18.719 11.1528 18.7259C11.1597 18.7328 11.1912 18.7251 11.2228 18.7087C11.2544 18.6924 11.2804 18.686 11.2805 18.6945C11.2807 18.703 11.2874 18.701 11.2955 18.69C11.3167 18.6612 11.3948 18.62 11.4283 18.62C11.444 18.62 11.4599 18.6133 11.4636 18.605C11.4741 18.5813 11.6323 18.5 11.6679 18.5C11.6857 18.5 11.7002 18.491 11.7002 18.48C11.7002 18.469 11.7123 18.46 11.7271 18.46C11.7419 18.46 11.7703 18.442 11.7902 18.42C11.8101 18.398 11.843 18.38 11.8633 18.38C11.8836 18.38 11.9002 18.371 11.9002 18.36C11.9002 18.349 11.912 18.34 11.9265 18.34C11.9409 18.34 11.972 18.322 11.9956 18.3C12.0192 18.278 12.0459 18.26 12.055 18.26C12.064 18.26 12.0844 18.242 12.1002 18.22C12.1161 18.198 12.1451 18.18 12.1646 18.18C12.1842 18.18 12.2002 18.1725 12.2002 18.1634C12.2002 18.1543 12.225 18.1341 12.2552 18.1185C12.2855 18.103 12.3248 18.0745 12.3426 18.0552C12.3604 18.0358 12.3829 18.02 12.3926 18.02C12.4023 18.02 12.4418 17.993 12.4803 17.96C12.5188 17.9271 12.5576 17.9001 12.5667 17.9001C12.5757 17.9 12.5952 17.8888 12.61 17.875C12.6247 17.8613 12.6666 17.8275 12.703 17.8C12.7395 17.7725 12.8054 17.7185 12.8494 17.68C12.8935 17.6415 12.9413 17.601 12.9557 17.59C12.9701 17.579 13.0588 17.4958 13.1529 17.405C13.247 17.3143 13.3326 17.24 13.3433 17.24C13.3539 17.24 13.3571 17.231 13.3503 17.22C13.3435 17.209 13.3534 17.2 13.3724 17.2C13.3914 17.2 13.401 17.1941 13.3937 17.1868C13.3864 17.1795 13.4007 17.1631 13.4254 17.1502C13.4501 17.1373 13.468 17.1162 13.4653 17.1034C13.4625 17.0905 13.4715 17.0799 13.4853 17.0797C13.499 17.0795 13.5463 17.0392 13.5903 16.9901C13.6343 16.941 13.722 16.8449 13.7853 16.7766C13.8485 16.7082 13.9003 16.6459 13.9003 16.638C13.9003 16.6301 13.9498 16.5721 14.0103 16.5091C14.0708 16.4462 14.1203 16.3865 14.1203 16.3764C14.1203 16.3664 14.1405 16.3371 14.1653 16.3114C14.2523 16.2209 14.3274 16.126 14.3261 16.1081C14.3254 16.0982 14.35 16.066 14.3807 16.0366C14.4115 16.0072 14.4315 15.9779 14.4251 15.9716C14.4188 15.9652 14.4246 15.96 14.4381 15.96C14.4516 15.96 14.4575 15.9516 14.4511 15.9414C14.4448 15.9311 14.4563 15.9109 14.4768 15.8964C14.5146 15.8695 14.5711 15.78 14.5502 15.78C14.5439 15.78 14.5571 15.7603 14.5795 15.7363C14.6019 15.7122 14.6203 15.6827 14.6203 15.6707C14.6203 15.6587 14.6383 15.6359 14.6603 15.62C14.6823 15.6042 14.7003 15.5793 14.7003 15.5648C14.7003 15.5502 14.7183 15.519 14.7403 15.4954C14.7623 15.4718 14.7803 15.4407 14.7803 15.4263C14.7803 15.4118 14.7882 15.4 14.7978 15.4C14.8075 15.4 14.8266 15.3731 14.8402 15.3403C14.8538 15.3074 14.8729 15.2855 14.8826 15.2915C14.8923 15.2975 14.9003 15.2894 14.9003 15.2735C14.9003 15.2311 14.952 15.1385 14.9672 15.1537C14.9744 15.1608 14.9803 15.1517 14.9803 15.1334C14.9803 15.115 14.9893 15.1 15.0003 15.1C15.0113 15.1 15.0203 15.0864 15.0203 15.0698C15.0203 15.0394 15.0592 14.9587 15.083 14.94C15.0899 14.9345 15.1157 14.8873 15.1402 14.835C15.1646 14.7828 15.1927 14.74 15.2025 14.74C15.2123 14.74 15.2183 14.7333 15.2158 14.725C15.2098 14.705 15.2668 14.58 15.282 14.58C15.2885 14.58 15.3058 14.544 15.3203 14.5C15.3348 14.456 15.3535 14.42 15.3619 14.42C15.3703 14.42 15.383 14.3931 15.3902 14.3603C15.3974 14.3274 15.4117 14.2953 15.4218 14.2891C15.432 14.2828 15.4403 14.2602 15.4403 14.2388C15.4403 14.2175 15.4493 14.2 15.4603 14.2C15.4713 14.2 15.4803 14.182 15.4803 14.16C15.4803 14.138 15.4893 14.12 15.5003 14.12C15.5113 14.12 15.5203 14.102 15.5203 14.08C15.5203 14.058 15.5293 14.04 15.5403 14.04C15.5513 14.04 15.5603 14.017 15.5603 13.9888C15.5603 13.9607 15.5674 13.942 15.576 13.9474C15.5847 13.9528 15.5938 13.933 15.5962 13.9036C15.5986 13.8741 15.6095 13.847 15.6204 13.8434C15.6314 13.8397 15.6403 13.8194 15.6403 13.7984C15.6403 13.7773 15.6493 13.76 15.6603 13.76C15.6713 13.76 15.6803 13.742 15.6803 13.72C15.6803 13.698 15.6893 13.68 15.7003 13.68C15.7113 13.68 15.7203 13.6575 15.7203 13.63C15.7203 13.6025 15.7293 13.58 15.7403 13.58C15.7513 13.58 15.7603 13.557 15.7603 13.5288C15.7603 13.4998 15.7689 13.483 15.7803 13.49C15.7913 13.4968 15.8003 13.4837 15.8003 13.4609C15.8003 13.4381 15.8093 13.4016 15.8203 13.3798C15.8313 13.3579 15.8493 13.3221 15.8603 13.3003C15.8713 13.2784 15.8803 13.2424 15.8803 13.2203C15.8803 13.1981 15.8893 13.18 15.9003 13.18C15.9113 13.18 15.9203 13.157 15.9203 13.1288C15.9203 13.1007 15.9274 13.082 15.936 13.0874C15.9447 13.0928 15.9538 13.073 15.9562 13.0436C15.9586 13.0141 15.9695 12.987 15.9804 12.9834C15.9914 12.9797 16.0003 12.9555 16.0003 12.9295C16.0003 12.9036 16.0093 12.8768 16.0203 12.87C16.0313 12.8632 16.0403 12.8357 16.0403 12.8088C16.0403 12.782 16.0493 12.76 16.0603 12.76C16.0713 12.76 16.0803 12.7374 16.0803 12.7098C16.0803 12.6821 16.0886 12.6439 16.0987 12.6248C16.1521 12.5238 16.2276 12.2787 16.2279 12.205C16.228 12.1803 16.2353 12.16 16.2442 12.16C16.253 12.16 16.2603 12.133 16.2603 12.1C16.2603 12.067 16.2693 12.04 16.2803 12.04C16.2913 12.04 16.3003 12.0136 16.3003 11.9812C16.3003 11.9489 16.3093 11.9168 16.3203 11.91C16.3313 11.9032 16.3403 11.8717 16.3403 11.84C16.3403 11.8083 16.3493 11.7768 16.3603 11.77C16.3713 11.7632 16.3803 11.7262 16.3803 11.6877C16.3803 11.6461 16.3884 11.6227 16.4003 11.63C16.4122 11.6374 16.4203 11.6136 16.4203 11.5712C16.4203 11.5321 16.4293 11.5 16.4403 11.5C16.4513 11.5 16.4603 11.464 16.4603 11.42C16.4603 11.376 16.4683 11.34 16.4782 11.34C16.488 11.34 16.5012 11.3063 16.5074 11.265C16.5345 11.086 16.5457 11.04 16.5625 11.04C16.5723 11.04 16.5803 11.0046 16.5803 10.9612C16.5803 10.9179 16.5893 10.8768 16.6003 10.87C16.6113 10.8632 16.6203 10.8177 16.6203 10.7688C16.6203 10.72 16.6293 10.68 16.6403 10.68C16.6513 10.68 16.6603 10.6395 16.6603 10.59C16.6603 10.5405 16.6693 10.5 16.6803 10.5C16.6913 10.5 16.7003 10.4545 16.7003 10.3988C16.7003 10.3365 16.7079 10.3024 16.7203 10.31C16.7325 10.3176 16.7403 10.2873 16.7403 10.2324C16.7403 10.1829 16.7493 10.1368 16.7603 10.13C16.7713 10.1232 16.7803 10.0692 16.7803 10.01C16.7803 9.95083 16.7893 9.89683 16.8003 9.89003C16.8113 9.88323 16.8203 9.83823 16.8203 9.79003C16.8203 9.74183 16.8293 9.69683 16.8403 9.69003C16.8513 9.68323 16.8603 9.62923 16.8603 9.57003C16.8603 9.51083 16.8693 9.45683 16.8803 9.45003C16.8913 9.44323 16.9003 9.38418 16.9003 9.31883C16.9003 9.25298 16.9092 9.20003 16.9203 9.20003C16.9317 9.20003 16.9403 9.14003 16.9403 9.06003C16.9403 8.97483 16.9486 8.92003 16.9615 8.92003C16.9731 8.92003 16.9784 8.91318 16.9732 8.90483C16.9681 8.89648 16.9726 8.82223 16.9833 8.73983C16.994 8.65743 17.0071 8.53603 17.0123 8.47003C17.0176 8.40403 17.0277 8.32753 17.0349 8.30003C17.0497 8.24298 17.0516 8.21823 17.0716 7.81573C17.0797 7.65384 17.094 7.52613 17.1033 7.53189C17.1126 7.53768 17.1203 7.42434 17.1203 7.28004C17.1203 7.12669 17.1279 7.02239 17.1386 7.02899C17.1493 7.03559 17.1579 6.89789 17.1594 6.69534C17.1607 6.50529 17.1705 6.34184 17.1811 6.33124C17.1927 6.31959 17.2003 5.98059 17.2003 5.46764V4.62324L17.1403 4.61004C17.1073 4.60279 17.0803 4.59049 17.0803 4.58269C17.0803 4.57494 17.0622 4.56719 17.0401 4.56554C17.018 4.56384 16.9864 4.54904 16.97 4.53259C16.9535 4.51614 16.9221 4.49694 16.9002 4.48999C16.8782 4.48304 16.8603 4.46894 16.8603 4.45869C16.8603 4.44844 16.8476 4.44004 16.8322 4.44004C16.7989 4.44004 16.6332 4.35664 16.6236 4.33504C16.6199 4.32679 16.5997 4.32004 16.5786 4.32004C16.5575 4.32004 16.5403 4.31104 16.5403 4.30004C16.5403 4.28904 16.5223 4.28004 16.5003 4.28004C16.4783 4.28004 16.4603 4.27104 16.4603 4.26004C16.4603 4.24904 16.4423 4.24004 16.4203 4.24004C16.3983 4.24004 16.3803 4.23104 16.3803 4.22004C16.3803 4.20904 16.3623 4.20004 16.3403 4.20004C16.3183 4.20004 16.3003 4.19209 16.3003 4.18239C16.3003 4.17264 16.2845 4.15954 16.2653 4.15324C16.246 4.14694 16.1853 4.11424 16.1303 4.08054C16.0753 4.04684 16.0079 4.00989 15.9806 3.99839C15.8573 3.94649 15.8003 3.91399 15.8003 3.89564C15.8003 3.88469 15.7864 3.88109 15.7695 3.88754C15.752 3.89429 15.7339 3.88659 15.7274 3.86969C15.7211 3.85339 15.703 3.84004 15.6871 3.84004C15.6713 3.84004 15.6295 3.82469 15.5943 3.80599C15.5591 3.78724 15.519 3.77414 15.5053 3.77684C15.4915 3.77959 15.4803 3.77239 15.4803 3.76094C15.4803 3.74944 15.4623 3.74004 15.4403 3.74004C15.4183 3.74004 15.4003 3.73214 15.4003 3.72249C15.4003 3.71279 15.3733 3.69369 15.3403 3.68004C15.3073 3.66639 15.2803 3.64729 15.2803 3.63759C15.2803 3.62794 15.2578 3.62004 15.2303 3.62004C15.2028 3.62004 15.1803 3.61104 15.1803 3.60004C15.1803 3.58904 15.1662 3.58004 15.1491 3.58004C15.1319 3.58004 15.1236 3.57084 15.1306 3.55954C15.1375 3.54829 15.1358 3.54129 15.1268 3.54399C15.1033 3.55109 14.9803 3.49329 14.9803 3.47514C14.9803 3.46684 14.9676 3.46004 14.9522 3.46004C14.9189 3.46004 14.7532 3.37664 14.7436 3.35504C14.7399 3.34679 14.726 3.34004 14.7126 3.34004C14.6771 3.34004 14.5806 3.29259 14.5804 3.27504C14.5803 3.26679 14.5668 3.26004 14.5503 3.26004C14.5338 3.26004 14.5203 3.25104 14.5203 3.24004C14.5203 3.22904 14.5072 3.22004 14.4912 3.22004C14.4751 3.22004 14.4162 3.19304 14.3603 3.16004C14.3043 3.12704 14.2439 3.10004 14.2261 3.10004C14.2082 3.10004 14.1998 3.09384 14.2073 3.08629C14.2186 3.07509 14.0614 2.98829 14.0454 2.99689C14.0428 2.99834 14.0087 2.98164 13.9698 2.95979C13.9309 2.93794 13.8858 2.92004 13.8697 2.92004C13.8535 2.92004 13.8403 2.91104 13.8403 2.90004C13.8403 2.88904 13.8223 2.88004 13.8003 2.88004C13.7783 2.88004 13.7603 2.87104 13.7603 2.86004C13.7603 2.84904 13.7468 2.84004 13.7303 2.84004C13.7138 2.84004 13.7003 2.83104 13.7003 2.82004C13.7003 2.80904 13.6845 2.79984 13.6653 2.79959C13.646 2.79934 13.6078 2.78154 13.5803 2.76004C13.5528 2.73854 13.5198 2.72074 13.5069 2.72049C13.4941 2.72024 13.4805 2.71064 13.4766 2.69914C13.4728 2.68764 13.4502 2.67679 13.4264 2.67499C13.4025 2.67319 13.3875 2.66459 13.3928 2.65589C13.3982 2.64719 13.3886 2.64004 13.3715 2.64004C13.3543 2.64004 13.3403 2.63104 13.3403 2.62004C13.3403 2.60904 13.3267 2.60004 13.31 2.60004C13.2804 2.60004 13.2001 2.56174 13.1803 2.53814C13.1748 2.53154 13.1462 2.52029 13.1167 2.51309C13.0872 2.50589 13.0496 2.48649 13.0331 2.46999C13.0166 2.45354 12.9889 2.44004 12.9717 2.44004C12.9544 2.44004 12.9402 2.43274 12.9402 2.42379C12.9402 2.41484 12.9087 2.39514 12.8702 2.38004C12.8317 2.36494 12.8003 2.34524 12.8003 2.33629C12.8003 2.32734 12.7823 2.32004 12.7603 2.32004C12.7382 2.32004 12.7203 2.31104 12.7203 2.30004C12.7203 2.28904 12.7023 2.28004 12.6803 2.28004C12.6583 2.28004 12.6401 2.27329 12.64 2.26504C12.6398 2.25679 12.5925 2.22844 12.535 2.20199C12.4774 2.17559 12.3987 2.13959 12.3602 2.12199C12.3217 2.10444 12.2873 2.08329 12.2836 2.07504C12.2799 2.06679 12.2596 2.06004 12.2386 2.06004C12.2175 2.06004 12.2002 2.05104 12.2002 2.04004C12.2002 2.02904 12.1822 2.02004 12.1602 2.02004C12.1382 2.02004 12.1202 2.01329 12.1202 2.00504C12.1201 1.99679 12.0706 1.96754 12.0102 1.94004C11.9498 1.91254 11.9003 1.88329 11.9003 1.87504C11.9003 1.86679 11.8822 1.86004 11.8602 1.86004C11.8382 1.86004 11.8202 1.85209 11.8202 1.84239C11.8202 1.83264 11.8045 1.81954 11.7852 1.81324C11.766 1.80694 11.7117 1.77889 11.6647 1.75094C11.6176 1.72294 11.5591 1.69989 11.5347 1.69974C11.4986 1.69949 11.4959 1.69574 11.5202 1.68004C11.5464 1.66314 11.5461 1.66059 11.518 1.66034C11.4813 1.65999 11.2337 1.53779 11.2236 1.51504C11.2199 1.50679 11.1996 1.50004 11.1786 1.50004C11.1575 1.50004 11.1402 1.49104 11.1402 1.48004C11.1402 1.46904 11.1267 1.46004 11.1102 1.46004C11.0937 1.46004 11.0802 1.45104 11.0802 1.44004C11.0802 1.42904 11.0622 1.42004 11.0402 1.42004C11.0182 1.42004 11.0002 1.41104 11.0002 1.40004C11.0002 1.38904 10.9822 1.38004 10.9602 1.38004C10.9382 1.38004 10.9202 1.37104 10.9202 1.36004C10.9202 1.34904 10.9022 1.34004 10.8802 1.34004C10.8582 1.34004 10.8402 1.32954 10.8402 1.31669C10.8402 1.30389 10.8345 1.29909 10.8275 1.30614C10.8205 1.31314 10.7912 1.30244 10.7625 1.28239C10.7337 1.26229 10.6861 1.24004 10.6566 1.23294C10.6271 1.22579 10.5895 1.20649 10.5731 1.18999C10.5566 1.17354 10.5289 1.16004 10.5117 1.16004C10.4944 1.16004 10.4802 1.15104 10.4802 1.14004C10.4802 1.12904 10.4622 1.12004 10.4402 1.12004C10.4182 1.12004 10.4002 1.11104 10.4002 1.10004C10.4002 1.08904 10.3867 1.08004 10.3702 1.08004C10.3537 1.08004 10.3402 1.07104 10.3402 1.06004C10.3402 1.04904 10.3276 1.04004 10.3121 1.04004C10.2788 1.04004 10.1132 0.956644 10.1036 0.935044C10.0999 0.926794 10.0534 0.920044 10.0002 0.920044C9.9471 0.920044 9.9006 0.926794 9.8969 0.935044ZM10.2172 2.30264C10.7043 2.56154 10.8968 2.66294 11.3702 2.90984C11.5132 2.98444 11.6752 3.07009 11.7302 3.10024C11.7852 3.13034 11.9472 3.21589 12.0903 3.29034C12.2332 3.36474 12.4042 3.45464 12.4702 3.49004C12.5363 3.52544 12.6848 3.60389 12.8003 3.66439C13.3252 3.93939 13.5018 4.03209 13.6603 4.11584C13.7538 4.16524 13.9248 4.25494 14.0403 4.31519C14.1558 4.37544 14.3268 4.46539 14.4203 4.51504C14.7605 4.69574 14.9602 4.80094 15.5503 5.11049C15.9696 5.33039 15.9293 5.29799 15.9374 5.42164C15.9583 5.74184 15.8714 7.38049 15.7992 8.03004C15.7504 8.46833 15.7081 8.80443 15.6797 8.98003C15.6699 9.04053 15.6521 9.15303 15.6403 9.23003C15.4864 10.2296 15.1938 11.3882 14.8802 12.24C14.8458 12.3335 14.8036 12.4505 14.7865 12.5C14.6859 12.791 14.3278 13.5698 14.0968 14C13.4498 15.2048 12.5017 16.3069 11.4902 17.0302C11.2615 17.1937 11.1737 17.2503 10.9102 17.4042C10.7544 17.4951 10.3103 17.7032 10.1645 17.7534L10.0018 17.8096L9.83605 17.7522C7.7709 17.0382 5.80064 14.574 4.90079 11.58C4.86604 11.4645 4.83004 11.3475 4.82069 11.32C4.68694 10.926 4.42944 9.72143 4.32149 8.98503C4.27484 8.66668 4.26079 8.56263 4.24124 8.39003C4.22999 8.29103 4.21214 8.13353 4.20149 8.04003C4.17979 7.84924 4.15094 7.50704 4.12134 7.09004C4.09354 6.69764 4.05464 5.59614 4.06314 5.44099L4.07024 5.31194L4.18024 5.25474C4.24074 5.22329 4.40274 5.13829 4.54024 5.06589C4.67774 4.99354 4.86674 4.89409 4.96024 4.84494C5.05374 4.79579 5.21124 4.71269 5.31024 4.66034C5.56879 4.52359 5.83764 4.38219 6.09024 4.25009C6.21124 4.18679 6.38675 4.09444 6.48025 4.04489C6.7318 3.91154 6.98065 3.78064 7.25025 3.63989C7.38225 3.57094 7.54425 3.48559 7.61025 3.45009C7.67625 3.41464 7.84725 3.32474 7.99025 3.25034C8.13325 3.17589 8.29525 3.09034 8.35025 3.06014C8.40525 3.02999 8.57625 2.93964 8.73025 2.85934C8.88425 2.77909 9.06875 2.68229 9.14025 2.64429C9.21175 2.60624 9.40975 2.50279 9.58025 2.41434C9.75075 2.32594 9.908 2.24154 9.9297 2.22679C9.9891 2.18654 10.0082 2.19159 10.2172 2.30264Z" fill="#2C7CBC"/>
<path fill-rule="evenodd" clip-rule="evenodd" d="M9.59046 4.69947C9.56846 4.70927 9.52411 4.71787 9.49186 4.71867C9.45966 4.71942 9.40566 4.72847 9.37186 4.73872C9.33811 4.74897 9.26996 4.76802 9.22046 4.78107C8.50591 4.96922 7.82836 5.52742 7.48321 6.21232C7.34141 6.49367 7.29321 6.63427 7.21636 6.99006C7.19141 7.10551 7.16226 9.06011 7.18546 9.06006C7.19371 9.06006 7.20051 8.65731 7.20056 8.16506C7.20066 7.06336 7.22501 6.87162 7.42431 6.40507C8.41231 4.09182 11.6906 4.15472 12.6179 6.50466C12.7764 6.90631 12.7997 7.11941 12.8001 8.17506C12.8003 8.66181 12.8072 9.06006 12.8155 9.06006C12.8387 9.06011 12.8095 7.10551 12.7846 6.99006C12.7727 6.93506 12.7529 6.84956 12.7405 6.80006C12.7281 6.75056 12.713 6.68521 12.7069 6.65481C12.7008 6.62442 12.6879 6.59466 12.6782 6.58861C12.6684 6.58261 12.6604 6.56247 12.6603 6.54387C12.66 6.49242 12.4554 6.07997 12.3591 5.93677C12.0854 5.52977 11.7185 5.20272 11.2905 4.98422C11.0141 4.84317 10.8593 4.79002 10.5105 4.71647C10.3829 4.68957 9.64346 4.67592 9.59046 4.69947ZM9.60271 5.98097C9.05146 6.12532 8.62176 6.55766 8.48046 7.11006C8.44336 7.25506 8.44046 7.33191 8.44046 8.16326V9.06006H10.0005H11.5605L11.5602 8.16506C11.5599 7.18881 11.5562 7.14871 11.4416 6.87942C11.143 6.17787 10.3432 5.78707 9.60271 5.98097ZM10.3614 5.99657C10.3884 6.00722 10.451 6.02777 10.5005 6.04232C10.9106 6.16262 11.3379 6.58992 11.4582 7.00006C11.4728 7.04956 11.4948 7.11256 11.5072 7.14006C11.5226 7.17411 11.5319 7.48501 11.5365 8.11506L11.5433 9.04006H10.0005H8.45761L8.46441 8.11506C8.46901 7.48501 8.47836 7.17411 8.49371 7.14006C8.50616 7.11256 8.52816 7.04956 8.54271 7.00006C8.68996 6.49807 9.22466 6.05022 9.77046 5.97187C9.87021 5.95757 10.3089 5.97587 10.3614 5.99657ZM6.91296 9.10906C6.73571 9.19591 6.55915 9.42411 6.5611 9.56381C6.5615 9.59186 6.57591 9.56906 6.59771 9.50606C6.66956 9.29806 6.79846 9.16916 7.00646 9.09731C7.07581 9.07336 7.09381 9.06136 7.06046 9.06136C7.03296 9.06131 6.96656 9.08281 6.91296 9.10906ZM12.9705 9.08806C13.0924 9.12661 13.1671 9.17066 13.2485 9.25206C13.3299 9.33346 13.3739 9.40811 13.4125 9.53006C13.4303 9.58626 13.4382 9.59631 13.4391 9.56381C13.4446 9.37436 13.124 9.05551 12.9338 9.06141C12.9064 9.06226 12.9199 9.07206 12.9705 9.08806ZM6.5498 10.7901C6.5498 11.4171 6.55236 11.6707 6.55546 11.3537C6.55856 11.0366 6.55856 10.5236 6.55546 10.2137C6.55236 9.90366 6.5498 10.1631 6.5498 10.7901ZM13.4498 10.8001C13.4498 11.4216 13.4524 11.6758 13.4555 11.3651C13.4586 11.0543 13.4586 10.5458 13.4555 10.2351C13.4524 9.92431 13.4498 10.1786 13.4498 10.8001ZM13.4137 12.2369C13.4047 12.3286 13.4019 12.4081 13.4073 12.4136C13.4222 12.4285 13.4448 12.2199 13.4369 12.1401C13.4324 12.0955 13.424 12.1308 13.4137 12.2369ZM6.5655 12.2001C6.5653 12.2606 6.57206 12.3371 6.58046 12.3701L6.5957 12.4301L6.59635 12.3601C6.59665 12.3216 6.58995 12.2451 6.58135 12.1901L6.56581 12.0901L6.5655 12.2001ZM6.60245 12.4801C6.5974 12.6359 6.87616 13.4467 6.96001 13.5201C6.96631 13.5256 6.99371 13.5728 7.02091 13.6251C7.04811 13.6773 7.07716 13.7201 7.08541 13.7201C7.09371 13.7201 7.10056 13.7313 7.10071 13.7451C7.10086 13.7588 7.11866 13.7926 7.14021 13.8201C7.16181 13.8476 7.23241 13.9376 7.29711 14.0201C7.42876 14.1879 7.68406 14.4509 7.79656 14.5348C7.83721 14.5651 7.87496 14.5948 7.88046 14.6009C7.88596 14.607 7.92196 14.6338 7.96046 14.6605C7.99896 14.6872 8.04791 14.725 8.06921 14.7445C8.09056 14.7641 8.11491 14.7801 8.12336 14.7801C8.13176 14.7801 8.17281 14.8034 8.21456 14.832C8.37086 14.9389 8.87076 15.1626 8.94471 15.1587C8.97411 15.1572 8.95471 15.1484 8.72046 15.0578C7.88321 14.734 7.20316 14.0619 6.83056 13.1901C6.81176 13.1461 6.78861 13.0921 6.77911 13.0701C6.75236 13.0081 6.68621 12.7821 6.65911 12.6601C6.61186 12.4474 6.6043 12.4233 6.60245 12.4801ZM13.3724 12.5201C13.3636 12.5696 13.343 12.6596 13.3267 12.7201C13.3103 12.7806 13.2898 12.8571 13.281 12.8901C13.264 12.954 13.2468 13.0054 13.2207 13.0701C12.8301 14.0376 12.1657 14.7106 11.2402 15.0761C11.1249 15.1216 11.0447 15.1592 11.0622 15.1595C11.1451 15.161 11.8185 14.8466 11.8371 14.7976C11.8408 14.788 11.8549 14.7801 11.8684 14.7801C11.8819 14.7801 11.9104 14.7641 11.9317 14.7445C11.953 14.725 12.002 14.6872 12.0405 14.6605C12.079 14.6338 12.115 14.607 12.1205 14.6009C12.126 14.5948 12.1639 14.565 12.2047 14.5346C12.3222 14.447 12.5729 14.1893 12.7026 14.0228C12.768 13.9388 12.8391 13.8476 12.8607 13.8201C12.8823 13.7926 12.9001 13.7588 12.9002 13.7451C12.9004 13.7313 12.9084 13.7201 12.9181 13.7201C12.9279 13.7201 12.9408 13.7043 12.9469 13.6851C12.9584 13.649 13.022 13.5378 13.0414 13.5201C13.1279 13.441 13.4153 12.5932 13.3958 12.4744C13.3911 12.4452 13.3831 12.4607 13.3724 12.5201ZM9.00046 15.1801C9.01696 15.1907 9.04846 15.199 9.07046 15.1984L9.11046 15.1973L9.07046 15.1801C9.01066 15.1544 8.96071 15.1544 9.00046 15.1801ZM10.9305 15.1801L10.8905 15.1973L10.9305 15.1984C10.9525 15.199 10.984 15.1907 11.0005 15.1801C11.0402 15.1544 10.9903 15.1544 10.9305 15.1801ZM9.14046 15.2201C9.15696 15.2307 9.19296 15.2387 9.22046 15.2378L9.27046 15.2361L9.22046 15.2201C9.14336 15.1954 9.10226 15.1954 9.14046 15.2201ZM10.7805 15.2201L10.7305 15.2361L10.7805 15.2378C10.808 15.2387 10.844 15.2307 10.8605 15.2201C10.8987 15.1954 10.8576 15.1954 10.7805 15.2201ZM9.30046 15.2601C9.31696 15.2707 9.36646 15.2785 9.41046 15.2774C9.48751 15.2754 9.48826 15.2748 9.43046 15.2601C9.33706 15.2363 9.26366 15.2363 9.30046 15.2601ZM10.5705 15.2601C10.5127 15.2748 10.5134 15.2754 10.5905 15.2774C10.6345 15.2785 10.684 15.2707 10.7005 15.2601C10.7373 15.2363 10.6639 15.2363 10.5705 15.2601ZM9.55046 15.3007C9.58856 15.3165 9.99621 15.328 9.97881 15.3128C9.97421 15.3088 9.86696 15.3007 9.74046 15.2948C9.61111 15.2888 9.52796 15.2913 9.55046 15.3007ZM10.1905 15.3001L10.0105 15.3125L10.2105 15.3149C10.3205 15.3162 10.4285 15.3095 10.4505 15.3001C10.4969 15.2801 10.4794 15.2801 10.1905 15.3001Z" fill="#75B7EC"/>
</svg>
