<svg width="34" height="34" viewBox="0 0 34 34" fill="none" xmlns="http://www.w3.org/2000/svg">
<path fill-rule="evenodd" clip-rule="evenodd" d="M12.5295 4.83862C12.5178 4.85722 12.36 4.87199 12.1727 4.87199C11.7358 4.87199 11.3905 5.05069 11.3905 5.27693C11.3905 5.31164 11.3714 5.3707 11.348 5.40825C11.3122 5.46573 11.3148 5.48149 11.365 5.50952C11.3978 5.52779 11.4249 5.56826 11.4253 5.59946C11.4262 5.67345 11.545 5.92932 11.6063 5.98947C11.8019 6.18151 11.8295 6.18477 12.9885 6.15282C15.604 6.08082 20.7246 6.12428 23.3755 6.24091C25.5222 6.33535 27.6647 6.5218 28.7135 6.70534C29.4212 6.82914 29.8527 6.95628 30.2766 7.16576C31.1785 7.6115 31.7394 8.27949 32.0914 9.32689C32.3753 10.1716 32.5046 11.2605 32.6412 13.9542C32.6846 14.8083 32.6842 18.6409 32.6408 19.484C32.4988 22.2384 32.3456 23.4812 32.0625 24.1766C32.0477 24.2133 32.0161 24.2959 31.9926 24.3601C31.5724 25.5056 30.5841 26.3203 29.2745 26.6004C28.6697 26.7298 28.4062 26.7708 27.5915 26.8618C26.9688 26.9314 26.8696 26.9677 26.7162 27.1826C26.5978 27.3485 26.4727 27.864 26.5508 27.864C26.5715 27.864 26.5885 27.8842 26.5885 27.9091C26.5885 27.9845 26.789 28.1653 26.8959 28.1862C26.9512 28.1971 26.9965 28.2191 26.9965 28.2352C26.9965 28.2513 27.1266 28.2644 27.2855 28.2644C27.4555 28.2644 27.5745 28.2506 27.5745 28.231C27.5745 28.2114 27.6929 28.1977 27.8615 28.1977C28.0194 28.1977 28.158 28.1827 28.1695 28.1643C28.1811 28.1459 28.2882 28.1309 28.4075 28.1309C28.5269 28.1309 28.634 28.1159 28.6455 28.0976C28.6571 28.0792 28.7498 28.0642 28.8516 28.0642C28.9533 28.0642 29.0365 28.0492 29.0365 28.0308C29.0365 28.0125 29.1121 27.9975 29.2045 27.9975C29.2969 27.9975 29.382 27.9824 29.3935 27.9641C29.4051 27.9457 29.4663 27.9307 29.5295 27.9307C29.5928 27.9307 29.654 27.9157 29.6655 27.8973C29.6771 27.879 29.7383 27.864 29.8015 27.864C29.8648 27.864 29.926 27.849 29.9375 27.8306C29.9491 27.8122 30.0036 27.7972 30.0586 27.7972C30.1136 27.7972 30.1585 27.7822 30.1585 27.7639C30.1585 27.7455 30.1959 27.7305 30.2415 27.7305C30.2872 27.7305 30.334 27.7155 30.3455 27.6971C30.3571 27.6788 30.3963 27.6638 30.4326 27.6638C30.4689 27.6638 30.4985 27.6487 30.4985 27.6304C30.4985 27.612 30.5444 27.597 30.6005 27.597C30.6566 27.597 30.7026 27.582 30.7026 27.5636C30.7026 27.5453 30.7331 27.5303 30.7705 27.5303C30.8079 27.5303 30.8385 27.5153 30.8385 27.4969C30.8385 27.4785 30.8692 27.4635 30.9065 27.4635C30.944 27.4635 30.9745 27.4485 30.9745 27.4302C30.9745 27.4118 31.0051 27.3968 31.0426 27.3968C31.08 27.3968 31.1105 27.3818 31.1105 27.3634C31.1105 27.3451 31.1378 27.3301 31.1711 27.3301C31.2043 27.3301 31.2536 27.3 31.2806 27.2633C31.3075 27.2266 31.3568 27.1966 31.39 27.1966C31.4233 27.1966 31.4506 27.1841 31.4506 27.1689C31.4506 27.1536 31.4926 27.12 31.5441 27.0941C31.7344 26.9985 32.4366 26.3752 32.4366 26.3019C32.4366 26.2856 32.4786 26.2283 32.5301 26.1748C32.5815 26.1213 32.6452 26.0365 32.6718 25.9863C32.6984 25.9362 32.7328 25.8951 32.7483 25.8951C32.7638 25.8951 32.7766 25.8706 32.7766 25.8407C32.7766 25.8107 32.8042 25.7619 32.8378 25.7322C32.9212 25.6589 33.2415 25.0076 33.2707 24.8523C33.2836 24.7835 33.3077 24.7272 33.3244 24.7272C33.341 24.7272 33.3545 24.6821 33.3545 24.6271C33.3545 24.572 33.3699 24.527 33.3885 24.527C33.4072 24.527 33.4226 24.4753 33.4226 24.4122C33.4226 24.349 33.4379 24.288 33.4566 24.2767C33.4753 24.2653 33.4906 24.2044 33.4906 24.1412C33.4906 24.0781 33.5059 24.0264 33.5246 24.0264C33.5433 24.0264 33.5585 23.9663 33.5585 23.8929C33.5585 23.8195 33.5739 23.7595 33.5926 23.7595C33.6113 23.7595 33.6266 23.6844 33.6266 23.5926C33.6266 23.5008 33.6418 23.4258 33.6605 23.4258C33.6794 23.4258 33.6945 23.3367 33.6945 23.2255C33.6945 23.1143 33.7097 23.0253 33.7285 23.0253C33.7479 23.0253 33.7626 22.9259 33.7626 22.7937C33.7626 22.6663 33.7779 22.5528 33.7966 22.5414C33.8155 22.5299 33.8306 22.3743 33.8306 22.1891C33.8306 21.9902 33.8442 21.8574 33.8646 21.8574C33.8855 21.8574 33.8985 21.6928 33.8985 21.4302C33.8985 21.133 33.9115 20.9904 33.9411 20.9614C33.9746 20.9284 33.9836 20.0316 33.9836 16.7017C33.9836 13.3718 33.9746 12.4749 33.9411 12.442C33.9115 12.413 33.8985 12.2707 33.8985 11.9751C33.8985 11.7276 33.8844 11.5413 33.8646 11.5293C33.8458 11.518 33.8306 11.3683 33.8306 11.1956C33.8306 11.0229 33.8153 10.8733 33.7966 10.8619C33.7779 10.8506 33.7626 10.7379 33.7626 10.6116C33.7626 10.4853 33.7472 10.3727 33.7285 10.3614C33.7099 10.35 33.6945 10.2674 33.6945 10.1778C33.6945 10.0882 33.6792 10.0056 33.6605 9.9943C33.6418 9.98295 33.6266 9.90036 33.6266 9.81076C33.6266 9.72116 33.6113 9.63857 33.5926 9.62722C33.5739 9.61588 33.5585 9.55489 33.5585 9.49174C33.5585 9.42859 33.5433 9.37695 33.5246 9.37695C33.5059 9.37695 33.4906 9.31688 33.4906 9.24347C33.4906 9.17005 33.4753 9.10999 33.4566 9.10999C33.4379 9.10999 33.4226 9.06494 33.4226 9.00988C33.4226 8.95482 33.4072 8.90977 33.3885 8.90977C33.3699 8.90977 33.3545 8.86472 33.3545 8.80966C33.3545 8.7546 33.3392 8.70955 33.3205 8.70955C33.3018 8.70955 33.2866 8.68327 33.2867 8.65115C33.287 8.57465 33.1749 8.26222 33.142 8.24796C33.128 8.24178 33.1166 8.21692 33.1166 8.19265C33.1166 8.15152 32.9845 7.87905 32.9465 7.84193C32.9371 7.83275 32.9066 7.78019 32.8787 7.72513C32.8508 7.67007 32.8011 7.60074 32.7683 7.57104C32.7354 7.54134 32.7085 7.49997 32.7085 7.47894C32.7085 7.458 32.6627 7.39376 32.6066 7.33612C32.5504 7.27847 32.5046 7.21841 32.5046 7.20255C32.5046 7.11763 31.6872 6.3809 31.476 6.27553C31.4246 6.24992 31.3826 6.21639 31.3826 6.20112C31.3826 6.18594 31.3519 6.17342 31.3145 6.17342C31.2771 6.17342 31.2465 6.1584 31.2465 6.14005C31.2465 6.1217 31.2159 6.10668 31.1785 6.10668C31.1411 6.10668 31.1105 6.09442 31.1105 6.07948C31.1105 6.04061 30.8444 5.90646 30.7673 5.90646C30.7317 5.90646 30.7026 5.89144 30.7026 5.87309C30.7026 5.85474 30.6719 5.83972 30.6345 5.83972C30.5971 5.83972 30.5665 5.8247 30.5665 5.80635C30.5665 5.788 30.5283 5.77298 30.4816 5.77298C30.4348 5.77298 30.3965 5.75796 30.3965 5.73961C30.3965 5.72126 30.3583 5.70624 30.3116 5.70624C30.2648 5.70624 30.2265 5.69122 30.2265 5.67287C30.2265 5.65452 30.1816 5.6395 30.1266 5.6395C30.0716 5.6395 30.0171 5.62448 30.0055 5.60613C29.994 5.58778 29.9404 5.57276 29.8865 5.57276C29.8327 5.57276 29.7791 5.55774 29.7675 5.53939C29.756 5.52104 29.6939 5.50602 29.6295 5.50602C29.5652 5.50602 29.5126 5.491 29.5126 5.47265C29.5126 5.4543 29.4361 5.43928 29.3426 5.43928C29.2491 5.43928 29.1726 5.42426 29.1726 5.40591C29.1726 5.38756 29.0893 5.37254 28.9876 5.37254C28.8858 5.37254 28.7931 5.35752 28.7815 5.33917C28.77 5.32082 28.6629 5.3058 28.5435 5.3058C28.4242 5.3058 28.3171 5.29078 28.3055 5.27243C28.294 5.25408 28.1707 5.23906 28.0315 5.23906C27.8856 5.23906 27.7785 5.22496 27.7785 5.20569C27.7785 5.18583 27.6505 5.17232 27.4623 5.17232C27.2884 5.17232 27.1316 5.1583 27.1138 5.1412C27.0961 5.12402 26.9362 5.10174 26.7585 5.09165C26.5809 5.08155 26.2366 5.05811 25.9935 5.03951C24.6848 4.9394 23.3284 4.88033 22.228 4.87549C21.7148 4.87324 21.4205 4.85981 21.4205 4.83862C21.4205 4.7924 12.5586 4.7924 12.5295 4.83862ZM9.01989 5.06136C8.94279 5.11042 8.8606 5.1855 8.83739 5.22821C8.8141 5.27084 8.78231 5.3058 8.76676 5.3058C8.75129 5.3058 8.73854 5.35085 8.73854 5.40591C8.73854 5.46097 8.72324 5.50602 8.70454 5.50602C8.68584 5.50602 8.67054 5.53605 8.67054 5.57276C8.67054 5.60947 8.6838 5.6395 8.69995 5.6395C8.7161 5.6395 8.75639 5.71083 8.78945 5.79801C9.03544 6.44614 9.867 6.4675 10.0308 5.82988C10.0506 5.75271 10.0816 5.6551 10.0997 5.61289C10.1425 5.51294 10.1418 5.37254 10.0985 5.37254C10.0798 5.37254 10.0645 5.34951 10.0645 5.3214C10.0645 5.25499 9.8443 5.03884 9.77664 5.03884C9.748 5.03884 9.72454 5.02382 9.72454 5.00547C9.72454 4.92355 9.16702 4.96776 9.01989 5.06136ZM6.23954 5.20569C6.22798 5.22404 6.10558 5.23906 5.96754 5.23906C5.8295 5.23906 5.7071 5.25408 5.69554 5.27243C5.68398 5.29078 5.57688 5.3058 5.45754 5.3058C5.3382 5.3058 5.2311 5.32082 5.21954 5.33917C5.20798 5.35752 5.11524 5.37254 5.0135 5.37254C4.91175 5.37254 4.82854 5.38756 4.82854 5.40591C4.82854 5.42426 4.75204 5.43928 4.65854 5.43928C4.56504 5.43928 4.48854 5.4543 4.48854 5.47265C4.48854 5.491 4.43592 5.50602 4.37158 5.50602C4.30723 5.50602 4.2451 5.52104 4.23354 5.53939C4.22198 5.55774 4.16843 5.57276 4.11454 5.57276C4.06065 5.57276 4.0071 5.58778 3.99554 5.60613C3.98398 5.62448 3.92949 5.6395 3.8745 5.6395C3.8195 5.6395 3.77454 5.65452 3.77454 5.67287C3.77454 5.69122 3.74487 5.70624 3.70858 5.70624C3.67228 5.70624 3.6331 5.72126 3.62154 5.73961C3.60998 5.75796 3.56314 5.77298 3.5175 5.77298C3.47185 5.77298 3.43454 5.788 3.43454 5.80635C3.43454 5.8247 3.40394 5.83972 3.36654 5.83972C3.32914 5.83972 3.29854 5.85474 3.29854 5.87309C3.29854 5.89144 3.26938 5.90646 3.23377 5.90646C3.15667 5.90646 2.89054 6.04061 2.89054 6.07948C2.89054 6.09442 2.85994 6.10668 2.82254 6.10668C2.78514 6.10668 2.75454 6.1217 2.75454 6.14005C2.75454 6.1584 2.72394 6.17342 2.68654 6.17342C2.64914 6.17342 2.61854 6.18594 2.61854 6.20112C2.61854 6.21639 2.57646 6.24992 2.52504 6.27553C2.3139 6.3809 1.49654 7.11763 1.49654 7.20255C1.49654 7.21841 1.45064 7.27847 1.39454 7.33612C1.33844 7.39376 1.29253 7.458 1.29253 7.47894C1.29253 7.49997 1.26567 7.54134 1.23278 7.57104C1.19997 7.60074 1.15024 7.67007 1.12236 7.72513C1.09448 7.78019 1.06397 7.83275 1.05462 7.84193C1.01399 7.88164 0.952535 8.01203 0.952535 8.05841C0.952535 8.08619 0.937235 8.10889 0.918535 8.10889C0.899835 8.10889 0.884535 8.13892 0.884535 8.17563C0.884535 8.21233 0.869235 8.24237 0.850535 8.24237C0.831835 8.24237 0.816535 8.26314 0.816535 8.28858C0.816535 8.31403 0.79367 8.37785 0.765705 8.43041C0.737825 8.48296 0.714875 8.56731 0.714705 8.61778C0.71462 8.66825 0.699235 8.70955 0.680535 8.70955C0.661835 8.70955 0.646535 8.7546 0.646535 8.80966C0.646535 8.86472 0.631235 8.90977 0.612535 8.90977C0.593835 8.90977 0.578535 8.95482 0.578535 9.00988C0.578535 9.06494 0.563235 9.10999 0.544535 9.10999C0.525835 9.10999 0.510535 9.16163 0.510535 9.22478C0.510535 9.28793 0.495235 9.34892 0.476535 9.36026C0.457835 9.37161 0.442535 9.43168 0.442535 9.49374C0.442535 9.55581 0.427235 9.61588 0.408535 9.62722C0.389835 9.63857 0.374535 9.72116 0.374535 9.81076C0.374535 9.90036 0.359235 9.98295 0.340535 9.9943C0.321835 10.0056 0.306535 10.0882 0.306535 10.1778C0.306535 10.2674 0.291235 10.35 0.272535 10.3614C0.253835 10.3727 0.238535 10.4853 0.238535 10.6116C0.238535 10.7379 0.223235 10.8506 0.204535 10.8619C0.18575 10.8733 0.170534 11.0229 0.170534 11.1956C0.170534 11.3683 0.155319 11.518 0.136534 11.5293C0.116729 11.5413 0.102534 11.7276 0.102534 11.9751C0.102534 12.2707 0.0896144 12.413 0.0600344 12.442C-0.00227059 12.5031 -0.00227059 20.9002 0.0600344 20.9614C0.0896144 20.9904 0.102534 21.133 0.102534 21.4302C0.102534 21.6928 0.115624 21.8574 0.136534 21.8574C0.156934 21.8574 0.170534 21.9902 0.170534 22.1891C0.170534 22.3743 0.18558 22.5299 0.204535 22.5414C0.223235 22.5528 0.238535 22.6663 0.238535 22.7937C0.238535 22.9259 0.253155 23.0253 0.272535 23.0253C0.291405 23.0253 0.306535 23.1143 0.306535 23.2255C0.306535 23.3367 0.321665 23.4258 0.340535 23.4258C0.359235 23.4258 0.374535 23.5008 0.374535 23.5926C0.374535 23.6844 0.389835 23.7595 0.408535 23.7595C0.427235 23.7595 0.442535 23.8195 0.442535 23.8929C0.442535 23.9663 0.457835 24.0264 0.476535 24.0264C0.495235 24.0264 0.510535 24.0781 0.510535 24.1412C0.510535 24.2044 0.525835 24.2653 0.544535 24.2767C0.563235 24.288 0.578535 24.349 0.578535 24.4122C0.578535 24.4753 0.593835 24.527 0.612535 24.527C0.631235 24.527 0.646535 24.5636 0.646535 24.6084C0.646535 24.6532 0.660135 24.6981 0.67671 24.7082C0.693285 24.7183 0.717425 24.7829 0.730345 24.852C0.7595 25.0075 1.07978 25.6588 1.16325 25.7322C1.19691 25.7619 1.22453 25.8074 1.22453 25.8333C1.22453 25.8592 1.25513 25.9021 1.29253 25.9285C1.32993 25.955 1.36054 25.996 1.36054 26.0196C1.36054 26.0432 1.40644 26.1097 1.46254 26.1674C1.51864 26.225 1.56454 26.2856 1.56454 26.3019C1.56454 26.3752 2.26672 26.9985 2.45704 27.0941C2.50846 27.12 2.55054 27.1536 2.55054 27.1689C2.55054 27.1841 2.57774 27.1966 2.61106 27.1966C2.64429 27.1966 2.69359 27.2266 2.72054 27.2633C2.74748 27.3 2.79678 27.3301 2.83002 27.3301C2.86334 27.3301 2.89054 27.3451 2.89054 27.3634C2.89054 27.3818 2.92114 27.3968 2.95854 27.3968C2.99594 27.3968 3.02654 27.4118 3.02654 27.4302C3.02654 27.4485 3.05714 27.4635 3.09454 27.4635C3.13194 27.4635 3.16254 27.4785 3.16254 27.4969C3.16254 27.5153 3.19314 27.5303 3.23054 27.5303C3.26794 27.5303 3.29854 27.5453 3.29854 27.5636C3.29854 27.582 3.34444 27.597 3.40054 27.597C3.45664 27.597 3.50254 27.612 3.50254 27.6304C3.50254 27.6487 3.5322 27.6638 3.5685 27.6638C3.60479 27.6638 3.64398 27.6788 3.65554 27.6971C3.6671 27.7155 3.71393 27.7305 3.75958 27.7305C3.80522 27.7305 3.84254 27.7455 3.84254 27.7639C3.84254 27.7822 3.89609 27.7972 3.96154 27.7972C4.02699 27.7972 4.08054 27.8122 4.08054 27.8306C4.08054 27.849 4.13315 27.864 4.1975 27.864C4.26184 27.864 4.32398 27.879 4.33554 27.8973C4.3471 27.9157 4.41688 27.9307 4.49058 27.9307C4.56427 27.9307 4.62454 27.9457 4.62454 27.9641C4.62454 27.9824 4.70104 27.9975 4.79454 27.9975C4.88804 27.9975 4.96454 28.0125 4.96454 28.0308C4.96454 28.0492 5.04775 28.0642 5.1495 28.0642C5.25124 28.0642 5.34398 28.0792 5.35554 28.0976C5.3671 28.1159 5.49043 28.1309 5.62958 28.1309C5.77552 28.1309 5.88254 28.145 5.88254 28.1643C5.88254 28.1837 5.99516 28.1977 6.1525 28.1977C6.30099 28.1977 6.43198 28.2127 6.44354 28.231C6.4551 28.2494 6.59832 28.2644 6.76178 28.2644C6.92523 28.2644 7.07347 28.2785 7.09124 28.2957C7.109 28.3129 7.28419 28.3352 7.48054 28.3451C7.67689 28.3551 8.03644 28.3776 8.27954 28.3951C9.12707 28.4561 9.98396 28.4929 10.617 28.4954C11.0176 28.4971 11.2545 28.5104 11.2545 28.5314C11.2545 28.5529 11.6115 28.5647 12.2575 28.5647C12.9035 28.5647 13.2605 28.5766 13.2605 28.5981C13.2605 28.6201 14.5298 28.6315 17.0005 28.6315C19.4712 28.6315 20.7405 28.6201 20.7405 28.5981C20.7405 28.5769 20.9949 28.5647 21.4355 28.5647C21.8622 28.5647 22.1386 28.5519 22.1515 28.5314C22.1631 28.513 22.2061 28.4978 22.2471 28.4975C22.3377 28.4968 22.5425 28.3264 22.5425 28.2516C22.5425 28.2219 22.5578 28.1977 22.5765 28.1977C22.5952 28.1977 22.6105 28.1601 22.6105 28.1142C22.6105 28.0684 22.6258 28.0308 22.6445 28.0308C22.6934 28.0308 22.6865 27.9056 22.6359 27.874C22.6124 27.8593 22.5723 27.7872 22.5468 27.7138C22.3694 27.2036 22.4818 27.2168 19.0405 27.3014C15.6206 27.3854 9.65484 27.2008 7.08954 26.9315C6.92124 26.9139 6.63819 26.8844 6.46054 26.8661C6.021 26.8207 5.27776 26.716 5.03254 26.665C4.63865 26.583 4.55594 26.5619 4.30154 26.4784C3.1571 26.1029 2.3904 25.3946 2.00875 24.3601C1.98503 24.2959 1.9535 24.2133 1.93854 24.1766C1.65294 23.4737 1.5035 22.2607 1.36028 19.484C1.31659 18.6362 1.31659 14.7671 1.36028 13.9194C1.50045 11.202 1.62251 10.1817 1.90972 9.32689C1.9818 9.11232 1.99532 9.07829 2.10514 8.83502C2.14441 8.74809 2.17654 8.67075 2.17654 8.66325C2.17654 8.62012 2.48126 8.16445 2.6142 8.00878C3.08689 7.45525 3.84755 7.01476 4.64154 6.83465C5.21699 6.70417 5.78411 6.61758 6.68154 6.52322C7.12235 6.47684 7.40905 6.23224 7.41177 5.90012C7.4122 5.85073 7.42784 5.80101 7.44654 5.78967C7.46524 5.77832 7.48054 5.72484 7.48054 5.67087C7.48054 5.61689 7.46524 5.57276 7.44654 5.57276C7.42784 5.57276 7.41254 5.54973 7.41254 5.52162C7.41254 5.49342 7.3595 5.41834 7.29464 5.35477C7.22987 5.29112 7.15337 5.23906 7.12464 5.23906C7.096 5.23906 7.07254 5.22404 7.07254 5.20569C7.07254 5.18533 6.91452 5.17232 6.66658 5.17232C6.43257 5.17232 6.25161 5.18642 6.23954 5.20569ZM13.7288 11.1188C13.6591 11.137 13.5516 11.1992 13.4898 11.2572C13.2605 11.4721 13.2775 11.0329 13.2775 16.737V21.9179L13.3831 22.0461C13.623 22.3374 13.9575 22.3944 14.2782 22.1988C14.3755 22.1395 14.4618 22.0909 14.4702 22.0909C14.4785 22.0909 14.5884 22.0258 14.7145 21.9462C15.2229 21.625 15.3343 21.557 15.3515 21.557C15.3613 21.557 15.4724 21.4917 15.5985 21.4119C15.7244 21.332 15.9346 21.202 16.0655 21.1229C16.1964 21.0437 16.3571 20.9463 16.4225 20.9063C16.488 20.8664 16.6486 20.7688 16.7795 20.6897C16.9104 20.6105 17.0976 20.4954 17.1955 20.434C17.2934 20.3726 17.389 20.3223 17.408 20.3223C17.427 20.3223 17.4425 20.3073 17.4425 20.289C17.4425 20.2706 17.4589 20.2556 17.4789 20.2556C17.4989 20.2556 17.5793 20.2124 17.6576 20.1595C17.7359 20.1067 17.8533 20.0336 17.9187 19.9971C17.9841 19.9606 18.3512 19.739 18.7345 19.5048C19.1179 19.2705 19.485 19.0489 19.5504 19.0125C19.6157 18.9759 19.7332 18.9029 19.8115 18.85C19.8898 18.7972 19.9627 18.7539 19.9736 18.7539C19.9845 18.7539 20.0964 18.6881 20.2225 18.6077C20.3484 18.5273 20.6198 18.3605 20.8255 18.237C21.0312 18.1136 21.2809 17.9608 21.3803 17.8975C21.4798 17.8343 21.6098 17.7553 21.6693 17.7221C21.8059 17.6458 22.2822 17.3569 22.4445 17.252C22.7696 17.0416 22.8549 16.6413 22.6383 16.3427C22.5692 16.2475 22.2006 15.9842 22.1364 15.9842C22.1167 15.9842 22.1005 15.9692 22.1005 15.9509C22.1005 15.9325 22.085 15.9175 22.066 15.9175C22.047 15.9175 21.9514 15.8673 21.8535 15.8058C21.7556 15.7444 21.5761 15.6336 21.4545 15.5596C21.333 15.4857 21.0805 15.3318 20.8935 15.2179C20.7065 15.1039 20.5233 14.9932 20.4863 14.9719C20.4494 14.9505 20.3317 14.8768 20.2247 14.8079C20.1177 14.7391 20.0209 14.6828 20.0095 14.6828C19.9982 14.6828 19.8987 14.6227 19.7885 14.5493C19.6784 14.4759 19.5721 14.4158 19.5524 14.4158C19.5327 14.4158 19.5165 14.4008 19.5165 14.3825C19.5165 14.3641 19.501 14.3491 19.482 14.3491C19.463 14.3491 19.3674 14.2982 19.2695 14.236C19.1716 14.1738 18.7855 13.9389 18.4115 13.7139C18.0375 13.4888 17.6676 13.2619 17.5894 13.2096C17.5112 13.1572 17.4384 13.1144 17.4274 13.1144C17.4164 13.1144 17.3274 13.0642 17.2295 13.0029C16.9138 12.805 16.5154 12.5614 16.1845 12.3638C16.0069 12.2578 15.7584 12.1055 15.6325 12.0254C15.5064 11.9453 15.3947 11.8797 15.3841 11.8797C15.3735 11.8797 15.2747 11.8196 15.1645 11.7462C15.0544 11.6728 14.9547 11.6127 14.943 11.6127C14.9314 11.6127 14.8579 11.5699 14.7797 11.5175C14.4879 11.3218 14.1715 11.1468 14.0495 11.1135C13.9052 11.0742 13.8993 11.0743 13.7288 11.1188ZM14.9004 13.0643C15.0257 13.1469 15.1376 13.2145 15.1488 13.2145C15.1601 13.2145 15.2333 13.2577 15.3116 13.3106C15.3899 13.3634 15.5073 13.4365 15.5727 13.473C15.6381 13.5095 15.8216 13.6187 15.9805 13.7157C16.1395 13.8128 16.4302 13.9893 16.6265 14.108C16.8229 14.2266 17.0242 14.3519 17.0738 14.3865C17.1235 14.421 17.1739 14.4492 17.1858 14.4492C17.1978 14.4492 17.321 14.5243 17.4595 14.6161C17.5981 14.7078 17.7209 14.7829 17.7324 14.7829C17.7439 14.7829 17.82 14.828 17.9015 14.883C17.9831 14.9381 18.0587 14.9831 18.0696 14.9831C18.0805 14.9831 18.2001 15.0534 18.3355 15.1392C18.6488 15.3378 19.0306 15.5722 19.2948 15.7278C19.3317 15.7495 19.4494 15.8236 19.5564 15.8925C19.6633 15.9613 19.7602 16.0176 19.7715 16.0176C19.7829 16.0176 19.8824 16.0777 19.9925 16.1511C20.1027 16.2245 20.209 16.2846 20.2287 16.2846C20.2484 16.2846 20.2645 16.2996 20.2645 16.3179C20.2645 16.3363 20.2793 16.3513 20.2974 16.3513C20.3297 16.3513 20.7171 16.5832 20.8 16.6523C20.872 16.7122 20.8524 16.7325 20.528 16.9332C20.3551 17.0402 20.1104 17.1934 19.9845 17.2735C19.8584 17.3536 19.7473 17.4191 19.7375 17.4191C19.7278 17.4191 19.6167 17.485 19.4906 17.5654C19.2247 17.7351 18.2058 18.3533 18.1055 18.4058C18.0681 18.4254 17.9496 18.4967 17.842 18.5643C17.7345 18.6319 17.5586 18.7425 17.451 18.8101C17.3435 18.8777 17.2249 18.949 17.1875 18.9686C17.0873 19.0211 16.0684 19.6393 15.8025 19.809C15.6764 19.8894 15.5653 19.9553 15.5555 19.9553C15.5458 19.9553 15.4347 20.0204 15.3086 20.1C14.7835 20.4317 14.7003 20.481 14.6282 20.5035L14.5525 20.5271V16.7206C14.5525 12.3669 14.5106 12.8077 14.9004 13.0643ZM24.2554 27.2129C24.0247 27.3487 23.7281 28.0642 23.9025 28.0642C23.9212 28.0642 23.9365 28.083 23.9365 28.1059C23.9368 28.3455 24.5049 28.5422 24.8522 28.4229C24.9758 28.3805 25.1945 28.1946 25.1945 28.132C25.1945 28.1131 25.2098 28.0976 25.2285 28.0976C25.2472 28.0976 25.2625 28.0534 25.2625 27.9995C25.2625 27.9455 25.2778 27.892 25.2965 27.8807C25.3459 27.8507 25.3383 27.7305 25.2869 27.7305C25.263 27.7305 25.224 27.6658 25.2002 27.5867C25.0796 27.1862 24.6139 27.002 24.2554 27.2129Z" fill="#050404"/>
<path fill-rule="evenodd" clip-rule="evenodd" d="M14.5868 16.6996C14.5868 20.6197 14.582 20.5103 14.7485 20.3956C14.7998 20.3603 14.9412 20.2717 15.0628 20.1987C15.1843 20.1257 15.4138 19.9863 15.5728 19.889C15.7317 19.7917 16.076 19.5844 16.3378 19.4284C16.5996 19.2724 16.8777 19.1018 16.9559 19.0494C17.0341 18.9969 17.1069 18.954 17.1178 18.954C17.1287 18.954 17.2406 18.8882 17.3667 18.8078C17.4927 18.7274 17.7641 18.5604 17.9698 18.4368C18.1755 18.3132 18.4394 18.1537 18.5563 18.0824C18.6731 18.0113 18.872 17.8906 18.9983 17.8144C19.1245 17.7383 19.3309 17.6106 19.4568 17.5308C19.5829 17.451 19.694 17.3856 19.7038 17.3856C19.7135 17.3856 19.8246 17.32 19.9507 17.2398C20.0767 17.1596 20.3136 17.0132 20.4772 16.9145C20.6408 16.8157 20.7699 16.7209 20.7641 16.7039C20.7548 16.6761 20.0257 16.2141 19.7209 16.0428C19.6556 16.0061 19.5381 15.9328 19.4598 15.88C19.3815 15.8271 19.3011 15.7839 19.2811 15.7839C19.2612 15.7839 19.2448 15.7689 19.2448 15.7505C19.2448 15.7322 19.2292 15.7171 19.2103 15.7171C19.1912 15.7171 19.0956 15.6665 18.9978 15.6047C18.8998 15.5429 18.552 15.3309 18.2248 15.1337C17.8975 14.9365 17.5267 14.7094 17.4007 14.6289C17.2746 14.5484 17.163 14.4824 17.1523 14.4824C17.1417 14.4824 17.0429 14.4224 16.9328 14.349C16.8226 14.2756 16.7238 14.2155 16.7132 14.2155C16.7026 14.2155 16.5909 14.1501 16.4648 14.0702C16.3389 13.9902 16.0675 13.8231 15.8618 13.6986C15.6561 13.5741 15.4077 13.4218 15.3098 13.36C15.2119 13.2983 15.1163 13.2478 15.0973 13.2478C15.0783 13.2478 15.0628 13.2327 15.0628 13.2144C15.0628 13.196 15.0464 13.181 15.0264 13.181C15.0064 13.181 14.9233 13.136 14.8418 13.0809C14.5614 12.8916 14.5868 12.5328 14.5868 16.6996Z" fill="#FBFBFB"/>
<path fill-rule="evenodd" clip-rule="evenodd" d="M11.3478 5.55605C11.3677 5.59276 11.4027 5.68536 11.4258 5.76178C11.4652 5.89301 11.6676 6.14003 11.7357 6.14003C11.7528 6.14003 11.7121 6.09281 11.6451 6.03508C11.5244 5.93097 11.4246 5.75202 11.4246 5.63948C11.4246 5.60728 11.3991 5.56031 11.3681 5.53511C11.3175 5.49415 11.3154 5.49632 11.3478 5.55605ZM10.0687 5.73959C10.0659 5.76712 10.0551 5.82719 10.0448 5.87307C10.0284 5.94515 10.0312 5.9484 10.0645 5.8971C10.0856 5.86448 10.0964 5.80441 10.0884 5.76362C10.0804 5.7229 10.0715 5.71206 10.0687 5.73959ZM8.74205 5.78965C8.73346 6.03208 9.10576 6.34025 9.40709 6.34025C9.56782 6.34025 9.79256 6.27118 9.79256 6.22171C9.79256 6.21253 9.74743 6.22796 9.69226 6.25599C9.35328 6.42802 8.89292 6.20686 8.77239 5.81417C8.75165 5.74643 8.74383 5.74009 8.74205 5.78965ZM7.41715 5.97877C7.41468 6.00939 7.4027 6.06195 7.39054 6.09557C7.37354 6.14278 7.37813 6.14804 7.41043 6.11884C7.43347 6.09807 7.44545 6.04551 7.43704 6.00205C7.42871 5.95866 7.4197 5.94815 7.41715 5.97877ZM9.91377 6.09832C9.84033 6.1905 9.83447 6.20594 9.89142 6.15705C9.95959 6.09865 10.0495 5.97318 10.0233 5.97318C10.0179 5.97318 9.96868 6.02949 9.91377 6.09832ZM13.1416 6.1734L12.4616 6.19226L13.2096 6.19526C13.621 6.19693 14.2406 6.18783 14.5866 6.17515L15.2156 6.15205L14.5186 6.1533C14.1352 6.15405 13.5156 6.16306 13.1416 6.1734ZM19.4146 6.1749C19.7231 6.18733 20.3275 6.19684 20.7576 6.19601L21.5396 6.19459L20.7746 6.17157C20.3538 6.15897 19.7495 6.14946 19.4316 6.15038L18.8536 6.15221L19.4146 6.1749ZM7.26644 6.29045C7.11642 6.4749 7.06372 6.48908 6.06956 6.61105C5.47073 6.68455 4.82915 6.79475 4.79558 6.82979C4.78563 6.84014 4.82346 6.83955 4.87956 6.82846C5.08313 6.78825 5.80461 6.67829 6.09506 6.64317C6.81841 6.55574 6.99478 6.52446 7.10588 6.46397C7.22156 6.4009 7.37847 6.24815 7.37856 6.19843C7.37856 6.15755 7.36615 6.16773 7.26644 6.29045ZM22.1346 6.24006C22.3993 6.26575 23.3806 6.28277 23.3558 6.26125C23.3479 6.25457 23.0126 6.24148 22.6106 6.23222C22.2079 6.22296 21.9941 6.22646 22.1346 6.24006ZM23.7326 6.30722C23.9208 6.33383 24.6401 6.35076 24.6138 6.32807C24.6059 6.32131 24.3624 6.30797 24.0726 6.29837C23.7545 6.28778 23.6197 6.29128 23.7326 6.30722ZM24.9056 6.37387C25.0752 6.40107 25.6946 6.418 25.6678 6.39465C25.6599 6.38789 25.447 6.37429 25.1946 6.36445C24.9039 6.3531 24.7979 6.35652 24.9056 6.37387ZM25.8746 6.44153C26.0264 6.46856 26.5449 6.48483 26.5178 6.46164C26.5099 6.45505 26.3276 6.44161 26.1126 6.43194C25.8621 6.42059 25.7766 6.42401 25.8746 6.44153ZM26.6396 6.50535C26.6957 6.52028 26.8181 6.53422 26.9116 6.5363C27.0051 6.53839 27.204 6.55582 27.3536 6.57509C27.5032 6.59437 27.7556 6.62615 27.9146 6.64567C28.3833 6.70324 29.0036 6.80385 29.2353 6.85999C29.354 6.88877 29.4577 6.90579 29.4657 6.89795C29.4798 6.88402 29.197 6.81419 28.8496 6.7457C28.4496 6.66695 27.3011 6.52721 26.7756 6.49342C26.6176 6.48324 26.5719 6.48725 26.6396 6.50535ZM4.57356 6.87417C4.48694 6.91071 4.57628 6.91071 4.69256 6.87417C4.7609 6.85273 4.76421 6.84723 4.70956 6.84648C4.67216 6.84598 4.61096 6.85841 4.57356 6.87417ZM4.35256 6.94091C4.30725 6.9697 4.30725 6.97328 4.35256 6.97328C4.38061 6.97328 4.42651 6.95868 4.45456 6.94091C4.49986 6.91213 4.49986 6.90855 4.45456 6.90855C4.42651 6.90855 4.38061 6.92314 4.35256 6.94091ZM3.55356 7.26777C3.31258 7.39834 3.08886 7.55401 3.00981 7.64611L2.94207 7.72511L3.02681 7.65479C3.14394 7.55759 3.52678 7.30815 3.56019 7.30724C3.58977 7.3064 3.76869 7.17609 3.74056 7.17584C3.73121 7.17576 3.64706 7.21714 3.55356 7.26777ZM30.2606 7.18744C30.2606 7.2027 30.6301 7.41811 30.6856 7.43521C30.7043 7.44097 30.689 7.42103 30.6516 7.39083C30.5752 7.32934 30.2606 7.16566 30.2606 7.18744ZM30.7366 7.47075C30.7366 7.49136 30.7497 7.50821 30.7658 7.50821C30.7819 7.50821 30.8645 7.56827 30.9495 7.64169C31.0345 7.7151 31.1128 7.77517 31.1235 7.77517C31.1343 7.77517 31.0784 7.71844 30.9993 7.64911C30.783 7.45932 30.7366 7.42778 30.7366 7.47075ZM2.59102 8.06115C2.43317 8.25745 2.21183 8.61843 2.12658 8.8189C2.04243 9.01645 2.09139 8.96331 2.21948 8.71787C2.4262 8.32185 2.44244 8.29599 2.61686 8.08384C2.71112 7.96913 2.77683 7.87611 2.76289 7.87711C2.74895 7.8782 2.6716 7.96096 2.59102 8.06115ZM31.3147 7.99733C31.4538 8.15283 31.6814 8.50422 31.8031 8.75124C31.9087 8.96573 31.9562 9.0107 31.8746 8.8189C31.7453 8.51498 31.3153 7.88229 31.2346 7.87711C31.2186 7.87611 31.2546 7.93017 31.3147 7.99733ZM1.9961 9.13308C1.96406 9.21784 1.94527 9.29459 1.95445 9.30352C1.96355 9.31245 1.98038 9.29134 1.99194 9.25655C2.0035 9.22185 2.02883 9.1516 2.04829 9.10055C2.06776 9.04949 2.07711 9.00127 2.06903 8.99326C2.06096 8.98534 2.02815 9.04824 1.9961 9.13308ZM1.89002 9.42941C1.87744 9.4783 1.87489 9.52576 1.88424 9.53494C1.89359 9.54412 1.91144 9.51167 1.92402 9.46278C1.93652 9.41381 1.93907 9.36634 1.92972 9.35716C1.92037 9.34799 1.90252 9.38044 1.89002 9.42941ZM32.0631 9.39637C32.0633 9.43158 32.0791 9.48288 32.0981 9.51041C32.1233 9.54695 32.1265 9.53344 32.1098 9.46036C32.0819 9.33764 32.0624 9.31103 32.0631 9.39637ZM1.82202 9.663C1.80944 9.71189 1.80689 9.75936 1.81624 9.76853C1.82559 9.77771 1.84344 9.74526 1.85602 9.69637C1.86852 9.6474 1.87107 9.59993 1.86172 9.59075C1.85237 9.58158 1.83452 9.61403 1.82202 9.663ZM32.1353 9.62721C32.1353 9.66392 32.1485 9.72398 32.1646 9.76069L32.1938 9.82743V9.76069C32.1938 9.72398 32.1806 9.66392 32.1646 9.62721L32.1353 9.56047V9.62721ZM1.75402 9.96333C1.74144 10.0122 1.73889 10.0597 1.74824 10.0689C1.75759 10.078 1.77544 10.0456 1.78802 9.9967C1.80052 9.94773 1.80307 9.90026 1.79372 9.89108C1.78437 9.88191 1.76652 9.91436 1.75402 9.96333ZM32.2033 9.92754C32.2033 9.96425 32.2165 10.0243 32.2326 10.061L32.2618 10.1278V10.061C32.2618 10.0243 32.2486 9.96425 32.2326 9.92754L32.2033 9.8608V9.92754ZM1.68517 10.3052C1.67123 10.3845 1.668 10.4573 1.67795 10.4671C1.70277 10.4914 1.74527 10.259 1.72606 10.2046C1.71756 10.1807 1.6992 10.226 1.68517 10.3052ZM32.2724 10.2612C32.2718 10.3163 32.2845 10.3914 32.3006 10.4281C32.3405 10.5194 32.3405 10.3669 32.3006 10.2446C32.2741 10.1632 32.2733 10.1636 32.2724 10.2612ZM1.61428 10.7605C1.60111 10.8638 1.59856 10.9565 1.60867 10.9664C1.6187 10.9762 1.63774 10.8998 1.65083 10.7964C1.66401 10.6931 1.66656 10.6004 1.65644 10.5906C1.64641 10.5808 1.62737 10.6572 1.61428 10.7605ZM32.3426 10.6784C32.3426 10.7426 32.3543 10.8402 32.3686 10.8953L32.3945 10.9954V10.8786C32.3945 10.8144 32.3829 10.7167 32.3686 10.6617L32.3426 10.5616V10.6784ZM13.8301 11.069C13.8721 11.077 13.941 11.077 13.9831 11.069C14.0251 11.061 13.9907 11.0545 13.9066 11.0545C13.8224 11.0545 13.788 11.061 13.8301 11.069ZM13.5054 11.1778C13.3527 11.2865 13.3004 11.3612 13.2362 11.5627C13.1898 11.7081 13.1745 21.684 13.2204 21.7977C13.2332 21.8292 13.2394 19.5917 13.2343 16.8256C13.2236 11.0162 13.2021 11.3445 13.6062 11.1523C13.6873 11.1137 13.7291 11.0814 13.6992 11.0805C13.6692 11.0796 13.582 11.1234 13.5054 11.1778ZM14.1786 11.1381C14.326 11.2162 14.5429 11.3446 14.9606 11.6011C15.3882 11.8636 15.3686 11.8523 15.3686 11.8356C15.3686 11.8001 14.2179 11.1063 14.1305 11.0891C14.091 11.0812 14.1123 11.103 14.1786 11.1381ZM1.54883 11.3394C1.53481 11.4736 1.53124 11.5911 1.54093 11.6006C1.56456 11.6238 1.61029 11.1961 1.59023 11.1397C1.58156 11.1154 1.56294 11.2053 1.54883 11.3394ZM32.4094 11.229C32.4084 11.3024 32.4198 11.43 32.4349 11.5126L32.4621 11.6628L32.4638 11.5293C32.4648 11.4559 32.4533 11.3283 32.4383 11.2457L32.4111 11.0955L32.4094 11.229ZM1.4793 12.122C1.46613 12.2945 1.46196 12.4644 1.47004 12.4997C1.47811 12.5349 1.4969 12.4017 1.51177 12.2035C1.52673 12.0055 1.5309 11.8355 1.52104 11.8259C1.51126 11.8163 1.49248 11.9495 1.4793 12.122ZM32.4793 11.9798C32.4789 12.0807 32.4897 12.2609 32.5034 12.3802L32.5282 12.5971L32.53 12.3802C32.531 12.2609 32.5202 12.0807 32.506 11.9798L32.4802 11.7963L32.4793 11.9798ZM15.4213 11.8744C15.4746 11.9207 15.7086 12.0531 15.7086 12.037C15.7086 12.0169 15.4446 11.8463 15.4135 11.8463C15.4 11.8463 15.4035 11.8589 15.4213 11.8744ZM15.8633 12.1413C15.9166 12.1877 16.1506 12.3201 16.1506 12.304C16.1506 12.2839 15.8866 12.1133 15.8555 12.1133C15.842 12.1133 15.8455 12.1259 15.8633 12.1413ZM16.1846 12.3255C16.1846 12.3405 16.252 12.3829 16.8816 12.765C17.0873 12.8899 17.29 13.0138 17.3321 13.0403C17.3741 13.0669 17.4086 13.0812 17.4086 13.0721C17.4086 13.0558 17.3186 12.998 16.6606 12.5911C16.3032 12.3701 16.1846 12.304 16.1846 12.3255ZM1.41215 13.2208C1.39915 13.4468 1.39379 13.6992 1.40008 13.7818C1.40637 13.8644 1.42431 13.6867 1.43986 13.3869C1.45542 13.087 1.46077 12.8346 1.45185 12.8258C1.44292 12.8171 1.42507 12.9948 1.41215 13.2208ZM32.5632 13.348C32.5728 13.6508 32.5866 13.9048 32.5937 13.9125C32.6158 13.9364 32.5994 13.2765 32.5719 13.031C32.5556 12.886 32.5523 13.0062 32.5632 13.348ZM17.4426 13.0944C17.4426 13.1018 17.4936 13.1373 17.556 13.1735C17.6184 13.2096 17.7102 13.2654 17.76 13.2974C17.8098 13.3295 17.8506 13.3486 17.8506 13.3399C17.8506 13.3219 17.4871 13.081 17.4601 13.081C17.4505 13.081 17.4426 13.087 17.4426 13.0944ZM18.0053 13.4427C18.0586 13.4891 18.2926 13.6215 18.2926 13.6054C18.2926 13.5853 18.0286 13.4147 17.9975 13.4147C17.984 13.4147 17.9875 13.4273 18.0053 13.4427ZM18.3266 13.6264C18.3266 13.6357 18.4375 13.7099 18.5731 13.7913C18.7086 13.8726 18.9496 14.0183 19.1086 14.1149C19.2675 14.2116 19.4894 14.3458 19.6016 14.4133C19.7138 14.4807 19.8476 14.5632 19.8991 14.5965C19.9536 14.6318 19.9926 14.6416 19.9926 14.6199C19.9926 14.5994 19.9771 14.5827 19.9581 14.5827C19.9393 14.5827 19.8207 14.5168 19.6946 14.4364C19.0673 14.0361 18.3266 13.5974 18.3266 13.6264ZM1.34891 14.7382C1.32197 15.4082 1.32741 18.2765 1.35665 18.8374C1.36812 19.0576 1.37756 18.1003 1.37756 16.71C1.37756 15.3197 1.37611 14.1822 1.37441 14.1822C1.37263 14.1822 1.36115 14.4324 1.34891 14.7382ZM32.6236 16.7017C32.6236 18.0782 32.633 19.0242 32.6445 18.804C32.656 18.5837 32.6654 17.6377 32.6654 16.7017C32.6654 15.7656 32.656 14.8196 32.6445 14.5994C32.633 14.3791 32.6236 15.3252 32.6236 16.7017ZM20.0453 14.6774C20.0986 14.7238 20.3326 14.8562 20.3326 14.8401C20.3326 14.82 20.0686 14.6494 20.0375 14.6494C20.024 14.6494 20.0275 14.662 20.0453 14.6774ZM20.4346 14.9119C20.4813 14.9492 20.5808 15.0118 20.6556 15.051C20.7852 15.1189 20.7876 15.1191 20.7066 15.0544C20.6598 15.017 20.5604 14.9544 20.4856 14.9152C20.3559 14.8473 20.3536 14.8471 20.4346 14.9119ZM20.9616 15.237C21.0428 15.2986 21.2166 15.3906 21.2166 15.3721C21.2166 15.3521 20.9496 15.1832 20.9198 15.1844C20.9054 15.185 20.9242 15.2086 20.9616 15.237ZM21.2506 15.3938C21.2506 15.4105 21.4769 15.5597 21.6341 15.6465C21.6943 15.6798 21.8315 15.7624 21.9391 15.83C22.0466 15.8976 22.1343 15.9412 22.1341 15.9268C22.1338 15.9126 22.054 15.8557 21.9567 15.8007C21.7437 15.6801 21.6506 15.6251 21.4716 15.5136C21.2753 15.3914 21.2506 15.378 21.2506 15.3938ZM22.3789 16.1001C22.5218 16.1941 22.6378 16.3021 22.6928 16.3921C22.7407 16.4706 22.7801 16.5183 22.7802 16.498C22.7812 16.3835 22.3165 15.9564 22.1859 15.952C22.1675 15.9513 22.2542 16.018 22.3789 16.1001ZM22.7892 16.7017C22.7895 16.7751 22.7965 16.8012 22.8046 16.7597C22.8128 16.7182 22.8124 16.6581 22.8039 16.6262C22.7954 16.5943 22.7887 16.6283 22.7892 16.7017ZM22.6091 17.137C22.5644 17.1837 22.3285 17.3433 22.0847 17.4916C21.841 17.64 21.5459 17.8196 21.4291 17.8906C20.9821 18.1624 20.7746 18.2951 20.7746 18.3094C20.7746 18.3175 20.7937 18.3131 20.8171 18.2998C20.938 18.2307 21.5981 17.8293 21.7606 17.726C21.8634 17.6606 21.9794 17.5908 22.0185 17.5709C22.2039 17.4759 22.6006 17.2019 22.6549 17.1312C22.7348 17.0273 22.7113 17.0303 22.6091 17.137ZM20.5767 18.4071C20.4959 18.4546 20.4372 18.5007 20.4461 18.5094C20.4618 18.5248 20.7406 18.3572 20.7406 18.3324C20.7406 18.3122 20.7297 18.3172 20.5767 18.4071ZM20.1877 18.6435C20.0799 18.71 19.9986 18.771 20.0068 18.779C20.015 18.7871 20.0907 18.7473 20.1748 18.6905C20.259 18.6336 20.3442 18.5871 20.3642 18.5871C20.3842 18.5871 20.4006 18.5721 20.4006 18.5537C20.4006 18.5098 20.4119 18.5051 20.1877 18.6435ZM19.5506 19.0306C19.3355 19.1636 19.0907 19.3122 19.0066 19.361C18.8527 19.4501 18.6735 19.5812 18.7686 19.535C18.9133 19.4646 19.9586 18.8192 19.9586 18.8001C19.9586 18.7786 19.9534 18.7816 19.5506 19.0306ZM1.4045 19.8218C1.40365 20.0145 1.41402 20.2773 1.42745 20.4058L1.45185 20.6393L1.45304 20.4058C1.45372 20.2773 1.44335 20.0145 1.43009 19.8218L1.40595 19.4714L1.4045 19.8218ZM32.5613 20.0165C32.5457 20.3163 32.5404 20.5688 32.5493 20.5775C32.572 20.5998 32.6151 19.8043 32.601 19.6216C32.5948 19.539 32.5768 19.7167 32.5613 20.0165ZM18.487 19.6742C18.38 19.7399 18.2926 19.8008 18.2926 19.8098C18.2926 19.8314 18.5251 19.702 18.6326 19.6206C18.7667 19.5191 18.6991 19.544 18.487 19.6742ZM18.0443 19.9432C17.9357 20.0091 17.854 20.0698 17.8625 20.0782C17.8777 20.0931 18.2586 19.8579 18.2586 19.8337C18.2586 19.8141 18.2496 19.8187 18.0443 19.9432ZM17.6466 20.1889C17.5624 20.2437 17.5054 20.2887 17.5198 20.2888C17.5494 20.289 17.8166 20.1199 17.8166 20.101C17.8166 20.0797 17.8031 20.0867 17.6466 20.1889ZM17.0977 20.5189C16.7065 20.7574 16.485 20.9101 16.7116 20.7851C16.7864 20.7439 16.9758 20.631 17.1327 20.5342C17.2895 20.4375 17.4348 20.3522 17.4557 20.3449C17.4765 20.3375 17.4859 20.324 17.4766 20.3149C17.4672 20.3058 17.2967 20.3976 17.0977 20.5189ZM1.47114 21.0398C1.47012 21.1499 1.48092 21.3226 1.49511 21.4235L1.52095 21.6071L1.5218 21.4402C1.52223 21.3485 1.51143 21.1758 1.49775 21.0565L1.47293 20.8396L1.47114 21.0398ZM16.3971 20.9418C16.2366 21.0363 16.1996 21.0856 16.3461 21.0098C16.4488 20.9566 16.5854 20.8588 16.5586 20.8577C16.5492 20.8573 16.4765 20.8951 16.3971 20.9418ZM32.4894 21.1998C32.4744 21.3979 32.4702 21.5679 32.4801 21.5775C32.5036 21.6005 32.55 20.9864 32.5311 20.9036C32.523 20.8684 32.5042 21.0017 32.4894 21.1998ZM15.9527 21.2102C15.8719 21.2577 15.8132 21.3037 15.8221 21.3125C15.8378 21.3279 16.1166 21.1603 16.1166 21.1355C16.1166 21.1153 16.1057 21.1203 15.9527 21.2102ZM15.3565 21.5745C15.1348 21.7117 14.9465 21.824 14.9381 21.824C14.9297 21.824 14.8357 21.8812 14.7292 21.9511C14.6227 22.0211 14.4629 22.1193 14.3741 22.1695C14.2852 22.2196 14.2126 22.2689 14.2126 22.2791C14.2126 22.3015 14.4647 22.1594 14.7334 21.9854C14.8423 21.915 14.939 21.8574 14.9483 21.8574C14.9577 21.8574 15.032 21.8123 15.1136 21.7572C15.1951 21.7022 15.2707 21.6571 15.2816 21.6571C15.3063 21.6571 15.7766 21.3513 15.7766 21.3352C15.7766 21.3148 15.7683 21.3195 15.3565 21.5745ZM32.419 22.0024C32.4058 22.1399 32.4022 22.2724 32.4109 22.2968C32.4196 22.3213 32.4382 22.2165 32.4523 22.064C32.4665 21.9115 32.4701 21.779 32.4605 21.7695C32.4508 21.7601 32.4321 21.8648 32.419 22.0024ZM1.53744 21.8907C1.53693 21.955 1.54841 22.0826 1.56303 22.1744L1.58946 22.3412L1.5921 22.1911C1.59346 22.1085 1.58198 21.9808 1.56651 21.9074L1.53838 21.7739L1.53744 21.8907ZM13.2607 21.9278C13.2606 21.9903 13.5208 22.2912 13.5751 22.2912C13.5954 22.2912 13.556 22.2424 13.4877 22.1827C13.4193 22.1231 13.3404 22.0292 13.3122 21.9742C13.284 21.9191 13.2609 21.8982 13.2607 21.9278ZM13.6686 22.3245C13.6966 22.3423 13.7502 22.3561 13.7876 22.3551L13.8556 22.3532L13.7876 22.3245C13.6859 22.2817 13.601 22.2817 13.6686 22.3245ZM14.0256 22.3245L13.9576 22.3532L14.0256 22.3551C14.063 22.3561 14.1165 22.3423 14.1446 22.3245C14.2121 22.2817 14.1272 22.2817 14.0256 22.3245ZM1.60391 22.5248C1.60315 22.5706 1.61513 22.6683 1.6306 22.7417L1.65874 22.8751L1.65925 22.7417C1.6595 22.6683 1.64752 22.5706 1.63256 22.5248L1.60536 22.4413L1.60391 22.5248ZM32.3506 22.603C32.3379 22.6862 32.3345 22.7739 32.3431 22.798C32.3516 22.8221 32.3701 22.7619 32.384 22.6644C32.3981 22.5669 32.4015 22.4792 32.3916 22.4695C32.3818 22.4599 32.3633 22.5199 32.3506 22.603ZM1.67336 22.9919C1.67336 23.0378 1.6856 23.1129 1.70056 23.1588L1.72776 23.2422V23.1588C1.72776 23.1129 1.71552 23.0378 1.70056 22.9919L1.67336 22.9085V22.9919ZM32.2911 22.9919C32.2781 23.0378 32.2687 23.1129 32.2701 23.1588C32.2724 23.2306 32.2773 23.2267 32.3055 23.1304C32.3235 23.069 32.333 22.9939 32.3266 22.9636C32.3183 22.9247 32.3079 22.933 32.2911 22.9919ZM1.73847 23.359C1.74008 23.3865 1.7536 23.4466 1.76856 23.4925L1.79576 23.5759L1.79865 23.4925C1.80026 23.4466 1.78666 23.3865 1.76856 23.359C1.73923 23.3145 1.73592 23.3145 1.73847 23.359ZM32.2197 23.377C32.2081 23.4068 32.1999 23.4638 32.2016 23.5036C32.2038 23.5548 32.2143 23.5432 32.2376 23.4638C32.2714 23.3483 32.2576 23.2804 32.2197 23.377ZM1.80545 23.6593C1.80647 23.6869 1.82049 23.7394 1.83656 23.7761L1.8658 23.8429L1.86767 23.7761C1.86869 23.7394 1.85466 23.6869 1.83656 23.6593C1.80723 23.6149 1.80383 23.6149 1.80545 23.6593ZM32.1538 23.6721C32.141 23.7048 32.1315 23.7566 32.1327 23.7872C32.1341 23.8241 32.146 23.8157 32.1677 23.7623C32.1857 23.718 32.1953 23.6662 32.1888 23.6472C32.1823 23.6282 32.1666 23.6394 32.1538 23.6721ZM1.87345 23.8929C1.87447 23.9205 1.88849 23.973 1.90456 24.0097L1.9338 24.0765L1.93567 24.0097C1.93669 23.973 1.92266 23.9205 1.90456 23.8929C1.87523 23.8485 1.87183 23.8485 1.87345 23.8929ZM32.0858 23.9057C32.073 23.9384 32.0635 23.9902 32.0647 24.0208C32.0661 24.0577 32.078 24.0493 32.0997 23.9959C32.1177 23.9516 32.1273 23.8998 32.1208 23.8808C32.1143 23.8618 32.0986 23.873 32.0858 23.9057ZM2.26445 24.8607C2.48315 25.3015 3.41118 26.2296 3.52321 26.1196C3.53163 26.1113 3.4377 26.04 3.31445 25.9612C2.96459 25.7375 2.3497 25.0891 2.34579 24.9398C2.34537 24.9238 2.31383 24.8732 2.27575 24.8273L2.20648 24.7439L2.26445 24.8607ZM31.7095 24.8428C31.6793 24.888 31.6546 24.9349 31.6546 24.947C31.6546 25.088 31.0324 25.7401 30.6874 25.9608C30.5637 26.0398 30.4695 26.1113 30.4779 26.1196C30.5885 26.2281 31.4969 25.3248 31.7355 24.869C31.8026 24.741 31.7875 24.7259 31.7095 24.8428ZM4.42056 26.4958C4.44861 26.5136 4.50216 26.5273 4.53956 26.5263L4.60756 26.5245L4.53956 26.4958C4.4379 26.4529 4.35298 26.4529 4.42056 26.4958ZM29.4786 26.4958C29.4085 26.5178 29.4056 26.523 29.4616 26.5253C29.499 26.5269 29.5525 26.5136 29.5806 26.4958C29.6402 26.458 29.5988 26.458 29.4786 26.4958ZM4.67556 26.561C4.79889 26.6105 5.26928 26.696 5.78056 26.762C5.93951 26.7825 6.16136 26.8129 6.27356 26.8296C6.56808 26.8734 7.09602 26.9003 6.91956 26.8625C6.84476 26.8464 6.704 26.8325 6.60676 26.8314C6.50952 26.8303 6.35652 26.8158 6.26676 26.7991C6.177 26.7823 5.96586 26.7513 5.79756 26.7303C5.41293 26.6823 5.14085 26.6367 4.87735 26.5764C4.65167 26.5247 4.56956 26.5184 4.67556 26.561ZM29.2066 26.5625L29.1216 26.5892L29.2066 26.5921C29.2533 26.5937 29.3145 26.5803 29.3426 26.5625C29.4075 26.5213 29.3376 26.5213 29.2066 26.5625ZM28.8836 26.6294C28.5856 26.6843 28.2569 26.7326 27.968 26.7639C27.8011 26.782 27.6557 26.8056 27.645 26.8165C27.6228 26.8389 28.0182 26.8056 28.2716 26.7639C28.3651 26.7483 28.5563 26.7176 28.6966 26.6956C28.944 26.6566 29.1738 26.5996 29.0706 26.6028C29.0425 26.6036 28.9584 26.6155 28.8836 26.6294ZM27.1496 26.8622C27.1094 26.8787 27.1859 26.8827 27.3366 26.872C27.4768 26.8619 27.5979 26.8482 27.6058 26.8416C27.6353 26.8164 27.2144 26.8355 27.1496 26.8622ZM7.07536 26.9087C7.08318 26.9155 7.23491 26.9294 7.41256 26.9395C7.63891 26.9523 7.68983 26.9493 7.58256 26.9295C7.42871 26.901 7.04893 26.8855 7.07536 26.9087ZM26.8776 26.9577C26.8215 26.9914 26.753 27.0477 26.7256 27.0827C26.6875 27.1313 26.6956 27.1291 26.7598 27.0733C26.8062 27.0329 26.8975 26.9772 26.9628 26.9494C27.0281 26.9216 27.0586 26.8983 27.0306 26.8977C27.0025 26.897 26.9337 26.924 26.8776 26.9577ZM7.78936 26.975C7.79718 26.9817 7.98716 26.9949 8.21156 27.0045C8.468 27.0155 8.56269 27.012 8.46656 26.9949C8.31483 26.9682 7.76216 26.9519 7.78936 26.975ZM8.70737 27.0421C8.71518 27.0488 8.92811 27.0624 9.18056 27.0723C9.47126 27.0836 9.57726 27.0802 9.46956 27.0628C9.2999 27.0357 8.6805 27.0187 8.70737 27.0421ZM9.79537 27.1088C9.80319 27.1156 10.0697 27.129 10.3876 27.1386C10.7325 27.149 10.8833 27.1455 10.7616 27.1299C10.5546 27.1033 9.76944 27.0862 9.79537 27.1088ZM24.8376 27.1597C25.0332 27.2486 25.2286 27.4826 25.2286 27.628C25.2286 27.6638 25.2423 27.7015 25.2589 27.7116C25.3068 27.7407 25.2425 27.5062 25.1748 27.4044C25.071 27.2486 24.867 27.096 24.7643 27.0972C24.7287 27.0976 24.7604 27.1247 24.8376 27.1597ZM11.2234 27.1757C11.2312 27.1826 11.6048 27.1958 12.0536 27.2053C12.5557 27.2158 12.7453 27.2123 12.5466 27.1965C12.2113 27.1697 11.1985 27.1538 11.2234 27.1757ZM21.4206 27.1966C21.1641 27.2152 21.1871 27.2179 21.6246 27.2214C21.926 27.2238 22.0911 27.2141 22.0496 27.1966C21.9749 27.1651 21.8553 27.1651 21.4206 27.1966ZM24.1184 27.2403C24.0031 27.3554 23.9027 27.5393 23.905 27.6304C23.9066 27.6901 23.9208 27.6707 23.9551 27.5617C23.9822 27.4752 24.0569 27.3566 24.1283 27.2864C24.1974 27.2187 24.2398 27.1641 24.2228 27.1652C24.2056 27.1663 24.1587 27.2001 24.1184 27.2403ZM14.2976 27.2667C15.5554 27.2931 18.3883 27.2933 19.6866 27.267C20.2382 27.2558 19.0295 27.2465 17.0006 27.2463C14.9716 27.2461 13.7553 27.2552 14.2976 27.2667ZM22.2609 27.3149C22.3397 27.3613 22.4428 27.4625 22.49 27.5398C22.5373 27.6171 22.576 27.6654 22.5761 27.6471C22.5768 27.5329 22.2779 27.2295 22.1653 27.2303C22.1391 27.2304 22.1821 27.2685 22.2609 27.3149ZM26.5757 27.3146C26.5641 27.3445 26.5558 27.394 26.5575 27.4246C26.5591 27.4552 26.5739 27.4359 26.5904 27.3818C26.6224 27.2765 26.6111 27.2244 26.5757 27.3146Z" fill="#950404"/>
<path fill-rule="evenodd" clip-rule="evenodd" d="M10.7964 5.5381C10.7838 5.55812 10.6404 5.5728 10.4572 5.5728C10.1146 5.5728 10.0992 5.58114 10.098 5.76743C10.0963 6.04307 9.74378 6.34031 9.41857 6.34031C9.10569 6.34031 8.74121 6.04407 8.73917 5.78804C8.73883 5.75041 8.72021 5.70161 8.69777 5.67959C8.64847 5.6312 8.46657 5.62594 8.46657 5.67291C8.46657 5.69335 8.30227 5.70628 8.04157 5.70628C7.80204 5.70628 7.61657 5.7198 7.61657 5.73732C7.61657 5.75442 7.58215 5.77319 7.54007 5.77903C7.47734 5.78779 7.46179 5.81382 7.45363 5.92319C7.43569 6.16228 7.31491 6.35016 7.1059 6.46403C6.9948 6.52451 6.82081 6.55538 6.09508 6.64331C4.84677 6.79465 4.13243 6.98085 3.55621 7.30504C2.9256 7.65993 2.5771 8.02834 2.21194 8.72627C2.1447 8.85474 2.06829 9.02743 2.04202 9.11003C2.01576 9.19262 1.9838 9.27521 1.97105 9.29356C1.95821 9.31191 1.93909 9.36447 1.92855 9.41036C1.91792 9.45624 1.89183 9.55385 1.87041 9.62726C1.19491 11.9431 1.19338 21.4589 1.86803 23.7678C1.88809 23.8366 1.91809 23.9418 1.93467 24.0014C1.98074 24.1675 2.04738 24.3425 2.11257 24.4682C2.12906 24.5 2.14258 24.5488 2.14258 24.5766C2.14258 24.6044 2.15788 24.6271 2.17658 24.6271C2.19528 24.6271 2.21092 24.6534 2.21134 24.6855C2.21177 24.7176 2.24203 24.7814 2.27858 24.8273C2.31513 24.8732 2.34539 24.9238 2.34581 24.9399C2.34734 24.9999 2.67493 25.4182 2.86414 25.6019C3.45982 26.1801 4.34297 26.5392 5.55958 26.698C5.69048 26.7151 5.90468 26.7446 6.03558 26.7636C6.16648 26.7826 6.41893 26.8123 6.59658 26.8296C6.77423 26.8469 7.07258 26.8769 7.25957 26.8963C8.16236 26.9898 10.0149 27.1036 11.6116 27.1636C13.9462 27.2513 21.3075 27.2603 21.7561 27.176C22.0687 27.1173 22.4553 27.3318 22.5605 27.6224C22.6542 27.8812 22.6869 27.9359 22.7255 27.898C22.7462 27.8777 22.9817 27.864 23.3104 27.864C23.9191 27.864 23.9005 27.8713 23.9022 27.6304C23.9029 27.5354 24.0098 27.3455 24.1183 27.2466C24.495 26.9034 25.1572 27.112 25.2598 27.6062L25.2822 27.7138L25.6889 27.7233C25.9166 27.7286 26.1255 27.718 26.1636 27.6991C26.201 27.6805 26.3004 27.6613 26.3846 27.6563L26.5376 27.6471L26.5576 27.4802C26.6061 27.0765 26.928 26.8295 27.4058 26.8295C27.485 26.8295 27.6433 26.8153 27.7577 26.798C27.872 26.7806 28.088 26.7503 28.2376 26.7304C29.6498 26.5433 30.513 26.2073 31.1393 25.601C31.3271 25.4192 31.6537 25.0008 31.6553 24.9399C31.6557 24.9238 31.686 24.8732 31.7226 24.8273C31.7591 24.7814 31.7894 24.7176 31.7898 24.6855C31.7902 24.6534 31.8059 24.6271 31.8246 24.6271C31.8433 24.6271 31.8586 24.6044 31.8586 24.5766C31.8586 24.5488 31.8721 24.5 31.8886 24.4682C31.9538 24.3425 32.0204 24.1675 32.0665 24.0014C32.083 23.9418 32.113 23.8366 32.1331 23.7678C32.4723 22.607 32.6697 19.4716 32.6285 15.9008C32.6092 14.236 32.5934 13.7891 32.5041 12.397C32.4258 11.1773 32.3128 10.3287 32.1441 9.694C32.1197 9.60223 32.09 9.48961 32.0783 9.44373C32.0665 9.39784 32.0444 9.33027 32.0292 9.29356C32.0139 9.25685 31.983 9.17426 31.9604 9.11003C31.7617 8.54407 31.1948 7.76096 30.8301 7.54839C30.7786 7.51836 30.7366 7.48207 30.7366 7.46772C30.7366 7.45329 30.7228 7.44152 30.706 7.44152C30.6892 7.44152 30.5779 7.38338 30.4588 7.3123C30.0696 7.08021 29.4351 6.87782 28.7306 6.76094C25.9488 6.29952 19.881 6.07035 13.5445 6.18739C12.0344 6.21526 11.8979 6.21326 11.7854 6.16078C11.6174 6.08253 11.4741 5.9231 11.4251 5.75992C11.3539 5.52275 11.3551 5.52358 11.0754 5.51307C10.9232 5.50731 10.8093 5.51749 10.7964 5.5381ZM14.0988 11.0755C14.1985 11.1036 14.6434 11.3623 15.1726 11.7001C15.2987 11.7805 15.4106 11.8464 15.4215 11.8464C15.4324 11.8464 15.5081 11.8914 15.5896 11.9465C15.6711 12.0015 15.7542 12.0466 15.7742 12.0466C15.7942 12.0466 15.8106 12.0616 15.8106 12.08C15.8106 12.0983 15.8261 12.1133 15.8451 12.1133C15.8641 12.1133 15.9597 12.1636 16.0576 12.2252C16.1555 12.2867 16.4039 12.4389 16.6096 12.5633C16.8153 12.6878 17.0867 12.8552 17.2126 12.9353C17.3387 13.0155 17.4504 13.0811 17.461 13.0811C17.4716 13.0811 17.5704 13.1411 17.6806 13.2145C17.7907 13.288 17.897 13.348 17.9167 13.348C17.9364 13.348 17.9526 13.363 17.9526 13.3814C17.9526 13.3997 17.969 13.4148 17.9889 13.4148C18.0089 13.4148 18.0892 13.4576 18.1674 13.5099C18.2456 13.5623 18.3255 13.6111 18.345 13.6184C18.3885 13.6348 19.3805 14.236 19.6946 14.4365C19.8207 14.5169 19.9393 14.5827 19.9581 14.5827C19.9771 14.5827 19.9926 14.5977 19.9926 14.6161C19.9926 14.6344 20.0081 14.6495 20.0271 14.6495C20.0597 14.6495 20.1309 14.6914 20.6216 15.0004C20.7338 15.0711 20.8562 15.1451 20.8936 15.1649C20.931 15.1849 21.096 15.2835 21.2604 15.3841C21.6074 15.5966 21.7193 15.664 21.9495 15.7995C22.0419 15.8539 22.1227 15.9102 22.1289 15.9246C22.1352 15.939 22.1551 15.9509 22.1732 15.9509C22.1914 15.9509 22.2958 16.0105 22.4053 16.0835C23.0728 16.5284 22.9219 17.1082 22.0185 17.5709C21.9794 17.5909 21.8634 17.6607 21.7606 17.726C21.6577 17.7914 21.4053 17.946 21.1996 18.0695C20.9939 18.193 20.7455 18.345 20.6476 18.4073C20.5497 18.4695 20.4541 18.5204 20.4351 18.5204C20.4161 18.5204 20.4006 18.5354 20.4006 18.5537C20.4006 18.5721 20.3842 18.5871 20.3642 18.5871C20.3442 18.5871 20.2611 18.6322 20.1796 18.6872C20.0981 18.7423 20.0224 18.7873 20.0115 18.7873C20.0006 18.7873 19.8887 18.8532 19.7626 18.9336C19.6367 19.014 19.3653 19.1809 19.1596 19.3046C18.6117 19.6339 18.3711 19.7811 18.1145 19.9436C17.9884 20.0234 17.8765 20.0888 17.8656 20.0888C17.8547 20.0888 17.7791 20.1338 17.6976 20.1889C17.6161 20.2439 17.5342 20.289 17.5158 20.289C17.4973 20.289 17.4772 20.3003 17.4709 20.314C17.4588 20.3407 17.3571 20.404 16.6096 20.8493C16.3478 21.0052 16.0697 21.1757 15.9915 21.2281C15.9133 21.2806 15.8399 21.3235 15.8284 21.3235C15.8169 21.3235 15.6941 21.3985 15.5556 21.4903C15.417 21.5821 15.2942 21.6572 15.2827 21.6572C15.2712 21.6572 15.1951 21.7022 15.1136 21.7573C15.0321 21.8123 14.9577 21.8574 14.9483 21.8574C14.939 21.8574 14.8403 21.9168 14.7289 21.9894C13.9218 22.5155 13.4039 22.4649 13.2345 21.8433C13.1731 21.618 13.1737 11.7846 13.2351 11.5549C13.3314 11.1946 13.7319 10.9722 14.0988 11.0755Z" fill="#FB0404"/>
<path fill-rule="evenodd" clip-rule="evenodd" d="M9.82606 6.14485C9.76061 6.20116 9.73783 6.23203 9.7754 6.21334C9.83753 6.18247 9.99155 6.0379 9.95883 6.04107C9.95126 6.04182 9.89151 6.08854 9.82606 6.14485ZM15.5321 6.1315C16.3423 6.13651 17.6581 6.13651 18.4561 6.1315C19.2542 6.12649 18.5912 6.12241 16.9831 6.12241C15.3749 6.12241 14.722 6.12649 15.5321 6.1315ZM13.2856 6.16445C13.3837 6.17121 13.5444 6.17121 13.6426 6.16445C13.7407 6.1577 13.6604 6.15219 13.4641 6.15219C13.2677 6.15219 13.1874 6.1577 13.2856 6.16445ZM20.3575 6.16445C20.4557 6.17121 20.6164 6.17121 20.7145 6.16445C20.8127 6.1577 20.7324 6.15219 20.536 6.15219C20.3397 6.15219 20.2594 6.1577 20.3575 6.16445ZM12.0965 6.19766C12.1764 6.20475 12.2988 6.20466 12.3685 6.19749C12.4381 6.19031 12.3727 6.18456 12.2231 6.18464C12.0735 6.18481 12.0165 6.19065 12.0965 6.19766ZM21.7345 6.19799C21.8608 6.20441 22.0673 6.20441 22.1935 6.19799C22.3198 6.19157 22.2165 6.18631 21.964 6.18631C21.7116 6.18631 21.6083 6.19157 21.7345 6.19799ZM22.5505 6.23053C22.602 6.23812 22.6861 6.23812 22.7375 6.23053C22.789 6.22285 22.7469 6.21659 22.644 6.21659C22.5412 6.21659 22.4991 6.22285 22.5505 6.23053ZM7.18893 6.34841L7.08906 6.45686L7.19956 6.35883C7.30258 6.26748 7.3257 6.23995 7.29944 6.23995C7.29357 6.23995 7.24384 6.28876 7.18893 6.34841ZM23.4855 6.2644C23.565 6.2714 23.6951 6.2714 23.7745 6.2644C23.854 6.25739 23.789 6.25163 23.63 6.25163C23.4711 6.25163 23.4061 6.25739 23.4855 6.2644ZM24.03 6.29693C24.0722 6.30494 24.1334 6.30461 24.166 6.29626C24.1984 6.28792 24.1638 6.28133 24.089 6.28175C24.0142 6.28208 23.9876 6.28892 24.03 6.29693ZM24.7088 6.3308C24.7691 6.33814 24.8762 6.33831 24.9468 6.33105C25.0173 6.32379 24.9679 6.31779 24.837 6.31762C24.7061 6.31746 24.6484 6.32338 24.7088 6.3308ZM25.1685 6.36309C25.2013 6.37143 25.2548 6.37143 25.2875 6.36309C25.3203 6.35466 25.2935 6.34782 25.228 6.34782C25.1626 6.34782 25.1358 6.35466 25.1685 6.36309ZM25.6728 6.38561C25.6807 6.39229 25.8094 6.40614 25.959 6.41623C26.1544 6.42941 26.1927 6.42658 26.095 6.40597C25.9599 6.37744 25.6458 6.36234 25.6728 6.38561ZM26.5228 6.45269C26.5307 6.45953 26.6288 6.47354 26.741 6.4838C26.8752 6.49607 26.9101 6.49315 26.843 6.47521C26.7382 6.44726 26.4976 6.43033 26.5228 6.45269ZM27.2425 6.52994C27.2753 6.53828 27.3288 6.53828 27.3615 6.52994C27.3943 6.52151 27.3675 6.51467 27.302 6.51467C27.2366 6.51467 27.2098 6.52151 27.2425 6.52994ZM27.8148 6.58592C27.8227 6.59267 27.8902 6.60736 27.965 6.61854C28.0598 6.63264 28.0805 6.62963 28.033 6.60861C27.9678 6.57958 27.7857 6.56064 27.8148 6.58592ZM2.97294 7.64984L2.87306 7.75829L2.98356 7.66027C3.04434 7.60637 3.09406 7.55757 3.09406 7.55182C3.09406 7.52604 3.06601 7.54873 2.97294 7.64984ZM30.906 7.55182C30.906 7.55757 30.9558 7.60637 31.0165 7.66027L31.127 7.75829L31.0272 7.64984C30.9341 7.54873 30.906 7.52604 30.906 7.55182ZM1.57197 11.0119C1.57197 11.0761 1.57894 11.1024 1.58753 11.0703C1.59603 11.0382 1.59603 10.9856 1.58753 10.9535C1.57894 10.9214 1.57197 10.9476 1.57197 11.0119ZM32.4099 11.0119C32.4099 11.0761 32.4169 11.1024 32.4255 11.0703C32.434 11.0382 32.434 10.9856 32.4255 10.9535C32.4169 10.9214 32.4099 10.9476 32.4099 11.0119ZM1.50533 11.6793C1.50533 11.7619 1.51196 11.7957 1.52004 11.7544C1.5282 11.7131 1.5282 11.6455 1.52004 11.6042C1.51196 11.5629 1.50533 11.5967 1.50533 11.6793ZM32.4786 11.696C32.479 11.7694 32.4859 11.7955 32.4941 11.7539C32.5023 11.7125 32.5019 11.6524 32.4934 11.6205C32.4849 11.5886 32.4782 11.6226 32.4786 11.696ZM13.2426 16.7182C13.2426 19.4804 13.2466 20.6104 13.2516 19.2293C13.2565 17.8482 13.2565 15.5882 13.2516 14.2071C13.2466 12.826 13.2426 13.956 13.2426 16.7182ZM1.47065 11.9963C1.47099 12.0697 1.47796 12.0958 1.48612 12.0543C1.49428 12.0128 1.49394 11.9527 1.48544 11.9208C1.47694 11.8889 1.47023 11.9229 1.47065 11.9963ZM32.5119 12.013C32.5119 12.0772 32.5189 12.1035 32.5275 12.0714C32.536 12.0393 32.536 11.9867 32.5275 11.9546C32.5189 11.9225 32.5119 11.9487 32.5119 12.013ZM15.6911 12.0636C15.7285 12.0936 15.7897 12.1327 15.8271 12.1507L15.8951 12.1835L15.8271 12.1292C15.7897 12.0992 15.7285 12.0601 15.6911 12.0421L15.6231 12.0093L15.6911 12.0636ZM1.43861 12.6303C1.43878 12.7404 1.44515 12.7815 1.45272 12.7215C1.46028 12.6615 1.46011 12.5714 1.45238 12.5213C1.44464 12.4712 1.43844 12.5202 1.43861 12.6303ZM32.5482 12.647C32.5482 12.748 32.5546 12.7893 32.5624 12.7388C32.5702 12.6883 32.5702 12.6057 32.5624 12.5552C32.5546 12.5048 32.5482 12.5461 32.5482 12.647ZM1.40427 13.0475C1.40427 13.1484 1.41064 13.1897 1.41846 13.1392C1.4262 13.0887 1.4262 13.0062 1.41846 12.9557C1.41064 12.9052 1.40427 12.9465 1.40427 13.0475ZM14.5521 16.7204V20.5269L14.6277 20.5033C14.6998 20.4808 14.783 20.4315 15.3081 20.0998C15.4342 20.0202 15.5453 19.9551 15.5551 19.9551C15.5648 19.9551 15.6759 19.8892 15.802 19.8088C16.0679 19.6391 17.0868 19.0209 17.187 18.9684C17.2245 18.9488 17.343 18.8775 17.4506 18.8099C17.5581 18.7423 17.734 18.6317 17.8415 18.5641C17.9491 18.4965 18.0676 18.4252 18.105 18.4056C18.2053 18.3531 19.2242 17.7349 19.4901 17.5652C19.6162 17.4848 19.7273 17.4189 19.737 17.4189C19.7468 17.4189 19.8579 17.3536 19.984 17.2738C20.1099 17.1939 20.3163 17.0645 20.4425 16.9862C20.5688 16.9079 20.672 16.8375 20.672 16.8299C20.672 16.8078 20.5734 16.8647 20.0193 17.2064C19.7331 17.3828 19.4531 17.5535 19.397 17.5857C19.3067 17.6375 18.0252 18.4146 17.2891 18.864C17.1395 18.9554 16.9482 19.0709 16.864 19.1208C16.7799 19.1707 16.581 19.2908 16.4221 19.3878C16.1336 19.5636 15.2683 20.087 14.8671 20.3282C14.7506 20.3983 14.6397 20.4556 14.6206 20.4556C14.5974 20.4556 14.5861 19.2264 14.5861 16.7015C14.5861 14.6367 14.5946 12.9473 14.605 12.9473C14.6461 12.9473 16.0291 13.7727 16.2965 13.9568C16.349 13.9929 16.3992 14.0154 16.408 14.0067C16.4169 13.998 16.3203 13.9265 16.1936 13.8478C16.0668 13.7691 15.883 13.6544 15.7851 13.593C15.6872 13.5315 15.5984 13.4813 15.5877 13.4813C15.5771 13.4813 15.4782 13.4212 15.3681 13.3478C15.2579 13.2744 15.1588 13.2143 15.1478 13.2143C15.1369 13.2143 15.0252 13.1467 14.8999 13.0641C14.5101 12.8075 14.5521 12.3667 14.5521 16.7204ZM32.5817 13.0641C32.582 13.1559 32.5886 13.1895 32.5964 13.1388C32.6043 13.088 32.6041 13.0129 32.596 12.972C32.5879 12.9309 32.5815 12.9724 32.5817 13.0641ZM1.37171 13.9318C1.37188 14.0786 1.37783 14.1345 1.38497 14.056C1.3922 13.9776 1.39211 13.8574 1.3848 13.789C1.37749 13.7207 1.37163 13.7849 1.37171 13.9318ZM32.6179 13.9484C32.6179 14.1045 32.6238 14.1683 32.6309 14.0903C32.6381 14.0123 32.6381 13.8846 32.6309 13.8066C32.6238 13.7286 32.6179 13.7924 32.6179 13.9484ZM16.5241 14.0779C16.5708 14.1149 16.7085 14.204 16.8301 14.276C17.2925 14.5498 18.5227 15.2969 18.7421 15.4372C18.8682 15.5177 18.9793 15.5836 18.989 15.5836C18.9988 15.5836 19.1099 15.6492 19.236 15.7294C19.4236 15.8488 20.0516 16.2318 20.2215 16.3304C20.2449 16.3439 20.264 16.3392 20.264 16.3197C20.264 16.3003 20.2479 16.2844 20.2282 16.2844C20.2085 16.2844 20.1022 16.2243 19.992 16.1509C19.8819 16.0775 19.7824 16.0174 19.771 16.0174C19.7597 16.0174 19.6628 15.9611 19.5559 15.8923C19.4489 15.8234 19.3312 15.7493 19.2943 15.7276C19.0301 15.572 18.6483 15.3376 18.335 15.139C18.1996 15.0532 18.08 14.9829 18.0691 14.9829C18.0582 14.9829 17.9826 14.9379 17.9011 14.8828C17.8195 14.8277 17.7434 14.7827 17.7319 14.7827C17.7204 14.7827 17.5976 14.7076 17.459 14.6158C17.3205 14.5241 17.1993 14.449 17.1898 14.449C17.1803 14.449 17.0457 14.3688 16.8907 14.2709C16.7358 14.1729 16.5708 14.0743 16.5241 14.0517L16.4391 14.0107L16.5241 14.0779ZM1.33831 14.6158C1.33831 14.7902 1.34409 14.8615 1.35106 14.7744C1.35803 14.6872 1.35803 14.5445 1.35106 14.4573C1.34409 14.3702 1.33831 14.4415 1.33831 14.6158ZM32.6521 14.6325C32.652 14.7977 32.6577 14.8695 32.6649 14.792C32.672 14.7146 32.6721 14.5795 32.6651 14.4917C32.6581 14.4039 32.6522 14.4674 32.6521 14.6325ZM20.332 14.8798C20.3788 14.9173 20.4323 14.9481 20.451 14.9483C20.4874 14.9485 20.426 14.9023 20.315 14.8461C20.2699 14.8232 20.2756 14.8345 20.332 14.8798ZM21.08 15.3316C21.08 15.3407 21.1259 15.3716 21.182 15.4C21.2381 15.4285 21.284 15.4443 21.284 15.4352C21.284 15.426 21.2381 15.3951 21.182 15.3667C21.1259 15.3382 21.08 15.3224 21.08 15.3316ZM20.349 16.4052C20.3864 16.4339 20.4974 16.5024 20.5955 16.5576C20.812 16.679 20.8331 16.7082 20.7519 16.7723C20.6932 16.8187 20.6941 16.8195 20.7655 16.7856C20.9004 16.7214 20.8793 16.6926 20.5434 16.4839C20.3299 16.3512 20.2206 16.307 20.349 16.4052ZM22.7328 16.5346C22.7607 16.6573 22.7802 16.684 22.7795 16.5986C22.7793 16.5634 22.7635 16.5121 22.7445 16.4846C22.7193 16.448 22.7161 16.4615 22.7328 16.5346ZM20.7825 18.257C20.6667 18.3299 20.6291 18.3788 20.7315 18.3235C20.8096 18.2815 20.9318 18.1887 20.91 18.188C20.9007 18.1878 20.8433 18.2188 20.7825 18.257ZM32.6523 18.7871C32.6523 18.9615 32.6581 19.0328 32.665 18.9456C32.672 18.8584 32.672 18.7158 32.665 18.6286C32.6581 18.5414 32.6523 18.6128 32.6523 18.7871ZM1.33814 18.8038C1.33805 18.969 1.34375 19.0407 1.35089 18.9633C1.35803 18.8859 1.35811 18.7507 1.35114 18.663C1.34409 18.5752 1.33822 18.6386 1.33814 18.8038ZM32.6179 19.4545C32.6179 19.6105 32.6238 19.6743 32.6309 19.5963C32.6381 19.5183 32.6381 19.3907 32.6309 19.3127C32.6238 19.2347 32.6179 19.2985 32.6179 19.4545ZM1.37171 19.4712C1.37188 19.618 1.37783 19.6739 1.38497 19.5954C1.3922 19.517 1.39211 19.3969 1.3848 19.3285C1.37749 19.2601 1.37163 19.3244 1.37171 19.4712ZM17.816 20.0582C17.7596 20.1035 17.7539 20.1148 17.799 20.0919C17.91 20.0357 17.9714 19.9894 17.935 19.9897C17.9163 19.9899 17.8628 20.0206 17.816 20.0582ZM32.5822 20.3555C32.5822 20.4564 32.5886 20.4977 32.5964 20.4473C32.6042 20.3968 32.6042 20.3142 32.5964 20.2637C32.5886 20.2133 32.5822 20.2546 32.5822 20.3555ZM1.40376 20.3722C1.40401 20.464 1.41064 20.4976 1.41846 20.4469C1.42628 20.3961 1.42611 20.321 1.41804 20.28C1.40996 20.239 1.4035 20.2804 1.40376 20.3722ZM32.5486 20.7726C32.5487 20.8828 32.5551 20.9238 32.5627 20.8638C32.5703 20.8038 32.5701 20.7137 32.5623 20.6636C32.5546 20.6135 32.5484 20.6625 32.5486 20.7726ZM1.43827 20.7893C1.43827 20.8903 1.44464 20.9316 1.45246 20.8811C1.4602 20.8306 1.4602 20.748 1.45246 20.6975C1.44464 20.6471 1.43827 20.6884 1.43827 20.7893ZM16.5156 20.8418C16.3885 20.9094 16.3962 20.9376 16.5241 20.8727C16.5802 20.8443 16.6261 20.8138 16.6261 20.8052C16.6261 20.7836 16.6224 20.7849 16.5156 20.8418ZM16.1586 21.0601C16.0427 21.1329 16.0051 21.1819 16.1076 21.1266C16.1856 21.0846 16.3078 20.9918 16.2861 20.9911C16.2767 20.9909 16.2193 21.0219 16.1586 21.0601ZM1.47065 21.4067C1.47099 21.4801 1.47796 21.5062 1.48612 21.4646C1.49428 21.4232 1.49394 21.3631 1.48544 21.3312C1.47694 21.2993 1.47023 21.3333 1.47065 21.4067ZM32.5126 21.4067C32.513 21.4801 32.5199 21.5062 32.5281 21.4646C32.5363 21.4232 32.5359 21.3631 32.5274 21.3312C32.5189 21.2993 32.5122 21.3333 32.5126 21.4067ZM1.50533 21.7237C1.50533 21.8063 1.51196 21.8401 1.52004 21.7988C1.5282 21.7575 1.5282 21.6899 1.52004 21.6486C1.51196 21.6073 1.50533 21.6411 1.50533 21.7237ZM32.4793 21.7237C32.4793 21.8063 32.4859 21.8401 32.494 21.7988C32.5022 21.7575 32.5022 21.6899 32.494 21.6486C32.4859 21.6073 32.4793 21.6411 32.4793 21.7237ZM1.53797 22.1575C1.53797 22.2217 1.54494 22.248 1.55353 22.2159C1.56203 22.1838 1.56203 22.1312 1.55353 22.0991C1.54494 22.067 1.53797 22.0933 1.53797 22.1575ZM32.4439 22.1575C32.4439 22.2217 32.4509 22.248 32.4595 22.2159C32.468 22.1838 32.468 22.1312 32.4595 22.0991C32.4509 22.067 32.4439 22.0933 32.4439 22.1575ZM1.57197 22.4244C1.57197 22.4887 1.57894 22.515 1.58753 22.4828C1.59603 22.4507 1.59603 22.3982 1.58753 22.3661C1.57894 22.3339 1.57197 22.3602 1.57197 22.4244ZM32.4099 22.4244C32.4099 22.4887 32.4169 22.515 32.4255 22.4828C32.434 22.4507 32.434 22.3982 32.4255 22.3661C32.4169 22.3339 32.4099 22.3602 32.4099 22.4244ZM5.18506 26.6958C5.22246 26.7116 5.28366 26.724 5.32106 26.7235C5.37572 26.7228 5.3724 26.7173 5.30406 26.6958C5.18778 26.6593 5.09845 26.6593 5.18506 26.6958ZM28.696 26.6958C28.6277 26.7173 28.6244 26.7228 28.679 26.7235C28.7164 26.724 28.7776 26.7116 28.815 26.6958C28.9017 26.6593 28.8123 26.6593 28.696 26.6958ZM5.64406 26.7626C5.69081 26.7772 5.76731 26.789 5.81406 26.7887C5.89039 26.7881 5.88869 26.7854 5.79706 26.7626C5.65324 26.7266 5.52982 26.7266 5.64406 26.7626ZM28.271 26.7626C28.1785 26.7857 28.1769 26.7882 28.254 26.7897C28.3008 26.7905 28.3696 26.7783 28.407 26.7626C28.4909 26.7272 28.4127 26.7272 28.271 26.7626ZM6.12006 26.8293C6.16681 26.844 6.24331 26.8558 6.29006 26.8554C6.36639 26.8548 6.36469 26.8522 6.27306 26.8293C6.12924 26.7933 6.00582 26.7933 6.12006 26.8293ZM27.6505 26.8523C27.6833 26.8607 27.7368 26.8607 27.7695 26.8523C27.8023 26.8439 27.7755 26.8371 27.71 26.8371C27.6446 26.8371 27.6178 26.8439 27.6505 26.8523ZM27.149 26.896C27.0574 26.9189 27.0557 26.9216 27.132 26.9222C27.1788 26.9225 27.2553 26.9107 27.302 26.896C27.4163 26.8601 27.2929 26.8601 27.149 26.896ZM6.89399 26.9197C6.93623 26.9277 6.99743 26.9273 7.02999 26.919C7.06246 26.9106 7.02786 26.9041 6.95306 26.9045C6.87826 26.9048 6.85166 26.9116 6.89399 26.9197ZM7.55698 26.9867C7.60875 26.9944 7.68525 26.9942 7.72698 26.9863C7.7688 26.9784 7.72656 26.972 7.63306 26.9723C7.53956 26.9725 7.5053 26.9791 7.55698 26.9867ZM8.16856 27.0192C8.20128 27.0275 8.25483 27.0275 8.28756 27.0192C8.32028 27.0108 8.29351 27.0039 8.22806 27.0039C8.16261 27.0039 8.13583 27.0108 8.16856 27.0192ZM26.7265 27.1205C26.669 27.189 26.622 27.2599 26.622 27.2781C26.622 27.2964 26.6474 27.2742 26.6783 27.2288C26.7093 27.1834 26.7655 27.1125 26.8033 27.0712C26.841 27.0299 26.8627 26.9962 26.8515 26.9962C26.8402 26.9962 26.784 27.0521 26.7265 27.1205ZM8.44056 27.0535C8.49198 27.0611 8.57613 27.0611 8.62756 27.0535C8.67898 27.0458 8.63691 27.0395 8.53406 27.0395C8.43121 27.0395 8.38913 27.0458 8.44056 27.0535ZM9.08656 27.0859C9.11928 27.0943 9.17283 27.0943 9.20556 27.0859C9.23828 27.0775 9.21151 27.0707 9.14606 27.0707C9.08061 27.0707 9.05383 27.0775 9.08656 27.0859ZM9.42656 27.1205C9.49668 27.1278 9.61143 27.1278 9.68156 27.1205C9.75168 27.1134 9.69431 27.1074 9.55406 27.1074C9.41381 27.1074 9.35643 27.1134 9.42656 27.1205ZM24.5055 27.1198C24.5476 27.1278 24.6165 27.1278 24.6585 27.1198C24.7006 27.1119 24.6662 27.1054 24.582 27.1054C24.4979 27.1054 24.4635 27.1119 24.5055 27.1198ZM10.243 27.1536C10.2947 27.1613 10.3712 27.1611 10.413 27.1532C10.4548 27.1452 10.4126 27.1389 10.3191 27.1391C10.2256 27.1394 10.1913 27.1459 10.243 27.1536ZM24.2373 27.1984L24.157 27.267L24.259 27.2085C24.3933 27.1313 24.3953 27.1296 24.3535 27.1296C24.3338 27.1296 24.2815 27.1606 24.2373 27.1984ZM10.7016 27.1876C10.7997 27.1944 10.9604 27.1944 11.0586 27.1876C11.1567 27.1809 11.0764 27.1754 10.8801 27.1754C10.6837 27.1754 10.6034 27.1809 10.7016 27.1876ZM11.7726 27.2207C11.8427 27.2279 11.9574 27.2279 12.0276 27.2207C12.0977 27.2135 12.0403 27.2076 11.9001 27.2076C11.7598 27.2076 11.7024 27.2135 11.7726 27.2207ZM12.5392 27.2546C12.6943 27.2608 12.9391 27.2608 13.0832 27.2545C13.2272 27.2483 13.1003 27.2432 12.8011 27.2433C12.5019 27.2433 12.384 27.2484 12.5392 27.2546ZM20.9372 27.2546C21.0923 27.2608 21.3371 27.2608 21.4812 27.2545C21.6252 27.2483 21.4982 27.2432 21.199 27.2433C20.8998 27.2433 20.782 27.2484 20.9372 27.2546ZM14.4416 27.2878C14.5584 27.2943 14.7497 27.2943 14.8666 27.2878C14.9834 27.2813 14.8878 27.276 14.6541 27.276C14.4203 27.276 14.3247 27.2813 14.4416 27.2878ZM19.115 27.2878C19.2405 27.2942 19.4547 27.2942 19.591 27.2879C19.7274 27.2816 19.6248 27.2763 19.363 27.2763C19.1012 27.2762 18.9896 27.2814 19.115 27.2878ZM16.3286 27.3215C16.7166 27.3269 17.3515 27.3269 17.7395 27.3215C18.1276 27.3161 17.8101 27.3118 17.034 27.3118C16.258 27.3118 15.9405 27.3161 16.3286 27.3215Z" fill="#747474"/>
</svg>
